<?xml version="1.0" encoding="UTF-8" standalone="no"?>
<!DOCTYPE svg PUBLIC "-//W3C//DTD SVG 1.1//EN"
 "http://www.w3.org/Graphics/SVG/1.1/DTD/svg11.dtd">
<!-- Generated by graphviz version 2.43.0 (0)
 -->
<!-- Title: Source/Onepiece/Character/Public/APlayerActor.h Pages: 1 -->
<svg width="443pt" height="148pt"
 viewBox="0.00 0.00 443.19 148.00" xmlns="http://www.w3.org/2000/svg" xmlns:xlink="http://www.w3.org/1999/xlink">

<svg id="main" version="1.1" xmlns="http://www.w3.org/2000/svg" xmlns:xlink="http://www.w3.org/1999/xlink" xml:space="preserve" onload="init(evt)">
<style type="text/css"><![CDATA[
.node, .edge {opacity: 0.7;}
.node.selected, .edge.selected {opacity: 1;}
.edge:hover path { stroke: red; }
.edge:hover polygon { stroke: red; fill: red; }
]]></style>
<script type="application/ecmascript" xlink:href="svg.min.js"/>
<svg id="graph" class="graph">
<g id="graph0" class="graph" transform="scale(1 1) rotate(0) translate(4 144)">
<title>Source/Onepiece/Character/Public/APlayerActor.h</title>
<!-- Node1 -->
<g id="Node000001" class="node">
<title>Node1</title>
<g id="a_Node000001"><a xlink:title="Declares the player&#45;controlled character actor.">
<polygon fill="#999999" stroke="#666666" points="236.69,-140 87.69,-140 87.69,-110 236.69,-110 236.69,-140"/>
<text text-anchor="start" x="95.69" y="-128" font-family="Malgun Gothic" font-size="10.00">Source/Onepiece/Character</text>
<text text-anchor="middle" x="162.19" y="-117" font-family="Malgun Gothic" font-size="10.00">/Public/APlayerActor.h</text>
</a>
</g>
</g>
<!-- Node2 -->
<g id="Node000002" class="node">
<title>Node2</title>
<g id="a_Node000002"><a xlink:title=" ">
<polygon fill="#e0e0e0" stroke="#999999" points="94.19,-19 6.19,-19 6.19,0 94.19,0 94.19,-19"/>
<text text-anchor="middle" x="50.19" y="-7" font-family="Malgun Gothic" font-size="10.00">CoreMinimal.h</text>
</a>
</g>
</g>
<!-- Node1&#45;&gt;Node2 -->
<g id="edge1_Node000001_Node000002" class="edge">
<title>Node1&#45;&gt;Node2</title>
<g id="a_edge1_Node000001_Node000002"><a xlink:title=" ">
<path fill="none" stroke="#63b8ff" d="M87.35,-119.18C56.43,-113.04 23.4,-100.23 4.19,-74 -8.01,-57.35 10.37,-38.16 27.38,-25.27"/>
<polygon fill="#63b8ff" stroke="#63b8ff" points="29.87,-27.8 35.99,-19.15 25.81,-22.09 29.87,-27.8"/>
</a>
</g>
</g>
<!-- Node3 -->
<g id="Node000003" class="node">
<title>Node3</title>
<g id="a_Node000003"><a xlink:title=" ">
<polygon fill="#e0e0e0" stroke="#999999" points="171.69,-74 12.69,-74 12.69,-55 171.69,-55 171.69,-74"/>
<text text-anchor="middle" x="92.19" y="-62" font-family="Malgun Gothic" font-size="10.00">GameFramework/Character.h</text>
</a>
</g>
</g>
<!-- Node1&#45;&gt;Node3 -->
<g id="edge2_Node000001_Node000003" class="edge">
<title>Node1&#45;&gt;Node3</title>
<g id="a_edge2_Node000001_Node000003"><a xlink:title=" ">
<path fill="none" stroke="#63b8ff" d="M145.24,-109.84C134.77,-101.09 121.33,-89.85 110.59,-80.88"/>
<polygon fill="#63b8ff" stroke="#63b8ff" points="112.59,-77.99 102.68,-74.27 108.1,-83.36 112.59,-77.99"/>
</a>
</g>
</g>
<!-- Node4 -->
<g id="Node000004" class="node">
<title>Node4</title>
<g id="a_Node000004"><a xlink:href="IControllable_8h.html" target="_top" xlink:title="UControllable 클래스를 선언합니다.">
<polygon fill="white" stroke="#666666" points="277.19,-74 189.19,-74 189.19,-55 277.19,-55 277.19,-74"/>
<text text-anchor="middle" x="233.19" y="-62" font-family="Malgun Gothic" font-size="10.00">IControllable.h</text>
</a>
</g>
</g>
<!-- Node1&#45;&gt;Node4 -->
<g id="edge3_Node000001_Node000004" class="edge">
<title>Node1&#45;&gt;Node4</title>
<g id="a_edge3_Node000001_Node000004"><a xlink:title=" ">
<path fill="none" stroke="#63b8ff" d="M179.37,-109.84C189.99,-101.09 203.63,-89.85 214.52,-80.88"/>
<polygon fill="#63b8ff" stroke="#63b8ff" points="217.05,-83.33 222.55,-74.27 212.6,-77.92 217.05,-83.33"/>
</a>
</g>
</g>
<!-- Node7 -->
<g id="Node000007" class="node">
<title>Node7</title>
<g id="a_Node000007"><a xlink:title=" ">
<polygon fill="#e0e0e0" stroke="#999999" points="435.19,-74 295.19,-74 295.19,-55 435.19,-55 435.19,-74"/>
<text text-anchor="middle" x="365.19" y="-62" font-family="Malgun Gothic" font-size="10.00">APlayerActor.generated.h</text>
</a>
</g>
</g>
<!-- Node1&#45;&gt;Node7 -->
<g id="edge7_Node000001_Node000007" class="edge">
<title>Node1&#45;&gt;Node7</title>
<g id="a_edge7_Node000001_Node000007"><a xlink:title=" ">
<path fill="none" stroke="#63b8ff" d="M210.81,-109.99C245.99,-99.85 292.94,-86.32 325.79,-76.85"/>
<polygon fill="#63b8ff" stroke="#63b8ff" points="326.86,-80.19 335.5,-74.05 324.93,-73.46 326.86,-80.19"/>
</a>
</g>
</g>
<!-- Node4&#45;&gt;Node2 -->
<g id="edge4_Node000004_Node000002" class="edge">
<title>Node4&#45;&gt;Node2</title>
<g id="a_edge4_Node000004_Node000002"><a xlink:title=" ">
<path fill="none" stroke="#63b8ff" d="M203.78,-54.98C172.79,-46.01 123.81,-31.82 89.51,-21.89"/>
<polygon fill="#63b8ff" stroke="#63b8ff" points="90.4,-18.5 79.82,-19.08 88.45,-25.23 90.4,-18.5"/>
</a>
</g>
</g>
<!-- Node5 -->
<g id="Node000005" class="node">
<title>Node5</title>
<g id="a_Node000005"><a xlink:title=" ">
<polygon fill="#e0e0e0" stroke="#999999" points="255.69,-19 144.69,-19 144.69,0 255.69,0 255.69,-19"/>
<text text-anchor="middle" x="200.19" y="-7" font-family="Malgun Gothic" font-size="10.00">UObject/Interface.h</text>
</a>
</g>
</g>
<!-- Node4&#45;&gt;Node5 -->
<g id="edge5_Node000004_Node000005" class="edge">
<title>Node4&#45;&gt;Node5</title>
<g id="a_edge5_Node000004_Node000005"><a xlink:title=" ">
<path fill="none" stroke="#63b8ff" d="M227.74,-54.75C223.17,-47.42 216.52,-36.73 210.89,-27.7"/>
<polygon fill="#63b8ff" stroke="#63b8ff" points="213.79,-25.73 205.53,-19.09 207.85,-29.43 213.79,-25.73"/>
</a>
</g>
</g>
<!-- Node6 -->
<g id="Node000006" class="node">
<title>Node6</title>
<g id="a_Node000006"><a xlink:title=" ">
<polygon fill="#e0e0e0" stroke="#999999" points="414.19,-19 274.19,-19 274.19,0 414.19,0 414.19,-19"/>
<text text-anchor="middle" x="344.19" y="-7" font-family="Malgun Gothic" font-size="10.00">IControllable.generated.h</text>
</a>
</g>
</g>
<!-- Node4&#45;&gt;Node6 -->
<g id="edge6_Node000004_Node000006" class="edge">
<title>Node4&#45;&gt;Node6</title>
<g id="a_edge6_Node000004_Node000006"><a xlink:title=" ">
<path fill="none" stroke="#63b8ff" d="M251.02,-54.98C268.8,-46.5 296.33,-33.35 316.87,-23.54"/>
<polygon fill="#63b8ff" stroke="#63b8ff" points="318.51,-26.64 326.03,-19.17 315.5,-20.32 318.51,-26.64"/>
</a>
</g>
</g>
</g>
</svg>
</svg>

<style type='text/css'>
<![CDATA[
[data-mouse-over-selected='false'] { opacity: 0.7; }
[data-mouse-over-selected='true']  { opacity: 1.0; }
]]>
</style>
<script type="application/ecmascript"><![CDATA[
document.addEventListener('DOMContentLoaded', (event) => {
  highlightEdges();
  highlightAdjacentNodes();
});
]]></script>
</svg>
