<?xml version="1.0" encoding="UTF-8" standalone="no"?>
<!DOCTYPE svg PUBLIC "-//W3C//DTD SVG 1.1//EN"
 "http://www.w3.org/Graphics/SVG/1.1/DTD/svg11.dtd">
<!-- Generated by graphviz version 2.43.0 (0)
 -->
<!-- Title: Source/Onepiece/Character/Private/APlayerActor.cpp Pages: 1 -->
<svg width="1926pt" height="214pt"
 viewBox="0.00 0.00 1926.00 214.00" xmlns="http://www.w3.org/2000/svg" xmlns:xlink="http://www.w3.org/1999/xlink">
<g id="graph0" class="graph" transform="scale(1 1) rotate(0) translate(4 210)">
<title>Source/Onepiece/Character/Private/APlayerActor.cpp</title>
<!-- Node1 -->
<g id="Node000001" class="node">
<title>Node1</title>
<g id="a_Node000001"><a xlink:title="Provides Doxygen annotations for APlayerActor implementation.">
<polygon fill="#999999" stroke="#666666" points="1060,-206 911,-206 911,-176 1060,-176 1060,-206"/>
<text text-anchor="start" x="919" y="-194" font-family="Malgun Gothic" font-size="10.00">Source/Onepiece/Character</text>
<text text-anchor="middle" x="985.5" y="-183" font-family="Malgun Gothic" font-size="10.00">/Private/APlayerActor.cpp</text>
</a>
</g>
</g>
<!-- Node2 -->
<g id="Node000002" class="node">
<title>Node2</title>
<g id="a_Node000002"><a xlink:href="APlayerActor_8h.html" target="_top" xlink:title="Declares the player&#45;controlled character actor.">
<polygon fill="white" stroke="#666666" points="396.5,-134.5 308.5,-134.5 308.5,-115.5 396.5,-115.5 396.5,-134.5"/>
<text text-anchor="middle" x="352.5" y="-122.5" font-family="Malgun Gothic" font-size="10.00">APlayerActor.h</text>
</a>
</g>
</g>
<!-- Node1&#45;&gt;Node2 -->
<g id="edge1_Node000001_Node000002" class="edge">
<title>Node1&#45;&gt;Node2</title>
<g id="a_edge1_Node000001_Node000002"><a xlink:title=" ">
<path fill="none" stroke="#63b8ff" d="M910.71,-182.44C781.59,-169.38 519.84,-142.92 406.66,-131.48"/>
<polygon fill="#63b8ff" stroke="#63b8ff" points="406.8,-127.97 396.5,-130.45 406.1,-134.94 406.8,-127.97"/>
</a>
</g>
</g>
<!-- Node9 -->
<g id="Node000009" class="node">
<title>Node9</title>
<g id="a_Node000009"><a xlink:href="UFlySystem_8h.html" target="_top" xlink:title="UFlySystem 클래스를 선언합니다.">
<polygon fill="white" stroke="#666666" points="693,-134.5 608,-134.5 608,-115.5 693,-115.5 693,-134.5"/>
<text text-anchor="middle" x="650.5" y="-122.5" font-family="Malgun Gothic" font-size="10.00">UFlySystem.h</text>
</a>
</g>
</g>
<!-- Node1&#45;&gt;Node9 -->
<g id="edge9_Node000001_Node000009" class="edge">
<title>Node1&#45;&gt;Node9</title>
<g id="a_edge9_Node000001_Node000009"><a xlink:title=" ">
<path fill="none" stroke="#63b8ff" d="M910.96,-178.67C853.69,-169.52 772.75,-155.63 702.5,-140 698.56,-139.12 694.46,-138.14 690.38,-137.12"/>
<polygon fill="#63b8ff" stroke="#63b8ff" points="690.92,-133.64 680.36,-134.52 689.16,-140.42 690.92,-133.64"/>
</a>
</g>
</g>
<!-- Node12 -->
<g id="Node000012" class="node">
<title>Node12</title>
<g id="a_Node000012"><a xlink:href="Macro_8h.html" target="_top" xlink:title="YiSan 전반에서 사용하는 공용 인터페이스를 선언합니다.">
<polygon fill="white" stroke="#666666" points="767.5,-134.5 711.5,-134.5 711.5,-115.5 767.5,-115.5 767.5,-134.5"/>
<text text-anchor="middle" x="739.5" y="-122.5" font-family="Malgun Gothic" font-size="10.00">Macro.h</text>
</a>
</g>
</g>
<!-- Node1&#45;&gt;Node12 -->
<g id="edge13_Node000001_Node000012" class="edge">
<title>Node1&#45;&gt;Node12</title>
<g id="a_edge13_Node000001_Node000012"><a xlink:title=" ">
<path fill="none" stroke="#63b8ff" d="M918.46,-175.98C877.43,-166.88 824.06,-154.12 777.5,-140 775.37,-139.35 773.18,-138.65 770.99,-137.92"/>
<polygon fill="#63b8ff" stroke="#63b8ff" points="772.05,-134.58 761.46,-134.58 769.74,-141.19 772.05,-134.58"/>
</a>
</g>
</g>
<!-- Node13 -->
<g id="Node000013" class="node">
<title>Node13</title>
<g id="a_Node000013"><a xlink:title=" ">
<polygon fill="#e0e0e0" stroke="#999999" points="887,-134.5 786,-134.5 786,-115.5 887,-115.5 887,-134.5"/>
<text text-anchor="middle" x="836.5" y="-122.5" font-family="Malgun Gothic" font-size="10.00">InputCoreTypes.h</text>
</a>
</g>
</g>
<!-- Node1&#45;&gt;Node13 -->
<g id="edge14_Node000001_Node000013" class="edge">
<title>Node1&#45;&gt;Node13</title>
<g id="a_edge14_Node000001_Node000013"><a xlink:title=" ">
<path fill="none" stroke="#63b8ff" d="M952.8,-175.95C926.79,-164.78 890.72,-149.29 865.67,-138.53"/>
<polygon fill="#63b8ff" stroke="#63b8ff" points="866.9,-135.25 856.33,-134.52 864.14,-141.68 866.9,-135.25"/>
</a>
</g>
</g>
<!-- Node14 -->
<g id="Node000014" class="node">
<title>Node14</title>
<g id="a_Node000014"><a xlink:title=" ">
<polygon fill="#e0e0e0" stroke="#999999" points="1066,-134.5 905,-134.5 905,-115.5 1066,-115.5 1066,-134.5"/>
<text text-anchor="middle" x="985.5" y="-122.5" font-family="Malgun Gothic" font-size="10.00">Camera/CameraComponent.h</text>
</a>
</g>
</g>
<!-- Node1&#45;&gt;Node14 -->
<g id="edge15_Node000001_Node000014" class="edge">
<title>Node1&#45;&gt;Node14</title>
<g id="a_edge15_Node000001_Node000014"><a xlink:title=" ">
<path fill="none" stroke="#63b8ff" d="M985.5,-175.8C985.5,-166.7 985.5,-154.79 985.5,-144.9"/>
<polygon fill="#63b8ff" stroke="#63b8ff" points="989,-144.84 985.5,-134.84 982,-144.84 989,-144.84"/>
</a>
</g>
</g>
<!-- Node15 -->
<g id="Node000015" class="node">
<title>Node15</title>
<g id="a_Node000015"><a xlink:title=" ">
<polygon fill="#e0e0e0" stroke="#999999" points="1255,-134.5 1084,-134.5 1084,-115.5 1255,-115.5 1255,-134.5"/>
<text text-anchor="middle" x="1169.5" y="-122.5" font-family="Malgun Gothic" font-size="10.00">Components/InputComponent.h</text>
</a>
</g>
</g>
<!-- Node1&#45;&gt;Node15 -->
<g id="edge16_Node000001_Node000015" class="edge">
<title>Node1&#45;&gt;Node15</title>
<g id="a_edge16_Node000001_Node000015"><a xlink:title=" ">
<path fill="none" stroke="#63b8ff" d="M1025.88,-175.95C1058.72,-164.53 1104.53,-148.6 1135.51,-137.82"/>
<polygon fill="#63b8ff" stroke="#63b8ff" points="1136.72,-141.11 1145.01,-134.52 1134.42,-134.5 1136.72,-141.11"/>
</a>
</g>
</g>
<!-- Node16 -->
<g id="Node000016" class="node">
<title>Node16</title>
<g id="a_Node000016"><a xlink:title=" ">
<polygon fill="#e0e0e0" stroke="#999999" points="1458,-134.5 1273,-134.5 1273,-115.5 1458,-115.5 1458,-134.5"/>
<text text-anchor="middle" x="1365.5" y="-122.5" font-family="Malgun Gothic" font-size="10.00">Components/CapsuleComponent.h</text>
</a>
</g>
</g>
<!-- Node1&#45;&gt;Node16 -->
<g id="edge17_Node000001_Node000016" class="edge">
<title>Node1&#45;&gt;Node16</title>
<g id="a_edge17_Node000001_Node000016"><a xlink:title=" ">
<path fill="none" stroke="#63b8ff" d="M1060.12,-177.43C1131.77,-165.36 1238.65,-147.36 1305.11,-136.17"/>
<polygon fill="#63b8ff" stroke="#63b8ff" points="1305.73,-139.62 1315.01,-134.5 1304.57,-132.71 1305.73,-139.62"/>
</a>
</g>
</g>
<!-- Node17 -->
<g id="Node000017" class="node">
<title>Node17</title>
<g id="a_Node000017"><a xlink:title=" ">
<polygon fill="#e0e0e0" stroke="#999999" points="1696.5,-134.5 1476.5,-134.5 1476.5,-115.5 1696.5,-115.5 1696.5,-134.5"/>
<text text-anchor="middle" x="1586.5" y="-122.5" font-family="Malgun Gothic" font-size="10.00">GameFramework/SpringArmComponent.h</text>
</a>
</g>
</g>
<!-- Node1&#45;&gt;Node17 -->
<g id="edge18_Node000001_Node000017" class="edge">
<title>Node1&#45;&gt;Node17</title>
<g id="a_edge18_Node000001_Node000017"><a xlink:title=" ">
<path fill="none" stroke="#63b8ff" d="M1060.26,-182.57C1155.04,-173.07 1323.47,-155.94 1467.5,-140 1479.74,-138.65 1492.67,-137.17 1505.34,-135.7"/>
<polygon fill="#63b8ff" stroke="#63b8ff" points="1505.88,-139.16 1515.41,-134.53 1505.07,-132.21 1505.88,-139.16"/>
</a>
</g>
</g>
<!-- Node18 -->
<g id="Node000018" class="node">
<title>Node18</title>
<g id="a_Node000018"><a xlink:title=" ">
<polygon fill="#e0e0e0" stroke="#999999" points="1918,-140 1715,-140 1715,-110 1918,-110 1918,-140"/>
<text text-anchor="start" x="1723" y="-128" font-family="Malgun Gothic" font-size="10.00">GameFramework/CharacterMovement</text>
<text text-anchor="middle" x="1816.5" y="-117" font-family="Malgun Gothic" font-size="10.00">Component.h</text>
</a>
</g>
</g>
<!-- Node1&#45;&gt;Node18 -->
<g id="edge19_Node000001_Node000018" class="edge">
<title>Node1&#45;&gt;Node18</title>
<g id="a_edge19_Node000001_Node000018"><a xlink:title=" ">
<path fill="none" stroke="#63b8ff" d="M1060.24,-186.2C1189.38,-179.32 1462.82,-163.41 1704.86,-140.02"/>
<polygon fill="#63b8ff" stroke="#63b8ff" points="1705.29,-143.5 1714.9,-139.05 1704.61,-136.53 1705.29,-143.5"/>
</a>
</g>
</g>
<!-- Node3 -->
<g id="Node000003" class="node">
<title>Node3</title>
<g id="a_Node000003"><a xlink:title=" ">
<polygon fill="#e0e0e0" stroke="#999999" points="494.5,-19 406.5,-19 406.5,0 494.5,0 494.5,-19"/>
<text text-anchor="middle" x="450.5" y="-7" font-family="Malgun Gothic" font-size="10.00">CoreMinimal.h</text>
</a>
</g>
</g>
<!-- Node2&#45;&gt;Node3 -->
<g id="edge2_Node000002_Node000003" class="edge">
<title>Node2&#45;&gt;Node3</title>
<g id="a_edge2_Node000002_Node000003"><a xlink:title=" ">
<path fill="none" stroke="#63b8ff" d="M374.35,-115.36C392.2,-107.23 416.79,-93.4 431.5,-74 441.38,-60.96 446.15,-42.82 448.43,-29.26"/>
<polygon fill="#63b8ff" stroke="#63b8ff" points="451.93,-29.55 449.83,-19.17 444.99,-28.59 451.93,-29.55"/>
</a>
</g>
</g>
<!-- Node4 -->
<g id="Node000004" class="node">
<title>Node4</title>
<g id="a_Node000004"><a xlink:title=" ">
<polygon fill="#e0e0e0" stroke="#999999" points="159,-74 0,-74 0,-55 159,-55 159,-74"/>
<text text-anchor="middle" x="79.5" y="-62" font-family="Malgun Gothic" font-size="10.00">GameFramework/Character.h</text>
</a>
</g>
</g>
<!-- Node2&#45;&gt;Node4 -->
<g id="edge3_Node000002_Node000004" class="edge">
<title>Node2&#45;&gt;Node4</title>
<g id="a_edge3_Node000002_Node000004"><a xlink:title=" ">
<path fill="none" stroke="#63b8ff" d="M312.8,-115.49C264.18,-105.07 181.79,-87.42 129.05,-76.12"/>
<polygon fill="#63b8ff" stroke="#63b8ff" points="129.76,-72.69 119.24,-74.02 128.29,-79.53 129.76,-72.69"/>
</a>
</g>
</g>
<!-- Node5 -->
<g id="Node000005" class="node">
<title>Node5</title>
<g id="a_Node000005"><a xlink:href="IControllable_8h.html" target="_top" xlink:title="UControllable 클래스를 선언합니다.">
<polygon fill="white" stroke="#666666" points="264.5,-74 176.5,-74 176.5,-55 264.5,-55 264.5,-74"/>
<text text-anchor="middle" x="220.5" y="-62" font-family="Malgun Gothic" font-size="10.00">IControllable.h</text>
</a>
</g>
</g>
<!-- Node2&#45;&gt;Node5 -->
<g id="edge4_Node000002_Node000005" class="edge">
<title>Node2&#45;&gt;Node5</title>
<g id="a_edge4_Node000002_Node000005"><a xlink:title=" ">
<path fill="none" stroke="#63b8ff" d="M333.31,-115.49C311.11,-105.66 274.38,-89.38 248.88,-78.08"/>
<polygon fill="#63b8ff" stroke="#63b8ff" points="250.28,-74.87 239.72,-74.02 247.44,-81.27 250.28,-74.87"/>
</a>
</g>
</g>
<!-- Node8 -->
<g id="Node000008" class="node">
<title>Node8</title>
<g id="a_Node000008"><a xlink:title=" ">
<polygon fill="#e0e0e0" stroke="#999999" points="422.5,-74 282.5,-74 282.5,-55 422.5,-55 422.5,-74"/>
<text text-anchor="middle" x="352.5" y="-62" font-family="Malgun Gothic" font-size="10.00">APlayerActor.generated.h</text>
</a>
</g>
</g>
<!-- Node2&#45;&gt;Node8 -->
<g id="edge8_Node000002_Node000008" class="edge">
<title>Node2&#45;&gt;Node8</title>
<g id="a_edge8_Node000002_Node000008"><a xlink:title=" ">
<path fill="none" stroke="#63b8ff" d="M352.5,-115.37C352.5,-107.25 352.5,-94.81 352.5,-84.39"/>
<polygon fill="#63b8ff" stroke="#63b8ff" points="356,-84.17 352.5,-74.17 349,-84.17 356,-84.17"/>
</a>
</g>
</g>
<!-- Node5&#45;&gt;Node3 -->
<g id="edge5_Node000005_Node000003" class="edge">
<title>Node5&#45;&gt;Node3</title>
<g id="a_edge5_Node000005_Node000003"><a xlink:title=" ">
<path fill="none" stroke="#63b8ff" d="M257.45,-54.98C297.07,-45.86 360.09,-31.33 403.27,-21.38"/>
<polygon fill="#63b8ff" stroke="#63b8ff" points="404.3,-24.74 413.26,-19.08 402.73,-17.92 404.3,-24.74"/>
</a>
</g>
</g>
<!-- Node6 -->
<g id="Node000006" class="node">
<title>Node6</title>
<g id="a_Node000006"><a xlink:title=" ">
<polygon fill="#e0e0e0" stroke="#999999" points="181,-19 70,-19 70,0 181,0 181,-19"/>
<text text-anchor="middle" x="125.5" y="-7" font-family="Malgun Gothic" font-size="10.00">UObject/Interface.h</text>
</a>
</g>
</g>
<!-- Node5&#45;&gt;Node6 -->
<g id="edge6_Node000005_Node000006" class="edge">
<title>Node5&#45;&gt;Node6</title>
<g id="a_edge6_Node000005_Node000006"><a xlink:title=" ">
<path fill="none" stroke="#63b8ff" d="M205.24,-54.98C190.37,-46.69 167.52,-33.94 150.08,-24.22"/>
<polygon fill="#63b8ff" stroke="#63b8ff" points="151.48,-20.99 141.04,-19.17 148.07,-27.1 151.48,-20.99"/>
</a>
</g>
</g>
<!-- Node7 -->
<g id="Node000007" class="node">
<title>Node7</title>
<g id="a_Node000007"><a xlink:title=" ">
<polygon fill="#e0e0e0" stroke="#999999" points="339.5,-19 199.5,-19 199.5,0 339.5,0 339.5,-19"/>
<text text-anchor="middle" x="269.5" y="-7" font-family="Malgun Gothic" font-size="10.00">IControllable.generated.h</text>
</a>
</g>
</g>
<!-- Node5&#45;&gt;Node7 -->
<g id="edge7_Node000005_Node000007" class="edge">
<title>Node5&#45;&gt;Node7</title>
<g id="a_edge7_Node000005_Node000007"><a xlink:title=" ">
<path fill="none" stroke="#63b8ff" d="M228.59,-54.75C235.66,-47.11 246.09,-35.82 254.65,-26.56"/>
<polygon fill="#63b8ff" stroke="#63b8ff" points="257.34,-28.81 261.56,-19.09 252.2,-24.06 257.34,-28.81"/>
</a>
</g>
</g>
<!-- Node9&#45;&gt;Node3 -->
<g id="edge10_Node000009_Node000003" class="edge">
<title>Node9&#45;&gt;Node3</title>
<g id="a_edge10_Node000009_Node000003"><a xlink:title=" ">
<path fill="none" stroke="#63b8ff" d="M682.1,-115.46C728.86,-102.69 811.42,-79.5 815.5,-74 820.53,-67.22 821.1,-61.32 815.5,-55 795.26,-32.15 601.49,-18.6 504.81,-13.21"/>
<polygon fill="#63b8ff" stroke="#63b8ff" points="504.82,-9.71 494.64,-12.66 504.43,-16.7 504.82,-9.71"/>
</a>
</g>
</g>
<!-- Node10 -->
<g id="Node000010" class="node">
<title>Node10</title>
<g id="a_Node000010"><a xlink:title=" ">
<polygon fill="#e0e0e0" stroke="#999999" points="650.5,-74 478.5,-74 478.5,-55 650.5,-55 650.5,-74"/>
<text text-anchor="middle" x="564.5" y="-62" font-family="Malgun Gothic" font-size="10.00">Components/ActorComponent.h</text>
</a>
</g>
</g>
<!-- Node9&#45;&gt;Node10 -->
<g id="edge11_Node000009_Node000010" class="edge">
<title>Node9&#45;&gt;Node10</title>
<g id="a_edge11_Node000009_Node000010"><a xlink:title=" ">
<path fill="none" stroke="#63b8ff" d="M637.81,-115.37C624.09,-106.04 602,-91.01 585.65,-79.88"/>
<polygon fill="#63b8ff" stroke="#63b8ff" points="587.48,-76.9 577.24,-74.17 583.54,-82.69 587.48,-76.9"/>
</a>
</g>
</g>
<!-- Node11 -->
<g id="Node000011" class="node">
<title>Node11</title>
<g id="a_Node000011"><a xlink:title=" ">
<polygon fill="#e0e0e0" stroke="#999999" points="806,-74 669,-74 669,-55 806,-55 806,-74"/>
<text text-anchor="middle" x="737.5" y="-62" font-family="Malgun Gothic" font-size="10.00">UFlySystem.generated.h</text>
</a>
</g>
</g>
<!-- Node9&#45;&gt;Node11 -->
<g id="edge12_Node000009_Node000011" class="edge">
<title>Node9&#45;&gt;Node11</title>
<g id="a_edge12_Node000009_Node000011"><a xlink:title=" ">
<path fill="none" stroke="#63b8ff" d="M663.34,-115.37C677.22,-106.04 699.57,-91.01 716.11,-79.88"/>
<polygon fill="#63b8ff" stroke="#63b8ff" points="718.26,-82.65 724.61,-74.17 714.36,-76.84 718.26,-82.65"/>
</a>
</g>
</g>
</g>
</svg>
