<?xml version="1.0" encoding="UTF-8" standalone="no"?>
<!DOCTYPE svg PUBLIC "-//W3C//DTD SVG 1.1//EN"
 "http://www.w3.org/Graphics/SVG/1.1/DTD/svg11.dtd">
<!-- Generated by graphviz version 2.43.0 (0)
 -->
<!-- Title: Source/Onepiece/Character/Public/APlayerActor.h Pages: 1 -->
<svg width="517pt" height="104pt"
 viewBox="0.00 0.00 517.00 104.00" xmlns="http://www.w3.org/2000/svg" xmlns:xlink="http://www.w3.org/1999/xlink">
<g id="graph0" class="graph" transform="scale(1 1) rotate(0) translate(4 100)">
<title>Source/Onepiece/Character/Public/APlayerActor.h</title>
<!-- Node1 -->
<g id="Node000001" class="node">
<title>Node1</title>
<g id="a_Node000001"><a xlink:title="Declares the player&#45;controlled character actor.">
<polygon fill="#999999" stroke="#666666" points="316,-96 167,-96 167,-66 316,-66 316,-96"/>
<text text-anchor="start" x="175" y="-84" font-family="Malgun Gothic" font-size="10.00">Source/Onepiece/Character</text>
<text text-anchor="middle" x="241.5" y="-73" font-family="Malgun Gothic" font-size="10.00">/Public/APlayerActor.h</text>
</a>
</g>
</g>
<!-- Node2 -->
<g id="Node000002" class="node">
<title>Node2</title>
<g id="a_Node000002"><a xlink:href="APlayerActor_8cpp.html" target="_top" xlink:title="Provides Doxygen annotations for APlayerActor implementation.">
<polygon fill="white" stroke="#666666" points="149,-30 0,-30 0,0 149,0 149,-30"/>
<text text-anchor="start" x="8" y="-18" font-family="Malgun Gothic" font-size="10.00">Source/Onepiece/Character</text>
<text text-anchor="middle" x="74.5" y="-7" font-family="Malgun Gothic" font-size="10.00">/Private/APlayerActor.cpp</text>
</a>
</g>
</g>
<!-- Node1&#45;&gt;Node2 -->
<g id="edge1_Node000001_Node000002" class="edge">
<title>Node1&#45;&gt;Node2</title>
<g id="a_edge1_Node000001_Node000002"><a xlink:title=" ">
<path fill="none" stroke="#63b8ff" d="M195.37,-62.32C168.79,-52.14 135.84,-39.51 111.06,-30.01"/>
<polygon fill="#63b8ff" stroke="#63b8ff" points="194.26,-65.64 204.85,-65.95 196.77,-59.11 194.26,-65.64"/>
</a>
</g>
</g>
<!-- Node3 -->
<g id="Node000003" class="node">
<title>Node3</title>
<g id="a_Node000003"><a xlink:href="UFlySystem_8cpp.html" target="_top" xlink:title="UFlySystem의 동작을 구현합니다.">
<polygon fill="white" stroke="#666666" points="316,-30 167,-30 167,0 316,0 316,-30"/>
<text text-anchor="start" x="175" y="-18" font-family="Malgun Gothic" font-size="10.00">Source/Onepiece/Character</text>
<text text-anchor="middle" x="241.5" y="-7" font-family="Malgun Gothic" font-size="10.00">/Private/UFlySystem.cpp</text>
</a>
</g>
</g>
<!-- Node1&#45;&gt;Node3 -->
<g id="edge2_Node000001_Node000003" class="edge">
<title>Node1&#45;&gt;Node3</title>
<g id="a_edge2_Node000001_Node000003"><a xlink:title=" ">
<path fill="none" stroke="#63b8ff" d="M241.5,-55.54C241.5,-46.96 241.5,-37.61 241.5,-30.16"/>
<polygon fill="#63b8ff" stroke="#63b8ff" points="238,-55.8 241.5,-65.8 245,-55.8 238,-55.8"/>
</a>
</g>
</g>
<!-- Node4 -->
<g id="Node000004" class="node">
<title>Node4</title>
<g id="a_Node000004"><a xlink:href="UKnockbackSystem_8cpp.html" target="_top" xlink:title="FMath의 동작을 구현합니다.">
<polygon fill="white" stroke="#666666" points="509,-30 334,-30 334,0 509,0 509,-30"/>
<text text-anchor="start" x="342" y="-18" font-family="Malgun Gothic" font-size="10.00">Source/Onepiece/Character</text>
<text text-anchor="middle" x="421.5" y="-7" font-family="Malgun Gothic" font-size="10.00">/Private/UKnockbackSystem.cpp</text>
</a>
</g>
</g>
<!-- Node1&#45;&gt;Node4 -->
<g id="edge3_Node000001_Node000004" class="edge">
<title>Node1&#45;&gt;Node4</title>
<g id="a_edge3_Node000001_Node000004"><a xlink:title=" ">
<path fill="none" stroke="#63b8ff" d="M290.47,-62.59C319.24,-52.36 355.15,-39.59 382.09,-30.01"/>
<polygon fill="#63b8ff" stroke="#63b8ff" points="289.25,-59.31 281,-65.95 291.6,-65.9 289.25,-59.31"/>
</a>
</g>
</g>
</g>
</svg>
