<?xml version="1.0" encoding="UTF-8" standalone="no"?>
<!DOCTYPE svg PUBLIC "-//W3C//DTD SVG 1.1//EN"
 "http://www.w3.org/Graphics/SVG/1.1/DTD/svg11.dtd">
<!-- Generated by graphviz version 2.43.0 (0)
 -->
<!-- Title: UHttpNetworkSystem::RequestHealth Pages: 1 -->
<svg width="495pt" height="172pt"
 viewBox="0.00 0.00 495.00 172.00" xmlns="http://www.w3.org/2000/svg" xmlns:xlink="http://www.w3.org/1999/xlink">

<svg id="main" version="1.1" xmlns="http://www.w3.org/2000/svg" xmlns:xlink="http://www.w3.org/1999/xlink" xml:space="preserve" onload="init(evt)">
<style type="text/css"><![CDATA[
.node, .edge {opacity: 0.7;}
.node.selected, .edge.selected {opacity: 1;}
.edge:hover path { stroke: red; }
.edge:hover polygon { stroke: red; fill: red; }
]]></style>
<script type="application/ecmascript" xlink:href="svg.min.js"/>
<svg id="graph" class="graph">
<g id="graph0" class="graph" transform="scale(1 1) rotate(0) translate(4 168)">
<title>UHttpNetworkSystem::RequestHealth</title>
<!-- Node1 -->
<g id="Node000001" class="node">
<title>Node1</title>
<g id="a_Node000001"><a xlink:title="서버 상태 확인을 위한 /health 요청을 전송합니다.">
<polygon fill="#999999" stroke="#666666" points="123,-99 0,-99 0,-69 123,-69 123,-99"/>
<text text-anchor="start" x="8" y="-87" font-family="Malgun Gothic" font-size="10.00">UHttpNetworkSystem</text>
<text text-anchor="middle" x="61.5" y="-76" font-family="Malgun Gothic" font-size="10.00">::RequestHealth</text>
</a>
</g>
</g>
<!-- Node2 -->
<g id="Node000002" class="node">
<title>Node2</title>
<g id="a_Node000002"><a xlink:href="classUHttpNetworkSystem.html#a81106a2a506eff7c55cf1de50cb73954" target="_top" xlink:title="네트워크 처리 대기 카운트를 갱신하고 UI에 통보합니다.">
<polygon fill="white" stroke="#666666" points="300,-164 167,-164 167,-134 300,-134 300,-164"/>
<text text-anchor="start" x="175" y="-152" font-family="Malgun Gothic" font-size="10.00">UHttpNetworkSystem</text>
<text text-anchor="middle" x="233.5" y="-141" font-family="Malgun Gothic" font-size="10.00">::AddNetworkWaitCount</text>
</a>
</g>
</g>
<!-- Node1&#45;&gt;Node2 -->
<g id="edge1_Node000001_Node000002" class="edge">
<title>Node1&#45;&gt;Node2</title>
<g id="a_edge1_Node000001_Node000002"><a xlink:title=" ">
<path fill="none" stroke="#63b8ff" d="M96.15,-99.14C114.56,-107.21 137.86,-117.08 159,-125 164.11,-126.91 169.44,-128.83 174.81,-130.69"/>
<polygon fill="#63b8ff" stroke="#63b8ff" points="173.86,-134.06 184.45,-133.97 176.11,-127.43 173.86,-134.06"/>
</a>
</g>
</g>
<!-- Node3 -->
<g id="Node000003" class="node">
<title>Node3</title>
<g id="a_Node000003"><a xlink:href="namespaceNetworkConfig.html#ab5ac57e8f51de6d1740c7a88534a7246" target="_top" xlink:title="현재 서버 모드에 맞는 HTTP 엔드포인트 URL을 생성합니다.">
<polygon fill="white" stroke="#666666" points="305,-115.5 162,-115.5 162,-96.5 305,-96.5 305,-115.5"/>
<text text-anchor="middle" x="233.5" y="-103.5" font-family="Malgun Gothic" font-size="10.00">NetworkConfig::GetFullUrl</text>
</a>
</g>
</g>
<!-- Node1&#45;&gt;Node3 -->
<g id="edge2_Node000001_Node000003" class="edge">
<title>Node1&#45;&gt;Node3</title>
<g id="a_edge2_Node000001_Node000003"><a xlink:title=" ">
<path fill="none" stroke="#63b8ff" d="M123.39,-91.88C132.66,-93.08 142.34,-94.33 151.94,-95.57"/>
<polygon fill="#63b8ff" stroke="#63b8ff" points="151.53,-99.05 161.9,-96.86 152.43,-92.11 151.53,-99.05"/>
</a>
</g>
</g>
<!-- Node6 -->
<g id="Node000006" class="node">
<title>Node6</title>
<g id="a_Node000006"><a xlink:href="classUHttpNetworkSystem.html#a7e1c4594cecb3e83131e17106e654d07" target="_top" xlink:title="공통 네트워크 로그 메시지를 출력합니다.">
<polygon fill="white" stroke="#666666" points="295,-78 172,-78 172,-48 295,-48 295,-78"/>
<text text-anchor="start" x="180" y="-66" font-family="Malgun Gothic" font-size="10.00">UHttpNetworkSystem</text>
<text text-anchor="middle" x="233.5" y="-55" font-family="Malgun Gothic" font-size="10.00">::LogNetwork</text>
</a>
</g>
</g>
<!-- Node1&#45;&gt;Node6 -->
<g id="edge5_Node000001_Node000006" class="edge">
<title>Node1&#45;&gt;Node6</title>
<g id="a_edge5_Node000001_Node000006"><a xlink:title=" ">
<path fill="none" stroke="#63b8ff" d="M123.39,-76.48C135.8,-74.95 148.95,-73.32 161.66,-71.75"/>
<polygon fill="#63b8ff" stroke="#63b8ff" points="162.25,-75.2 171.75,-70.5 161.39,-68.26 162.25,-75.2"/>
</a>
</g>
</g>
<!-- Node8 -->
<g id="Node000008" class="node">
<title>Node8</title>
<g id="a_Node000008"><a xlink:href="structFResponseHealth.html#a649fdef3c5c114642f944a5e9f83f312" target="_top" xlink:title="HTTP 응답을 파싱해 상태 정보를 갱신합니다.">
<polygon fill="white" stroke="#666666" points="308,-30 159,-30 159,0 308,0 308,-30"/>
<text text-anchor="start" x="167" y="-18" font-family="Malgun Gothic" font-size="10.00">FResponseHealth::SetFrom</text>
<text text-anchor="middle" x="233.5" y="-7" font-family="Malgun Gothic" font-size="10.00">HttpResponse</text>
</a>
</g>
</g>
<!-- Node1&#45;&gt;Node8 -->
<g id="edge7_Node000001_Node000008" class="edge">
<title>Node1&#45;&gt;Node8</title>
<g id="a_edge7_Node000001_Node000008"><a xlink:title=" ">
<path fill="none" stroke="#63b8ff" d="M92.51,-68.86C111.36,-59.64 136.3,-47.96 159,-39 163.79,-37.11 168.8,-35.24 173.85,-33.44"/>
<polygon fill="#63b8ff" stroke="#63b8ff" points="175.28,-36.65 183.58,-30.06 172.98,-30.04 175.28,-36.65"/>
</a>
</g>
</g>
<!-- Node4 -->
<g id="Node000004" class="node">
<title>Node4</title>
<g id="a_Node000004"><a xlink:href="classUCustomNetworkSettings.html#aa089b67ac992ff3aee3dd62629c0df0a" target="_top" xlink:title="명령줄 또는 설정으로 선택된 서버 모드를 반환합니다.">
<polygon fill="white" stroke="#666666" points="487,-164 344,-164 344,-134 487,-134 487,-164"/>
<text text-anchor="start" x="352" y="-152" font-family="Malgun Gothic" font-size="10.00">UCustomNetworkSettings</text>
<text text-anchor="middle" x="415.5" y="-141" font-family="Malgun Gothic" font-size="10.00">::GetCurrentServerMode</text>
</a>
</g>
</g>
<!-- Node3&#45;&gt;Node4 -->
<g id="edge3_Node000003_Node000004" class="edge">
<title>Node3&#45;&gt;Node4</title>
<g id="a_edge3_Node000003_Node000004"><a xlink:title=" ">
<path fill="none" stroke="#63b8ff" d="M274.45,-115.54C294.3,-120.28 318.9,-126.16 341.93,-131.66"/>
<polygon fill="#63b8ff" stroke="#63b8ff" points="341.14,-135.07 351.68,-133.99 342.77,-128.27 341.14,-135.07"/>
</a>
</g>
</g>
<!-- Node5 -->
<g id="Node000005" class="node">
<title>Node5</title>
<g id="a_Node000005"><a xlink:href="structFServerConfig.html#ab65e0b73b4679e5efb155dd6f98bac3d" target="_top" xlink:title="엔드포인트를 결합한 전체 URL을 반환합니다.">
<polygon fill="white" stroke="#666666" points="485,-115.5 346,-115.5 346,-96.5 485,-96.5 485,-115.5"/>
<text text-anchor="middle" x="415.5" y="-103.5" font-family="Malgun Gothic" font-size="10.00">FServerConfig::GetFullUrl</text>
</a>
</g>
</g>
<!-- Node3&#45;&gt;Node5 -->
<g id="edge4_Node000003_Node000005" class="edge">
<title>Node3&#45;&gt;Node5</title>
<g id="a_edge4_Node000003_Node000005"><a xlink:title=" ">
<path fill="none" stroke="#63b8ff" d="M305.12,-106C315.17,-106 325.55,-106 335.74,-106"/>
<polygon fill="#63b8ff" stroke="#63b8ff" points="335.85,-109.5 345.85,-106 335.85,-102.5 335.85,-109.5"/>
</a>
</g>
</g>
<!-- Node7 -->
<g id="Node000007" class="node">
<title>Node7</title>
<g id="a_Node000007"><a xlink:href="classUHttpNetworkSystem.html#ac1921af11a0ab9c5c5f0099d732076a3" target="_top" xlink:title="요청 타입에 맞는 로그 접두사를 반환합니다.">
<polygon fill="white" stroke="#666666" points="477,-78 354,-78 354,-48 477,-48 477,-78"/>
<text text-anchor="start" x="362" y="-66" font-family="Malgun Gothic" font-size="10.00">UHttpNetworkSystem</text>
<text text-anchor="middle" x="415.5" y="-55" font-family="Malgun Gothic" font-size="10.00">::GetLogPrefix</text>
</a>
</g>
</g>
<!-- Node6&#45;&gt;Node7 -->
<g id="edge6_Node000006_Node000007" class="edge">
<title>Node6&#45;&gt;Node7</title>
<g id="a_edge6_Node000006_Node000007"><a xlink:title=" ">
<path fill="none" stroke="#63b8ff" d="M295.19,-63C310.68,-63 327.47,-63 343.42,-63"/>
<polygon fill="#63b8ff" stroke="#63b8ff" points="343.77,-66.5 353.77,-63 343.77,-59.5 343.77,-66.5"/>
</a>
</g>
</g>
</g>
</svg>
</svg>

<style type='text/css'>
<![CDATA[
[data-mouse-over-selected='false'] { opacity: 0.7; }
[data-mouse-over-selected='true']  { opacity: 1.0; }
]]>
</style>
<script type="application/ecmascript"><![CDATA[
document.addEventListener('DOMContentLoaded', (event) => {
  highlightEdges();
  highlightAdjacentNodes();
});
]]></script>
</svg>
