<?xml version="1.0" encoding="UTF-8" standalone="no"?>
<!DOCTYPE svg PUBLIC "-//W3C//DTD SVG 1.1//EN"
 "http://www.w3.org/Graphics/SVG/1.1/DTD/svg11.dtd">
<!-- Generated by graphviz version 2.43.0 (0)
 -->
<!-- Title: UWebSocketSystem::Connect Pages: 1 -->
<!--zoomable 348 -->

<svg id="main" version="1.1" xmlns="http://www.w3.org/2000/svg" xmlns:xlink="http://www.w3.org/1999/xlink" xml:space="preserve" onload="init(evt)">
<style type="text/css"><![CDATA[
.node, .edge {opacity: 0.7;}
.node.selected, .edge.selected {opacity: 1;}
.edge:hover path { stroke: red; }
.edge:hover polygon { stroke: red; fill: red; }
]]></style>

<defs>
  <circle id="rim" cx="0" cy="0" r="7"/>
  <circle id="rim2" cx="0" cy="0" r="3.5"/>
  <g id="zoomPlus">
    <use xlink:href="#rim" fill="#404040"><set attributeName="fill" to="#808080" begin="zoomplus.mouseover" end="zoomplus.mouseout"/></use>
    <path d="M-4,0h8M0,-4v8" fill="none" stroke="white" stroke-width="1.5" pointer-events="none"/>
  </g>
  <g id="zoomMin">
    <use xlink:href="#rim" fill="#404040"><set attributeName="fill" to="#808080" begin="zoomminus.mouseover" end="zoomminus.mouseout"/></use>
    <path d="M-4,0h8" fill="none" stroke="white" stroke-width="1.5" pointer-events="none"/>
  </g>
  <g id="arrowUp" transform="translate(30 24)">
    <use xlink:href="#rim"/>
    <path pointer-events="none" fill="none" stroke="white" stroke-width="1.5" d="M0,-3.0v7 M-2.5,-0.5L0,-3.0L2.5,-0.5"/>
  </g>
  <g id="arrowRight" transform="rotate(90) translate(36 -43)">
    <use xlink:href="#rim"/>
    <path pointer-events="none" fill="none" stroke="white" stroke-width="1.5" d="M0,-3.0v7 M-2.5,-0.5L0,-3.0L2.5,-0.5"/>
  </g>
  <g id="arrowDown" transform="rotate(180) translate(-30 -48)">
    <use xlink:href="#rim"/>
    <path pointer-events="none" fill="none" stroke="white" stroke-width="1.5" d="M0,-3.0v7 M-2.5,-0.5L0,-3.0L2.5,-0.5"/>
  </g>
  <g id="arrowLeft" transform="rotate(270) translate(-36 17)">
    <use xlink:href="#rim"/>
    <path pointer-events="none" fill="none" stroke="white" stroke-width="1.5" d="M0,-3.0v7 M-2.5,-0.5L0,-3.0L2.5,-0.5"/>
  </g>
  <g id="resetDef">
    <use xlink:href="#rim2" fill="#404040"><set attributeName="fill" to="#808080" begin="reset.mouseover" end="reset.mouseout"/></use>
  </g>
</defs>
<script type="application/ecmascript">
var viewWidth = 607;
var viewHeight = 348;
var sectionId = 'dynsection-2';
</script>
<script type="application/ecmascript" xlink:href="svg.min.js"/>
<svg id="graph" class="graph">
<g id="viewport">
<title>UWebSocketSystem::Connect</title>
<!-- Node1 -->
<g id="Node000001" class="node">
<title>Node1</title>
<g id="a_Node000001"><a xlink:title="WebSocket 서버와 연결을 수립합니다.">
<polygon fill="#999999" stroke="#666666" points="160,-192.5 0,-192.5 0,-173.5 160,-173.5 160,-192.5"/>
<text text-anchor="middle" x="80" y="-180.5" font-family="Malgun Gothic" font-size="10.00">UWebSocketSystem::Connect</text>
</a>
</g>
</g>
<!-- Node2 -->
<g id="Node000002" class="node">
<title>Node2</title>
<g id="a_Node000002"><a xlink:href="namespaceNetworkConfig.html#a948647fad9ed84a91de549757a7a0e74" target="_top" xlink:title="현재 서버 모드에서 사용할 WebSocket 주소를 반환합니다.">
<polygon fill="white" stroke="#666666" points="372,-334.5 208,-334.5 208,-315.5 372,-315.5 372,-334.5"/>
<text text-anchor="middle" x="290" y="-322.5" font-family="Malgun Gothic" font-size="10.00">NetworkConfig::GetSocketURL</text>
</a>
</g>
</g>
<!-- Node1&#45;&gt;Node2 -->
<g id="edge1_Node000001_Node000002" class="edge">
<title>Node1&#45;&gt;Node2</title>
<g id="a_edge1_Node000001_Node000002"><a xlink:title=" ">
<path fill="none" stroke="#63b8ff" d="M86.83,-192.67C101.7,-216.44 143.64,-277.91 196,-307 199.28,-308.82 202.72,-310.47 206.26,-311.94"/>
<polygon fill="#63b8ff" stroke="#63b8ff" points="205.24,-315.3 215.83,-315.49 207.66,-308.73 205.24,-315.3"/>
</a>
</g>
</g>
<!-- Node4 -->
<g id="Node000004" class="node">
<title>Node4</title>
<g id="a_Node000004"><a xlink:href="classUWebSocketSystem.html#a89bbc98f683cca370ea2e91fbd36ca7b" target="_top" xlink:title="현재 WebSocket 연결 상태를 조회합니다.">
<polygon fill="white" stroke="#666666" points="380,-297.5 200,-297.5 200,-278.5 380,-278.5 380,-297.5"/>
<text text-anchor="middle" x="290" y="-285.5" font-family="Malgun Gothic" font-size="10.00">UWebSocketSystem::IsConnected</text>
</a>
</g>
</g>
<!-- Node1&#45;&gt;Node4 -->
<g id="edge3_Node000001_Node000004" class="edge">
<title>Node1&#45;&gt;Node4</title>
<g id="a_edge3_Node000001_Node000004"><a xlink:title=" ">
<path fill="none" stroke="#63b8ff" d="M91.9,-192.76C111.39,-209.71 154.11,-244.63 196,-264 206.08,-268.66 217.21,-272.52 228.17,-275.68"/>
<polygon fill="#63b8ff" stroke="#63b8ff" points="227.57,-279.15 238.14,-278.39 229.41,-272.39 227.57,-279.15"/>
</a>
</g>
</g>
<!-- Node5 -->
<g id="Node000005" class="node">
<title>Node5</title>
<g id="a_Node000005"><a xlink:href="classUWebSocketSystem.html#a864f4f7d23c89554fbe9a6ddad5aedf1" target="_top" xlink:title="WebSocket 관련 공통 로그 메시지를 출력합니다.">
<polygon fill="white" stroke="#666666" points="599,-144.5 420,-144.5 420,-125.5 599,-125.5 599,-144.5"/>
<text text-anchor="middle" x="509.5" y="-132.5" font-family="Malgun Gothic" font-size="10.00">UWebSocketSystem::LogNetwork</text>
</a>
</g>
</g>
<!-- Node1&#45;&gt;Node5 -->
<g id="edge4_Node000001_Node000005" class="edge">
<title>Node1&#45;&gt;Node5</title>
<g id="a_edge4_Node000001_Node000005"><a xlink:title=" ">
<path fill="none" stroke="#63b8ff" d="M97.85,-192.55C119.68,-204.31 159.3,-223.65 196,-231 277.93,-247.41 304.91,-257.95 384,-231 429.79,-215.4 471.85,-175.38 493.4,-152.24"/>
<polygon fill="#63b8ff" stroke="#63b8ff" points="496.25,-154.31 500.38,-144.55 491.07,-149.6 496.25,-154.31"/>
</a>
</g>
</g>
<!-- Node6 -->
<g id="Node000006" class="node">
<title>Node6</title>
<g id="a_Node000006"><a xlink:href="classUWebSocketSystem.html#a02b52e67a7d5cb10d8990691e83316de" target="_top" xlink:title="바이너리 메시지를 수신했을 때 호출됩니다.">
<polygon fill="white" stroke="#666666" points="372.5,-222 207.5,-222 207.5,-192 372.5,-192 372.5,-222"/>
<text text-anchor="start" x="215.5" y="-210" font-family="Malgun Gothic" font-size="10.00">UWebSocketSystem::OnBinary</text>
<text text-anchor="middle" x="290" y="-199" font-family="Malgun Gothic" font-size="10.00">Message_Native</text>
</a>
</g>
</g>
<!-- Node1&#45;&gt;Node6 -->
<g id="edge5_Node000001_Node000006" class="edge">
<title>Node1&#45;&gt;Node6</title>
<g id="a_edge5_Node000001_Node000006"><a xlink:title=" ">
<path fill="none" stroke="#63b8ff" d="M160.23,-192.14C172.25,-193.53 184.74,-194.97 197,-196.38"/>
<polygon fill="#63b8ff" stroke="#63b8ff" points="196.89,-199.9 207.23,-197.56 197.7,-192.94 196.89,-199.9"/>
</a>
</g>
</g>
<!-- Node7 -->
<g id="Node000007" class="node">
<title>Node7</title>
<g id="a_Node000007"><a xlink:href="classUWebSocketSystem.html#a7a88c6a90e78c24cb49759a99f461820" target="_top" xlink:title="연결 종료 이벤트를 처리합니다.">
<polygon fill="white" stroke="#666666" points="373.5,-174 206.5,-174 206.5,-144 373.5,-144 373.5,-174"/>
<text text-anchor="start" x="214.5" y="-162" font-family="Malgun Gothic" font-size="10.00">UWebSocketSystem::OnClosed</text>
<text text-anchor="middle" x="290" y="-151" font-family="Malgun Gothic" font-size="10.00">_Native</text>
</a>
</g>
</g>
<!-- Node1&#45;&gt;Node7 -->
<g id="edge7_Node000001_Node000007" class="edge">
<title>Node1&#45;&gt;Node7</title>
<g id="a_edge7_Node000001_Node000007"><a xlink:title=" ">
<path fill="none" stroke="#63b8ff" d="M160.23,-173.86C171.98,-172.5 184.18,-171.1 196.17,-169.71"/>
<polygon fill="#63b8ff" stroke="#63b8ff" points="196.66,-173.18 206.19,-168.56 195.85,-166.22 196.66,-173.18"/>
</a>
</g>
</g>
<!-- Node8 -->
<g id="Node000008" class="node">
<title>Node8</title>
<g id="a_Node000008"><a xlink:href="classUWebSocketSystem.html#a7f1b915b47d4df8053b658927e948009" target="_top" xlink:title="WebSocket 연결 완료 콜백입니다.">
<polygon fill="white" stroke="#666666" points="382.5,-126 197.5,-126 197.5,-96 382.5,-96 382.5,-126"/>
<text text-anchor="start" x="205.5" y="-114" font-family="Malgun Gothic" font-size="10.00">UWebSocketSystem::OnConnected</text>
<text text-anchor="middle" x="290" y="-103" font-family="Malgun Gothic" font-size="10.00">_Native</text>
</a>
</g>
</g>
<!-- Node1&#45;&gt;Node8 -->
<g id="edge9_Node000001_Node000008" class="edge">
<title>Node1&#45;&gt;Node8</title>
<g id="a_edge9_Node000001_Node000008"><a xlink:title=" ">
<path fill="none" stroke="#63b8ff" d="M101.43,-173.42C124.17,-163.02 162.16,-146.36 196,-135 202.37,-132.86 209.04,-130.8 215.76,-128.84"/>
<polygon fill="#63b8ff" stroke="#63b8ff" points="216.94,-132.15 225.61,-126.06 215.03,-125.41 216.94,-132.15"/>
</a>
</g>
</g>
<!-- Node9 -->
<g id="Node000009" class="node">
<title>Node9</title>
<g id="a_Node000009"><a xlink:href="classUWebSocketSystem.html#a7417991ad9b907b214283443537f567a" target="_top" xlink:title="연결 오류 발생 시 호출되는 콜백입니다.">
<polygon fill="white" stroke="#666666" points="384,-78 196,-78 196,-48 384,-48 384,-78"/>
<text text-anchor="start" x="204" y="-66" font-family="Malgun Gothic" font-size="10.00">UWebSocketSystem::OnConnection</text>
<text text-anchor="middle" x="290" y="-55" font-family="Malgun Gothic" font-size="10.00">Error_Native</text>
</a>
</g>
</g>
<!-- Node1&#45;&gt;Node9 -->
<g id="edge11_Node000001_Node000009" class="edge">
<title>Node1&#45;&gt;Node9</title>
<g id="a_edge11_Node000001_Node000009"><a xlink:title=" ">
<path fill="none" stroke="#63b8ff" d="M89.52,-173.49C107.33,-154.18 150.65,-110.27 196,-87 199.76,-85.07 203.68,-83.29 207.7,-81.65"/>
<polygon fill="#63b8ff" stroke="#63b8ff" points="209.1,-84.86 217.22,-78.05 206.62,-78.31 209.1,-84.86"/>
</a>
</g>
</g>
<!-- Node10 -->
<g id="Node000010" class="node">
<title>Node10</title>
<g id="a_Node000010"><a xlink:href="classUWebSocketSystem.html#a193675a8b260eb5d79e535ef3f7f1192" target="_top" xlink:title="텍스트 메시지를 수신했을 때 호출됩니다.">
<polygon fill="white" stroke="#666666" points="378.5,-30 201.5,-30 201.5,0 378.5,0 378.5,-30"/>
<text text-anchor="start" x="209.5" y="-18" font-family="Malgun Gothic" font-size="10.00">UWebSocketSystem::OnMessage</text>
<text text-anchor="middle" x="290" y="-7" font-family="Malgun Gothic" font-size="10.00">_Native</text>
</a>
</g>
</g>
<!-- Node1&#45;&gt;Node10 -->
<g id="edge13_Node000001_Node000010" class="edge">
<title>Node1&#45;&gt;Node10</title>
<g id="a_edge13_Node000001_Node000010"><a xlink:title=" ">
<path fill="none" stroke="#63b8ff" d="M85.92,-173.15C99.53,-146.93 140.41,-75 196,-39 198.58,-37.33 201.26,-35.78 204.03,-34.33"/>
<polygon fill="#63b8ff" stroke="#63b8ff" points="205.54,-37.49 213.11,-30.08 202.57,-31.15 205.54,-37.49"/>
</a>
</g>
</g>
<!-- Node3 -->
<g id="Node000003" class="node">
<title>Node3</title>
<g id="a_Node000003"><a xlink:href="classUCustomNetworkSettings.html#aa089b67ac992ff3aee3dd62629c0df0a" target="_top" xlink:title="명령줄 또는 설정으로 선택된 서버 모드를 반환합니다.">
<polygon fill="white" stroke="#666666" points="581,-340 438,-340 438,-310 581,-310 581,-340"/>
<text text-anchor="start" x="446" y="-328" font-family="Malgun Gothic" font-size="10.00">UCustomNetworkSettings</text>
<text text-anchor="middle" x="509.5" y="-317" font-family="Malgun Gothic" font-size="10.00">::GetCurrentServerMode</text>
</a>
</g>
</g>
<!-- Node2&#45;&gt;Node3 -->
<g id="edge2_Node000002_Node000003" class="edge">
<title>Node2&#45;&gt;Node3</title>
<g id="a_edge2_Node000002_Node000003"><a xlink:title=" ">
<path fill="none" stroke="#63b8ff" d="M372.3,-325C390.34,-325 409.45,-325 427.48,-325"/>
<polygon fill="#63b8ff" stroke="#63b8ff" points="427.66,-328.5 437.66,-325 427.66,-321.5 427.66,-328.5"/>
</a>
</g>
</g>
<!-- Node6&#45;&gt;Node5 -->
<g id="edge6_Node000006_Node000005" class="edge">
<title>Node6&#45;&gt;Node5</title>
<g id="a_edge6_Node000006_Node000005"><a xlink:title=" ">
<path fill="none" stroke="#63b8ff" d="M353.32,-191.98C363.62,-189.19 374.16,-186.16 384,-183 415.94,-172.76 451.57,-158.75 476.51,-148.51"/>
<polygon fill="#63b8ff" stroke="#63b8ff" points="477.93,-151.71 485.84,-144.65 475.26,-145.24 477.93,-151.71"/>
</a>
</g>
</g>
<!-- Node7&#45;&gt;Node5 -->
<g id="edge8_Node000007_Node000005" class="edge">
<title>Node7&#45;&gt;Node5</title>
<g id="a_edge8_Node000007_Node000005"><a xlink:title=" ">
<path fill="none" stroke="#63b8ff" d="M373.54,-149.89C386.15,-148.5 399.26,-147.05 412.14,-145.63"/>
<polygon fill="#63b8ff" stroke="#63b8ff" points="412.85,-149.08 422.4,-144.5 412.08,-142.12 412.85,-149.08"/>
</a>
</g>
</g>
<!-- Node8&#45;&gt;Node5 -->
<g id="edge10_Node000008_Node000005" class="edge">
<title>Node8&#45;&gt;Node5</title>
<g id="a_edge10_Node000008_Node000005"><a xlink:title=" ">
<path fill="none" stroke="#63b8ff" d="M382.61,-121.11C392.35,-122.18 402.27,-123.28 412.06,-124.36"/>
<polygon fill="#63b8ff" stroke="#63b8ff" points="411.88,-127.86 422.2,-125.48 412.64,-120.9 411.88,-127.86"/>
</a>
</g>
</g>
<!-- Node9&#45;&gt;Node5 -->
<g id="edge12_Node000009_Node000005" class="edge">
<title>Node9&#45;&gt;Node5</title>
<g id="a_edge12_Node000009_Node000005"><a xlink:title=" ">
<path fill="none" stroke="#63b8ff" d="M353.32,-78.02C363.62,-80.81 374.16,-83.84 384,-87 415.94,-97.24 451.57,-111.25 476.51,-121.49"/>
<polygon fill="#63b8ff" stroke="#63b8ff" points="475.26,-124.76 485.84,-125.35 477.93,-118.29 475.26,-124.76"/>
</a>
</g>
</g>
<!-- Node10&#45;&gt;Node5 -->
<g id="edge14_Node000010_Node000005" class="edge">
<title>Node10&#45;&gt;Node5</title>
<g id="a_edge14_Node000010_Node000005"><a xlink:title=" ">
<path fill="none" stroke="#63b8ff" d="M362.16,-30.15C369.69,-32.7 377.11,-35.63 384,-39 426.59,-59.82 468.69,-96.57 491.37,-118.06"/>
<polygon fill="#63b8ff" stroke="#63b8ff" points="489.18,-120.81 498.81,-125.23 494.03,-115.77 489.18,-120.81"/>
</a>
</g>
</g>
</g>
</svg>

<g id="navigator" transform="translate(0 0)" fill="#404254">
  <rect fill="#f2f5e9" fill-opacity="0.5" stroke="#606060" stroke-width=".5" x="0" y="0" width="60" height="60"/>
  <use id="zoomplus" xlink:href="#zoomPlus" x="17" y="9" onmousedown="handleZoom(evt,'in')"/>
  <use id="zoomminus" xlink:href="#zoomMin" x="42" y="9" onmousedown="handleZoom(evt,'out')"/>
  <use id="reset" xlink:href="#resetDef" x="30" y="36" onmousedown="handleReset()"/>
   <use id="arrowup" xlink:href="#arrowUp" x="0" y="0" onmousedown="handlePan(0,-1)"/>
  <use id="arrowright" xlink:href="#arrowRight" x="0" y="0" onmousedown="handlePan(1,0)"/>
  <use id="arrowdown" xlink:href="#arrowDown" x="0" y="0" onmousedown="handlePan(0,1)"/>
  <use id="arrowleft" xlink:href="#arrowLeft" x="0" y="0" onmousedown="handlePan(-1,0)"/>
</g>
<svg viewBox="0 0 15 15" width="100%" height="30px" preserveAspectRatio="xMaxYMin meet">
 <g id="arrow_out" transform="scale(0.3 0.3)">
  <a xlink:href="classUWebSocketSystem_ad8a09ae8c4734c4af887f138e3ccb751_cgraph_org.svg" target="_base">
   <rect id="button" ry="5" rx="5" y="6" x="6" height="38" width="38"
        fill="#f2f5e9" fill-opacity="0.5" stroke="#606060" stroke-width="1.0"/>
   <path id="arrow"
     d="M 11.500037,31.436501 C 11.940474,20.09759 22.043105,11.32322 32.158766,21.979434 L 37.068811,17.246167 C 37.068811,17.246167 37.088388,32 37.088388,32 L 22.160133,31.978069 C 22.160133,31.978069 26.997745,27.140456 26.997745,27.140456 C 18.528582,18.264221 13.291696,25.230495 11.500037,31.436501 z"
     style="fill:#404040;"/>
  </a>
 </g>
</svg>

<style type='text/css'>
<![CDATA[
[data-mouse-over-selected='false'] { opacity: 0.7; }
[data-mouse-over-selected='true']  { opacity: 1.0; }
]]>
</style>
<script type="application/ecmascript"><![CDATA[
document.addEventListener('DOMContentLoaded', (event) => {
  highlightEdges();
  highlightAdjacentNodes();
});
]]></script>
</svg>
