<?xml version="1.0" encoding="UTF-8" standalone="no"?>
<!DOCTYPE svg PUBLIC "-//W3C//DTD SVG 1.1//EN"
 "http://www.w3.org/Graphics/SVG/1.1/DTD/svg11.dtd">
<!-- Generated by graphviz version 2.43.0 (0)
 -->
<!-- Title: IControllable Pages: 1 -->
<svg width="177pt" height="502pt"
 viewBox="0.00 0.00 177.00 502.00" xmlns="http://www.w3.org/2000/svg" xmlns:xlink="http://www.w3.org/1999/xlink">
<g id="graph0" class="graph" transform="scale(1 1) rotate(0) translate(4 498)">
<title>IControllable</title>
<!-- Node1 -->
<g id="Node000001" class="node">
<title>Node1</title>
<g id="a_Node000001"><a xlink:title=" ">
<polygon fill="#999999" stroke="transparent" points="154.5,-494 14.5,-494 14.5,-355 154.5,-355 154.5,-494"/>
<text text-anchor="start" x="53" y="-481.5" font-family="Malgun Gothic" font-size="10.00">IControllable</text>
<text text-anchor="start" x="82.5" y="-466.5" font-family="Malgun Gothic" font-size="10.00"> </text>
<text text-anchor="start" x="18.5" y="-451.5" font-family="Malgun Gothic" font-size="10.00">+</text>
<text text-anchor="start" x="31.5" y="-451.5" font-family="Malgun Gothic" font-size="10.00">Cmd_AltitudeDown()</text>
<text text-anchor="start" x="18.5" y="-436.5" font-family="Malgun Gothic" font-size="10.00">+</text>
<text text-anchor="start" x="31.5" y="-436.5" font-family="Malgun Gothic" font-size="10.00">Cmd_AltitudeReleased()</text>
<text text-anchor="start" x="18.5" y="-421.5" font-family="Malgun Gothic" font-size="10.00">+</text>
<text text-anchor="start" x="31.5" y="-421.5" font-family="Malgun Gothic" font-size="10.00">Cmd_AltitudeUp()</text>
<text text-anchor="start" x="18.5" y="-406.5" font-family="Malgun Gothic" font-size="10.00">+</text>
<text text-anchor="start" x="31.5" y="-406.5" font-family="Malgun Gothic" font-size="10.00">Cmd_Jump()</text>
<text text-anchor="start" x="18.5" y="-391.5" font-family="Malgun Gothic" font-size="10.00">+</text>
<text text-anchor="start" x="31.5" y="-391.5" font-family="Malgun Gothic" font-size="10.00">Cmd_Landing()</text>
<text text-anchor="start" x="18.5" y="-376.5" font-family="Malgun Gothic" font-size="10.00">+</text>
<text text-anchor="start" x="31.5" y="-376.5" font-family="Malgun Gothic" font-size="10.00">Cmd_Look()</text>
<text text-anchor="start" x="18.5" y="-361.5" font-family="Malgun Gothic" font-size="10.00">+</text>
<text text-anchor="start" x="31.5" y="-361.5" font-family="Malgun Gothic" font-size="10.00">Cmd_Move()</text>
<polygon fill="#666666" stroke="#666666" points="14.5,-476.5 14.5,-476.5 154.5,-476.5 154.5,-476.5 14.5,-476.5"/>
<polygon fill="#666666" stroke="#666666" points="14.5,-461.5 14.5,-461.5 154.5,-461.5 154.5,-461.5 14.5,-461.5"/>
<polygon fill="none" stroke="#666666" points="14.5,-355 14.5,-494 154.5,-494 154.5,-355 14.5,-355"/>
</a>
</g>
</g>
<!-- Node2 -->
<g id="Node000002" class="node">
<title>Node2</title>
<g id="a_Node000002"><a xlink:href="classAPlayerActor.html" target="_top" xlink:title="Main character driven directly by the player.">
<polygon fill="white" stroke="transparent" points="169,-319 0,-319 0,0 169,0 169,-319"/>
<text text-anchor="start" x="53" y="-306.5" font-family="Malgun Gothic" font-size="10.00">APlayerActor</text>
<text text-anchor="start" x="4.5" y="-291.5" font-family="Malgun Gothic" font-size="10.00">+</text>
<text text-anchor="start" x="17.5" y="-291.5" font-family="Malgun Gothic" font-size="10.00">FlySystem</text>
<text text-anchor="start" x="4.5" y="-276.5" font-family="Malgun Gothic" font-size="10.00">#</text>
<text text-anchor="start" x="17.5" y="-276.5" font-family="Malgun Gothic" font-size="10.00">FollowCamera</text>
<text text-anchor="start" x="4.5" y="-261.5" font-family="Malgun Gothic" font-size="10.00">#</text>
<text text-anchor="start" x="17.5" y="-261.5" font-family="Malgun Gothic" font-size="10.00">MoveComp</text>
<text text-anchor="start" x="4.5" y="-246.5" font-family="Malgun Gothic" font-size="10.00">#</text>
<text text-anchor="start" x="17.5" y="-246.5" font-family="Malgun Gothic" font-size="10.00">PrevMoveMode</text>
<text text-anchor="start" x="4.5" y="-231.5" font-family="Malgun Gothic" font-size="10.00">#</text>
<text text-anchor="start" x="17.5" y="-231.5" font-family="Malgun Gothic" font-size="10.00">SpringArmComp</text>
<text text-anchor="start" x="4.5" y="-216.5" font-family="Malgun Gothic" font-size="10.00">+</text>
<text text-anchor="start" x="17.5" y="-216.5" font-family="Malgun Gothic" font-size="10.00">APlayerActor()</text>
<text text-anchor="start" x="4.5" y="-201.5" font-family="Malgun Gothic" font-size="10.00">+</text>
<text text-anchor="start" x="17.5" y="-201.5" font-family="Malgun Gothic" font-size="10.00">Cmd_AltitudeDown()</text>
<text text-anchor="start" x="4.5" y="-186.5" font-family="Malgun Gothic" font-size="10.00">+</text>
<text text-anchor="start" x="17.5" y="-186.5" font-family="Malgun Gothic" font-size="10.00">Cmd_AltitudeReleased()</text>
<text text-anchor="start" x="4.5" y="-171.5" font-family="Malgun Gothic" font-size="10.00">+</text>
<text text-anchor="start" x="17.5" y="-171.5" font-family="Malgun Gothic" font-size="10.00">Cmd_AltitudeUp()</text>
<text text-anchor="start" x="4.5" y="-156.5" font-family="Malgun Gothic" font-size="10.00">+</text>
<text text-anchor="start" x="17.5" y="-156.5" font-family="Malgun Gothic" font-size="10.00">Cmd_Jump()</text>
<text text-anchor="start" x="4.5" y="-141.5" font-family="Malgun Gothic" font-size="10.00">+</text>
<text text-anchor="start" x="17.5" y="-141.5" font-family="Malgun Gothic" font-size="10.00">Cmd_Landing()</text>
<text text-anchor="start" x="4.5" y="-126.5" font-family="Malgun Gothic" font-size="10.00">+</text>
<text text-anchor="start" x="17.5" y="-126.5" font-family="Malgun Gothic" font-size="10.00">Cmd_Look()</text>
<text text-anchor="start" x="4.5" y="-111.5" font-family="Malgun Gothic" font-size="10.00">+</text>
<text text-anchor="start" x="17.5" y="-111.5" font-family="Malgun Gothic" font-size="10.00">Cmd_Move()</text>
<text text-anchor="start" x="4.5" y="-96.5" font-family="Malgun Gothic" font-size="10.00">+</text>
<text text-anchor="start" x="17.5" y="-96.5" font-family="Malgun Gothic" font-size="10.00">Landed()</text>
<text text-anchor="start" x="4.5" y="-81.5" font-family="Malgun Gothic" font-size="10.00">+</text>
<text text-anchor="start" x="17.5" y="-81.5" font-family="Malgun Gothic" font-size="10.00">OnFlyEnd()</text>
<text text-anchor="start" x="4.5" y="-66.5" font-family="Malgun Gothic" font-size="10.00">+</text>
<text text-anchor="start" x="17.5" y="-66.5" font-family="Malgun Gothic" font-size="10.00">RecoveryMovementMode()</text>
<text text-anchor="start" x="4.5" y="-51.5" font-family="Malgun Gothic" font-size="10.00">+</text>
<text text-anchor="start" x="17.5" y="-51.5" font-family="Malgun Gothic" font-size="10.00">SetFallingToWalk()</text>
<text text-anchor="start" x="4.5" y="-36.5" font-family="Malgun Gothic" font-size="10.00">+</text>
<text text-anchor="start" x="17.5" y="-36.5" font-family="Malgun Gothic" font-size="10.00">SetFlying()</text>
<text text-anchor="start" x="4.5" y="-21.5" font-family="Malgun Gothic" font-size="10.00">#</text>
<text text-anchor="start" x="17.5" y="-21.5" font-family="Malgun Gothic" font-size="10.00">BeginPlay()</text>
<text text-anchor="start" x="4.5" y="-6.5" font-family="Malgun Gothic" font-size="10.00">#</text>
<text text-anchor="start" x="17.5" y="-6.5" font-family="Malgun Gothic" font-size="10.00">SetupPlayerInputComponent()</text>
<polygon fill="#666666" stroke="#666666" points="0.5,-301.5 0.5,-301.5 169.5,-301.5 169.5,-301.5 0.5,-301.5"/>
<polygon fill="#666666" stroke="#666666" points="0.5,-226.5 0.5,-226.5 15.5,-226.5 15.5,-226.5 0.5,-226.5"/>
<polygon fill="#666666" stroke="#666666" points="15.5,-226.5 15.5,-226.5 169.5,-226.5 169.5,-226.5 15.5,-226.5"/>
<polygon fill="none" stroke="#666666" points="0,0 0,-319 169,-319 169,0 0,0"/>
</a>
</g>
</g>
<!-- Node1&#45;&gt;Node2 -->
<g id="edge1_Node000001_Node000002" class="edge">
<title>Node1&#45;&gt;Node2</title>
<g id="a_edge1_Node000001_Node000002"><a xlink:title=" ">
<path fill="none" stroke="#63b8ff" d="M84.5,-344.51C84.5,-336.29 84.5,-327.74 84.5,-319.02"/>
<polygon fill="none" stroke="#63b8ff" points="81,-344.74 84.5,-354.74 88,-344.74 81,-344.74"/>
</a>
</g>
</g>
</g>
</svg>
