<?xml version="1.0" encoding="UTF-8" standalone="no"?>
<!DOCTYPE svg PUBLIC "-//W3C//DTD SVG 1.1//EN"
 "http://www.w3.org/Graphics/SVG/1.1/DTD/svg11.dtd">
<!-- Generated by graphviz version 2.43.0 (0)
 -->
<!-- Title: UBroadcastManager Pages: 1 -->
<svg width="188pt" height="377pt"
 viewBox="0.00 0.00 188.00 377.00" xmlns="http://www.w3.org/2000/svg" xmlns:xlink="http://www.w3.org/1999/xlink">
<g id="graph0" class="graph" transform="scale(1 1) rotate(0) translate(4 373)">
<title>UBroadcastManager</title>
<!-- Node1 -->
<g id="Node000001" class="node">
<title>Node1</title>
<g id="a_Node000001"><a xlink:title="게임 내 전역 이벤트를 중계하는 중앙 이벤트 버스(Event Bus) 서브시스템입니다.">
<polygon fill="#999999" stroke="transparent" points="180,-284 0,-284 0,0 180,0 180,-284"/>
<text text-anchor="start" x="40" y="-272" font-family="Malgun Gothic" font-size="10.00">UBroadcastManager</text>
<text text-anchor="start" x="4" y="-257" font-family="Malgun Gothic" font-size="10.00">+</text>
<text text-anchor="start" x="17" y="-257" font-family="Malgun Gothic" font-size="10.00">OnHitStop</text>
<text text-anchor="start" x="4" y="-242" font-family="Malgun Gothic" font-size="10.00">+</text>
<text text-anchor="start" x="17" y="-242" font-family="Malgun Gothic" font-size="10.00">OnKnockback</text>
<text text-anchor="start" x="4" y="-227" font-family="Malgun Gothic" font-size="10.00">+</text>
<text text-anchor="start" x="17" y="-227" font-family="Malgun Gothic" font-size="10.00">OnMessage</text>
<text text-anchor="start" x="4" y="-212" font-family="Malgun Gothic" font-size="10.00">+</text>
<text text-anchor="start" x="17" y="-212" font-family="Malgun Gothic" font-size="10.00">OnNetworkWaitCount</text>
<text text-anchor="start" x="4" y="-197" font-family="Malgun Gothic" font-size="10.00">+</text>
<text text-anchor="start" x="17" y="-197" font-family="Malgun Gothic" font-size="10.00">DECLARE_DYNAMIC_MULTICAST</text>
<text text-anchor="start" x="17" y="-186" font-family="Malgun Gothic" font-size="10.00">_DELEGATE_FourParams()</text>
<text text-anchor="start" x="4" y="-171" font-family="Malgun Gothic" font-size="10.00">+</text>
<text text-anchor="start" x="17" y="-171" font-family="Malgun Gothic" font-size="10.00">DECLARE_DYNAMIC_MULTICAST</text>
<text text-anchor="start" x="17" y="-160" font-family="Malgun Gothic" font-size="10.00">_DELEGATE_OneParam()</text>
<text text-anchor="start" x="4" y="-145" font-family="Malgun Gothic" font-size="10.00">+</text>
<text text-anchor="start" x="17" y="-145" font-family="Malgun Gothic" font-size="10.00">DECLARE_DYNAMIC_MULTICAST</text>
<text text-anchor="start" x="17" y="-134" font-family="Malgun Gothic" font-size="10.00">_DELEGATE_OneParam()</text>
<text text-anchor="start" x="4" y="-119" font-family="Malgun Gothic" font-size="10.00">+</text>
<text text-anchor="start" x="17" y="-119" font-family="Malgun Gothic" font-size="10.00">DECLARE_DYNAMIC_MULTICAST</text>
<text text-anchor="start" x="17" y="-108" font-family="Malgun Gothic" font-size="10.00">_DELEGATE_TwoParams()</text>
<text text-anchor="start" x="4" y="-93" font-family="Malgun Gothic" font-size="10.00">+</text>
<text text-anchor="start" x="17" y="-93" font-family="Malgun Gothic" font-size="10.00">DEFINE_SUBSYSTEM_GETTER</text>
<text text-anchor="start" x="17" y="-82" font-family="Malgun Gothic" font-size="10.00">_INLINE()</text>
<text text-anchor="start" x="4" y="-67" font-family="Malgun Gothic" font-size="10.00">+</text>
<text text-anchor="start" x="17" y="-67" font-family="Malgun Gothic" font-size="10.00">SendHitStop()</text>
<text text-anchor="start" x="4" y="-52" font-family="Malgun Gothic" font-size="10.00">+</text>
<text text-anchor="start" x="17" y="-52" font-family="Malgun Gothic" font-size="10.00">SendHitStopPair()</text>
<text text-anchor="start" x="4" y="-37" font-family="Malgun Gothic" font-size="10.00">+</text>
<text text-anchor="start" x="17" y="-37" font-family="Malgun Gothic" font-size="10.00">SendKnockback()</text>
<text text-anchor="start" x="4" y="-22" font-family="Malgun Gothic" font-size="10.00">+</text>
<text text-anchor="start" x="17" y="-22" font-family="Malgun Gothic" font-size="10.00">SendMessage()</text>
<text text-anchor="start" x="4" y="-7" font-family="Malgun Gothic" font-size="10.00">+</text>
<text text-anchor="start" x="17" y="-7" font-family="Malgun Gothic" font-size="10.00">SendNetworkWaitCount()</text>
<polygon fill="#666666" stroke="#666666" points="0,-267 0,-267 180,-267 180,-267 0,-267"/>
<polygon fill="#666666" stroke="#666666" points="0,-207 0,-207 15,-207 15,-207 0,-207"/>
<polygon fill="#666666" stroke="#666666" points="15,-207 15,-207 180,-207 180,-207 15,-207"/>
<polygon fill="none" stroke="#666666" points="0,0 0,-284 180,-284 180,0 0,0"/>
</a>
</g>
</g>
<!-- Node2 -->
<g id="Node000002" class="node">
<title>Node2</title>
<g id="a_Node000002"><a xlink:title=" ">
<polygon fill="white" stroke="transparent" points="161.5,-369 18.5,-369 18.5,-320 161.5,-320 161.5,-369"/>
<text text-anchor="start" x="24" y="-356.5" font-family="Malgun Gothic" font-size="10.00">UGameInstanceSubsystem</text>
<text text-anchor="start" x="88.5" y="-341.5" font-family="Malgun Gothic" font-size="10.00"> </text>
<text text-anchor="start" x="88.5" y="-326.5" font-family="Malgun Gothic" font-size="10.00"> </text>
<polygon fill="#666666" stroke="#666666" points="19,-351.5 19,-351.5 162,-351.5 162,-351.5 19,-351.5"/>
<polygon fill="#666666" stroke="#666666" points="19,-336.5 19,-336.5 162,-336.5 162,-336.5 19,-336.5"/>
<polygon fill="none" stroke="#666666" points="18.5,-320 18.5,-369 161.5,-369 161.5,-320 18.5,-320"/>
</a>
</g>
</g>
<!-- Node2&#45;&gt;Node1 -->
<g id="edge1_Node000001_Node000002" class="edge">
<title>Node2&#45;&gt;Node1</title>
<g id="a_edge1_Node000001_Node000002"><a xlink:title=" ">
<path fill="none" stroke="#63b8ff" d="M90,-309.54C90,-301.87 90,-293.26 90,-284.11"/>
<polygon fill="none" stroke="#63b8ff" points="86.5,-309.71 90,-319.71 93.5,-309.71 86.5,-309.71"/>
</a>
</g>
</g>
</g>
</svg>
