<?xml version="1.0" encoding="UTF-8" standalone="no"?>
<!DOCTYPE svg PUBLIC "-//W3C//DTD SVG 1.1//EN"
 "http://www.w3.org/Graphics/SVG/1.1/DTD/svg11.dtd">
<!-- Generated by graphviz version 2.43.0 (0)
 -->
<!-- Title: FHttpMultipartFormData Pages: 1 -->
<svg width="170pt" height="252pt"
 viewBox="0.00 0.00 170.00 252.00" xmlns="http://www.w3.org/2000/svg" xmlns:xlink="http://www.w3.org/1999/xlink">
<g id="graph0" class="graph" transform="scale(1 1) rotate(0) translate(4 248)">
<title>FHttpMultipartFormData</title>
<!-- Node1 -->
<g id="Node000001" class="node">
<title>Node1</title>
<g id="a_Node000001"><a xlink:title="언리얼 엔진에 기본 제공되지 않는 multipart/form&#45;data 빌더의 경량 구현입니다.">
<polygon fill="#999999" stroke="transparent" points="162,-244 0,-244 0,0 162,0 162,-244"/>
<text text-anchor="start" x="21" y="-232" font-family="Malgun Gothic" font-size="10.00">FHttpMultipartFormData</text>
<text text-anchor="start" x="6.5" y="-217" font-family="Malgun Gothic" font-size="10.00">&#45;</text>
<text text-anchor="start" x="17" y="-217" font-family="Malgun Gothic" font-size="10.00">Boundary</text>
<text text-anchor="start" x="6.5" y="-202" font-family="Malgun Gothic" font-size="10.00">&#45;</text>
<text text-anchor="start" x="17" y="-202" font-family="Malgun Gothic" font-size="10.00">BuiltBody</text>
<text text-anchor="start" x="6.5" y="-187" font-family="Malgun Gothic" font-size="10.00">&#45;</text>
<text text-anchor="start" x="17" y="-187" font-family="Malgun Gothic" font-size="10.00">FileParts</text>
<text text-anchor="start" x="6.5" y="-172" font-family="Malgun Gothic" font-size="10.00">&#45;</text>
<text text-anchor="start" x="17" y="-172" font-family="Malgun Gothic" font-size="10.00">TextParts</text>
<text text-anchor="start" x="4" y="-157" font-family="Malgun Gothic" font-size="10.00">+</text>
<text text-anchor="start" x="17" y="-157" font-family="Malgun Gothic" font-size="10.00">FHttpMultipartFormData()</text>
<text text-anchor="start" x="4" y="-142" font-family="Malgun Gothic" font-size="10.00">+</text>
<text text-anchor="start" x="17" y="-142" font-family="Malgun Gothic" font-size="10.00">AddFile()</text>
<text text-anchor="start" x="4" y="-127" font-family="Malgun Gothic" font-size="10.00">+</text>
<text text-anchor="start" x="17" y="-127" font-family="Malgun Gothic" font-size="10.00">AddStringField()</text>
<text text-anchor="start" x="4" y="-112" font-family="Malgun Gothic" font-size="10.00">+</text>
<text text-anchor="start" x="17" y="-112" font-family="Malgun Gothic" font-size="10.00">AddText()</text>
<text text-anchor="start" x="4" y="-97" font-family="Malgun Gothic" font-size="10.00">+</text>
<text text-anchor="start" x="17" y="-97" font-family="Malgun Gothic" font-size="10.00">GetBoundary()</text>
<text text-anchor="start" x="4" y="-82" font-family="Malgun Gothic" font-size="10.00">+</text>
<text text-anchor="start" x="17" y="-82" font-family="Malgun Gothic" font-size="10.00">GetBuiltBody()</text>
<text text-anchor="start" x="4" y="-67" font-family="Malgun Gothic" font-size="10.00">+</text>
<text text-anchor="start" x="17" y="-67" font-family="Malgun Gothic" font-size="10.00">Reset()</text>
<text text-anchor="start" x="4" y="-52" font-family="Malgun Gothic" font-size="10.00">+</text>
<text text-anchor="start" x="17" y="-52" font-family="Malgun Gothic" font-size="10.00">SetupHttpRequest()</text>
<text text-anchor="start" x="6.5" y="-37" font-family="Malgun Gothic" font-size="10.00">&#45;</text>
<text text-anchor="start" x="17" y="-37" font-family="Malgun Gothic" font-size="10.00">BuildBody()</text>
<text text-anchor="start" x="6.5" y="-22" font-family="Malgun Gothic" font-size="10.00">&#45;</text>
<text text-anchor="start" x="17" y="-22" font-family="Malgun Gothic" font-size="10.00">AppendUtf8()</text>
<text text-anchor="start" x="6.5" y="-7" font-family="Malgun Gothic" font-size="10.00">&#45;</text>
<text text-anchor="start" x="17" y="-7" font-family="Malgun Gothic" font-size="10.00">DetectMimeFromExtension()</text>
<polygon fill="#666666" stroke="#666666" points="0,-227 0,-227 162,-227 162,-227 0,-227"/>
<polygon fill="#666666" stroke="#666666" points="0,-167 0,-167 15,-167 15,-167 0,-167"/>
<polygon fill="#666666" stroke="#666666" points="15,-167 15,-167 162,-167 162,-167 15,-167"/>
<polygon fill="none" stroke="#666666" points="0,0 0,-244 162,-244 162,0 0,0"/>
</a>
</g>
</g>
</g>
</svg>
