<?xml version="1.0" encoding="UTF-8" standalone="no"?>
<!DOCTYPE svg PUBLIC "-//W3C//DTD SVG 1.1//EN"
 "http://www.w3.org/Graphics/SVG/1.1/DTD/svg11.dtd">
<!-- Generated by graphviz version 2.43.0 (0)
 -->
<!-- Title: UWebSocketSystem::LogNetwork Pages: 1 -->
<svg width="607pt" height="340pt"
 viewBox="0.00 0.00 607.00 340.15" xmlns="http://www.w3.org/2000/svg" xmlns:xlink="http://www.w3.org/1999/xlink">
<g id="graph0" class="graph" transform="scale(1 1) rotate(0) translate(4 336.15)">
<title>UWebSocketSystem::LogNetwork</title>
<!-- Node1 -->
<g id="Node000001" class="node">
<title>Node1</title>
<g id="a_Node000001"><a xlink:title="WebSocket 관련 공통 로그 메시지를 출력합니다.">
<polygon fill="#999999" stroke="#666666" points="599,-182 420,-182 420,-163 599,-163 599,-182"/>
<text text-anchor="middle" x="509.5" y="-170" font-family="Malgun Gothic" font-size="10.00">UWebSocketSystem::LogNetwork</text>
</a>
</g>
</g>
<!-- Node2 -->
<g id="Node000002" class="node">
<title>Node2</title>
<g id="a_Node000002"><a xlink:href="classUWebSocketSystem.html#ad8a09ae8c4734c4af887f138e3ccb751" target="_top" xlink:title="WebSocket 서버와 연결을 수립합니다.">
<polygon fill="white" stroke="#666666" points="160,-182 0,-182 0,-163 160,-163 160,-182"/>
<text text-anchor="middle" x="80" y="-170" font-family="Malgun Gothic" font-size="10.00">UWebSocketSystem::Connect</text>
</a>
</g>
</g>
<!-- Node1&#45;&gt;Node2 -->
<g id="edge1_Node000001_Node000002" class="edge">
<title>Node1&#45;&gt;Node2</title>
<g id="a_edge1_Node000001_Node000002"><a xlink:title=" ">
<path fill="none" stroke="#63b8ff" d="M498.31,-190.95C480.08,-221.76 438.64,-282.68 384,-306.5 307.41,-339.89 271.92,-341.39 196,-306.5 138.06,-279.87 98.35,-208.05 85.5,-182.06"/>
<polygon fill="#63b8ff" stroke="#63b8ff" points="501.45,-192.5 503.4,-182.08 495.38,-189.01 501.45,-192.5"/>
</a>
</g>
</g>
<!-- Node3 -->
<g id="Node000003" class="node">
<title>Node3</title>
<g id="a_Node000003"><a xlink:href="classUWebSocketSystem.html#a32fee960c1f1aae43fec2dc8ec030d45" target="_top" xlink:title="활성화된 WebSocket 연결을 종료합니다.">
<polygon fill="white" stroke="#666666" points="377,-297 203,-297 203,-278 377,-278 377,-297"/>
<text text-anchor="middle" x="290" y="-285" font-family="Malgun Gothic" font-size="10.00">UWebSocketSystem::Disconnect</text>
</a>
</g>
</g>
<!-- Node1&#45;&gt;Node3 -->
<g id="edge2_Node000001_Node000003" class="edge">
<title>Node1&#45;&gt;Node3</title>
<g id="a_edge2_Node000001_Node000003"><a xlink:title=" ">
<path fill="none" stroke="#63b8ff" d="M491.87,-189.44C469.45,-211.25 427.32,-248.67 384,-268.5 375.46,-272.41 366.11,-275.52 356.74,-277.99"/>
<polygon fill="#63b8ff" stroke="#63b8ff" points="494.56,-191.7 499.21,-182.18 489.64,-186.73 494.56,-191.7"/>
</a>
</g>
</g>
<!-- Node4 -->
<g id="Node000004" class="node">
<title>Node4</title>
<g id="a_Node000004"><a xlink:href="classUWebSocketSystem.html#a02b52e67a7d5cb10d8990691e83316de" target="_top" xlink:title="바이너리 메시지를 수신했을 때 호출됩니다.">
<polygon fill="white" stroke="#666666" points="372.5,-259.5 207.5,-259.5 207.5,-229.5 372.5,-229.5 372.5,-259.5"/>
<text text-anchor="start" x="215.5" y="-247.5" font-family="Malgun Gothic" font-size="10.00">UWebSocketSystem::OnBinary</text>
<text text-anchor="middle" x="290" y="-236.5" font-family="Malgun Gothic" font-size="10.00">Message_Native</text>
</a>
</g>
</g>
<!-- Node1&#45;&gt;Node4 -->
<g id="edge3_Node000001_Node000004" class="edge">
<title>Node1&#45;&gt;Node4</title>
<g id="a_edge3_Node000001_Node000004"><a xlink:title=" ">
<path fill="none" stroke="#63b8ff" d="M476.51,-186.01C451.57,-196.25 415.94,-210.26 384,-220.5 374.16,-223.66 363.62,-226.69 353.32,-229.48"/>
<polygon fill="#63b8ff" stroke="#63b8ff" points="477.93,-189.21 485.84,-182.15 475.26,-182.74 477.93,-189.21"/>
</a>
</g>
</g>
<!-- Node5 -->
<g id="Node000005" class="node">
<title>Node5</title>
<g id="a_Node000005"><a xlink:href="classUWebSocketSystem.html#a7a88c6a90e78c24cb49759a99f461820" target="_top" xlink:title="연결 종료 이벤트를 처리합니다.">
<polygon fill="white" stroke="#666666" points="373.5,-211.5 206.5,-211.5 206.5,-181.5 373.5,-181.5 373.5,-211.5"/>
<text text-anchor="start" x="214.5" y="-199.5" font-family="Malgun Gothic" font-size="10.00">UWebSocketSystem::OnClosed</text>
<text text-anchor="middle" x="290" y="-188.5" font-family="Malgun Gothic" font-size="10.00">_Native</text>
</a>
</g>
</g>
<!-- Node1&#45;&gt;Node5 -->
<g id="edge5_Node000001_Node000005" class="edge">
<title>Node1&#45;&gt;Node5</title>
<g id="a_edge5_Node000001_Node000005"><a xlink:title=" ">
<path fill="none" stroke="#63b8ff" d="M412.02,-183.15C399.21,-184.56 386.17,-186 373.62,-187.38"/>
<polygon fill="#63b8ff" stroke="#63b8ff" points="412.67,-186.6 422.23,-182.02 411.9,-179.64 412.67,-186.6"/>
</a>
</g>
</g>
<!-- Node6 -->
<g id="Node000006" class="node">
<title>Node6</title>
<g id="a_Node000006"><a xlink:href="classUWebSocketSystem.html#a7f1b915b47d4df8053b658927e948009" target="_top" xlink:title="WebSocket 연결 완료 콜백입니다.">
<polygon fill="white" stroke="#666666" points="382.5,-163.5 197.5,-163.5 197.5,-133.5 382.5,-133.5 382.5,-163.5"/>
<text text-anchor="start" x="205.5" y="-151.5" font-family="Malgun Gothic" font-size="10.00">UWebSocketSystem::OnConnected</text>
<text text-anchor="middle" x="290" y="-140.5" font-family="Malgun Gothic" font-size="10.00">_Native</text>
</a>
</g>
</g>
<!-- Node1&#45;&gt;Node6 -->
<g id="edge7_Node000001_Node000006" class="edge">
<title>Node1&#45;&gt;Node6</title>
<g id="a_edge7_Node000001_Node000006"><a xlink:title=" ">
<path fill="none" stroke="#63b8ff" d="M412.06,-161.86C402.24,-160.78 392.29,-159.68 382.53,-158.6"/>
<polygon fill="#63b8ff" stroke="#63b8ff" points="411.9,-165.36 422.23,-162.98 412.67,-158.4 411.9,-165.36"/>
</a>
</g>
</g>
<!-- Node7 -->
<g id="Node000007" class="node">
<title>Node7</title>
<g id="a_Node000007"><a xlink:href="classUWebSocketSystem.html#a7417991ad9b907b214283443537f567a" target="_top" xlink:title="연결 오류 발생 시 호출되는 콜백입니다.">
<polygon fill="white" stroke="#666666" points="384,-115.5 196,-115.5 196,-85.5 384,-85.5 384,-115.5"/>
<text text-anchor="start" x="204" y="-103.5" font-family="Malgun Gothic" font-size="10.00">UWebSocketSystem::OnConnection</text>
<text text-anchor="middle" x="290" y="-92.5" font-family="Malgun Gothic" font-size="10.00">Error_Native</text>
</a>
</g>
</g>
<!-- Node1&#45;&gt;Node7 -->
<g id="edge9_Node000001_Node000007" class="edge">
<title>Node1&#45;&gt;Node7</title>
<g id="a_edge9_Node000001_Node000007"><a xlink:title=" ">
<path fill="none" stroke="#63b8ff" d="M476.51,-158.99C451.57,-148.75 415.94,-134.74 384,-124.5 374.16,-121.34 363.62,-118.31 353.32,-115.52"/>
<polygon fill="#63b8ff" stroke="#63b8ff" points="475.26,-162.26 485.84,-162.85 477.93,-155.79 475.26,-162.26"/>
</a>
</g>
</g>
<!-- Node8 -->
<g id="Node000008" class="node">
<title>Node8</title>
<g id="a_Node000008"><a xlink:href="classUWebSocketSystem.html#a193675a8b260eb5d79e535ef3f7f1192" target="_top" xlink:title="텍스트 메시지를 수신했을 때 호출됩니다.">
<polygon fill="white" stroke="#666666" points="378.5,-67.5 201.5,-67.5 201.5,-37.5 378.5,-37.5 378.5,-67.5"/>
<text text-anchor="start" x="209.5" y="-55.5" font-family="Malgun Gothic" font-size="10.00">UWebSocketSystem::OnMessage</text>
<text text-anchor="middle" x="290" y="-44.5" font-family="Malgun Gothic" font-size="10.00">_Native</text>
</a>
</g>
</g>
<!-- Node1&#45;&gt;Node8 -->
<g id="edge11_Node000001_Node000008" class="edge">
<title>Node1&#45;&gt;Node8</title>
<g id="a_edge11_Node000001_Node000008"><a xlink:title=" ">
<path fill="none" stroke="#63b8ff" d="M491.37,-155.56C468.69,-134.07 426.59,-97.32 384,-76.5 377.11,-73.13 369.69,-70.2 362.16,-67.65"/>
<polygon fill="#63b8ff" stroke="#63b8ff" points="489.18,-158.31 498.81,-162.73 494.03,-153.27 489.18,-158.31"/>
</a>
</g>
</g>
<!-- Node9 -->
<g id="Node000009" class="node">
<title>Node9</title>
<g id="a_Node000009"><a xlink:href="classUWebSocketSystem.html#ab443bc5338aeebe6481ca3659f959208" target="_top" xlink:title="연결 상태를 유지하기 위해 Ping 메시지를 보냅니다.">
<polygon fill="white" stroke="#666666" points="372.5,-19 207.5,-19 207.5,0 372.5,0 372.5,-19"/>
<text text-anchor="middle" x="290" y="-7" font-family="Malgun Gothic" font-size="10.00">UWebSocketSystem::SendPing</text>
</a>
</g>
</g>
<!-- Node1&#45;&gt;Node9 -->
<g id="edge13_Node000001_Node000009" class="edge">
<title>Node1&#45;&gt;Node9</title>
<g id="a_edge13_Node000001_Node000009"><a xlink:title=" ">
<path fill="none" stroke="#63b8ff" d="M498.07,-153.91C479.49,-122.63 437.53,-59.84 384,-28.5 377.46,-24.67 370.26,-21.6 362.87,-19.15"/>
<polygon fill="#63b8ff" stroke="#63b8ff" points="495.22,-155.98 503.27,-162.87 501.28,-152.47 495.22,-155.98"/>
</a>
</g>
</g>
<!-- Node4&#45;&gt;Node2 -->
<g id="edge4_Node000004_Node000002" class="edge">
<title>Node4&#45;&gt;Node2</title>
<g id="a_edge4_Node000004_Node000002"><a xlink:title=" ">
<path fill="none" stroke="#63b8ff" d="M215.76,-226.66C209.04,-224.7 202.37,-222.64 196,-220.5 162.16,-209.14 124.17,-192.48 101.43,-182.08"/>
<polygon fill="#63b8ff" stroke="#63b8ff" points="215.03,-230.09 225.61,-229.44 216.94,-223.35 215.03,-230.09"/>
</a>
</g>
</g>
<!-- Node5&#45;&gt;Node2 -->
<g id="edge6_Node000005_Node000002" class="edge">
<title>Node5&#45;&gt;Node2</title>
<g id="a_edge6_Node000005_Node000002"><a xlink:title=" ">
<path fill="none" stroke="#63b8ff" d="M196.37,-185.81C184.23,-184.41 171.89,-182.99 160.02,-181.62"/>
<polygon fill="#63b8ff" stroke="#63b8ff" points="196.16,-189.31 206.49,-186.98 196.96,-182.36 196.16,-189.31"/>
</a>
</g>
</g>
<!-- Node6&#45;&gt;Node2 -->
<g id="edge8_Node000006_Node000002" class="edge">
<title>Node6&#45;&gt;Node2</title>
<g id="a_edge8_Node000006_Node000002"><a xlink:title=" ">
<path fill="none" stroke="#63b8ff" d="M187.53,-160.21C178.35,-161.27 169.14,-162.33 160.19,-163.36"/>
<polygon fill="#63b8ff" stroke="#63b8ff" points="187.93,-163.68 197.47,-159.06 187.13,-156.73 187.93,-163.68"/>
</a>
</g>
</g>
<!-- Node7&#45;&gt;Node2 -->
<g id="edge10_Node000007_Node000002" class="edge">
<title>Node7&#45;&gt;Node2</title>
<g id="a_edge10_Node000007_Node000002"><a xlink:title=" ">
<path fill="none" stroke="#63b8ff" d="M215.76,-118.34C209.04,-120.3 202.37,-122.36 196,-124.5 162.16,-135.86 124.17,-152.52 101.43,-162.92"/>
<polygon fill="#63b8ff" stroke="#63b8ff" points="216.94,-121.65 225.61,-115.56 215.03,-114.91 216.94,-121.65"/>
</a>
</g>
</g>
<!-- Node8&#45;&gt;Node2 -->
<g id="edge12_Node000008_Node000002" class="edge">
<title>Node8&#45;&gt;Node2</title>
<g id="a_edge12_Node000008_Node000002"><a xlink:title=" ">
<path fill="none" stroke="#63b8ff" d="M207.7,-71.15C203.68,-72.79 199.76,-74.57 196,-76.5 150.65,-99.77 107.33,-143.68 89.52,-162.99"/>
<polygon fill="#63b8ff" stroke="#63b8ff" points="209.1,-74.36 217.22,-67.55 206.62,-67.81 209.1,-74.36"/>
</a>
</g>
</g>
</g>
</svg>
