<?xml version="1.0" encoding="UTF-8" standalone="no"?>
<!DOCTYPE svg PUBLIC "-//W3C//DTD SVG 1.1//EN"
 "http://www.w3.org/Graphics/SVG/1.1/DTD/svg11.dtd">
<!-- Generated by graphviz version 2.43.0 (0)
 -->
<!-- Title: ALingoGameMode Pages: 1 -->
<svg width="150pt" height="232pt"
 viewBox="0.00 0.00 150.00 232.00" xmlns="http://www.w3.org/2000/svg" xmlns:xlink="http://www.w3.org/1999/xlink">
<g id="graph0" class="graph" transform="scale(1 1) rotate(0) translate(4 228)">
<title>ALingoGameMode</title>
<!-- Node1 -->
<g id="Node000001" class="node">
<title>Node1</title>
<g id="a_Node000001"><a xlink:title=" ">
<polygon fill="#999999" stroke="transparent" points="142,-139 0,-139 0,0 142,0 142,-139"/>
<text text-anchor="start" x="26" y="-126.5" font-family="Malgun Gothic" font-size="10.00">ALingoGameMode</text>
<text text-anchor="start" x="69" y="-111.5" font-family="Malgun Gothic" font-size="10.00"> </text>
<text text-anchor="start" x="4" y="-96.5" font-family="Malgun Gothic" font-size="10.00">+</text>
<text text-anchor="start" x="17" y="-96.5" font-family="Malgun Gothic" font-size="10.00">ALingoGameMode()</text>
<text text-anchor="start" x="4" y="-81.5" font-family="Malgun Gothic" font-size="10.00">+</text>
<text text-anchor="start" x="17" y="-81.5" font-family="Malgun Gothic" font-size="10.00">BeginListenQuest()</text>
<text text-anchor="start" x="4" y="-66.5" font-family="Malgun Gothic" font-size="10.00">+</text>
<text text-anchor="start" x="17" y="-66.5" font-family="Malgun Gothic" font-size="10.00">BeginReadQuest()</text>
<text text-anchor="start" x="4" y="-51.5" font-family="Malgun Gothic" font-size="10.00">+</text>
<text text-anchor="start" x="17" y="-51.5" font-family="Malgun Gothic" font-size="10.00">HandleCarrierSelection()</text>
<text text-anchor="start" x="4" y="-36.5" font-family="Malgun Gothic" font-size="10.00">+</text>
<text text-anchor="start" x="17" y="-36.5" font-family="Malgun Gothic" font-size="10.00">HandleCorrectAnswer()</text>
<text text-anchor="start" x="4" y="-21.5" font-family="Malgun Gothic" font-size="10.00">+</text>
<text text-anchor="start" x="17" y="-21.5" font-family="Malgun Gothic" font-size="10.00">HandleWrongAnswer()</text>
<text text-anchor="start" x="4" y="-6.5" font-family="Malgun Gothic" font-size="10.00">+</text>
<text text-anchor="start" x="17" y="-6.5" font-family="Malgun Gothic" font-size="10.00">ValidateAnswer()</text>
<polygon fill="#666666" stroke="#666666" points="0,-121.5 0,-121.5 142,-121.5 142,-121.5 0,-121.5"/>
<polygon fill="#666666" stroke="#666666" points="0,-106.5 0,-106.5 142,-106.5 142,-106.5 0,-106.5"/>
<polygon fill="none" stroke="#666666" points="0,0 0,-139 142,-139 142,0 0,0"/>
</a>
</g>
</g>
<!-- Node2 -->
<g id="Node000002" class="node">
<title>Node2</title>
<g id="a_Node000002"><a xlink:title=" ">
<polygon fill="white" stroke="transparent" points="108,-224 34,-224 34,-175 108,-175 108,-224"/>
<text text-anchor="start" x="39" y="-211.5" font-family="Malgun Gothic" font-size="10.00">AGameMode</text>
<text text-anchor="start" x="69" y="-196.5" font-family="Malgun Gothic" font-size="10.00"> </text>
<text text-anchor="start" x="69" y="-181.5" font-family="Malgun Gothic" font-size="10.00"> </text>
<polygon fill="#666666" stroke="#666666" points="34,-206.5 34,-206.5 108,-206.5 108,-206.5 34,-206.5"/>
<polygon fill="#666666" stroke="#666666" points="34,-191.5 34,-191.5 108,-191.5 108,-191.5 34,-191.5"/>
<polygon fill="none" stroke="#666666" points="34,-175 34,-224 108,-224 108,-175 34,-175"/>
</a>
</g>
</g>
<!-- Node2&#45;&gt;Node1 -->
<g id="edge1_Node000001_Node000002" class="edge">
<title>Node2&#45;&gt;Node1</title>
<g id="a_edge1_Node000001_Node000002"><a xlink:title=" ">
<path fill="none" stroke="#63b8ff" d="M71,-164.48C71,-156.57 71,-147.86 71,-139.04"/>
<polygon fill="none" stroke="#63b8ff" points="67.5,-164.72 71,-174.72 74.5,-164.72 67.5,-164.72"/>
</a>
</g>
</g>
</g>
</svg>
