<?xml version="1.0" encoding="UTF-8" standalone="no"?>
<!DOCTYPE svg PUBLIC "-//W3C//DTD SVG 1.1//EN"
 "http://www.w3.org/Graphics/SVG/1.1/DTD/svg11.dtd">
<!-- Generated by graphviz version 2.43.0 (0)
 -->
<!-- Title: ULoadginCircle::UpdateVisibility Pages: 1 -->
<svg width="393pt" height="101pt"
 viewBox="0.00 0.00 393.00 101.00" xmlns="http://www.w3.org/2000/svg" xmlns:xlink="http://www.w3.org/1999/xlink">
<g id="graph0" class="graph" transform="scale(1 1) rotate(0) translate(4 97)">
<title>ULoadginCircle::UpdateVisibility</title>
<!-- Node1 -->
<g id="Node000001" class="node">
<title>Node1</title>
<g id="a_Node000001"><a xlink:title="위젯 가시성을 업데이트합니다.">
<polygon fill="#999999" stroke="#666666" points="385,-56 211,-56 211,-37 385,-37 385,-56"/>
<text text-anchor="middle" x="298" y="-44" font-family="Malgun Gothic" font-size="10.00">ULoadginCircle::UpdateVisibility</text>
</a>
</g>
</g>
<!-- Node2 -->
<g id="Node000002" class="node">
<title>Node2</title>
<g id="a_Node000002"><a xlink:href="classULoadginCircle.html#ad971427f35d314ccf52da684d0e78621" target="_top" xlink:title="로딩 서클을 숨깁니다.">
<polygon fill="white" stroke="#666666" points="147,-93 28,-93 28,-74 147,-74 147,-93"/>
<text text-anchor="middle" x="87.5" y="-81" font-family="Malgun Gothic" font-size="10.00">ULoadginCircle::Hide</text>
</a>
</g>
</g>
<!-- Node1&#45;&gt;Node2 -->
<g id="edge1_Node000001_Node000002" class="edge">
<title>Node1&#45;&gt;Node2</title>
<g id="a_edge1_Node000001_Node000002"><a xlink:title=" ">
<path fill="none" stroke="#63b8ff" d="M233.25,-57.81C204.18,-62.97 170.14,-69.01 142.37,-73.94"/>
<polygon fill="#63b8ff" stroke="#63b8ff" points="234.07,-61.22 243.31,-56.03 232.85,-54.33 234.07,-61.22"/>
</a>
</g>
</g>
<!-- Node3 -->
<g id="Node000003" class="node">
<title>Node3</title>
<g id="a_Node000003"><a xlink:href="classULoadginCircle.html#ab895d5d9dc1e61053b3cea5f8f5f78c9" target="_top" xlink:title="위젯 생성 시 초기화 작업을 수행합니다.">
<polygon fill="white" stroke="#666666" points="175,-56 0,-56 0,-37 175,-37 175,-56"/>
<text text-anchor="middle" x="87.5" y="-44" font-family="Malgun Gothic" font-size="10.00">ULoadginCircle::NativeConstruct</text>
</a>
</g>
</g>
<!-- Node1&#45;&gt;Node3 -->
<g id="edge2_Node000001_Node000003" class="edge">
<title>Node1&#45;&gt;Node3</title>
<g id="a_edge2_Node000001_Node000003"><a xlink:title=" ">
<path fill="none" stroke="#63b8ff" d="M200.99,-46.5C192.43,-46.5 183.8,-46.5 175.32,-46.5"/>
<polygon fill="#63b8ff" stroke="#63b8ff" points="200.99,-50 210.99,-46.5 200.99,-43 200.99,-50"/>
</a>
</g>
</g>
<!-- Node4 -->
<g id="Node000004" class="node">
<title>Node4</title>
<g id="a_Node000004"><a xlink:href="classULoadginCircle.html#ab546cc86c738e8f315f288dda9240e55" target="_top" xlink:title="로딩 서클을 표시합니다.">
<polygon fill="white" stroke="#666666" points="148.5,-19 26.5,-19 26.5,0 148.5,0 148.5,-19"/>
<text text-anchor="middle" x="87.5" y="-7" font-family="Malgun Gothic" font-size="10.00">ULoadginCircle::Show</text>
</a>
</g>
</g>
<!-- Node1&#45;&gt;Node4 -->
<g id="edge3_Node000001_Node000004" class="edge">
<title>Node1&#45;&gt;Node4</title>
<g id="a_edge3_Node000001_Node000004"><a xlink:title=" ">
<path fill="none" stroke="#63b8ff" d="M233.25,-35.19C204.18,-30.03 170.14,-23.99 142.37,-19.06"/>
<polygon fill="#63b8ff" stroke="#63b8ff" points="232.85,-38.67 243.31,-36.97 234.07,-31.78 232.85,-38.67"/>
</a>
</g>
</g>
</g>
</svg>
