<?xml version="1.0" encoding="UTF-8" standalone="no"?>
<!DOCTYPE svg PUBLIC "-//W3C//DTD SVG 1.1//EN"
 "http://www.w3.org/Graphics/SVG/1.1/DTD/svg11.dtd">
<!-- Generated by graphviz version 2.43.0 (0)
 -->
<!-- Title: APlayerControl Pages: 1 -->
<svg width="150pt" height="577pt"
 viewBox="0.00 0.00 150.00 577.00" xmlns="http://www.w3.org/2000/svg" xmlns:xlink="http://www.w3.org/1999/xlink">
<g id="graph0" class="graph" transform="scale(1 1) rotate(0) translate(4 573)">
<title>APlayerControl</title>
<!-- Node1 -->
<g id="Node000001" class="node">
<title>Node1</title>
<g id="a_Node000001"><a xlink:title=" ">
<polygon fill="#999999" stroke="transparent" points="142,-484 0,-484 0,0 142,0 142,-484"/>
<text text-anchor="start" x="34.5" y="-472" font-family="Malgun Gothic" font-size="10.00">APlayerControl</text>
<text text-anchor="start" x="4" y="-457" font-family="Malgun Gothic" font-size="10.00">#</text>
<text text-anchor="start" x="17" y="-457" font-family="Malgun Gothic" font-size="10.00">IMC_Default</text>
<text text-anchor="start" x="4" y="-442" font-family="Malgun Gothic" font-size="10.00">+</text>
<text text-anchor="start" x="17" y="-442" font-family="Malgun Gothic" font-size="10.00">APlayerControl()</text>
<text text-anchor="start" x="4" y="-427" font-family="Malgun Gothic" font-size="10.00">+</text>
<text text-anchor="start" x="17" y="-427" font-family="Malgun Gothic" font-size="10.00">UpdateQuestRole()</text>
<text text-anchor="start" x="4" y="-412" font-family="Malgun Gothic" font-size="10.00">#</text>
<text text-anchor="start" x="17" y="-412" font-family="Malgun Gothic" font-size="10.00">BeginPlay()</text>
<text text-anchor="start" x="4" y="-397" font-family="Malgun Gothic" font-size="10.00">#</text>
<text text-anchor="start" x="17" y="-397" font-family="Malgun Gothic" font-size="10.00">OnGrab()</text>
<text text-anchor="start" x="4" y="-382" font-family="Malgun Gothic" font-size="10.00">#</text>
<text text-anchor="start" x="17" y="-382" font-family="Malgun Gothic" font-size="10.00">OnGrabRelease()</text>
<text text-anchor="start" x="4" y="-367" font-family="Malgun Gothic" font-size="10.00">#</text>
<text text-anchor="start" x="17" y="-367" font-family="Malgun Gothic" font-size="10.00">OnHook()</text>
<text text-anchor="start" x="4" y="-352" font-family="Malgun Gothic" font-size="10.00">#</text>
<text text-anchor="start" x="17" y="-352" font-family="Malgun Gothic" font-size="10.00">OnInfo()</text>
<text text-anchor="start" x="4" y="-337" font-family="Malgun Gothic" font-size="10.00">#</text>
<text text-anchor="start" x="17" y="-337" font-family="Malgun Gothic" font-size="10.00">OnInteract()</text>
<text text-anchor="start" x="4" y="-322" font-family="Malgun Gothic" font-size="10.00">#</text>
<text text-anchor="start" x="17" y="-322" font-family="Malgun Gothic" font-size="10.00">OnJump()</text>
<text text-anchor="start" x="4" y="-307" font-family="Malgun Gothic" font-size="10.00">#</text>
<text text-anchor="start" x="17" y="-307" font-family="Malgun Gothic" font-size="10.00">OnLook()</text>
<text text-anchor="start" x="4" y="-292" font-family="Malgun Gothic" font-size="10.00">#</text>
<text text-anchor="start" x="17" y="-292" font-family="Malgun Gothic" font-size="10.00">OnMove()</text>
<text text-anchor="start" x="4" y="-277" font-family="Malgun Gothic" font-size="10.00">#</text>
<text text-anchor="start" x="17" y="-277" font-family="Malgun Gothic" font-size="10.00">OnRecordPressed()</text>
<text text-anchor="start" x="4" y="-262" font-family="Malgun Gothic" font-size="10.00">#</text>
<text text-anchor="start" x="17" y="-262" font-family="Malgun Gothic" font-size="10.00">OnRecordReleased()</text>
<text text-anchor="start" x="4" y="-247" font-family="Malgun Gothic" font-size="10.00">#</text>
<text text-anchor="start" x="17" y="-247" font-family="Malgun Gothic" font-size="10.00">OnRun()</text>
<text text-anchor="start" x="4" y="-232" font-family="Malgun Gothic" font-size="10.00">#</text>
<text text-anchor="start" x="17" y="-232" font-family="Malgun Gothic" font-size="10.00">OnStopMove()</text>
<text text-anchor="start" x="4" y="-217" font-family="Malgun Gothic" font-size="10.00">#</text>
<text text-anchor="start" x="17" y="-217" font-family="Malgun Gothic" font-size="10.00">Server_OnGrab()</text>
<text text-anchor="start" x="4" y="-202" font-family="Malgun Gothic" font-size="10.00">#</text>
<text text-anchor="start" x="17" y="-202" font-family="Malgun Gothic" font-size="10.00">Server_OnGrabRelease()</text>
<text text-anchor="start" x="4" y="-187" font-family="Malgun Gothic" font-size="10.00">#</text>
<text text-anchor="start" x="17" y="-187" font-family="Malgun Gothic" font-size="10.00">Server_OnHook()</text>
<text text-anchor="start" x="4" y="-172" font-family="Malgun Gothic" font-size="10.00">#</text>
<text text-anchor="start" x="17" y="-172" font-family="Malgun Gothic" font-size="10.00">Server_OnInteract()</text>
<text text-anchor="start" x="4" y="-157" font-family="Malgun Gothic" font-size="10.00">#</text>
<text text-anchor="start" x="17" y="-157" font-family="Malgun Gothic" font-size="10.00">SetupInputComponent()</text>
<text text-anchor="start" x="4" y="-142" font-family="Malgun Gothic" font-size="10.00">#</text>
<text text-anchor="start" x="17" y="-142" font-family="Malgun Gothic" font-size="10.00">UPROPERTY()</text>
<text text-anchor="start" x="4" y="-127" font-family="Malgun Gothic" font-size="10.00">#</text>
<text text-anchor="start" x="17" y="-127" font-family="Malgun Gothic" font-size="10.00">UPROPERTY()</text>
<text text-anchor="start" x="4" y="-112" font-family="Malgun Gothic" font-size="10.00">#</text>
<text text-anchor="start" x="17" y="-112" font-family="Malgun Gothic" font-size="10.00">UPROPERTY()</text>
<text text-anchor="start" x="4" y="-97" font-family="Malgun Gothic" font-size="10.00">#</text>
<text text-anchor="start" x="17" y="-97" font-family="Malgun Gothic" font-size="10.00">UPROPERTY()</text>
<text text-anchor="start" x="4" y="-82" font-family="Malgun Gothic" font-size="10.00">#</text>
<text text-anchor="start" x="17" y="-82" font-family="Malgun Gothic" font-size="10.00">UPROPERTY()</text>
<text text-anchor="start" x="4" y="-67" font-family="Malgun Gothic" font-size="10.00">#</text>
<text text-anchor="start" x="17" y="-67" font-family="Malgun Gothic" font-size="10.00">UPROPERTY()</text>
<text text-anchor="start" x="4" y="-52" font-family="Malgun Gothic" font-size="10.00">#</text>
<text text-anchor="start" x="17" y="-52" font-family="Malgun Gothic" font-size="10.00">UPROPERTY()</text>
<text text-anchor="start" x="4" y="-37" font-family="Malgun Gothic" font-size="10.00">#</text>
<text text-anchor="start" x="17" y="-37" font-family="Malgun Gothic" font-size="10.00">UPROPERTY()</text>
<text text-anchor="start" x="4" y="-22" font-family="Malgun Gothic" font-size="10.00">#</text>
<text text-anchor="start" x="17" y="-22" font-family="Malgun Gothic" font-size="10.00">UPROPERTY()</text>
<text text-anchor="start" x="6.5" y="-7" font-family="Malgun Gothic" font-size="10.00">&#45;</text>
<text text-anchor="start" x="17" y="-7" font-family="Malgun Gothic" font-size="10.00">GetControllable()</text>
<polygon fill="#666666" stroke="#666666" points="0,-467 0,-467 142,-467 142,-467 0,-467"/>
<polygon fill="#666666" stroke="#666666" points="0,-452 0,-452 15,-452 15,-452 0,-452"/>
<polygon fill="#666666" stroke="#666666" points="15,-452 15,-452 142,-452 142,-452 15,-452"/>
<polygon fill="none" stroke="#666666" points="0,0 0,-484 142,-484 142,0 0,0"/>
</a>
</g>
</g>
<!-- Node2 -->
<g id="Node000002" class="node">
<title>Node2</title>
<g id="a_Node000002"><a xlink:title=" ">
<polygon fill="white" stroke="transparent" points="119,-569 23,-569 23,-520 119,-520 119,-569"/>
<text text-anchor="start" x="28" y="-556.5" font-family="Malgun Gothic" font-size="10.00">APlayerController</text>
<text text-anchor="start" x="69" y="-541.5" font-family="Malgun Gothic" font-size="10.00"> </text>
<text text-anchor="start" x="69" y="-526.5" font-family="Malgun Gothic" font-size="10.00"> </text>
<polygon fill="#666666" stroke="#666666" points="23,-551.5 23,-551.5 119,-551.5 119,-551.5 23,-551.5"/>
<polygon fill="#666666" stroke="#666666" points="23,-536.5 23,-536.5 119,-536.5 119,-536.5 23,-536.5"/>
<polygon fill="none" stroke="#666666" points="23,-520 23,-569 119,-569 119,-520 23,-520"/>
</a>
</g>
</g>
<!-- Node2&#45;&gt;Node1 -->
<g id="edge1_Node000001_Node000002" class="edge">
<title>Node2&#45;&gt;Node1</title>
<g id="a_edge1_Node000001_Node000002"><a xlink:title=" ">
<path fill="none" stroke="#63b8ff" d="M71,-509.86C71,-502.24 71,-493.58 71,-484.15"/>
<polygon fill="none" stroke="#63b8ff" points="67.5,-509.92 71,-519.92 74.5,-509.92 67.5,-509.92"/>
</a>
</g>
</g>
</g>
</svg>
