<?xml version="1.0" encoding="UTF-8" standalone="no"?>
<!DOCTYPE svg PUBLIC "-//W3C//DTD SVG 1.1//EN"
 "http://www.w3.org/Graphics/SVG/1.1/DTD/svg11.dtd">
<!-- Generated by graphviz version 2.43.0 (0)
 -->
<!-- Title: ALingoGameState::SetStageData Pages: 1 -->
<svg width="394pt" height="86pt"
 viewBox="0.00 0.00 394.00 86.00" xmlns="http://www.w3.org/2000/svg" xmlns:xlink="http://www.w3.org/1999/xlink">
<g id="graph0" class="graph" transform="scale(1 1) rotate(0) translate(4 82)">
<title>ALingoGameState::SetStageData</title>
<!-- Node1 -->
<g id="Node000001" class="node">
<title>Node1</title>
<g id="a_Node000001"><a xlink:title=" ">
<polygon fill="#999999" stroke="#666666" points="177,-48.5 0,-48.5 0,-29.5 177,-29.5 177,-48.5"/>
<text text-anchor="middle" x="88.5" y="-36.5" font-family="Malgun Gothic" font-size="10.00">ALingoGameState::SetStageData</text>
</a>
</g>
</g>
<!-- Node2 -->
<g id="Node000002" class="node">
<title>Node2</title>
<g id="a_Node000002"><a xlink:href="classULingoGameHelper.html#a7bcb0275140b94422c2f09b29a0b4d6a" target="_top" xlink:title=" ">
<polygon fill="white" stroke="#666666" points="386,-78 213,-78 213,-48 386,-48 386,-78"/>
<text text-anchor="start" x="221" y="-66" font-family="Malgun Gothic" font-size="10.00">ULingoGameHelper::GetMission</text>
<text text-anchor="middle" x="299.5" y="-55" font-family="Malgun Gothic" font-size="10.00">PlayTime</text>
</a>
</g>
</g>
<!-- Node1&#45;&gt;Node2 -->
<g id="edge1_Node000001_Node000002" class="edge">
<title>Node1&#45;&gt;Node2</title>
<g id="a_edge1_Node000001_Node000002"><a xlink:title=" ">
<path fill="none" stroke="#63b8ff" d="M172.4,-48.52C182.4,-49.67 192.68,-50.85 202.84,-52.02"/>
<polygon fill="#63b8ff" stroke="#63b8ff" points="202.62,-55.51 212.96,-53.18 203.42,-48.56 202.62,-55.51"/>
</a>
</g>
</g>
<!-- Node3 -->
<g id="Node000003" class="node">
<title>Node3</title>
<g id="a_Node000003"><a xlink:href="classALingoGameState.html#adb613d0ae85fcd2a8d8f3f777566c98c" target="_top" xlink:title="미션 타이머를 시작합니다 (서버에서만 호출)">
<polygon fill="white" stroke="#666666" points="385,-30 214,-30 214,0 385,0 385,-30"/>
<text text-anchor="start" x="222" y="-18" font-family="Malgun Gothic" font-size="10.00">ALingoGameState::StartMission</text>
<text text-anchor="middle" x="299.5" y="-7" font-family="Malgun Gothic" font-size="10.00">Timer</text>
</a>
</g>
</g>
<!-- Node1&#45;&gt;Node3 -->
<g id="edge2_Node000001_Node000003" class="edge">
<title>Node1&#45;&gt;Node3</title>
<g id="a_edge2_Node000001_Node000003"><a xlink:title=" ">
<path fill="none" stroke="#63b8ff" d="M172.4,-29.48C182.77,-28.29 193.43,-27.07 203.95,-25.86"/>
<polygon fill="#63b8ff" stroke="#63b8ff" points="204.45,-29.32 213.99,-24.7 203.65,-22.37 204.45,-29.32"/>
</a>
</g>
</g>
</g>
</svg>
