<?xml version="1.0" encoding="UTF-8" standalone="no"?>
<!DOCTYPE svg PUBLIC "-//W3C//DTD SVG 1.1//EN"
 "http://www.w3.org/Graphics/SVG/1.1/DTD/svg11.dtd">
<!-- Generated by graphviz version 2.43.0 (0)
 -->
<!-- Title: UDialogWidget::HandleHideTimerExpired Pages: 1 -->
<svg width="351pt" height="76pt"
 viewBox="0.00 0.00 351.00 75.50" xmlns="http://www.w3.org/2000/svg" xmlns:xlink="http://www.w3.org/1999/xlink">
<g id="graph0" class="graph" transform="scale(1 1) rotate(0) translate(4 71.5)">
<title>UDialogWidget::HandleHideTimerExpired</title>
<!-- Node1 -->
<g id="Node000001" class="node">
<title>Node1</title>
<g id="a_Node000001"><a xlink:title=" ">
<polygon fill="#999999" stroke="#666666" points="343,-45.5 190,-45.5 190,-15.5 343,-15.5 343,-45.5"/>
<text text-anchor="start" x="198" y="-33.5" font-family="Malgun Gothic" font-size="10.00">UDialogWidget::HandleHide</text>
<text text-anchor="middle" x="266.5" y="-22.5" font-family="Malgun Gothic" font-size="10.00">TimerExpired</text>
</a>
</g>
</g>
<!-- Node2 -->
<g id="Node000002" class="node">
<title>Node2</title>
<g id="a_Node000002"><a xlink:href="classUDialogWidget.html#acce6f2329eefd1388b774b6b62dcdd83" target="_top" xlink:title=" ">
<polygon fill="white" stroke="#666666" points="152,-67.5 2,-67.5 2,-37.5 152,-37.5 152,-67.5"/>
<text text-anchor="start" x="10" y="-55.5" font-family="Malgun Gothic" font-size="10.00">UDialogWidget::HideDialog</text>
<text text-anchor="middle" x="77" y="-44.5" font-family="Malgun Gothic" font-size="10.00">Immediately</text>
</a>
</g>
</g>
<!-- Node1&#45;&gt;Node2 -->
<g id="edge1_Node000001_Node000002" class="edge">
<title>Node1&#45;&gt;Node2</title>
<g id="a_edge1_Node000001_Node000002"><a xlink:title=" ">
<path fill="none" stroke="#63b8ff" d="M179.82,-40.55C170.59,-41.64 161.26,-42.73 152.18,-43.8"/>
<polygon fill="#63b8ff" stroke="#63b8ff" points="180.25,-44.03 189.78,-39.38 179.44,-37.07 180.25,-44.03"/>
</a>
</g>
</g>
<!-- Node3 -->
<g id="Node000003" class="node">
<title>Node3</title>
<g id="a_Node000003"><a xlink:href="classUDialogWidget.html#a41af2b60d631b3cb7d0583285c411c35" target="_top" xlink:title="대화 텍스트를 표시하고 강조 색상을 적용합니다.">
<polygon fill="white" stroke="#666666" points="154,-19 0,-19 0,0 154,0 154,-19"/>
<text text-anchor="middle" x="77" y="-7" font-family="Malgun Gothic" font-size="10.00">UDialogWidget::ShowDialog</text>
</a>
</g>
</g>
<!-- Node1&#45;&gt;Node3 -->
<g id="edge2_Node000001_Node000003" class="edge">
<title>Node1&#45;&gt;Node3</title>
<g id="a_edge2_Node000001_Node000003"><a xlink:title=" ">
<path fill="none" stroke="#63b8ff" d="M179.75,-20.9C171.16,-19.93 162.48,-18.96 154.01,-18.01"/>
<polygon fill="#63b8ff" stroke="#63b8ff" points="179.45,-24.38 189.78,-22.02 180.23,-17.43 179.45,-24.38"/>
</a>
</g>
</g>
</g>
</svg>
