<?xml version="1.0" encoding="UTF-8" standalone="no"?>
<!DOCTYPE svg PUBLIC "-//W3C//DTD SVG 1.1//EN"
 "http://www.w3.org/Graphics/SVG/1.1/DTD/svg11.dtd">
<!-- Generated by graphviz version 2.43.0 (0)
 -->
<!-- Title: ULoadingCircleManager Pages: 1 -->
<svg width="183pt" height="258pt"
 viewBox="0.00 0.00 183.00 258.00" xmlns="http://www.w3.org/2000/svg" xmlns:xlink="http://www.w3.org/1999/xlink">

<svg id="main" version="1.1" xmlns="http://www.w3.org/2000/svg" xmlns:xlink="http://www.w3.org/1999/xlink" xml:space="preserve" onload="init(evt)">
<style type="text/css"><![CDATA[
.node, .edge {opacity: 0.7;}
.node.selected, .edge.selected {opacity: 1;}
.edge:hover path { stroke: red; }
.edge:hover polygon { stroke: red; fill: red; }
]]></style>
<script type="application/ecmascript" xlink:href="svg.min.js"/>
<svg id="graph" class="graph">
<g id="graph0" class="graph" transform="scale(1 1) rotate(0) translate(4 254)">
<title>ULoadingCircleManager</title>
<!-- Node1 -->
<g id="Node000001" class="node">
<title>Node1</title>
<g id="a_Node000001"><a xlink:title="전역 로딩 서클의 표시 여부를 관리하는 LocalPlayerSubsystem입니다.">
<polygon fill="#999999" stroke="transparent" points="175,-165 0,-165 0,0 175,0 175,-165"/>
<text text-anchor="start" x="29.5" y="-152.5" font-family="Malgun Gothic" font-size="10.00">ULoadingCircleManager</text>
<text text-anchor="start" x="4.5" y="-137.5" font-family="Malgun Gothic" font-size="10.00">#</text>
<text text-anchor="start" x="17.5" y="-137.5" font-family="Malgun Gothic" font-size="10.00">CircleWidget</text>
<text text-anchor="start" x="4.5" y="-122.5" font-family="Malgun Gothic" font-size="10.00">#</text>
<text text-anchor="start" x="17.5" y="-122.5" font-family="Malgun Gothic" font-size="10.00">CircleWidgetClass</text>
<text text-anchor="start" x="4.5" y="-107.5" font-family="Malgun Gothic" font-size="10.00">#</text>
<text text-anchor="start" x="17.5" y="-107.5" font-family="Malgun Gothic" font-size="10.00">LoadingCount</text>
<text text-anchor="start" x="4.5" y="-92.5" font-family="Malgun Gothic" font-size="10.00">+</text>
<text text-anchor="start" x="17.5" y="-92.5" font-family="Malgun Gothic" font-size="10.00">ULoadingCircleManager()</text>
<text text-anchor="start" x="4.5" y="-77.5" font-family="Malgun Gothic" font-size="10.00">+</text>
<text text-anchor="start" x="17.5" y="-77.5" font-family="Malgun Gothic" font-size="10.00">DEFINE_LOCALPLAYER</text>
<text text-anchor="start" x="17.5" y="-66.5" font-family="Malgun Gothic" font-size="10.00">_SUBSYSTEM_GETTER_INLINE()</text>
<text text-anchor="start" x="4.5" y="-51.5" font-family="Malgun Gothic" font-size="10.00">+</text>
<text text-anchor="start" x="17.5" y="-51.5" font-family="Malgun Gothic" font-size="10.00">GetLoadingCount()</text>
<text text-anchor="start" x="4.5" y="-36.5" font-family="Malgun Gothic" font-size="10.00">+</text>
<text text-anchor="start" x="17.5" y="-36.5" font-family="Malgun Gothic" font-size="10.00">Hide()</text>
<text text-anchor="start" x="4.5" y="-21.5" font-family="Malgun Gothic" font-size="10.00">+</text>
<text text-anchor="start" x="17.5" y="-21.5" font-family="Malgun Gothic" font-size="10.00">Show()</text>
<text text-anchor="start" x="4.5" y="-6.5" font-family="Malgun Gothic" font-size="10.00">#</text>
<text text-anchor="start" x="17.5" y="-6.5" font-family="Malgun Gothic" font-size="10.00">EnsureWidgetForWorld()</text>
<polygon fill="#666666" stroke="#666666" points="0.5,-147.5 0.5,-147.5 175.5,-147.5 175.5,-147.5 0.5,-147.5"/>
<polygon fill="#666666" stroke="#666666" points="0.5,-102.5 0.5,-102.5 15.5,-102.5 15.5,-102.5 0.5,-102.5"/>
<polygon fill="#666666" stroke="#666666" points="15.5,-102.5 15.5,-102.5 175.5,-102.5 175.5,-102.5 15.5,-102.5"/>
<polygon fill="none" stroke="#666666" points="0,0 0,-165 175,-165 175,0 0,0"/>
</a>
</g>
</g>
<!-- Node2 -->
<g id="Node000002" class="node">
<title>Node2</title>
<g id="a_Node000002"><a xlink:title=" ">
<polygon fill="white" stroke="transparent" points="151.5,-250 23.5,-250 23.5,-201 151.5,-201 151.5,-250"/>
<text text-anchor="start" x="28.5" y="-237.5" font-family="Malgun Gothic" font-size="10.00">ULocalPlayerSubsystem</text>
<text text-anchor="start" x="85.5" y="-222.5" font-family="Malgun Gothic" font-size="10.00"> </text>
<text text-anchor="start" x="85.5" y="-207.5" font-family="Malgun Gothic" font-size="10.00"> </text>
<polygon fill="#666666" stroke="#666666" points="23.5,-232.5 23.5,-232.5 151.5,-232.5 151.5,-232.5 23.5,-232.5"/>
<polygon fill="#666666" stroke="#666666" points="23.5,-217.5 23.5,-217.5 151.5,-217.5 151.5,-217.5 23.5,-217.5"/>
<polygon fill="none" stroke="#666666" points="23.5,-201 23.5,-250 151.5,-250 151.5,-201 23.5,-201"/>
</a>
</g>
</g>
<!-- Node2&#45;&gt;Node1 -->
<g id="edge1_Node000001_Node000002" class="edge">
<title>Node2&#45;&gt;Node1</title>
<g id="a_edge1_Node000001_Node000002"><a xlink:title=" ">
<path fill="none" stroke="#63b8ff" d="M87.5,-190.7C87.5,-182.79 87.5,-174.03 87.5,-165.02"/>
<polygon fill="none" stroke="#63b8ff" points="84,-190.9 87.5,-200.9 91,-190.9 84,-190.9"/>
</a>
</g>
</g>
</g>
</svg>
</svg>

<style type='text/css'>
<![CDATA[
[data-mouse-over-selected='false'] { opacity: 0.7; }
[data-mouse-over-selected='true']  { opacity: 1.0; }
]]>
</style>
<script type="application/ecmascript"><![CDATA[
document.addEventListener('DOMContentLoaded', (event) => {
  highlightEdges();
  highlightAdjacentNodes();
});
]]></script>
</svg>
