<?xml version="1.0" encoding="UTF-8" standalone="no"?>
<!DOCTYPE svg PUBLIC "-//W3C//DTD SVG 1.1//EN"
 "http://www.w3.org/Graphics/SVG/1.1/DTD/svg11.dtd">
<!-- Generated by graphviz version 2.43.0 (0)
 -->
<!-- Title: ULobbyWidget Pages: 1 -->
<svg width="715pt" height="962pt"
 viewBox="0.00 0.00 715.25 962.00" xmlns="http://www.w3.org/2000/svg" xmlns:xlink="http://www.w3.org/1999/xlink">
<g id="graph0" class="graph" transform="scale(1 1) rotate(0) translate(4 958)">
<title>ULobbyWidget</title>
<!-- Node1 -->
<g id="Node000001" class="node">
<title>Node1</title>
<g id="a_Node000001"><a xlink:title=" ">
<polygon fill="#999999" stroke="transparent" points="402.75,-229 223.75,-229 223.75,0 402.75,0 402.75,-229"/>
<text text-anchor="start" x="277.75" y="-216.5" font-family="Malgun Gothic" font-size="10.00">ULobbyWidget</text>
<text text-anchor="start" x="228.25" y="-201.5" font-family="Malgun Gothic" font-size="10.00">+</text>
<text text-anchor="start" x="241.25" y="-201.5" font-family="Malgun Gothic" font-size="10.00">EdtTxt_SessionName</text>
<text text-anchor="start" x="228.25" y="-186.5" font-family="Malgun Gothic" font-size="10.00">+</text>
<text text-anchor="start" x="241.25" y="-186.5" font-family="Malgun Gothic" font-size="10.00">Scrl_SessionList</text>
<text text-anchor="start" x="228.25" y="-171.5" font-family="Malgun Gothic" font-size="10.00">+</text>
<text text-anchor="start" x="241.25" y="-171.5" font-family="Malgun Gothic" font-size="10.00">sessionInfoWidget</text>
<text text-anchor="start" x="228.25" y="-156.5" font-family="Malgun Gothic" font-size="10.00">+</text>
<text text-anchor="start" x="241.25" y="-156.5" font-family="Malgun Gothic" font-size="10.00">Txt_Update</text>
<text text-anchor="start" x="228.25" y="-141.5" font-family="Malgun Gothic" font-size="10.00">+</text>
<text text-anchor="start" x="241.25" y="-141.5" font-family="Malgun Gothic" font-size="10.00">widgetSwitcher</text>
<text text-anchor="start" x="228.25" y="-126.5" font-family="Malgun Gothic" font-size="10.00">+</text>
<text text-anchor="start" x="241.25" y="-126.5" font-family="Malgun Gothic" font-size="10.00">OnClickFind()</text>
<text text-anchor="start" x="228.25" y="-111.5" font-family="Malgun Gothic" font-size="10.00">+</text>
<text text-anchor="start" x="241.25" y="-111.5" font-family="Malgun Gothic" font-size="10.00">OnCreateClicked()</text>
<text text-anchor="start" x="228.25" y="-96.5" font-family="Malgun Gothic" font-size="10.00">+</text>
<text text-anchor="start" x="241.25" y="-96.5" font-family="Malgun Gothic" font-size="10.00">OnFindComplete()</text>
<text text-anchor="start" x="228.25" y="-81.5" font-family="Malgun Gothic" font-size="10.00">+</text>
<text text-anchor="start" x="241.25" y="-81.5" font-family="Malgun Gothic" font-size="10.00">OnHostClicked()</text>
<text text-anchor="start" x="228.25" y="-66.5" font-family="Malgun Gothic" font-size="10.00">+</text>
<text text-anchor="start" x="241.25" y="-66.5" font-family="Malgun Gothic" font-size="10.00">OnJoinClicked()</text>
<text text-anchor="start" x="228.25" y="-51.5" font-family="Malgun Gothic" font-size="10.00">+</text>
<text text-anchor="start" x="241.25" y="-51.5" font-family="Malgun Gothic" font-size="10.00">OnLogOutClicked()</text>
<text text-anchor="start" x="228.25" y="-36.5" font-family="Malgun Gothic" font-size="10.00">+</text>
<text text-anchor="start" x="241.25" y="-36.5" font-family="Malgun Gothic" font-size="10.00">OnSingleClicked()</text>
<text text-anchor="start" x="228.25" y="-21.5" font-family="Malgun Gothic" font-size="10.00">+</text>
<text text-anchor="start" x="241.25" y="-21.5" font-family="Malgun Gothic" font-size="10.00">OnValueChangedSessionName()</text>
<text text-anchor="start" x="228.25" y="-6.5" font-family="Malgun Gothic" font-size="10.00">#</text>
<text text-anchor="start" x="241.25" y="-6.5" font-family="Malgun Gothic" font-size="10.00">NativeConstruct()</text>
<polygon fill="#666666" stroke="#666666" points="224.25,-211.5 224.25,-211.5 403.25,-211.5 403.25,-211.5 224.25,-211.5"/>
<polygon fill="#666666" stroke="#666666" points="224.25,-136.5 224.25,-136.5 239.25,-136.5 239.25,-136.5 224.25,-136.5"/>
<polygon fill="#666666" stroke="#666666" points="239.25,-136.5 239.25,-136.5 403.25,-136.5 403.25,-136.5 239.25,-136.5"/>
<polygon fill="none" stroke="#666666" points="223.75,0 223.75,-229 402.75,-229 402.75,0 223.75,0"/>
</a>
</g>
</g>
<!-- Node2 -->
<g id="Node000002" class="node">
<title>Node2</title>
<g id="a_Node000002"><a xlink:title=" ">
<polygon fill="white" stroke="transparent" points="243.75,-954 168.75,-954 168.75,-905 243.75,-905 243.75,-954"/>
<text text-anchor="start" x="174.25" y="-941.5" font-family="Malgun Gothic" font-size="10.00">UUserWidget</text>
<text text-anchor="start" x="204.75" y="-926.5" font-family="Malgun Gothic" font-size="10.00"> </text>
<text text-anchor="start" x="204.75" y="-911.5" font-family="Malgun Gothic" font-size="10.00"> </text>
<polygon fill="#666666" stroke="#666666" points="169.25,-936.5 169.25,-936.5 244.25,-936.5 244.25,-936.5 169.25,-936.5"/>
<polygon fill="#666666" stroke="#666666" points="169.25,-921.5 169.25,-921.5 244.25,-921.5 244.25,-921.5 169.25,-921.5"/>
<polygon fill="none" stroke="#666666" points="168.75,-905 168.75,-954 243.75,-954 243.75,-905 168.75,-905"/>
</a>
</g>
</g>
<!-- Node2&#45;&gt;Node1 -->
<g id="edge1_Node000001_Node000002" class="edge">
<title>Node2&#45;&gt;Node1</title>
<g id="a_edge1_Node000001_Node000002"><a xlink:title=" ">
<path fill="none" stroke="#63b8ff" d="M158.85,-917.14C133.18,-908.3 103.63,-893.17 88.25,-868 -41.29,-656 -15.38,-534.8 88.25,-309 116.19,-248.13 173.77,-199.18 223.69,-165.74"/>
<polygon fill="none" stroke="#63b8ff" points="157.88,-920.5 168.47,-920.22 160.01,-913.83 157.88,-920.5"/>
</a>
</g>
</g>
<!-- Node5 -->
<g id="Node000005" class="node">
<title>Node5</title>
<g id="a_Node000005"><a xlink:href="classUHoverButton.html" target="_top" xlink:title=" ">
<polygon fill="white" stroke="transparent" points="227.25,-815.5 97.25,-815.5 97.25,-361.5 227.25,-361.5 227.25,-815.5"/>
<text text-anchor="start" x="127.25" y="-803.5" font-family="Malgun Gothic" font-size="10.00">UHoverButton</text>
<text text-anchor="start" x="101.25" y="-788.5" font-family="Malgun Gothic" font-size="10.00">+</text>
<text text-anchor="start" x="114.25" y="-788.5" font-family="Malgun Gothic" font-size="10.00">FontOutlineSize</text>
<text text-anchor="start" x="101.25" y="-773.5" font-family="Malgun Gothic" font-size="10.00">+</text>
<text text-anchor="start" x="114.25" y="-773.5" font-family="Malgun Gothic" font-size="10.00">FontSize</text>
<text text-anchor="start" x="101.25" y="-758.5" font-family="Malgun Gothic" font-size="10.00">+</text>
<text text-anchor="start" x="114.25" y="-758.5" font-family="Malgun Gothic" font-size="10.00">HoverButtonColor</text>
<text text-anchor="start" x="101.25" y="-743.5" font-family="Malgun Gothic" font-size="10.00">+</text>
<text text-anchor="start" x="114.25" y="-743.5" font-family="Malgun Gothic" font-size="10.00">HoverTextColor</text>
<text text-anchor="start" x="101.25" y="-728.5" font-family="Malgun Gothic" font-size="10.00">+</text>
<text text-anchor="start" x="114.25" y="-728.5" font-family="Malgun Gothic" font-size="10.00">LabelText</text>
<text text-anchor="start" x="101.25" y="-713.5" font-family="Malgun Gothic" font-size="10.00">+</text>
<text text-anchor="start" x="114.25" y="-713.5" font-family="Malgun Gothic" font-size="10.00">NormalButtonColor</text>
<text text-anchor="start" x="101.25" y="-698.5" font-family="Malgun Gothic" font-size="10.00">+</text>
<text text-anchor="start" x="114.25" y="-698.5" font-family="Malgun Gothic" font-size="10.00">NormalTextColor</text>
<text text-anchor="start" x="101.25" y="-683.5" font-family="Malgun Gothic" font-size="10.00">+</text>
<text text-anchor="start" x="114.25" y="-683.5" font-family="Malgun Gothic" font-size="10.00">OnButtonClickedEvent</text>
<text text-anchor="start" x="101.25" y="-668.5" font-family="Malgun Gothic" font-size="10.00">+</text>
<text text-anchor="start" x="114.25" y="-668.5" font-family="Malgun Gothic" font-size="10.00">PressButtonColor</text>
<text text-anchor="start" x="101.25" y="-653.5" font-family="Malgun Gothic" font-size="10.00">+</text>
<text text-anchor="start" x="114.25" y="-653.5" font-family="Malgun Gothic" font-size="10.00">PressTextColor</text>
<text text-anchor="start" x="103.75" y="-638.5" font-family="Malgun Gothic" font-size="10.00">&#45;</text>
<text text-anchor="start" x="114.25" y="-638.5" font-family="Malgun Gothic" font-size="10.00">bEnabled</text>
<text text-anchor="start" x="103.75" y="-623.5" font-family="Malgun Gothic" font-size="10.00">&#45;</text>
<text text-anchor="start" x="114.25" y="-623.5" font-family="Malgun Gothic" font-size="10.00">Border_BG</text>
<text text-anchor="start" x="103.75" y="-608.5" font-family="Malgun Gothic" font-size="10.00">&#45;</text>
<text text-anchor="start" x="114.25" y="-608.5" font-family="Malgun Gothic" font-size="10.00">Button_Main</text>
<text text-anchor="start" x="103.75" y="-593.5" font-family="Malgun Gothic" font-size="10.00">&#45;</text>
<text text-anchor="start" x="114.25" y="-593.5" font-family="Malgun Gothic" font-size="10.00">CurrentBrightness</text>
<text text-anchor="start" x="103.75" y="-578.5" font-family="Malgun Gothic" font-size="10.00">&#45;</text>
<text text-anchor="start" x="114.25" y="-578.5" font-family="Malgun Gothic" font-size="10.00">CurrentScale</text>
<text text-anchor="start" x="103.75" y="-563.5" font-family="Malgun Gothic" font-size="10.00">&#45;</text>
<text text-anchor="start" x="114.25" y="-563.5" font-family="Malgun Gothic" font-size="10.00">LerpSpeed</text>
<text text-anchor="start" x="103.75" y="-548.5" font-family="Malgun Gothic" font-size="10.00">&#45;</text>
<text text-anchor="start" x="114.25" y="-548.5" font-family="Malgun Gothic" font-size="10.00">TargetBrightness</text>
<text text-anchor="start" x="103.75" y="-533.5" font-family="Malgun Gothic" font-size="10.00">&#45;</text>
<text text-anchor="start" x="114.25" y="-533.5" font-family="Malgun Gothic" font-size="10.00">TargetScale</text>
<text text-anchor="start" x="103.75" y="-518.5" font-family="Malgun Gothic" font-size="10.00">&#45;</text>
<text text-anchor="start" x="114.25" y="-518.5" font-family="Malgun Gothic" font-size="10.00">Text_Label</text>
<text text-anchor="start" x="101.25" y="-503.5" font-family="Malgun Gothic" font-size="10.00">+</text>
<text text-anchor="start" x="114.25" y="-503.5" font-family="Malgun Gothic" font-size="10.00">SetButtonEnabled()</text>
<text text-anchor="start" x="101.25" y="-488.5" font-family="Malgun Gothic" font-size="10.00">#</text>
<text text-anchor="start" x="114.25" y="-488.5" font-family="Malgun Gothic" font-size="10.00">NativeConstruct()</text>
<text text-anchor="start" x="101.25" y="-473.5" font-family="Malgun Gothic" font-size="10.00">#</text>
<text text-anchor="start" x="114.25" y="-473.5" font-family="Malgun Gothic" font-size="10.00">NativePreConstruct()</text>
<text text-anchor="start" x="101.25" y="-458.5" font-family="Malgun Gothic" font-size="10.00">#</text>
<text text-anchor="start" x="114.25" y="-458.5" font-family="Malgun Gothic" font-size="10.00">NativeTick()</text>
<text text-anchor="start" x="103.75" y="-443.5" font-family="Malgun Gothic" font-size="10.00">&#45;</text>
<text text-anchor="start" x="114.25" y="-443.5" font-family="Malgun Gothic" font-size="10.00">ApplyStyle()</text>
<text text-anchor="start" x="103.75" y="-428.5" font-family="Malgun Gothic" font-size="10.00">&#45;</text>
<text text-anchor="start" x="114.25" y="-428.5" font-family="Malgun Gothic" font-size="10.00">HandleClicked()</text>
<text text-anchor="start" x="103.75" y="-413.5" font-family="Malgun Gothic" font-size="10.00">&#45;</text>
<text text-anchor="start" x="114.25" y="-413.5" font-family="Malgun Gothic" font-size="10.00">HandleHovered()</text>
<text text-anchor="start" x="103.75" y="-398.5" font-family="Malgun Gothic" font-size="10.00">&#45;</text>
<text text-anchor="start" x="114.25" y="-398.5" font-family="Malgun Gothic" font-size="10.00">HandlePressed()</text>
<text text-anchor="start" x="103.75" y="-383.5" font-family="Malgun Gothic" font-size="10.00">&#45;</text>
<text text-anchor="start" x="114.25" y="-383.5" font-family="Malgun Gothic" font-size="10.00">HandleReleased()</text>
<text text-anchor="start" x="103.75" y="-368.5" font-family="Malgun Gothic" font-size="10.00">&#45;</text>
<text text-anchor="start" x="114.25" y="-368.5" font-family="Malgun Gothic" font-size="10.00">HandleUnhovered()</text>
<polygon fill="#666666" stroke="#666666" points="97.25,-798.5 97.25,-798.5 227.25,-798.5 227.25,-798.5 97.25,-798.5"/>
<polygon fill="#666666" stroke="#666666" points="97.25,-513.5 97.25,-513.5 112.25,-513.5 112.25,-513.5 97.25,-513.5"/>
<polygon fill="#666666" stroke="#666666" points="112.25,-513.5 112.25,-513.5 227.25,-513.5 227.25,-513.5 112.25,-513.5"/>
<polygon fill="none" stroke="#666666" points="97.25,-361.5 97.25,-815.5 227.25,-815.5 227.25,-361.5 97.25,-361.5"/>
</a>
</g>
</g>
<!-- Node2&#45;&gt;Node5 -->
<g id="edge5_Node000005_Node000002" class="edge">
<title>Node2&#45;&gt;Node5</title>
<g id="a_edge5_Node000005_Node000002"><a xlink:title=" ">
<path fill="none" stroke="#63b8ff" d="M201.9,-894.99C199.25,-874.61 195.62,-846.6 191.62,-815.76"/>
<polygon fill="none" stroke="#63b8ff" points="198.43,-895.47 203.19,-904.93 205.37,-894.56 198.43,-895.47"/>
</a>
</g>
</g>
<!-- Node6 -->
<g id="Node000006" class="node">
<title>Node6</title>
<g id="a_Node000006"><a xlink:href="classUImageButton.html" target="_top" xlink:title="UImageButton">
<polygon fill="white" stroke="transparent" points="381.25,-868 245.25,-868 245.25,-309 381.25,-309 381.25,-868"/>
<text text-anchor="start" x="277.75" y="-855.5" font-family="Malgun Gothic" font-size="10.00">UImageButton</text>
<text text-anchor="start" x="249.25" y="-840.5" font-family="Malgun Gothic" font-size="10.00">+</text>
<text text-anchor="start" x="262.25" y="-840.5" font-family="Malgun Gothic" font-size="10.00">BorderImage</text>
<text text-anchor="start" x="249.25" y="-825.5" font-family="Malgun Gothic" font-size="10.00">+</text>
<text text-anchor="start" x="262.25" y="-825.5" font-family="Malgun Gothic" font-size="10.00">bUseFixedSize</text>
<text text-anchor="start" x="249.25" y="-810.5" font-family="Malgun Gothic" font-size="10.00">+</text>
<text text-anchor="start" x="262.25" y="-810.5" font-family="Malgun Gothic" font-size="10.00">FixedHeight</text>
<text text-anchor="start" x="249.25" y="-795.5" font-family="Malgun Gothic" font-size="10.00">+</text>
<text text-anchor="start" x="262.25" y="-795.5" font-family="Malgun Gothic" font-size="10.00">FixedWidth</text>
<text text-anchor="start" x="249.25" y="-780.5" font-family="Malgun Gothic" font-size="10.00">+</text>
<text text-anchor="start" x="262.25" y="-780.5" font-family="Malgun Gothic" font-size="10.00">FontOutlineSize</text>
<text text-anchor="start" x="249.25" y="-765.5" font-family="Malgun Gothic" font-size="10.00">+</text>
<text text-anchor="start" x="262.25" y="-765.5" font-family="Malgun Gothic" font-size="10.00">FontSize</text>
<text text-anchor="start" x="249.25" y="-750.5" font-family="Malgun Gothic" font-size="10.00">+</text>
<text text-anchor="start" x="262.25" y="-750.5" font-family="Malgun Gothic" font-size="10.00">HoverButtonColor</text>
<text text-anchor="start" x="249.25" y="-735.5" font-family="Malgun Gothic" font-size="10.00">+</text>
<text text-anchor="start" x="262.25" y="-735.5" font-family="Malgun Gothic" font-size="10.00">HoverTextColor</text>
<text text-anchor="start" x="249.25" y="-720.5" font-family="Malgun Gothic" font-size="10.00">+</text>
<text text-anchor="start" x="262.25" y="-720.5" font-family="Malgun Gothic" font-size="10.00">LabelText</text>
<text text-anchor="start" x="249.25" y="-705.5" font-family="Malgun Gothic" font-size="10.00">+</text>
<text text-anchor="start" x="262.25" y="-705.5" font-family="Malgun Gothic" font-size="10.00">NormalButtonColor</text>
<text text-anchor="start" x="249.25" y="-690.5" font-family="Malgun Gothic" font-size="10.00">+</text>
<text text-anchor="start" x="262.25" y="-690.5" font-family="Malgun Gothic" font-size="10.00">NormalTextColor</text>
<text text-anchor="start" x="249.25" y="-675.5" font-family="Malgun Gothic" font-size="10.00">+</text>
<text text-anchor="start" x="262.25" y="-675.5" font-family="Malgun Gothic" font-size="10.00">OnButtonClickedEvent</text>
<text text-anchor="start" x="249.25" y="-660.5" font-family="Malgun Gothic" font-size="10.00">+</text>
<text text-anchor="start" x="262.25" y="-660.5" font-family="Malgun Gothic" font-size="10.00">PressButtonColor</text>
<text text-anchor="start" x="249.25" y="-645.5" font-family="Malgun Gothic" font-size="10.00">+</text>
<text text-anchor="start" x="262.25" y="-645.5" font-family="Malgun Gothic" font-size="10.00">PressTextColor</text>
<text text-anchor="start" x="251.75" y="-630.5" font-family="Malgun Gothic" font-size="10.00">&#45;</text>
<text text-anchor="start" x="262.25" y="-630.5" font-family="Malgun Gothic" font-size="10.00">bBorderBrushInitialized</text>
<text text-anchor="start" x="251.75" y="-615.5" font-family="Malgun Gothic" font-size="10.00">&#45;</text>
<text text-anchor="start" x="262.25" y="-615.5" font-family="Malgun Gothic" font-size="10.00">bEnabled</text>
<text text-anchor="start" x="251.75" y="-600.5" font-family="Malgun Gothic" font-size="10.00">&#45;</text>
<text text-anchor="start" x="262.25" y="-600.5" font-family="Malgun Gothic" font-size="10.00">Border_BG</text>
<text text-anchor="start" x="251.75" y="-585.5" font-family="Malgun Gothic" font-size="10.00">&#45;</text>
<text text-anchor="start" x="262.25" y="-585.5" font-family="Malgun Gothic" font-size="10.00">Button_Main</text>
<text text-anchor="start" x="251.75" y="-570.5" font-family="Malgun Gothic" font-size="10.00">&#45;</text>
<text text-anchor="start" x="262.25" y="-570.5" font-family="Malgun Gothic" font-size="10.00">CachedBorderBrush</text>
<text text-anchor="start" x="251.75" y="-555.5" font-family="Malgun Gothic" font-size="10.00">&#45;</text>
<text text-anchor="start" x="262.25" y="-555.5" font-family="Malgun Gothic" font-size="10.00">CurrentBrightness</text>
<text text-anchor="start" x="251.75" y="-540.5" font-family="Malgun Gothic" font-size="10.00">&#45;</text>
<text text-anchor="start" x="262.25" y="-540.5" font-family="Malgun Gothic" font-size="10.00">CurrentScale</text>
<text text-anchor="start" x="251.75" y="-525.5" font-family="Malgun Gothic" font-size="10.00">&#45;</text>
<text text-anchor="start" x="262.25" y="-525.5" font-family="Malgun Gothic" font-size="10.00">LerpSpeed</text>
<text text-anchor="start" x="251.75" y="-510.5" font-family="Malgun Gothic" font-size="10.00">&#45;</text>
<text text-anchor="start" x="262.25" y="-510.5" font-family="Malgun Gothic" font-size="10.00">SizeBox_Root</text>
<text text-anchor="start" x="251.75" y="-495.5" font-family="Malgun Gothic" font-size="10.00">&#45;</text>
<text text-anchor="start" x="262.25" y="-495.5" font-family="Malgun Gothic" font-size="10.00">TargetBrightness</text>
<text text-anchor="start" x="251.75" y="-480.5" font-family="Malgun Gothic" font-size="10.00">&#45;</text>
<text text-anchor="start" x="262.25" y="-480.5" font-family="Malgun Gothic" font-size="10.00">TargetScale</text>
<text text-anchor="start" x="251.75" y="-465.5" font-family="Malgun Gothic" font-size="10.00">&#45;</text>
<text text-anchor="start" x="262.25" y="-465.5" font-family="Malgun Gothic" font-size="10.00">Text_Label</text>
<text text-anchor="start" x="249.25" y="-450.5" font-family="Malgun Gothic" font-size="10.00">+</text>
<text text-anchor="start" x="262.25" y="-450.5" font-family="Malgun Gothic" font-size="10.00">SetButtonEnabled()</text>
<text text-anchor="start" x="249.25" y="-435.5" font-family="Malgun Gothic" font-size="10.00">#</text>
<text text-anchor="start" x="262.25" y="-435.5" font-family="Malgun Gothic" font-size="10.00">NativeConstruct()</text>
<text text-anchor="start" x="249.25" y="-420.5" font-family="Malgun Gothic" font-size="10.00">#</text>
<text text-anchor="start" x="262.25" y="-420.5" font-family="Malgun Gothic" font-size="10.00">NativePreConstruct()</text>
<text text-anchor="start" x="249.25" y="-405.5" font-family="Malgun Gothic" font-size="10.00">#</text>
<text text-anchor="start" x="262.25" y="-405.5" font-family="Malgun Gothic" font-size="10.00">NativeTick()</text>
<text text-anchor="start" x="251.75" y="-390.5" font-family="Malgun Gothic" font-size="10.00">&#45;</text>
<text text-anchor="start" x="262.25" y="-390.5" font-family="Malgun Gothic" font-size="10.00">ApplyStyle()</text>
<text text-anchor="start" x="251.75" y="-375.5" font-family="Malgun Gothic" font-size="10.00">&#45;</text>
<text text-anchor="start" x="262.25" y="-375.5" font-family="Malgun Gothic" font-size="10.00">HandleClicked()</text>
<text text-anchor="start" x="251.75" y="-360.5" font-family="Malgun Gothic" font-size="10.00">&#45;</text>
<text text-anchor="start" x="262.25" y="-360.5" font-family="Malgun Gothic" font-size="10.00">HandleHovered()</text>
<text text-anchor="start" x="251.75" y="-345.5" font-family="Malgun Gothic" font-size="10.00">&#45;</text>
<text text-anchor="start" x="262.25" y="-345.5" font-family="Malgun Gothic" font-size="10.00">HandlePressed()</text>
<text text-anchor="start" x="251.75" y="-330.5" font-family="Malgun Gothic" font-size="10.00">&#45;</text>
<text text-anchor="start" x="262.25" y="-330.5" font-family="Malgun Gothic" font-size="10.00">HandleReleased()</text>
<text text-anchor="start" x="251.75" y="-315.5" font-family="Malgun Gothic" font-size="10.00">&#45;</text>
<text text-anchor="start" x="262.25" y="-315.5" font-family="Malgun Gothic" font-size="10.00">HandleUnhovered()</text>
<polygon fill="#666666" stroke="#666666" points="245.25,-850.5 245.25,-850.5 381.25,-850.5 381.25,-850.5 245.25,-850.5"/>
<polygon fill="#666666" stroke="#666666" points="245.25,-460.5 245.25,-460.5 260.25,-460.5 260.25,-460.5 245.25,-460.5"/>
<polygon fill="#666666" stroke="#666666" points="260.25,-460.5 260.25,-460.5 381.25,-460.5 381.25,-460.5 260.25,-460.5"/>
<polygon fill="none" stroke="#666666" points="245.25,-309 245.25,-868 381.25,-868 381.25,-309 245.25,-309"/>
</a>
</g>
</g>
<!-- Node2&#45;&gt;Node6 -->
<g id="edge7_Node000006_Node000002" class="edge">
<title>Node2&#45;&gt;Node6</title>
<g id="a_edge7_Node000006_Node000002"><a xlink:title=" ">
<path fill="none" stroke="#63b8ff" d="M223.96,-895.64C228.33,-886.81 232.75,-877.17 236.25,-868 239.29,-860.03 242.27,-851.9 245.18,-843.65"/>
<polygon fill="none" stroke="#63b8ff" points="220.7,-894.33 219.3,-904.83 226.94,-897.5 220.7,-894.33"/>
</a>
</g>
</g>
<!-- Node7 -->
<g id="Node000007" class="node">
<title>Node7</title>
<g id="a_Node000007"><a xlink:href="classUTextureButton.html" target="_top" xlink:title="심플한 텍스쳐 기반 버튼 위젯">
<polygon fill="white" stroke="transparent" points="529.25,-785.5 399.25,-785.5 399.25,-391.5 529.25,-391.5 529.25,-785.5"/>
<text text-anchor="start" x="426.25" y="-773.5" font-family="Malgun Gothic" font-size="10.00">UTextureButton</text>
<text text-anchor="start" x="403.25" y="-758.5" font-family="Malgun Gothic" font-size="10.00">+</text>
<text text-anchor="start" x="416.25" y="-758.5" font-family="Malgun Gothic" font-size="10.00">ButtonHeight</text>
<text text-anchor="start" x="403.25" y="-743.5" font-family="Malgun Gothic" font-size="10.00">+</text>
<text text-anchor="start" x="416.25" y="-743.5" font-family="Malgun Gothic" font-size="10.00">ButtonTexture</text>
<text text-anchor="start" x="403.25" y="-728.5" font-family="Malgun Gothic" font-size="10.00">+</text>
<text text-anchor="start" x="416.25" y="-728.5" font-family="Malgun Gothic" font-size="10.00">ButtonWidth</text>
<text text-anchor="start" x="403.25" y="-713.5" font-family="Malgun Gothic" font-size="10.00">+</text>
<text text-anchor="start" x="416.25" y="-713.5" font-family="Malgun Gothic" font-size="10.00">DisabledSymbolColor</text>
<text text-anchor="start" x="403.25" y="-698.5" font-family="Malgun Gothic" font-size="10.00">+</text>
<text text-anchor="start" x="416.25" y="-698.5" font-family="Malgun Gothic" font-size="10.00">HoverSymbolColor</text>
<text text-anchor="start" x="403.25" y="-683.5" font-family="Malgun Gothic" font-size="10.00">+</text>
<text text-anchor="start" x="416.25" y="-683.5" font-family="Malgun Gothic" font-size="10.00">NormalSymbolColor</text>
<text text-anchor="start" x="403.25" y="-668.5" font-family="Malgun Gothic" font-size="10.00">+</text>
<text text-anchor="start" x="416.25" y="-668.5" font-family="Malgun Gothic" font-size="10.00">OnButtonClickedEvent</text>
<text text-anchor="start" x="403.25" y="-653.5" font-family="Malgun Gothic" font-size="10.00">+</text>
<text text-anchor="start" x="416.25" y="-653.5" font-family="Malgun Gothic" font-size="10.00">PressSymbolColor</text>
<text text-anchor="start" x="403.25" y="-638.5" font-family="Malgun Gothic" font-size="10.00">+</text>
<text text-anchor="start" x="416.25" y="-638.5" font-family="Malgun Gothic" font-size="10.00">SymbolTexture</text>
<text text-anchor="start" x="405.75" y="-623.5" font-family="Malgun Gothic" font-size="10.00">&#45;</text>
<text text-anchor="start" x="416.25" y="-623.5" font-family="Malgun Gothic" font-size="10.00">bEnabled</text>
<text text-anchor="start" x="405.75" y="-608.5" font-family="Malgun Gothic" font-size="10.00">&#45;</text>
<text text-anchor="start" x="416.25" y="-608.5" font-family="Malgun Gothic" font-size="10.00">Button_Main</text>
<text text-anchor="start" x="405.75" y="-593.5" font-family="Malgun Gothic" font-size="10.00">&#45;</text>
<text text-anchor="start" x="416.25" y="-593.5" font-family="Malgun Gothic" font-size="10.00">Image_Symbol</text>
<text text-anchor="start" x="403.25" y="-578.5" font-family="Malgun Gothic" font-size="10.00">+</text>
<text text-anchor="start" x="416.25" y="-578.5" font-family="Malgun Gothic" font-size="10.00">SetButtonEnabled()</text>
<text text-anchor="start" x="403.25" y="-563.5" font-family="Malgun Gothic" font-size="10.00">+</text>
<text text-anchor="start" x="416.25" y="-563.5" font-family="Malgun Gothic" font-size="10.00">SetButtonSize()</text>
<text text-anchor="start" x="403.25" y="-548.5" font-family="Malgun Gothic" font-size="10.00">+</text>
<text text-anchor="start" x="416.25" y="-548.5" font-family="Malgun Gothic" font-size="10.00">SetButtonTexture()</text>
<text text-anchor="start" x="403.25" y="-533.5" font-family="Malgun Gothic" font-size="10.00">+</text>
<text text-anchor="start" x="416.25" y="-533.5" font-family="Malgun Gothic" font-size="10.00">SetSymbolTexture()</text>
<text text-anchor="start" x="403.25" y="-518.5" font-family="Malgun Gothic" font-size="10.00">#</text>
<text text-anchor="start" x="416.25" y="-518.5" font-family="Malgun Gothic" font-size="10.00">NativeConstruct()</text>
<text text-anchor="start" x="403.25" y="-503.5" font-family="Malgun Gothic" font-size="10.00">#</text>
<text text-anchor="start" x="416.25" y="-503.5" font-family="Malgun Gothic" font-size="10.00">NativePreConstruct()</text>
<text text-anchor="start" x="405.75" y="-488.5" font-family="Malgun Gothic" font-size="10.00">&#45;</text>
<text text-anchor="start" x="416.25" y="-488.5" font-family="Malgun Gothic" font-size="10.00">ApplySymbolColor()</text>
<text text-anchor="start" x="405.75" y="-473.5" font-family="Malgun Gothic" font-size="10.00">&#45;</text>
<text text-anchor="start" x="416.25" y="-473.5" font-family="Malgun Gothic" font-size="10.00">ApplyTextures()</text>
<text text-anchor="start" x="405.75" y="-458.5" font-family="Malgun Gothic" font-size="10.00">&#45;</text>
<text text-anchor="start" x="416.25" y="-458.5" font-family="Malgun Gothic" font-size="10.00">HandleClicked()</text>
<text text-anchor="start" x="405.75" y="-443.5" font-family="Malgun Gothic" font-size="10.00">&#45;</text>
<text text-anchor="start" x="416.25" y="-443.5" font-family="Malgun Gothic" font-size="10.00">HandleHovered()</text>
<text text-anchor="start" x="405.75" y="-428.5" font-family="Malgun Gothic" font-size="10.00">&#45;</text>
<text text-anchor="start" x="416.25" y="-428.5" font-family="Malgun Gothic" font-size="10.00">HandlePressed()</text>
<text text-anchor="start" x="405.75" y="-413.5" font-family="Malgun Gothic" font-size="10.00">&#45;</text>
<text text-anchor="start" x="416.25" y="-413.5" font-family="Malgun Gothic" font-size="10.00">HandleReleased()</text>
<text text-anchor="start" x="405.75" y="-398.5" font-family="Malgun Gothic" font-size="10.00">&#45;</text>
<text text-anchor="start" x="416.25" y="-398.5" font-family="Malgun Gothic" font-size="10.00">HandleUnhovered()</text>
<polygon fill="#666666" stroke="#666666" points="399.25,-768.5 399.25,-768.5 529.25,-768.5 529.25,-768.5 399.25,-768.5"/>
<polygon fill="#666666" stroke="#666666" points="399.25,-588.5 399.25,-588.5 414.25,-588.5 414.25,-588.5 399.25,-588.5"/>
<polygon fill="#666666" stroke="#666666" points="414.25,-588.5 414.25,-588.5 529.25,-588.5 529.25,-588.5 414.25,-588.5"/>
<polygon fill="none" stroke="#666666" points="399.25,-391.5 399.25,-785.5 529.25,-785.5 529.25,-391.5 399.25,-391.5"/>
</a>
</g>
</g>
<!-- Node2&#45;&gt;Node7 -->
<g id="edge9_Node000007_Node000002" class="edge">
<title>Node2&#45;&gt;Node7</title>
<g id="a_edge9_Node000007_Node000002"><a xlink:title=" ">
<path fill="none" stroke="#63b8ff" d="M254.09,-925.22C295.73,-919.81 354.83,-905.54 390.25,-868 412.14,-844.8 427.71,-815.89 438.76,-785.54"/>
<polygon fill="none" stroke="#63b8ff" points="253.43,-921.78 243.9,-926.42 254.24,-928.73 253.43,-921.78"/>
</a>
</g>
</g>
<!-- Node3 -->
<g id="Node000003" class="node">
<title>Node3</title>
<g id="a_Node000003"><a xlink:href="classULingoGameInstance.html" target="_top" xlink:title=" ">
<polygon fill="white" stroke="transparent" points="707.25,-725.5 547.25,-725.5 547.25,-451.5 707.25,-451.5 707.25,-725.5"/>
<text text-anchor="start" x="574.75" y="-713.5" font-family="Malgun Gothic" font-size="10.00">ULingoGameInstance</text>
<text text-anchor="start" x="551.25" y="-698.5" font-family="Malgun Gothic" font-size="10.00">+</text>
<text text-anchor="start" x="564.25" y="-698.5" font-family="Malgun Gothic" font-size="10.00">currSessionName</text>
<text text-anchor="start" x="551.25" y="-683.5" font-family="Malgun Gothic" font-size="10.00">+</text>
<text text-anchor="start" x="564.25" y="-683.5" font-family="Malgun Gothic" font-size="10.00">onFindComplete</text>
<text text-anchor="start" x="551.25" y="-668.5" font-family="Malgun Gothic" font-size="10.00">+</text>
<text text-anchor="start" x="564.25" y="-668.5" font-family="Malgun Gothic" font-size="10.00">selectCharacter</text>
<text text-anchor="start" x="551.25" y="-653.5" font-family="Malgun Gothic" font-size="10.00">+</text>
<text text-anchor="start" x="564.25" y="-653.5" font-family="Malgun Gothic" font-size="10.00">sessionInterface</text>
<text text-anchor="start" x="551.25" y="-638.5" font-family="Malgun Gothic" font-size="10.00">+</text>
<text text-anchor="start" x="564.25" y="-638.5" font-family="Malgun Gothic" font-size="10.00">sessionSearch</text>
<text text-anchor="start" x="551.25" y="-623.5" font-family="Malgun Gothic" font-size="10.00">+</text>
<text text-anchor="start" x="564.25" y="-623.5" font-family="Malgun Gothic" font-size="10.00">ULingoGameInstance()</text>
<text text-anchor="start" x="551.25" y="-608.5" font-family="Malgun Gothic" font-size="10.00">+</text>
<text text-anchor="start" x="564.25" y="-608.5" font-family="Malgun Gothic" font-size="10.00">CreateMySession()</text>
<text text-anchor="start" x="551.25" y="-593.5" font-family="Malgun Gothic" font-size="10.00">+</text>
<text text-anchor="start" x="564.25" y="-593.5" font-family="Malgun Gothic" font-size="10.00">FindOtherSession()</text>
<text text-anchor="start" x="551.25" y="-578.5" font-family="Malgun Gothic" font-size="10.00">+</text>
<text text-anchor="start" x="564.25" y="-578.5" font-family="Malgun Gothic" font-size="10.00">GetSelectCharacter()</text>
<text text-anchor="start" x="551.25" y="-563.5" font-family="Malgun Gothic" font-size="10.00">+</text>
<text text-anchor="start" x="564.25" y="-563.5" font-family="Malgun Gothic" font-size="10.00">Init()</text>
<text text-anchor="start" x="551.25" y="-548.5" font-family="Malgun Gothic" font-size="10.00">+</text>
<text text-anchor="start" x="564.25" y="-548.5" font-family="Malgun Gothic" font-size="10.00">JoinOtherSession()</text>
<text text-anchor="start" x="551.25" y="-533.5" font-family="Malgun Gothic" font-size="10.00">+</text>
<text text-anchor="start" x="564.25" y="-533.5" font-family="Malgun Gothic" font-size="10.00">OnCreateSessionComplete()</text>
<text text-anchor="start" x="551.25" y="-518.5" font-family="Malgun Gothic" font-size="10.00">+</text>
<text text-anchor="start" x="564.25" y="-518.5" font-family="Malgun Gothic" font-size="10.00">OnFindSessionComplete()</text>
<text text-anchor="start" x="551.25" y="-503.5" font-family="Malgun Gothic" font-size="10.00">+</text>
<text text-anchor="start" x="564.25" y="-503.5" font-family="Malgun Gothic" font-size="10.00">OnJoinSessionComplete()</text>
<text text-anchor="start" x="551.25" y="-488.5" font-family="Malgun Gothic" font-size="10.00">+</text>
<text text-anchor="start" x="564.25" y="-488.5" font-family="Malgun Gothic" font-size="10.00">SetSelectCharacter()</text>
<text text-anchor="start" x="551.25" y="-473.5" font-family="Malgun Gothic" font-size="10.00">+</text>
<text text-anchor="start" x="564.25" y="-473.5" font-family="Malgun Gothic" font-size="10.00">StringBase64Decode()</text>
<text text-anchor="start" x="551.25" y="-458.5" font-family="Malgun Gothic" font-size="10.00">+</text>
<text text-anchor="start" x="564.25" y="-458.5" font-family="Malgun Gothic" font-size="10.00">StringBase64Encode()</text>
<polygon fill="#666666" stroke="#666666" points="547.25,-708.5 547.25,-708.5 707.25,-708.5 707.25,-708.5 547.25,-708.5"/>
<polygon fill="#666666" stroke="#666666" points="547.25,-633.5 547.25,-633.5 562.25,-633.5 562.25,-633.5 547.25,-633.5"/>
<polygon fill="#666666" stroke="#666666" points="562.25,-633.5 562.25,-633.5 707.25,-633.5 707.25,-633.5 562.25,-633.5"/>
<polygon fill="none" stroke="#666666" points="547.25,-451.5 547.25,-725.5 707.25,-725.5 707.25,-451.5 547.25,-451.5"/>
</a>
</g>
</g>
<!-- Node3&#45;&gt;Node1 -->
<g id="edge2_Node000001_Node000003" class="edge">
<title>Node3&#45;&gt;Node1</title>
<g id="a_edge2_Node000001_Node000003"><a xlink:title=" ">
<path fill="none" stroke="#63b8ff" d="M599.29,-451.48C585.62,-403.96 565.95,-351.84 538.25,-309 505.8,-258.82 456.56,-214.39 412.42,-180.8"/>
<polygon fill="none" stroke="#63b8ff" points="412.39,-180.78 405.19,-180.38 402.79,-173.58 409.99,-173.98 412.39,-180.78"/>
</a>
</g>
<text text-anchor="middle" x="536.25" y="-266.5" font-family="Malgun Gothic" font-size="10.00" fill="grey"> +GI</text>
</g>
<!-- Node4 -->
<g id="Node000004" class="node">
<title>Node4</title>
<g id="a_Node000004"><a xlink:title=" ">
<polygon fill="white" stroke="transparent" points="671.75,-954 582.75,-954 582.75,-905 671.75,-905 671.75,-954"/>
<text text-anchor="start" x="588.25" y="-941.5" font-family="Malgun Gothic" font-size="10.00">UGameInstance</text>
<text text-anchor="start" x="625.75" y="-926.5" font-family="Malgun Gothic" font-size="10.00"> </text>
<text text-anchor="start" x="625.75" y="-911.5" font-family="Malgun Gothic" font-size="10.00"> </text>
<polygon fill="#666666" stroke="#666666" points="583.25,-936.5 583.25,-936.5 672.25,-936.5 672.25,-936.5 583.25,-936.5"/>
<polygon fill="#666666" stroke="#666666" points="583.25,-921.5 583.25,-921.5 672.25,-921.5 672.25,-921.5 583.25,-921.5"/>
<polygon fill="none" stroke="#666666" points="582.75,-905 582.75,-954 671.75,-954 671.75,-905 582.75,-905"/>
</a>
</g>
</g>
<!-- Node4&#45;&gt;Node3 -->
<g id="edge3_Node000003_Node000004" class="edge">
<title>Node4&#45;&gt;Node3</title>
<g id="a_edge3_Node000003_Node000004"><a xlink:title=" ">
<path fill="none" stroke="#63b8ff" d="M627.25,-894.82C627.25,-855.35 627.25,-787.47 627.25,-725.72"/>
<polygon fill="none" stroke="#63b8ff" points="623.75,-894.93 627.25,-904.93 630.75,-894.93 623.75,-894.93"/>
</a>
</g>
</g>
<!-- Node5&#45;&gt;Node1 -->
<g id="edge4_Node000001_Node000005" class="edge">
<title>Node5&#45;&gt;Node1</title>
<g id="a_edge4_Node000001_Node000005"><a xlink:title=" ">
<path fill="none" stroke="#63b8ff" d="M208.44,-361.21C218.67,-322.61 230.6,-283.28 244.25,-247 245.08,-244.78 245.95,-242.56 246.84,-240.32"/>
<polygon fill="none" stroke="#63b8ff" points="246.89,-240.2 245.49,-233.12 251.48,-229.11 252.88,-236.19 246.89,-240.2"/>
</a>
</g>
<text text-anchor="middle" x="276.75" y="-283" font-family="Malgun Gothic" font-size="10.00" fill="grey"> +Btn_Host</text>
<text text-anchor="middle" x="276.75" y="-272" font-family="Malgun Gothic" font-size="10.00" fill="grey">+Btn_Join</text>
<text text-anchor="middle" x="276.75" y="-261" font-family="Malgun Gothic" font-size="10.00" fill="grey">+Btn_LogOut</text>
<text text-anchor="middle" x="276.75" y="-250" font-family="Malgun Gothic" font-size="10.00" fill="grey">+Btn_Single</text>
</g>
<!-- Node6&#45;&gt;Node1 -->
<g id="edge6_Node000001_Node000006" class="edge">
<title>Node6&#45;&gt;Node1</title>
<g id="a_edge6_Node000001_Node000006"><a xlink:title=" ">
<path fill="none" stroke="#63b8ff" d="M313.25,-308.84C313.25,-285.37 313.25,-262.49 313.25,-241.16"/>
<polygon fill="none" stroke="#63b8ff" points="313.25,-241.13 309.25,-235.13 313.25,-229.13 317.25,-235.13 313.25,-241.13"/>
</a>
</g>
<text text-anchor="middle" x="346.25" y="-266.5" font-family="Malgun Gothic" font-size="10.00" fill="grey"> +Btn_Create</text>
</g>
<!-- Node7&#45;&gt;Node1 -->
<g id="edge8_Node000001_Node000007" class="edge">
<title>Node7&#45;&gt;Node1</title>
<g id="a_edge8_Node000001_Node000007"><a xlink:title=" ">
<path fill="none" stroke="#63b8ff" d="M426.62,-391.34C414.97,-343.4 400.54,-292.76 383.25,-247 382.41,-244.78 381.54,-242.54 380.64,-240.31"/>
<polygon fill="none" stroke="#63b8ff" points="380.58,-240.15 374.57,-236.15 375.95,-229.08 381.96,-233.07 380.58,-240.15"/>
</a>
</g>
<text text-anchor="middle" x="430.75" y="-266.5" font-family="Malgun Gothic" font-size="10.00" fill="grey"> +Btn_Update</text>
</g>
</g>
</svg>
