<?xml version="1.0" encoding="UTF-8" standalone="no"?>
<!DOCTYPE svg PUBLIC "-//W3C//DTD SVG 1.1//EN"
 "http://www.w3.org/Graphics/SVG/1.1/DTD/svg11.dtd">
<!-- Generated by graphviz version 2.43.0 (0)
 -->
<!-- Title: UWebSocketSystem Pages: 1 -->
<svg width="174pt" height="348pt"
 viewBox="0.00 0.00 174.00 348.00" xmlns="http://www.w3.org/2000/svg" xmlns:xlink="http://www.w3.org/1999/xlink">

<svg id="main" version="1.1" xmlns="http://www.w3.org/2000/svg" xmlns:xlink="http://www.w3.org/1999/xlink" xml:space="preserve" onload="init(evt)">
<style type="text/css"><![CDATA[
.node, .edge {opacity: 0.7;}
.node.selected, .edge.selected {opacity: 1;}
.edge:hover path { stroke: red; }
.edge:hover polygon { stroke: red; fill: red; }
]]></style>
<script type="application/ecmascript" xlink:href="svg.min.js"/>
<svg id="graph" class="graph">
<g id="graph0" class="graph" transform="scale(1 1) rotate(0) translate(4 344)">
<title>UWebSocketSystem</title>
<!-- Node1 -->
<g id="Node000001" class="node">
<title>Node1</title>
<g id="a_Node000001"><a xlink:title=" ">
<polygon fill="#999999" stroke="transparent" points="166,-255 0,-255 0,0 166,0 166,-255"/>
<text text-anchor="start" x="34" y="-242.5" font-family="Malgun Gothic" font-size="10.00">UWebSocketSystem</text>
<text text-anchor="start" x="6.5" y="-227.5" font-family="Malgun Gothic" font-size="10.00">&#45;</text>
<text text-anchor="start" x="17" y="-227.5" font-family="Malgun Gothic" font-size="10.00">bIsExpectingAudio</text>
<text text-anchor="start" x="6.5" y="-212.5" font-family="Malgun Gothic" font-size="10.00">&#45;</text>
<text text-anchor="start" x="17" y="-212.5" font-family="Malgun Gothic" font-size="10.00">WebSocket</text>
<text text-anchor="start" x="4" y="-197.5" font-family="Malgun Gothic" font-size="10.00">+</text>
<text text-anchor="start" x="17" y="-197.5" font-family="Malgun Gothic" font-size="10.00">Connect()</text>
<text text-anchor="start" x="4" y="-182.5" font-family="Malgun Gothic" font-size="10.00">+</text>
<text text-anchor="start" x="17" y="-182.5" font-family="Malgun Gothic" font-size="10.00">DEFINE_SUBSYSTEM_GETTER</text>
<text text-anchor="start" x="17" y="-171.5" font-family="Malgun Gothic" font-size="10.00">_INLINE()</text>
<text text-anchor="start" x="4" y="-156.5" font-family="Malgun Gothic" font-size="10.00">+</text>
<text text-anchor="start" x="17" y="-156.5" font-family="Malgun Gothic" font-size="10.00">Disconnect()</text>
<text text-anchor="start" x="4" y="-141.5" font-family="Malgun Gothic" font-size="10.00">+</text>
<text text-anchor="start" x="17" y="-141.5" font-family="Malgun Gothic" font-size="10.00">IsConnected()</text>
<text text-anchor="start" x="4" y="-126.5" font-family="Malgun Gothic" font-size="10.00">+</text>
<text text-anchor="start" x="17" y="-126.5" font-family="Malgun Gothic" font-size="10.00">SendPing()</text>
<text text-anchor="start" x="6.5" y="-111.5" font-family="Malgun Gothic" font-size="10.00">&#45;</text>
<text text-anchor="start" x="17" y="-111.5" font-family="Malgun Gothic" font-size="10.00">Deinitialize()</text>
<text text-anchor="start" x="6.5" y="-96.5" font-family="Malgun Gothic" font-size="10.00">&#45;</text>
<text text-anchor="start" x="17" y="-96.5" font-family="Malgun Gothic" font-size="10.00">Initialize()</text>
<text text-anchor="start" x="6.5" y="-81.5" font-family="Malgun Gothic" font-size="10.00">&#45;</text>
<text text-anchor="start" x="17" y="-81.5" font-family="Malgun Gothic" font-size="10.00">OnBinaryMessage_Native()</text>
<text text-anchor="start" x="6.5" y="-66.5" font-family="Malgun Gothic" font-size="10.00">&#45;</text>
<text text-anchor="start" x="17" y="-66.5" font-family="Malgun Gothic" font-size="10.00">OnClosed_Native()</text>
<text text-anchor="start" x="6.5" y="-51.5" font-family="Malgun Gothic" font-size="10.00">&#45;</text>
<text text-anchor="start" x="17" y="-51.5" font-family="Malgun Gothic" font-size="10.00">OnConnected_Native()</text>
<text text-anchor="start" x="6.5" y="-36.5" font-family="Malgun Gothic" font-size="10.00">&#45;</text>
<text text-anchor="start" x="17" y="-36.5" font-family="Malgun Gothic" font-size="10.00">OnConnectionError_Native()</text>
<text text-anchor="start" x="6.5" y="-21.5" font-family="Malgun Gothic" font-size="10.00">&#45;</text>
<text text-anchor="start" x="17" y="-21.5" font-family="Malgun Gothic" font-size="10.00">OnMessage_Native()</text>
<text text-anchor="start" x="6.5" y="-6.5" font-family="Malgun Gothic" font-size="10.00">&#45;</text>
<text text-anchor="start" x="17" y="-6.5" font-family="Malgun Gothic" font-size="10.00">LogNetwork()</text>
<polygon fill="#666666" stroke="#666666" points="0,-237.5 0,-237.5 166,-237.5 166,-237.5 0,-237.5"/>
<polygon fill="#666666" stroke="#666666" points="0,-207.5 0,-207.5 15,-207.5 15,-207.5 0,-207.5"/>
<polygon fill="#666666" stroke="#666666" points="15,-207.5 15,-207.5 166,-207.5 166,-207.5 15,-207.5"/>
<polygon fill="none" stroke="#666666" points="0,0 0,-255 166,-255 166,0 0,0"/>
</a>
</g>
</g>
<!-- Node2 -->
<g id="Node000002" class="node">
<title>Node2</title>
<g id="a_Node000002"><a xlink:title=" ">
<polygon fill="white" stroke="transparent" points="154.5,-340 11.5,-340 11.5,-291 154.5,-291 154.5,-340"/>
<text text-anchor="start" x="17" y="-327.5" font-family="Malgun Gothic" font-size="10.00">UGameInstanceSubsystem</text>
<text text-anchor="start" x="81.5" y="-312.5" font-family="Malgun Gothic" font-size="10.00"> </text>
<text text-anchor="start" x="81.5" y="-297.5" font-family="Malgun Gothic" font-size="10.00"> </text>
<polygon fill="#666666" stroke="#666666" points="12,-322.5 12,-322.5 155,-322.5 155,-322.5 12,-322.5"/>
<polygon fill="#666666" stroke="#666666" points="12,-307.5 12,-307.5 155,-307.5 155,-307.5 12,-307.5"/>
<polygon fill="none" stroke="#666666" points="11.5,-291 11.5,-340 154.5,-340 154.5,-291 11.5,-291"/>
</a>
</g>
</g>
<!-- Node2&#45;&gt;Node1 -->
<g id="edge1_Node000001_Node000002" class="edge">
<title>Node2&#45;&gt;Node1</title>
<g id="a_edge1_Node000001_Node000002"><a xlink:title=" ">
<path fill="none" stroke="#63b8ff" d="M83,-280.75C83,-273.08 83,-264.48 83,-255.39"/>
<polygon fill="none" stroke="#63b8ff" points="79.5,-280.94 83,-290.94 86.5,-280.94 79.5,-280.94"/>
</a>
</g>
</g>
</g>
</svg>
</svg>

<style type='text/css'>
<![CDATA[
[data-mouse-over-selected='false'] { opacity: 0.7; }
[data-mouse-over-selected='true']  { opacity: 1.0; }
]]>
</style>
<script type="application/ecmascript"><![CDATA[
document.addEventListener('DOMContentLoaded', (event) => {
  highlightEdges();
  highlightAdjacentNodes();
});
]]></script>
</svg>
