<?xml version="1.0" encoding="UTF-8" standalone="no"?>
<!DOCTYPE svg PUBLIC "-//W3C//DTD SVG 1.1//EN"
 "http://www.w3.org/Graphics/SVG/1.1/DTD/svg11.dtd">
<!-- Generated by graphviz version 2.43.0 (0)
 -->
<!-- Title: ULoadginCircle Pages: 1 -->
<svg width="147pt" height="277pt"
 viewBox="0.00 0.00 147.00 277.00" xmlns="http://www.w3.org/2000/svg" xmlns:xlink="http://www.w3.org/1999/xlink">
<g id="graph0" class="graph" transform="scale(1 1) rotate(0) translate(4 273)">
<title>ULoadginCircle</title>
<!-- Node1 -->
<g id="Node000001" class="node">
<title>Node1</title>
<g id="a_Node000001"><a xlink:title="네트워크 대기 상태를 표시하는 로딩 서클 위젯입니다.">
<polygon fill="#999999" stroke="transparent" points="139,-184 0,-184 0,0 139,0 139,-184"/>
<text text-anchor="start" x="33" y="-172" font-family="Malgun Gothic" font-size="10.00">ULoadginCircle</text>
<text text-anchor="start" x="4.5" y="-157" font-family="Malgun Gothic" font-size="10.00">+</text>
<text text-anchor="start" x="17.5" y="-157" font-family="Malgun Gothic" font-size="10.00">LoadingSpinner</text>
<text text-anchor="start" x="4.5" y="-142" font-family="Malgun Gothic" font-size="10.00">+</text>
<text text-anchor="start" x="17.5" y="-142" font-family="Malgun Gothic" font-size="10.00">RootOverlay</text>
<text text-anchor="start" x="4.5" y="-127" font-family="Malgun Gothic" font-size="10.00">+</text>
<text text-anchor="start" x="17.5" y="-127" font-family="Malgun Gothic" font-size="10.00">SpinnerRotationSpeed</text>
<text text-anchor="start" x="4.5" y="-112" font-family="Malgun Gothic" font-size="10.00">+</text>
<text text-anchor="start" x="17.5" y="-112" font-family="Malgun Gothic" font-size="10.00">AddToGameViewport()</text>
<text text-anchor="start" x="4.5" y="-97" font-family="Malgun Gothic" font-size="10.00">+</text>
<text text-anchor="start" x="17.5" y="-97" font-family="Malgun Gothic" font-size="10.00">Hide()</text>
<text text-anchor="start" x="4.5" y="-82" font-family="Malgun Gothic" font-size="10.00">+</text>
<text text-anchor="start" x="17.5" y="-82" font-family="Malgun Gothic" font-size="10.00">NativeConstruct()</text>
<text text-anchor="start" x="4.5" y="-67" font-family="Malgun Gothic" font-size="10.00">+</text>
<text text-anchor="start" x="17.5" y="-67" font-family="Malgun Gothic" font-size="10.00">NativeDestruct()</text>
<text text-anchor="start" x="4.5" y="-52" font-family="Malgun Gothic" font-size="10.00">+</text>
<text text-anchor="start" x="17.5" y="-52" font-family="Malgun Gothic" font-size="10.00">NativeTick()</text>
<text text-anchor="start" x="4.5" y="-37" font-family="Malgun Gothic" font-size="10.00">+</text>
<text text-anchor="start" x="17.5" y="-37" font-family="Malgun Gothic" font-size="10.00">Show()</text>
<text text-anchor="start" x="7" y="-22" font-family="Malgun Gothic" font-size="10.00">&#45;</text>
<text text-anchor="start" x="17.5" y="-22" font-family="Malgun Gothic" font-size="10.00">UpdateLoadingSpinner()</text>
<text text-anchor="start" x="7" y="-7" font-family="Malgun Gothic" font-size="10.00">&#45;</text>
<text text-anchor="start" x="17.5" y="-7" font-family="Malgun Gothic" font-size="10.00">UpdateVisibility()</text>
<polygon fill="#666666" stroke="#666666" points="0.5,-167 0.5,-167 139.5,-167 139.5,-167 0.5,-167"/>
<polygon fill="#666666" stroke="#666666" points="0.5,-122 0.5,-122 15.5,-122 15.5,-122 0.5,-122"/>
<polygon fill="#666666" stroke="#666666" points="15.5,-122 15.5,-122 139.5,-122 139.5,-122 15.5,-122"/>
<polygon fill="none" stroke="#666666" points="0,0 0,-184 139,-184 139,0 0,0"/>
</a>
</g>
</g>
<!-- Node2 -->
<g id="Node000002" class="node">
<title>Node2</title>
<g id="a_Node000002"><a xlink:title=" ">
<polygon fill="white" stroke="transparent" points="107,-269 32,-269 32,-220 107,-220 107,-269"/>
<text text-anchor="start" x="37.5" y="-256.5" font-family="Malgun Gothic" font-size="10.00">UUserWidget</text>
<text text-anchor="start" x="68" y="-241.5" font-family="Malgun Gothic" font-size="10.00"> </text>
<text text-anchor="start" x="68" y="-226.5" font-family="Malgun Gothic" font-size="10.00"> </text>
<polygon fill="#666666" stroke="#666666" points="32.5,-251.5 32.5,-251.5 107.5,-251.5 107.5,-251.5 32.5,-251.5"/>
<polygon fill="#666666" stroke="#666666" points="32.5,-236.5 32.5,-236.5 107.5,-236.5 107.5,-236.5 32.5,-236.5"/>
<polygon fill="none" stroke="#666666" points="32,-220 32,-269 107,-269 107,-220 32,-220"/>
</a>
</g>
</g>
<!-- Node2&#45;&gt;Node1 -->
<g id="edge1_Node000001_Node000002" class="edge">
<title>Node2&#45;&gt;Node1</title>
<g id="a_edge1_Node000001_Node000002"><a xlink:title=" ">
<path fill="none" stroke="#63b8ff" d="M69.5,-209.88C69.5,-202.03 69.5,-193.29 69.5,-184.23"/>
<polygon fill="none" stroke="#63b8ff" points="66,-209.98 69.5,-219.98 73,-209.98 66,-209.98"/>
</a>
</g>
</g>
</g>
</svg>
