<?xml version="1.0" encoding="UTF-8" standalone="no"?>
<!DOCTYPE svg PUBLIC "-//W3C//DTD SVG 1.1//EN"
 "http://www.w3.org/Graphics/SVG/1.1/DTD/svg11.dtd">
<!-- Generated by graphviz version 2.43.0 (0)
 -->
<!-- Title: UCustomNetworkSettings::GetCurrentServerMode Pages: 1 -->
<svg width="547pt" height="76pt"
 viewBox="0.00 0.00 547.00 75.50" xmlns="http://www.w3.org/2000/svg" xmlns:xlink="http://www.w3.org/1999/xlink">
<g id="graph0" class="graph" transform="scale(1 1) rotate(0) translate(4 71.5)">
<title>UCustomNetworkSettings::GetCurrentServerMode</title>
<!-- Node1 -->
<g id="Node000001" class="node">
<title>Node1</title>
<g id="a_Node000001"><a xlink:title="명령줄 또는 설정으로 선택된 서버 모드를 반환합니다.">
<polygon fill="#999999" stroke="#666666" points="539,-45.5 396,-45.5 396,-15.5 539,-15.5 539,-45.5"/>
<text text-anchor="start" x="404" y="-33.5" font-family="Malgun Gothic" font-size="10.00">UCustomNetworkSettings</text>
<text text-anchor="middle" x="467.5" y="-22.5" font-family="Malgun Gothic" font-size="10.00">::GetCurrentServerMode</text>
</a>
</g>
</g>
<!-- Node2 -->
<g id="Node000002" class="node">
<title>Node2</title>
<g id="a_Node000002"><a xlink:href="namespaceNetworkConfig.html#ab5ac57e8f51de6d1740c7a88534a7246" target="_top" xlink:title="현재 서버 모드에 맞는 HTTP 엔드포인트 URL을 생성합니다.">
<polygon fill="white" stroke="#666666" points="349.5,-60 206.5,-60 206.5,-41 349.5,-41 349.5,-60"/>
<text text-anchor="middle" x="278" y="-48" font-family="Malgun Gothic" font-size="10.00">NetworkConfig::GetFullUrl</text>
</a>
</g>
</g>
<!-- Node1&#45;&gt;Node2 -->
<g id="edge1_Node000001_Node000002" class="edge">
<title>Node1&#45;&gt;Node2</title>
<g id="a_edge1_Node000001_Node000002"><a xlink:title=" ">
<path fill="none" stroke="#63b8ff" d="M385.83,-39.1C373.76,-40.39 361.39,-41.71 349.55,-42.97"/>
<polygon fill="#63b8ff" stroke="#63b8ff" points="386.31,-42.57 395.88,-38.03 385.57,-35.61 386.31,-42.57"/>
</a>
</g>
</g>
<!-- Node4 -->
<g id="Node000004" class="node">
<title>Node4</title>
<g id="a_Node000004"><a xlink:href="namespaceNetworkConfig.html#a948647fad9ed84a91de549757a7a0e74" target="_top" xlink:title="현재 서버 모드에서 사용할 WebSocket 주소를 반환합니다.">
<polygon fill="white" stroke="#666666" points="360,-22 196,-22 196,-3 360,-3 360,-22"/>
<text text-anchor="middle" x="278" y="-10" font-family="Malgun Gothic" font-size="10.00">NetworkConfig::GetSocketURL</text>
</a>
</g>
</g>
<!-- Node1&#45;&gt;Node4 -->
<g id="edge3_Node000001_Node000004" class="edge">
<title>Node1&#45;&gt;Node4</title>
<g id="a_edge3_Node000001_Node000004"><a xlink:title=" ">
<path fill="none" stroke="#63b8ff" d="M385.69,-22.74C377.26,-21.93 368.69,-21.11 360.26,-20.3"/>
<polygon fill="#63b8ff" stroke="#63b8ff" points="385.59,-26.25 395.88,-23.72 386.26,-19.28 385.59,-26.25"/>
</a>
</g>
</g>
<!-- Node3 -->
<g id="Node000003" class="node">
<title>Node3</title>
<g id="a_Node000003"><a xlink:href="classUHttpNetworkSystem.html#a5409712d1a8c7226e51c68335fcc3d48" target="_top" xlink:title="서버 상태 확인을 위한 /health 요청을 전송합니다.">
<polygon fill="white" stroke="#666666" points="141.5,-67.5 18.5,-67.5 18.5,-37.5 141.5,-37.5 141.5,-67.5"/>
<text text-anchor="start" x="26.5" y="-55.5" font-family="Malgun Gothic" font-size="10.00">UHttpNetworkSystem</text>
<text text-anchor="middle" x="80" y="-44.5" font-family="Malgun Gothic" font-size="10.00">::RequestHealth</text>
</a>
</g>
</g>
<!-- Node2&#45;&gt;Node3 -->
<g id="edge2_Node000002_Node000003" class="edge">
<title>Node2&#45;&gt;Node3</title>
<g id="a_edge2_Node000002_Node000003"><a xlink:title=" ">
<path fill="none" stroke="#63b8ff" d="M196.2,-51.32C177.95,-51.51 158.88,-51.71 141.62,-51.88"/>
<polygon fill="#63b8ff" stroke="#63b8ff" points="196.28,-54.82 206.24,-51.22 196.2,-47.82 196.28,-54.82"/>
</a>
</g>
</g>
<!-- Node5 -->
<g id="Node000005" class="node">
<title>Node5</title>
<g id="a_Node000005"><a xlink:href="classUWebSocketSystem.html#ad8a09ae8c4734c4af887f138e3ccb751" target="_top" xlink:title="WebSocket 서버와 연결을 수립합니다.">
<polygon fill="white" stroke="#666666" points="160,-19 0,-19 0,0 160,0 160,-19"/>
<text text-anchor="middle" x="80" y="-7" font-family="Malgun Gothic" font-size="10.00">UWebSocketSystem::Connect</text>
</a>
</g>
</g>
<!-- Node4&#45;&gt;Node5 -->
<g id="edge4_Node000004_Node000005" class="edge">
<title>Node4&#45;&gt;Node5</title>
<g id="a_edge4_Node000004_Node000005"><a xlink:title=" ">
<path fill="none" stroke="#63b8ff" d="M185.85,-11.1C177.28,-10.97 168.63,-10.84 160.18,-10.71"/>
<polygon fill="#63b8ff" stroke="#63b8ff" points="185.81,-14.6 195.86,-11.26 185.92,-7.61 185.81,-14.6"/>
</a>
</g>
</g>
</g>
</svg>
