<?xml version="1.0" encoding="UTF-8" standalone="no"?>
<!DOCTYPE svg PUBLIC "-//W3C//DTD SVG 1.1//EN"
 "http://www.w3.org/Graphics/SVG/1.1/DTD/svg11.dtd">
<!-- Generated by graphviz version 2.43.0 (0)
 -->
<!-- Title: APlayerActor Pages: 1 -->
<svg width="232pt" height="502pt"
 viewBox="0.00 0.00 231.50 502.00" xmlns="http://www.w3.org/2000/svg" xmlns:xlink="http://www.w3.org/1999/xlink">
<g id="graph0" class="graph" transform="scale(1 1) rotate(0) translate(4 498)">
<title>APlayerActor</title>
<!-- Node1 -->
<g id="Node000001" class="node">
<title>Node1</title>
<g id="a_Node000001"><a xlink:title="Main character driven directly by the player.">
<polygon fill="#999999" stroke="transparent" points="177,-319 8,-319 8,0 177,0 177,-319"/>
<text text-anchor="start" x="61" y="-306.5" font-family="Malgun Gothic" font-size="10.00">APlayerActor</text>
<text text-anchor="start" x="12.5" y="-291.5" font-family="Malgun Gothic" font-size="10.00">+</text>
<text text-anchor="start" x="25.5" y="-291.5" font-family="Malgun Gothic" font-size="10.00">FlySystem</text>
<text text-anchor="start" x="12.5" y="-276.5" font-family="Malgun Gothic" font-size="10.00">#</text>
<text text-anchor="start" x="25.5" y="-276.5" font-family="Malgun Gothic" font-size="10.00">FollowCamera</text>
<text text-anchor="start" x="12.5" y="-261.5" font-family="Malgun Gothic" font-size="10.00">#</text>
<text text-anchor="start" x="25.5" y="-261.5" font-family="Malgun Gothic" font-size="10.00">MoveComp</text>
<text text-anchor="start" x="12.5" y="-246.5" font-family="Malgun Gothic" font-size="10.00">#</text>
<text text-anchor="start" x="25.5" y="-246.5" font-family="Malgun Gothic" font-size="10.00">PrevMoveMode</text>
<text text-anchor="start" x="12.5" y="-231.5" font-family="Malgun Gothic" font-size="10.00">#</text>
<text text-anchor="start" x="25.5" y="-231.5" font-family="Malgun Gothic" font-size="10.00">SpringArmComp</text>
<text text-anchor="start" x="12.5" y="-216.5" font-family="Malgun Gothic" font-size="10.00">+</text>
<text text-anchor="start" x="25.5" y="-216.5" font-family="Malgun Gothic" font-size="10.00">APlayerActor()</text>
<text text-anchor="start" x="12.5" y="-201.5" font-family="Malgun Gothic" font-size="10.00">+</text>
<text text-anchor="start" x="25.5" y="-201.5" font-family="Malgun Gothic" font-size="10.00">Cmd_AltitudeDown()</text>
<text text-anchor="start" x="12.5" y="-186.5" font-family="Malgun Gothic" font-size="10.00">+</text>
<text text-anchor="start" x="25.5" y="-186.5" font-family="Malgun Gothic" font-size="10.00">Cmd_AltitudeReleased()</text>
<text text-anchor="start" x="12.5" y="-171.5" font-family="Malgun Gothic" font-size="10.00">+</text>
<text text-anchor="start" x="25.5" y="-171.5" font-family="Malgun Gothic" font-size="10.00">Cmd_AltitudeUp()</text>
<text text-anchor="start" x="12.5" y="-156.5" font-family="Malgun Gothic" font-size="10.00">+</text>
<text text-anchor="start" x="25.5" y="-156.5" font-family="Malgun Gothic" font-size="10.00">Cmd_Jump()</text>
<text text-anchor="start" x="12.5" y="-141.5" font-family="Malgun Gothic" font-size="10.00">+</text>
<text text-anchor="start" x="25.5" y="-141.5" font-family="Malgun Gothic" font-size="10.00">Cmd_Landing()</text>
<text text-anchor="start" x="12.5" y="-126.5" font-family="Malgun Gothic" font-size="10.00">+</text>
<text text-anchor="start" x="25.5" y="-126.5" font-family="Malgun Gothic" font-size="10.00">Cmd_Look()</text>
<text text-anchor="start" x="12.5" y="-111.5" font-family="Malgun Gothic" font-size="10.00">+</text>
<text text-anchor="start" x="25.5" y="-111.5" font-family="Malgun Gothic" font-size="10.00">Cmd_Move()</text>
<text text-anchor="start" x="12.5" y="-96.5" font-family="Malgun Gothic" font-size="10.00">+</text>
<text text-anchor="start" x="25.5" y="-96.5" font-family="Malgun Gothic" font-size="10.00">Landed()</text>
<text text-anchor="start" x="12.5" y="-81.5" font-family="Malgun Gothic" font-size="10.00">+</text>
<text text-anchor="start" x="25.5" y="-81.5" font-family="Malgun Gothic" font-size="10.00">OnFlyEnd()</text>
<text text-anchor="start" x="12.5" y="-66.5" font-family="Malgun Gothic" font-size="10.00">+</text>
<text text-anchor="start" x="25.5" y="-66.5" font-family="Malgun Gothic" font-size="10.00">RecoveryMovementMode()</text>
<text text-anchor="start" x="12.5" y="-51.5" font-family="Malgun Gothic" font-size="10.00">+</text>
<text text-anchor="start" x="25.5" y="-51.5" font-family="Malgun Gothic" font-size="10.00">SetFallingToWalk()</text>
<text text-anchor="start" x="12.5" y="-36.5" font-family="Malgun Gothic" font-size="10.00">+</text>
<text text-anchor="start" x="25.5" y="-36.5" font-family="Malgun Gothic" font-size="10.00">SetFlying()</text>
<text text-anchor="start" x="12.5" y="-21.5" font-family="Malgun Gothic" font-size="10.00">#</text>
<text text-anchor="start" x="25.5" y="-21.5" font-family="Malgun Gothic" font-size="10.00">BeginPlay()</text>
<text text-anchor="start" x="12.5" y="-6.5" font-family="Malgun Gothic" font-size="10.00">#</text>
<text text-anchor="start" x="25.5" y="-6.5" font-family="Malgun Gothic" font-size="10.00">SetupPlayerInputComponent()</text>
<polygon fill="#666666" stroke="#666666" points="8.5,-301.5 8.5,-301.5 177.5,-301.5 177.5,-301.5 8.5,-301.5"/>
<polygon fill="#666666" stroke="#666666" points="8.5,-226.5 8.5,-226.5 23.5,-226.5 23.5,-226.5 8.5,-226.5"/>
<polygon fill="#666666" stroke="#666666" points="23.5,-226.5 23.5,-226.5 177.5,-226.5 177.5,-226.5 23.5,-226.5"/>
<polygon fill="none" stroke="#666666" points="8,0 8,-319 177,-319 177,0 8,0"/>
</a>
</g>
</g>
<!-- Node2 -->
<g id="Node000002" class="node">
<title>Node2</title>
<g id="a_Node000002"><a xlink:title=" ">
<polygon fill="white" stroke="transparent" points="65,-449 0,-449 0,-400 65,-400 65,-449"/>
<text text-anchor="start" x="5.5" y="-436.5" font-family="Malgun Gothic" font-size="10.00">ACharacter</text>
<text text-anchor="start" x="31" y="-421.5" font-family="Malgun Gothic" font-size="10.00"> </text>
<text text-anchor="start" x="31" y="-406.5" font-family="Malgun Gothic" font-size="10.00"> </text>
<polygon fill="#666666" stroke="#666666" points="0.5,-431.5 0.5,-431.5 65.5,-431.5 65.5,-431.5 0.5,-431.5"/>
<polygon fill="#666666" stroke="#666666" points="0.5,-416.5 0.5,-416.5 65.5,-416.5 65.5,-416.5 0.5,-416.5"/>
<polygon fill="none" stroke="#666666" points="0,-400 0,-449 65,-449 65,-400 0,-400"/>
</a>
</g>
</g>
<!-- Node2&#45;&gt;Node1 -->
<g id="edge1_Node000001_Node000002" class="edge">
<title>Node2&#45;&gt;Node1</title>
<g id="a_edge1_Node000001_Node000002"><a xlink:title=" ">
<path fill="none" stroke="#63b8ff" d="M40.17,-389.87C44.48,-370.98 50.21,-345.89 56.29,-319.23"/>
<polygon fill="none" stroke="#63b8ff" points="36.74,-389.17 37.93,-399.7 43.57,-390.73 36.74,-389.17"/>
</a>
</g>
</g>
<!-- Node3 -->
<g id="Node000003" class="node">
<title>Node3</title>
<g id="a_Node000003"><a xlink:href="classIControllable.html" target="_top" xlink:title=" ">
<polygon fill="white" stroke="transparent" points="223.5,-494 83.5,-494 83.5,-355 223.5,-355 223.5,-494"/>
<text text-anchor="start" x="122" y="-481.5" font-family="Malgun Gothic" font-size="10.00">IControllable</text>
<text text-anchor="start" x="151.5" y="-466.5" font-family="Malgun Gothic" font-size="10.00"> </text>
<text text-anchor="start" x="87.5" y="-451.5" font-family="Malgun Gothic" font-size="10.00">+</text>
<text text-anchor="start" x="100.5" y="-451.5" font-family="Malgun Gothic" font-size="10.00">Cmd_AltitudeDown()</text>
<text text-anchor="start" x="87.5" y="-436.5" font-family="Malgun Gothic" font-size="10.00">+</text>
<text text-anchor="start" x="100.5" y="-436.5" font-family="Malgun Gothic" font-size="10.00">Cmd_AltitudeReleased()</text>
<text text-anchor="start" x="87.5" y="-421.5" font-family="Malgun Gothic" font-size="10.00">+</text>
<text text-anchor="start" x="100.5" y="-421.5" font-family="Malgun Gothic" font-size="10.00">Cmd_AltitudeUp()</text>
<text text-anchor="start" x="87.5" y="-406.5" font-family="Malgun Gothic" font-size="10.00">+</text>
<text text-anchor="start" x="100.5" y="-406.5" font-family="Malgun Gothic" font-size="10.00">Cmd_Jump()</text>
<text text-anchor="start" x="87.5" y="-391.5" font-family="Malgun Gothic" font-size="10.00">+</text>
<text text-anchor="start" x="100.5" y="-391.5" font-family="Malgun Gothic" font-size="10.00">Cmd_Landing()</text>
<text text-anchor="start" x="87.5" y="-376.5" font-family="Malgun Gothic" font-size="10.00">+</text>
<text text-anchor="start" x="100.5" y="-376.5" font-family="Malgun Gothic" font-size="10.00">Cmd_Look()</text>
<text text-anchor="start" x="87.5" y="-361.5" font-family="Malgun Gothic" font-size="10.00">+</text>
<text text-anchor="start" x="100.5" y="-361.5" font-family="Malgun Gothic" font-size="10.00">Cmd_Move()</text>
<polygon fill="#666666" stroke="#666666" points="83.5,-476.5 83.5,-476.5 223.5,-476.5 223.5,-476.5 83.5,-476.5"/>
<polygon fill="#666666" stroke="#666666" points="83.5,-461.5 83.5,-461.5 223.5,-461.5 223.5,-461.5 83.5,-461.5"/>
<polygon fill="none" stroke="#666666" points="83.5,-355 83.5,-494 223.5,-494 223.5,-355 83.5,-355"/>
</a>
</g>
</g>
<!-- Node3&#45;&gt;Node1 -->
<g id="edge2_Node000001_Node000003" class="edge">
<title>Node3&#45;&gt;Node1</title>
<g id="a_edge2_Node000001_Node000003"><a xlink:title=" ">
<path fill="none" stroke="#63b8ff" d="M135.24,-344.79C133.32,-336.48 131.31,-327.83 129.27,-319.02"/>
<polygon fill="none" stroke="#63b8ff" points="131.88,-345.79 137.55,-354.74 138.7,-344.21 131.88,-345.79"/>
</a>
</g>
</g>
</g>
</svg>
