<?xml version="1.0" encoding="UTF-8" standalone="no"?>
<!DOCTYPE svg PUBLIC "-//W3C//DTD SVG 1.1//EN"
 "http://www.w3.org/Graphics/SVG/1.1/DTD/svg11.dtd">
<!-- Generated by graphviz version 2.43.0 (0)
 -->
<!-- Title: FHttpMultipartFormData::SetupHttpRequest Pages: 1 -->
<svg width="488pt" height="38pt"
 viewBox="0.00 0.00 488.00 38.00" xmlns="http://www.w3.org/2000/svg" xmlns:xlink="http://www.w3.org/1999/xlink">
<g id="graph0" class="graph" transform="scale(1 1) rotate(0) translate(4 34)">
<title>FHttpMultipartFormData::SetupHttpRequest</title>
<!-- Node1 -->
<g id="Node000001" class="node">
<title>Node1</title>
<g id="a_Node000001"><a xlink:title="HTTP 요청에 Content&#45;Type 헤더와 본문을 설정합니다.">
<polygon fill="#999999" stroke="#666666" points="136,-30 0,-30 0,0 136,0 136,-30"/>
<text text-anchor="start" x="8" y="-18" font-family="Malgun Gothic" font-size="10.00">FHttpMultipartFormData</text>
<text text-anchor="middle" x="68" y="-7" font-family="Malgun Gothic" font-size="10.00">::SetupHttpRequest</text>
</a>
</g>
</g>
<!-- Node2 -->
<g id="Node000002" class="node">
<title>Node2</title>
<g id="a_Node000002"><a xlink:href="classFHttpMultipartFormData.html#a625dacf8abb09a68d89736334af2e273" target="_top" xlink:title="등록된 파트를 기반으로 HTTP 본문을 구성합니다.">
<polygon fill="white" stroke="#666666" points="308,-30 172,-30 172,0 308,0 308,-30"/>
<text text-anchor="start" x="180" y="-18" font-family="Malgun Gothic" font-size="10.00">FHttpMultipartFormData</text>
<text text-anchor="middle" x="240" y="-7" font-family="Malgun Gothic" font-size="10.00">::BuildBody</text>
</a>
</g>
</g>
<!-- Node1&#45;&gt;Node2 -->
<g id="edge1_Node000001_Node000002" class="edge">
<title>Node1&#45;&gt;Node2</title>
<g id="a_edge1_Node000001_Node000002"><a xlink:title=" ">
<path fill="none" stroke="#63b8ff" d="M136.19,-15C144.5,-15 153.05,-15 161.51,-15"/>
<polygon fill="#63b8ff" stroke="#63b8ff" points="161.74,-18.5 171.74,-15 161.74,-11.5 161.74,-18.5"/>
</a>
</g>
</g>
<!-- Node3 -->
<g id="Node000003" class="node">
<title>Node3</title>
<g id="a_Node000003"><a xlink:href="classFHttpMultipartFormData.html#a45725b7f05bae49e0c6db3d24c6342ee" target="_top" xlink:title="문자열을 UTF&#45;8로 변환해 버퍼에 추가합니다.">
<polygon fill="white" stroke="#666666" points="480,-30 344,-30 344,0 480,0 480,-30"/>
<text text-anchor="start" x="352" y="-18" font-family="Malgun Gothic" font-size="10.00">FHttpMultipartFormData</text>
<text text-anchor="middle" x="412" y="-7" font-family="Malgun Gothic" font-size="10.00">::AppendUtf8</text>
</a>
</g>
</g>
<!-- Node2&#45;&gt;Node3 -->
<g id="edge2_Node000002_Node000003" class="edge">
<title>Node2&#45;&gt;Node3</title>
<g id="a_edge2_Node000002_Node000003"><a xlink:title=" ">
<path fill="none" stroke="#63b8ff" d="M308.19,-15C316.5,-15 325.05,-15 333.51,-15"/>
<polygon fill="#63b8ff" stroke="#63b8ff" points="333.74,-18.5 343.74,-15 333.74,-11.5 333.74,-18.5"/>
</a>
</g>
</g>
</g>
</svg>
