<?xml version="1.0" encoding="UTF-8" standalone="no"?>
<!DOCTYPE svg PUBLIC "-//W3C//DTD SVG 1.1//EN"
 "http://www.w3.org/Graphics/SVG/1.1/DTD/svg11.dtd">
<!-- Generated by graphviz version 2.43.0 (0)
 -->
<!-- Title: APlayerActor Pages: 1 -->
<!--zoomable 502 -->

<svg id="main" version="1.1" xmlns="http://www.w3.org/2000/svg" xmlns:xlink="http://www.w3.org/1999/xlink" xml:space="preserve" onload="init(evt)">
<style type="text/css"><![CDATA[
.node, .edge {opacity: 0.7;}
.node.selected, .edge.selected {opacity: 1;}
.edge:hover path { stroke: red; }
.edge:hover polygon { stroke: red; fill: red; }
]]></style>

<defs>
  <circle id="rim" cx="0" cy="0" r="7"/>
  <circle id="rim2" cx="0" cy="0" r="3.5"/>
  <g id="zoomPlus">
    <use xlink:href="#rim" fill="#404040"><set attributeName="fill" to="#808080" begin="zoomplus.mouseover" end="zoomplus.mouseout"/></use>
    <path d="M-4,0h8M0,-4v8" fill="none" stroke="white" stroke-width="1.5" pointer-events="none"/>
  </g>
  <g id="zoomMin">
    <use xlink:href="#rim" fill="#404040"><set attributeName="fill" to="#808080" begin="zoomminus.mouseover" end="zoomminus.mouseout"/></use>
    <path d="M-4,0h8" fill="none" stroke="white" stroke-width="1.5" pointer-events="none"/>
  </g>
  <g id="arrowUp" transform="translate(30 24)">
    <use xlink:href="#rim"/>
    <path pointer-events="none" fill="none" stroke="white" stroke-width="1.5" d="M0,-3.0v7 M-2.5,-0.5L0,-3.0L2.5,-0.5"/>
  </g>
  <g id="arrowRight" transform="rotate(90) translate(36 -43)">
    <use xlink:href="#rim"/>
    <path pointer-events="none" fill="none" stroke="white" stroke-width="1.5" d="M0,-3.0v7 M-2.5,-0.5L0,-3.0L2.5,-0.5"/>
  </g>
  <g id="arrowDown" transform="rotate(180) translate(-30 -48)">
    <use xlink:href="#rim"/>
    <path pointer-events="none" fill="none" stroke="white" stroke-width="1.5" d="M0,-3.0v7 M-2.5,-0.5L0,-3.0L2.5,-0.5"/>
  </g>
  <g id="arrowLeft" transform="rotate(270) translate(-36 17)">
    <use xlink:href="#rim"/>
    <path pointer-events="none" fill="none" stroke="white" stroke-width="1.5" d="M0,-3.0v7 M-2.5,-0.5L0,-3.0L2.5,-0.5"/>
  </g>
  <g id="resetDef">
    <use xlink:href="#rim2" fill="#404040"><set attributeName="fill" to="#808080" begin="reset.mouseover" end="reset.mouseout"/></use>
  </g>
</defs>
<script type="application/ecmascript">
var viewWidth = 232;
var viewHeight = 502;
var sectionId = 'dynsection-0';
</script>
<script type="application/ecmascript" xlink:href="svg.min.js"/>
<svg id="graph" class="graph">
<g id="viewport">
<title>APlayerActor</title>
<!-- Node1 -->
<g id="Node000001" class="node">
<title>Node1</title>
<g id="a_Node000001"><a xlink:title="Main character driven directly by the player.">
<polygon fill="#999999" stroke="transparent" points="177,-319 8,-319 8,0 177,0 177,-319"/>
<text text-anchor="start" x="61" y="-306.5" font-family="Malgun Gothic" font-size="10.00">APlayerActor</text>
<text text-anchor="start" x="12.5" y="-291.5" font-family="Malgun Gothic" font-size="10.00">+</text>
<text text-anchor="start" x="25.5" y="-291.5" font-family="Malgun Gothic" font-size="10.00">FlySystem</text>
<text text-anchor="start" x="12.5" y="-276.5" font-family="Malgun Gothic" font-size="10.00">#</text>
<text text-anchor="start" x="25.5" y="-276.5" font-family="Malgun Gothic" font-size="10.00">FollowCamera</text>
<text text-anchor="start" x="12.5" y="-261.5" font-family="Malgun Gothic" font-size="10.00">#</text>
<text text-anchor="start" x="25.5" y="-261.5" font-family="Malgun Gothic" font-size="10.00">MoveComp</text>
<text text-anchor="start" x="12.5" y="-246.5" font-family="Malgun Gothic" font-size="10.00">#</text>
<text text-anchor="start" x="25.5" y="-246.5" font-family="Malgun Gothic" font-size="10.00">PrevMoveMode</text>
<text text-anchor="start" x="12.5" y="-231.5" font-family="Malgun Gothic" font-size="10.00">#</text>
<text text-anchor="start" x="25.5" y="-231.5" font-family="Malgun Gothic" font-size="10.00">SpringArmComp</text>
<text text-anchor="start" x="12.5" y="-216.5" font-family="Malgun Gothic" font-size="10.00">+</text>
<text text-anchor="start" x="25.5" y="-216.5" font-family="Malgun Gothic" font-size="10.00">APlayerActor()</text>
<text text-anchor="start" x="12.5" y="-201.5" font-family="Malgun Gothic" font-size="10.00">+</text>
<text text-anchor="start" x="25.5" y="-201.5" font-family="Malgun Gothic" font-size="10.00">Cmd_AltitudeDown()</text>
<text text-anchor="start" x="12.5" y="-186.5" font-family="Malgun Gothic" font-size="10.00">+</text>
<text text-anchor="start" x="25.5" y="-186.5" font-family="Malgun Gothic" font-size="10.00">Cmd_AltitudeReleased()</text>
<text text-anchor="start" x="12.5" y="-171.5" font-family="Malgun Gothic" font-size="10.00">+</text>
<text text-anchor="start" x="25.5" y="-171.5" font-family="Malgun Gothic" font-size="10.00">Cmd_AltitudeUp()</text>
<text text-anchor="start" x="12.5" y="-156.5" font-family="Malgun Gothic" font-size="10.00">+</text>
<text text-anchor="start" x="25.5" y="-156.5" font-family="Malgun Gothic" font-size="10.00">Cmd_Jump()</text>
<text text-anchor="start" x="12.5" y="-141.5" font-family="Malgun Gothic" font-size="10.00">+</text>
<text text-anchor="start" x="25.5" y="-141.5" font-family="Malgun Gothic" font-size="10.00">Cmd_Landing()</text>
<text text-anchor="start" x="12.5" y="-126.5" font-family="Malgun Gothic" font-size="10.00">+</text>
<text text-anchor="start" x="25.5" y="-126.5" font-family="Malgun Gothic" font-size="10.00">Cmd_Look()</text>
<text text-anchor="start" x="12.5" y="-111.5" font-family="Malgun Gothic" font-size="10.00">+</text>
<text text-anchor="start" x="25.5" y="-111.5" font-family="Malgun Gothic" font-size="10.00">Cmd_Move()</text>
<text text-anchor="start" x="12.5" y="-96.5" font-family="Malgun Gothic" font-size="10.00">+</text>
<text text-anchor="start" x="25.5" y="-96.5" font-family="Malgun Gothic" font-size="10.00">Landed()</text>
<text text-anchor="start" x="12.5" y="-81.5" font-family="Malgun Gothic" font-size="10.00">+</text>
<text text-anchor="start" x="25.5" y="-81.5" font-family="Malgun Gothic" font-size="10.00">OnFlyEnd()</text>
<text text-anchor="start" x="12.5" y="-66.5" font-family="Malgun Gothic" font-size="10.00">+</text>
<text text-anchor="start" x="25.5" y="-66.5" font-family="Malgun Gothic" font-size="10.00">RecoveryMovementMode()</text>
<text text-anchor="start" x="12.5" y="-51.5" font-family="Malgun Gothic" font-size="10.00">+</text>
<text text-anchor="start" x="25.5" y="-51.5" font-family="Malgun Gothic" font-size="10.00">SetFallingToWalk()</text>
<text text-anchor="start" x="12.5" y="-36.5" font-family="Malgun Gothic" font-size="10.00">+</text>
<text text-anchor="start" x="25.5" y="-36.5" font-family="Malgun Gothic" font-size="10.00">SetFlying()</text>
<text text-anchor="start" x="12.5" y="-21.5" font-family="Malgun Gothic" font-size="10.00">#</text>
<text text-anchor="start" x="25.5" y="-21.5" font-family="Malgun Gothic" font-size="10.00">BeginPlay()</text>
<text text-anchor="start" x="12.5" y="-6.5" font-family="Malgun Gothic" font-size="10.00">#</text>
<text text-anchor="start" x="25.5" y="-6.5" font-family="Malgun Gothic" font-size="10.00">SetupPlayerInputComponent()</text>
<polygon fill="#666666" stroke="#666666" points="8.5,-301.5 8.5,-301.5 177.5,-301.5 177.5,-301.5 8.5,-301.5"/>
<polygon fill="#666666" stroke="#666666" points="8.5,-226.5 8.5,-226.5 23.5,-226.5 23.5,-226.5 8.5,-226.5"/>
<polygon fill="#666666" stroke="#666666" points="23.5,-226.5 23.5,-226.5 177.5,-226.5 177.5,-226.5 23.5,-226.5"/>
<polygon fill="none" stroke="#666666" points="8,0 8,-319 177,-319 177,0 8,0"/>
</a>
</g>
</g>
<!-- Node2 -->
<g id="Node000002" class="node">
<title>Node2</title>
<g id="a_Node000002"><a xlink:title=" ">
<polygon fill="white" stroke="transparent" points="65,-449 0,-449 0,-400 65,-400 65,-449"/>
<text text-anchor="start" x="5.5" y="-436.5" font-family="Malgun Gothic" font-size="10.00">ACharacter</text>
<text text-anchor="start" x="31" y="-421.5" font-family="Malgun Gothic" font-size="10.00"> </text>
<text text-anchor="start" x="31" y="-406.5" font-family="Malgun Gothic" font-size="10.00"> </text>
<polygon fill="#666666" stroke="#666666" points="0.5,-431.5 0.5,-431.5 65.5,-431.5 65.5,-431.5 0.5,-431.5"/>
<polygon fill="#666666" stroke="#666666" points="0.5,-416.5 0.5,-416.5 65.5,-416.5 65.5,-416.5 0.5,-416.5"/>
<polygon fill="none" stroke="#666666" points="0,-400 0,-449 65,-449 65,-400 0,-400"/>
</a>
</g>
</g>
<!-- Node2&#45;&gt;Node1 -->
<g id="edge1_Node000001_Node000002" class="edge">
<title>Node2&#45;&gt;Node1</title>
<g id="a_edge1_Node000001_Node000002"><a xlink:title=" ">
<path fill="none" stroke="#63b8ff" d="M40.17,-389.87C44.48,-370.98 50.21,-345.89 56.29,-319.23"/>
<polygon fill="none" stroke="#63b8ff" points="36.74,-389.17 37.93,-399.7 43.57,-390.73 36.74,-389.17"/>
</a>
</g>
</g>
<!-- Node3 -->
<g id="Node000003" class="node">
<title>Node3</title>
<g id="a_Node000003"><a xlink:href="classIControllable.html" target="_top" xlink:title=" ">
<polygon fill="white" stroke="transparent" points="223.5,-494 83.5,-494 83.5,-355 223.5,-355 223.5,-494"/>
<text text-anchor="start" x="122" y="-481.5" font-family="Malgun Gothic" font-size="10.00">IControllable</text>
<text text-anchor="start" x="151.5" y="-466.5" font-family="Malgun Gothic" font-size="10.00"> </text>
<text text-anchor="start" x="87.5" y="-451.5" font-family="Malgun Gothic" font-size="10.00">+</text>
<text text-anchor="start" x="100.5" y="-451.5" font-family="Malgun Gothic" font-size="10.00">Cmd_AltitudeDown()</text>
<text text-anchor="start" x="87.5" y="-436.5" font-family="Malgun Gothic" font-size="10.00">+</text>
<text text-anchor="start" x="100.5" y="-436.5" font-family="Malgun Gothic" font-size="10.00">Cmd_AltitudeReleased()</text>
<text text-anchor="start" x="87.5" y="-421.5" font-family="Malgun Gothic" font-size="10.00">+</text>
<text text-anchor="start" x="100.5" y="-421.5" font-family="Malgun Gothic" font-size="10.00">Cmd_AltitudeUp()</text>
<text text-anchor="start" x="87.5" y="-406.5" font-family="Malgun Gothic" font-size="10.00">+</text>
<text text-anchor="start" x="100.5" y="-406.5" font-family="Malgun Gothic" font-size="10.00">Cmd_Jump()</text>
<text text-anchor="start" x="87.5" y="-391.5" font-family="Malgun Gothic" font-size="10.00">+</text>
<text text-anchor="start" x="100.5" y="-391.5" font-family="Malgun Gothic" font-size="10.00">Cmd_Landing()</text>
<text text-anchor="start" x="87.5" y="-376.5" font-family="Malgun Gothic" font-size="10.00">+</text>
<text text-anchor="start" x="100.5" y="-376.5" font-family="Malgun Gothic" font-size="10.00">Cmd_Look()</text>
<text text-anchor="start" x="87.5" y="-361.5" font-family="Malgun Gothic" font-size="10.00">+</text>
<text text-anchor="start" x="100.5" y="-361.5" font-family="Malgun Gothic" font-size="10.00">Cmd_Move()</text>
<polygon fill="#666666" stroke="#666666" points="83.5,-476.5 83.5,-476.5 223.5,-476.5 223.5,-476.5 83.5,-476.5"/>
<polygon fill="#666666" stroke="#666666" points="83.5,-461.5 83.5,-461.5 223.5,-461.5 223.5,-461.5 83.5,-461.5"/>
<polygon fill="none" stroke="#666666" points="83.5,-355 83.5,-494 223.5,-494 223.5,-355 83.5,-355"/>
</a>
</g>
</g>
<!-- Node3&#45;&gt;Node1 -->
<g id="edge2_Node000001_Node000003" class="edge">
<title>Node3&#45;&gt;Node1</title>
<g id="a_edge2_Node000001_Node000003"><a xlink:title=" ">
<path fill="none" stroke="#63b8ff" d="M135.24,-344.79C133.32,-336.48 131.31,-327.83 129.27,-319.02"/>
<polygon fill="none" stroke="#63b8ff" points="131.88,-345.79 137.55,-354.74 138.7,-344.21 131.88,-345.79"/>
</a>
</g>
</g>
</g>
</svg>

<g id="navigator" transform="translate(0 0)" fill="#404254">
  <rect fill="#f2f5e9" fill-opacity="0.5" stroke="#606060" stroke-width=".5" x="0" y="0" width="60" height="60"/>
  <use id="zoomplus" xlink:href="#zoomPlus" x="17" y="9" onmousedown="handleZoom(evt,'in')"/>
  <use id="zoomminus" xlink:href="#zoomMin" x="42" y="9" onmousedown="handleZoom(evt,'out')"/>
  <use id="reset" xlink:href="#resetDef" x="30" y="36" onmousedown="handleReset()"/>
   <use id="arrowup" xlink:href="#arrowUp" x="0" y="0" onmousedown="handlePan(0,-1)"/>
  <use id="arrowright" xlink:href="#arrowRight" x="0" y="0" onmousedown="handlePan(1,0)"/>
  <use id="arrowdown" xlink:href="#arrowDown" x="0" y="0" onmousedown="handlePan(0,1)"/>
  <use id="arrowleft" xlink:href="#arrowLeft" x="0" y="0" onmousedown="handlePan(-1,0)"/>
</g>
<svg viewBox="0 0 15 15" width="100%" height="30px" preserveAspectRatio="xMaxYMin meet">
 <g id="arrow_out" transform="scale(0.3 0.3)">
  <a xlink:href="classAPlayerActor__inherit__graph_org.svg" target="_base">
   <rect id="button" ry="5" rx="5" y="6" x="6" height="38" width="38"
        fill="#f2f5e9" fill-opacity="0.5" stroke="#606060" stroke-width="1.0"/>
   <path id="arrow"
     d="M 11.500037,31.436501 C 11.940474,20.09759 22.043105,11.32322 32.158766,21.979434 L 37.068811,17.246167 C 37.068811,17.246167 37.088388,32 37.088388,32 L 22.160133,31.978069 C 22.160133,31.978069 26.997745,27.140456 26.997745,27.140456 C 18.528582,18.264221 13.291696,25.230495 11.500037,31.436501 z"
     style="fill:#404040;"/>
  </a>
 </g>
</svg>

<style type='text/css'>
<![CDATA[
[data-mouse-over-selected='false'] { opacity: 0.7; }
[data-mouse-over-selected='true']  { opacity: 1.0; }
]]>
</style>
<script type="application/ecmascript"><![CDATA[
document.addEventListener('DOMContentLoaded', (event) => {
  highlightEdges();
  highlightAdjacentNodes();
});
]]></script>
</svg>
