<?xml version="1.0" encoding="UTF-8" standalone="no"?>
<!DOCTYPE svg PUBLIC "-//W3C//DTD SVG 1.1//EN"
 "http://www.w3.org/Graphics/SVG/1.1/DTD/svg11.dtd">
<!-- Generated by graphviz version 2.43.0 (0)
 -->
<!-- Title: UStateWidget::OnNetworkWaitCount Pages: 1 -->
<svg width="554pt" height="38pt"
 viewBox="0.00 0.00 554.00 38.00" xmlns="http://www.w3.org/2000/svg" xmlns:xlink="http://www.w3.org/1999/xlink">
<g id="graph0" class="graph" transform="scale(1 1) rotate(0) translate(4 34)">
<title>UStateWidget::OnNetworkWaitCount</title>
<!-- Node1 -->
<g id="Node000001" class="node">
<title>Node1</title>
<g id="a_Node000001"><a xlink:title=" ">
<polygon fill="#999999" stroke="#666666" points="546,-30 379,-30 379,0 546,0 546,-30"/>
<text text-anchor="start" x="387" y="-18" font-family="Malgun Gothic" font-size="10.00">UStateWidget::OnNetworkWait</text>
<text text-anchor="middle" x="462.5" y="-7" font-family="Malgun Gothic" font-size="10.00">Count</text>
</a>
</g>
</g>
<!-- Node2 -->
<g id="Node000002" class="node">
<title>Node2</title>
<g id="a_Node000002"><a xlink:href="classUStateWidget.html#a7b98cd0b23c91b6039ef92df2e3b7590" target="_top" xlink:title=" ">
<polygon fill="white" stroke="#666666" points="343,-24.5 203,-24.5 203,-5.5 343,-5.5 343,-24.5"/>
<text text-anchor="middle" x="273" y="-12.5" font-family="Malgun Gothic" font-size="10.00">UStateWidget::InitWidget</text>
</a>
</g>
</g>
<!-- Node1&#45;&gt;Node2 -->
<g id="edge1_Node000001_Node000002" class="edge">
<title>Node1&#45;&gt;Node2</title>
<g id="a_edge1_Node000001_Node000002"><a xlink:title=" ">
<path fill="none" stroke="#63b8ff" d="M368.83,-15C360.16,-15 351.48,-15 343.08,-15"/>
<polygon fill="#63b8ff" stroke="#63b8ff" points="368.99,-18.5 378.99,-15 368.99,-11.5 368.99,-18.5"/>
</a>
</g>
</g>
<!-- Node3 -->
<g id="Node000003" class="node">
<title>Node3</title>
<g id="a_Node000003"><a xlink:href="classUMainWidget.html#ab5b82b602efb97c7b4cd7a3c2d99d6e8" target="_top" xlink:title="위젯 초기화">
<polygon fill="white" stroke="#666666" points="167,-24.5 0,-24.5 0,-5.5 167,-5.5 167,-24.5"/>
<text text-anchor="middle" x="83.5" y="-12.5" font-family="Malgun Gothic" font-size="10.00">UMainWidget::NativeConstruct</text>
</a>
</g>
</g>
<!-- Node2&#45;&gt;Node3 -->
<g id="edge2_Node000002_Node000003" class="edge">
<title>Node2&#45;&gt;Node3</title>
<g id="a_edge2_Node000002_Node000003"><a xlink:title=" ">
<path fill="none" stroke="#63b8ff" d="M192.72,-15C184.23,-15 175.57,-15 167.04,-15"/>
<polygon fill="#63b8ff" stroke="#63b8ff" points="192.98,-18.5 202.98,-15 192.98,-11.5 192.98,-18.5"/>
</a>
</g>
</g>
</g>
</svg>
