<?xml version="1.0" encoding="UTF-8" standalone="no"?>
<!DOCTYPE svg PUBLIC "-//W3C//DTD SVG 1.1//EN"
 "http://www.w3.org/Graphics/SVG/1.1/DTD/svg11.dtd">
<!-- Generated by graphviz version 2.43.0 (0)
 -->
<!-- Title: Source/Onepiece/MessageBox Pages: 1 -->
<svg width="532pt" height="196pt"
 viewBox="0.00 0.00 532.00 196.00" xmlns="http://www.w3.org/2000/svg" xmlns:xlink="http://www.w3.org/1999/xlink">
<g id="graph0" class="graph" transform="scale(1 1) rotate(0) translate(4 192)">
<title>Source/Onepiece/MessageBox</title>
<g id="clust1" class="cluster">
<title>clusterdir_86991fbdc3ffccad5ecdd4bba46f6ea3</title>
<g id="a_clust1"><a xlink:href="dir_86991fbdc3ffccad5ecdd4bba46f6ea3.html" target="_top" xlink:title="Onepiece">
<polygon fill="#edf0f7" stroke="#7f7f7f" stroke-dasharray="5,2" points="8,-8 8,-180 432,-180 432,-8 8,-8"/>
<text text-anchor="middle" x="220" y="-168" font-family="Malgun Gothic" font-size="10.00">Onepiece</text>
</a>
</g>
</g>
<g id="clust2" class="cluster">
<title>clusterdir_47ae9c23f27029060c39af29b069b73d</title>
<g id="a_clust2"><a xlink:href="dir_47ae9c23f27029060c39af29b069b73d.html" target="_top">
<polygon fill="#edf0f7" stroke="#404040" stroke-width="2" points="158,-63 158,-153 322,-153 322,-63 158,-63"/>
</a>
</g>
</g>
<!-- dir_b6750dbdff08df84555f1c91e851278f -->
<g id="node1" class="node">
<title>dir_b6750dbdff08df84555f1c91e851278f</title>
<g id="a_node1"><a xlink:href="dir_b6750dbdff08df84555f1c91e851278f.html" target="_top" xlink:title="WidgetComponents">
<polygon fill="#a2b4d6" stroke="red" points="149.5,-90 36.5,-90 36.5,-71 149.5,-71 149.5,-90"/>
<text text-anchor="middle" x="93" y="-78" font-family="Malgun Gothic" font-size="10.00">WidgetComponents</text>
</a>
</g>
</g>
<!-- dir_db6231b890a14ef22abfc7e4cac87d3d -->
<g id="node2" class="node">
<title>dir_db6231b890a14ef22abfc7e4cac87d3d</title>
<g id="a_node2"><a xlink:href="dir_db6231b890a14ef22abfc7e4cac87d3d.html" target="_top" xlink:title="Network">
<polygon fill="#a2b4d6" stroke="red" points="147,-35 89,-35 89,-16 147,-16 147,-35"/>
<text text-anchor="middle" x="118" y="-23" font-family="Malgun Gothic" font-size="10.00">Network</text>
</a>
</g>
</g>
<!-- dir_7fb5e64dcba5cad56d11a2ce531d1e7a -->
<g id="node3" class="node">
<title>dir_7fb5e64dcba5cad56d11a2ce531d1e7a</title>
<g id="a_node3"><a xlink:href="dir_7fb5e64dcba5cad56d11a2ce531d1e7a.html" target="_top" xlink:title="Game">
<polygon fill="#a2b4d6" stroke="red" points="376,-90 330,-90 330,-71 376,-71 376,-90"/>
<text text-anchor="middle" x="353" y="-78" font-family="Malgun Gothic" font-size="10.00">Game</text>
</a>
</g>
</g>
<!-- dir_55b064ed9f704d76d3805f2fda876350 -->
<g id="node4" class="node">
<title>dir_55b064ed9f704d76d3805f2fda876350</title>
<g id="a_node4"><a xlink:href="dir_55b064ed9f704d76d3805f2fda876350.html" target="_top" xlink:title="UI">
<polygon fill="#a2b4d6" stroke="red" points="423.5,-90 394.5,-90 394.5,-71 423.5,-71 423.5,-90"/>
<text text-anchor="middle" x="409" y="-78" font-family="Malgun Gothic" font-size="10.00">UI</text>
</a>
</g>
</g>
<!-- dir_47ae9c23f27029060c39af29b069b73d -->
<g id="node5" class="node">
<title>dir_47ae9c23f27029060c39af29b069b73d</title>
<text text-anchor="middle" x="275" y="-133" font-family="Malgun Gothic" font-size="10.00">MessageBox</text>
</g>
<!-- dir_2a20a70930e57e30643dc72759837dc0 -->
<g id="node6" class="node">
<title>dir_2a20a70930e57e30643dc72759837dc0</title>
<g id="a_node6"><a xlink:href="dir_2a20a70930e57e30643dc72759837dc0.html" target="_top" xlink:title="Private">
<polygon fill="#a2b4d6" stroke="#404040" points="217.5,-145 166.5,-145 166.5,-126 217.5,-126 217.5,-145"/>
<text text-anchor="middle" x="192" y="-133" font-family="Malgun Gothic" font-size="10.00">Private</text>
</a>
</g>
</g>
<!-- dir_2a20a70930e57e30643dc72759837dc0&#45;&gt;dir_b6750dbdff08df84555f1c91e851278f -->
<g id="edge5" class="edge">
<title>dir_2a20a70930e57e30643dc72759837dc0&#45;&gt;dir_b6750dbdff08df84555f1c91e851278f</title>
<g id="a_edge5"><a xlink:href="dir_000024_000051.html" target="_top">
<path fill="none" stroke="#63b8ff" d="M176.09,-125.98C160.45,-117.61 136.34,-104.7 118.12,-94.95"/>
<polygon fill="#63b8ff" stroke="#63b8ff" points="119.66,-91.8 109.2,-90.17 116.36,-97.98 119.66,-91.8"/>
</a>
</g>
<g id="a_edge5&#45;headlabel"><a xlink:href="dir_000024_000051.html" target="_top" xlink:title="6">
<text text-anchor="middle" x="124.17" y="-88.5" font-family="Malgun Gothic" font-size="10.00" fill="#63b8ff">6</text>
</a>
</g>
</g>
<!-- dir_2a20a70930e57e30643dc72759837dc0&#45;&gt;dir_db6231b890a14ef22abfc7e4cac87d3d -->
<g id="edge6" class="edge">
<title>dir_2a20a70930e57e30643dc72759837dc0&#45;&gt;dir_db6231b890a14ef22abfc7e4cac87d3d</title>
<g id="a_edge6"><a xlink:href="dir_000024_000012.html" target="_top">
<path fill="none" stroke="#63b8ff" d="M166.33,-131.32C124.54,-125.56 44.76,-111.91 28,-90 20.71,-80.47 21.3,-72.95 28,-63 39.42,-46.05 60.2,-36.97 78.92,-32.1"/>
<polygon fill="#63b8ff" stroke="#63b8ff" points="79.77,-35.5 88.75,-29.87 78.22,-28.67 79.77,-35.5"/>
</a>
</g>
<g id="a_edge6&#45;headlabel"><a xlink:href="dir_000024_000012.html" target="_top" xlink:title="1">
<text text-anchor="middle" x="76.9" y="-36.56" font-family="Malgun Gothic" font-size="10.00" fill="#63b8ff">1</text>
</a>
</g>
</g>
<!-- dir_2a20a70930e57e30643dc72759837dc0&#45;&gt;dir_7fb5e64dcba5cad56d11a2ce531d1e7a -->
<g id="edge4" class="edge">
<title>dir_2a20a70930e57e30643dc72759837dc0&#45;&gt;dir_7fb5e64dcba5cad56d11a2ce531d1e7a</title>
<g id="a_edge4"><a xlink:href="dir_000024_000007.html" target="_top">
<path fill="none" stroke="#63b8ff" d="M217.51,-126.1C245.31,-116.95 289.88,-102.28 320.25,-92.28"/>
<polygon fill="#63b8ff" stroke="#63b8ff" points="321.55,-95.54 329.96,-89.09 319.36,-88.89 321.55,-95.54"/>
</a>
</g>
<g id="a_edge4&#45;headlabel"><a xlink:href="dir_000024_000007.html" target="_top" xlink:title="3">
<text text-anchor="middle" x="319.03" y="-96.86" font-family="Malgun Gothic" font-size="10.00" fill="#63b8ff">3</text>
</a>
</g>
</g>
<!-- dir_2a20a70930e57e30643dc72759837dc0&#45;&gt;dir_55b064ed9f704d76d3805f2fda876350 -->
<g id="edge3" class="edge">
<title>dir_2a20a70930e57e30643dc72759837dc0&#45;&gt;dir_55b064ed9f704d76d3805f2fda876350</title>
<g id="a_edge3"><a xlink:href="dir_000024_000049.html" target="_top">
<path fill="none" stroke="#63b8ff" d="M217.6,-128.24C220.77,-127.48 223.96,-126.72 227,-126 294.09,-110.21 314.12,-110.04 384.56,-89.83"/>
<polygon fill="#63b8ff" stroke="#63b8ff" points="385.74,-93.14 394.36,-86.99 383.79,-86.41 385.74,-93.14"/>
</a>
</g>
<g id="a_edge3&#45;headlabel"><a xlink:href="dir_000024_000049.html" target="_top" xlink:title="1">
<text text-anchor="middle" x="383.08" y="-94.37" font-family="Malgun Gothic" font-size="10.00" fill="#63b8ff">1</text>
</a>
</g>
</g>
<!-- dir_244820c19557decdcbf6fc4000b77b7e -->
<g id="node7" class="node">
<title>dir_244820c19557decdcbf6fc4000b77b7e</title>
<g id="a_node7"><a xlink:href="dir_244820c19557decdcbf6fc4000b77b7e.html" target="_top" xlink:title="Public">
<polygon fill="#a2b4d6" stroke="#404040" points="215,-90 169,-90 169,-71 215,-71 215,-90"/>
<text text-anchor="middle" x="192" y="-78" font-family="Malgun Gothic" font-size="10.00">Public</text>
</a>
</g>
</g>
<!-- dir_2a20a70930e57e30643dc72759837dc0&#45;&gt;dir_244820c19557decdcbf6fc4000b77b7e -->
<g id="edge2" class="edge">
<title>dir_2a20a70930e57e30643dc72759837dc0&#45;&gt;dir_244820c19557decdcbf6fc4000b77b7e</title>
<g id="a_edge2"><a xlink:href="dir_000024_000041.html" target="_top">
<path fill="none" stroke="#63b8ff" d="M192,-125.75C192,-118.8 192,-108.85 192,-100.13"/>
<polygon fill="#63b8ff" stroke="#63b8ff" points="195.5,-100.09 192,-90.09 188.5,-100.09 195.5,-100.09"/>
</a>
</g>
<g id="a_edge2&#45;headlabel"><a xlink:href="dir_000024_000041.html" target="_top" xlink:title="12">
<text text-anchor="middle" x="198.34" y="-101.18" font-family="Malgun Gothic" font-size="10.00" fill="#63b8ff">12</text>
</a>
</g>
</g>
<!-- dir_2270f6753238979635db772f09123181 -->
<g id="node8" class="node">
<title>dir_2270f6753238979635db772f09123181</title>
<g id="a_node8"><a xlink:href="dir_2270f6753238979635db772f09123181.html" target="_top" xlink:title="CoffeeLibrary">
<polygon fill="#edf0f7" stroke="red" stroke-dasharray="5,2" points="524,-90 442,-90 442,-71 524,-71 524,-90"/>
<text text-anchor="middle" x="483" y="-78" font-family="Malgun Gothic" font-size="10.00">CoffeeLibrary</text>
</a>
</g>
</g>
<!-- dir_2a20a70930e57e30643dc72759837dc0&#45;&gt;dir_2270f6753238979635db772f09123181 -->
<g id="edge1" class="edge">
<title>dir_2a20a70930e57e30643dc72759837dc0&#45;&gt;dir_2270f6753238979635db772f09123181</title>
<g id="a_edge1"><a xlink:href="dir_000024_000003.html" target="_top">
<path fill="none" stroke="#63b8ff" d="M217.57,-128.08C220.74,-127.35 223.94,-126.63 227,-126 316.14,-107.52 341.47,-106.44 432.12,-90.67"/>
<polygon fill="#63b8ff" stroke="#63b8ff" points="432.75,-94.11 441.99,-88.94 431.54,-87.22 432.75,-94.11"/>
</a>
</g>
<g id="a_edge1&#45;headlabel"><a xlink:href="dir_000024_000003.html" target="_top" xlink:title="4">
<text text-anchor="middle" x="429.69" y="-95.03" font-family="Malgun Gothic" font-size="10.00" fill="#63b8ff">4</text>
</a>
</g>
</g>
<!-- dir_244820c19557decdcbf6fc4000b77b7e&#45;&gt;dir_db6231b890a14ef22abfc7e4cac87d3d -->
<g id="edge8" class="edge">
<title>dir_244820c19557decdcbf6fc4000b77b7e&#45;&gt;dir_db6231b890a14ef22abfc7e4cac87d3d</title>
<g id="a_edge8"><a xlink:href="dir_000041_000012.html" target="_top">
<path fill="none" stroke="#63b8ff" d="M180.11,-70.98C168.85,-62.92 151.71,-50.65 138.29,-41.03"/>
<polygon fill="#63b8ff" stroke="#63b8ff" points="140.27,-38.15 130.11,-35.17 136.2,-43.84 140.27,-38.15"/>
</a>
</g>
<g id="a_edge8&#45;headlabel"><a xlink:href="dir_000041_000012.html" target="_top" xlink:title="2">
<text text-anchor="middle" x="144.85" y="-35.43" font-family="Malgun Gothic" font-size="10.00" fill="#63b8ff">2</text>
</a>
</g>
</g>
<!-- dir_399370037b6f5ff6b0840148d18ec8d9 -->
<g id="node9" class="node">
<title>dir_399370037b6f5ff6b0840148d18ec8d9</title>
<g id="a_node9"><a xlink:href="dir_399370037b6f5ff6b0840148d18ec8d9.html" target="_top" xlink:title="LatteLibrary">
<polygon fill="#edf0f7" stroke="red" stroke-dasharray="5,2" points="514.5,-35 439.5,-35 439.5,-16 514.5,-16 514.5,-35"/>
<text text-anchor="middle" x="477" y="-23" font-family="Malgun Gothic" font-size="10.00">LatteLibrary</text>
</a>
</g>
</g>
<!-- dir_244820c19557decdcbf6fc4000b77b7e&#45;&gt;dir_399370037b6f5ff6b0840148d18ec8d9 -->
<g id="edge7" class="edge">
<title>dir_244820c19557decdcbf6fc4000b77b7e&#45;&gt;dir_399370037b6f5ff6b0840148d18ec8d9</title>
<g id="a_edge7"><a xlink:href="dir_000041_000009.html" target="_top">
<path fill="none" stroke="#63b8ff" d="M203.55,-70.96C208.14,-67.98 213.61,-64.9 219,-63 307.59,-31.82 338.02,-49.77 429.53,-35.98"/>
<polygon fill="#63b8ff" stroke="#63b8ff" points="430.16,-39.43 439.48,-34.4 429.06,-32.52 430.16,-39.43"/>
</a>
</g>
<g id="a_edge7&#45;headlabel"><a xlink:href="dir_000041_000009.html" target="_top" xlink:title="1">
<text text-anchor="middle" x="427.06" y="-40.3" font-family="Malgun Gothic" font-size="10.00" fill="#63b8ff">1</text>
</a>
</g>
</g>
</g>
</svg>
