<?xml version="1.0" encoding="UTF-8" standalone="no"?>
<!DOCTYPE svg PUBLIC "-//W3C//DTD SVG 1.1//EN"
 "http://www.w3.org/Graphics/SVG/1.1/DTD/svg11.dtd">
<!-- Generated by graphviz version 2.43.0 (0)
 -->
<!-- Title: Source/LatteLibrary/Data/Public/ECharacterType.h Pages: 1 -->
<!--zoomable 258 -->

<svg id="main" version="1.1" xmlns="http://www.w3.org/2000/svg" xmlns:xlink="http://www.w3.org/1999/xlink" xml:space="preserve" onload="init(evt)">
<style type="text/css"><![CDATA[
.node, .edge {opacity: 0.7;}
.node.selected, .edge.selected {opacity: 1;}
.edge:hover path { stroke: red; }
.edge:hover polygon { stroke: red; fill: red; }
]]></style>

<defs>
  <circle id="rim" cx="0" cy="0" r="7"/>
  <circle id="rim2" cx="0" cy="0" r="3.5"/>
  <g id="zoomPlus">
    <use xlink:href="#rim" fill="#404040"><set attributeName="fill" to="#808080" begin="zoomplus.mouseover" end="zoomplus.mouseout"/></use>
    <path d="M-4,0h8M0,-4v8" fill="none" stroke="white" stroke-width="1.5" pointer-events="none"/>
  </g>
  <g id="zoomMin">
    <use xlink:href="#rim" fill="#404040"><set attributeName="fill" to="#808080" begin="zoomminus.mouseover" end="zoomminus.mouseout"/></use>
    <path d="M-4,0h8" fill="none" stroke="white" stroke-width="1.5" pointer-events="none"/>
  </g>
  <g id="arrowUp" transform="translate(30 24)">
    <use xlink:href="#rim"/>
    <path pointer-events="none" fill="none" stroke="white" stroke-width="1.5" d="M0,-3.0v7 M-2.5,-0.5L0,-3.0L2.5,-0.5"/>
  </g>
  <g id="arrowRight" transform="rotate(90) translate(36 -43)">
    <use xlink:href="#rim"/>
    <path pointer-events="none" fill="none" stroke="white" stroke-width="1.5" d="M0,-3.0v7 M-2.5,-0.5L0,-3.0L2.5,-0.5"/>
  </g>
  <g id="arrowDown" transform="rotate(180) translate(-30 -48)">
    <use xlink:href="#rim"/>
    <path pointer-events="none" fill="none" stroke="white" stroke-width="1.5" d="M0,-3.0v7 M-2.5,-0.5L0,-3.0L2.5,-0.5"/>
  </g>
  <g id="arrowLeft" transform="rotate(270) translate(-36 17)">
    <use xlink:href="#rim"/>
    <path pointer-events="none" fill="none" stroke="white" stroke-width="1.5" d="M0,-3.0v7 M-2.5,-0.5L0,-3.0L2.5,-0.5"/>
  </g>
  <g id="resetDef">
    <use xlink:href="#rim2" fill="#404040"><set attributeName="fill" to="#808080" begin="reset.mouseover" end="reset.mouseout"/></use>
  </g>
</defs>
<script type="application/ecmascript">
var viewWidth = 738;
var viewHeight = 258;
var sectionId = 'dynsection-0';
</script>
<script type="application/ecmascript" xlink:href="svg.min.js"/>
<svg id="graph" class="graph">
<g id="viewport">
<title>Source/LatteLibrary/Data/Public/ECharacterType.h</title>
<!-- Node1 -->
<g id="Node000001" class="node">
<title>Node1</title>
<g id="a_Node000001"><a xlink:title="ECharacterType 클래스를 선언합니다.">
<polygon fill="#999999" stroke="#666666" points="256,-250 93,-250 93,-220 256,-220 256,-250"/>
<text text-anchor="start" x="101" y="-238" font-family="Malgun Gothic" font-size="10.00">Source/LatteLibrary</text>
<text text-anchor="middle" x="174.5" y="-227" font-family="Malgun Gothic" font-size="10.00">/Data/Public/ECharacterType.h</text>
</a>
</g>
</g>
<!-- Node2 -->
<g id="Node000002" class="node">
<title>Node2</title>
<g id="a_Node000002"><a xlink:href="FCharacterAssetData_8h.html" target="_top" xlink:title="UCharacterData 클래스를 선언합니다.">
<polygon fill="white" stroke="#666666" points="167.5,-184 9.5,-184 9.5,-143 167.5,-143 167.5,-184"/>
<text text-anchor="start" x="17.5" y="-172" font-family="Malgun Gothic" font-size="10.00">Source/LatteLibrary</text>
<text text-anchor="start" x="17.5" y="-161" font-family="Malgun Gothic" font-size="10.00">/Data/Public/FCharacterAsset</text>
<text text-anchor="middle" x="88.5" y="-150" font-family="Malgun Gothic" font-size="10.00">Data.h</text>
</a>
</g>
</g>
<!-- Node1&#45;&gt;Node2 -->
<g id="edge1_Node000001_Node000002" class="edge">
<title>Node1&#45;&gt;Node2</title>
<g id="a_edge1_Node000001_Node000002"><a xlink:title=" ">
<path fill="none" stroke="#63b8ff" d="M149.14,-213.5C137.63,-204.21 124.09,-193.26 112.72,-184.07"/>
<polygon fill="#63b8ff" stroke="#63b8ff" points="147.12,-216.37 157.1,-219.94 151.52,-210.93 147.12,-216.37"/>
</a>
</g>
</g>
<!-- Node8 -->
<g id="Node000008" class="node">
<title>Node8</title>
<g id="a_Node000008"><a xlink:href="FCharacterInfoData_8h.html" target="_top" xlink:title="FCharacterInfoData 구조체를 선언합니다.">
<polygon fill="white" stroke="#666666" points="335.5,-184 185.5,-184 185.5,-143 335.5,-143 335.5,-184"/>
<text text-anchor="start" x="193.5" y="-172" font-family="Malgun Gothic" font-size="10.00">Source/LatteLibrary</text>
<text text-anchor="start" x="193.5" y="-161" font-family="Malgun Gothic" font-size="10.00">/Data/Public/FCharacterInfo</text>
<text text-anchor="middle" x="260.5" y="-150" font-family="Malgun Gothic" font-size="10.00">Data.h</text>
</a>
</g>
</g>
<!-- Node1&#45;&gt;Node8 -->
<g id="edge8_Node000001_Node000008" class="edge">
<title>Node1&#45;&gt;Node8</title>
<g id="a_edge8_Node000001_Node000008"><a xlink:title=" ">
<path fill="none" stroke="#63b8ff" d="M199.86,-213.5C211.37,-204.21 224.91,-193.26 236.28,-184.07"/>
<polygon fill="#63b8ff" stroke="#63b8ff" points="197.48,-210.93 191.9,-219.94 201.88,-216.37 197.48,-210.93"/>
</a>
</g>
</g>
<!-- Node3 -->
<g id="Node000003" class="node">
<title>Node3</title>
<g id="a_Node000003"><a xlink:href="UGameDataManager_8cpp.html" target="_top" xlink:title="UGameDataManager의 동작을 구현합니다.">
<polygon fill="white" stroke="#666666" points="163,-41 0,-41 0,0 163,0 163,-41"/>
<text text-anchor="start" x="8" y="-29" font-family="Malgun Gothic" font-size="10.00">Source/LatteLibrary</text>
<text text-anchor="start" x="8" y="-18" font-family="Malgun Gothic" font-size="10.00">/Manager/Private/UGameData</text>
<text text-anchor="middle" x="81.5" y="-7" font-family="Malgun Gothic" font-size="10.00">Manager.cpp</text>
</a>
</g>
</g>
<!-- Node2&#45;&gt;Node3 -->
<g id="edge2_Node000002_Node000003" class="edge">
<title>Node2&#45;&gt;Node3</title>
<g id="a_edge2_Node000002_Node000003"><a xlink:title=" ">
<path fill="none" stroke="#63b8ff" d="M87.02,-132.68C85.66,-105.2 83.67,-65.17 82.49,-41.39"/>
<polygon fill="#63b8ff" stroke="#63b8ff" points="83.54,-133.08 87.53,-142.89 90.53,-132.73 83.54,-133.08"/>
</a>
</g>
</g>
<!-- Node4 -->
<g id="Node000004" class="node">
<title>Node4</title>
<g id="a_Node000004"><a xlink:href="UGameDataManager_8h.html" target="_top" xlink:title="UGameDataManager 클래스를 선언합니다.">
<polygon fill="white" stroke="#666666" points="365,-107 156,-107 156,-77 365,-77 365,-107"/>
<text text-anchor="start" x="164" y="-95" font-family="Malgun Gothic" font-size="10.00">Source/LatteLibrary</text>
<text text-anchor="middle" x="260.5" y="-84" font-family="Malgun Gothic" font-size="10.00">/Manager/Public/UGameDataManager.h</text>
</a>
</g>
</g>
<!-- Node2&#45;&gt;Node4 -->
<g id="edge3_Node000002_Node000004" class="edge">
<title>Node2&#45;&gt;Node4</title>
<g id="a_edge3_Node000002_Node000004"><a xlink:title=" ">
<path fill="none" stroke="#63b8ff" d="M146.38,-139.11C172.75,-128.46 203.08,-116.2 225.84,-107"/>
<polygon fill="#63b8ff" stroke="#63b8ff" points="144.83,-135.96 136.87,-142.96 147.45,-142.45 144.83,-135.96"/>
</a>
</g>
</g>
<!-- Node4&#45;&gt;Node3 -->
<g id="edge4_Node000004_Node000003" class="edge">
<title>Node4&#45;&gt;Node3</title>
<g id="a_edge4_Node000004_Node000003"><a xlink:title=" ">
<path fill="none" stroke="#63b8ff" d="M214.9,-73.29C189.56,-63.46 157.98,-51.2 131.91,-41.07"/>
<polygon fill="#63b8ff" stroke="#63b8ff" points="213.69,-76.58 224.28,-76.94 216.22,-70.05 213.69,-76.58"/>
</a>
</g>
</g>
<!-- Node5 -->
<g id="Node000005" class="node">
<title>Node5</title>
<g id="a_Node000005"><a xlink:href="UHitStopSystem_8cpp.html" target="_top" xlink:title="UHitStopSystem의 동작을 구현합니다.">
<polygon fill="white" stroke="#666666" points="339.5,-35.5 181.5,-35.5 181.5,-5.5 339.5,-5.5 339.5,-35.5"/>
<text text-anchor="start" x="189.5" y="-23.5" font-family="Malgun Gothic" font-size="10.00">Source/Onepiece/Character</text>
<text text-anchor="middle" x="260.5" y="-12.5" font-family="Malgun Gothic" font-size="10.00">/Private/UHitStopSystem.cpp</text>
</a>
</g>
</g>
<!-- Node4&#45;&gt;Node5 -->
<g id="edge5_Node000004_Node000005" class="edge">
<title>Node4&#45;&gt;Node5</title>
<g id="a_edge5_Node000004_Node000005"><a xlink:title=" ">
<path fill="none" stroke="#63b8ff" d="M260.5,-66.75C260.5,-56.31 260.5,-44.49 260.5,-35.54"/>
<polygon fill="#63b8ff" stroke="#63b8ff" points="257,-66.94 260.5,-76.94 264,-66.94 257,-66.94"/>
</a>
</g>
</g>
<!-- Node6 -->
<g id="Node000006" class="node">
<title>Node6</title>
<g id="a_Node000006"><a xlink:href="UKnockbackSystem_8cpp.html" target="_top" xlink:title="FMath의 동작을 구현합니다.">
<polygon fill="white" stroke="#666666" points="533,-35.5 358,-35.5 358,-5.5 533,-5.5 533,-35.5"/>
<text text-anchor="start" x="366" y="-23.5" font-family="Malgun Gothic" font-size="10.00">Source/Onepiece/Character</text>
<text text-anchor="middle" x="445.5" y="-12.5" font-family="Malgun Gothic" font-size="10.00">/Private/UKnockbackSystem.cpp</text>
</a>
</g>
</g>
<!-- Node4&#45;&gt;Node6 -->
<g id="edge6_Node000004_Node000006" class="edge">
<title>Node4&#45;&gt;Node6</title>
<g id="a_edge6_Node000004_Node000006"><a xlink:title=" ">
<path fill="none" stroke="#63b8ff" d="M307.31,-73.42C338.54,-61.68 379.05,-46.47 408.12,-35.54"/>
<polygon fill="#63b8ff" stroke="#63b8ff" points="306.07,-70.14 297.94,-76.94 308.53,-76.7 306.07,-70.14"/>
</a>
</g>
</g>
<!-- Node7 -->
<g id="Node000007" class="node">
<title>Node7</title>
<g id="a_Node000007"><a xlink:href="ANetworkTesterActor_8cpp.html" target="_top" xlink:title="ANetworkTesterActor의 동작을 구현합니다.">
<polygon fill="white" stroke="#666666" points="730,-35.5 551,-35.5 551,-5.5 730,-5.5 730,-35.5"/>
<text text-anchor="start" x="559" y="-23.5" font-family="Malgun Gothic" font-size="10.00">Source/Onepiece/Network</text>
<text text-anchor="middle" x="640.5" y="-12.5" font-family="Malgun Gothic" font-size="10.00">/Private/ANetworkTesterActor.cpp</text>
</a>
</g>
</g>
<!-- Node4&#45;&gt;Node7 -->
<g id="edge7_Node000004_Node000007" class="edge">
<title>Node4&#45;&gt;Node7</title>
<g id="a_edge7_Node000004_Node000007"><a xlink:title=" ">
<path fill="none" stroke="#63b8ff" d="M352.44,-75.2C407.6,-65.59 479.13,-52.92 542.5,-41 551.71,-39.27 561.39,-37.4 570.94,-35.53"/>
<polygon fill="#63b8ff" stroke="#63b8ff" points="351.59,-71.79 342.34,-76.96 352.79,-78.69 351.59,-71.79"/>
</a>
</g>
</g>
<!-- Node8&#45;&gt;Node4 -->
<g id="edge9_Node000008_Node000004" class="edge">
<title>Node8&#45;&gt;Node4</title>
<g id="a_edge9_Node000008_Node000004"><a xlink:title=" ">
<path fill="none" stroke="#63b8ff" d="M260.5,-132.66C260.5,-123.76 260.5,-114.42 260.5,-107.04"/>
<polygon fill="#63b8ff" stroke="#63b8ff" points="257,-132.77 260.5,-142.77 264,-132.77 257,-132.77"/>
</a>
</g>
</g>
</g>
</svg>

<g id="navigator" transform="translate(0 0)" fill="#404254">
  <rect fill="#f2f5e9" fill-opacity="0.5" stroke="#606060" stroke-width=".5" x="0" y="0" width="60" height="60"/>
  <use id="zoomplus" xlink:href="#zoomPlus" x="17" y="9" onmousedown="handleZoom(evt,'in')"/>
  <use id="zoomminus" xlink:href="#zoomMin" x="42" y="9" onmousedown="handleZoom(evt,'out')"/>
  <use id="reset" xlink:href="#resetDef" x="30" y="36" onmousedown="handleReset()"/>
   <use id="arrowup" xlink:href="#arrowUp" x="0" y="0" onmousedown="handlePan(0,-1)"/>
  <use id="arrowright" xlink:href="#arrowRight" x="0" y="0" onmousedown="handlePan(1,0)"/>
  <use id="arrowdown" xlink:href="#arrowDown" x="0" y="0" onmousedown="handlePan(0,1)"/>
  <use id="arrowleft" xlink:href="#arrowLeft" x="0" y="0" onmousedown="handlePan(-1,0)"/>
</g>
<svg viewBox="0 0 15 15" width="100%" height="30px" preserveAspectRatio="xMaxYMin meet">
 <g id="arrow_out" transform="scale(0.3 0.3)">
  <a xlink:href="ECharacterType_8h__dep__incl_org.svg" target="_base">
   <rect id="button" ry="5" rx="5" y="6" x="6" height="38" width="38"
        fill="#f2f5e9" fill-opacity="0.5" stroke="#606060" stroke-width="1.0"/>
   <path id="arrow"
     d="M 11.500037,31.436501 C 11.940474,20.09759 22.043105,11.32322 32.158766,21.979434 L 37.068811,17.246167 C 37.068811,17.246167 37.088388,32 37.088388,32 L 22.160133,31.978069 C 22.160133,31.978069 26.997745,27.140456 26.997745,27.140456 C 18.528582,18.264221 13.291696,25.230495 11.500037,31.436501 z"
     style="fill:#404040;"/>
  </a>
 </g>
</svg>

<style type='text/css'>
<![CDATA[
[data-mouse-over-selected='false'] { opacity: 0.7; }
[data-mouse-over-selected='true']  { opacity: 1.0; }
]]>
</style>
<script type="application/ecmascript"><![CDATA[
document.addEventListener('DOMContentLoaded', (event) => {
  highlightEdges();
  highlightAdjacentNodes();
});
]]></script>
</svg>
