<?xml version="1.0" encoding="UTF-8" standalone="no"?>
<!DOCTYPE svg PUBLIC "-//W3C//DTD SVG 1.1//EN"
 "http://www.w3.org/Graphics/SVG/1.1/DTD/svg11.dtd">
<!-- Generated by graphviz version 2.43.0 (0)
 -->
<!-- Title: Source/LatteLibrary/Data/Public/ECharacterType.h Pages: 1 -->
<svg width="738pt" height="258pt"
 viewBox="0.00 0.00 738.00 258.00" xmlns="http://www.w3.org/2000/svg" xmlns:xlink="http://www.w3.org/1999/xlink">
<g id="graph0" class="graph" transform="scale(1 1) rotate(0) translate(4 254)">
<title>Source/LatteLibrary/Data/Public/ECharacterType.h</title>
<!-- Node1 -->
<g id="Node000001" class="node">
<title>Node1</title>
<g id="a_Node000001"><a xlink:title="ECharacterType 클래스를 선언합니다.">
<polygon fill="#999999" stroke="#666666" points="256,-250 93,-250 93,-220 256,-220 256,-250"/>
<text text-anchor="start" x="101" y="-238" font-family="Malgun Gothic" font-size="10.00">Source/LatteLibrary</text>
<text text-anchor="middle" x="174.5" y="-227" font-family="Malgun Gothic" font-size="10.00">/Data/Public/ECharacterType.h</text>
</a>
</g>
</g>
<!-- Node2 -->
<g id="Node000002" class="node">
<title>Node2</title>
<g id="a_Node000002"><a xlink:href="FCharacterAssetData_8h.html" target="_top" xlink:title="UCharacterData 클래스를 선언합니다.">
<polygon fill="white" stroke="#666666" points="167.5,-184 9.5,-184 9.5,-143 167.5,-143 167.5,-184"/>
<text text-anchor="start" x="17.5" y="-172" font-family="Malgun Gothic" font-size="10.00">Source/LatteLibrary</text>
<text text-anchor="start" x="17.5" y="-161" font-family="Malgun Gothic" font-size="10.00">/Data/Public/FCharacterAsset</text>
<text text-anchor="middle" x="88.5" y="-150" font-family="Malgun Gothic" font-size="10.00">Data.h</text>
</a>
</g>
</g>
<!-- Node1&#45;&gt;Node2 -->
<g id="edge1_Node000001_Node000002" class="edge">
<title>Node1&#45;&gt;Node2</title>
<g id="a_edge1_Node000001_Node000002"><a xlink:title=" ">
<path fill="none" stroke="#63b8ff" d="M149.14,-213.5C137.63,-204.21 124.09,-193.26 112.72,-184.07"/>
<polygon fill="#63b8ff" stroke="#63b8ff" points="147.12,-216.37 157.1,-219.94 151.52,-210.93 147.12,-216.37"/>
</a>
</g>
</g>
<!-- Node8 -->
<g id="Node000008" class="node">
<title>Node8</title>
<g id="a_Node000008"><a xlink:href="FCharacterInfoData_8h.html" target="_top" xlink:title="FCharacterInfoData 구조체를 선언합니다.">
<polygon fill="white" stroke="#666666" points="335.5,-184 185.5,-184 185.5,-143 335.5,-143 335.5,-184"/>
<text text-anchor="start" x="193.5" y="-172" font-family="Malgun Gothic" font-size="10.00">Source/LatteLibrary</text>
<text text-anchor="start" x="193.5" y="-161" font-family="Malgun Gothic" font-size="10.00">/Data/Public/FCharacterInfo</text>
<text text-anchor="middle" x="260.5" y="-150" font-family="Malgun Gothic" font-size="10.00">Data.h</text>
</a>
</g>
</g>
<!-- Node1&#45;&gt;Node8 -->
<g id="edge8_Node000001_Node000008" class="edge">
<title>Node1&#45;&gt;Node8</title>
<g id="a_edge8_Node000001_Node000008"><a xlink:title=" ">
<path fill="none" stroke="#63b8ff" d="M199.86,-213.5C211.37,-204.21 224.91,-193.26 236.28,-184.07"/>
<polygon fill="#63b8ff" stroke="#63b8ff" points="197.48,-210.93 191.9,-219.94 201.88,-216.37 197.48,-210.93"/>
</a>
</g>
</g>
<!-- Node3 -->
<g id="Node000003" class="node">
<title>Node3</title>
<g id="a_Node000003"><a xlink:href="UGameDataManager_8cpp.html" target="_top" xlink:title="UGameDataManager의 동작을 구현합니다.">
<polygon fill="white" stroke="#666666" points="163,-41 0,-41 0,0 163,0 163,-41"/>
<text text-anchor="start" x="8" y="-29" font-family="Malgun Gothic" font-size="10.00">Source/LatteLibrary</text>
<text text-anchor="start" x="8" y="-18" font-family="Malgun Gothic" font-size="10.00">/Manager/Private/UGameData</text>
<text text-anchor="middle" x="81.5" y="-7" font-family="Malgun Gothic" font-size="10.00">Manager.cpp</text>
</a>
</g>
</g>
<!-- Node2&#45;&gt;Node3 -->
<g id="edge2_Node000002_Node000003" class="edge">
<title>Node2&#45;&gt;Node3</title>
<g id="a_edge2_Node000002_Node000003"><a xlink:title=" ">
<path fill="none" stroke="#63b8ff" d="M87.02,-132.68C85.66,-105.2 83.67,-65.17 82.49,-41.39"/>
<polygon fill="#63b8ff" stroke="#63b8ff" points="83.54,-133.08 87.53,-142.89 90.53,-132.73 83.54,-133.08"/>
</a>
</g>
</g>
<!-- Node4 -->
<g id="Node000004" class="node">
<title>Node4</title>
<g id="a_Node000004"><a xlink:href="UGameDataManager_8h.html" target="_top" xlink:title="UGameDataManager 클래스를 선언합니다.">
<polygon fill="white" stroke="#666666" points="365,-107 156,-107 156,-77 365,-77 365,-107"/>
<text text-anchor="start" x="164" y="-95" font-family="Malgun Gothic" font-size="10.00">Source/LatteLibrary</text>
<text text-anchor="middle" x="260.5" y="-84" font-family="Malgun Gothic" font-size="10.00">/Manager/Public/UGameDataManager.h</text>
</a>
</g>
</g>
<!-- Node2&#45;&gt;Node4 -->
<g id="edge3_Node000002_Node000004" class="edge">
<title>Node2&#45;&gt;Node4</title>
<g id="a_edge3_Node000002_Node000004"><a xlink:title=" ">
<path fill="none" stroke="#63b8ff" d="M146.38,-139.11C172.75,-128.46 203.08,-116.2 225.84,-107"/>
<polygon fill="#63b8ff" stroke="#63b8ff" points="144.83,-135.96 136.87,-142.96 147.45,-142.45 144.83,-135.96"/>
</a>
</g>
</g>
<!-- Node4&#45;&gt;Node3 -->
<g id="edge4_Node000004_Node000003" class="edge">
<title>Node4&#45;&gt;Node3</title>
<g id="a_edge4_Node000004_Node000003"><a xlink:title=" ">
<path fill="none" stroke="#63b8ff" d="M214.9,-73.29C189.56,-63.46 157.98,-51.2 131.91,-41.07"/>
<polygon fill="#63b8ff" stroke="#63b8ff" points="213.69,-76.58 224.28,-76.94 216.22,-70.05 213.69,-76.58"/>
</a>
</g>
</g>
<!-- Node5 -->
<g id="Node000005" class="node">
<title>Node5</title>
<g id="a_Node000005"><a xlink:href="UHitStopSystem_8cpp.html" target="_top" xlink:title="UHitStopSystem의 동작을 구현합니다.">
<polygon fill="white" stroke="#666666" points="339.5,-35.5 181.5,-35.5 181.5,-5.5 339.5,-5.5 339.5,-35.5"/>
<text text-anchor="start" x="189.5" y="-23.5" font-family="Malgun Gothic" font-size="10.00">Source/Onepiece/Character</text>
<text text-anchor="middle" x="260.5" y="-12.5" font-family="Malgun Gothic" font-size="10.00">/Private/UHitStopSystem.cpp</text>
</a>
</g>
</g>
<!-- Node4&#45;&gt;Node5 -->
<g id="edge5_Node000004_Node000005" class="edge">
<title>Node4&#45;&gt;Node5</title>
<g id="a_edge5_Node000004_Node000005"><a xlink:title=" ">
<path fill="none" stroke="#63b8ff" d="M260.5,-66.75C260.5,-56.31 260.5,-44.49 260.5,-35.54"/>
<polygon fill="#63b8ff" stroke="#63b8ff" points="257,-66.94 260.5,-76.94 264,-66.94 257,-66.94"/>
</a>
</g>
</g>
<!-- Node6 -->
<g id="Node000006" class="node">
<title>Node6</title>
<g id="a_Node000006"><a xlink:href="UKnockbackSystem_8cpp.html" target="_top" xlink:title="FMath의 동작을 구현합니다.">
<polygon fill="white" stroke="#666666" points="533,-35.5 358,-35.5 358,-5.5 533,-5.5 533,-35.5"/>
<text text-anchor="start" x="366" y="-23.5" font-family="Malgun Gothic" font-size="10.00">Source/Onepiece/Character</text>
<text text-anchor="middle" x="445.5" y="-12.5" font-family="Malgun Gothic" font-size="10.00">/Private/UKnockbackSystem.cpp</text>
</a>
</g>
</g>
<!-- Node4&#45;&gt;Node6 -->
<g id="edge6_Node000004_Node000006" class="edge">
<title>Node4&#45;&gt;Node6</title>
<g id="a_edge6_Node000004_Node000006"><a xlink:title=" ">
<path fill="none" stroke="#63b8ff" d="M307.31,-73.42C338.54,-61.68 379.05,-46.47 408.12,-35.54"/>
<polygon fill="#63b8ff" stroke="#63b8ff" points="306.07,-70.14 297.94,-76.94 308.53,-76.7 306.07,-70.14"/>
</a>
</g>
</g>
<!-- Node7 -->
<g id="Node000007" class="node">
<title>Node7</title>
<g id="a_Node000007"><a xlink:href="ANetworkTesterActor_8cpp.html" target="_top" xlink:title="ANetworkTesterActor의 동작을 구현합니다.">
<polygon fill="white" stroke="#666666" points="730,-35.5 551,-35.5 551,-5.5 730,-5.5 730,-35.5"/>
<text text-anchor="start" x="559" y="-23.5" font-family="Malgun Gothic" font-size="10.00">Source/Onepiece/Network</text>
<text text-anchor="middle" x="640.5" y="-12.5" font-family="Malgun Gothic" font-size="10.00">/Private/ANetworkTesterActor.cpp</text>
</a>
</g>
</g>
<!-- Node4&#45;&gt;Node7 -->
<g id="edge7_Node000004_Node000007" class="edge">
<title>Node4&#45;&gt;Node7</title>
<g id="a_edge7_Node000004_Node000007"><a xlink:title=" ">
<path fill="none" stroke="#63b8ff" d="M352.44,-75.2C407.6,-65.59 479.13,-52.92 542.5,-41 551.71,-39.27 561.39,-37.4 570.94,-35.53"/>
<polygon fill="#63b8ff" stroke="#63b8ff" points="351.59,-71.79 342.34,-76.96 352.79,-78.69 351.59,-71.79"/>
</a>
</g>
</g>
<!-- Node8&#45;&gt;Node4 -->
<g id="edge9_Node000008_Node000004" class="edge">
<title>Node8&#45;&gt;Node4</title>
<g id="a_edge9_Node000008_Node000004"><a xlink:title=" ">
<path fill="none" stroke="#63b8ff" d="M260.5,-132.66C260.5,-123.76 260.5,-114.42 260.5,-107.04"/>
<polygon fill="#63b8ff" stroke="#63b8ff" points="257,-132.77 260.5,-142.77 264,-132.77 257,-132.77"/>
</a>
</g>
</g>
</g>
</svg>
