<?xml version="1.0" encoding="UTF-8" standalone="no"?>
<!DOCTYPE svg PUBLIC "-//W3C//DTD SVG 1.1//EN"
 "http://www.w3.org/Graphics/SVG/1.1/DTD/svg11.dtd">
<!-- Generated by graphviz version 2.43.0 (0)
 -->
<!-- Title: Source/LatteLibrary/Data/Public/EDamageType.h Pages: 1 -->
<!--zoomable 269 -->

<svg id="main" version="1.1" xmlns="http://www.w3.org/2000/svg" xmlns:xlink="http://www.w3.org/1999/xlink" xml:space="preserve" onload="init(evt)">
<style type="text/css"><![CDATA[
.node, .edge {opacity: 0.7;}
.node.selected, .edge.selected {opacity: 1;}
.edge:hover path { stroke: red; }
.edge:hover polygon { stroke: red; fill: red; }
]]></style>

<defs>
  <circle id="rim" cx="0" cy="0" r="7"/>
  <circle id="rim2" cx="0" cy="0" r="3.5"/>
  <g id="zoomPlus">
    <use xlink:href="#rim" fill="#404040"><set attributeName="fill" to="#808080" begin="zoomplus.mouseover" end="zoomplus.mouseout"/></use>
    <path d="M-4,0h8M0,-4v8" fill="none" stroke="white" stroke-width="1.5" pointer-events="none"/>
  </g>
  <g id="zoomMin">
    <use xlink:href="#rim" fill="#404040"><set attributeName="fill" to="#808080" begin="zoomminus.mouseover" end="zoomminus.mouseout"/></use>
    <path d="M-4,0h8" fill="none" stroke="white" stroke-width="1.5" pointer-events="none"/>
  </g>
  <g id="arrowUp" transform="translate(30 24)">
    <use xlink:href="#rim"/>
    <path pointer-events="none" fill="none" stroke="white" stroke-width="1.5" d="M0,-3.0v7 M-2.5,-0.5L0,-3.0L2.5,-0.5"/>
  </g>
  <g id="arrowRight" transform="rotate(90) translate(36 -43)">
    <use xlink:href="#rim"/>
    <path pointer-events="none" fill="none" stroke="white" stroke-width="1.5" d="M0,-3.0v7 M-2.5,-0.5L0,-3.0L2.5,-0.5"/>
  </g>
  <g id="arrowDown" transform="rotate(180) translate(-30 -48)">
    <use xlink:href="#rim"/>
    <path pointer-events="none" fill="none" stroke="white" stroke-width="1.5" d="M0,-3.0v7 M-2.5,-0.5L0,-3.0L2.5,-0.5"/>
  </g>
  <g id="arrowLeft" transform="rotate(270) translate(-36 17)">
    <use xlink:href="#rim"/>
    <path pointer-events="none" fill="none" stroke="white" stroke-width="1.5" d="M0,-3.0v7 M-2.5,-0.5L0,-3.0L2.5,-0.5"/>
  </g>
  <g id="resetDef">
    <use xlink:href="#rim2" fill="#404040"><set attributeName="fill" to="#808080" begin="reset.mouseover" end="reset.mouseout"/></use>
  </g>
</defs>
<script type="application/ecmascript">
var viewWidth = 1319;
var viewHeight = 269;
var sectionId = 'dynsection-0';
</script>
<script type="application/ecmascript" xlink:href="svg.min.js"/>
<svg id="graph" class="graph">
<g id="viewport">
<title>Source/LatteLibrary/Data/Public/EDamageType.h</title>
<!-- Node1 -->
<g id="Node000001" class="node">
<title>Node1</title>
<g id="a_Node000001"><a xlink:title="EDamageType 클래스를 선언합니다.">
<polygon fill="#999999" stroke="#666666" points="766.5,-261 609.5,-261 609.5,-231 766.5,-231 766.5,-261"/>
<text text-anchor="start" x="617.5" y="-249" font-family="Malgun Gothic" font-size="10.00">Source/LatteLibrary</text>
<text text-anchor="middle" x="688" y="-238" font-family="Malgun Gothic" font-size="10.00">/Data/Public/EDamageType.h</text>
</a>
</g>
</g>
<!-- Node2 -->
<g id="Node000002" class="node">
<title>Node2</title>
<g id="a_Node000002"><a xlink:href="UGameDamageType_8h.html" target="_top" xlink:title="UGameDamageType 클래스를 선언합니다.">
<polygon fill="white" stroke="#666666" points="376.5,-195 199.5,-195 199.5,-154 376.5,-154 376.5,-195"/>
<text text-anchor="start" x="207.5" y="-183" font-family="Malgun Gothic" font-size="10.00">Source/LatteLibrary</text>
<text text-anchor="start" x="207.5" y="-172" font-family="Malgun Gothic" font-size="10.00">/Common/Public/UGameDamage</text>
<text text-anchor="middle" x="288" y="-161" font-family="Malgun Gothic" font-size="10.00">Type.h</text>
</a>
</g>
</g>
<!-- Node1&#45;&gt;Node2 -->
<g id="edge1_Node000001_Node000002" class="edge">
<title>Node1&#45;&gt;Node2</title>
<g id="a_edge1_Node000001_Node000002"><a xlink:title=" ">
<path fill="none" stroke="#63b8ff" d="M599.45,-229.61C533.24,-218.11 443.1,-202.45 376.82,-190.93"/>
<polygon fill="#63b8ff" stroke="#63b8ff" points="599,-233.09 609.45,-231.35 600.2,-226.19 599,-233.09"/>
</a>
</g>
</g>
<!-- Node6 -->
<g id="Node000006" class="node">
<title>Node6</title>
<g id="a_Node000006"><a xlink:href="FHitStopData_8h.html" target="_top" xlink:title="FHitStopData 구조체를 선언합니다.">
<polygon fill="white" stroke="#666666" points="585,-189.5 433,-189.5 433,-159.5 585,-159.5 585,-189.5"/>
<text text-anchor="start" x="441" y="-177.5" font-family="Malgun Gothic" font-size="10.00">Source/LatteLibrary</text>
<text text-anchor="middle" x="509" y="-166.5" font-family="Malgun Gothic" font-size="10.00">/Data/Public/FHitStopData.h</text>
</a>
</g>
</g>
<!-- Node1&#45;&gt;Node6 -->
<g id="edge5_Node000001_Node000006" class="edge">
<title>Node1&#45;&gt;Node6</title>
<g id="a_edge5_Node000001_Node000006"><a xlink:title=" ">
<path fill="none" stroke="#63b8ff" d="M642.32,-227.26C612.16,-215.55 573.18,-200.42 545.17,-189.54"/>
<polygon fill="#63b8ff" stroke="#63b8ff" points="641.19,-230.58 651.78,-230.94 643.72,-224.05 641.19,-230.58"/>
</a>
</g>
</g>
<!-- Node12 -->
<g id="Node000012" class="node">
<title>Node12</title>
<g id="a_Node000012"><a xlink:href="FKnockbackData_8h.html" target="_top" xlink:title="FKnockbackData 구조체를 선언합니다.">
<polygon fill="white" stroke="#666666" points="773,-189.5 603,-189.5 603,-159.5 773,-159.5 773,-189.5"/>
<text text-anchor="start" x="611" y="-177.5" font-family="Malgun Gothic" font-size="10.00">Source/LatteLibrary</text>
<text text-anchor="middle" x="688" y="-166.5" font-family="Malgun Gothic" font-size="10.00">/Data/Public/FKnockbackData.h</text>
</a>
</g>
</g>
<!-- Node1&#45;&gt;Node12 -->
<g id="edge13_Node000001_Node000012" class="edge">
<title>Node1&#45;&gt;Node12</title>
<g id="a_edge13_Node000001_Node000012"><a xlink:title=" ">
<path fill="none" stroke="#63b8ff" d="M688,-220.75C688,-210.31 688,-198.49 688,-189.54"/>
<polygon fill="#63b8ff" stroke="#63b8ff" points="684.5,-220.94 688,-230.94 691.5,-220.94 684.5,-220.94"/>
</a>
</g>
</g>
<!-- Node14 -->
<g id="Node000014" class="node">
<title>Node14</title>
<g id="a_Node000014"><a xlink:href="UGameVFXManager_8cpp.html" target="_top" xlink:title="UGameVFXManager의 동작을 구현합니다.">
<polygon fill="white" stroke="#666666" points="1012.5,-189.5 791.5,-189.5 791.5,-159.5 1012.5,-159.5 1012.5,-189.5"/>
<text text-anchor="start" x="799.5" y="-177.5" font-family="Malgun Gothic" font-size="10.00">Source/LatteLibrary</text>
<text text-anchor="middle" x="902" y="-166.5" font-family="Malgun Gothic" font-size="10.00">/Manager/Private/UGameVFXManager.cpp</text>
</a>
</g>
</g>
<!-- Node1&#45;&gt;Node14 -->
<g id="edge18_Node000001_Node000014" class="edge">
<title>Node1&#45;&gt;Node14</title>
<g id="a_edge18_Node000001_Node000014"><a xlink:title=" ">
<path fill="none" stroke="#63b8ff" d="M741.21,-227.72C777.46,-215.95 824.84,-200.56 858.76,-189.54"/>
<polygon fill="#63b8ff" stroke="#63b8ff" points="739.74,-224.52 731.31,-230.94 741.9,-231.18 739.74,-224.52"/>
</a>
</g>
</g>
<!-- Node15 -->
<g id="Node000015" class="node">
<title>Node15</title>
<g id="a_Node000015"><a xlink:href="UBroadcastManager_8h.html" target="_top" xlink:title=" ">
<polygon fill="white" stroke="#666666" points="1118,-118 964,-118 964,-77 1118,-77 1118,-118"/>
<text text-anchor="start" x="972" y="-106" font-family="Malgun Gothic" font-size="10.00">Source/LatteLibrary</text>
<text text-anchor="start" x="972" y="-95" font-family="Malgun Gothic" font-size="10.00">/Manager/Public/UBroadcast</text>
<text text-anchor="middle" x="1041" y="-84" font-family="Malgun Gothic" font-size="10.00">Manager.h</text>
</a>
</g>
</g>
<!-- Node1&#45;&gt;Node15 -->
<g id="edge19_Node000001_Node000015" class="edge">
<title>Node1&#45;&gt;Node15</title>
<g id="a_edge19_Node000001_Node000015"><a xlink:title=" ">
<path fill="none" stroke="#63b8ff" d="M776.83,-242.84C863.37,-238.83 986.74,-227.42 1021,-195 1041.76,-175.36 1043.94,-140.28 1042.95,-118.26"/>
<polygon fill="#63b8ff" stroke="#63b8ff" points="776.57,-239.35 766.74,-243.29 776.88,-246.34 776.57,-239.35"/>
</a>
</g>
</g>
<!-- Node3 -->
<g id="Node000003" class="node">
<title>Node3</title>
<g id="a_Node000003"><a xlink:href="UGameFunctionLibrary_8h.html" target="_top" xlink:title="UGameFunctionLibrary 클래스를 선언합니다.">
<polygon fill="white" stroke="#666666" points="337.5,-118 160.5,-118 160.5,-77 337.5,-77 337.5,-118"/>
<text text-anchor="start" x="168.5" y="-106" font-family="Malgun Gothic" font-size="10.00">Source/LatteLibrary</text>
<text text-anchor="start" x="168.5" y="-95" font-family="Malgun Gothic" font-size="10.00">/Common/Public/UGameFunction</text>
<text text-anchor="middle" x="249" y="-84" font-family="Malgun Gothic" font-size="10.00">Library.h</text>
</a>
</g>
</g>
<!-- Node2&#45;&gt;Node3 -->
<g id="edge2_Node000002_Node000003" class="edge">
<title>Node2&#45;&gt;Node3</title>
<g id="a_edge2_Node000002_Node000003"><a xlink:title=" ">
<path fill="none" stroke="#63b8ff" d="M273.09,-144.83C268.44,-135.89 263.42,-126.24 259.18,-118.07"/>
<polygon fill="#63b8ff" stroke="#63b8ff" points="270.03,-146.54 277.75,-153.79 276.24,-143.31 270.03,-146.54"/>
</a>
</g>
</g>
<!-- Node4 -->
<g id="Node000004" class="node">
<title>Node4</title>
<g id="a_Node000004"><a xlink:href="UGameFunctionLibrary_8cpp.html" target="_top" xlink:title="UGameFunctionLibrary의 동작을 구현합니다.">
<polygon fill="white" stroke="#666666" points="182,-41 0,-41 0,0 182,0 182,-41"/>
<text text-anchor="start" x="8" y="-29" font-family="Malgun Gothic" font-size="10.00">Source/LatteLibrary</text>
<text text-anchor="start" x="8" y="-18" font-family="Malgun Gothic" font-size="10.00">/Common/Private/UGameFunction</text>
<text text-anchor="middle" x="91" y="-7" font-family="Malgun Gothic" font-size="10.00">Library.cpp</text>
</a>
</g>
</g>
<!-- Node3&#45;&gt;Node4 -->
<g id="edge3_Node000003_Node000004" class="edge">
<title>Node3&#45;&gt;Node4</title>
<g id="a_edge3_Node000003_Node000004"><a xlink:title=" ">
<path fill="none" stroke="#63b8ff" d="M198.62,-72.59C177.18,-62.41 152.49,-50.69 132.17,-41.04"/>
<polygon fill="#63b8ff" stroke="#63b8ff" points="197.37,-75.86 207.9,-76.99 200.37,-69.54 197.37,-75.86"/>
</a>
</g>
</g>
<!-- Node5 -->
<g id="Node000005" class="node">
<title>Node5</title>
<g id="a_Node000005"><a xlink:href="ANetworkTesterActor_8cpp.html" target="_top" xlink:title="ANetworkTesterActor의 동작을 구현합니다.">
<polygon fill="white" stroke="#666666" points="379.5,-35.5 200.5,-35.5 200.5,-5.5 379.5,-5.5 379.5,-35.5"/>
<text text-anchor="start" x="208.5" y="-23.5" font-family="Malgun Gothic" font-size="10.00">Source/Onepiece/Network</text>
<text text-anchor="middle" x="290" y="-12.5" font-family="Malgun Gothic" font-size="10.00">/Private/ANetworkTesterActor.cpp</text>
</a>
</g>
</g>
<!-- Node3&#45;&gt;Node5 -->
<g id="edge4_Node000003_Node000005" class="edge">
<title>Node3&#45;&gt;Node5</title>
<g id="a_edge4_Node000003_Node000005"><a xlink:title=" ">
<path fill="none" stroke="#63b8ff" d="M264.62,-67.93C270.61,-56.97 277.19,-44.93 282.15,-35.86"/>
<polygon fill="#63b8ff" stroke="#63b8ff" points="261.5,-66.34 259.77,-76.79 267.64,-69.7 261.5,-66.34"/>
</a>
</g>
</g>
<!-- Node7 -->
<g id="Node000007" class="node">
<title>Node7</title>
<g id="a_Node000007"><a xlink:href="UGameDataManager_8h.html" target="_top" xlink:title="UGameDataManager 클래스를 선언합니다.">
<polygon fill="white" stroke="#666666" points="731.5,-112.5 522.5,-112.5 522.5,-82.5 731.5,-82.5 731.5,-112.5"/>
<text text-anchor="start" x="530.5" y="-100.5" font-family="Malgun Gothic" font-size="10.00">Source/LatteLibrary</text>
<text text-anchor="middle" x="627" y="-89.5" font-family="Malgun Gothic" font-size="10.00">/Manager/Public/UGameDataManager.h</text>
</a>
</g>
</g>
<!-- Node6&#45;&gt;Node7 -->
<g id="edge6_Node000006_Node000007" class="edge">
<title>Node6&#45;&gt;Node7</title>
<g id="a_edge6_Node000006_Node000007"><a xlink:title=" ">
<path fill="none" stroke="#63b8ff" d="M539.83,-153.9C560.25,-140.93 586.56,-124.21 604.9,-112.54"/>
<polygon fill="#63b8ff" stroke="#63b8ff" points="537.76,-151.08 531.19,-159.39 541.51,-156.98 537.76,-151.08"/>
</a>
</g>
</g>
<!-- Node11 -->
<g id="Node000011" class="node">
<title>Node11</title>
<g id="a_Node000011"><a xlink:href="UHitStopSystem_8h.html" target="_top" xlink:title="UHitStopSystem 클래스를 선언합니다.">
<polygon fill="white" stroke="#666666" points="504.5,-112.5 355.5,-112.5 355.5,-82.5 504.5,-82.5 504.5,-112.5"/>
<text text-anchor="start" x="363.5" y="-100.5" font-family="Malgun Gothic" font-size="10.00">Source/Onepiece/Character</text>
<text text-anchor="middle" x="430" y="-89.5" font-family="Malgun Gothic" font-size="10.00">/Public/UHitStopSystem.h</text>
</a>
</g>
</g>
<!-- Node6&#45;&gt;Node11 -->
<g id="edge11_Node000006_Node000011" class="edge">
<title>Node6&#45;&gt;Node11</title>
<g id="a_edge11_Node000006_Node000011"><a xlink:title=" ">
<path fill="none" stroke="#63b8ff" d="M486.69,-152.32C473.27,-139.58 456.58,-123.74 444.79,-112.54"/>
<polygon fill="#63b8ff" stroke="#63b8ff" points="484.48,-155.05 494.14,-159.39 489.3,-149.97 484.48,-155.05"/>
</a>
</g>
</g>
<!-- Node7&#45;&gt;Node5 -->
<g id="edge10_Node000007_Node000005" class="edge">
<title>Node7&#45;&gt;Node5</title>
<g id="a_edge10_Node000007_Node000005"><a xlink:title=" ">
<path fill="none" stroke="#63b8ff" d="M554.23,-80.3C494.26,-66.96 410.08,-48.22 352.97,-35.51"/>
<polygon fill="#63b8ff" stroke="#63b8ff" points="553.49,-83.73 564.01,-82.48 555.01,-76.89 553.49,-83.73"/>
</a>
</g>
</g>
<!-- Node8 -->
<g id="Node000008" class="node">
<title>Node8</title>
<g id="a_Node000008"><a xlink:href="UGameDataManager_8cpp.html" target="_top" xlink:title="UGameDataManager의 동작을 구현합니다.">
<polygon fill="white" stroke="#666666" points="737.5,-41 574.5,-41 574.5,0 737.5,0 737.5,-41"/>
<text text-anchor="start" x="582.5" y="-29" font-family="Malgun Gothic" font-size="10.00">Source/LatteLibrary</text>
<text text-anchor="start" x="582.5" y="-18" font-family="Malgun Gothic" font-size="10.00">/Manager/Private/UGameData</text>
<text text-anchor="middle" x="656" y="-7" font-family="Malgun Gothic" font-size="10.00">Manager.cpp</text>
</a>
</g>
</g>
<!-- Node7&#45;&gt;Node8 -->
<g id="edge7_Node000007_Node000008" class="edge">
<title>Node7&#45;&gt;Node8</title>
<g id="a_edge7_Node000007_Node000008"><a xlink:title=" ">
<path fill="none" stroke="#63b8ff" d="M636.14,-72.87C640.07,-62.69 644.63,-50.91 648.38,-41.2"/>
<polygon fill="#63b8ff" stroke="#63b8ff" points="632.8,-71.8 632.45,-82.39 639.33,-74.33 632.8,-71.8"/>
</a>
</g>
</g>
<!-- Node9 -->
<g id="Node000009" class="node">
<title>Node9</title>
<g id="a_Node000009"><a xlink:href="UHitStopSystem_8cpp.html" target="_top" xlink:title="UHitStopSystem의 동작을 구현합니다.">
<polygon fill="white" stroke="#666666" points="556,-35.5 398,-35.5 398,-5.5 556,-5.5 556,-35.5"/>
<text text-anchor="start" x="406" y="-23.5" font-family="Malgun Gothic" font-size="10.00">Source/Onepiece/Character</text>
<text text-anchor="middle" x="477" y="-12.5" font-family="Malgun Gothic" font-size="10.00">/Private/UHitStopSystem.cpp</text>
</a>
</g>
</g>
<!-- Node7&#45;&gt;Node9 -->
<g id="edge8_Node000007_Node000009" class="edge">
<title>Node7&#45;&gt;Node9</title>
<g id="a_edge8_Node000007_Node000009"><a xlink:title=" ">
<path fill="none" stroke="#63b8ff" d="M589.54,-77.77C563.35,-64.68 528.93,-47.47 505.09,-35.54"/>
<polygon fill="#63b8ff" stroke="#63b8ff" points="588.28,-81.05 598.79,-82.39 591.41,-74.79 588.28,-81.05"/>
</a>
</g>
</g>
<!-- Node10 -->
<g id="Node000010" class="node">
<title>Node10</title>
<g id="a_Node000010"><a xlink:href="UKnockbackSystem_8cpp.html" target="_top" xlink:title="FMath의 동작을 구현합니다.">
<polygon fill="white" stroke="#666666" points="930.5,-35.5 755.5,-35.5 755.5,-5.5 930.5,-5.5 930.5,-35.5"/>
<text text-anchor="start" x="763.5" y="-23.5" font-family="Malgun Gothic" font-size="10.00">Source/Onepiece/Character</text>
<text text-anchor="middle" x="843" y="-12.5" font-family="Malgun Gothic" font-size="10.00">/Private/UKnockbackSystem.cpp</text>
</a>
</g>
</g>
<!-- Node7&#45;&gt;Node10 -->
<g id="edge9_Node000007_Node000010" class="edge">
<title>Node7&#45;&gt;Node10</title>
<g id="a_edge9_Node000007_Node000010"><a xlink:title=" ">
<path fill="none" stroke="#63b8ff" d="M677.24,-79.06C715.32,-65.83 766.99,-47.89 802.46,-35.58"/>
<polygon fill="#63b8ff" stroke="#63b8ff" points="675.67,-75.89 667.37,-82.48 677.97,-82.51 675.67,-75.89"/>
</a>
</g>
</g>
<!-- Node11&#45;&gt;Node9 -->
<g id="edge12_Node000011_Node000009" class="edge">
<title>Node11&#45;&gt;Node9</title>
<g id="a_edge12_Node000011_Node000009"><a xlink:title=" ">
<path fill="none" stroke="#63b8ff" d="M444.18,-73.88C451.99,-61.41 461.45,-46.32 468.2,-35.54"/>
<polygon fill="#63b8ff" stroke="#63b8ff" points="441.18,-72.06 438.84,-82.39 447.12,-75.78 441.18,-72.06"/>
</a>
</g>
</g>
<!-- Node12&#45;&gt;Node7 -->
<g id="edge14_Node000012_Node000007" class="edge">
<title>Node12&#45;&gt;Node7</title>
<g id="a_edge14_Node000012_Node000007"><a xlink:title=" ">
<path fill="none" stroke="#63b8ff" d="M670.19,-151.6C659.93,-138.99 647.35,-123.53 638.42,-112.54"/>
<polygon fill="#63b8ff" stroke="#63b8ff" points="667.5,-153.84 676.53,-159.39 672.93,-149.43 667.5,-153.84"/>
</a>
</g>
</g>
<!-- Node12&#45;&gt;Node10 -->
<g id="edge15_Node000012_Node000010" class="edge">
<title>Node12&#45;&gt;Node10</title>
<g id="a_edge15_Node000012_Node000010"><a xlink:title=" ">
<path fill="none" stroke="#63b8ff" d="M708.58,-151.56C734.29,-124.18 775.37,-80.48 779,-77 794.28,-62.34 812.62,-46.61 825.75,-35.66"/>
<polygon fill="#63b8ff" stroke="#63b8ff" points="705.76,-149.45 701.47,-159.14 710.87,-154.24 705.76,-149.45"/>
</a>
</g>
</g>
<!-- Node13 -->
<g id="Node000013" class="node">
<title>Node13</title>
<g id="a_Node000013"><a xlink:href="UKnockbackSystem_8h.html" target="_top" xlink:title="UKnockbackSystem 클래스를 선언합니다.">
<polygon fill="white" stroke="#666666" points="946,-112.5 788,-112.5 788,-82.5 946,-82.5 946,-112.5"/>
<text text-anchor="start" x="796" y="-100.5" font-family="Malgun Gothic" font-size="10.00">Source/Onepiece/Character</text>
<text text-anchor="middle" x="867" y="-89.5" font-family="Malgun Gothic" font-size="10.00">/Public/UKnockbackSystem.h</text>
</a>
</g>
</g>
<!-- Node12&#45;&gt;Node13 -->
<g id="edge16_Node000012_Node000013" class="edge">
<title>Node12&#45;&gt;Node13</title>
<g id="a_edge16_Node000012_Node000013"><a xlink:title=" ">
<path fill="none" stroke="#63b8ff" d="M731.06,-155.46C762.5,-142.28 804.53,-124.68 833.48,-112.54"/>
<polygon fill="#63b8ff" stroke="#63b8ff" points="729.54,-152.3 721.67,-159.39 732.24,-158.76 729.54,-152.3"/>
</a>
</g>
</g>
<!-- Node13&#45;&gt;Node10 -->
<g id="edge17_Node000013_Node000010" class="edge">
<title>Node13&#45;&gt;Node10</title>
<g id="a_edge17_Node000013_Node000010"><a xlink:title=" ">
<path fill="none" stroke="#63b8ff" d="M859.41,-72.78C855.49,-60.53 850.84,-46 847.49,-35.54"/>
<polygon fill="#63b8ff" stroke="#63b8ff" points="856.1,-73.94 862.49,-82.39 862.77,-71.8 856.1,-73.94"/>
</a>
</g>
</g>
<!-- Node15&#45;&gt;Node9 -->
<g id="edge21_Node000015_Node000009" class="edge">
<title>Node15&#45;&gt;Node9</title>
<g id="a_edge21_Node000015_Node000009"><a xlink:title=" ">
<path fill="none" stroke="#63b8ff" d="M953.82,-76.93C781.33,-50.35 733.79,-67.38 565,-41 555.41,-39.5 545.31,-37.59 535.5,-35.54"/>
<polygon fill="#63b8ff" stroke="#63b8ff" points="953.32,-80.39 963.74,-78.48 954.4,-73.47 953.32,-80.39"/>
</a>
</g>
</g>
<!-- Node15&#45;&gt;Node10 -->
<g id="edge22_Node000015_Node000010" class="edge">
<title>Node15&#45;&gt;Node10</title>
<g id="a_edge22_Node000015_Node000010"><a xlink:title=" ">
<path fill="none" stroke="#63b8ff" d="M980.04,-73.41C947.4,-61.05 908.26,-46.22 880.18,-35.58"/>
<polygon fill="#63b8ff" stroke="#63b8ff" points="978.9,-76.72 989.49,-76.99 981.38,-70.18 978.9,-76.72"/>
</a>
</g>
</g>
<!-- Node16 -->
<g id="Node000016" class="node">
<title>Node16</title>
<g id="a_Node000016"><a xlink:href="UBroadcastManager_8cpp.html" target="_top" xlink:title=" ">
<polygon fill="white" stroke="#666666" points="1310.5,-41 1151.5,-41 1151.5,0 1310.5,0 1310.5,-41"/>
<text text-anchor="start" x="1159.5" y="-29" font-family="Malgun Gothic" font-size="10.00">Source/LatteLibrary</text>
<text text-anchor="start" x="1159.5" y="-18" font-family="Malgun Gothic" font-size="10.00">/Manager/Private/UBroadcast</text>
<text text-anchor="middle" x="1231" y="-7" font-family="Malgun Gothic" font-size="10.00">Manager.cpp</text>
</a>
</g>
</g>
<!-- Node15&#45;&gt;Node16 -->
<g id="edge20_Node000015_Node000016" class="edge">
<title>Node15&#45;&gt;Node16</title>
<g id="a_edge20_Node000015_Node000016"><a xlink:title=" ">
<path fill="none" stroke="#63b8ff" d="M1099.86,-73.27C1126.03,-62.94 1156.51,-50.9 1181.49,-41.04"/>
<polygon fill="#63b8ff" stroke="#63b8ff" points="1098.44,-70.06 1090.42,-76.99 1101.01,-76.57 1098.44,-70.06"/>
</a>
</g>
</g>
<!-- Node17 -->
<g id="Node000017" class="node">
<title>Node17</title>
<g id="a_Node000017"><a xlink:href="UHttpNetworkSystem_8cpp.html" target="_top" xlink:title="UHttpNetworkSystem의 동작을 구현합니다.">
<polygon fill="white" stroke="#666666" points="1133,-35.5 949,-35.5 949,-5.5 1133,-5.5 1133,-35.5"/>
<text text-anchor="start" x="957" y="-23.5" font-family="Malgun Gothic" font-size="10.00">Source/Onepiece/Network</text>
<text text-anchor="middle" x="1041" y="-12.5" font-family="Malgun Gothic" font-size="10.00">/Private/UHttpNetworkSystem.cpp</text>
</a>
</g>
</g>
<!-- Node15&#45;&gt;Node17 -->
<g id="edge23_Node000015_Node000017" class="edge">
<title>Node15&#45;&gt;Node17</title>
<g id="a_edge23_Node000015_Node000017"><a xlink:title=" ">
<path fill="none" stroke="#63b8ff" d="M1041,-66.61C1041,-56.01 1041,-44.57 1041,-35.86"/>
<polygon fill="#63b8ff" stroke="#63b8ff" points="1037.5,-66.79 1041,-76.79 1044.5,-66.79 1037.5,-66.79"/>
</a>
</g>
</g>
</g>
</svg>

<g id="navigator" transform="translate(0 0)" fill="#404254">
  <rect fill="#f2f5e9" fill-opacity="0.5" stroke="#606060" stroke-width=".5" x="0" y="0" width="60" height="60"/>
  <use id="zoomplus" xlink:href="#zoomPlus" x="17" y="9" onmousedown="handleZoom(evt,'in')"/>
  <use id="zoomminus" xlink:href="#zoomMin" x="42" y="9" onmousedown="handleZoom(evt,'out')"/>
  <use id="reset" xlink:href="#resetDef" x="30" y="36" onmousedown="handleReset()"/>
   <use id="arrowup" xlink:href="#arrowUp" x="0" y="0" onmousedown="handlePan(0,-1)"/>
  <use id="arrowright" xlink:href="#arrowRight" x="0" y="0" onmousedown="handlePan(1,0)"/>
  <use id="arrowdown" xlink:href="#arrowDown" x="0" y="0" onmousedown="handlePan(0,1)"/>
  <use id="arrowleft" xlink:href="#arrowLeft" x="0" y="0" onmousedown="handlePan(-1,0)"/>
</g>
<svg viewBox="0 0 15 15" width="100%" height="30px" preserveAspectRatio="xMaxYMin meet">
 <g id="arrow_out" transform="scale(0.3 0.3)">
  <a xlink:href="EDamageType_8h__dep__incl_org.svg" target="_base">
   <rect id="button" ry="5" rx="5" y="6" x="6" height="38" width="38"
        fill="#f2f5e9" fill-opacity="0.5" stroke="#606060" stroke-width="1.0"/>
   <path id="arrow"
     d="M 11.500037,31.436501 C 11.940474,20.09759 22.043105,11.32322 32.158766,21.979434 L 37.068811,17.246167 C 37.068811,17.246167 37.088388,32 37.088388,32 L 22.160133,31.978069 C 22.160133,31.978069 26.997745,27.140456 26.997745,27.140456 C 18.528582,18.264221 13.291696,25.230495 11.500037,31.436501 z"
     style="fill:#404040;"/>
  </a>
 </g>
</svg>

<style type='text/css'>
<![CDATA[
[data-mouse-over-selected='false'] { opacity: 0.7; }
[data-mouse-over-selected='true']  { opacity: 1.0; }
]]>
</style>
<script type="application/ecmascript"><![CDATA[
document.addEventListener('DOMContentLoaded', (event) => {
  highlightEdges();
  highlightAdjacentNodes();
});
]]></script>
</svg>
