<?xml version="1.0" encoding="UTF-8" standalone="no"?>
<!DOCTYPE svg PUBLIC "-//W3C//DTD SVG 1.1//EN"
 "http://www.w3.org/Graphics/SVG/1.1/DTD/svg11.dtd">
<!-- Generated by graphviz version 2.43.0 (0)
 -->
<!-- Title: Source/CoffeeLibrary/Shared/Public/FComponentHelper.h Pages: 1 -->
<svg width="1155pt" height="115pt"
 viewBox="0.00 0.00 1155.00 115.00" xmlns="http://www.w3.org/2000/svg" xmlns:xlink="http://www.w3.org/1999/xlink">
<g id="graph0" class="graph" transform="scale(1 1) rotate(0) translate(4 111)">
<title>Source/CoffeeLibrary/Shared/Public/FComponentHelper.h</title>
<!-- Node1 -->
<g id="Node000001" class="node">
<title>Node1</title>
<g id="a_Node000001"><a xlink:title="FComponentHelper 구조체를 선언합니다.">
<polygon fill="#999999" stroke="#666666" points="678,-107 487,-107 487,-77 678,-77 678,-107"/>
<text text-anchor="start" x="495" y="-95" font-family="Malgun Gothic" font-size="10.00">Source/CoffeeLibrary</text>
<text text-anchor="middle" x="582.5" y="-84" font-family="Malgun Gothic" font-size="10.00">/Shared/Public/FComponentHelper.h</text>
</a>
</g>
</g>
<!-- Node2 -->
<g id="Node000002" class="node">
<title>Node2</title>
<g id="a_Node000002"><a xlink:href="UGameDataManager_8cpp.html" target="_top" xlink:title="UGameDataManager의 동작을 구현합니다.">
<polygon fill="white" stroke="#666666" points="163,-41 0,-41 0,0 163,0 163,-41"/>
<text text-anchor="start" x="8" y="-29" font-family="Malgun Gothic" font-size="10.00">Source/LatteLibrary</text>
<text text-anchor="start" x="8" y="-18" font-family="Malgun Gothic" font-size="10.00">/Manager/Private/UGameData</text>
<text text-anchor="middle" x="81.5" y="-7" font-family="Malgun Gothic" font-size="10.00">Manager.cpp</text>
</a>
</g>
</g>
<!-- Node1&#45;&gt;Node2 -->
<g id="edge1_Node000001_Node000002" class="edge">
<title>Node1&#45;&gt;Node2</title>
<g id="a_edge1_Node000001_Node000002"><a xlink:title=" ">
<path fill="none" stroke="#63b8ff" d="M476.68,-80.73C393.67,-72.04 275.35,-58.26 172.5,-41 169.47,-40.49 166.39,-39.95 163.29,-39.39"/>
<polygon fill="#63b8ff" stroke="#63b8ff" points="476.57,-84.24 486.88,-81.79 477.29,-77.28 476.57,-84.24"/>
</a>
</g>
</g>
<!-- Node3 -->
<g id="Node000003" class="node">
<title>Node3</title>
<g id="a_Node000003"><a xlink:href="UGameSoundManager_8cpp.html" target="_top" xlink:title="UGameSoundManager의 동작을 구현합니다.">
<polygon fill="white" stroke="#666666" points="351.5,-41 181.5,-41 181.5,0 351.5,0 351.5,-41"/>
<text text-anchor="start" x="189.5" y="-29" font-family="Malgun Gothic" font-size="10.00">Source/LatteLibrary</text>
<text text-anchor="start" x="189.5" y="-18" font-family="Malgun Gothic" font-size="10.00">/Manager/Private/UGameSound</text>
<text text-anchor="middle" x="266.5" y="-7" font-family="Malgun Gothic" font-size="10.00">Manager.cpp</text>
</a>
</g>
</g>
<!-- Node1&#45;&gt;Node3 -->
<g id="edge2_Node000001_Node000003" class="edge">
<title>Node1&#45;&gt;Node3</title>
<g id="a_edge2_Node000001_Node000003"><a xlink:title=" ">
<path fill="none" stroke="#63b8ff" d="M508.75,-74.78C461.74,-64.44 400.68,-51.01 351.63,-40.22"/>
<polygon fill="#63b8ff" stroke="#63b8ff" points="508.03,-78.21 518.55,-76.94 509.54,-71.37 508.03,-78.21"/>
</a>
</g>
</g>
<!-- Node4 -->
<g id="Node000004" class="node">
<title>Node4</title>
<g id="a_Node000004"><a xlink:href="UGameVFXManager_8cpp.html" target="_top" xlink:title="UGameVFXManager의 동작을 구현합니다.">
<polygon fill="white" stroke="#666666" points="591,-35.5 370,-35.5 370,-5.5 591,-5.5 591,-35.5"/>
<text text-anchor="start" x="378" y="-23.5" font-family="Malgun Gothic" font-size="10.00">Source/LatteLibrary</text>
<text text-anchor="middle" x="480.5" y="-12.5" font-family="Malgun Gothic" font-size="10.00">/Manager/Private/UGameVFXManager.cpp</text>
</a>
</g>
</g>
<!-- Node1&#45;&gt;Node4 -->
<g id="edge3_Node000001_Node000004" class="edge">
<title>Node1&#45;&gt;Node4</title>
<g id="a_edge3_Node000001_Node000004"><a xlink:title=" ">
<path fill="none" stroke="#63b8ff" d="M553.52,-71.25C536.8,-59.86 516.17,-45.81 501.11,-35.54"/>
<polygon fill="#63b8ff" stroke="#63b8ff" points="551.62,-74.2 561.86,-76.94 555.57,-68.41 551.62,-74.2"/>
</a>
</g>
</g>
<!-- Node5 -->
<g id="Node000005" class="node">
<title>Node5</title>
<g id="a_Node000005"><a xlink:href="APlayerControl_8cpp.html" target="_top" xlink:title="APlayerControl 구현에 대한 Doxygen 주석을 제공합니다.">
<polygon fill="white" stroke="#666666" points="759.5,-35.5 609.5,-35.5 609.5,-5.5 759.5,-5.5 759.5,-35.5"/>
<text text-anchor="start" x="617.5" y="-23.5" font-family="Malgun Gothic" font-size="10.00">Source/Onepiece/Character</text>
<text text-anchor="middle" x="684.5" y="-12.5" font-family="Malgun Gothic" font-size="10.00">/Private/APlayerControl.cpp</text>
</a>
</g>
</g>
<!-- Node1&#45;&gt;Node5 -->
<g id="edge4_Node000001_Node000005" class="edge">
<title>Node1&#45;&gt;Node5</title>
<g id="a_edge4_Node000001_Node000005"><a xlink:title=" ">
<path fill="none" stroke="#63b8ff" d="M611.48,-71.25C628.2,-59.86 648.83,-45.81 663.89,-35.54"/>
<polygon fill="#63b8ff" stroke="#63b8ff" points="609.43,-68.41 603.14,-76.94 613.38,-74.2 609.43,-68.41"/>
</a>
</g>
</g>
<!-- Node6 -->
<g id="Node000006" class="node">
<title>Node6</title>
<g id="a_Node000006"><a xlink:href="UDialogManager_8cpp.html" target="_top" xlink:title="UDialogManager의 동작을 구현합니다.">
<polygon fill="white" stroke="#666666" points="935.5,-35.5 777.5,-35.5 777.5,-5.5 935.5,-5.5 935.5,-35.5"/>
<text text-anchor="start" x="785.5" y="-23.5" font-family="Malgun Gothic" font-size="10.00">Source/Onepiece/UI</text>
<text text-anchor="middle" x="856.5" y="-12.5" font-family="Malgun Gothic" font-size="10.00">/Private/UDialogManager.cpp</text>
</a>
</g>
</g>
<!-- Node1&#45;&gt;Node6 -->
<g id="edge5_Node000001_Node000006" class="edge">
<title>Node1&#45;&gt;Node6</title>
<g id="a_edge5_Node000001_Node000006"><a xlink:title=" ">
<path fill="none" stroke="#63b8ff" d="M647.68,-74.47C694.44,-62.61 756.78,-46.8 801.13,-35.54"/>
<polygon fill="#63b8ff" stroke="#63b8ff" points="646.78,-71.08 637.95,-76.94 648.5,-77.87 646.78,-71.08"/>
</a>
</g>
</g>
<!-- Node7 -->
<g id="Node000007" class="node">
<title>Node7</title>
<g id="a_Node000007"><a xlink:href="ULoadingCircleManager_8cpp.html" target="_top" xlink:title="ULoadingCircleManager의 동작을 구현합니다.">
<polygon fill="white" stroke="#666666" points="1147,-35.5 954,-35.5 954,-5.5 1147,-5.5 1147,-35.5"/>
<text text-anchor="start" x="962" y="-23.5" font-family="Malgun Gothic" font-size="10.00">Source/Onepiece/UI</text>
<text text-anchor="middle" x="1050.5" y="-12.5" font-family="Malgun Gothic" font-size="10.00">/Private/ULoadingCircleManager.cpp</text>
</a>
</g>
</g>
<!-- Node1&#45;&gt;Node7 -->
<g id="edge6_Node000001_Node000007" class="edge">
<title>Node1&#45;&gt;Node7</title>
<g id="a_edge6_Node000001_Node000007"><a xlink:title=" ">
<path fill="none" stroke="#63b8ff" d="M688.35,-77.65C760.63,-68.22 858.5,-54.84 944.5,-41 954.94,-39.32 965.93,-37.43 976.73,-35.51"/>
<polygon fill="#63b8ff" stroke="#63b8ff" points="687.79,-74.19 678.33,-78.95 688.69,-81.13 687.79,-74.19"/>
</a>
</g>
</g>
</g>
</svg>
