<?xml version="1.0" encoding="UTF-8" standalone="no"?>
<!DOCTYPE svg PUBLIC "-//W3C//DTD SVG 1.1//EN"
 "http://www.w3.org/Graphics/SVG/1.1/DTD/svg11.dtd">
<!-- Generated by graphviz version 2.43.0 (0)
 -->
<!-- Title: Source/CoffeeLibrary/Shared/Public/FComponentHelper.h Pages: 1 -->
<svg width="606pt" height="93pt"
 viewBox="0.00 0.00 606.00 93.00" xmlns="http://www.w3.org/2000/svg" xmlns:xlink="http://www.w3.org/1999/xlink">
<g id="graph0" class="graph" transform="scale(1 1) rotate(0) translate(4 89)">
<title>Source/CoffeeLibrary/Shared/Public/FComponentHelper.h</title>
<!-- Node1 -->
<g id="Node000001" class="node">
<title>Node1</title>
<g id="a_Node000001"><a xlink:title="FComponentHelper 구조체를 선언합니다.">
<polygon fill="#999999" stroke="#666666" points="356.5,-85 165.5,-85 165.5,-55 356.5,-55 356.5,-85"/>
<text text-anchor="start" x="173.5" y="-73" font-family="Malgun Gothic" font-size="10.00">Source/CoffeeLibrary</text>
<text text-anchor="middle" x="261" y="-62" font-family="Malgun Gothic" font-size="10.00">/Shared/Public/FComponentHelper.h</text>
</a>
</g>
</g>
<!-- Node2 -->
<g id="Node000002" class="node">
<title>Node2</title>
<g id="a_Node000002"><a xlink:title=" ">
<polygon fill="#e0e0e0" stroke="#999999" points="88,-19 0,-19 0,0 88,0 88,-19"/>
<text text-anchor="middle" x="44" y="-7" font-family="Malgun Gothic" font-size="10.00">CoreMinimal.h</text>
</a>
</g>
</g>
<!-- Node1&#45;&gt;Node2 -->
<g id="edge1_Node000001_Node000002" class="edge">
<title>Node1&#45;&gt;Node2</title>
<g id="a_edge1_Node000001_Node000002"><a xlink:title=" ">
<path fill="none" stroke="#63b8ff" d="M209.02,-54.99C171.25,-44.8 120.79,-31.2 85.66,-21.73"/>
<polygon fill="#63b8ff" stroke="#63b8ff" points="86.3,-18.28 75.73,-19.05 84.47,-25.04 86.3,-18.28"/>
</a>
</g>
</g>
<!-- Node3 -->
<g id="Node000003" class="node">
<title>Node3</title>
<g id="a_Node000003"><a xlink:title=" ">
<polygon fill="#e0e0e0" stroke="#999999" points="243.5,-19 106.5,-19 106.5,0 243.5,0 243.5,-19"/>
<text text-anchor="middle" x="175" y="-7" font-family="Malgun Gothic" font-size="10.00">GameFramework/Actor.h</text>
</a>
</g>
</g>
<!-- Node1&#45;&gt;Node3 -->
<g id="edge2_Node000001_Node000003" class="edge">
<title>Node1&#45;&gt;Node3</title>
<g id="a_edge2_Node000001_Node000003"><a xlink:title=" ">
<path fill="none" stroke="#63b8ff" d="M240.18,-54.84C226.85,-45.77 209.61,-34.04 196.21,-24.92"/>
<polygon fill="#63b8ff" stroke="#63b8ff" points="197.87,-21.83 187.63,-19.09 193.93,-27.61 197.87,-21.83"/>
</a>
</g>
</g>
<!-- Node4 -->
<g id="Node000004" class="node">
<title>Node4</title>
<g id="a_Node000004"><a xlink:title=" ">
<polygon fill="#e0e0e0" stroke="#999999" points="434,-19 262,-19 262,0 434,0 434,-19"/>
<text text-anchor="middle" x="348" y="-7" font-family="Malgun Gothic" font-size="10.00">Components/ActorComponent.h</text>
</a>
</g>
</g>
<!-- Node1&#45;&gt;Node4 -->
<g id="edge3_Node000001_Node000004" class="edge">
<title>Node1&#45;&gt;Node4</title>
<g id="a_edge3_Node000001_Node000004"><a xlink:title=" ">
<path fill="none" stroke="#63b8ff" d="M282.06,-54.84C295.54,-45.77 312.99,-34.04 326.55,-24.92"/>
<polygon fill="#63b8ff" stroke="#63b8ff" points="328.87,-27.58 335.22,-19.09 324.97,-21.77 328.87,-27.58"/>
</a>
</g>
</g>
<!-- Node5 -->
<g id="Node000005" class="node">
<title>Node5</title>
<g id="a_Node000005"><a xlink:title=" ">
<polygon fill="#e0e0e0" stroke="#999999" points="598,-19 452,-19 452,0 598,0 598,-19"/>
<text text-anchor="middle" x="525" y="-7" font-family="Malgun Gothic" font-size="10.00">Kismet/GameplayStatics.h</text>
</a>
</g>
</g>
<!-- Node1&#45;&gt;Node5 -->
<g id="edge4_Node000001_Node000005" class="edge">
<title>Node1&#45;&gt;Node5</title>
<g id="a_edge4_Node000001_Node000005"><a xlink:title=" ">
<path fill="none" stroke="#63b8ff" d="M324.23,-54.99C370.98,-44.63 433.69,-30.73 476.5,-21.25"/>
<polygon fill="#63b8ff" stroke="#63b8ff" points="477.39,-24.63 486.4,-19.05 475.88,-17.8 477.39,-24.63"/>
</a>
</g>
</g>
</g>
</svg>
