<?xml version="1.0" encoding="UTF-8" standalone="no"?>
<!DOCTYPE svg PUBLIC "-//W3C//DTD SVG 1.1//EN"
 "http://www.w3.org/Graphics/SVG/1.1/DTD/svg11.dtd">
<!-- Generated by graphviz version 2.43.0 (0)
 -->
<!-- Title: Source/CoffeeLibrary/Shared/Public/FEaseHelper.h Pages: 1 -->
<svg width="561pt" height="181pt"
 viewBox="0.00 0.00 560.50 181.00" xmlns="http://www.w3.org/2000/svg" xmlns:xlink="http://www.w3.org/1999/xlink">
<g id="graph0" class="graph" transform="scale(1 1) rotate(0) translate(4 177)">
<title>Source/CoffeeLibrary/Shared/Public/FEaseHelper.h</title>
<!-- Node1 -->
<g id="Node000001" class="node">
<title>Node1</title>
<g id="a_Node000001"><a xlink:title="EEaseType 클래스를 선언합니다.">
<polygon fill="#999999" stroke="#666666" points="368,-173 210,-173 210,-143 368,-143 368,-173"/>
<text text-anchor="start" x="218" y="-161" font-family="Malgun Gothic" font-size="10.00">Source/CoffeeLibrary</text>
<text text-anchor="middle" x="289" y="-150" font-family="Malgun Gothic" font-size="10.00">/Shared/Public/FEaseHelper.h</text>
</a>
</g>
</g>
<!-- Node2 -->
<g id="Node000002" class="node">
<title>Node2</title>
<g id="a_Node000002"><a xlink:href="UEaseFunctionLibrary_8cpp.html" target="_top" xlink:title="FEaseHelper의 동작을 구현합니다.">
<polygon fill="white" stroke="#666666" points="174,-107 0,-107 0,-66 174,-66 174,-107"/>
<text text-anchor="start" x="8" y="-95" font-family="Malgun Gothic" font-size="10.00">Source/CoffeeLibrary</text>
<text text-anchor="start" x="8" y="-84" font-family="Malgun Gothic" font-size="10.00">/Features/Private/UEaseFunction</text>
<text text-anchor="middle" x="87" y="-73" font-family="Malgun Gothic" font-size="10.00">Library.cpp</text>
</a>
</g>
</g>
<!-- Node1&#45;&gt;Node2 -->
<g id="edge1_Node000001_Node000002" class="edge">
<title>Node1&#45;&gt;Node2</title>
<g id="a_edge1_Node000001_Node000002"><a xlink:title=" ">
<path fill="none" stroke="#63b8ff" d="M238.67,-139.68C209.89,-129.78 173.7,-117.33 143.89,-107.07"/>
<polygon fill="#63b8ff" stroke="#63b8ff" points="237.53,-142.99 248.12,-142.94 239.81,-136.37 237.53,-142.99"/>
</a>
</g>
</g>
<!-- Node3 -->
<g id="Node000003" class="node">
<title>Node3</title>
<g id="a_Node000003"><a xlink:href="UEaseComponent_8h.html" target="_top" xlink:title="UEaseComponent 클래스를 선언합니다.">
<polygon fill="white" stroke="#666666" points="385.5,-101.5 192.5,-101.5 192.5,-71.5 385.5,-71.5 385.5,-101.5"/>
<text text-anchor="start" x="200.5" y="-89.5" font-family="Malgun Gothic" font-size="10.00">Source/CoffeeLibrary</text>
<text text-anchor="middle" x="289" y="-78.5" font-family="Malgun Gothic" font-size="10.00">/Features/Public/UEaseComponent.h</text>
</a>
</g>
</g>
<!-- Node1&#45;&gt;Node3 -->
<g id="edge2_Node000001_Node000003" class="edge">
<title>Node1&#45;&gt;Node3</title>
<g id="a_edge2_Node000001_Node000003"><a xlink:title=" ">
<path fill="none" stroke="#63b8ff" d="M289,-132.75C289,-122.31 289,-110.49 289,-101.54"/>
<polygon fill="#63b8ff" stroke="#63b8ff" points="285.5,-132.94 289,-142.94 292.5,-132.94 285.5,-132.94"/>
</a>
</g>
</g>
<!-- Node5 -->
<g id="Node000005" class="node">
<title>Node5</title>
<g id="a_Node000005"><a xlink:href="UFlySystem_8cpp.html" target="_top" xlink:title="UFlySystem의 동작을 구현합니다.">
<polygon fill="white" stroke="#666666" points="552.5,-101.5 403.5,-101.5 403.5,-71.5 552.5,-71.5 552.5,-101.5"/>
<text text-anchor="start" x="411.5" y="-89.5" font-family="Malgun Gothic" font-size="10.00">Source/Onepiece/Character</text>
<text text-anchor="middle" x="478" y="-78.5" font-family="Malgun Gothic" font-size="10.00">/Private/UFlySystem.cpp</text>
</a>
</g>
</g>
<!-- Node1&#45;&gt;Node5 -->
<g id="edge4_Node000001_Node000005" class="edge">
<title>Node1&#45;&gt;Node5</title>
<g id="a_edge4_Node000001_Node000005"><a xlink:title=" ">
<path fill="none" stroke="#63b8ff" d="M336.82,-139.42C368.72,-127.68 410.11,-112.47 439.81,-101.54"/>
<polygon fill="#63b8ff" stroke="#63b8ff" points="335.42,-136.2 327.25,-142.94 337.84,-142.77 335.42,-136.2"/>
</a>
</g>
</g>
<!-- Node4 -->
<g id="Node000004" class="node">
<title>Node4</title>
<g id="a_Node000004"><a xlink:href="UEaseComponent_8cpp.html" target="_top" xlink:title="UEaseComponent의 동작을 구현합니다.">
<polygon fill="white" stroke="#666666" points="393.5,-30 184.5,-30 184.5,0 393.5,0 393.5,-30"/>
<text text-anchor="start" x="192.5" y="-18" font-family="Malgun Gothic" font-size="10.00">Source/CoffeeLibrary</text>
<text text-anchor="middle" x="289" y="-7" font-family="Malgun Gothic" font-size="10.00">/Features/Private/UEaseComponent.cpp</text>
</a>
</g>
</g>
<!-- Node3&#45;&gt;Node4 -->
<g id="edge3_Node000003_Node000004" class="edge">
<title>Node3&#45;&gt;Node4</title>
<g id="a_edge3_Node000003_Node000004"><a xlink:title=" ">
<path fill="none" stroke="#63b8ff" d="M289,-61.25C289,-50.81 289,-38.99 289,-30.04"/>
<polygon fill="#63b8ff" stroke="#63b8ff" points="285.5,-61.44 289,-71.44 292.5,-61.44 285.5,-61.44"/>
</a>
</g>
</g>
</g>
</svg>
