<?xml version="1.0" encoding="UTF-8" standalone="no"?>
<!DOCTYPE svg PUBLIC "-//W3C//DTD SVG 1.1//EN"
 "http://www.w3.org/Graphics/SVG/1.1/DTD/svg11.dtd">
<!-- Generated by graphviz version 2.43.0 (0)
 -->
<!-- Title: Source/LatteLibrary/Data/Public/FHitStopData.h Pages: 1 -->
<!--zoomable 181 -->

<svg id="main" version="1.1" xmlns="http://www.w3.org/2000/svg" xmlns:xlink="http://www.w3.org/1999/xlink" xml:space="preserve" onload="init(evt)">
<style type="text/css"><![CDATA[
.node, .edge {opacity: 0.7;}
.node.selected, .edge.selected {opacity: 1;}
.edge:hover path { stroke: red; }
.edge:hover polygon { stroke: red; fill: red; }
]]></style>

<defs>
  <circle id="rim" cx="0" cy="0" r="7"/>
  <circle id="rim2" cx="0" cy="0" r="3.5"/>
  <g id="zoomPlus">
    <use xlink:href="#rim" fill="#404040"><set attributeName="fill" to="#808080" begin="zoomplus.mouseover" end="zoomplus.mouseout"/></use>
    <path d="M-4,0h8M0,-4v8" fill="none" stroke="white" stroke-width="1.5" pointer-events="none"/>
  </g>
  <g id="zoomMin">
    <use xlink:href="#rim" fill="#404040"><set attributeName="fill" to="#808080" begin="zoomminus.mouseover" end="zoomminus.mouseout"/></use>
    <path d="M-4,0h8" fill="none" stroke="white" stroke-width="1.5" pointer-events="none"/>
  </g>
  <g id="arrowUp" transform="translate(30 24)">
    <use xlink:href="#rim"/>
    <path pointer-events="none" fill="none" stroke="white" stroke-width="1.5" d="M0,-3.0v7 M-2.5,-0.5L0,-3.0L2.5,-0.5"/>
  </g>
  <g id="arrowRight" transform="rotate(90) translate(36 -43)">
    <use xlink:href="#rim"/>
    <path pointer-events="none" fill="none" stroke="white" stroke-width="1.5" d="M0,-3.0v7 M-2.5,-0.5L0,-3.0L2.5,-0.5"/>
  </g>
  <g id="arrowDown" transform="rotate(180) translate(-30 -48)">
    <use xlink:href="#rim"/>
    <path pointer-events="none" fill="none" stroke="white" stroke-width="1.5" d="M0,-3.0v7 M-2.5,-0.5L0,-3.0L2.5,-0.5"/>
  </g>
  <g id="arrowLeft" transform="rotate(270) translate(-36 17)">
    <use xlink:href="#rim"/>
    <path pointer-events="none" fill="none" stroke="white" stroke-width="1.5" d="M0,-3.0v7 M-2.5,-0.5L0,-3.0L2.5,-0.5"/>
  </g>
  <g id="resetDef">
    <use xlink:href="#rim2" fill="#404040"><set attributeName="fill" to="#808080" begin="reset.mouseover" end="reset.mouseout"/></use>
  </g>
</defs>
<script type="application/ecmascript">
var viewWidth = 898;
var viewHeight = 181;
var sectionId = 'dynsection-1';
</script>
<script type="application/ecmascript" xlink:href="svg.min.js"/>
<svg id="graph" class="graph">
<g id="viewport">
<title>Source/LatteLibrary/Data/Public/FHitStopData.h</title>
<!-- Node1 -->
<g id="Node000001" class="node">
<title>Node1</title>
<g id="a_Node000001"><a xlink:title="FHitStopData 구조체를 선언합니다.">
<polygon fill="#999999" stroke="#666666" points="337,-173 185,-173 185,-143 337,-143 337,-173"/>
<text text-anchor="start" x="193" y="-161" font-family="Malgun Gothic" font-size="10.00">Source/LatteLibrary</text>
<text text-anchor="middle" x="261" y="-150" font-family="Malgun Gothic" font-size="10.00">/Data/Public/FHitStopData.h</text>
</a>
</g>
</g>
<!-- Node2 -->
<g id="Node000002" class="node">
<title>Node2</title>
<g id="a_Node000002"><a xlink:href="UGameDataManager_8h.html" target="_top" xlink:title="UGameDataManager 클래스를 선언합니다.">
<polygon fill="white" stroke="#666666" points="506.5,-107 297.5,-107 297.5,-77 506.5,-77 506.5,-107"/>
<text text-anchor="start" x="305.5" y="-95" font-family="Malgun Gothic" font-size="10.00">Source/LatteLibrary</text>
<text text-anchor="middle" x="402" y="-84" font-family="Malgun Gothic" font-size="10.00">/Manager/Public/UGameDataManager.h</text>
</a>
</g>
</g>
<!-- Node1&#45;&gt;Node2 -->
<g id="edge1_Node000001_Node000002" class="edge">
<title>Node1&#45;&gt;Node2</title>
<g id="a_edge1_Node000001_Node000002"><a xlink:title=" ">
<path fill="none" stroke="#63b8ff" d="M301.13,-138.78C323.36,-128.69 350.57,-116.34 371.13,-107.01"/>
<polygon fill="#63b8ff" stroke="#63b8ff" points="299.6,-135.63 291.94,-142.95 302.5,-142.01 299.6,-135.63"/>
</a>
</g>
</g>
<!-- Node8 -->
<g id="Node000008" class="node">
<title>Node8</title>
<g id="a_Node000008"><a xlink:href="UHitStopSystem_8h.html" target="_top" xlink:title="UHitStopSystem 클래스를 선언합니다.">
<polygon fill="white" stroke="#666666" points="237.5,-107 88.5,-107 88.5,-77 237.5,-77 237.5,-107"/>
<text text-anchor="start" x="96.5" y="-95" font-family="Malgun Gothic" font-size="10.00">Source/Onepiece/Character</text>
<text text-anchor="middle" x="163" y="-84" font-family="Malgun Gothic" font-size="10.00">/Public/UHitStopSystem.h</text>
</a>
</g>
</g>
<!-- Node1&#45;&gt;Node8 -->
<g id="edge7_Node000001_Node000008" class="edge">
<title>Node1&#45;&gt;Node8</title>
<g id="a_edge7_Node000001_Node000008"><a xlink:title=" ">
<path fill="none" stroke="#63b8ff" d="M230.84,-137.3C215.92,-127.56 198.25,-116.02 184.69,-107.16"/>
<polygon fill="#63b8ff" stroke="#63b8ff" points="228.96,-140.26 239.25,-142.8 232.79,-134.4 228.96,-140.26"/>
</a>
</g>
</g>
<!-- Node3 -->
<g id="Node000003" class="node">
<title>Node3</title>
<g id="a_Node000003"><a xlink:href="UGameDataManager_8cpp.html" target="_top" xlink:title="UGameDataManager의 동작을 구현합니다.">
<polygon fill="white" stroke="#666666" points="339.5,-41 176.5,-41 176.5,0 339.5,0 339.5,-41"/>
<text text-anchor="start" x="184.5" y="-29" font-family="Malgun Gothic" font-size="10.00">Source/LatteLibrary</text>
<text text-anchor="start" x="184.5" y="-18" font-family="Malgun Gothic" font-size="10.00">/Manager/Private/UGameData</text>
<text text-anchor="middle" x="258" y="-7" font-family="Malgun Gothic" font-size="10.00">Manager.cpp</text>
</a>
</g>
</g>
<!-- Node2&#45;&gt;Node3 -->
<g id="edge2_Node000002_Node000003" class="edge">
<title>Node2&#45;&gt;Node3</title>
<g id="a_edge2_Node000002_Node000003"><a xlink:title=" ">
<path fill="none" stroke="#63b8ff" d="M363.69,-72.51C343.59,-62.81 318.97,-50.93 298.56,-41.07"/>
<polygon fill="#63b8ff" stroke="#63b8ff" points="362.33,-75.74 372.86,-76.94 365.37,-69.44 362.33,-75.74"/>
</a>
</g>
</g>
<!-- Node4 -->
<g id="Node000004" class="node">
<title>Node4</title>
<g id="a_Node000004"><a xlink:href="UHitStopSystem_8cpp.html" target="_top" xlink:title="UHitStopSystem의 동작을 구현합니다.">
<polygon fill="white" stroke="#666666" points="158,-35.5 0,-35.5 0,-5.5 158,-5.5 158,-35.5"/>
<text text-anchor="start" x="8" y="-23.5" font-family="Malgun Gothic" font-size="10.00">Source/Onepiece/Character</text>
<text text-anchor="middle" x="79" y="-12.5" font-family="Malgun Gothic" font-size="10.00">/Private/UHitStopSystem.cpp</text>
</a>
</g>
</g>
<!-- Node2&#45;&gt;Node4 -->
<g id="edge3_Node000002_Node000004" class="edge">
<title>Node2&#45;&gt;Node4</title>
<g id="a_edge3_Node000002_Node000004"><a xlink:title=" ">
<path fill="none" stroke="#63b8ff" d="M325.48,-74.89C279.52,-65.17 219.88,-52.48 167,-41 158.9,-39.24 150.37,-37.37 141.96,-35.52"/>
<polygon fill="#63b8ff" stroke="#63b8ff" points="324.86,-78.34 335.37,-76.98 326.31,-71.49 324.86,-78.34"/>
</a>
</g>
</g>
<!-- Node5 -->
<g id="Node000005" class="node">
<title>Node5</title>
<g id="a_Node000005"><a xlink:href="UKnockbackSystem_8cpp.html" target="_top" xlink:title="FMath의 동작을 구현합니다.">
<polygon fill="white" stroke="#666666" points="532.5,-35.5 357.5,-35.5 357.5,-5.5 532.5,-5.5 532.5,-35.5"/>
<text text-anchor="start" x="365.5" y="-23.5" font-family="Malgun Gothic" font-size="10.00">Source/Onepiece/Character</text>
<text text-anchor="middle" x="445" y="-12.5" font-family="Malgun Gothic" font-size="10.00">/Private/UKnockbackSystem.cpp</text>
</a>
</g>
</g>
<!-- Node2&#45;&gt;Node5 -->
<g id="edge4_Node000002_Node000005" class="edge">
<title>Node2&#45;&gt;Node5</title>
<g id="a_edge4_Node000002_Node000005"><a xlink:title=" ">
<path fill="none" stroke="#63b8ff" d="M415.99,-68.38C422.69,-57.57 430.49,-44.96 436.31,-35.54"/>
<polygon fill="#63b8ff" stroke="#63b8ff" points="412.99,-66.59 410.7,-76.94 418.94,-70.27 412.99,-66.59"/>
</a>
</g>
</g>
<!-- Node6 -->
<g id="Node000006" class="node">
<title>Node6</title>
<g id="a_Node000006"><a xlink:href="LuggageManager_8cpp.html" target="_top" xlink:title=" ">
<polygon fill="white" stroke="#666666" points="711.5,-35.5 550.5,-35.5 550.5,-5.5 711.5,-5.5 711.5,-35.5"/>
<text text-anchor="start" x="558.5" y="-23.5" font-family="Malgun Gothic" font-size="10.00">Source/Onepiece/Interactable</text>
<text text-anchor="middle" x="631" y="-12.5" font-family="Malgun Gothic" font-size="10.00">/Private/LuggageManager.cpp</text>
</a>
</g>
</g>
<!-- Node2&#45;&gt;Node6 -->
<g id="edge5_Node000002_Node000006" class="edge">
<title>Node2&#45;&gt;Node6</title>
<g id="a_edge5_Node000002_Node000006"><a xlink:title=" ">
<path fill="none" stroke="#63b8ff" d="M457.95,-74.02C496.86,-62.21 548.12,-46.65 584.73,-35.54"/>
<polygon fill="#63b8ff" stroke="#63b8ff" points="456.89,-70.68 448.34,-76.94 458.93,-77.38 456.89,-70.68"/>
</a>
</g>
</g>
<!-- Node7 -->
<g id="Node000007" class="node">
<title>Node7</title>
<g id="a_Node000007"><a xlink:href="luggage_8cpp.html" target="_top" xlink:title=" ">
<polygon fill="white" stroke="#666666" points="890,-35.5 730,-35.5 730,-5.5 890,-5.5 890,-35.5"/>
<text text-anchor="start" x="738" y="-23.5" font-family="Malgun Gothic" font-size="10.00">Source/Onepiece/Interactable</text>
<text text-anchor="middle" x="810" y="-12.5" font-family="Malgun Gothic" font-size="10.00">/Private/luggage.cpp</text>
</a>
</g>
</g>
<!-- Node2&#45;&gt;Node7 -->
<g id="edge6_Node000002_Node000007" class="edge">
<title>Node2&#45;&gt;Node7</title>
<g id="a_edge6_Node000002_Node000007"><a xlink:title=" ">
<path fill="none" stroke="#63b8ff" d="M511.55,-75.49C573.23,-66.35 651.59,-54.03 721,-41 729.86,-39.34 739.19,-37.45 748.34,-35.51"/>
<polygon fill="#63b8ff" stroke="#63b8ff" points="510.79,-72.07 501.41,-76.99 511.82,-78.99 510.79,-72.07"/>
</a>
</g>
</g>
<!-- Node8&#45;&gt;Node4 -->
<g id="edge8_Node000008_Node000004" class="edge">
<title>Node8&#45;&gt;Node4</title>
<g id="a_edge8_Node000008_Node000004"><a xlink:title=" ">
<path fill="none" stroke="#63b8ff" d="M137.99,-70.31C124.43,-59.09 108.04,-45.52 95.97,-35.54"/>
<polygon fill="#63b8ff" stroke="#63b8ff" points="136.07,-73.26 146,-76.94 140.53,-67.86 136.07,-73.26"/>
</a>
</g>
</g>
</g>
</svg>

<g id="navigator" transform="translate(0 0)" fill="#404254">
  <rect fill="#f2f5e9" fill-opacity="0.5" stroke="#606060" stroke-width=".5" x="0" y="0" width="60" height="60"/>
  <use id="zoomplus" xlink:href="#zoomPlus" x="17" y="9" onmousedown="handleZoom(evt,'in')"/>
  <use id="zoomminus" xlink:href="#zoomMin" x="42" y="9" onmousedown="handleZoom(evt,'out')"/>
  <use id="reset" xlink:href="#resetDef" x="30" y="36" onmousedown="handleReset()"/>
   <use id="arrowup" xlink:href="#arrowUp" x="0" y="0" onmousedown="handlePan(0,-1)"/>
  <use id="arrowright" xlink:href="#arrowRight" x="0" y="0" onmousedown="handlePan(1,0)"/>
  <use id="arrowdown" xlink:href="#arrowDown" x="0" y="0" onmousedown="handlePan(0,1)"/>
  <use id="arrowleft" xlink:href="#arrowLeft" x="0" y="0" onmousedown="handlePan(-1,0)"/>
</g>
<svg viewBox="0 0 15 15" width="100%" height="30px" preserveAspectRatio="xMaxYMin meet">
 <g id="arrow_out" transform="scale(0.3 0.3)">
  <a xlink:href="FHitStopData_8h__dep__incl_org.svg" target="_base">
   <rect id="button" ry="5" rx="5" y="6" x="6" height="38" width="38"
        fill="#f2f5e9" fill-opacity="0.5" stroke="#606060" stroke-width="1.0"/>
   <path id="arrow"
     d="M 11.500037,31.436501 C 11.940474,20.09759 22.043105,11.32322 32.158766,21.979434 L 37.068811,17.246167 C 37.068811,17.246167 37.088388,32 37.088388,32 L 22.160133,31.978069 C 22.160133,31.978069 26.997745,27.140456 26.997745,27.140456 C 18.528582,18.264221 13.291696,25.230495 11.500037,31.436501 z"
     style="fill:#404040;"/>
  </a>
 </g>
</svg>

<style type='text/css'>
<![CDATA[
[data-mouse-over-selected='false'] { opacity: 0.7; }
[data-mouse-over-selected='true']  { opacity: 1.0; }
]]>
</style>
<script type="application/ecmascript"><![CDATA[
document.addEventListener('DOMContentLoaded', (event) => {
  highlightEdges();
  highlightAdjacentNodes();
});
]]></script>
</svg>
