<?xml version="1.0" encoding="UTF-8" standalone="no"?>
<!DOCTYPE svg PUBLIC "-//W3C//DTD SVG 1.1//EN"
 "http://www.w3.org/Graphics/SVG/1.1/DTD/svg11.dtd">
<!-- Generated by graphviz version 2.43.0 (0)
 -->
<!-- Title: Source/Onepiece/Network/Private/FHttpMultipartFormData.cpp Pages: 1 -->
<svg width="497pt" height="148pt"
 viewBox="0.00 0.00 496.50 148.00" xmlns="http://www.w3.org/2000/svg" xmlns:xlink="http://www.w3.org/1999/xlink">
<g id="graph0" class="graph" transform="scale(1 1) rotate(0) translate(4 144)">
<title>Source/Onepiece/Network/Private/FHttpMultipartFormData.cpp</title>
<!-- Node1 -->
<g id="Node000001" class="node">
<title>Node1</title>
<g id="a_Node000001"><a xlink:title="FHttpMultipartFormData의 동작을 구현합니다.">
<polygon fill="#999999" stroke="#666666" points="401.5,-140 204.5,-140 204.5,-110 401.5,-110 401.5,-140"/>
<text text-anchor="start" x="212.5" y="-128" font-family="Malgun Gothic" font-size="10.00">Source/Onepiece/Network</text>
<text text-anchor="middle" x="303" y="-117" font-family="Malgun Gothic" font-size="10.00">/Private/FHttpMultipartFormData.cpp</text>
</a>
</g>
</g>
<!-- Node2 -->
<g id="Node000002" class="node">
<title>Node2</title>
<g id="a_Node000002"><a xlink:href="FHttpMultipartFormData_8h.html" target="_top" xlink:title="FHttpMultipartFormData 클래스를 선언합니다.">
<polygon fill="white" stroke="#666666" points="182.5,-74 37.5,-74 37.5,-55 182.5,-55 182.5,-74"/>
<text text-anchor="middle" x="110" y="-62" font-family="Malgun Gothic" font-size="10.00">FHttpMultipartFormData.h</text>
</a>
</g>
</g>
<!-- Node1&#45;&gt;Node2 -->
<g id="edge1_Node000001_Node000002" class="edge">
<title>Node1&#45;&gt;Node2</title>
<g id="a_edge1_Node000001_Node000002"><a xlink:title=" ">
<path fill="none" stroke="#63b8ff" d="M256.77,-109.99C223.46,-99.89 179.07,-86.44 147.86,-76.98"/>
<polygon fill="#63b8ff" stroke="#63b8ff" points="148.8,-73.6 138.22,-74.05 146.77,-80.3 148.8,-73.6"/>
</a>
</g>
</g>
<!-- Node5 -->
<g id="Node000005" class="node">
<title>Node5</title>
<g id="a_Node000005"><a xlink:title=" ">
<polygon fill="#e0e0e0" stroke="#999999" points="301,-74 201,-74 201,-55 301,-55 301,-74"/>
<text text-anchor="middle" x="251" y="-62" font-family="Malgun Gothic" font-size="10.00">Misc/FileHelper.h</text>
</a>
</g>
</g>
<!-- Node1&#45;&gt;Node5 -->
<g id="edge4_Node000001_Node000005" class="edge">
<title>Node1&#45;&gt;Node5</title>
<g id="a_edge4_Node000001_Node000005"><a xlink:title=" ">
<path fill="none" stroke="#63b8ff" d="M290.41,-109.84C282.94,-101.43 273.44,-90.74 265.63,-81.96"/>
<polygon fill="#63b8ff" stroke="#63b8ff" points="268.05,-79.41 258.79,-74.27 262.82,-84.07 268.05,-79.41"/>
</a>
</g>
</g>
<!-- Node6 -->
<g id="Node000006" class="node">
<title>Node6</title>
<g id="a_Node000006"><a xlink:title=" ">
<polygon fill="#e0e0e0" stroke="#999999" points="393,-74 319,-74 319,-55 393,-55 393,-74"/>
<text text-anchor="middle" x="356" y="-62" font-family="Malgun Gothic" font-size="10.00">Misc/Guid.h</text>
</a>
</g>
</g>
<!-- Node1&#45;&gt;Node6 -->
<g id="edge5_Node000001_Node000006" class="edge">
<title>Node1&#45;&gt;Node6</title>
<g id="a_edge5_Node000001_Node000006"><a xlink:title=" ">
<path fill="none" stroke="#63b8ff" d="M315.83,-109.84C323.52,-101.35 333.33,-90.52 341.33,-81.69"/>
<polygon fill="#63b8ff" stroke="#63b8ff" points="343.94,-84.03 348.06,-74.27 338.75,-79.33 343.94,-84.03"/>
</a>
</g>
</g>
<!-- Node7 -->
<g id="Node000007" class="node">
<title>Node7</title>
<g id="a_Node000007"><a xlink:title=" ">
<polygon fill="#e0e0e0" stroke="#999999" points="488.5,-74 411.5,-74 411.5,-55 488.5,-55 488.5,-74"/>
<text text-anchor="middle" x="450" y="-62" font-family="Malgun Gothic" font-size="10.00">Misc/Paths.h</text>
</a>
</g>
</g>
<!-- Node1&#45;&gt;Node7 -->
<g id="edge6_Node000001_Node000007" class="edge">
<title>Node1&#45;&gt;Node7</title>
<g id="a_edge6_Node000001_Node000007"><a xlink:title=" ">
<path fill="none" stroke="#63b8ff" d="M338.21,-109.99C362.74,-100.23 395.15,-87.33 418.76,-77.93"/>
<polygon fill="#63b8ff" stroke="#63b8ff" points="420.29,-81.09 428.29,-74.14 417.71,-74.58 420.29,-81.09"/>
</a>
</g>
</g>
<!-- Node3 -->
<g id="Node000003" class="node">
<title>Node3</title>
<g id="a_Node000003"><a xlink:title=" ">
<polygon fill="#e0e0e0" stroke="#999999" points="88,-19 0,-19 0,0 88,0 88,-19"/>
<text text-anchor="middle" x="44" y="-7" font-family="Malgun Gothic" font-size="10.00">CoreMinimal.h</text>
</a>
</g>
</g>
<!-- Node2&#45;&gt;Node3 -->
<g id="edge2_Node000002_Node000003" class="edge">
<title>Node2&#45;&gt;Node3</title>
<g id="a_edge2_Node000002_Node000003"><a xlink:title=" ">
<path fill="none" stroke="#63b8ff" d="M99.4,-54.98C89.54,-47.07 74.65,-35.11 62.78,-25.58"/>
<polygon fill="#63b8ff" stroke="#63b8ff" points="64.79,-22.7 54.8,-19.17 60.4,-28.16 64.79,-22.7"/>
</a>
</g>
</g>
<!-- Node4 -->
<g id="Node000004" class="node">
<title>Node4</title>
<g id="a_Node000004"><a xlink:title=" ">
<polygon fill="#e0e0e0" stroke="#999999" points="247.5,-19 106.5,-19 106.5,0 247.5,0 247.5,-19"/>
<text text-anchor="middle" x="177" y="-7" font-family="Malgun Gothic" font-size="10.00">Interfaces/IHttpRequest.h</text>
</a>
</g>
</g>
<!-- Node2&#45;&gt;Node4 -->
<g id="edge3_Node000002_Node000004" class="edge">
<title>Node2&#45;&gt;Node4</title>
<g id="a_edge3_Node000002_Node000004"><a xlink:title=" ">
<path fill="none" stroke="#63b8ff" d="M120.76,-54.98C130.77,-47.07 145.89,-35.11 157.93,-25.58"/>
<polygon fill="#63b8ff" stroke="#63b8ff" points="160.37,-28.12 166.04,-19.17 156.03,-22.63 160.37,-28.12"/>
</a>
</g>
</g>
</g>
</svg>
