<?xml version="1.0" encoding="UTF-8" standalone="no"?>
<!DOCTYPE svg PUBLIC "-//W3C//DTD SVG 1.1//EN"
 "http://www.w3.org/Graphics/SVG/1.1/DTD/svg11.dtd">
<!-- Generated by graphviz version 2.43.0 (0)
 -->
<!-- Title: Source/LatteLibrary/Data/Public/FKnockbackData.h Pages: 1 -->
<svg width="752pt" height="181pt"
 viewBox="0.00 0.00 751.50 181.00" xmlns="http://www.w3.org/2000/svg" xmlns:xlink="http://www.w3.org/1999/xlink">
<g id="graph0" class="graph" transform="scale(1 1) rotate(0) translate(4 177)">
<title>Source/LatteLibrary/Data/Public/FKnockbackData.h</title>
<!-- Node1 -->
<g id="Node000001" class="node">
<title>Node1</title>
<g id="a_Node000001"><a xlink:title="FKnockbackData 구조체를 선언합니다.">
<polygon fill="#999999" stroke="#666666" points="642.5,-173 472.5,-173 472.5,-143 642.5,-143 642.5,-173"/>
<text text-anchor="start" x="480.5" y="-161" font-family="Malgun Gothic" font-size="10.00">Source/LatteLibrary</text>
<text text-anchor="middle" x="557.5" y="-150" font-family="Malgun Gothic" font-size="10.00">/Data/Public/FKnockbackData.h</text>
</a>
</g>
</g>
<!-- Node2 -->
<g id="Node000002" class="node">
<title>Node2</title>
<g id="a_Node000002"><a xlink:href="UGameDataManager_8h.html" target="_top" xlink:title="UGameDataManager 클래스를 선언합니다.">
<polygon fill="white" stroke="#666666" points="529,-107 320,-107 320,-77 529,-77 529,-107"/>
<text text-anchor="start" x="328" y="-95" font-family="Malgun Gothic" font-size="10.00">Source/LatteLibrary</text>
<text text-anchor="middle" x="424.5" y="-84" font-family="Malgun Gothic" font-size="10.00">/Manager/Public/UGameDataManager.h</text>
</a>
</g>
</g>
<!-- Node1&#45;&gt;Node2 -->
<g id="edge1_Node000001_Node000002" class="edge">
<title>Node1&#45;&gt;Node2</title>
<g id="a_edge1_Node000001_Node000002"><a xlink:title=" ">
<path fill="none" stroke="#63b8ff" d="M519.08,-138.51C498.22,-128.47 472.83,-116.26 453.62,-107.01"/>
<polygon fill="#63b8ff" stroke="#63b8ff" points="517.78,-141.77 528.31,-142.95 520.82,-135.46 517.78,-141.77"/>
</a>
</g>
</g>
<!-- Node5 -->
<g id="Node000005" class="node">
<title>Node5</title>
<g id="a_Node000005"><a xlink:href="UKnockbackSystem_8cpp.html" target="_top" xlink:title="FMath의 동작을 구현합니다.">
<polygon fill="white" stroke="#666666" points="730,-35.5 555,-35.5 555,-5.5 730,-5.5 730,-35.5"/>
<text text-anchor="start" x="563" y="-23.5" font-family="Malgun Gothic" font-size="10.00">Source/Onepiece/Character</text>
<text text-anchor="middle" x="642.5" y="-12.5" font-family="Malgun Gothic" font-size="10.00">/Private/UKnockbackSystem.cpp</text>
</a>
</g>
</g>
<!-- Node1&#45;&gt;Node5 -->
<g id="edge6_Node000001_Node000005" class="edge">
<title>Node1&#45;&gt;Node5</title>
<g id="a_edge6_Node000001_Node000005"><a xlink:title=" ">
<path fill="none" stroke="#63b8ff" d="M559.23,-132.89C561.35,-116.17 566.05,-93.95 576.5,-77 587.03,-59.92 604.62,-45.52 618.99,-35.66"/>
<polygon fill="#63b8ff" stroke="#63b8ff" points="555.74,-132.67 558.18,-142.98 562.7,-133.39 555.74,-132.67"/>
</a>
</g>
</g>
<!-- Node7 -->
<g id="Node000007" class="node">
<title>Node7</title>
<g id="a_Node000007"><a xlink:href="UKnockbackSystem_8h.html" target="_top" xlink:title="UKnockbackSystem 클래스를 선언합니다.">
<polygon fill="white" stroke="#666666" points="743.5,-107 585.5,-107 585.5,-77 743.5,-77 743.5,-107"/>
<text text-anchor="start" x="593.5" y="-95" font-family="Malgun Gothic" font-size="10.00">Source/Onepiece/Character</text>
<text text-anchor="middle" x="664.5" y="-84" font-family="Malgun Gothic" font-size="10.00">/Public/UKnockbackSystem.h</text>
</a>
</g>
</g>
<!-- Node1&#45;&gt;Node7 -->
<g id="edge7_Node000001_Node000007" class="edge">
<title>Node1&#45;&gt;Node7</title>
<g id="a_edge7_Node000001_Node000007"><a xlink:title=" ">
<path fill="none" stroke="#63b8ff" d="M589.78,-137.69C606.29,-127.82 626.03,-116.01 641.07,-107.01"/>
<polygon fill="#63b8ff" stroke="#63b8ff" points="587.77,-134.82 580.98,-142.95 591.36,-140.83 587.77,-134.82"/>
</a>
</g>
</g>
<!-- Node3 -->
<g id="Node000003" class="node">
<title>Node3</title>
<g id="a_Node000003"><a xlink:href="UGameDataManager_8cpp.html" target="_top" xlink:title="UGameDataManager의 동작을 구현합니다.">
<polygon fill="white" stroke="#666666" points="163,-41 0,-41 0,0 163,0 163,-41"/>
<text text-anchor="start" x="8" y="-29" font-family="Malgun Gothic" font-size="10.00">Source/LatteLibrary</text>
<text text-anchor="start" x="8" y="-18" font-family="Malgun Gothic" font-size="10.00">/Manager/Private/UGameData</text>
<text text-anchor="middle" x="81.5" y="-7" font-family="Malgun Gothic" font-size="10.00">Manager.cpp</text>
</a>
</g>
</g>
<!-- Node2&#45;&gt;Node3 -->
<g id="edge2_Node000002_Node000003" class="edge">
<title>Node2&#45;&gt;Node3</title>
<g id="a_edge2_Node000002_Node000003"><a xlink:title=" ">
<path fill="none" stroke="#63b8ff" d="M342.24,-75.01C292.96,-65.34 229.1,-52.68 172.5,-41 169.49,-40.38 166.43,-39.74 163.34,-39.1"/>
<polygon fill="#63b8ff" stroke="#63b8ff" points="341.72,-78.47 352.21,-76.96 343.06,-71.6 341.72,-78.47"/>
</a>
</g>
</g>
<!-- Node4 -->
<g id="Node000004" class="node">
<title>Node4</title>
<g id="a_Node000004"><a xlink:href="UHitStopSystem_8cpp.html" target="_top" xlink:title="UHitStopSystem의 동작을 구현합니다.">
<polygon fill="white" stroke="#666666" points="339.5,-35.5 181.5,-35.5 181.5,-5.5 339.5,-5.5 339.5,-35.5"/>
<text text-anchor="start" x="189.5" y="-23.5" font-family="Malgun Gothic" font-size="10.00">Source/Onepiece/Character</text>
<text text-anchor="middle" x="260.5" y="-12.5" font-family="Malgun Gothic" font-size="10.00">/Private/UHitStopSystem.cpp</text>
</a>
</g>
</g>
<!-- Node2&#45;&gt;Node4 -->
<g id="edge3_Node000002_Node000004" class="edge">
<title>Node2&#45;&gt;Node4</title>
<g id="a_edge3_Node000002_Node000004"><a xlink:title=" ">
<path fill="none" stroke="#63b8ff" d="M381.93,-72.96C354.39,-61.29 319.08,-46.32 293.64,-35.54"/>
<polygon fill="#63b8ff" stroke="#63b8ff" points="380.74,-76.26 391.31,-76.94 383.47,-69.81 380.74,-76.26"/>
</a>
</g>
</g>
<!-- Node2&#45;&gt;Node5 -->
<g id="edge4_Node000002_Node000005" class="edge">
<title>Node2&#45;&gt;Node5</title>
<g id="a_edge4_Node000002_Node000005"><a xlink:title=" ">
<path fill="none" stroke="#63b8ff" d="M478.24,-73.87C515.22,-62.08 563.75,-46.61 598.45,-35.54"/>
<polygon fill="#63b8ff" stroke="#63b8ff" points="477.08,-70.56 468.62,-76.94 479.21,-77.23 477.08,-70.56"/>
</a>
</g>
</g>
<!-- Node6 -->
<g id="Node000006" class="node">
<title>Node6</title>
<g id="a_Node000006"><a xlink:href="ANetworkTesterActor_8cpp.html" target="_top" xlink:title="ANetworkTesterActor의 동작을 구현합니다.">
<polygon fill="white" stroke="#666666" points="537,-35.5 358,-35.5 358,-5.5 537,-5.5 537,-35.5"/>
<text text-anchor="start" x="366" y="-23.5" font-family="Malgun Gothic" font-size="10.00">Source/Onepiece/Network</text>
<text text-anchor="middle" x="447.5" y="-12.5" font-family="Malgun Gothic" font-size="10.00">/Private/ANetworkTesterActor.cpp</text>
</a>
</g>
</g>
<!-- Node2&#45;&gt;Node6 -->
<g id="edge5_Node000002_Node000006" class="edge">
<title>Node2&#45;&gt;Node6</title>
<g id="a_edge5_Node000002_Node000006"><a xlink:title=" ">
<path fill="none" stroke="#63b8ff" d="M432.31,-67.4C435.81,-56.81 439.83,-44.68 442.85,-35.54"/>
<polygon fill="#63b8ff" stroke="#63b8ff" points="428.97,-66.34 429.15,-76.94 435.62,-68.54 428.97,-66.34"/>
</a>
</g>
</g>
<!-- Node7&#45;&gt;Node5 -->
<g id="edge8_Node000007_Node000005" class="edge">
<title>Node7&#45;&gt;Node5</title>
<g id="a_edge8_Node000007_Node000005"><a xlink:title=" ">
<path fill="none" stroke="#63b8ff" d="M656.93,-67.08C653.6,-56.56 649.81,-44.58 646.95,-35.54"/>
<polygon fill="#63b8ff" stroke="#63b8ff" points="653.69,-68.46 660.05,-76.94 660.37,-66.35 653.69,-68.46"/>
</a>
</g>
</g>
</g>
</svg>
