<?xml version="1.0" encoding="UTF-8" standalone="no"?>
<!DOCTYPE svg PUBLIC "-//W3C//DTD SVG 1.1//EN"
 "http://www.w3.org/Graphics/SVG/1.1/DTD/svg11.dtd">
<!-- Generated by graphviz version 2.43.0 (0)
 -->
<!-- Title: Source/CoffeeLibrary/Shared/Public/FLogWriter.h Pages: 1 -->
<svg width="1591pt" height="181pt"
 viewBox="0.00 0.00 1590.50 181.00" xmlns="http://www.w3.org/2000/svg" xmlns:xlink="http://www.w3.org/1999/xlink">
<g id="graph0" class="graph" transform="scale(1 1) rotate(0) translate(4 177)">
<title>Source/CoffeeLibrary/Shared/Public/FLogWriter.h</title>
<!-- Node1 -->
<g id="Node000001" class="node">
<title>Node1</title>
<g id="a_Node000001"><a xlink:title="FArchive 클래스를 선언합니다.">
<polygon fill="#999999" stroke="#666666" points="784,-173 634,-173 634,-143 784,-143 784,-173"/>
<text text-anchor="start" x="642" y="-161" font-family="Malgun Gothic" font-size="10.00">Source/CoffeeLibrary</text>
<text text-anchor="middle" x="709" y="-150" font-family="Malgun Gothic" font-size="10.00">/Shared/Public/FLogWriter.h</text>
</a>
</g>
</g>
<!-- Node2 -->
<g id="Node000002" class="node">
<title>Node2</title>
<g id="a_Node000002"><a xlink:href="FLogWriter_8cpp.html" target="_top" xlink:title="FLogWriter의 동작을 구현합니다.">
<polygon fill="white" stroke="#666666" points="700.5,-107 533.5,-107 533.5,-77 700.5,-77 700.5,-107"/>
<text text-anchor="start" x="541.5" y="-95" font-family="Malgun Gothic" font-size="10.00">Source/CoffeeLibrary</text>
<text text-anchor="middle" x="617" y="-84" font-family="Malgun Gothic" font-size="10.00">/Shared/Private/FLogWriter.cpp</text>
</a>
</g>
</g>
<!-- Node1&#45;&gt;Node2 -->
<g id="edge1_Node000001_Node000002" class="edge">
<title>Node1&#45;&gt;Node2</title>
<g id="a_edge1_Node000001_Node000002"><a xlink:title=" ">
<path fill="none" stroke="#63b8ff" d="M680.29,-137.03C666.37,-127.34 649.97,-115.94 637.36,-107.16"/>
<polygon fill="#63b8ff" stroke="#63b8ff" points="678.37,-139.96 688.58,-142.8 682.37,-134.21 678.37,-139.96"/>
</a>
</g>
</g>
<!-- Node3 -->
<g id="Node000003" class="node">
<title>Node3</title>
<g id="a_Node000003"><a xlink:href="GameLogging_8h.html" target="_top" xlink:title="YiSan 전반에서 사용하는 공용 인터페이스를 선언합니다.">
<polygon fill="white" stroke="#666666" points="883.5,-107 718.5,-107 718.5,-77 883.5,-77 883.5,-107"/>
<text text-anchor="start" x="726.5" y="-95" font-family="Malgun Gothic" font-size="10.00">Source/CoffeeLibrary</text>
<text text-anchor="middle" x="801" y="-84" font-family="Malgun Gothic" font-size="10.00">/Shared/Public/GameLogging.h</text>
</a>
</g>
</g>
<!-- Node1&#45;&gt;Node3 -->
<g id="edge2_Node000001_Node000003" class="edge">
<title>Node1&#45;&gt;Node3</title>
<g id="a_edge2_Node000001_Node000003"><a xlink:title=" ">
<path fill="none" stroke="#63b8ff" d="M737.71,-137.03C751.63,-127.34 768.03,-115.94 780.64,-107.16"/>
<polygon fill="#63b8ff" stroke="#63b8ff" points="735.63,-134.21 729.42,-142.8 739.63,-139.96 735.63,-134.21"/>
</a>
</g>
</g>
<!-- Node4 -->
<g id="Node000004" class="node">
<title>Node4</title>
<g id="a_Node000004"><a xlink:href="GameLogging_8cpp.html" target="_top" xlink:title="YiSan 프로젝트를 위한 런타임 헬퍼를 제공합니다.">
<polygon fill="white" stroke="#666666" points="182,-35.5 0,-35.5 0,-5.5 182,-5.5 182,-35.5"/>
<text text-anchor="start" x="8" y="-23.5" font-family="Malgun Gothic" font-size="10.00">Source/CoffeeLibrary</text>
<text text-anchor="middle" x="91" y="-12.5" font-family="Malgun Gothic" font-size="10.00">/Shared/Private/GameLogging.cpp</text>
</a>
</g>
</g>
<!-- Node3&#45;&gt;Node4 -->
<g id="edge3_Node000003_Node000004" class="edge">
<title>Node3&#45;&gt;Node4</title>
<g id="a_edge3_Node000003_Node000004"><a xlink:title=" ">
<path fill="none" stroke="#63b8ff" d="M708.26,-76.99C477.89,-52.16 416.56,-70.72 191,-41 179.86,-39.53 168.1,-37.59 156.7,-35.51"/>
<polygon fill="#63b8ff" stroke="#63b8ff" points="707.97,-80.48 718.29,-78.09 708.73,-73.52 707.97,-80.48"/>
</a>
</g>
</g>
<!-- Node5 -->
<g id="Node000005" class="node">
<title>Node5</title>
<g id="a_Node000005"><a xlink:href="UCharacterData_8cpp.html" target="_top" xlink:title="UCharacterData의 동작을 구현합니다.">
<polygon fill="white" stroke="#666666" points="382,-35.5 200,-35.5 200,-5.5 382,-5.5 382,-35.5"/>
<text text-anchor="start" x="208" y="-23.5" font-family="Malgun Gothic" font-size="10.00">Source/LatteLibrary</text>
<text text-anchor="middle" x="291" y="-12.5" font-family="Malgun Gothic" font-size="10.00">/Data/Private/UCharacterData.cpp</text>
</a>
</g>
</g>
<!-- Node3&#45;&gt;Node5 -->
<g id="edge4_Node000003_Node000005" class="edge">
<title>Node3&#45;&gt;Node5</title>
<g id="a_edge4_Node000003_Node000005"><a xlink:title=" ">
<path fill="none" stroke="#63b8ff" d="M708.31,-76.95C566.31,-58.48 528.42,-62.14 391,-41 380.6,-39.4 369.63,-37.49 358.92,-35.5"/>
<polygon fill="#63b8ff" stroke="#63b8ff" points="707.9,-80.42 718.27,-78.26 708.81,-73.48 707.9,-80.42"/>
</a>
</g>
</g>
<!-- Node6 -->
<g id="Node000006" class="node">
<title>Node6</title>
<g id="a_Node000006"><a xlink:href="UGameDataManager_8cpp.html" target="_top" xlink:title="UGameDataManager의 동작을 구현합니다.">
<polygon fill="white" stroke="#666666" points="563.5,-41 400.5,-41 400.5,0 563.5,0 563.5,-41"/>
<text text-anchor="start" x="408.5" y="-29" font-family="Malgun Gothic" font-size="10.00">Source/LatteLibrary</text>
<text text-anchor="start" x="408.5" y="-18" font-family="Malgun Gothic" font-size="10.00">/Manager/Private/UGameData</text>
<text text-anchor="middle" x="482" y="-7" font-family="Malgun Gothic" font-size="10.00">Manager.cpp</text>
</a>
</g>
</g>
<!-- Node3&#45;&gt;Node6 -->
<g id="edge5_Node000003_Node000006" class="edge">
<title>Node3&#45;&gt;Node6</title>
<g id="a_edge5_Node000003_Node000006"><a xlink:title=" ">
<path fill="none" stroke="#63b8ff" d="M726.59,-74.79C677.8,-64.16 613.99,-50.26 563.78,-39.32"/>
<polygon fill="#63b8ff" stroke="#63b8ff" points="725.93,-78.23 736.45,-76.94 727.42,-71.39 725.93,-78.23"/>
</a>
</g>
</g>
<!-- Node7 -->
<g id="Node000007" class="node">
<title>Node7</title>
<g id="a_Node000007"><a xlink:href="UGameVFXManager_8cpp.html" target="_top" xlink:title="UGameVFXManager의 동작을 구현합니다.">
<polygon fill="white" stroke="#666666" points="802.5,-35.5 581.5,-35.5 581.5,-5.5 802.5,-5.5 802.5,-35.5"/>
<text text-anchor="start" x="589.5" y="-23.5" font-family="Malgun Gothic" font-size="10.00">Source/LatteLibrary</text>
<text text-anchor="middle" x="692" y="-12.5" font-family="Malgun Gothic" font-size="10.00">/Manager/Private/UGameVFXManager.cpp</text>
</a>
</g>
</g>
<!-- Node3&#45;&gt;Node7 -->
<g id="edge6_Node000003_Node000007" class="edge">
<title>Node3&#45;&gt;Node7</title>
<g id="a_edge6_Node000003_Node000007"><a xlink:title=" ">
<path fill="none" stroke="#63b8ff" d="M770.03,-71.25C752.17,-59.86 730.12,-45.81 714.02,-35.54"/>
<polygon fill="#63b8ff" stroke="#63b8ff" points="768.63,-74.51 778.94,-76.94 772.39,-68.61 768.63,-74.51"/>
</a>
</g>
</g>
<!-- Node8 -->
<g id="Node000008" class="node">
<title>Node8</title>
<g id="a_Node000008"><a xlink:href="ANetworkTesterActor_8cpp.html" target="_top" xlink:title="ANetworkTesterActor의 동작을 구현합니다.">
<polygon fill="white" stroke="#666666" points="999.5,-35.5 820.5,-35.5 820.5,-5.5 999.5,-5.5 999.5,-35.5"/>
<text text-anchor="start" x="828.5" y="-23.5" font-family="Malgun Gothic" font-size="10.00">Source/Onepiece/Network</text>
<text text-anchor="middle" x="910" y="-12.5" font-family="Malgun Gothic" font-size="10.00">/Private/ANetworkTesterActor.cpp</text>
</a>
</g>
</g>
<!-- Node3&#45;&gt;Node8 -->
<g id="edge7_Node000003_Node000008" class="edge">
<title>Node3&#45;&gt;Node8</title>
<g id="a_edge7_Node000003_Node000008"><a xlink:title=" ">
<path fill="none" stroke="#63b8ff" d="M831.97,-71.25C849.83,-59.86 871.88,-45.81 887.98,-35.54"/>
<polygon fill="#63b8ff" stroke="#63b8ff" points="829.61,-68.61 823.06,-76.94 833.37,-74.51 829.61,-68.61"/>
</a>
</g>
</g>
<!-- Node9 -->
<g id="Node000009" class="node">
<title>Node9</title>
<g id="a_Node000009"><a xlink:href="UHttpNetworkSystem_8cpp.html" target="_top" xlink:title="UHttpNetworkSystem의 동작을 구현합니다.">
<polygon fill="white" stroke="#666666" points="1202,-35.5 1018,-35.5 1018,-5.5 1202,-5.5 1202,-35.5"/>
<text text-anchor="start" x="1026" y="-23.5" font-family="Malgun Gothic" font-size="10.00">Source/Onepiece/Network</text>
<text text-anchor="middle" x="1110" y="-12.5" font-family="Malgun Gothic" font-size="10.00">/Private/UHttpNetworkSystem.cpp</text>
</a>
</g>
</g>
<!-- Node3&#45;&gt;Node9 -->
<g id="edge8_Node000003_Node000009" class="edge">
<title>Node3&#45;&gt;Node9</title>
<g id="a_edge8_Node000003_Node000009"><a xlink:title=" ">
<path fill="none" stroke="#63b8ff" d="M873.51,-74.69C926.36,-62.8 997.22,-46.87 1047.56,-35.54"/>
<polygon fill="#63b8ff" stroke="#63b8ff" points="872.52,-71.33 863.53,-76.94 874.06,-78.16 872.52,-71.33"/>
</a>
</g>
</g>
<!-- Node10 -->
<g id="Node000010" class="node">
<title>Node10</title>
<g id="a_Node000010"><a xlink:href="ULoadginCircle_8cpp.html" target="_top" xlink:title="ULoadginCircle의 동작을 구현합니다.">
<polygon fill="white" stroke="#666666" points="1371.5,-35.5 1220.5,-35.5 1220.5,-5.5 1371.5,-5.5 1371.5,-35.5"/>
<text text-anchor="start" x="1228.5" y="-23.5" font-family="Malgun Gothic" font-size="10.00">Source/Onepiece/UI</text>
<text text-anchor="middle" x="1296" y="-12.5" font-family="Malgun Gothic" font-size="10.00">/Private/ULoadginCircle.cpp</text>
</a>
</g>
</g>
<!-- Node3&#45;&gt;Node10 -->
<g id="edge9_Node000003_Node000010" class="edge">
<title>Node3&#45;&gt;Node10</title>
<g id="a_edge9_Node000003_Node000010"><a xlink:title=" ">
<path fill="none" stroke="#63b8ff" d="M893.78,-82.47C977.15,-74.14 1102.74,-59.97 1211,-41 1219.95,-39.43 1229.37,-37.53 1238.55,-35.53"/>
<polygon fill="#63b8ff" stroke="#63b8ff" points="893.44,-78.99 883.83,-83.46 894.13,-85.95 893.44,-78.99"/>
</a>
</g>
</g>
<!-- Node11 -->
<g id="Node000011" class="node">
<title>Node11</title>
<g id="a_Node000011"><a xlink:href="ULoadingCircleManager_8cpp.html" target="_top" xlink:title="ULoadingCircleManager의 동작을 구현합니다.">
<polygon fill="white" stroke="#666666" points="1582.5,-35.5 1389.5,-35.5 1389.5,-5.5 1582.5,-5.5 1582.5,-35.5"/>
<text text-anchor="start" x="1397.5" y="-23.5" font-family="Malgun Gothic" font-size="10.00">Source/Onepiece/UI</text>
<text text-anchor="middle" x="1486" y="-12.5" font-family="Malgun Gothic" font-size="10.00">/Private/ULoadingCircleManager.cpp</text>
</a>
</g>
</g>
<!-- Node3&#45;&gt;Node11 -->
<g id="edge10_Node000003_Node000011" class="edge">
<title>Node3&#45;&gt;Node11</title>
<g id="a_edge10_Node000003_Node000011"><a xlink:title=" ">
<path fill="none" stroke="#63b8ff" d="M894.04,-85.79C1008.86,-78.71 1209.9,-64.21 1381,-41 1392.3,-39.47 1404.23,-37.55 1415.84,-35.51"/>
<polygon fill="#63b8ff" stroke="#63b8ff" points="893.65,-82.3 883.88,-86.41 894.08,-89.29 893.65,-82.3"/>
</a>
</g>
</g>
</g>
</svg>
