<?xml version="1.0" encoding="UTF-8" standalone="no"?>
<!DOCTYPE svg PUBLIC "-//W3C//DTD SVG 1.1//EN"
 "http://www.w3.org/Graphics/SVG/1.1/DTD/svg11.dtd">
<!-- Generated by graphviz version 2.43.0 (0)
 -->
<!-- Title: Source/CoffeeLibrary/Shared/Public/GameLogging.h Pages: 1 -->
<!--zoomable 115 -->

<svg id="main" version="1.1" xmlns="http://www.w3.org/2000/svg" xmlns:xlink="http://www.w3.org/1999/xlink" xml:space="preserve" onload="init(evt)">
<style type="text/css"><![CDATA[
.node, .edge {opacity: 0.7;}
.node.selected, .edge.selected {opacity: 1;}
.edge:hover path { stroke: red; }
.edge:hover polygon { stroke: red; fill: red; }
]]></style>

<defs>
  <circle id="rim" cx="0" cy="0" r="7"/>
  <circle id="rim2" cx="0" cy="0" r="3.5"/>
  <g id="zoomPlus">
    <use xlink:href="#rim" fill="#404040"><set attributeName="fill" to="#808080" begin="zoomplus.mouseover" end="zoomplus.mouseout"/></use>
    <path d="M-4,0h8M0,-4v8" fill="none" stroke="white" stroke-width="1.5" pointer-events="none"/>
  </g>
  <g id="zoomMin">
    <use xlink:href="#rim" fill="#404040"><set attributeName="fill" to="#808080" begin="zoomminus.mouseover" end="zoomminus.mouseout"/></use>
    <path d="M-4,0h8" fill="none" stroke="white" stroke-width="1.5" pointer-events="none"/>
  </g>
  <g id="arrowUp" transform="translate(30 24)">
    <use xlink:href="#rim"/>
    <path pointer-events="none" fill="none" stroke="white" stroke-width="1.5" d="M0,-3.0v7 M-2.5,-0.5L0,-3.0L2.5,-0.5"/>
  </g>
  <g id="arrowRight" transform="rotate(90) translate(36 -43)">
    <use xlink:href="#rim"/>
    <path pointer-events="none" fill="none" stroke="white" stroke-width="1.5" d="M0,-3.0v7 M-2.5,-0.5L0,-3.0L2.5,-0.5"/>
  </g>
  <g id="arrowDown" transform="rotate(180) translate(-30 -48)">
    <use xlink:href="#rim"/>
    <path pointer-events="none" fill="none" stroke="white" stroke-width="1.5" d="M0,-3.0v7 M-2.5,-0.5L0,-3.0L2.5,-0.5"/>
  </g>
  <g id="arrowLeft" transform="rotate(270) translate(-36 17)">
    <use xlink:href="#rim"/>
    <path pointer-events="none" fill="none" stroke="white" stroke-width="1.5" d="M0,-3.0v7 M-2.5,-0.5L0,-3.0L2.5,-0.5"/>
  </g>
  <g id="resetDef">
    <use xlink:href="#rim2" fill="#404040"><set attributeName="fill" to="#808080" begin="reset.mouseover" end="reset.mouseout"/></use>
  </g>
</defs>
<script type="application/ecmascript">
var viewWidth = 1591;
var viewHeight = 115;
var sectionId = 'dynsection-1';
</script>
<script type="application/ecmascript" xlink:href="svg.min.js"/>
<svg id="graph" class="graph">
<g id="viewport">
<title>Source/CoffeeLibrary/Shared/Public/GameLogging.h</title>
<!-- Node1 -->
<g id="Node000001" class="node">
<title>Node1</title>
<g id="a_Node000001"><a xlink:title="YiSan 전반에서 사용하는 공용 인터페이스를 선언합니다.">
<polygon fill="#999999" stroke="#666666" points="883.5,-107 718.5,-107 718.5,-77 883.5,-77 883.5,-107"/>
<text text-anchor="start" x="726.5" y="-95" font-family="Malgun Gothic" font-size="10.00">Source/CoffeeLibrary</text>
<text text-anchor="middle" x="801" y="-84" font-family="Malgun Gothic" font-size="10.00">/Shared/Public/GameLogging.h</text>
</a>
</g>
</g>
<!-- Node2 -->
<g id="Node000002" class="node">
<title>Node2</title>
<g id="a_Node000002"><a xlink:href="GameLogging_8cpp.html" target="_top" xlink:title="YiSan 프로젝트를 위한 런타임 헬퍼를 제공합니다.">
<polygon fill="white" stroke="#666666" points="182,-35.5 0,-35.5 0,-5.5 182,-5.5 182,-35.5"/>
<text text-anchor="start" x="8" y="-23.5" font-family="Malgun Gothic" font-size="10.00">Source/CoffeeLibrary</text>
<text text-anchor="middle" x="91" y="-12.5" font-family="Malgun Gothic" font-size="10.00">/Shared/Private/GameLogging.cpp</text>
</a>
</g>
</g>
<!-- Node1&#45;&gt;Node2 -->
<g id="edge1_Node000001_Node000002" class="edge">
<title>Node1&#45;&gt;Node2</title>
<g id="a_edge1_Node000001_Node000002"><a xlink:title=" ">
<path fill="none" stroke="#63b8ff" d="M708.06,-86.59C588.16,-80.17 373.31,-66.17 191,-41 180.14,-39.5 168.67,-37.58 157.53,-35.54"/>
<polygon fill="#63b8ff" stroke="#63b8ff" points="708.13,-90.1 718.3,-87.13 708.5,-83.11 708.13,-90.1"/>
</a>
</g>
</g>
<!-- Node3 -->
<g id="Node000003" class="node">
<title>Node3</title>
<g id="a_Node000003"><a xlink:href="UCharacterData_8cpp.html" target="_top" xlink:title="UCharacterData의 동작을 구현합니다.">
<polygon fill="white" stroke="#666666" points="382,-35.5 200,-35.5 200,-5.5 382,-5.5 382,-35.5"/>
<text text-anchor="start" x="208" y="-23.5" font-family="Malgun Gothic" font-size="10.00">Source/LatteLibrary</text>
<text text-anchor="middle" x="291" y="-12.5" font-family="Malgun Gothic" font-size="10.00">/Data/Private/UCharacterData.cpp</text>
</a>
</g>
</g>
<!-- Node1&#45;&gt;Node3 -->
<g id="edge2_Node000001_Node000003" class="edge">
<title>Node1&#45;&gt;Node3</title>
<g id="a_edge2_Node000001_Node000003"><a xlink:title=" ">
<path fill="none" stroke="#63b8ff" d="M708.11,-81.58C624.83,-72.68 499.44,-58.16 391,-41 380.78,-39.38 370.01,-37.49 359.47,-35.52"/>
<polygon fill="#63b8ff" stroke="#63b8ff" points="707.99,-85.09 718.3,-82.66 708.73,-78.13 707.99,-85.09"/>
</a>
</g>
</g>
<!-- Node4 -->
<g id="Node000004" class="node">
<title>Node4</title>
<g id="a_Node000004"><a xlink:href="UGameDataManager_8cpp.html" target="_top" xlink:title="UGameDataManager의 동작을 구현합니다.">
<polygon fill="white" stroke="#666666" points="563.5,-41 400.5,-41 400.5,0 563.5,0 563.5,-41"/>
<text text-anchor="start" x="408.5" y="-29" font-family="Malgun Gothic" font-size="10.00">Source/LatteLibrary</text>
<text text-anchor="start" x="408.5" y="-18" font-family="Malgun Gothic" font-size="10.00">/Manager/Private/UGameData</text>
<text text-anchor="middle" x="482" y="-7" font-family="Malgun Gothic" font-size="10.00">Manager.cpp</text>
</a>
</g>
</g>
<!-- Node1&#45;&gt;Node4 -->
<g id="edge3_Node000001_Node000004" class="edge">
<title>Node1&#45;&gt;Node4</title>
<g id="a_edge3_Node000001_Node000004"><a xlink:title=" ">
<path fill="none" stroke="#63b8ff" d="M726.59,-74.79C677.8,-64.16 613.99,-50.26 563.78,-39.32"/>
<polygon fill="#63b8ff" stroke="#63b8ff" points="725.93,-78.23 736.45,-76.94 727.42,-71.39 725.93,-78.23"/>
</a>
</g>
</g>
<!-- Node5 -->
<g id="Node000005" class="node">
<title>Node5</title>
<g id="a_Node000005"><a xlink:href="UGameVFXManager_8cpp.html" target="_top" xlink:title="UGameVFXManager의 동작을 구현합니다.">
<polygon fill="white" stroke="#666666" points="802.5,-35.5 581.5,-35.5 581.5,-5.5 802.5,-5.5 802.5,-35.5"/>
<text text-anchor="start" x="589.5" y="-23.5" font-family="Malgun Gothic" font-size="10.00">Source/LatteLibrary</text>
<text text-anchor="middle" x="692" y="-12.5" font-family="Malgun Gothic" font-size="10.00">/Manager/Private/UGameVFXManager.cpp</text>
</a>
</g>
</g>
<!-- Node1&#45;&gt;Node5 -->
<g id="edge4_Node000001_Node000005" class="edge">
<title>Node1&#45;&gt;Node5</title>
<g id="a_edge4_Node000001_Node000005"><a xlink:title=" ">
<path fill="none" stroke="#63b8ff" d="M770.03,-71.25C752.17,-59.86 730.12,-45.81 714.02,-35.54"/>
<polygon fill="#63b8ff" stroke="#63b8ff" points="768.63,-74.51 778.94,-76.94 772.39,-68.61 768.63,-74.51"/>
</a>
</g>
</g>
<!-- Node6 -->
<g id="Node000006" class="node">
<title>Node6</title>
<g id="a_Node000006"><a xlink:href="ANetworkTesterActor_8cpp.html" target="_top" xlink:title="ANetworkTesterActor의 동작을 구현합니다.">
<polygon fill="white" stroke="#666666" points="999.5,-35.5 820.5,-35.5 820.5,-5.5 999.5,-5.5 999.5,-35.5"/>
<text text-anchor="start" x="828.5" y="-23.5" font-family="Malgun Gothic" font-size="10.00">Source/Onepiece/Network</text>
<text text-anchor="middle" x="910" y="-12.5" font-family="Malgun Gothic" font-size="10.00">/Private/ANetworkTesterActor.cpp</text>
</a>
</g>
</g>
<!-- Node1&#45;&gt;Node6 -->
<g id="edge5_Node000001_Node000006" class="edge">
<title>Node1&#45;&gt;Node6</title>
<g id="a_edge5_Node000001_Node000006"><a xlink:title=" ">
<path fill="none" stroke="#63b8ff" d="M831.97,-71.25C849.83,-59.86 871.88,-45.81 887.98,-35.54"/>
<polygon fill="#63b8ff" stroke="#63b8ff" points="829.61,-68.61 823.06,-76.94 833.37,-74.51 829.61,-68.61"/>
</a>
</g>
</g>
<!-- Node7 -->
<g id="Node000007" class="node">
<title>Node7</title>
<g id="a_Node000007"><a xlink:href="UHttpNetworkSystem_8cpp.html" target="_top" xlink:title="UHttpNetworkSystem의 동작을 구현합니다.">
<polygon fill="white" stroke="#666666" points="1202,-35.5 1018,-35.5 1018,-5.5 1202,-5.5 1202,-35.5"/>
<text text-anchor="start" x="1026" y="-23.5" font-family="Malgun Gothic" font-size="10.00">Source/Onepiece/Network</text>
<text text-anchor="middle" x="1110" y="-12.5" font-family="Malgun Gothic" font-size="10.00">/Private/UHttpNetworkSystem.cpp</text>
</a>
</g>
</g>
<!-- Node1&#45;&gt;Node7 -->
<g id="edge6_Node000001_Node000007" class="edge">
<title>Node1&#45;&gt;Node7</title>
<g id="a_edge6_Node000001_Node000007"><a xlink:title=" ">
<path fill="none" stroke="#63b8ff" d="M873.51,-74.69C926.36,-62.8 997.22,-46.87 1047.56,-35.54"/>
<polygon fill="#63b8ff" stroke="#63b8ff" points="872.52,-71.33 863.53,-76.94 874.06,-78.16 872.52,-71.33"/>
</a>
</g>
</g>
<!-- Node8 -->
<g id="Node000008" class="node">
<title>Node8</title>
<g id="a_Node000008"><a xlink:href="ULoadginCircle_8cpp.html" target="_top" xlink:title="ULoadginCircle의 동작을 구현합니다.">
<polygon fill="white" stroke="#666666" points="1371.5,-35.5 1220.5,-35.5 1220.5,-5.5 1371.5,-5.5 1371.5,-35.5"/>
<text text-anchor="start" x="1228.5" y="-23.5" font-family="Malgun Gothic" font-size="10.00">Source/Onepiece/UI</text>
<text text-anchor="middle" x="1296" y="-12.5" font-family="Malgun Gothic" font-size="10.00">/Private/ULoadginCircle.cpp</text>
</a>
</g>
</g>
<!-- Node1&#45;&gt;Node8 -->
<g id="edge7_Node000001_Node000008" class="edge">
<title>Node1&#45;&gt;Node8</title>
<g id="a_edge7_Node000001_Node000008"><a xlink:title=" ">
<path fill="none" stroke="#63b8ff" d="M893.78,-82.47C977.15,-74.14 1102.74,-59.97 1211,-41 1219.95,-39.43 1229.37,-37.53 1238.55,-35.53"/>
<polygon fill="#63b8ff" stroke="#63b8ff" points="893.44,-78.99 883.83,-83.46 894.13,-85.95 893.44,-78.99"/>
</a>
</g>
</g>
<!-- Node9 -->
<g id="Node000009" class="node">
<title>Node9</title>
<g id="a_Node000009"><a xlink:href="ULoadingCircleManager_8cpp.html" target="_top" xlink:title="ULoadingCircleManager의 동작을 구현합니다.">
<polygon fill="white" stroke="#666666" points="1582.5,-35.5 1389.5,-35.5 1389.5,-5.5 1582.5,-5.5 1582.5,-35.5"/>
<text text-anchor="start" x="1397.5" y="-23.5" font-family="Malgun Gothic" font-size="10.00">Source/Onepiece/UI</text>
<text text-anchor="middle" x="1486" y="-12.5" font-family="Malgun Gothic" font-size="10.00">/Private/ULoadingCircleManager.cpp</text>
</a>
</g>
</g>
<!-- Node1&#45;&gt;Node9 -->
<g id="edge8_Node000001_Node000009" class="edge">
<title>Node1&#45;&gt;Node9</title>
<g id="a_edge8_Node000001_Node000009"><a xlink:title=" ">
<path fill="none" stroke="#63b8ff" d="M894.04,-85.79C1008.86,-78.71 1209.9,-64.21 1381,-41 1392.3,-39.47 1404.23,-37.55 1415.84,-35.51"/>
<polygon fill="#63b8ff" stroke="#63b8ff" points="893.65,-82.3 883.88,-86.41 894.08,-89.29 893.65,-82.3"/>
</a>
</g>
</g>
</g>
</svg>

<g id="navigator" transform="translate(0 0)" fill="#404254">
  <rect fill="#f2f5e9" fill-opacity="0.5" stroke="#606060" stroke-width=".5" x="0" y="0" width="60" height="60"/>
  <use id="zoomplus" xlink:href="#zoomPlus" x="17" y="9" onmousedown="handleZoom(evt,'in')"/>
  <use id="zoomminus" xlink:href="#zoomMin" x="42" y="9" onmousedown="handleZoom(evt,'out')"/>
  <use id="reset" xlink:href="#resetDef" x="30" y="36" onmousedown="handleReset()"/>
   <use id="arrowup" xlink:href="#arrowUp" x="0" y="0" onmousedown="handlePan(0,-1)"/>
  <use id="arrowright" xlink:href="#arrowRight" x="0" y="0" onmousedown="handlePan(1,0)"/>
  <use id="arrowdown" xlink:href="#arrowDown" x="0" y="0" onmousedown="handlePan(0,1)"/>
  <use id="arrowleft" xlink:href="#arrowLeft" x="0" y="0" onmousedown="handlePan(-1,0)"/>
</g>
<svg viewBox="0 0 15 15" width="100%" height="30px" preserveAspectRatio="xMaxYMin meet">
 <g id="arrow_out" transform="scale(0.3 0.3)">
  <a xlink:href="GameLogging_8h__dep__incl_org.svg" target="_base">
   <rect id="button" ry="5" rx="5" y="6" x="6" height="38" width="38"
        fill="#f2f5e9" fill-opacity="0.5" stroke="#606060" stroke-width="1.0"/>
   <path id="arrow"
     d="M 11.500037,31.436501 C 11.940474,20.09759 22.043105,11.32322 32.158766,21.979434 L 37.068811,17.246167 C 37.068811,17.246167 37.088388,32 37.088388,32 L 22.160133,31.978069 C 22.160133,31.978069 26.997745,27.140456 26.997745,27.140456 C 18.528582,18.264221 13.291696,25.230495 11.500037,31.436501 z"
     style="fill:#404040;"/>
  </a>
 </g>
</svg>

<style type='text/css'>
<![CDATA[
[data-mouse-over-selected='false'] { opacity: 0.7; }
[data-mouse-over-selected='true']  { opacity: 1.0; }
]]>
</style>
<script type="application/ecmascript"><![CDATA[
document.addEventListener('DOMContentLoaded', (event) => {
  highlightEdges();
  highlightAdjacentNodes();
});
]]></script>
</svg>
