<?xml version="1.0" encoding="UTF-8" standalone="no"?>
<!DOCTYPE svg PUBLIC "-//W3C//DTD SVG 1.1//EN"
 "http://www.w3.org/Graphics/SVG/1.1/DTD/svg11.dtd">
<!-- Generated by graphviz version 2.43.0 (0)
 -->
<!-- Title: Source/Onepiece/Character/Public/IControllable.h Pages: 1 -->
<svg width="518pt" height="170pt"
 viewBox="0.00 0.00 517.50 170.00" xmlns="http://www.w3.org/2000/svg" xmlns:xlink="http://www.w3.org/1999/xlink">
<g id="graph0" class="graph" transform="scale(1 1) rotate(0) translate(4 166)">
<title>Source/Onepiece/Character/Public/IControllable.h</title>
<!-- Node1 -->
<g id="Node000001" class="node">
<title>Node1</title>
<g id="a_Node000001"><a xlink:title="UControllable 클래스를 선언합니다.">
<polygon fill="#999999" stroke="#666666" points="232.5,-162 83.5,-162 83.5,-132 232.5,-132 232.5,-162"/>
<text text-anchor="start" x="91.5" y="-150" font-family="Malgun Gothic" font-size="10.00">Source/Onepiece/Character</text>
<text text-anchor="middle" x="158" y="-139" font-family="Malgun Gothic" font-size="10.00">/Public/IControllable.h</text>
</a>
</g>
</g>
<!-- Node2 -->
<g id="Node000002" class="node">
<title>Node2</title>
<g id="a_Node000002"><a xlink:href="APlayerControl_8cpp.html" target="_top" xlink:title="APlayerControl 구현에 대한 Doxygen 주석을 제공합니다.">
<polygon fill="white" stroke="#666666" points="150,-96 0,-96 0,-66 150,-66 150,-96"/>
<text text-anchor="start" x="8" y="-84" font-family="Malgun Gothic" font-size="10.00">Source/Onepiece/Character</text>
<text text-anchor="middle" x="75" y="-73" font-family="Malgun Gothic" font-size="10.00">/Private/APlayerControl.cpp</text>
</a>
</g>
</g>
<!-- Node1&#45;&gt;Node2 -->
<g id="edge1_Node000001_Node000002" class="edge">
<title>Node1&#45;&gt;Node2</title>
<g id="a_edge1_Node000001_Node000002"><a xlink:title=" ">
<path fill="none" stroke="#63b8ff" d="M131.39,-125.48C118.98,-115.91 104.53,-104.77 93.37,-96.16"/>
<polygon fill="#63b8ff" stroke="#63b8ff" points="129.52,-128.46 139.58,-131.8 133.8,-122.92 129.52,-128.46"/>
</a>
</g>
</g>
<!-- Node3 -->
<g id="Node000003" class="node">
<title>Node3</title>
<g id="a_Node000003"><a xlink:href="APlayerActor_8h.html" target="_top" xlink:title="Declares the player&#45;controlled character actor.">
<polygon fill="white" stroke="#666666" points="316.5,-96 167.5,-96 167.5,-66 316.5,-66 316.5,-96"/>
<text text-anchor="start" x="175.5" y="-84" font-family="Malgun Gothic" font-size="10.00">Source/Onepiece/Character</text>
<text text-anchor="middle" x="242" y="-73" font-family="Malgun Gothic" font-size="10.00">/Public/APlayerActor.h</text>
</a>
</g>
</g>
<!-- Node1&#45;&gt;Node3 -->
<g id="edge2_Node000001_Node000003" class="edge">
<title>Node1&#45;&gt;Node3</title>
<g id="a_edge2_Node000001_Node000003"><a xlink:title=" ">
<path fill="none" stroke="#63b8ff" d="M184.94,-125.48C197.49,-115.91 212.11,-104.77 223.41,-96.16"/>
<polygon fill="#63b8ff" stroke="#63b8ff" points="182.48,-122.95 176.64,-131.8 186.72,-128.52 182.48,-122.95"/>
</a>
</g>
</g>
<!-- Node4 -->
<g id="Node000004" class="node">
<title>Node4</title>
<g id="a_Node000004"><a xlink:href="APlayerActor_8cpp.html" target="_top" xlink:title="Provides Doxygen annotations for APlayerActor implementation.">
<polygon fill="white" stroke="#666666" points="149.5,-30 0.5,-30 0.5,0 149.5,0 149.5,-30"/>
<text text-anchor="start" x="8.5" y="-18" font-family="Malgun Gothic" font-size="10.00">Source/Onepiece/Character</text>
<text text-anchor="middle" x="75" y="-7" font-family="Malgun Gothic" font-size="10.00">/Private/APlayerActor.cpp</text>
</a>
</g>
</g>
<!-- Node3&#45;&gt;Node4 -->
<g id="edge3_Node000003_Node000004" class="edge">
<title>Node3&#45;&gt;Node4</title>
<g id="a_edge3_Node000003_Node000004"><a xlink:title=" ">
<path fill="none" stroke="#63b8ff" d="M195.87,-62.32C169.29,-52.14 136.34,-39.51 111.56,-30.01"/>
<polygon fill="#63b8ff" stroke="#63b8ff" points="194.76,-65.64 205.35,-65.95 197.27,-59.11 194.76,-65.64"/>
</a>
</g>
</g>
<!-- Node5 -->
<g id="Node000005" class="node">
<title>Node5</title>
<g id="a_Node000005"><a xlink:href="UFlySystem_8cpp.html" target="_top" xlink:title="UFlySystem의 동작을 구현합니다.">
<polygon fill="white" stroke="#666666" points="316.5,-30 167.5,-30 167.5,0 316.5,0 316.5,-30"/>
<text text-anchor="start" x="175.5" y="-18" font-family="Malgun Gothic" font-size="10.00">Source/Onepiece/Character</text>
<text text-anchor="middle" x="242" y="-7" font-family="Malgun Gothic" font-size="10.00">/Private/UFlySystem.cpp</text>
</a>
</g>
</g>
<!-- Node3&#45;&gt;Node5 -->
<g id="edge4_Node000003_Node000005" class="edge">
<title>Node3&#45;&gt;Node5</title>
<g id="a_edge4_Node000003_Node000005"><a xlink:title=" ">
<path fill="none" stroke="#63b8ff" d="M242,-55.54C242,-46.96 242,-37.61 242,-30.16"/>
<polygon fill="#63b8ff" stroke="#63b8ff" points="238.5,-55.8 242,-65.8 245.5,-55.8 238.5,-55.8"/>
</a>
</g>
</g>
<!-- Node6 -->
<g id="Node000006" class="node">
<title>Node6</title>
<g id="a_Node000006"><a xlink:href="UKnockbackSystem_8cpp.html" target="_top" xlink:title="FMath의 동작을 구현합니다.">
<polygon fill="white" stroke="#666666" points="509.5,-30 334.5,-30 334.5,0 509.5,0 509.5,-30"/>
<text text-anchor="start" x="342.5" y="-18" font-family="Malgun Gothic" font-size="10.00">Source/Onepiece/Character</text>
<text text-anchor="middle" x="422" y="-7" font-family="Malgun Gothic" font-size="10.00">/Private/UKnockbackSystem.cpp</text>
</a>
</g>
</g>
<!-- Node3&#45;&gt;Node6 -->
<g id="edge5_Node000003_Node000006" class="edge">
<title>Node3&#45;&gt;Node6</title>
<g id="a_edge5_Node000003_Node000006"><a xlink:title=" ">
<path fill="none" stroke="#63b8ff" d="M290.97,-62.59C319.74,-52.36 355.65,-39.59 382.59,-30.01"/>
<polygon fill="#63b8ff" stroke="#63b8ff" points="289.75,-59.31 281.5,-65.95 292.1,-65.9 289.75,-59.31"/>
</a>
</g>
</g>
</g>
</svg>
