<?xml version="1.0" encoding="UTF-8" standalone="no"?>
<!DOCTYPE svg PUBLIC "-//W3C//DTD SVG 1.1//EN"
 "http://www.w3.org/Graphics/SVG/1.1/DTD/svg11.dtd">
<!-- Generated by graphviz version 2.43.0 (0)
 -->
<!-- Title: 그래픽컬한 클래스 계통도 Pages: 1 -->
<svg width="311pt" height="64pt"
 viewBox="0.00 0.00 311.00 64.00" xmlns="http://www.w3.org/2000/svg" xmlns:xlink="http://www.w3.org/1999/xlink">
<g id="graph0" class="graph" transform="scale(1 1) rotate(0) translate(4 60)">
<title>그래픽컬한 클래스 계통도</title>
<!-- Node0 -->
<g id="Node000000" class="node">
<title>Node0</title>
<g id="a_Node000000"><a xlink:title=" ">
<polygon fill="#e0e0e0" stroke="#999999" points="134,-37 0,-37 0,-18 134,-18 134,-37"/>
<text text-anchor="middle" x="67" y="-25" font-family="Malgun Gothic" font-size="10.00">ULocalPlayerSubsystem</text>
</a>
</g>
</g>
<!-- Node1 -->
<g id="Node000001" class="node">
<title>Node1</title>
<g id="a_Node000001"><a xlink:href="classUDialogManager.html" target="_top" xlink:title="토스트 메시지와 같은 간단한 다이얼로그 위젯의 표시를 관리하는 LocalPlayer 서브시스템입니다.">
<polygon fill="white" stroke="#666666" points="285.5,-56 187.5,-56 187.5,-37 285.5,-37 285.5,-56"/>
<text text-anchor="middle" x="236.5" y="-44" font-family="Malgun Gothic" font-size="10.00">UDialogManager</text>
</a>
</g>
</g>
<!-- Node0&#45;&gt;Node1 -->
<g id="edge30_Node000000_Node000001" class="edge">
<title>Node0&#45;&gt;Node1</title>
<g id="a_edge30_Node000000_Node000001"><a xlink:title=" ">
<path fill="none" stroke="#63b8ff" d="M144.27,-36.15C158.93,-37.81 173.89,-39.51 187.34,-41.04"/>
<polygon fill="#63b8ff" stroke="#63b8ff" points="144.53,-32.66 134.2,-35.01 143.74,-39.61 144.53,-32.66"/>
</a>
</g>
</g>
<!-- Node2 -->
<g id="Node000002" class="node">
<title>Node2</title>
<g id="a_Node000002"><a xlink:href="classULoadingCircleManager.html" target="_top" xlink:title="전역 로딩 서클의 표시 여부를 관리하는 LocalPlayerSubsystem입니다.">
<polygon fill="white" stroke="#666666" points="303,-19 170,-19 170,0 303,0 303,-19"/>
<text text-anchor="middle" x="236.5" y="-7" font-family="Malgun Gothic" font-size="10.00">ULoadingCircleManager</text>
</a>
</g>
</g>
<!-- Node0&#45;&gt;Node2 -->
<g id="edge31_Node000000_Node000002" class="edge">
<title>Node0&#45;&gt;Node2</title>
<g id="a_edge31_Node000000_Node000002"><a xlink:title=" ">
<path fill="none" stroke="#63b8ff" d="M144.17,-19.31C152.72,-18.4 161.38,-17.47 169.78,-16.56"/>
<polygon fill="#63b8ff" stroke="#63b8ff" points="143.77,-15.84 134.2,-20.39 144.52,-22.8 143.77,-15.84"/>
</a>
</g>
</g>
</g>
</svg>
