<?xml version="1.0" encoding="UTF-8" standalone="no"?>
<!DOCTYPE svg PUBLIC "-//W3C//DTD SVG 1.1//EN"
 "http://www.w3.org/Graphics/SVG/1.1/DTD/svg11.dtd">
<!-- Generated by graphviz version 2.43.0 (0)
 -->
<!-- Title: 그래픽컬한 클래스 계통도 Pages: 1 -->
<svg width="203pt" height="64pt"
 viewBox="0.00 0.00 203.00 64.00" xmlns="http://www.w3.org/2000/svg" xmlns:xlink="http://www.w3.org/1999/xlink">
<g id="graph0" class="graph" transform="scale(1 1) rotate(0) translate(4 60)">
<title>그래픽컬한 클래스 계통도</title>
<!-- Node0 -->
<g id="Node000000" class="node">
<title>Node0</title>
<g id="a_Node000000"><a xlink:title=" ">
<polygon fill="#e0e0e0" stroke="#999999" points="75,-56 4,-56 4,-37 75,-37 75,-56"/>
<text text-anchor="middle" x="39.5" y="-44" font-family="Malgun Gothic" font-size="10.00">ACharacter</text>
</a>
</g>
</g>
<!-- Node1 -->
<g id="Node000001" class="node">
<title>Node1</title>
<g id="a_Node000001"><a xlink:href="classAPlayerActor.html" target="_top" xlink:title="Main character driven directly by the player.">
<polygon fill="white" stroke="#666666" points="195,-37 115,-37 115,-18 195,-18 195,-37"/>
<text text-anchor="middle" x="155" y="-25" font-family="Malgun Gothic" font-size="10.00">APlayerActor</text>
</a>
</g>
</g>
<!-- Node0&#45;&gt;Node1 -->
<g id="edge3_Node000000_Node000001" class="edge">
<title>Node0&#45;&gt;Node1</title>
<g id="a_edge3_Node000000_Node000001"><a xlink:title=" ">
<path fill="none" stroke="#63b8ff" d="M85.14,-39.03C94.93,-37.39 105.22,-35.67 114.78,-34.07"/>
<polygon fill="#63b8ff" stroke="#63b8ff" points="84.46,-35.59 75.17,-40.7 85.61,-42.5 84.46,-35.59"/>
</a>
</g>
</g>
<!-- Node2 -->
<g id="Node000002" class="node">
<title>Node2</title>
<g id="a_Node000002"><a xlink:href="classIControllable.html" target="_top" xlink:title=" ">
<polygon fill="white" stroke="#666666" points="79,-19 0,-19 0,0 79,0 79,-19"/>
<text text-anchor="middle" x="39.5" y="-7" font-family="Malgun Gothic" font-size="10.00">IControllable</text>
</a>
</g>
</g>
<!-- Node2&#45;&gt;Node1 -->
<g id="edge4_Node000002_Node000001" class="edge">
<title>Node2&#45;&gt;Node1</title>
<g id="a_edge4_Node000002_Node000001"><a xlink:title=" ">
<path fill="none" stroke="#63b8ff" d="M89.38,-17.25C97.82,-18.59 106.51,-19.97 114.66,-21.26"/>
<polygon fill="#63b8ff" stroke="#63b8ff" points="89.67,-13.75 79.24,-15.64 88.57,-20.67 89.67,-13.75"/>
</a>
</g>
</g>
</g>
</svg>
