<?xml version="1.0" encoding="UTF-8" standalone="no"?>
<!DOCTYPE svg PUBLIC "-//W3C//DTD SVG 1.1//EN"
 "http://www.w3.org/Graphics/SVG/1.1/DTD/svg11.dtd">
<!-- Generated by graphviz version 2.43.0 (0)
 -->
<!-- Title: 그래픽컬한 클래스 계통도 Pages: 1 -->
<svg width="328pt" height="360pt"
 viewBox="0.00 0.00 328.00 360.00" xmlns="http://www.w3.org/2000/svg" xmlns:xlink="http://www.w3.org/1999/xlink">
<g id="graph0" class="graph" transform="scale(1 1) rotate(0) translate(4 356)">
<title>그래픽컬한 클래스 계통도</title>
<!-- Node0 -->
<g id="Node000000" class="node">
<title>Node0</title>
<g id="a_Node000000"><a xlink:title=" ">
<polygon fill="#e0e0e0" stroke="#999999" points="149,-185 0,-185 0,-166 149,-166 149,-185"/>
<text text-anchor="middle" x="74.5" y="-173" font-family="Malgun Gothic" font-size="10.00">UGameInstanceSubsystem</text>
</a>
</g>
</g>
<!-- Node1 -->
<g id="Node000001" class="node">
<title>Node1</title>
<g id="a_Node000001"><a xlink:href="classUBroadcastManager.html" target="_top" xlink:title="게임 내 전역 이벤트를 중계하는 중앙 이벤트 버스(Event Bus) 서브시스템입니다.">
<polygon fill="white" stroke="#666666" points="310.5,-352 194.5,-352 194.5,-333 310.5,-333 310.5,-352"/>
<text text-anchor="middle" x="252.5" y="-340" font-family="Malgun Gothic" font-size="10.00">UBroadcastManager</text>
</a>
</g>
</g>
<!-- Node0&#45;&gt;Node1 -->
<g id="edge33_Node000000_Node000001" class="edge">
<title>Node0&#45;&gt;Node1</title>
<g id="a_edge33_Node000000_Node000001"><a xlink:title=" ">
<path fill="none" stroke="#63b8ff" d="M84.11,-194.39C99.62,-226.24 135.3,-290.45 185,-324.5 190.03,-327.95 195.7,-330.74 201.55,-332.99"/>
<polygon fill="#63b8ff" stroke="#63b8ff" points="87.24,-192.81 79.8,-185.27 80.91,-195.81 87.24,-192.81"/>
</a>
</g>
</g>
<!-- Node2 -->
<g id="Node000002" class="node">
<title>Node2</title>
<g id="a_Node000002"><a xlink:href="classUDelayTaskManager.html" target="_top" xlink:title="지정된 시간 후에 함수(콜백)를 실행하는 지연 작업 관리 서브시스템입니다.">
<polygon fill="white" stroke="#666666" points="311,-315 194,-315 194,-296 311,-296 311,-315"/>
<text text-anchor="middle" x="252.5" y="-303" font-family="Malgun Gothic" font-size="10.00">UDelayTaskManager</text>
</a>
</g>
</g>
<!-- Node0&#45;&gt;Node2 -->
<g id="edge34_Node000000_Node000002" class="edge">
<title>Node0&#45;&gt;Node2</title>
<g id="a_edge34_Node000000_Node000002"><a xlink:title=" ">
<path fill="none" stroke="#63b8ff" d="M88.13,-193.48C106.57,-218.37 143.22,-262.99 185,-287.5 190.78,-290.89 197.21,-293.66 203.73,-295.91"/>
<polygon fill="#63b8ff" stroke="#63b8ff" points="90.89,-191.33 82.19,-185.28 85.23,-195.43 90.89,-191.33"/>
</a>
</g>
</g>
<!-- Node3 -->
<g id="Node000003" class="node">
<title>Node3</title>
<g id="a_Node000003"><a xlink:href="classUGameDataManager.html" target="_top" xlink:title="데이터 테이블(.csv)에서 게임 데이터를 로드하고 캐시하여 런타임에 빠르게 접근할 수 있도록 제공하는 데이터 관리 서브시스템입니다.">
<polygon fill="white" stroke="#666666" points="312,-278 193,-278 193,-259 312,-259 312,-278"/>
<text text-anchor="middle" x="252.5" y="-266" font-family="Malgun Gothic" font-size="10.00">UGameDataManager</text>
</a>
</g>
</g>
<!-- Node0&#45;&gt;Node3 -->
<g id="edge35_Node000000_Node000003" class="edge">
<title>Node0&#45;&gt;Node3</title>
<g id="a_edge35_Node000000_Node000003"><a xlink:title=" ">
<path fill="none" stroke="#63b8ff" d="M94.67,-191.62C115.63,-208.51 150.8,-234.71 185,-250.5 192.17,-253.81 200.06,-256.61 207.83,-258.94"/>
<polygon fill="#63b8ff" stroke="#63b8ff" points="96.81,-188.85 86.86,-185.23 92.38,-194.27 96.81,-188.85"/>
</a>
</g>
</g>
<!-- Node4 -->
<g id="Node000004" class="node">
<title>Node4</title>
<g id="a_Node000004"><a xlink:href="classUGameSoundManager.html" target="_top" xlink:title="게임 내 모든 사운드 재생을 관리하는 중앙 사운드 관리 서브시스템입니다.">
<polygon fill="white" stroke="#666666" points="315.5,-241 189.5,-241 189.5,-222 315.5,-222 315.5,-241"/>
<text text-anchor="middle" x="252.5" y="-229" font-family="Malgun Gothic" font-size="10.00">UGameSoundManager</text>
</a>
</g>
</g>
<!-- Node0&#45;&gt;Node4 -->
<g id="edge36_Node000000_Node000004" class="edge">
<title>Node0&#45;&gt;Node4</title>
<g id="a_edge36_Node000000_Node000004"><a xlink:title=" ">
<path fill="none" stroke="#63b8ff" d="M111.05,-188.54C132.37,-196.19 160.1,-205.82 185,-213.5 194.49,-216.43 204.81,-219.35 214.43,-221.96"/>
<polygon fill="#63b8ff" stroke="#63b8ff" points="112.03,-185.17 101.44,-185.07 109.66,-191.76 112.03,-185.17"/>
</a>
</g>
</g>
<!-- Node5 -->
<g id="Node000005" class="node">
<title>Node5</title>
<g id="a_Node000005"><a xlink:href="classUGameVFXManager.html" target="_top" xlink:title="게임 내 시각 효과(VFX) 재생을 관리하는 중앙 VFX 관리 서브시스템입니다.">
<polygon fill="white" stroke="#666666" points="310.5,-204 194.5,-204 194.5,-185 310.5,-185 310.5,-204"/>
<text text-anchor="middle" x="252.5" y="-192" font-family="Malgun Gothic" font-size="10.00">UGameVFXManager</text>
</a>
</g>
</g>
<!-- Node0&#45;&gt;Node5 -->
<g id="edge37_Node000000_Node000005" class="edge">
<title>Node0&#45;&gt;Node5</title>
<g id="a_edge37_Node000000_Node000005"><a xlink:title=" ">
<path fill="none" stroke="#63b8ff" d="M159.07,-184.52C170.98,-185.81 182.99,-187.1 194.24,-188.32"/>
<polygon fill="#63b8ff" stroke="#63b8ff" points="159.44,-181.04 149.12,-183.45 158.69,-188 159.44,-181.04"/>
</a>
</g>
</g>
<!-- Node6 -->
<g id="Node000006" class="node">
<title>Node6</title>
<g id="a_Node000006"><a xlink:href="classUHttpNetworkSystem.html" target="_top" xlink:title=" ">
<polygon fill="white" stroke="#666666" points="314,-167 191,-167 191,-148 314,-148 314,-167"/>
<text text-anchor="middle" x="252.5" y="-155" font-family="Malgun Gothic" font-size="10.00">UHttpNetworkSystem</text>
</a>
</g>
</g>
<!-- Node0&#45;&gt;Node6 -->
<g id="edge38_Node000000_Node000006" class="edge">
<title>Node0&#45;&gt;Node6</title>
<g id="a_edge38_Node000000_Node000006"><a xlink:title=" ">
<path fill="none" stroke="#63b8ff" d="M159.32,-166.93C170,-165.84 180.76,-164.73 190.98,-163.69"/>
<polygon fill="#63b8ff" stroke="#63b8ff" points="158.71,-163.47 149.12,-167.97 159.42,-170.44 158.71,-163.47"/>
</a>
</g>
</g>
<!-- Node7 -->
<g id="Node000007" class="node">
<title>Node7</title>
<g id="a_Node000007"><a xlink:href="classUKLingoNetworkSystem.html" target="_top" xlink:title=" ">
<polygon fill="white" stroke="#666666" points="320,-130 185,-130 185,-111 320,-111 320,-130"/>
<text text-anchor="middle" x="252.5" y="-118" font-family="Malgun Gothic" font-size="10.00">UKLingoNetworkSystem</text>
</a>
</g>
</g>
<!-- Node0&#45;&gt;Node7 -->
<g id="edge39_Node000000_Node000007" class="edge">
<title>Node0&#45;&gt;Node7</title>
<g id="a_edge39_Node000000_Node000007"><a xlink:title=" ">
<path fill="none" stroke="#63b8ff" d="M113.3,-162.67C134.35,-155.62 161.05,-146.85 185,-139.5 195.45,-136.29 206.87,-132.96 217.25,-130.01"/>
<polygon fill="#63b8ff" stroke="#63b8ff" points="112.13,-159.37 103.76,-165.87 114.36,-166 112.13,-159.37"/>
</a>
</g>
</g>
<!-- Node8 -->
<g id="Node000008" class="node">
<title>Node8</title>
<g id="a_Node000008"><a xlink:href="classUObjectPoolManager.html" target="_top" xlink:title="액터를 재활용하여 런타임에 액터 스폰 비용을 최소화하는 오브젝트 풀링(Object Pooling) 관리 서브시스템입니다.">
<polygon fill="white" stroke="#666666" points="312,-93 193,-93 193,-74 312,-74 312,-93"/>
<text text-anchor="middle" x="252.5" y="-81" font-family="Malgun Gothic" font-size="10.00">UObjectPoolManager</text>
</a>
</g>
</g>
<!-- Node0&#45;&gt;Node8 -->
<g id="edge40_Node000000_Node000008" class="edge">
<title>Node0&#45;&gt;Node8</title>
<g id="a_edge40_Node000000_Node000008"><a xlink:title=" ">
<path fill="none" stroke="#63b8ff" d="M95.13,-159.67C116.22,-143.33 151.28,-118.09 185,-102.5 193.06,-98.77 202.02,-95.61 210.69,-93"/>
<polygon fill="#63b8ff" stroke="#63b8ff" points="92.94,-156.93 87.24,-165.86 97.27,-162.43 92.94,-156.93"/>
</a>
</g>
</g>
<!-- Node9 -->
<g id="Node000009" class="node">
<title>Node9</title>
<g id="a_Node000009"><a xlink:href="classUSequenceManager.html" target="_top" xlink:title="여러 액터를 지정된 간격으로 순차적으로 활성화 또는 비활성화하는 시퀀스 관리 서브시스템입니다.">
<polygon fill="white" stroke="#666666" points="309.5,-56 195.5,-56 195.5,-37 309.5,-37 309.5,-56"/>
<text text-anchor="middle" x="252.5" y="-44" font-family="Malgun Gothic" font-size="10.00">USequenceManager</text>
</a>
</g>
</g>
<!-- Node0&#45;&gt;Node9 -->
<g id="edge41_Node000000_Node000009" class="edge">
<title>Node0&#45;&gt;Node9</title>
<g id="a_edge41_Node000000_Node000009"><a xlink:title=" ">
<path fill="none" stroke="#63b8ff" d="M88.26,-157.93C106.84,-133.59 143.66,-89.89 185,-65.5 191.52,-61.66 198.85,-58.55 206.21,-56.06"/>
<polygon fill="#63b8ff" stroke="#63b8ff" points="85.45,-155.84 82.26,-165.94 91.05,-160.03 85.45,-155.84"/>
</a>
</g>
</g>
<!-- Node10 -->
<g id="Node000010" class="node">
<title>Node10</title>
<g id="a_Node000010"><a xlink:href="classUWebSocketSystem.html" target="_top" xlink:title=" ">
<polygon fill="white" stroke="#666666" points="309.5,-19 195.5,-19 195.5,0 309.5,0 309.5,-19"/>
<text text-anchor="middle" x="252.5" y="-7" font-family="Malgun Gothic" font-size="10.00">UWebSocketSystem</text>
</a>
</g>
</g>
<!-- Node0&#45;&gt;Node10 -->
<g id="edge42_Node000000_Node000010" class="edge">
<title>Node0&#45;&gt;Node10</title>
<g id="a_edge42_Node000000_Node000010"><a xlink:title=" ">
<path fill="none" stroke="#63b8ff" d="M84.44,-156.53C100.22,-125.08 136.07,-62.3 185,-28.5 190.63,-24.61 197.05,-21.51 203.63,-19.04"/>
<polygon fill="#63b8ff" stroke="#63b8ff" points="81.1,-155.38 79.86,-165.9 87.39,-158.45 81.1,-155.38"/>
</a>
</g>
</g>
</g>
</svg>
