<?xml version="1.0" encoding="UTF-8" standalone="no"?>
<!DOCTYPE svg PUBLIC "-//W3C//DTD SVG 1.1//EN"
 "http://www.w3.org/Graphics/SVG/1.1/DTD/svg11.dtd">
<!-- Generated by graphviz version 2.43.0 (0)
 -->
<!-- Title: Source/LatteLibrary/Manager/Public/Macro.h Pages: 1 -->
<svg width="2712pt" height="192pt"
 viewBox="0.00 0.00 2712.00 192.00" xmlns="http://www.w3.org/2000/svg" xmlns:xlink="http://www.w3.org/1999/xlink">
<g id="graph0" class="graph" transform="scale(1 1) rotate(0) translate(4 188)">
<title>Source/LatteLibrary/Manager/Public/Macro.h</title>
<!-- Node1 -->
<g id="Node000001" class="node">
<title>Node1</title>
<g id="a_Node000001"><a xlink:title="YiSan 전반에서 사용하는 공용 인터페이스를 선언합니다.">
<polygon fill="#999999" stroke="#666666" points="1773,-184 1636,-184 1636,-154 1773,-154 1773,-184"/>
<text text-anchor="start" x="1644" y="-172" font-family="Malgun Gothic" font-size="10.00">Source/LatteLibrary</text>
<text text-anchor="middle" x="1704.5" y="-161" font-family="Malgun Gothic" font-size="10.00">/Manager/Public/Macro.h</text>
</a>
</g>
</g>
<!-- Node2 -->
<g id="Node000002" class="node">
<title>Node2</title>
<g id="a_Node000002"><a xlink:href="UBroadcastManager_8h.html" target="_top" xlink:title=" ">
<polygon fill="white" stroke="#666666" points="510.5,-118 356.5,-118 356.5,-77 510.5,-77 510.5,-118"/>
<text text-anchor="start" x="364.5" y="-106" font-family="Malgun Gothic" font-size="10.00">Source/LatteLibrary</text>
<text text-anchor="start" x="364.5" y="-95" font-family="Malgun Gothic" font-size="10.00">/Manager/Public/UBroadcast</text>
<text text-anchor="middle" x="433.5" y="-84" font-family="Malgun Gothic" font-size="10.00">Manager.h</text>
</a>
</g>
</g>
<!-- Node1&#45;&gt;Node2 -->
<g id="edge1_Node000001_Node000002" class="edge">
<title>Node1&#45;&gt;Node2</title>
<g id="a_edge1_Node000001_Node000002"><a xlink:title=" ">
<path fill="none" stroke="#63b8ff" d="M1625.51,-166.53C1396.38,-161.97 734.21,-146.63 519.5,-118 516.62,-117.62 513.69,-117.18 510.74,-116.71"/>
<polygon fill="#63b8ff" stroke="#63b8ff" points="1625.7,-170.04 1635.76,-166.73 1625.84,-163.04 1625.7,-170.04"/>
</a>
</g>
</g>
<!-- Node7 -->
<g id="Node000007" class="node">
<title>Node7</title>
<g id="a_Node000007"><a xlink:href="UDelayTaskManager_8h.html" target="_top" xlink:title="UDelayTaskManager 클래스를 선언합니다.">
<polygon fill="white" stroke="#666666" points="1401,-118 1246,-118 1246,-77 1401,-77 1401,-118"/>
<text text-anchor="start" x="1254" y="-106" font-family="Malgun Gothic" font-size="10.00">Source/LatteLibrary</text>
<text text-anchor="start" x="1254" y="-95" font-family="Malgun Gothic" font-size="10.00">/Manager/Public/UDelayTask</text>
<text text-anchor="middle" x="1323.5" y="-84" font-family="Malgun Gothic" font-size="10.00">Manager.h</text>
</a>
</g>
</g>
<!-- Node1&#45;&gt;Node7 -->
<g id="edge6_Node000001_Node000007" class="edge">
<title>Node1&#45;&gt;Node7</title>
<g id="a_edge6_Node000001_Node000007"><a xlink:title=" ">
<path fill="none" stroke="#63b8ff" d="M1625.95,-155.78C1566.62,-146.27 1483.25,-132.33 1410.5,-118 1407.46,-117.4 1404.37,-116.78 1401.25,-116.14"/>
<polygon fill="#63b8ff" stroke="#63b8ff" points="1625.57,-159.26 1636,-157.38 1626.68,-152.35 1625.57,-159.26"/>
</a>
</g>
</g>
<!-- Node10 -->
<g id="Node000010" class="node">
<title>Node10</title>
<g id="a_Node000010"><a xlink:href="UGameDataManager_8h.html" target="_top" xlink:title="UGameDataManager 클래스를 선언합니다.">
<polygon fill="white" stroke="#666666" points="738,-112.5 529,-112.5 529,-82.5 738,-82.5 738,-112.5"/>
<text text-anchor="start" x="537" y="-100.5" font-family="Malgun Gothic" font-size="10.00">Source/LatteLibrary</text>
<text text-anchor="middle" x="633.5" y="-89.5" font-family="Malgun Gothic" font-size="10.00">/Manager/Public/UGameDataManager.h</text>
</a>
</g>
</g>
<!-- Node1&#45;&gt;Node10 -->
<g id="edge9_Node000001_Node000010" class="edge">
<title>Node1&#45;&gt;Node10</title>
<g id="a_edge9_Node000001_Node000010"><a xlink:title=" ">
<path fill="none" stroke="#63b8ff" d="M1625.57,-162.99C1485.01,-154.05 1182.12,-134.72 926.5,-118 864.05,-113.92 794.13,-109.26 738.25,-105.53"/>
<polygon fill="#63b8ff" stroke="#63b8ff" points="1625.61,-166.5 1635.81,-163.64 1626.05,-159.51 1625.61,-166.5"/>
</a>
</g>
</g>
<!-- Node13 -->
<g id="Node000013" class="node">
<title>Node13</title>
<g id="a_Node000013"><a xlink:href="UGameSoundManager_8h.html" target="_top" xlink:title="UGameSoundManager 클래스를 선언합니다.">
<polygon fill="white" stroke="#666666" points="1583.5,-118 1419.5,-118 1419.5,-77 1583.5,-77 1583.5,-118"/>
<text text-anchor="start" x="1427.5" y="-106" font-family="Malgun Gothic" font-size="10.00">Source/LatteLibrary</text>
<text text-anchor="start" x="1427.5" y="-95" font-family="Malgun Gothic" font-size="10.00">/Manager/Public/UGameSound</text>
<text text-anchor="middle" x="1501.5" y="-84" font-family="Malgun Gothic" font-size="10.00">Manager.h</text>
</a>
</g>
</g>
<!-- Node1&#45;&gt;Node13 -->
<g id="edge14_Node000001_Node000013" class="edge">
<title>Node1&#45;&gt;Node13</title>
<g id="a_edge14_Node000001_Node000013"><a xlink:title=" ">
<path fill="none" stroke="#63b8ff" d="M1653.92,-150.68C1624.99,-140.78 1588.63,-128.33 1558.67,-118.07"/>
<polygon fill="#63b8ff" stroke="#63b8ff" points="1652.83,-154.01 1663.42,-153.94 1655.09,-147.39 1652.83,-154.01"/>
</a>
</g>
</g>
<!-- Node15 -->
<g id="Node000015" class="node">
<title>Node15</title>
<g id="a_Node000015"><a xlink:href="UGameVFXManager_8h.html" target="_top" xlink:title="UGameVFXManager 클래스를 선언합니다.">
<polygon fill="white" stroke="#666666" points="1807,-112.5 1602,-112.5 1602,-82.5 1807,-82.5 1807,-112.5"/>
<text text-anchor="start" x="1610" y="-100.5" font-family="Malgun Gothic" font-size="10.00">Source/LatteLibrary</text>
<text text-anchor="middle" x="1704.5" y="-89.5" font-family="Malgun Gothic" font-size="10.00">/Manager/Public/UGameVFXManager.h</text>
</a>
</g>
</g>
<!-- Node1&#45;&gt;Node15 -->
<g id="edge16_Node000001_Node000015" class="edge">
<title>Node1&#45;&gt;Node15</title>
<g id="a_edge16_Node000001_Node000015"><a xlink:title=" ">
<path fill="none" stroke="#63b8ff" d="M1704.5,-143.75C1704.5,-133.31 1704.5,-121.49 1704.5,-112.54"/>
<polygon fill="#63b8ff" stroke="#63b8ff" points="1701,-143.94 1704.5,-153.94 1708,-143.94 1701,-143.94"/>
</a>
</g>
</g>
<!-- Node17 -->
<g id="Node000017" class="node">
<title>Node17</title>
<g id="a_Node000017"><a xlink:href="UObjectPoolManager_8h.html" target="_top" xlink:title="UObjectPoolManager 클래스를 선언합니다.">
<polygon fill="white" stroke="#666666" points="1982.5,-118 1824.5,-118 1824.5,-77 1982.5,-77 1982.5,-118"/>
<text text-anchor="start" x="1832.5" y="-106" font-family="Malgun Gothic" font-size="10.00">Source/LatteLibrary</text>
<text text-anchor="start" x="1832.5" y="-95" font-family="Malgun Gothic" font-size="10.00">/Manager/Public/UObjectPool</text>
<text text-anchor="middle" x="1903.5" y="-84" font-family="Malgun Gothic" font-size="10.00">Manager.h</text>
</a>
</g>
</g>
<!-- Node1&#45;&gt;Node17 -->
<g id="edge18_Node000001_Node000017" class="edge">
<title>Node1&#45;&gt;Node17</title>
<g id="a_edge18_Node000001_Node000017"><a xlink:title=" ">
<path fill="none" stroke="#63b8ff" d="M1754.46,-150.55C1782.75,-140.67 1818.22,-128.28 1847.45,-118.07"/>
<polygon fill="#63b8ff" stroke="#63b8ff" points="1753.06,-147.33 1744.77,-153.94 1755.37,-153.94 1753.06,-147.33"/>
</a>
</g>
</g>
<!-- Node19 -->
<g id="Node000019" class="node">
<title>Node19</title>
<g id="a_Node000019"><a xlink:href="APlayerActor_8cpp.html" target="_top" xlink:title="Provides Doxygen annotations for APlayerActor implementation.">
<polygon fill="white" stroke="#666666" points="2149,-112.5 2000,-112.5 2000,-82.5 2149,-82.5 2149,-112.5"/>
<text text-anchor="start" x="2008" y="-100.5" font-family="Malgun Gothic" font-size="10.00">Source/Onepiece/Character</text>
<text text-anchor="middle" x="2074.5" y="-89.5" font-family="Malgun Gothic" font-size="10.00">/Private/APlayerActor.cpp</text>
</a>
</g>
</g>
<!-- Node1&#45;&gt;Node19 -->
<g id="edge20_Node000001_Node000019" class="edge">
<title>Node1&#45;&gt;Node19</title>
<g id="a_edge20_Node000001_Node000019"><a xlink:title=" ">
<path fill="none" stroke="#63b8ff" d="M1783.3,-155.54C1841.09,-146.1 1921.38,-132.33 1991.5,-118 1999.62,-116.34 2008.16,-114.47 2016.55,-112.57"/>
<polygon fill="#63b8ff" stroke="#63b8ff" points="1782.45,-152.13 1773.14,-157.2 1783.57,-159.04 1782.45,-152.13"/>
</a>
</g>
</g>
<!-- Node20 -->
<g id="Node000020" class="node">
<title>Node20</title>
<g id="a_Node000020"><a xlink:href="UHttpNetworkSystem_8h.html" target="_top" xlink:title="HTTP 기반 음성·GPT 파이프라인 요청을 담당하는 서브시스템을 선언합니다.">
<polygon fill="white" stroke="#666666" points="1103,-112.5 936,-112.5 936,-82.5 1103,-82.5 1103,-112.5"/>
<text text-anchor="start" x="944" y="-100.5" font-family="Malgun Gothic" font-size="10.00">Source/Onepiece/Network</text>
<text text-anchor="middle" x="1019.5" y="-89.5" font-family="Malgun Gothic" font-size="10.00">/Public/UHttpNetworkSystem.h</text>
</a>
</g>
</g>
<!-- Node1&#45;&gt;Node20 -->
<g id="edge21_Node000001_Node000020" class="edge">
<title>Node1&#45;&gt;Node20</title>
<g id="a_edge21_Node000001_Node000020"><a xlink:title=" ">
<path fill="none" stroke="#63b8ff" d="M1625.71,-160.01C1495.5,-146.79 1236.57,-120.52 1103.2,-106.99"/>
<polygon fill="#63b8ff" stroke="#63b8ff" points="1625.7,-163.52 1636,-161.05 1626.4,-156.56 1625.7,-163.52"/>
</a>
</g>
</g>
<!-- Node21 -->
<g id="Node000021" class="node">
<title>Node21</title>
<g id="a_Node000021"><a xlink:href="UWebSocketSystem_8h.html" target="_top" xlink:title="실시간 음성·텍스트 상호작용을 위한 WebSocket 서브시스템을 선언합니다.">
<polygon fill="white" stroke="#666666" points="2324.5,-112.5 2166.5,-112.5 2166.5,-82.5 2324.5,-82.5 2324.5,-112.5"/>
<text text-anchor="start" x="2174.5" y="-100.5" font-family="Malgun Gothic" font-size="10.00">Source/Onepiece/Network</text>
<text text-anchor="middle" x="2245.5" y="-89.5" font-family="Malgun Gothic" font-size="10.00">/Public/UWebSocketSystem.h</text>
</a>
</g>
</g>
<!-- Node1&#45;&gt;Node21 -->
<g id="edge24_Node000001_Node000021" class="edge">
<title>Node1&#45;&gt;Node21</title>
<g id="a_edge24_Node000001_Node000021"><a xlink:title=" ">
<path fill="none" stroke="#63b8ff" d="M1783.32,-161.9C1873.97,-154.29 2027.09,-139.58 2157.5,-118 2166.76,-116.47 2176.52,-114.58 2186.03,-112.59"/>
<polygon fill="#63b8ff" stroke="#63b8ff" points="1782.79,-158.43 1773.12,-162.75 1783.37,-165.41 1782.79,-158.43"/>
</a>
</g>
</g>
<!-- Node23 -->
<g id="Node000023" class="node">
<title>Node23</title>
<g id="a_Node000023"><a xlink:href="UDialogManager_8h.html" target="_top" xlink:title="UDialogManager 클래스를 선언합니다.">
<polygon fill="white" stroke="#666666" points="2484.5,-112.5 2342.5,-112.5 2342.5,-82.5 2484.5,-82.5 2484.5,-112.5"/>
<text text-anchor="start" x="2350.5" y="-100.5" font-family="Malgun Gothic" font-size="10.00">Source/Onepiece/UI</text>
<text text-anchor="middle" x="2413.5" y="-89.5" font-family="Malgun Gothic" font-size="10.00">/Public/UDialogManager.h</text>
</a>
</g>
</g>
<!-- Node1&#45;&gt;Node23 -->
<g id="edge26_Node000001_Node000023" class="edge">
<title>Node1&#45;&gt;Node23</title>
<g id="a_edge26_Node000001_Node000023"><a xlink:title=" ">
<path fill="none" stroke="#63b8ff" d="M1783.51,-165.77C1903.17,-161.47 2137.23,-149.51 2333.5,-118 2342.53,-116.55 2352.05,-114.61 2361.24,-112.51"/>
<polygon fill="#63b8ff" stroke="#63b8ff" points="1783.21,-162.27 1773.34,-166.12 1783.45,-169.27 1783.21,-162.27"/>
</a>
</g>
</g>
<!-- Node25 -->
<g id="Node000025" class="node">
<title>Node25</title>
<g id="a_Node000025"><a xlink:href="ULoadingCircleManager_8h.html" target="_top" xlink:title="ULoadingCircleManager 클래스를 선언합니다.">
<polygon fill="white" stroke="#666666" points="2686.5,-112.5 2510.5,-112.5 2510.5,-82.5 2686.5,-82.5 2686.5,-112.5"/>
<text text-anchor="start" x="2518.5" y="-100.5" font-family="Malgun Gothic" font-size="10.00">Source/Onepiece/UI</text>
<text text-anchor="middle" x="2598.5" y="-89.5" font-family="Malgun Gothic" font-size="10.00">/Public/ULoadingCircleManager.h</text>
</a>
</g>
</g>
<!-- Node1&#45;&gt;Node25 -->
<g id="edge28_Node000001_Node000025" class="edge">
<title>Node1&#45;&gt;Node25</title>
<g id="a_edge28_Node000001_Node000025"><a xlink:title=" ">
<path fill="none" stroke="#63b8ff" d="M1783.47,-166.14C1925.85,-162.08 2234.87,-150.09 2493.5,-118 2505.18,-116.55 2517.53,-114.62 2529.5,-112.54"/>
<polygon fill="#63b8ff" stroke="#63b8ff" points="1782.99,-162.65 1773.09,-166.43 1783.19,-169.65 1782.99,-162.65"/>
</a>
</g>
</g>
<!-- Node3 -->
<g id="Node000003" class="node">
<title>Node3</title>
<g id="a_Node000003"><a xlink:href="UBroadcastManager_8cpp.html" target="_top" xlink:title=" ">
<polygon fill="white" stroke="#666666" points="159,-41 0,-41 0,0 159,0 159,-41"/>
<text text-anchor="start" x="8" y="-29" font-family="Malgun Gothic" font-size="10.00">Source/LatteLibrary</text>
<text text-anchor="start" x="8" y="-18" font-family="Malgun Gothic" font-size="10.00">/Manager/Private/UBroadcast</text>
<text text-anchor="middle" x="79.5" y="-7" font-family="Malgun Gothic" font-size="10.00">Manager.cpp</text>
</a>
</g>
</g>
<!-- Node2&#45;&gt;Node3 -->
<g id="edge2_Node000002_Node000003" class="edge">
<title>Node2&#45;&gt;Node3</title>
<g id="a_edge2_Node000002_Node000003"><a xlink:title=" ">
<path fill="none" stroke="#63b8ff" d="M346.48,-78.63C294.5,-67.88 227.18,-53.84 167.5,-41 164.75,-40.41 161.94,-39.8 159.12,-39.19"/>
<polygon fill="#63b8ff" stroke="#63b8ff" points="345.83,-82.07 356.33,-80.66 347.25,-75.21 345.83,-82.07"/>
</a>
</g>
</g>
<!-- Node4 -->
<g id="Node000004" class="node">
<title>Node4</title>
<g id="a_Node000004"><a xlink:href="UHitStopSystem_8cpp.html" target="_top" xlink:title="UHitStopSystem의 동작을 구현합니다.">
<polygon fill="white" stroke="#666666" points="334.5,-35.5 176.5,-35.5 176.5,-5.5 334.5,-5.5 334.5,-35.5"/>
<text text-anchor="start" x="184.5" y="-23.5" font-family="Malgun Gothic" font-size="10.00">Source/Onepiece/Character</text>
<text text-anchor="middle" x="255.5" y="-12.5" font-family="Malgun Gothic" font-size="10.00">/Private/UHitStopSystem.cpp</text>
</a>
</g>
</g>
<!-- Node2&#45;&gt;Node4 -->
<g id="edge3_Node000002_Node000004" class="edge">
<title>Node2&#45;&gt;Node4</title>
<g id="a_edge3_Node000002_Node000004"><a xlink:title=" ">
<path fill="none" stroke="#63b8ff" d="M377.94,-73.09C348.75,-60.79 313.95,-46.13 288.92,-35.58"/>
<polygon fill="#63b8ff" stroke="#63b8ff" points="376.62,-76.33 387.2,-76.99 379.34,-69.88 376.62,-76.33"/>
</a>
</g>
</g>
<!-- Node5 -->
<g id="Node000005" class="node">
<title>Node5</title>
<g id="a_Node000005"><a xlink:href="UKnockbackSystem_8cpp.html" target="_top" xlink:title="FMath의 동작을 구현합니다.">
<polygon fill="white" stroke="#666666" points="528,-35.5 353,-35.5 353,-5.5 528,-5.5 528,-35.5"/>
<text text-anchor="start" x="361" y="-23.5" font-family="Malgun Gothic" font-size="10.00">Source/Onepiece/Character</text>
<text text-anchor="middle" x="440.5" y="-12.5" font-family="Malgun Gothic" font-size="10.00">/Private/UKnockbackSystem.cpp</text>
</a>
</g>
</g>
<!-- Node2&#45;&gt;Node5 -->
<g id="edge4_Node000002_Node000005" class="edge">
<title>Node2&#45;&gt;Node5</title>
<g id="a_edge4_Node000002_Node000005"><a xlink:title=" ">
<path fill="none" stroke="#63b8ff" d="M436.29,-66.61C437.28,-56.01 438.35,-44.57 439.16,-35.86"/>
<polygon fill="#63b8ff" stroke="#63b8ff" points="432.78,-66.51 435.34,-76.79 439.75,-67.16 432.78,-66.51"/>
</a>
</g>
</g>
<!-- Node6 -->
<g id="Node000006" class="node">
<title>Node6</title>
<g id="a_Node000006"><a xlink:href="UHttpNetworkSystem_8cpp.html" target="_top" xlink:title="UHttpNetworkSystem의 동작을 구현합니다.">
<polygon fill="white" stroke="#666666" points="911.5,-35.5 727.5,-35.5 727.5,-5.5 911.5,-5.5 911.5,-35.5"/>
<text text-anchor="start" x="735.5" y="-23.5" font-family="Malgun Gothic" font-size="10.00">Source/Onepiece/Network</text>
<text text-anchor="middle" x="819.5" y="-12.5" font-family="Malgun Gothic" font-size="10.00">/Private/UHttpNetworkSystem.cpp</text>
</a>
</g>
</g>
<!-- Node2&#45;&gt;Node6 -->
<g id="edge5_Node000002_Node000006" class="edge">
<title>Node2&#45;&gt;Node6</title>
<g id="a_edge5_Node000002_Node000006"><a xlink:title=" ">
<path fill="none" stroke="#63b8ff" d="M520.71,-76.79C608.79,-58.97 632.66,-56.82 717.5,-41 726.89,-39.25 736.77,-37.39 746.53,-35.53"/>
<polygon fill="#63b8ff" stroke="#63b8ff" points="519.92,-73.38 510.82,-78.8 521.32,-80.24 519.92,-73.38"/>
</a>
</g>
</g>
<!-- Node8 -->
<g id="Node000008" class="node">
<title>Node8</title>
<g id="a_Node000008"><a xlink:href="UDelayTaskManager_8cpp.html" target="_top" xlink:title="UDelayTaskManager의 동작을 구현합니다.">
<polygon fill="white" stroke="#666666" points="1288,-41 1127,-41 1127,0 1288,0 1288,-41"/>
<text text-anchor="start" x="1135" y="-29" font-family="Malgun Gothic" font-size="10.00">Source/LatteLibrary</text>
<text text-anchor="start" x="1135" y="-18" font-family="Malgun Gothic" font-size="10.00">/Manager/Private/UDelayTask</text>
<text text-anchor="middle" x="1207.5" y="-7" font-family="Malgun Gothic" font-size="10.00">Manager.cpp</text>
</a>
</g>
</g>
<!-- Node7&#45;&gt;Node8 -->
<g id="edge7_Node000007_Node000008" class="edge">
<title>Node7&#45;&gt;Node8</title>
<g id="a_edge7_Node000007_Node000008"><a xlink:title=" ">
<path fill="none" stroke="#63b8ff" d="M1284.63,-71.37C1269.41,-61.53 1252.21,-50.41 1237.93,-41.17"/>
<polygon fill="#63b8ff" stroke="#63b8ff" points="1283.03,-74.5 1293.33,-76.99 1286.83,-68.62 1283.03,-74.5"/>
</a>
</g>
</g>
<!-- Node9 -->
<g id="Node000009" class="node">
<title>Node9</title>
<g id="a_Node000009"><a xlink:href="UDialogWidget_8cpp.html" target="_top" xlink:title="UDialogWidget의 동작을 구현합니다.">
<polygon fill="white" stroke="#666666" points="1457,-35.5 1306,-35.5 1306,-5.5 1457,-5.5 1457,-35.5"/>
<text text-anchor="start" x="1314" y="-23.5" font-family="Malgun Gothic" font-size="10.00">Source/Onepiece/UI</text>
<text text-anchor="middle" x="1381.5" y="-12.5" font-family="Malgun Gothic" font-size="10.00">/Private/UDialogWidget.cpp</text>
</a>
</g>
</g>
<!-- Node7&#45;&gt;Node9 -->
<g id="edge8_Node000007_Node000009" class="edge">
<title>Node7&#45;&gt;Node9</title>
<g id="a_edge8_Node000007_Node000009"><a xlink:title=" ">
<path fill="none" stroke="#63b8ff" d="M1345.08,-68.59C1353.69,-57.46 1363.24,-45.12 1370.39,-35.86"/>
<polygon fill="#63b8ff" stroke="#63b8ff" points="1342.09,-66.74 1338.74,-76.79 1347.63,-71.03 1342.09,-66.74"/>
</a>
</g>
</g>
<!-- Node10&#45;&gt;Node4 -->
<g id="edge11_Node000010_Node000004" class="edge">
<title>Node10&#45;&gt;Node4</title>
<g id="a_edge11_Node000010_Node000004"><a xlink:title=" ">
<path fill="none" stroke="#63b8ff" d="M546.88,-80.6C489.18,-69.84 411.7,-55.08 343.5,-41 335.22,-39.29 326.52,-37.44 317.95,-35.57"/>
<polygon fill="#63b8ff" stroke="#63b8ff" points="546.59,-84.11 557.06,-82.5 547.87,-77.22 546.59,-84.11"/>
</a>
</g>
</g>
<!-- Node10&#45;&gt;Node5 -->
<g id="edge12_Node000010_Node000005" class="edge">
<title>Node10&#45;&gt;Node5</title>
<g id="a_edge12_Node000010_Node000005"><a xlink:title=" ">
<path fill="none" stroke="#63b8ff" d="M587.51,-78.63C553.56,-65.43 508,-47.73 476.64,-35.54"/>
<polygon fill="#63b8ff" stroke="#63b8ff" points="586.61,-82.03 597.2,-82.39 589.14,-75.51 586.61,-82.03"/>
</a>
</g>
</g>
<!-- Node11 -->
<g id="Node000011" class="node">
<title>Node11</title>
<g id="a_Node000011"><a xlink:href="UGameDataManager_8cpp.html" target="_top" xlink:title="UGameDataManager의 동작을 구현합니다.">
<polygon fill="white" stroke="#666666" points="709,-41 546,-41 546,0 709,0 709,-41"/>
<text text-anchor="start" x="554" y="-29" font-family="Malgun Gothic" font-size="10.00">Source/LatteLibrary</text>
<text text-anchor="start" x="554" y="-18" font-family="Malgun Gothic" font-size="10.00">/Manager/Private/UGameData</text>
<text text-anchor="middle" x="627.5" y="-7" font-family="Malgun Gothic" font-size="10.00">Manager.cpp</text>
</a>
</g>
</g>
<!-- Node10&#45;&gt;Node11 -->
<g id="edge10_Node000010_Node000011" class="edge">
<title>Node10&#45;&gt;Node11</title>
<g id="a_edge10_Node000010_Node000011"><a xlink:title=" ">
<path fill="none" stroke="#63b8ff" d="M631.56,-72.23C630.76,-62.2 629.84,-50.71 629.08,-41.2"/>
<polygon fill="#63b8ff" stroke="#63b8ff" points="628.09,-72.7 632.37,-82.39 635.06,-72.15 628.09,-72.7"/>
</a>
</g>
</g>
<!-- Node12 -->
<g id="Node000012" class="node">
<title>Node12</title>
<g id="a_Node000012"><a xlink:href="ANetworkTesterActor_8cpp.html" target="_top" xlink:title="ANetworkTesterActor의 동작을 구현합니다.">
<polygon fill="white" stroke="#666666" points="1109,-35.5 930,-35.5 930,-5.5 1109,-5.5 1109,-35.5"/>
<text text-anchor="start" x="938" y="-23.5" font-family="Malgun Gothic" font-size="10.00">Source/Onepiece/Network</text>
<text text-anchor="middle" x="1019.5" y="-12.5" font-family="Malgun Gothic" font-size="10.00">/Private/ANetworkTesterActor.cpp</text>
</a>
</g>
</g>
<!-- Node10&#45;&gt;Node12 -->
<g id="edge13_Node000010_Node000012" class="edge">
<title>Node10&#45;&gt;Node12</title>
<g id="a_edge13_Node000010_Node000012"><a xlink:title=" ">
<path fill="none" stroke="#63b8ff" d="M716.45,-80.54C773.77,-69.49 851.78,-54.41 920.5,-41 929.53,-39.24 939.01,-37.38 948.39,-35.54"/>
<polygon fill="#63b8ff" stroke="#63b8ff" points="715.51,-77.15 706.35,-82.48 716.83,-84.03 715.51,-77.15"/>
</a>
</g>
</g>
<!-- Node14 -->
<g id="Node000014" class="node">
<title>Node14</title>
<g id="a_Node000014"><a xlink:href="UGameSoundManager_8cpp.html" target="_top" xlink:title="UGameSoundManager의 동작을 구현합니다.">
<polygon fill="white" stroke="#666666" points="1645.5,-41 1475.5,-41 1475.5,0 1645.5,0 1645.5,-41"/>
<text text-anchor="start" x="1483.5" y="-29" font-family="Malgun Gothic" font-size="10.00">Source/LatteLibrary</text>
<text text-anchor="start" x="1483.5" y="-18" font-family="Malgun Gothic" font-size="10.00">/Manager/Private/UGameSound</text>
<text text-anchor="middle" x="1560.5" y="-7" font-family="Malgun Gothic" font-size="10.00">Manager.cpp</text>
</a>
</g>
</g>
<!-- Node13&#45;&gt;Node14 -->
<g id="edge15_Node000013_Node000014" class="edge">
<title>Node13&#45;&gt;Node14</title>
<g id="a_edge15_Node000013_Node000014"><a xlink:title=" ">
<path fill="none" stroke="#63b8ff" d="M1523.39,-68.67C1530.61,-59.5 1538.48,-49.5 1545.1,-41.07"/>
<polygon fill="#63b8ff" stroke="#63b8ff" points="1520.43,-66.77 1517,-76.79 1525.94,-71.1 1520.43,-66.77"/>
</a>
</g>
</g>
<!-- Node16 -->
<g id="Node000016" class="node">
<title>Node16</title>
<g id="a_Node000016"><a xlink:href="UGameVFXManager_8cpp.html" target="_top" xlink:title="UGameVFXManager의 동작을 구현합니다.">
<polygon fill="white" stroke="#666666" points="1885,-35.5 1664,-35.5 1664,-5.5 1885,-5.5 1885,-35.5"/>
<text text-anchor="start" x="1672" y="-23.5" font-family="Malgun Gothic" font-size="10.00">Source/LatteLibrary</text>
<text text-anchor="middle" x="1774.5" y="-12.5" font-family="Malgun Gothic" font-size="10.00">/Manager/Private/UGameVFXManager.cpp</text>
</a>
</g>
</g>
<!-- Node15&#45;&gt;Node16 -->
<g id="edge17_Node000015_Node000016" class="edge">
<title>Node15&#45;&gt;Node16</title>
<g id="a_edge17_Node000015_Node000016"><a xlink:title=" ">
<path fill="none" stroke="#63b8ff" d="M1724.61,-74.96C1736.43,-62.29 1751.04,-46.63 1761.39,-35.54"/>
<polygon fill="#63b8ff" stroke="#63b8ff" points="1721.93,-72.69 1717.67,-82.39 1727.05,-77.47 1721.93,-72.69"/>
</a>
</g>
</g>
<!-- Node18 -->
<g id="Node000018" class="node">
<title>Node18</title>
<g id="a_Node000018"><a xlink:href="UObjectPoolManager_8cpp.html" target="_top" xlink:title="UObjectPoolManager의 동작을 구현합니다.">
<polygon fill="white" stroke="#666666" points="2066,-41 1903,-41 1903,0 2066,0 2066,-41"/>
<text text-anchor="start" x="1911" y="-29" font-family="Malgun Gothic" font-size="10.00">Source/LatteLibrary</text>
<text text-anchor="start" x="1911" y="-18" font-family="Malgun Gothic" font-size="10.00">/Manager/Private/UObjectPool</text>
<text text-anchor="middle" x="1984.5" y="-7" font-family="Malgun Gothic" font-size="10.00">Manager.cpp</text>
</a>
</g>
</g>
<!-- Node17&#45;&gt;Node18 -->
<g id="edge19_Node000017_Node000018" class="edge">
<title>Node17&#45;&gt;Node18</title>
<g id="a_edge19_Node000017_Node000018"><a xlink:title=" ">
<path fill="none" stroke="#63b8ff" d="M1932.35,-69.79C1942.58,-60.32 1953.89,-49.84 1963.36,-41.07"/>
<polygon fill="#63b8ff" stroke="#63b8ff" points="1929.74,-67.43 1924.78,-76.79 1934.5,-72.57 1929.74,-67.43"/>
</a>
</g>
</g>
<!-- Node20&#45;&gt;Node6 -->
<g id="edge23_Node000020_Node000006" class="edge">
<title>Node20&#45;&gt;Node6</title>
<g id="a_edge23_Node000020_Node000006"><a xlink:title=" ">
<path fill="none" stroke="#63b8ff" d="M972.29,-78.8C937.07,-65.59 889.58,-47.78 856.95,-35.54"/>
<polygon fill="#63b8ff" stroke="#63b8ff" points="971.29,-82.16 981.88,-82.39 973.75,-75.6 971.29,-82.16"/>
</a>
</g>
</g>
<!-- Node20&#45;&gt;Node12 -->
<g id="edge22_Node000020_Node000012" class="edge">
<title>Node20&#45;&gt;Node12</title>
<g id="a_edge22_Node000020_Node000012"><a xlink:title=" ">
<path fill="none" stroke="#63b8ff" d="M1019.5,-72.04C1019.5,-59.95 1019.5,-45.79 1019.5,-35.54"/>
<polygon fill="#63b8ff" stroke="#63b8ff" points="1016,-72.39 1019.5,-82.39 1023,-72.39 1016,-72.39"/>
</a>
</g>
</g>
<!-- Node22 -->
<g id="Node000022" class="node">
<title>Node22</title>
<g id="a_Node000022"><a xlink:href="UWebSocketSystem_8cpp.html" target="_top" xlink:title="UWebSocketSystem의 동작을 구현합니다.">
<polygon fill="white" stroke="#666666" points="2316,-35.5 2141,-35.5 2141,-5.5 2316,-5.5 2316,-35.5"/>
<text text-anchor="start" x="2149" y="-23.5" font-family="Malgun Gothic" font-size="10.00">Source/Onepiece/Network</text>
<text text-anchor="middle" x="2228.5" y="-12.5" font-family="Malgun Gothic" font-size="10.00">/Private/UWebSocketSystem.cpp</text>
</a>
</g>
</g>
<!-- Node21&#45;&gt;Node22 -->
<g id="edge25_Node000021_Node000022" class="edge">
<title>Node21&#45;&gt;Node22</title>
<g id="a_edge25_Node000021_Node000022"><a xlink:title=" ">
<path fill="none" stroke="#63b8ff" d="M2240.04,-72.41C2237.28,-60.24 2234.03,-45.9 2231.68,-35.54"/>
<polygon fill="#63b8ff" stroke="#63b8ff" points="2236.68,-73.41 2242.3,-82.39 2243.51,-71.87 2236.68,-73.41"/>
</a>
</g>
</g>
<!-- Node24 -->
<g id="Node000024" class="node">
<title>Node24</title>
<g id="a_Node000024"><a xlink:href="UDialogManager_8cpp.html" target="_top" xlink:title="UDialogManager의 동작을 구현합니다.">
<polygon fill="white" stroke="#666666" points="2492.5,-35.5 2334.5,-35.5 2334.5,-5.5 2492.5,-5.5 2492.5,-35.5"/>
<text text-anchor="start" x="2342.5" y="-23.5" font-family="Malgun Gothic" font-size="10.00">Source/Onepiece/UI</text>
<text text-anchor="middle" x="2413.5" y="-12.5" font-family="Malgun Gothic" font-size="10.00">/Private/UDialogManager.cpp</text>
</a>
</g>
</g>
<!-- Node23&#45;&gt;Node24 -->
<g id="edge27_Node000023_Node000024" class="edge">
<title>Node23&#45;&gt;Node24</title>
<g id="a_edge27_Node000023_Node000024"><a xlink:title=" ">
<path fill="none" stroke="#63b8ff" d="M2413.5,-72.04C2413.5,-59.95 2413.5,-45.79 2413.5,-35.54"/>
<polygon fill="#63b8ff" stroke="#63b8ff" points="2410,-72.39 2413.5,-82.39 2417,-72.39 2410,-72.39"/>
</a>
</g>
</g>
<!-- Node26 -->
<g id="Node000026" class="node">
<title>Node26</title>
<g id="a_Node000026"><a xlink:href="ULoadingCircleManager_8cpp.html" target="_top" xlink:title="ULoadingCircleManager의 동작을 구현합니다.">
<polygon fill="white" stroke="#666666" points="2704,-35.5 2511,-35.5 2511,-5.5 2704,-5.5 2704,-35.5"/>
<text text-anchor="start" x="2519" y="-23.5" font-family="Malgun Gothic" font-size="10.00">Source/Onepiece/UI</text>
<text text-anchor="middle" x="2607.5" y="-12.5" font-family="Malgun Gothic" font-size="10.00">/Private/ULoadingCircleManager.cpp</text>
</a>
</g>
</g>
<!-- Node25&#45;&gt;Node26 -->
<g id="edge29_Node000025_Node000026" class="edge">
<title>Node25&#45;&gt;Node26</title>
<g id="a_edge29_Node000025_Node000026"><a xlink:title=" ">
<path fill="none" stroke="#63b8ff" d="M2601.39,-72.41C2602.85,-60.24 2604.57,-45.9 2605.81,-35.54"/>
<polygon fill="#63b8ff" stroke="#63b8ff" points="2597.91,-72.05 2600.19,-82.39 2604.86,-72.88 2597.91,-72.05"/>
</a>
</g>
</g>
</g>
</svg>
