<?xml version="1.0" encoding="UTF-8" standalone="no"?>
<!DOCTYPE svg PUBLIC "-//W3C//DTD SVG 1.1//EN"
 "http://www.w3.org/Graphics/SVG/1.1/DTD/svg11.dtd">
<!-- Generated by graphviz version 2.43.0 (0)
 -->
<!-- Title: Source/Onepiece/Network/Public/NetworkData.h Pages: 1 -->
<svg width="748pt" height="170pt"
 viewBox="0.00 0.00 748.38 170.00" xmlns="http://www.w3.org/2000/svg" xmlns:xlink="http://www.w3.org/1999/xlink">
<g id="graph0" class="graph" transform="scale(1 1) rotate(0) translate(4 166)">
<title>Source/Onepiece/Network/Public/NetworkData.h</title>
<!-- Node1 -->
<g id="Node000001" class="node">
<title>Node1</title>
<g id="a_Node000001"><a xlink:title="네트워크 요청과 응답에 사용되는 구조체 및 설정을 정의합니다.">
<polygon fill="#999999" stroke="#666666" points="341.88,-162 198.88,-162 198.88,-132 341.88,-132 341.88,-162"/>
<text text-anchor="start" x="206.88" y="-150" font-family="Malgun Gothic" font-size="10.00">Source/Onepiece/Network</text>
<text text-anchor="middle" x="270.38" y="-139" font-family="Malgun Gothic" font-size="10.00">/Public/NetworkData.h</text>
</a>
</g>
</g>
<!-- Node2 -->
<g id="Node000002" class="node">
<title>Node2</title>
<g id="a_Node000002"><a xlink:href="ANetworkTesterActor_8cpp.html" target="_top" xlink:title="ANetworkTesterActor의 동작을 구현합니다.">
<polygon fill="white" stroke="#666666" points="537.88,-30 358.88,-30 358.88,0 537.88,0 537.88,-30"/>
<text text-anchor="start" x="366.88" y="-18" font-family="Malgun Gothic" font-size="10.00">Source/Onepiece/Network</text>
<text text-anchor="middle" x="448.38" y="-7" font-family="Malgun Gothic" font-size="10.00">/Private/ANetworkTesterActor.cpp</text>
</a>
</g>
</g>
<!-- Node1&#45;&gt;Node2 -->
<g id="edge1_Node000001_Node000002" class="edge">
<title>Node1&#45;&gt;Node2</title>
<g id="a_edge1_Node000001_Node000002"><a xlink:title=" ">
<path fill="none" stroke="#63b8ff" d="M188.7,-145.29C94.34,-141.7 -41.46,-126.36 12.38,-66 34.99,-40.64 237.77,-26.35 358.66,-20.01"/>
<polygon fill="#63b8ff" stroke="#63b8ff" points="188.72,-148.79 198.84,-145.63 188.96,-141.79 188.72,-148.79"/>
</a>
</g>
</g>
<!-- Node3 -->
<g id="Node000003" class="node">
<title>Node3</title>
<g id="a_Node000003"><a xlink:href="NetworkData_8cpp.html" target="_top" xlink:title="FResponseHealth의 동작을 구현합니다.">
<polygon fill="white" stroke="#666666" points="164.88,-96 21.88,-96 21.88,-66 164.88,-66 164.88,-96"/>
<text text-anchor="start" x="29.88" y="-84" font-family="Malgun Gothic" font-size="10.00">Source/Onepiece/Network</text>
<text text-anchor="middle" x="93.38" y="-73" font-family="Malgun Gothic" font-size="10.00">/Private/NetworkData.cpp</text>
</a>
</g>
</g>
<!-- Node1&#45;&gt;Node3 -->
<g id="edge2_Node000001_Node000003" class="edge">
<title>Node1&#45;&gt;Node3</title>
<g id="a_edge2_Node000001_Node000003"><a xlink:title=" ">
<path fill="none" stroke="#63b8ff" d="M221.86,-128.46C193.62,-118.25 158.51,-105.55 132.13,-96.01"/>
<polygon fill="#63b8ff" stroke="#63b8ff" points="220.94,-131.85 231.53,-131.95 223.32,-125.26 220.94,-131.85"/>
</a>
</g>
</g>
<!-- Node4 -->
<g id="Node000004" class="node">
<title>Node4</title>
<g id="a_Node000004"><a xlink:href="UWebSocketSystem_8cpp.html" target="_top" xlink:title="UWebSocketSystem의 동작을 구현합니다.">
<polygon fill="white" stroke="#666666" points="357.88,-96 182.88,-96 182.88,-66 357.88,-66 357.88,-96"/>
<text text-anchor="start" x="190.88" y="-84" font-family="Malgun Gothic" font-size="10.00">Source/Onepiece/Network</text>
<text text-anchor="middle" x="270.38" y="-73" font-family="Malgun Gothic" font-size="10.00">/Private/UWebSocketSystem.cpp</text>
</a>
</g>
</g>
<!-- Node1&#45;&gt;Node4 -->
<g id="edge3_Node000001_Node000004" class="edge">
<title>Node1&#45;&gt;Node4</title>
<g id="a_edge3_Node000001_Node000004"><a xlink:title=" ">
<path fill="none" stroke="#63b8ff" d="M270.38,-121.54C270.38,-112.96 270.38,-103.61 270.38,-96.16"/>
<polygon fill="#63b8ff" stroke="#63b8ff" points="266.88,-121.8 270.38,-131.8 273.88,-121.8 266.88,-121.8"/>
</a>
</g>
</g>
<!-- Node5 -->
<g id="Node000005" class="node">
<title>Node5</title>
<g id="a_Node000005"><a xlink:href="ANetworkTesterActor_8h.html" target="_top" xlink:title="네트워크 진단용 테스트 액터를 선언합니다.">
<polygon fill="white" stroke="#666666" points="538.88,-96 375.88,-96 375.88,-66 538.88,-66 538.88,-96"/>
<text text-anchor="start" x="383.88" y="-84" font-family="Malgun Gothic" font-size="10.00">Source/Onepiece/Network</text>
<text text-anchor="middle" x="457.38" y="-73" font-family="Malgun Gothic" font-size="10.00">/Public/ANetworkTesterActor.h</text>
</a>
</g>
</g>
<!-- Node1&#45;&gt;Node5 -->
<g id="edge4_Node000001_Node000005" class="edge">
<title>Node1&#45;&gt;Node5</title>
<g id="a_edge4_Node000001_Node000005"><a xlink:title=" ">
<path fill="none" stroke="#63b8ff" d="M321.25,-128.59C351.15,-118.36 388.44,-105.59 416.43,-96.01"/>
<polygon fill="#63b8ff" stroke="#63b8ff" points="319.74,-125.41 311.42,-131.95 322.01,-132.03 319.74,-125.41"/>
</a>
</g>
</g>
<!-- Node6 -->
<g id="Node000006" class="node">
<title>Node6</title>
<g id="a_Node000006"><a xlink:href="UHttpNetworkSystem_8h.html" target="_top" xlink:title="HTTP 기반 음성·GPT 파이프라인 요청을 담당하는 서브시스템을 선언합니다.">
<polygon fill="white" stroke="#666666" points="723.88,-96 556.88,-96 556.88,-66 723.88,-66 723.88,-96"/>
<text text-anchor="start" x="564.88" y="-84" font-family="Malgun Gothic" font-size="10.00">Source/Onepiece/Network</text>
<text text-anchor="middle" x="640.38" y="-73" font-family="Malgun Gothic" font-size="10.00">/Public/UHttpNetworkSystem.h</text>
</a>
</g>
</g>
<!-- Node1&#45;&gt;Node6 -->
<g id="edge6_Node000001_Node000006" class="edge">
<title>Node1&#45;&gt;Node6</title>
<g id="a_edge6_Node000001_Node000006"><a xlink:title=" ">
<path fill="none" stroke="#63b8ff" d="M352.22,-131.84C413.78,-121.2 497.73,-106.67 559.14,-96.05"/>
<polygon fill="#63b8ff" stroke="#63b8ff" points="351.41,-128.43 342.16,-133.58 352.61,-135.33 351.41,-128.43"/>
</a>
</g>
</g>
<!-- Node5&#45;&gt;Node2 -->
<g id="edge5_Node000005_Node000002" class="edge">
<title>Node5&#45;&gt;Node2</title>
<g id="a_edge5_Node000005_Node000002"><a xlink:title=" ">
<path fill="none" stroke="#63b8ff" d="M453.98,-55.83C452.76,-47.17 451.43,-37.7 450.37,-30.16"/>
<polygon fill="#63b8ff" stroke="#63b8ff" points="450.52,-56.38 455.38,-65.8 457.45,-55.41 450.52,-56.38"/>
</a>
</g>
</g>
<!-- Node6&#45;&gt;Node2 -->
<g id="edge7_Node000006_Node000002" class="edge">
<title>Node6&#45;&gt;Node2</title>
<g id="a_edge7_Node000006_Node000002"><a xlink:title=" ">
<path fill="none" stroke="#63b8ff" d="M588.55,-62.72C557.78,-52.47 519.28,-39.63 490.41,-30.01"/>
<polygon fill="#63b8ff" stroke="#63b8ff" points="587.65,-66.11 598.24,-65.95 589.86,-59.47 587.65,-66.11"/>
</a>
</g>
</g>
<!-- Node7 -->
<g id="Node000007" class="node">
<title>Node7</title>
<g id="a_Node000007"><a xlink:href="UHttpNetworkSystem_8cpp.html" target="_top" xlink:title="UHttpNetworkSystem의 동작을 구현합니다.">
<polygon fill="white" stroke="#666666" points="740.38,-30 556.38,-30 556.38,0 740.38,0 740.38,-30"/>
<text text-anchor="start" x="564.38" y="-18" font-family="Malgun Gothic" font-size="10.00">Source/Onepiece/Network</text>
<text text-anchor="middle" x="648.38" y="-7" font-family="Malgun Gothic" font-size="10.00">/Private/UHttpNetworkSystem.cpp</text>
</a>
</g>
</g>
<!-- Node6&#45;&gt;Node7 -->
<g id="edge8_Node000006_Node000007" class="edge">
<title>Node6&#45;&gt;Node7</title>
<g id="a_edge8_Node000006_Node000007"><a xlink:title=" ">
<path fill="none" stroke="#63b8ff" d="M643.4,-55.83C644.48,-47.17 645.67,-37.7 646.61,-30.16"/>
<polygon fill="#63b8ff" stroke="#63b8ff" points="639.92,-55.44 642.15,-65.8 646.87,-56.31 639.92,-55.44"/>
</a>
</g>
</g>
</g>
</svg>
