<?xml version="1.0" encoding="UTF-8" standalone="no"?>
<!DOCTYPE svg PUBLIC "-//W3C//DTD SVG 1.1//EN"
 "http://www.w3.org/Graphics/SVG/1.1/DTD/svg11.dtd">
<!-- Generated by graphviz version 2.43.0 (0)
 -->
<!-- Title: Source/Onepiece/Network/Private/NetworkData.cpp Pages: 1 -->
<!--zoomable 214 -->

<svg id="main" version="1.1" xmlns="http://www.w3.org/2000/svg" xmlns:xlink="http://www.w3.org/1999/xlink" xml:space="preserve" onload="init(evt)">
<style type="text/css"><![CDATA[
.node, .edge {opacity: 0.7;}
.node.selected, .edge.selected {opacity: 1;}
.edge:hover path { stroke: red; }
.edge:hover polygon { stroke: red; fill: red; }
]]></style>

<defs>
  <circle id="rim" cx="0" cy="0" r="7"/>
  <circle id="rim2" cx="0" cy="0" r="3.5"/>
  <g id="zoomPlus">
    <use xlink:href="#rim" fill="#404040"><set attributeName="fill" to="#808080" begin="zoomplus.mouseover" end="zoomplus.mouseout"/></use>
    <path d="M-4,0h8M0,-4v8" fill="none" stroke="white" stroke-width="1.5" pointer-events="none"/>
  </g>
  <g id="zoomMin">
    <use xlink:href="#rim" fill="#404040"><set attributeName="fill" to="#808080" begin="zoomminus.mouseover" end="zoomminus.mouseout"/></use>
    <path d="M-4,0h8" fill="none" stroke="white" stroke-width="1.5" pointer-events="none"/>
  </g>
  <g id="arrowUp" transform="translate(30 24)">
    <use xlink:href="#rim"/>
    <path pointer-events="none" fill="none" stroke="white" stroke-width="1.5" d="M0,-3.0v7 M-2.5,-0.5L0,-3.0L2.5,-0.5"/>
  </g>
  <g id="arrowRight" transform="rotate(90) translate(36 -43)">
    <use xlink:href="#rim"/>
    <path pointer-events="none" fill="none" stroke="white" stroke-width="1.5" d="M0,-3.0v7 M-2.5,-0.5L0,-3.0L2.5,-0.5"/>
  </g>
  <g id="arrowDown" transform="rotate(180) translate(-30 -48)">
    <use xlink:href="#rim"/>
    <path pointer-events="none" fill="none" stroke="white" stroke-width="1.5" d="M0,-3.0v7 M-2.5,-0.5L0,-3.0L2.5,-0.5"/>
  </g>
  <g id="arrowLeft" transform="rotate(270) translate(-36 17)">
    <use xlink:href="#rim"/>
    <path pointer-events="none" fill="none" stroke="white" stroke-width="1.5" d="M0,-3.0v7 M-2.5,-0.5L0,-3.0L2.5,-0.5"/>
  </g>
  <g id="resetDef">
    <use xlink:href="#rim2" fill="#404040"><set attributeName="fill" to="#808080" begin="reset.mouseover" end="reset.mouseout"/></use>
  </g>
</defs>
<script type="application/ecmascript">
var viewWidth = 1865;
var viewHeight = 214;
var sectionId = 'dynsection-0';
</script>
<script type="application/ecmascript" xlink:href="svg.min.js"/>
<svg id="graph" class="graph">
<g id="viewport">
<title>Source/Onepiece/Network/Private/NetworkData.cpp</title>
<!-- Node1 -->
<g id="Node000001" class="node">
<title>Node1</title>
<g id="a_Node000001"><a xlink:title="FResponseHealth의 동작을 구현합니다.">
<polygon fill="#999999" stroke="#666666" points="1122.5,-206 979.5,-206 979.5,-176 1122.5,-176 1122.5,-206"/>
<text text-anchor="start" x="987.5" y="-194" font-family="Malgun Gothic" font-size="10.00">Source/Onepiece/Network</text>
<text text-anchor="middle" x="1051" y="-183" font-family="Malgun Gothic" font-size="10.00">/Private/NetworkData.cpp</text>
</a>
</g>
</g>
<!-- Node2 -->
<g id="Node000002" class="node">
<title>Node2</title>
<g id="a_Node000002"><a xlink:href="NetworkData_8h.html" target="_top" xlink:title="네트워크 요청과 응답에 사용되는 구조체 및 설정을 정의합니다.">
<polygon fill="white" stroke="#666666" points="424,-140 334,-140 334,-121 424,-121 424,-140"/>
<text text-anchor="middle" x="379" y="-128" font-family="Malgun Gothic" font-size="10.00">NetworkData.h</text>
</a>
</g>
</g>
<!-- Node1&#45;&gt;Node2 -->
<g id="edge1_Node000001_Node000002" class="edge">
<title>Node1&#45;&gt;Node2</title>
<g id="a_edge1_Node000001_Node000002"><a xlink:title=" ">
<path fill="none" stroke="#63b8ff" d="M979.4,-183.77C844.51,-172.02 555.4,-146.86 434.22,-136.31"/>
<polygon fill="#63b8ff" stroke="#63b8ff" points="434.33,-132.8 424.06,-135.42 433.72,-139.78 434.33,-132.8"/>
</a>
</g>
</g>
<!-- Node9 -->
<g id="Node000009" class="node">
<title>Node9</title>
<g id="a_Node000009"><a xlink:title=" ">
<polygon fill="#e0e0e0" stroke="#999999" points="645.5,-140 520.5,-140 520.5,-121 645.5,-121 645.5,-140"/>
<text text-anchor="middle" x="583" y="-128" font-family="Malgun Gothic" font-size="10.00">JsonObjectConverter.h</text>
</a>
</g>
</g>
<!-- Node1&#45;&gt;Node9 -->
<g id="edge9_Node000001_Node000009" class="edge">
<title>Node1&#45;&gt;Node9</title>
<g id="a_edge9_Node000001_Node000009"><a xlink:title=" ">
<path fill="none" stroke="#63b8ff" d="M979.41,-181.05C891.64,-170.08 743.71,-151.59 655.51,-140.56"/>
<polygon fill="#63b8ff" stroke="#63b8ff" points="655.95,-137.09 645.59,-139.32 655.08,-144.04 655.95,-137.09"/>
</a>
</g>
</g>
<!-- Node10 -->
<g id="Node000010" class="node">
<title>Node10</title>
<g id="a_Node000010"><a xlink:href="NetworkLog_8h.html" target="_top" xlink:title="YiSan 전반에서 사용하는 공용 인터페이스를 선언합니다.">
<polygon fill="white" stroke="#666666" points="716,-79.5 632,-79.5 632,-60.5 716,-60.5 716,-79.5"/>
<text text-anchor="middle" x="674" y="-67.5" font-family="Malgun Gothic" font-size="10.00">NetworkLog.h</text>
</a>
</g>
</g>
<!-- Node1&#45;&gt;Node10 -->
<g id="edge10_Node000001_Node000010" class="edge">
<title>Node1&#45;&gt;Node10</title>
<g id="a_edge10_Node000001_Node000010"><a xlink:title=" ">
<path fill="none" stroke="#63b8ff" d="M979.34,-189.05C887.28,-186.35 734.39,-176.33 693,-140 678.87,-127.6 674.81,-105.76 673.85,-89.97"/>
<polygon fill="#63b8ff" stroke="#63b8ff" points="677.34,-89.67 673.59,-79.76 670.34,-89.84 677.34,-89.67"/>
</a>
</g>
</g>
<!-- Node11 -->
<g id="Node000011" class="node">
<title>Node11</title>
<g id="a_Node000011"><a xlink:href="UCommonFunctionLibrary_8h.html" target="_top" xlink:title="UCommonFunctionLibrary 클래스를 선언합니다.">
<polygon fill="white" stroke="#666666" points="853.5,-140 702.5,-140 702.5,-121 853.5,-121 853.5,-140"/>
<text text-anchor="middle" x="778" y="-128" font-family="Malgun Gothic" font-size="10.00">UCommonFunctionLibrary.h</text>
</a>
</g>
</g>
<!-- Node1&#45;&gt;Node11 -->
<g id="edge12_Node000001_Node000011" class="edge">
<title>Node1&#45;&gt;Node11</title>
<g id="a_edge12_Node000001_Node000011"><a xlink:title=" ">
<path fill="none" stroke="#63b8ff" d="M985.61,-175.99C937.17,-165.61 872.15,-151.68 827.87,-142.19"/>
<polygon fill="#63b8ff" stroke="#63b8ff" points="828.43,-138.73 817.92,-140.05 826.96,-145.57 828.43,-138.73"/>
</a>
</g>
</g>
<!-- Node14 -->
<g id="Node000014" class="node">
<title>Node14</title>
<g id="a_Node000014"><a xlink:title=" ">
<polygon fill="#e0e0e0" stroke="#999999" points="958.5,-140 871.5,-140 871.5,-121 958.5,-121 958.5,-140"/>
<text text-anchor="middle" x="915" y="-128" font-family="Malgun Gothic" font-size="10.00">Misc/Base64.h</text>
</a>
</g>
</g>
<!-- Node1&#45;&gt;Node14 -->
<g id="edge16_Node000001_Node000014" class="edge">
<title>Node1&#45;&gt;Node14</title>
<g id="a_edge16_Node000001_Node000014"><a xlink:title=" ">
<path fill="none" stroke="#63b8ff" d="M1018.42,-175.99C995.94,-166.31 966.28,-153.56 944.49,-144.18"/>
<polygon fill="#63b8ff" stroke="#63b8ff" points="945.65,-140.88 935.08,-140.14 942.89,-147.31 945.65,-140.88"/>
</a>
</g>
</g>
<!-- Node15 -->
<g id="Node000015" class="node">
<title>Node15</title>
<g id="a_Node000015"><a xlink:title=" ">
<polygon fill="#e0e0e0" stroke="#999999" points="1125.5,-140 976.5,-140 976.5,-121 1125.5,-121 1125.5,-140"/>
<text text-anchor="middle" x="1051" y="-128" font-family="Malgun Gothic" font-size="10.00">Interfaces/IHttpResponse.h</text>
</a>
</g>
</g>
<!-- Node1&#45;&gt;Node15 -->
<g id="edge17_Node000001_Node000015" class="edge">
<title>Node1&#45;&gt;Node15</title>
<g id="a_edge17_Node000001_Node000015"><a xlink:title=" ">
<path fill="none" stroke="#63b8ff" d="M1051,-175.84C1051,-168.21 1051,-158.7 1051,-150.45"/>
<polygon fill="#63b8ff" stroke="#63b8ff" points="1054.5,-150.27 1051,-140.27 1047.5,-150.27 1054.5,-150.27"/>
</a>
</g>
</g>
<!-- Node16 -->
<g id="Node000016" class="node">
<title>Node16</title>
<g id="a_Node000016"><a xlink:title=" ">
<polygon fill="#e0e0e0" stroke="#999999" points="1248,-140 1144,-140 1144,-121 1248,-121 1248,-140"/>
<text text-anchor="middle" x="1196" y="-128" font-family="Malgun Gothic" font-size="10.00">Dom/JsonObject.h</text>
</a>
</g>
</g>
<!-- Node1&#45;&gt;Node16 -->
<g id="edge18_Node000001_Node000016" class="edge">
<title>Node1&#45;&gt;Node16</title>
<g id="a_edge18_Node000001_Node000016"><a xlink:title=" ">
<path fill="none" stroke="#63b8ff" d="M1085.73,-175.99C1109.92,-166.23 1141.9,-153.33 1165.19,-143.93"/>
<polygon fill="#63b8ff" stroke="#63b8ff" points="1166.62,-147.13 1174.59,-140.14 1164,-140.63 1166.62,-147.13"/>
</a>
</g>
</g>
<!-- Node17 -->
<g id="Node000017" class="node">
<title>Node17</title>
<g id="a_Node000017"><a xlink:title=" ">
<polygon fill="#e0e0e0" stroke="#999999" points="1365.5,-140 1266.5,-140 1266.5,-121 1365.5,-121 1365.5,-140"/>
<text text-anchor="middle" x="1316" y="-128" font-family="Malgun Gothic" font-size="10.00">Dom/JsonValue.h</text>
</a>
</g>
</g>
<!-- Node1&#45;&gt;Node17 -->
<g id="edge19_Node000001_Node000017" class="edge">
<title>Node1&#45;&gt;Node17</title>
<g id="a_edge19_Node000001_Node000017"><a xlink:title=" ">
<path fill="none" stroke="#63b8ff" d="M1114.47,-175.99C1161.4,-165.63 1224.34,-151.73 1267.32,-142.25"/>
<polygon fill="#63b8ff" stroke="#63b8ff" points="1268.24,-145.63 1277.25,-140.05 1266.73,-138.79 1268.24,-145.63"/>
</a>
</g>
</g>
<!-- Node18 -->
<g id="Node000018" class="node">
<title>Node18</title>
<g id="a_Node000018"><a xlink:title=" ">
<polygon fill="#e0e0e0" stroke="#999999" points="1526.5,-140 1383.5,-140 1383.5,-121 1526.5,-121 1526.5,-140"/>
<text text-anchor="middle" x="1455" y="-128" font-family="Malgun Gothic" font-size="10.00">Serialization/JsonReader.h</text>
</a>
</g>
</g>
<!-- Node1&#45;&gt;Node18 -->
<g id="edge20_Node000001_Node000018" class="edge">
<title>Node1&#45;&gt;Node18</title>
<g id="a_edge20_Node000001_Node000018"><a xlink:title=" ">
<path fill="none" stroke="#63b8ff" d="M1122.76,-179.61C1197.15,-168.84 1312.62,-152.12 1385.98,-141.49"/>
<polygon fill="#63b8ff" stroke="#63b8ff" points="1386.64,-144.93 1396.04,-140.04 1385.64,-138.01 1386.64,-144.93"/>
</a>
</g>
</g>
<!-- Node19 -->
<g id="Node000019" class="node">
<title>Node19</title>
<g id="a_Node000019"><a xlink:title=" ">
<polygon fill="#e0e0e0" stroke="#999999" points="1699.5,-140 1544.5,-140 1544.5,-121 1699.5,-121 1699.5,-140"/>
<text text-anchor="middle" x="1622" y="-128" font-family="Malgun Gothic" font-size="10.00">Serialization/JsonSerializer.h</text>
</a>
</g>
</g>
<!-- Node1&#45;&gt;Node19 -->
<g id="edge21_Node000001_Node000019" class="edge">
<title>Node1&#45;&gt;Node19</title>
<g id="a_edge21_Node000001_Node000019"><a xlink:title=" ">
<path fill="none" stroke="#63b8ff" d="M1122.74,-182.65C1227.27,-171.94 1421.24,-152.07 1534.17,-140.5"/>
<polygon fill="#63b8ff" stroke="#63b8ff" points="1534.58,-143.98 1544.17,-139.47 1533.86,-137.01 1534.58,-143.98"/>
</a>
</g>
</g>
<!-- Node20 -->
<g id="Node000020" class="node">
<title>Node20</title>
<g id="a_Node000020"><a xlink:title=" ">
<polygon fill="#e0e0e0" stroke="#999999" points="1856.5,-140 1717.5,-140 1717.5,-121 1856.5,-121 1856.5,-140"/>
<text text-anchor="middle" x="1787" y="-128" font-family="Malgun Gothic" font-size="10.00">Serialization/JsonWriter.h</text>
</a>
</g>
</g>
<!-- Node1&#45;&gt;Node20 -->
<g id="edge22_Node000001_Node000020" class="edge">
<title>Node1&#45;&gt;Node20</title>
<g id="a_edge22_Node000001_Node000020"><a xlink:title=" ">
<path fill="none" stroke="#63b8ff" d="M1122.63,-185.33C1241.75,-177.39 1488.35,-160.23 1707.2,-140.14"/>
<polygon fill="#63b8ff" stroke="#63b8ff" points="1707.63,-143.62 1717.27,-139.21 1706.99,-136.65 1707.63,-143.62"/>
</a>
</g>
</g>
<!-- Node3 -->
<g id="Node000003" class="node">
<title>Node3</title>
<g id="a_Node000003"><a xlink:title=" ">
<polygon fill="#e0e0e0" stroke="#999999" points="599,-19 511,-19 511,0 599,0 599,-19"/>
<text text-anchor="middle" x="555" y="-7" font-family="Malgun Gothic" font-size="10.00">CoreMinimal.h</text>
</a>
</g>
</g>
<!-- Node2&#45;&gt;Node3 -->
<g id="edge2_Node000002_Node000003" class="edge">
<title>Node2&#45;&gt;Node3</title>
<g id="a_edge2_Node000002_Node000003"><a xlink:title=" ">
<path fill="none" stroke="#63b8ff" d="M346.79,-120.92C328.75,-114.29 307.77,-103.09 297,-85 290.18,-73.54 288.41,-65.2 297,-55 322.52,-24.7 432.89,-15.03 500.74,-11.95"/>
<polygon fill="#63b8ff" stroke="#63b8ff" points="500.99,-15.44 510.84,-11.52 500.7,-8.45 500.99,-15.44"/>
</a>
</g>
</g>
<!-- Node4 -->
<g id="Node000004" class="node">
<title>Node4</title>
<g id="a_Node000004"><a xlink:href="UCustomNetworkSettings_8h.html" target="_top" xlink:title="서버 환경별 네트워크 설정을 노출하는 DeveloperSettings를 선언합니다.">
<polygon fill="white" stroke="#666666" points="250,-79.5 98,-79.5 98,-60.5 250,-60.5 250,-79.5"/>
<text text-anchor="middle" x="174" y="-67.5" font-family="Malgun Gothic" font-size="10.00">UCustomNetworkSettings.h</text>
</a>
</g>
</g>
<!-- Node2&#45;&gt;Node4 -->
<g id="edge3_Node000002_Node000004" class="edge">
<title>Node2&#45;&gt;Node4</title>
<g id="a_edge3_Node000002_Node000004"><a xlink:title=" ">
<path fill="none" stroke="#63b8ff" d="M349.19,-120.99C313.44,-110.79 253.37,-93.65 213.71,-82.33"/>
<polygon fill="#63b8ff" stroke="#63b8ff" points="214.42,-78.9 203.84,-79.52 212.5,-85.63 214.42,-78.9"/>
</a>
</g>
</g>
<!-- Node7 -->
<g id="Node000007" class="node">
<title>Node7</title>
<g id="a_Node000007"><a xlink:title=" ">
<polygon fill="#e0e0e0" stroke="#999999" points="452,-79.5 306,-79.5 306,-60.5 452,-60.5 452,-79.5"/>
<text text-anchor="middle" x="379" y="-67.5" font-family="Malgun Gothic" font-size="10.00">Templates/SharedPointer.h</text>
</a>
</g>
</g>
<!-- Node2&#45;&gt;Node7 -->
<g id="edge7_Node000002_Node000007" class="edge">
<title>Node2&#45;&gt;Node7</title>
<g id="a_edge7_Node000002_Node000007"><a xlink:title=" ">
<path fill="none" stroke="#63b8ff" d="M379,-120.87C379,-112.75 379,-100.31 379,-89.89"/>
<polygon fill="#63b8ff" stroke="#63b8ff" points="382.5,-89.67 379,-79.67 375.5,-89.67 382.5,-89.67"/>
</a>
</g>
</g>
<!-- Node8 -->
<g id="Node000008" class="node">
<title>Node8</title>
<g id="a_Node000008"><a xlink:title=" ">
<polygon fill="#e0e0e0" stroke="#999999" points="613.5,-79.5 470.5,-79.5 470.5,-60.5 613.5,-60.5 613.5,-79.5"/>
<text text-anchor="middle" x="542" y="-67.5" font-family="Malgun Gothic" font-size="10.00">NetworkData.generated.h</text>
</a>
</g>
</g>
<!-- Node2&#45;&gt;Node8 -->
<g id="edge8_Node000002_Node000008" class="edge">
<title>Node2&#45;&gt;Node8</title>
<g id="a_edge8_Node000002_Node000008"><a xlink:title=" ">
<path fill="none" stroke="#63b8ff" d="M402.7,-120.99C430.59,-110.99 477.07,-94.3 508.6,-82.99"/>
<polygon fill="#63b8ff" stroke="#63b8ff" points="510.04,-86.19 518.27,-79.52 507.68,-79.6 510.04,-86.19"/>
</a>
</g>
</g>
<!-- Node4&#45;&gt;Node3 -->
<g id="edge4_Node000004_Node000003" class="edge">
<title>Node4&#45;&gt;Node3</title>
<g id="a_edge4_Node000004_Node000003"><a xlink:title=" ">
<path fill="none" stroke="#63b8ff" d="M228.73,-60.46C240.37,-58.65 252.59,-56.76 264,-55 346.43,-42.29 442.03,-27.7 500.5,-18.79"/>
<polygon fill="#63b8ff" stroke="#63b8ff" points="501.27,-22.22 510.62,-17.25 500.21,-15.3 501.27,-22.22"/>
</a>
</g>
</g>
<!-- Node5 -->
<g id="Node000005" class="node">
<title>Node5</title>
<g id="a_Node000005"><a xlink:title=" ">
<polygon fill="#e0e0e0" stroke="#999999" points="152,-19 0,-19 0,0 152,0 152,-19"/>
<text text-anchor="middle" x="76" y="-7" font-family="Malgun Gothic" font-size="10.00">Engine/DeveloperSettings.h</text>
</a>
</g>
</g>
<!-- Node4&#45;&gt;Node5 -->
<g id="edge5_Node000004_Node000005" class="edge">
<title>Node4&#45;&gt;Node5</title>
<g id="a_edge5_Node000004_Node000005"><a xlink:title=" ">
<path fill="none" stroke="#63b8ff" d="M159.54,-60.37C143.69,-50.91 118.03,-35.59 99.32,-24.42"/>
<polygon fill="#63b8ff" stroke="#63b8ff" points="100.9,-21.29 90.52,-19.17 97.31,-27.3 100.9,-21.29"/>
</a>
</g>
</g>
<!-- Node6 -->
<g id="Node000006" class="node">
<title>Node6</title>
<g id="a_Node000006"><a xlink:title=" ">
<polygon fill="#e0e0e0" stroke="#999999" points="374,-19 170,-19 170,0 374,0 374,-19"/>
<text text-anchor="middle" x="272" y="-7" font-family="Malgun Gothic" font-size="10.00">UCustomNetworkSettings.generated.h</text>
</a>
</g>
</g>
<!-- Node4&#45;&gt;Node6 -->
<g id="edge6_Node000004_Node000006" class="edge">
<title>Node4&#45;&gt;Node6</title>
<g id="a_edge6_Node000004_Node000006"><a xlink:title=" ">
<path fill="none" stroke="#63b8ff" d="M188.46,-60.37C204.31,-50.91 229.97,-35.59 248.68,-24.42"/>
<polygon fill="#63b8ff" stroke="#63b8ff" points="250.69,-27.3 257.48,-19.17 247.1,-21.29 250.69,-27.3"/>
</a>
</g>
</g>
<!-- Node10&#45;&gt;Node3 -->
<g id="edge11_Node000010_Node000003" class="edge">
<title>Node10&#45;&gt;Node3</title>
<g id="a_edge11_Node000010_Node000003"><a xlink:title=" ">
<path fill="none" stroke="#63b8ff" d="M656.7,-60.49C636.95,-50.79 604.45,-34.81 581.51,-23.53"/>
<polygon fill="#63b8ff" stroke="#63b8ff" points="582.84,-20.29 572.32,-19.02 579.75,-26.57 582.84,-20.29"/>
</a>
</g>
</g>
<!-- Node11&#45;&gt;Node3 -->
<g id="edge13_Node000011_Node000003" class="edge">
<title>Node11&#45;&gt;Node3</title>
<g id="a_edge13_Node000011_Node000003"><a xlink:title=" ">
<path fill="none" stroke="#63b8ff" d="M774.31,-120.86C767.17,-105.22 749.95,-72.22 725,-55 690.84,-31.42 644.96,-20.33 609.48,-15.12"/>
<polygon fill="#63b8ff" stroke="#63b8ff" points="609.68,-11.62 599.3,-13.74 608.74,-18.55 609.68,-11.62"/>
</a>
</g>
</g>
<!-- Node12 -->
<g id="Node000012" class="node">
<title>Node12</title>
<g id="a_Node000012"><a xlink:title=" ">
<polygon fill="#e0e0e0" stroke="#999999" points="912,-85 772,-85 772,-55 912,-55 912,-85"/>
<text text-anchor="start" x="780" y="-73" font-family="Malgun Gothic" font-size="10.00">Kismet/BlueprintFunction</text>
<text text-anchor="middle" x="842" y="-62" font-family="Malgun Gothic" font-size="10.00">Library.h</text>
</a>
</g>
</g>
<!-- Node11&#45;&gt;Node12 -->
<g id="edge14_Node000011_Node000012" class="edge">
<title>Node11&#45;&gt;Node12</title>
<g id="a_edge14_Node000011_Node000012"><a xlink:title=" ">
<path fill="none" stroke="#63b8ff" d="M787.44,-120.87C795.73,-113.3 808.11,-101.98 818.99,-92.04"/>
<polygon fill="#63b8ff" stroke="#63b8ff" points="821.54,-94.44 826.56,-85.11 816.82,-89.28 821.54,-94.44"/>
</a>
</g>
</g>
<!-- Node13 -->
<g id="Node000013" class="node">
<title>Node13</title>
<g id="a_Node000013"><a xlink:title=" ">
<polygon fill="#e0e0e0" stroke="#999999" points="1133.5,-79.5 930.5,-79.5 930.5,-60.5 1133.5,-60.5 1133.5,-79.5"/>
<text text-anchor="middle" x="1032" y="-67.5" font-family="Malgun Gothic" font-size="10.00">UCommonFunctionLibrary.generated.h</text>
</a>
</g>
</g>
<!-- Node11&#45;&gt;Node13 -->
<g id="edge15_Node000011_Node000013" class="edge">
<title>Node11&#45;&gt;Node13</title>
<g id="a_edge15_Node000011_Node000013"><a xlink:title=" ">
<path fill="none" stroke="#63b8ff" d="M814.93,-120.99C859.89,-110.64 935.88,-93.14 984.97,-81.83"/>
<polygon fill="#63b8ff" stroke="#63b8ff" points="986.06,-85.17 995.02,-79.52 984.49,-78.35 986.06,-85.17"/>
</a>
</g>
</g>
</g>
</svg>

<g id="navigator" transform="translate(0 0)" fill="#404254">
  <rect fill="#f2f5e9" fill-opacity="0.5" stroke="#606060" stroke-width=".5" x="0" y="0" width="60" height="60"/>
  <use id="zoomplus" xlink:href="#zoomPlus" x="17" y="9" onmousedown="handleZoom(evt,'in')"/>
  <use id="zoomminus" xlink:href="#zoomMin" x="42" y="9" onmousedown="handleZoom(evt,'out')"/>
  <use id="reset" xlink:href="#resetDef" x="30" y="36" onmousedown="handleReset()"/>
   <use id="arrowup" xlink:href="#arrowUp" x="0" y="0" onmousedown="handlePan(0,-1)"/>
  <use id="arrowright" xlink:href="#arrowRight" x="0" y="0" onmousedown="handlePan(1,0)"/>
  <use id="arrowdown" xlink:href="#arrowDown" x="0" y="0" onmousedown="handlePan(0,1)"/>
  <use id="arrowleft" xlink:href="#arrowLeft" x="0" y="0" onmousedown="handlePan(-1,0)"/>
</g>
<svg viewBox="0 0 15 15" width="100%" height="30px" preserveAspectRatio="xMaxYMin meet">
 <g id="arrow_out" transform="scale(0.3 0.3)">
  <a xlink:href="NetworkData_8cpp__incl_org.svg" target="_base">
   <rect id="button" ry="5" rx="5" y="6" x="6" height="38" width="38"
        fill="#f2f5e9" fill-opacity="0.5" stroke="#606060" stroke-width="1.0"/>
   <path id="arrow"
     d="M 11.500037,31.436501 C 11.940474,20.09759 22.043105,11.32322 32.158766,21.979434 L 37.068811,17.246167 C 37.068811,17.246167 37.088388,32 37.088388,32 L 22.160133,31.978069 C 22.160133,31.978069 26.997745,27.140456 26.997745,27.140456 C 18.528582,18.264221 13.291696,25.230495 11.500037,31.436501 z"
     style="fill:#404040;"/>
  </a>
 </g>
</svg>

<style type='text/css'>
<![CDATA[
[data-mouse-over-selected='false'] { opacity: 0.7; }
[data-mouse-over-selected='true']  { opacity: 1.0; }
]]>
</style>
<script type="application/ecmascript"><![CDATA[
document.addEventListener('DOMContentLoaded', (event) => {
  highlightEdges();
  highlightAdjacentNodes();
});
]]></script>
</svg>
