<?xml version="1.0" encoding="UTF-8" standalone="no"?>
<!DOCTYPE svg PUBLIC "-//W3C//DTD SVG 1.1//EN"
 "http://www.w3.org/Graphics/SVG/1.1/DTD/svg11.dtd">
<!-- Generated by graphviz version 2.43.0 (0)
 -->
<!-- Title: Source/CoffeeLibrary/Shared/Public/NetworkLog.h Pages: 1 -->
<svg width="1590pt" height="181pt"
 viewBox="0.00 0.00 1590.00 181.00" xmlns="http://www.w3.org/2000/svg" xmlns:xlink="http://www.w3.org/1999/xlink">
<g id="graph0" class="graph" transform="scale(1 1) rotate(0) translate(4 177)">
<title>Source/CoffeeLibrary/Shared/Public/NetworkLog.h</title>
<!-- Node1 -->
<g id="Node000001" class="node">
<title>Node1</title>
<g id="a_Node000001"><a xlink:title="YiSan 전반에서 사용하는 공용 인터페이스를 선언합니다.">
<polygon fill="#999999" stroke="#666666" points="1099,-173 943,-173 943,-143 1099,-143 1099,-173"/>
<text text-anchor="start" x="951" y="-161" font-family="Malgun Gothic" font-size="10.00">Source/CoffeeLibrary</text>
<text text-anchor="middle" x="1021" y="-150" font-family="Malgun Gothic" font-size="10.00">/Shared/Public/NetworkLog.h</text>
</a>
</g>
</g>
<!-- Node2 -->
<g id="Node000002" class="node">
<title>Node2</title>
<g id="a_Node000002"><a xlink:href="NetworkLog_8cpp.html" target="_top" xlink:title="FDateTime의 동작을 구현합니다.">
<polygon fill="white" stroke="#666666" points="809.5,-107 636.5,-107 636.5,-77 809.5,-77 809.5,-107"/>
<text text-anchor="start" x="644.5" y="-95" font-family="Malgun Gothic" font-size="10.00">Source/CoffeeLibrary</text>
<text text-anchor="middle" x="723" y="-84" font-family="Malgun Gothic" font-size="10.00">/Shared/Private/NetworkLog.cpp</text>
</a>
</g>
</g>
<!-- Node1&#45;&gt;Node2 -->
<g id="edge1_Node000001_Node000002" class="edge">
<title>Node1&#45;&gt;Node2</title>
<g id="a_edge1_Node000001_Node000002"><a xlink:title=" ">
<path fill="none" stroke="#63b8ff" d="M945.78,-140.84C897.22,-130.42 834.69,-116.99 788.24,-107.01"/>
<polygon fill="#63b8ff" stroke="#63b8ff" points="945.09,-144.28 955.6,-142.95 946.56,-137.43 945.09,-144.28"/>
</a>
</g>
</g>
<!-- Node3 -->
<g id="Node000003" class="node">
<title>Node3</title>
<g id="a_Node000003"><a xlink:href="GameLogging_8h.html" target="_top" xlink:title="YiSan 전반에서 사용하는 공용 인터페이스를 선언합니다.">
<polygon fill="white" stroke="#666666" points="992.5,-107 827.5,-107 827.5,-77 992.5,-77 992.5,-107"/>
<text text-anchor="start" x="835.5" y="-95" font-family="Malgun Gothic" font-size="10.00">Source/CoffeeLibrary</text>
<text text-anchor="middle" x="910" y="-84" font-family="Malgun Gothic" font-size="10.00">/Shared/Public/GameLogging.h</text>
</a>
</g>
</g>
<!-- Node1&#45;&gt;Node3 -->
<g id="edge2_Node000001_Node000003" class="edge">
<title>Node1&#45;&gt;Node3</title>
<g id="a_edge2_Node000001_Node000003"><a xlink:title=" ">
<path fill="none" stroke="#63b8ff" d="M987.52,-137.69C970.38,-127.82 949.91,-116.01 934.3,-107.01"/>
<polygon fill="#63b8ff" stroke="#63b8ff" points="986.23,-140.99 996.64,-142.95 989.73,-134.93 986.23,-140.99"/>
</a>
</g>
</g>
<!-- Node9 -->
<g id="Node000009" class="node">
<title>Node9</title>
<g id="a_Node000009"><a xlink:href="UHttpNetworkSystem_8cpp.html" target="_top" xlink:title="UHttpNetworkSystem의 동작을 구현합니다.">
<polygon fill="white" stroke="#666666" points="1582,-35.5 1398,-35.5 1398,-5.5 1582,-5.5 1582,-35.5"/>
<text text-anchor="start" x="1406" y="-23.5" font-family="Malgun Gothic" font-size="10.00">Source/Onepiece/Network</text>
<text text-anchor="middle" x="1490" y="-12.5" font-family="Malgun Gothic" font-size="10.00">/Private/UHttpNetworkSystem.cpp</text>
</a>
</g>
</g>
<!-- Node1&#45;&gt;Node9 -->
<g id="edge12_Node000001_Node000009" class="edge">
<title>Node1&#45;&gt;Node9</title>
<g id="a_edge12_Node000001_Node000009"><a xlink:title=" ">
<path fill="none" stroke="#63b8ff" d="M1020.16,-132.82C1020.95,-114.66 1025.25,-90.66 1041,-77 1099.73,-26.06 1312.09,-52.38 1389,-41 1399.6,-39.43 1410.78,-37.53 1421.68,-35.53"/>
<polygon fill="#63b8ff" stroke="#63b8ff" points="1016.66,-132.93 1020.06,-142.97 1023.66,-133.01 1016.66,-132.93"/>
</a>
</g>
</g>
<!-- Node12 -->
<g id="Node000012" class="node">
<title>Node12</title>
<g id="a_Node000012"><a xlink:href="NetworkData_8cpp.html" target="_top" xlink:title="FResponseHealth의 동작을 구현합니다.">
<polygon fill="white" stroke="#666666" points="1192.5,-107 1049.5,-107 1049.5,-77 1192.5,-77 1192.5,-107"/>
<text text-anchor="start" x="1057.5" y="-95" font-family="Malgun Gothic" font-size="10.00">Source/Onepiece/Network</text>
<text text-anchor="middle" x="1121" y="-84" font-family="Malgun Gothic" font-size="10.00">/Private/NetworkData.cpp</text>
</a>
</g>
</g>
<!-- Node1&#45;&gt;Node12 -->
<g id="edge11_Node000001_Node000012" class="edge">
<title>Node1&#45;&gt;Node12</title>
<g id="a_edge11_Node000001_Node000012"><a xlink:title=" ">
<path fill="none" stroke="#63b8ff" d="M1051.78,-137.3C1067,-127.56 1085.03,-116.02 1098.87,-107.16"/>
<polygon fill="#63b8ff" stroke="#63b8ff" points="1049.73,-134.46 1043.19,-142.8 1053.5,-140.35 1049.73,-134.46"/>
</a>
</g>
</g>
<!-- Node13 -->
<g id="Node000013" class="node">
<title>Node13</title>
<g id="a_Node000013"><a xlink:href="UWebSocketSystem_8cpp.html" target="_top" xlink:title="UWebSocketSystem의 동작을 구현합니다.">
<polygon fill="white" stroke="#666666" points="1385.5,-107 1210.5,-107 1210.5,-77 1385.5,-77 1385.5,-107"/>
<text text-anchor="start" x="1218.5" y="-95" font-family="Malgun Gothic" font-size="10.00">Source/Onepiece/Network</text>
<text text-anchor="middle" x="1298" y="-84" font-family="Malgun Gothic" font-size="10.00">/Private/UWebSocketSystem.cpp</text>
</a>
</g>
</g>
<!-- Node1&#45;&gt;Node13 -->
<g id="edge13_Node000001_Node000013" class="edge">
<title>Node1&#45;&gt;Node13</title>
<g id="a_edge13_Node000001_Node000013"><a xlink:title=" ">
<path fill="none" stroke="#63b8ff" d="M1091.77,-140.65C1136.78,-130.25 1194.45,-116.93 1237.35,-107.01"/>
<polygon fill="#63b8ff" stroke="#63b8ff" points="1090.74,-137.29 1081.79,-142.95 1092.32,-144.11 1090.74,-137.29"/>
</a>
</g>
</g>
<!-- Node4 -->
<g id="Node000004" class="node">
<title>Node4</title>
<g id="a_Node000004"><a xlink:href="GameLogging_8cpp.html" target="_top" xlink:title="YiSan 프로젝트를 위한 런타임 헬퍼를 제공합니다.">
<polygon fill="white" stroke="#666666" points="182,-35.5 0,-35.5 0,-5.5 182,-5.5 182,-35.5"/>
<text text-anchor="start" x="8" y="-23.5" font-family="Malgun Gothic" font-size="10.00">Source/CoffeeLibrary</text>
<text text-anchor="middle" x="91" y="-12.5" font-family="Malgun Gothic" font-size="10.00">/Shared/Private/GameLogging.cpp</text>
</a>
</g>
</g>
<!-- Node3&#45;&gt;Node4 -->
<g id="edge3_Node000003_Node000004" class="edge">
<title>Node3&#45;&gt;Node4</title>
<g id="a_edge3_Node000003_Node000004"><a xlink:title=" ">
<path fill="none" stroke="#63b8ff" d="M817.3,-77.01C538.66,-48.62 464.7,-75.38 191,-41 179.68,-39.58 167.72,-37.63 156.15,-35.52"/>
<polygon fill="#63b8ff" stroke="#63b8ff" points="816.99,-80.49 827.3,-78.04 817.71,-73.53 816.99,-80.49"/>
</a>
</g>
</g>
<!-- Node5 -->
<g id="Node000005" class="node">
<title>Node5</title>
<g id="a_Node000005"><a xlink:href="UCharacterData_8cpp.html" target="_top" xlink:title="UCharacterData의 동작을 구현합니다.">
<polygon fill="white" stroke="#666666" points="382,-35.5 200,-35.5 200,-5.5 382,-5.5 382,-35.5"/>
<text text-anchor="start" x="208" y="-23.5" font-family="Malgun Gothic" font-size="10.00">Source/LatteLibrary</text>
<text text-anchor="middle" x="291" y="-12.5" font-family="Malgun Gothic" font-size="10.00">/Data/Private/UCharacterData.cpp</text>
</a>
</g>
</g>
<!-- Node3&#45;&gt;Node5 -->
<g id="edge4_Node000003_Node000005" class="edge">
<title>Node3&#45;&gt;Node5</title>
<g id="a_edge4_Node000003_Node000005"><a xlink:title=" ">
<path fill="none" stroke="#63b8ff" d="M817.24,-76.97C627.14,-55.08 576.41,-66.82 391,-41 380.14,-39.49 368.67,-37.56 357.53,-35.52"/>
<polygon fill="#63b8ff" stroke="#63b8ff" points="816.94,-80.46 827.28,-78.15 817.76,-73.51 816.94,-80.46"/>
</a>
</g>
</g>
<!-- Node6 -->
<g id="Node000006" class="node">
<title>Node6</title>
<g id="a_Node000006"><a xlink:href="UGameDataManager_8cpp.html" target="_top" xlink:title="UGameDataManager의 동작을 구현합니다.">
<polygon fill="white" stroke="#666666" points="563.5,-41 400.5,-41 400.5,0 563.5,0 563.5,-41"/>
<text text-anchor="start" x="408.5" y="-29" font-family="Malgun Gothic" font-size="10.00">Source/LatteLibrary</text>
<text text-anchor="start" x="408.5" y="-18" font-family="Malgun Gothic" font-size="10.00">/Manager/Private/UGameData</text>
<text text-anchor="middle" x="482" y="-7" font-family="Malgun Gothic" font-size="10.00">Manager.cpp</text>
</a>
</g>
</g>
<!-- Node3&#45;&gt;Node6 -->
<g id="edge5_Node000003_Node000006" class="edge">
<title>Node3&#45;&gt;Node6</title>
<g id="a_edge5_Node000003_Node000006"><a xlink:title=" ">
<path fill="none" stroke="#63b8ff" d="M817.06,-76.87C707,-60.67 677.54,-60.13 572,-41 569.33,-40.52 566.61,-40.01 563.87,-39.49"/>
<polygon fill="#63b8ff" stroke="#63b8ff" points="816.85,-80.38 827.25,-78.39 817.87,-73.46 816.85,-80.38"/>
</a>
</g>
</g>
<!-- Node7 -->
<g id="Node000007" class="node">
<title>Node7</title>
<g id="a_Node000007"><a xlink:href="UGameVFXManager_8cpp.html" target="_top" xlink:title="UGameVFXManager의 동작을 구현합니다.">
<polygon fill="white" stroke="#666666" points="802.5,-35.5 581.5,-35.5 581.5,-5.5 802.5,-5.5 802.5,-35.5"/>
<text text-anchor="start" x="589.5" y="-23.5" font-family="Malgun Gothic" font-size="10.00">Source/LatteLibrary</text>
<text text-anchor="middle" x="692" y="-12.5" font-family="Malgun Gothic" font-size="10.00">/Manager/Private/UGameVFXManager.cpp</text>
</a>
</g>
</g>
<!-- Node3&#45;&gt;Node7 -->
<g id="edge6_Node000003_Node000007" class="edge">
<title>Node3&#45;&gt;Node7</title>
<g id="a_edge6_Node000003_Node000007"><a xlink:title=" ">
<path fill="none" stroke="#63b8ff" d="M856.26,-73.87C819.28,-62.08 770.75,-46.61 736.05,-35.54"/>
<polygon fill="#63b8ff" stroke="#63b8ff" points="855.29,-77.23 865.88,-76.94 857.42,-70.56 855.29,-77.23"/>
</a>
</g>
</g>
<!-- Node8 -->
<g id="Node000008" class="node">
<title>Node8</title>
<g id="a_Node000008"><a xlink:href="ANetworkTesterActor_8cpp.html" target="_top" xlink:title="ANetworkTesterActor의 동작을 구현합니다.">
<polygon fill="white" stroke="#666666" points="999.5,-35.5 820.5,-35.5 820.5,-5.5 999.5,-5.5 999.5,-35.5"/>
<text text-anchor="start" x="828.5" y="-23.5" font-family="Malgun Gothic" font-size="10.00">Source/Onepiece/Network</text>
<text text-anchor="middle" x="910" y="-12.5" font-family="Malgun Gothic" font-size="10.00">/Private/ANetworkTesterActor.cpp</text>
</a>
</g>
</g>
<!-- Node3&#45;&gt;Node8 -->
<g id="edge7_Node000003_Node000008" class="edge">
<title>Node3&#45;&gt;Node8</title>
<g id="a_edge7_Node000003_Node000008"><a xlink:title=" ">
<path fill="none" stroke="#63b8ff" d="M910,-66.75C910,-56.31 910,-44.49 910,-35.54"/>
<polygon fill="#63b8ff" stroke="#63b8ff" points="906.5,-66.94 910,-76.94 913.5,-66.94 906.5,-66.94"/>
</a>
</g>
</g>
<!-- Node3&#45;&gt;Node9 -->
<g id="edge8_Node000003_Node000009" class="edge">
<title>Node3&#45;&gt;Node9</title>
<g id="a_edge8_Node000003_Node000009"><a xlink:title=" ">
<path fill="none" stroke="#63b8ff" d="M1002.53,-77.54C1004.03,-77.36 1005.52,-77.18 1007,-77 1176.33,-56.81 1220.19,-65.19 1389,-41 1399.78,-39.45 1411.16,-37.54 1422.24,-35.52"/>
<polygon fill="#63b8ff" stroke="#63b8ff" points="1002,-74.08 992.52,-78.81 1002.88,-81.03 1002,-74.08"/>
</a>
</g>
</g>
<!-- Node10 -->
<g id="Node000010" class="node">
<title>Node10</title>
<g id="a_Node000010"><a xlink:href="ULoadginCircle_8cpp.html" target="_top" xlink:title="ULoadginCircle의 동작을 구현합니다.">
<polygon fill="white" stroke="#666666" points="1168.5,-35.5 1017.5,-35.5 1017.5,-5.5 1168.5,-5.5 1168.5,-35.5"/>
<text text-anchor="start" x="1025.5" y="-23.5" font-family="Malgun Gothic" font-size="10.00">Source/Onepiece/UI</text>
<text text-anchor="middle" x="1093" y="-12.5" font-family="Malgun Gothic" font-size="10.00">/Private/ULoadginCircle.cpp</text>
</a>
</g>
</g>
<!-- Node3&#45;&gt;Node10 -->
<g id="edge9_Node000003_Node000010" class="edge">
<title>Node3&#45;&gt;Node10</title>
<g id="a_edge9_Node000003_Node000010"><a xlink:title=" ">
<path fill="none" stroke="#63b8ff" d="M956.7,-73.26C987.54,-61.55 1027.39,-46.42 1056.02,-35.54"/>
<polygon fill="#63b8ff" stroke="#63b8ff" points="955.14,-70.11 947.03,-76.94 957.62,-76.66 955.14,-70.11"/>
</a>
</g>
</g>
<!-- Node11 -->
<g id="Node000011" class="node">
<title>Node11</title>
<g id="a_Node000011"><a xlink:href="ULoadingCircleManager_8cpp.html" target="_top" xlink:title="ULoadingCircleManager의 동작을 구현합니다.">
<polygon fill="white" stroke="#666666" points="1379.5,-35.5 1186.5,-35.5 1186.5,-5.5 1379.5,-5.5 1379.5,-35.5"/>
<text text-anchor="start" x="1194.5" y="-23.5" font-family="Malgun Gothic" font-size="10.00">Source/Onepiece/UI</text>
<text text-anchor="middle" x="1283" y="-12.5" font-family="Malgun Gothic" font-size="10.00">/Private/ULoadingCircleManager.cpp</text>
</a>
</g>
</g>
<!-- Node3&#45;&gt;Node11 -->
<g id="edge10_Node000003_Node000011" class="edge">
<title>Node3&#45;&gt;Node11</title>
<g id="a_edge10_Node000003_Node000011"><a xlink:title=" ">
<path fill="none" stroke="#63b8ff" d="M995.55,-75.06C1059.54,-63.14 1146.23,-46.98 1207.63,-35.54"/>
<polygon fill="#63b8ff" stroke="#63b8ff" points="994.67,-71.66 985.48,-76.94 995.95,-78.54 994.67,-71.66"/>
</a>
</g>
</g>
</g>
</svg>
