<?xml version="1.0" encoding="UTF-8" standalone="no"?>
<!DOCTYPE svg PUBLIC "-//W3C//DTD SVG 1.1//EN"
 "http://www.w3.org/Graphics/SVG/1.1/DTD/svg11.dtd">
<!-- Generated by graphviz version 2.43.0 (0)
 -->
<!-- Title: Source/Onepiece/Onepiece.h Pages: 1 -->
<svg width="562pt" height="93pt"
 viewBox="0.00 0.00 562.00 93.00" xmlns="http://www.w3.org/2000/svg" xmlns:xlink="http://www.w3.org/1999/xlink">
<g id="graph0" class="graph" transform="scale(1 1) rotate(0) translate(4 89)">
<title>Source/Onepiece/Onepiece.h</title>
<!-- Node1 -->
<g id="Node000001" class="node">
<title>Node1</title>
<g id="a_Node000001"><a xlink:title=" ">
<polygon fill="#999999" stroke="#666666" points="341.5,-85 185.5,-85 185.5,-66 341.5,-66 341.5,-85"/>
<text text-anchor="middle" x="263.5" y="-73" font-family="Malgun Gothic" font-size="10.00">Source/Onepiece/Onepiece.h</text>
</a>
</g>
</g>
<!-- Node2 -->
<g id="Node000002" class="node">
<title>Node2</title>
<g id="a_Node000002"><a xlink:href="Onepiece_8cpp.html" target="_top" xlink:title=" ">
<polygon fill="white" stroke="#666666" points="167,-24.5 0,-24.5 0,-5.5 167,-5.5 167,-24.5"/>
<text text-anchor="middle" x="83.5" y="-12.5" font-family="Malgun Gothic" font-size="10.00">Source/Onepiece/Onepiece.cpp</text>
</a>
</g>
</g>
<!-- Node1&#45;&gt;Node2 -->
<g id="edge1_Node000001_Node000002" class="edge">
<title>Node1&#45;&gt;Node2</title>
<g id="a_edge1_Node000001_Node000002"><a xlink:title=" ">
<path fill="none" stroke="#63b8ff" d="M227.55,-62.82C192.74,-51.5 140.78,-34.62 109.71,-24.52"/>
<polygon fill="#63b8ff" stroke="#63b8ff" points="226.73,-66.23 237.33,-65.99 228.9,-59.57 226.73,-66.23"/>
</a>
</g>
</g>
<!-- Node3 -->
<g id="Node000003" class="node">
<title>Node3</title>
<g id="a_Node000003"><a xlink:href="UDialogManager_8cpp.html" target="_top" xlink:title="UDialogManager의 동작을 구현합니다.">
<polygon fill="white" stroke="#666666" points="342.5,-30 184.5,-30 184.5,0 342.5,0 342.5,-30"/>
<text text-anchor="start" x="192.5" y="-18" font-family="Malgun Gothic" font-size="10.00">Source/Onepiece/UI</text>
<text text-anchor="middle" x="263.5" y="-7" font-family="Malgun Gothic" font-size="10.00">/Private/UDialogManager.cpp</text>
</a>
</g>
</g>
<!-- Node1&#45;&gt;Node3 -->
<g id="edge2_Node000001_Node000003" class="edge">
<title>Node1&#45;&gt;Node3</title>
<g id="a_edge2_Node000001_Node000003"><a xlink:title=" ">
<path fill="none" stroke="#63b8ff" d="M263.5,-55.65C263.5,-47.36 263.5,-37.78 263.5,-30.11"/>
<polygon fill="#63b8ff" stroke="#63b8ff" points="260,-55.87 263.5,-65.87 267,-55.87 260,-55.87"/>
</a>
</g>
</g>
<!-- Node4 -->
<g id="Node000004" class="node">
<title>Node4</title>
<g id="a_Node000004"><a xlink:href="ULoadingCircleManager_8cpp.html" target="_top" xlink:title="ULoadingCircleManager의 동작을 구현합니다.">
<polygon fill="white" stroke="#666666" points="554,-30 361,-30 361,0 554,0 554,-30"/>
<text text-anchor="start" x="369" y="-18" font-family="Malgun Gothic" font-size="10.00">Source/Onepiece/UI</text>
<text text-anchor="middle" x="457.5" y="-7" font-family="Malgun Gothic" font-size="10.00">/Private/ULoadingCircleManager.cpp</text>
</a>
</g>
</g>
<!-- Node1&#45;&gt;Node4 -->
<g id="edge3_Node000001_Node000004" class="edge">
<title>Node1&#45;&gt;Node4</title>
<g id="a_edge3_Node000001_Node000004"><a xlink:title=" ">
<path fill="none" stroke="#63b8ff" d="M301.38,-63.08C332.71,-53.63 377.34,-40.17 410.86,-30.06"/>
<polygon fill="#63b8ff" stroke="#63b8ff" points="300.27,-59.76 291.71,-65.99 302.29,-66.46 300.27,-59.76"/>
</a>
</g>
</g>
</g>
</svg>
