<?xml version="1.0" encoding="UTF-8" standalone="no"?>
<!DOCTYPE svg PUBLIC "-//W3C//DTD SVG 1.1//EN"
 "http://www.w3.org/Graphics/SVG/1.1/DTD/svg11.dtd">
<!-- Generated by graphviz version 2.43.0 (0)
 -->
<!-- Title: Source/Onepiece/Onepiece.cpp Pages: 1 -->
<svg width="254pt" height="137pt"
 viewBox="0.00 0.00 254.00 137.00" xmlns="http://www.w3.org/2000/svg" xmlns:xlink="http://www.w3.org/1999/xlink">
<g id="graph0" class="graph" transform="scale(1 1) rotate(0) translate(4 133)">
<title>Source/Onepiece/Onepiece.cpp</title>
<!-- Node1 -->
<g id="Node000001" class="node">
<title>Node1</title>
<g id="a_Node000001"><a xlink:title=" ">
<polygon fill="#999999" stroke="#666666" points="191.5,-129 24.5,-129 24.5,-110 191.5,-110 191.5,-129"/>
<text text-anchor="middle" x="108" y="-117" font-family="Malgun Gothic" font-size="10.00">Source/Onepiece/Onepiece.cpp</text>
</a>
</g>
</g>
<!-- Node2 -->
<g id="Node000002" class="node">
<title>Node2</title>
<g id="a_Node000002"><a xlink:href="Onepiece_8h.html" target="_top" xlink:title=" ">
<polygon fill="white" stroke="#666666" points="79.5,-74 8.5,-74 8.5,-55 79.5,-55 79.5,-74"/>
<text text-anchor="middle" x="44" y="-62" font-family="Malgun Gothic" font-size="10.00">Onepiece.h</text>
</a>
</g>
</g>
<!-- Node1&#45;&gt;Node2 -->
<g id="edge1_Node000001_Node000002" class="edge">
<title>Node1&#45;&gt;Node2</title>
<g id="a_edge1_Node000001_Node000002"><a xlink:title=" ">
<path fill="none" stroke="#63b8ff" d="M97.72,-109.98C88.16,-102.07 73.72,-90.11 62.22,-80.58"/>
<polygon fill="#63b8ff" stroke="#63b8ff" points="64.4,-77.85 54.47,-74.17 59.94,-83.24 64.4,-77.85"/>
</a>
</g>
</g>
<!-- Node4 -->
<g id="Node000004" class="node">
<title>Node4</title>
<g id="a_Node000004"><a xlink:title=" ">
<polygon fill="#e0e0e0" stroke="#999999" points="246,-74 98,-74 98,-55 246,-55 246,-74"/>
<text text-anchor="middle" x="172" y="-62" font-family="Malgun Gothic" font-size="10.00">Modules/ModuleManager.h</text>
</a>
</g>
</g>
<!-- Node1&#45;&gt;Node4 -->
<g id="edge3_Node000001_Node000004" class="edge">
<title>Node1&#45;&gt;Node4</title>
<g id="a_edge3_Node000001_Node000004"><a xlink:title=" ">
<path fill="none" stroke="#63b8ff" d="M118.28,-109.98C127.84,-102.07 142.28,-90.11 153.78,-80.58"/>
<polygon fill="#63b8ff" stroke="#63b8ff" points="156.06,-83.24 161.53,-74.17 151.6,-77.85 156.06,-83.24"/>
</a>
</g>
</g>
<!-- Node3 -->
<g id="Node000003" class="node">
<title>Node3</title>
<g id="a_Node000003"><a xlink:title=" ">
<polygon fill="#e0e0e0" stroke="#999999" points="88,-19 0,-19 0,0 88,0 88,-19"/>
<text text-anchor="middle" x="44" y="-7" font-family="Malgun Gothic" font-size="10.00">CoreMinimal.h</text>
</a>
</g>
</g>
<!-- Node2&#45;&gt;Node3 -->
<g id="edge2_Node000002_Node000003" class="edge">
<title>Node2&#45;&gt;Node3</title>
<g id="a_edge2_Node000002_Node000003"><a xlink:title=" ">
<path fill="none" stroke="#63b8ff" d="M44,-54.75C44,-47.8 44,-37.85 44,-29.13"/>
<polygon fill="#63b8ff" stroke="#63b8ff" points="47.5,-29.09 44,-19.09 40.5,-29.09 47.5,-29.09"/>
</a>
</g>
</g>
</g>
</svg>
