<?xml version="1.0" encoding="UTF-8" standalone="no"?>
<!DOCTYPE svg PUBLIC "-//W3C//DTD SVG 1.1//EN"
 "http://www.w3.org/Graphics/SVG/1.1/DTD/svg11.dtd">
<!-- Generated by graphviz version 2.43.0 (0)
 -->
<!-- Title: FResponseWriteData Pages: 1 -->
<svg width="184pt" height="198pt"
 viewBox="0.00 0.00 183.50 198.00" xmlns="http://www.w3.org/2000/svg" xmlns:xlink="http://www.w3.org/1999/xlink">
<g id="graph0" class="graph" transform="scale(1 1) rotate(0) translate(4 194)">
<title>FResponseWriteData</title>
<!-- Node1 -->
<g id="Node000001" class="node">
<title>Node1</title>
<g id="a_Node000001"><a xlink:title=" ">
<polygon fill="#999999" stroke="transparent" points="144.5,-49 31.5,-49 31.5,0 144.5,0 144.5,-49"/>
<text text-anchor="start" x="37" y="-36.5" font-family="Malgun Gothic" font-size="10.00">FResponseWriteData</text>
<text text-anchor="start" x="86.5" y="-21.5" font-family="Malgun Gothic" font-size="10.00"> </text>
<text text-anchor="start" x="86.5" y="-6.5" font-family="Malgun Gothic" font-size="10.00"> </text>
<polygon fill="#666666" stroke="#666666" points="32,-31.5 32,-31.5 145,-31.5 145,-31.5 32,-31.5"/>
<polygon fill="#666666" stroke="#666666" points="32,-16.5 32,-16.5 145,-16.5 145,-16.5 32,-16.5"/>
<polygon fill="none" stroke="#666666" points="31.5,0 31.5,-49 144.5,-49 144.5,0 31.5,0"/>
</a>
</g>
</g>
<!-- Node2 -->
<g id="Node000002" class="node">
<title>Node2</title>
<g id="a_Node000002"><a xlink:href="structFWriteDisplay.html" target="_top" xlink:title=" ">
<polygon fill="white" stroke="transparent" points="80,-182.5 0,-182.5 0,-103.5 80,-103.5 80,-182.5"/>
<text text-anchor="start" x="5" y="-170" font-family="Malgun Gothic" font-size="10.00">FWriteDisplay</text>
<text text-anchor="start" x="6.5" y="-155" font-family="Malgun Gothic" font-size="10.00">+</text>
<text text-anchor="start" x="22" y="-155" font-family="Malgun Gothic" font-size="10.00">correction</text>
<text text-anchor="start" x="6.5" y="-140" font-family="Malgun Gothic" font-size="10.00">+</text>
<text text-anchor="start" x="22" y="-140" font-family="Malgun Gothic" font-size="10.00">is_pass</text>
<text text-anchor="start" x="6.5" y="-125" font-family="Malgun Gothic" font-size="10.00">+</text>
<text text-anchor="start" x="22" y="-125" font-family="Malgun Gothic" font-size="10.00">message</text>
<text text-anchor="start" x="38" y="-110" font-family="Malgun Gothic" font-size="10.00"> </text>
<polygon fill="#666666" stroke="#666666" points="0,-165 0,-165 80,-165 80,-165 0,-165"/>
<polygon fill="#666666" stroke="#666666" points="0,-120 0,-120 20,-120 20,-120 0,-120"/>
<polygon fill="#666666" stroke="#666666" points="20,-120 20,-120 80,-120 80,-120 20,-120"/>
<polygon fill="none" stroke="#666666" points="0,-103.5 0,-182.5 80,-182.5 80,-103.5 0,-103.5"/>
</a>
</g>
</g>
<!-- Node2&#45;&gt;Node1 -->
<g id="edge1_Node000001_Node000002" class="edge">
<title>Node2&#45;&gt;Node1</title>
<g id="a_edge1_Node000001_Node000002"><a xlink:title=" ">
<path fill="none" stroke="#63b8ff" d="M53.72,-103.19C58.07,-91.47 63.04,-78.63 68,-67 68.98,-64.7 70.02,-62.35 71.09,-59.98"/>
<polygon fill="none" stroke="#63b8ff" points="71.12,-59.9 70.04,-52.78 76.2,-49.03 77.29,-56.16 71.12,-59.9"/>
</a>
</g>
<text text-anchor="middle" x="91.5" y="-70" font-family="Malgun Gothic" font-size="10.00" fill="grey"> +display</text>
</g>
<!-- Node3 -->
<g id="Node000003" class="node">
<title>Node3</title>
<g id="a_Node000003"><a xlink:href="structFWriteRecord.html" target="_top" xlink:title=" ">
<polygon fill="white" stroke="transparent" points="175.5,-190 98.5,-190 98.5,-96 175.5,-96 175.5,-190"/>
<text text-anchor="start" x="104" y="-178" font-family="Malgun Gothic" font-size="10.00">FWriteRecord</text>
<text text-anchor="start" x="109.5" y="-163" font-family="Malgun Gothic" font-size="10.00">+</text>
<text text-anchor="start" x="129" y="-163" font-family="Malgun Gothic" font-size="10.00">input</text>
<text text-anchor="start" x="109.5" y="-148" font-family="Malgun Gothic" font-size="10.00">+</text>
<text text-anchor="start" x="129" y="-148" font-family="Malgun Gothic" font-size="10.00">score</text>
<text text-anchor="start" x="109.5" y="-133" font-family="Malgun Gothic" font-size="10.00">+</text>
<text text-anchor="start" x="129" y="-133" font-family="Malgun Gothic" font-size="10.00">stage</text>
<text text-anchor="start" x="109.5" y="-118" font-family="Malgun Gothic" font-size="10.00">+</text>
<text text-anchor="start" x="129" y="-118" font-family="Malgun Gothic" font-size="10.00">target</text>
<text text-anchor="start" x="135.5" y="-103" font-family="Malgun Gothic" font-size="10.00"> </text>
<polygon fill="#666666" stroke="#666666" points="99,-173 99,-173 176,-173 176,-173 99,-173"/>
<polygon fill="#666666" stroke="#666666" points="99,-113 99,-113 127,-113 127,-113 99,-113"/>
<polygon fill="#666666" stroke="#666666" points="127,-113 127,-113 176,-113 176,-113 127,-113"/>
<polygon fill="none" stroke="#666666" points="98.5,-96 98.5,-190 175.5,-190 175.5,-96 98.5,-96"/>
</a>
</g>
</g>
<!-- Node3&#45;&gt;Node1 -->
<g id="edge2_Node000001_Node000003" class="edge">
<title>Node3&#45;&gt;Node1</title>
<g id="a_edge2_Node000001_Node000003"><a xlink:title=" ">
<path fill="none" stroke="#63b8ff" d="M125.69,-95.61C122.71,-85.97 119.14,-76 115,-67 113.89,-64.59 112.66,-62.16 111.34,-59.74"/>
<polygon fill="none" stroke="#63b8ff" points="111.33,-59.73 104.84,-56.6 105.23,-49.4 111.72,-52.52 111.33,-59.73"/>
</a>
</g>
<text text-anchor="middle" x="140.5" y="-70" font-family="Malgun Gothic" font-size="10.00" fill="grey"> +record</text>
</g>
</g>
</svg>
