<?xml version="1.0" encoding="UTF-8" standalone="no"?>
<!DOCTYPE svg PUBLIC "-//W3C//DTD SVG 1.1//EN"
 "http://www.w3.org/Graphics/SVG/1.1/DTD/svg11.dtd">
<!-- Generated by graphviz version 2.43.0 (0)
 -->
<!-- Title: FHttpMultipartFormData::FFilePart Pages: 1 -->
<svg width="138pt" height="113pt"
 viewBox="0.00 0.00 138.00 113.00" xmlns="http://www.w3.org/2000/svg" xmlns:xlink="http://www.w3.org/1999/xlink">
<g id="graph0" class="graph" transform="scale(1 1) rotate(0) translate(4 109)">
<title>FHttpMultipartFormData::FFilePart</title>
<!-- Node1 -->
<g id="Node000001" class="node">
<title>Node1</title>
<g id="a_Node000001"><a xlink:title=" ">
<polygon fill="#999999" stroke="transparent" points="130,-105 0,-105 0,0 130,0 130,-105"/>
<text text-anchor="start" x="5" y="-92.5" font-family="Malgun Gothic" font-size="10.00">FHttpMultipartFormData</text>
<text text-anchor="start" x="40.5" y="-81.5" font-family="Malgun Gothic" font-size="10.00">::FFilePart</text>
<text text-anchor="start" x="18.5" y="-66.5" font-family="Malgun Gothic" font-size="10.00">+</text>
<text text-anchor="start" x="46" y="-66.5" font-family="Malgun Gothic" font-size="10.00">Data</text>
<text text-anchor="start" x="18.5" y="-51.5" font-family="Malgun Gothic" font-size="10.00">+</text>
<text text-anchor="start" x="46" y="-51.5" font-family="Malgun Gothic" font-size="10.00">FileName</text>
<text text-anchor="start" x="18.5" y="-36.5" font-family="Malgun Gothic" font-size="10.00">+</text>
<text text-anchor="start" x="46" y="-36.5" font-family="Malgun Gothic" font-size="10.00">MimeType</text>
<text text-anchor="start" x="18.5" y="-21.5" font-family="Malgun Gothic" font-size="10.00">+</text>
<text text-anchor="start" x="46" y="-21.5" font-family="Malgun Gothic" font-size="10.00">Name</text>
<text text-anchor="start" x="63" y="-6.5" font-family="Malgun Gothic" font-size="10.00"> </text>
<polygon fill="#666666" stroke="#666666" points="0,-76.5 0,-76.5 130,-76.5 130,-76.5 0,-76.5"/>
<polygon fill="#666666" stroke="#666666" points="0,-16.5 0,-16.5 44,-16.5 44,-16.5 0,-16.5"/>
<polygon fill="#666666" stroke="#666666" points="44,-16.5 44,-16.5 130,-16.5 130,-16.5 44,-16.5"/>
<polygon fill="none" stroke="#666666" points="0,0 0,-105 130,-105 130,0 0,0"/>
</a>
</g>
</g>
</g>
</svg>
