<?xml version="1.0" encoding="UTF-8" standalone="no"?>
<!DOCTYPE svg PUBLIC "-//W3C//DTD SVG 1.1//EN"
 "http://www.w3.org/Graphics/SVG/1.1/DTD/svg11.dtd">
<!-- Generated by graphviz version 2.43.0 (0)
 -->
<!-- Title: FComponentHelper::LoadAsset Pages: 1 -->
<svg width="432pt" height="199pt"
 viewBox="0.00 0.00 432.00 198.50" xmlns="http://www.w3.org/2000/svg" xmlns:xlink="http://www.w3.org/1999/xlink">
<g id="graph0" class="graph" transform="scale(1 1) rotate(0) translate(4 194.5)">
<title>FComponentHelper::LoadAsset</title>
<!-- Node1 -->
<g id="Node000001" class="node">
<title>Node1</title>
<g id="a_Node000001"><a xlink:title=" ">
<polygon fill="#999999" stroke="#666666" points="424,-110.5 257,-110.5 257,-91.5 424,-91.5 424,-110.5"/>
<text text-anchor="middle" x="340.5" y="-98.5" font-family="Malgun Gothic" font-size="10.00">FComponentHelper::LoadAsset</text>
</a>
</g>
</g>
<!-- Node2 -->
<g id="Node000002" class="node">
<title>Node2</title>
<g id="a_Node000002"><a xlink:href="classAPlayerControl.html#ad52af79fddcd1253723313ab75eec84c" target="_top" xlink:title=" ">
<polygon fill="white" stroke="#666666" points="194.5,-190.5 26.5,-190.5 26.5,-171.5 194.5,-171.5 194.5,-190.5"/>
<text text-anchor="middle" x="110.5" y="-178.5" font-family="Malgun Gothic" font-size="10.00">APlayerControl::APlayerControl</text>
</a>
</g>
</g>
<!-- Node1&#45;&gt;Node2 -->
<g id="edge1_Node000001_Node000002" class="edge">
<title>Node1&#45;&gt;Node2</title>
<g id="a_edge1_Node000001_Node000002"><a xlink:title=" ">
<path fill="none" stroke="#63b8ff" d="M316.09,-116.13C292.87,-130.43 255.84,-151.36 221,-163 210.77,-166.42 199.77,-169.2 188.84,-171.47"/>
<polygon fill="#63b8ff" stroke="#63b8ff" points="318.23,-118.92 324.85,-110.65 314.52,-112.99 318.23,-118.92"/>
</a>
</g>
</g>
<!-- Node3 -->
<g id="Node000003" class="node">
<title>Node3</title>
<g id="a_Node000003"><a xlink:href="classUDialogManager.html#ab685e1a5674a4621f9d18574551e19d9" target="_top" xlink:title=" ">
<polygon fill="white" stroke="#666666" points="203.5,-153.5 17.5,-153.5 17.5,-134.5 203.5,-134.5 203.5,-153.5"/>
<text text-anchor="middle" x="110.5" y="-141.5" font-family="Malgun Gothic" font-size="10.00">UDialogManager::UDialogManager</text>
</a>
</g>
</g>
<!-- Node1&#45;&gt;Node3 -->
<g id="edge2_Node000001_Node000003" class="edge">
<title>Node1&#45;&gt;Node3</title>
<g id="a_edge2_Node000001_Node000003"><a xlink:title=" ">
<path fill="none" stroke="#63b8ff" d="M284.15,-112.54C264.26,-116.6 241.65,-121.12 221,-125 203.84,-128.23 185.13,-131.55 168.1,-134.49"/>
<polygon fill="#63b8ff" stroke="#63b8ff" points="284.88,-115.97 293.98,-110.53 283.48,-109.11 284.88,-115.97"/>
</a>
</g>
</g>
<!-- Node4 -->
<g id="Node000004" class="node">
<title>Node4</title>
<g id="a_Node000004"><a xlink:href="classUGameSoundManager.html#aab6849192a6de76b26e716e21038f83c" target="_top" xlink:title=" ">
<polygon fill="white" stroke="#666666" points="176.5,-116 44.5,-116 44.5,-86 176.5,-86 176.5,-116"/>
<text text-anchor="start" x="52.5" y="-104" font-family="Malgun Gothic" font-size="10.00">UGameSoundManager::</text>
<text text-anchor="middle" x="110.5" y="-93" font-family="Malgun Gothic" font-size="10.00">UGameSoundManager</text>
</a>
</g>
</g>
<!-- Node1&#45;&gt;Node4 -->
<g id="edge3_Node000001_Node000004" class="edge">
<title>Node1&#45;&gt;Node4</title>
<g id="a_edge3_Node000001_Node000004"><a xlink:title=" ">
<path fill="none" stroke="#63b8ff" d="M246.55,-101C223.12,-101 198.46,-101 176.71,-101"/>
<polygon fill="#63b8ff" stroke="#63b8ff" points="246.86,-104.5 256.86,-101 246.86,-97.5 246.86,-104.5"/>
</a>
</g>
</g>
<!-- Node5 -->
<g id="Node000005" class="node">
<title>Node5</title>
<g id="a_Node000005"><a xlink:href="classUGameVFXManager.html#a36f7d7d4e4b07418214f460ac8f9812f" target="_top" xlink:title=" ">
<polygon fill="white" stroke="#666666" points="221,-67.5 0,-67.5 0,-48.5 221,-48.5 221,-67.5"/>
<text text-anchor="middle" x="110.5" y="-55.5" font-family="Malgun Gothic" font-size="10.00">UGameVFXManager::UGameVFXManager</text>
</a>
</g>
</g>
<!-- Node1&#45;&gt;Node5 -->
<g id="edge4_Node000001_Node000005" class="edge">
<title>Node1&#45;&gt;Node5</title>
<g id="a_edge4_Node000001_Node000005"><a xlink:title=" ">
<path fill="none" stroke="#63b8ff" d="M284.15,-89.46C264.26,-85.4 241.65,-80.88 221,-77 203.84,-73.77 185.13,-70.45 168.1,-67.51"/>
<polygon fill="#63b8ff" stroke="#63b8ff" points="283.48,-92.89 293.98,-91.47 284.88,-86.03 283.48,-92.89"/>
</a>
</g>
</g>
<!-- Node6 -->
<g id="Node000006" class="node">
<title>Node6</title>
<g id="a_Node000006"><a xlink:href="classULoadingCircleManager.html#a825d86709b2d6a7ae0be283165ee2d45" target="_top" xlink:title=" ">
<polygon fill="white" stroke="#666666" points="180,-30 41,-30 41,0 180,0 180,-30"/>
<text text-anchor="start" x="49" y="-18" font-family="Malgun Gothic" font-size="10.00">ULoadingCircleManager</text>
<text text-anchor="middle" x="110.5" y="-7" font-family="Malgun Gothic" font-size="10.00">::ULoadingCircleManager</text>
</a>
</g>
</g>
<!-- Node1&#45;&gt;Node6 -->
<g id="edge5_Node000001_Node000006" class="edge">
<title>Node1&#45;&gt;Node6</title>
<g id="a_edge5_Node000001_Node000006"><a xlink:title=" ">
<path fill="none" stroke="#63b8ff" d="M315.1,-86.13C291.7,-72.43 255.01,-52.41 221,-40 207.99,-35.25 193.78,-31.22 180.03,-27.86"/>
<polygon fill="#63b8ff" stroke="#63b8ff" points="313.59,-89.3 323.98,-91.39 317.16,-83.28 313.59,-89.3"/>
</a>
</g>
</g>
</g>
</svg>
