<?xml version="1.0" encoding="UTF-8" standalone="no"?>
<!DOCTYPE svg PUBLIC "-//W3C//DTD SVG 1.1//EN"
 "http://www.w3.org/Graphics/SVG/1.1/DTD/svg11.dtd">
<!-- Generated by graphviz version 2.43.0 (0)
 -->
<!-- Title: Source/Onepiece/Network/Public/UCustomNetworkSettings.h Pages: 1 -->
<!--zoomable 236 -->

<svg id="main" version="1.1" xmlns="http://www.w3.org/2000/svg" xmlns:xlink="http://www.w3.org/1999/xlink" xml:space="preserve" onload="init(evt)">
<style type="text/css"><![CDATA[
.node, .edge {opacity: 0.7;}
.node.selected, .edge.selected {opacity: 1;}
.edge:hover path { stroke: red; }
.edge:hover polygon { stroke: red; fill: red; }
]]></style>

<defs>
  <circle id="rim" cx="0" cy="0" r="7"/>
  <circle id="rim2" cx="0" cy="0" r="3.5"/>
  <g id="zoomPlus">
    <use xlink:href="#rim" fill="#404040"><set attributeName="fill" to="#808080" begin="zoomplus.mouseover" end="zoomplus.mouseout"/></use>
    <path d="M-4,0h8M0,-4v8" fill="none" stroke="white" stroke-width="1.5" pointer-events="none"/>
  </g>
  <g id="zoomMin">
    <use xlink:href="#rim" fill="#404040"><set attributeName="fill" to="#808080" begin="zoomminus.mouseover" end="zoomminus.mouseout"/></use>
    <path d="M-4,0h8" fill="none" stroke="white" stroke-width="1.5" pointer-events="none"/>
  </g>
  <g id="arrowUp" transform="translate(30 24)">
    <use xlink:href="#rim"/>
    <path pointer-events="none" fill="none" stroke="white" stroke-width="1.5" d="M0,-3.0v7 M-2.5,-0.5L0,-3.0L2.5,-0.5"/>
  </g>
  <g id="arrowRight" transform="rotate(90) translate(36 -43)">
    <use xlink:href="#rim"/>
    <path pointer-events="none" fill="none" stroke="white" stroke-width="1.5" d="M0,-3.0v7 M-2.5,-0.5L0,-3.0L2.5,-0.5"/>
  </g>
  <g id="arrowDown" transform="rotate(180) translate(-30 -48)">
    <use xlink:href="#rim"/>
    <path pointer-events="none" fill="none" stroke="white" stroke-width="1.5" d="M0,-3.0v7 M-2.5,-0.5L0,-3.0L2.5,-0.5"/>
  </g>
  <g id="arrowLeft" transform="rotate(270) translate(-36 17)">
    <use xlink:href="#rim"/>
    <path pointer-events="none" fill="none" stroke="white" stroke-width="1.5" d="M0,-3.0v7 M-2.5,-0.5L0,-3.0L2.5,-0.5"/>
  </g>
  <g id="resetDef">
    <use xlink:href="#rim2" fill="#404040"><set attributeName="fill" to="#808080" begin="reset.mouseover" end="reset.mouseout"/></use>
  </g>
</defs>
<script type="application/ecmascript">
var viewWidth = 771;
var viewHeight = 236;
var sectionId = 'dynsection-1';
</script>
<script type="application/ecmascript" xlink:href="svg.min.js"/>
<svg id="graph" class="graph">
<g id="viewport">
<title>Source/Onepiece/Network/Public/UCustomNetworkSettings.h</title>
<!-- Node1 -->
<g id="Node000001" class="node">
<title>Node1</title>
<g id="a_Node000001"><a xlink:title="서버 환경별 네트워크 설정을 노출하는 DeveloperSettings를 선언합니다.">
<polygon fill="#999999" stroke="#666666" points="290,-228 103,-228 103,-198 290,-198 290,-228"/>
<text text-anchor="start" x="111" y="-216" font-family="Malgun Gothic" font-size="10.00">Source/Onepiece/Network</text>
<text text-anchor="middle" x="196.5" y="-205" font-family="Malgun Gothic" font-size="10.00">/Public/UCustomNetworkSettings.h</text>
</a>
</g>
</g>
<!-- Node2 -->
<g id="Node000002" class="node">
<title>Node2</title>
<g id="a_Node000002"><a xlink:href="UCustomNetworkSettings_8cpp.html" target="_top" xlink:title="UCustomNetworkSettings의 동작을 구현합니다.">
<polygon fill="white" stroke="#666666" points="203,-162 0,-162 0,-132 203,-132 203,-162"/>
<text text-anchor="start" x="8" y="-150" font-family="Malgun Gothic" font-size="10.00">Source/Onepiece/Network</text>
<text text-anchor="middle" x="101.5" y="-139" font-family="Malgun Gothic" font-size="10.00">/Private/UCustomNetworkSettings.cpp</text>
</a>
</g>
</g>
<!-- Node1&#45;&gt;Node2 -->
<g id="edge1_Node000001_Node000002" class="edge">
<title>Node1&#45;&gt;Node2</title>
<g id="a_edge1_Node000001_Node000002"><a xlink:title=" ">
<path fill="none" stroke="#63b8ff" d="M166.85,-192.03C152.48,-182.34 135.55,-170.94 122.52,-162.16"/>
<polygon fill="#63b8ff" stroke="#63b8ff" points="165.17,-195.11 175.42,-197.8 169.08,-189.31 165.17,-195.11"/>
</a>
</g>
</g>
<!-- Node3 -->
<g id="Node000003" class="node">
<title>Node3</title>
<g id="a_Node000003"><a xlink:href="NetworkData_8h.html" target="_top" xlink:title="네트워크 요청과 응답에 사용되는 구조체 및 설정을 정의합니다.">
<polygon fill="white" stroke="#666666" points="364,-162 221,-162 221,-132 364,-132 364,-162"/>
<text text-anchor="start" x="229" y="-150" font-family="Malgun Gothic" font-size="10.00">Source/Onepiece/Network</text>
<text text-anchor="middle" x="292.5" y="-139" font-family="Malgun Gothic" font-size="10.00">/Public/NetworkData.h</text>
</a>
</g>
</g>
<!-- Node1&#45;&gt;Node3 -->
<g id="edge2_Node000001_Node000003" class="edge">
<title>Node1&#45;&gt;Node3</title>
<g id="a_edge2_Node000001_Node000003"><a xlink:title=" ">
<path fill="none" stroke="#63b8ff" d="M226.46,-192.03C240.99,-182.34 258.09,-170.94 271.25,-162.16"/>
<polygon fill="#63b8ff" stroke="#63b8ff" points="224.18,-189.34 217.81,-197.8 228.07,-195.16 224.18,-189.34"/>
</a>
</g>
</g>
<!-- Node4 -->
<g id="Node000004" class="node">
<title>Node4</title>
<g id="a_Node000004"><a xlink:href="ANetworkTesterActor_8cpp.html" target="_top" xlink:title="ANetworkTesterActor의 동작을 구현합니다.">
<polygon fill="white" stroke="#666666" points="560,-30 381,-30 381,0 560,0 560,-30"/>
<text text-anchor="start" x="389" y="-18" font-family="Malgun Gothic" font-size="10.00">Source/Onepiece/Network</text>
<text text-anchor="middle" x="470.5" y="-7" font-family="Malgun Gothic" font-size="10.00">/Private/ANetworkTesterActor.cpp</text>
</a>
</g>
</g>
<!-- Node3&#45;&gt;Node4 -->
<g id="edge3_Node000003_Node000004" class="edge">
<title>Node3&#45;&gt;Node4</title>
<g id="a_edge3_Node000003_Node000004"><a xlink:title=" ">
<path fill="none" stroke="#63b8ff" d="M210.84,-131.44C136.34,-117.96 37.39,-99.5 34.5,-96 26.02,-85.71 25.63,-75.95 34.5,-66 57.11,-40.64 259.89,-26.35 380.79,-20.01"/>
<polygon fill="#63b8ff" stroke="#63b8ff" points="210.25,-134.89 220.71,-133.22 211.5,-128 210.25,-134.89"/>
</a>
</g>
</g>
<!-- Node5 -->
<g id="Node000005" class="node">
<title>Node5</title>
<g id="a_Node000005"><a xlink:href="NetworkData_8cpp.html" target="_top" xlink:title="FResponseHealth의 동작을 구현합니다.">
<polygon fill="white" stroke="#666666" points="187,-96 44,-96 44,-66 187,-66 187,-96"/>
<text text-anchor="start" x="52" y="-84" font-family="Malgun Gothic" font-size="10.00">Source/Onepiece/Network</text>
<text text-anchor="middle" x="115.5" y="-73" font-family="Malgun Gothic" font-size="10.00">/Private/NetworkData.cpp</text>
</a>
</g>
</g>
<!-- Node3&#45;&gt;Node5 -->
<g id="edge4_Node000003_Node000005" class="edge">
<title>Node3&#45;&gt;Node5</title>
<g id="a_edge4_Node000003_Node000005"><a xlink:title=" ">
<path fill="none" stroke="#63b8ff" d="M243.98,-128.46C215.74,-118.25 180.63,-105.55 154.25,-96.01"/>
<polygon fill="#63b8ff" stroke="#63b8ff" points="243.06,-131.85 253.66,-131.95 245.44,-125.26 243.06,-131.85"/>
</a>
</g>
</g>
<!-- Node6 -->
<g id="Node000006" class="node">
<title>Node6</title>
<g id="a_Node000006"><a xlink:href="UWebSocketSystem_8cpp.html" target="_top" xlink:title="UWebSocketSystem의 동작을 구현합니다.">
<polygon fill="white" stroke="#666666" points="380,-96 205,-96 205,-66 380,-66 380,-96"/>
<text text-anchor="start" x="213" y="-84" font-family="Malgun Gothic" font-size="10.00">Source/Onepiece/Network</text>
<text text-anchor="middle" x="292.5" y="-73" font-family="Malgun Gothic" font-size="10.00">/Private/UWebSocketSystem.cpp</text>
</a>
</g>
</g>
<!-- Node3&#45;&gt;Node6 -->
<g id="edge5_Node000003_Node000006" class="edge">
<title>Node3&#45;&gt;Node6</title>
<g id="a_edge5_Node000003_Node000006"><a xlink:title=" ">
<path fill="none" stroke="#63b8ff" d="M292.5,-121.54C292.5,-112.96 292.5,-103.61 292.5,-96.16"/>
<polygon fill="#63b8ff" stroke="#63b8ff" points="289,-121.8 292.5,-131.8 296,-121.8 289,-121.8"/>
</a>
</g>
</g>
<!-- Node7 -->
<g id="Node000007" class="node">
<title>Node7</title>
<g id="a_Node000007"><a xlink:href="ANetworkTesterActor_8h.html" target="_top" xlink:title="네트워크 진단용 테스트 액터를 선언합니다.">
<polygon fill="white" stroke="#666666" points="561,-96 398,-96 398,-66 561,-66 561,-96"/>
<text text-anchor="start" x="406" y="-84" font-family="Malgun Gothic" font-size="10.00">Source/Onepiece/Network</text>
<text text-anchor="middle" x="479.5" y="-73" font-family="Malgun Gothic" font-size="10.00">/Public/ANetworkTesterActor.h</text>
</a>
</g>
</g>
<!-- Node3&#45;&gt;Node7 -->
<g id="edge6_Node000003_Node000007" class="edge">
<title>Node3&#45;&gt;Node7</title>
<g id="a_edge6_Node000003_Node000007"><a xlink:title=" ">
<path fill="none" stroke="#63b8ff" d="M343.37,-128.59C373.27,-118.36 410.57,-105.59 438.56,-96.01"/>
<polygon fill="#63b8ff" stroke="#63b8ff" points="341.87,-125.41 333.54,-131.95 344.13,-132.03 341.87,-125.41"/>
</a>
</g>
</g>
<!-- Node8 -->
<g id="Node000008" class="node">
<title>Node8</title>
<g id="a_Node000008"><a xlink:href="UHttpNetworkSystem_8h.html" target="_top" xlink:title="HTTP 기반 음성·GPT 파이프라인 요청을 담당하는 서브시스템을 선언합니다.">
<polygon fill="white" stroke="#666666" points="746,-96 579,-96 579,-66 746,-66 746,-96"/>
<text text-anchor="start" x="587" y="-84" font-family="Malgun Gothic" font-size="10.00">Source/Onepiece/Network</text>
<text text-anchor="middle" x="662.5" y="-73" font-family="Malgun Gothic" font-size="10.00">/Public/UHttpNetworkSystem.h</text>
</a>
</g>
</g>
<!-- Node3&#45;&gt;Node8 -->
<g id="edge8_Node000003_Node000008" class="edge">
<title>Node3&#45;&gt;Node8</title>
<g id="a_edge8_Node000003_Node000008"><a xlink:title=" ">
<path fill="none" stroke="#63b8ff" d="M374.34,-131.84C435.9,-121.2 519.86,-106.67 581.27,-96.05"/>
<polygon fill="#63b8ff" stroke="#63b8ff" points="373.54,-128.43 364.28,-133.58 374.73,-135.33 373.54,-128.43"/>
</a>
</g>
</g>
<!-- Node7&#45;&gt;Node4 -->
<g id="edge7_Node000007_Node000004" class="edge">
<title>Node7&#45;&gt;Node4</title>
<g id="a_edge7_Node000007_Node000004"><a xlink:title=" ">
<path fill="none" stroke="#63b8ff" d="M476.1,-55.83C474.88,-47.17 473.55,-37.7 472.49,-30.16"/>
<polygon fill="#63b8ff" stroke="#63b8ff" points="472.64,-56.38 477.5,-65.8 479.58,-55.41 472.64,-56.38"/>
</a>
</g>
</g>
<!-- Node8&#45;&gt;Node4 -->
<g id="edge9_Node000008_Node000004" class="edge">
<title>Node8&#45;&gt;Node4</title>
<g id="a_edge9_Node000008_Node000004"><a xlink:title=" ">
<path fill="none" stroke="#63b8ff" d="M610.67,-62.72C579.91,-52.47 541.4,-39.63 512.54,-30.01"/>
<polygon fill="#63b8ff" stroke="#63b8ff" points="609.77,-66.11 620.36,-65.95 611.98,-59.47 609.77,-66.11"/>
</a>
</g>
</g>
<!-- Node9 -->
<g id="Node000009" class="node">
<title>Node9</title>
<g id="a_Node000009"><a xlink:href="UHttpNetworkSystem_8cpp.html" target="_top" xlink:title="UHttpNetworkSystem의 동작을 구현합니다.">
<polygon fill="white" stroke="#666666" points="762.5,-30 578.5,-30 578.5,0 762.5,0 762.5,-30"/>
<text text-anchor="start" x="586.5" y="-18" font-family="Malgun Gothic" font-size="10.00">Source/Onepiece/Network</text>
<text text-anchor="middle" x="670.5" y="-7" font-family="Malgun Gothic" font-size="10.00">/Private/UHttpNetworkSystem.cpp</text>
</a>
</g>
</g>
<!-- Node8&#45;&gt;Node9 -->
<g id="edge10_Node000008_Node000009" class="edge">
<title>Node8&#45;&gt;Node9</title>
<g id="a_edge10_Node000008_Node000009"><a xlink:title=" ">
<path fill="none" stroke="#63b8ff" d="M665.52,-55.83C666.6,-47.17 667.79,-37.7 668.73,-30.16"/>
<polygon fill="#63b8ff" stroke="#63b8ff" points="662.04,-55.44 664.28,-65.8 668.99,-56.31 662.04,-55.44"/>
</a>
</g>
</g>
</g>
</svg>

<g id="navigator" transform="translate(0 0)" fill="#404254">
  <rect fill="#f2f5e9" fill-opacity="0.5" stroke="#606060" stroke-width=".5" x="0" y="0" width="60" height="60"/>
  <use id="zoomplus" xlink:href="#zoomPlus" x="17" y="9" onmousedown="handleZoom(evt,'in')"/>
  <use id="zoomminus" xlink:href="#zoomMin" x="42" y="9" onmousedown="handleZoom(evt,'out')"/>
  <use id="reset" xlink:href="#resetDef" x="30" y="36" onmousedown="handleReset()"/>
   <use id="arrowup" xlink:href="#arrowUp" x="0" y="0" onmousedown="handlePan(0,-1)"/>
  <use id="arrowright" xlink:href="#arrowRight" x="0" y="0" onmousedown="handlePan(1,0)"/>
  <use id="arrowdown" xlink:href="#arrowDown" x="0" y="0" onmousedown="handlePan(0,1)"/>
  <use id="arrowleft" xlink:href="#arrowLeft" x="0" y="0" onmousedown="handlePan(-1,0)"/>
</g>
<svg viewBox="0 0 15 15" width="100%" height="30px" preserveAspectRatio="xMaxYMin meet">
 <g id="arrow_out" transform="scale(0.3 0.3)">
  <a xlink:href="UCustomNetworkSettings_8h__dep__incl_org.svg" target="_base">
   <rect id="button" ry="5" rx="5" y="6" x="6" height="38" width="38"
        fill="#f2f5e9" fill-opacity="0.5" stroke="#606060" stroke-width="1.0"/>
   <path id="arrow"
     d="M 11.500037,31.436501 C 11.940474,20.09759 22.043105,11.32322 32.158766,21.979434 L 37.068811,17.246167 C 37.068811,17.246167 37.088388,32 37.088388,32 L 22.160133,31.978069 C 22.160133,31.978069 26.997745,27.140456 26.997745,27.140456 C 18.528582,18.264221 13.291696,25.230495 11.500037,31.436501 z"
     style="fill:#404040;"/>
  </a>
 </g>
</svg>

<style type='text/css'>
<![CDATA[
[data-mouse-over-selected='false'] { opacity: 0.7; }
[data-mouse-over-selected='true']  { opacity: 1.0; }
]]>
</style>
<script type="application/ecmascript"><![CDATA[
document.addEventListener('DOMContentLoaded', (event) => {
  highlightEdges();
  highlightAdjacentNodes();
});
]]></script>
</svg>
