<?xml version="1.0" encoding="UTF-8" standalone="no"?>
<!DOCTYPE svg PUBLIC "-//W3C//DTD SVG 1.1//EN"
 "http://www.w3.org/Graphics/SVG/1.1/DTD/svg11.dtd">
<!-- Generated by graphviz version 2.43.0 (0)
 -->
<!-- Title: Source/LatteLibrary/Manager/Public/UDelayTaskManager.h Pages: 1 -->
<svg width="338pt" height="126pt"
 viewBox="0.00 0.00 338.00 126.00" xmlns="http://www.w3.org/2000/svg" xmlns:xlink="http://www.w3.org/1999/xlink">
<g id="graph0" class="graph" transform="scale(1 1) rotate(0) translate(4 122)">
<title>Source/LatteLibrary/Manager/Public/UDelayTaskManager.h</title>
<!-- Node1 -->
<g id="Node000001" class="node">
<title>Node1</title>
<g id="a_Node000001"><a xlink:title="UDelayTaskManager 클래스를 선언합니다.">
<polygon fill="#999999" stroke="#666666" points="245,-118 90,-118 90,-77 245,-77 245,-118"/>
<text text-anchor="start" x="98" y="-106" font-family="Malgun Gothic" font-size="10.00">Source/LatteLibrary</text>
<text text-anchor="start" x="98" y="-95" font-family="Malgun Gothic" font-size="10.00">/Manager/Public/UDelayTask</text>
<text text-anchor="middle" x="167.5" y="-84" font-family="Malgun Gothic" font-size="10.00">Manager.h</text>
</a>
</g>
</g>
<!-- Node2 -->
<g id="Node000002" class="node">
<title>Node2</title>
<g id="a_Node000002"><a xlink:href="UDelayTaskManager_8cpp.html" target="_top" xlink:title="UDelayTaskManager의 동작을 구현합니다.">
<polygon fill="white" stroke="#666666" points="161,-41 0,-41 0,0 161,0 161,-41"/>
<text text-anchor="start" x="8" y="-29" font-family="Malgun Gothic" font-size="10.00">Source/LatteLibrary</text>
<text text-anchor="start" x="8" y="-18" font-family="Malgun Gothic" font-size="10.00">/Manager/Private/UDelayTask</text>
<text text-anchor="middle" x="80.5" y="-7" font-family="Malgun Gothic" font-size="10.00">Manager.cpp</text>
</a>
</g>
</g>
<!-- Node1&#45;&gt;Node2 -->
<g id="edge1_Node000001_Node000002" class="edge">
<title>Node1&#45;&gt;Node2</title>
<g id="a_edge1_Node000001_Node000002"><a xlink:title=" ">
<path fill="none" stroke="#63b8ff" d="M136.84,-70.07C125.77,-60.52 113.48,-49.93 103.21,-41.07"/>
<polygon fill="#63b8ff" stroke="#63b8ff" points="134.78,-72.92 144.64,-76.79 139.35,-67.61 134.78,-72.92"/>
</a>
</g>
</g>
<!-- Node3 -->
<g id="Node000003" class="node">
<title>Node3</title>
<g id="a_Node000003"><a xlink:href="UDialogWidget_8cpp.html" target="_top" xlink:title="UDialogWidget의 동작을 구현합니다.">
<polygon fill="white" stroke="#666666" points="330,-35.5 179,-35.5 179,-5.5 330,-5.5 330,-35.5"/>
<text text-anchor="start" x="187" y="-23.5" font-family="Malgun Gothic" font-size="10.00">Source/Onepiece/UI</text>
<text text-anchor="middle" x="254.5" y="-12.5" font-family="Malgun Gothic" font-size="10.00">/Private/UDialogWidget.cpp</text>
</a>
</g>
</g>
<!-- Node1&#45;&gt;Node3 -->
<g id="edge2_Node000001_Node000003" class="edge">
<title>Node1&#45;&gt;Node3</title>
<g id="a_edge2_Node000001_Node000003"><a xlink:title=" ">
<path fill="none" stroke="#63b8ff" d="M198.04,-70.17C211.53,-58.55 226.84,-45.34 238.11,-35.63"/>
<polygon fill="#63b8ff" stroke="#63b8ff" points="195.65,-67.61 190.36,-76.79 200.22,-72.92 195.65,-67.61"/>
</a>
</g>
</g>
</g>
</svg>
