<?xml version="1.0" encoding="UTF-8" standalone="no"?>
<!DOCTYPE svg PUBLIC "-//W3C//DTD SVG 1.1//EN"
 "http://www.w3.org/Graphics/SVG/1.1/DTD/svg11.dtd">
<!-- Generated by graphviz version 2.43.0 (0)
 -->
<!-- Title: Source/Onepiece/UI/Private/UDialogManager.cpp Pages: 1 -->
<svg width="1688pt" height="148pt"
 viewBox="0.00 0.00 1688.00 148.00" xmlns="http://www.w3.org/2000/svg" xmlns:xlink="http://www.w3.org/1999/xlink">
<g id="graph0" class="graph" transform="scale(1 1) rotate(0) translate(4 144)">
<title>Source/Onepiece/UI/Private/UDialogManager.cpp</title>
<!-- Node1 -->
<g id="Node000001" class="node">
<title>Node1</title>
<g id="a_Node000001"><a xlink:title="UDialogManager의 동작을 구현합니다.">
<polygon fill="#999999" stroke="#666666" points="1073.5,-140 915.5,-140 915.5,-110 1073.5,-110 1073.5,-140"/>
<text text-anchor="start" x="923.5" y="-128" font-family="Malgun Gothic" font-size="10.00">Source/Onepiece/UI</text>
<text text-anchor="middle" x="994.5" y="-117" font-family="Malgun Gothic" font-size="10.00">/Private/UDialogManager.cpp</text>
</a>
</g>
</g>
<!-- Node2 -->
<g id="Node000002" class="node">
<title>Node2</title>
<g id="a_Node000002"><a xlink:href="UDialogManager_8h.html" target="_top" xlink:title="UDialogManager 클래스를 선언합니다.">
<polygon fill="white" stroke="#666666" points="965,-74 858,-74 858,-55 965,-55 965,-74"/>
<text text-anchor="middle" x="911.5" y="-62" font-family="Malgun Gothic" font-size="10.00">UDialogManager.h</text>
</a>
</g>
</g>
<!-- Node1&#45;&gt;Node2 -->
<g id="edge1_Node000001_Node000002" class="edge">
<title>Node1&#45;&gt;Node2</title>
<g id="a_edge1_Node000001_Node000002"><a xlink:title=" ">
<path fill="none" stroke="#63b8ff" d="M974.41,-109.84C961.62,-100.83 945.1,-89.18 932.2,-80.09"/>
<polygon fill="#63b8ff" stroke="#63b8ff" points="934.13,-77.17 923.94,-74.27 930.09,-82.89 934.13,-77.17"/>
</a>
</g>
</g>
<!-- Node7 -->
<g id="Node000007" class="node">
<title>Node7</title>
<g id="a_Node000007"><a xlink:href="FComponentHelper_8h.html" target="_top" xlink:title="FComponentHelper 구조체를 선언합니다.">
<polygon fill="white" stroke="#666666" points="478,-74 359,-74 359,-55 478,-55 478,-74"/>
<text text-anchor="middle" x="418.5" y="-62" font-family="Malgun Gothic" font-size="10.00">FComponentHelper.h</text>
</a>
</g>
</g>
<!-- Node1&#45;&gt;Node7 -->
<g id="edge6_Node000001_Node000007" class="edge">
<title>Node1&#45;&gt;Node7</title>
<g id="a_edge6_Node000001_Node000007"><a xlink:title=" ">
<path fill="none" stroke="#63b8ff" d="M915.32,-115.96C802.25,-104.47 596.32,-83.56 488.53,-72.61"/>
<polygon fill="#63b8ff" stroke="#63b8ff" points="488.71,-69.11 478.41,-71.58 488.01,-76.08 488.71,-69.11"/>
</a>
</g>
</g>
<!-- Node11 -->
<g id="Node000011" class="node">
<title>Node11</title>
<g id="a_Node000011"><a xlink:href="UDialogWidget_8h.html" target="_top" xlink:title="텍스트 출력하는 다이얼로그 위젯을 선언합니다.">
<polygon fill="white" stroke="#666666" points="761,-74 662,-74 662,-55 761,-55 761,-74"/>
<text text-anchor="middle" x="711.5" y="-62" font-family="Malgun Gothic" font-size="10.00">UDialogWidget.h</text>
</a>
</g>
</g>
<!-- Node1&#45;&gt;Node11 -->
<g id="edge11_Node000001_Node000011" class="edge">
<title>Node1&#45;&gt;Node11</title>
<g id="a_edge11_Node000001_Node000011"><a xlink:title=" ">
<path fill="none" stroke="#63b8ff" d="M926.71,-109.99C876.39,-99.59 808.82,-85.62 762.91,-76.13"/>
<polygon fill="#63b8ff" stroke="#63b8ff" points="763.38,-72.65 752.88,-74.05 761.96,-79.51 763.38,-72.65"/>
</a>
</g>
</g>
<!-- Node12 -->
<g id="Node000012" class="node">
<title>Node12</title>
<g id="a_Node000012"><a xlink:title=" ">
<polygon fill="#e0e0e0" stroke="#999999" points="915.5,-19 785.5,-19 785.5,0 915.5,0 915.5,-19"/>
<text text-anchor="middle" x="850.5" y="-7" font-family="Malgun Gothic" font-size="10.00">Blueprint/UserWidget.h</text>
</a>
</g>
</g>
<!-- Node1&#45;&gt;Node12 -->
<g id="edge18_Node000001_Node000012" class="edge">
<title>Node1&#45;&gt;Node12</title>
<g id="a_edge18_Node000001_Node000012"><a xlink:title=" ">
<path fill="none" stroke="#63b8ff" d="M915.43,-114.98C890.21,-107.93 864.88,-95.57 849.5,-74 840.31,-61.11 841.74,-42.7 844.78,-29.02"/>
<polygon fill="#63b8ff" stroke="#63b8ff" points="848.18,-29.82 847.38,-19.25 841.42,-28.02 848.18,-29.82"/>
</a>
</g>
</g>
<!-- Node14 -->
<g id="Node000014" class="node">
<title>Node14</title>
<g id="a_Node000014"><a xlink:title=" ">
<polygon fill="#e0e0e0" stroke="#999999" points="1174,-74 983,-74 983,-55 1174,-55 1174,-74"/>
<text text-anchor="middle" x="1078.5" y="-62" font-family="Malgun Gothic" font-size="10.00">GameFramework/PlayerController.h</text>
</a>
</g>
</g>
<!-- Node1&#45;&gt;Node14 -->
<g id="edge15_Node000001_Node000014" class="edge">
<title>Node1&#45;&gt;Node14</title>
<g id="a_edge15_Node000001_Node000014"><a xlink:title=" ">
<path fill="none" stroke="#63b8ff" d="M1014.83,-109.84C1027.77,-100.83 1044.49,-89.18 1057.55,-80.09"/>
<polygon fill="#63b8ff" stroke="#63b8ff" points="1059.71,-82.85 1065.91,-74.27 1055.71,-77.11 1059.71,-82.85"/>
</a>
</g>
</g>
<!-- Node15 -->
<g id="Node000015" class="node">
<title>Node15</title>
<g id="a_Node000015"><a xlink:title=" ">
<polygon fill="#e0e0e0" stroke="#999999" points="1309,-74 1192,-74 1192,-55 1309,-55 1309,-74"/>
<text text-anchor="middle" x="1250.5" y="-62" font-family="Malgun Gothic" font-size="10.00">Engine/LocalPlayer.h</text>
</a>
</g>
</g>
<!-- Node1&#45;&gt;Node15 -->
<g id="edge16_Node000001_Node000015" class="edge">
<title>Node1&#45;&gt;Node15</title>
<g id="a_edge16_Node000001_Node000015"><a xlink:title=" ">
<path fill="none" stroke="#63b8ff" d="M1055.82,-109.99C1101.05,-99.65 1161.7,-85.79 1203.21,-76.31"/>
<polygon fill="#63b8ff" stroke="#63b8ff" points="1204.1,-79.69 1213.07,-74.05 1202.54,-72.87 1204.1,-79.69"/>
</a>
</g>
</g>
<!-- Node16 -->
<g id="Node000016" class="node">
<title>Node16</title>
<g id="a_Node000016"><a xlink:title=" ">
<polygon fill="#e0e0e0" stroke="#999999" points="1459.5,-74 1327.5,-74 1327.5,-55 1459.5,-55 1459.5,-74"/>
<text text-anchor="middle" x="1393.5" y="-62" font-family="Malgun Gothic" font-size="10.00">Engine/GameInstance.h</text>
</a>
</g>
</g>
<!-- Node1&#45;&gt;Node16 -->
<g id="edge17_Node000001_Node000016" class="edge">
<title>Node1&#45;&gt;Node16</title>
<g id="a_edge17_Node000001_Node000016"><a xlink:title=" ">
<path fill="none" stroke="#63b8ff" d="M1073.81,-112.37C1147.35,-101.59 1255.63,-85.71 1325.36,-75.49"/>
<polygon fill="#63b8ff" stroke="#63b8ff" points="1325.97,-78.94 1335.36,-74.02 1324.96,-72.01 1325.97,-78.94"/>
</a>
</g>
</g>
<!-- Node17 -->
<g id="Node000017" class="node">
<title>Node17</title>
<g id="a_Node000017"><a xlink:title=" ">
<polygon fill="#e0e0e0" stroke="#999999" points="1573,-74 1478,-74 1478,-55 1573,-55 1573,-74"/>
<text text-anchor="middle" x="1525.5" y="-62" font-family="Malgun Gothic" font-size="10.00">Engine/Engine.h</text>
</a>
</g>
</g>
<!-- Node1&#45;&gt;Node17 -->
<g id="edge19_Node000001_Node000017" class="edge">
<title>Node1&#45;&gt;Node17</title>
<g id="a_edge19_Node000001_Node000017"><a xlink:title=" ">
<path fill="none" stroke="#63b8ff" d="M1073.88,-116.68C1166,-107.94 1322.74,-92.35 1467.95,-74.02"/>
<polygon fill="#63b8ff" stroke="#63b8ff" points="1468.46,-77.48 1477.94,-72.75 1467.57,-70.54 1468.46,-77.48"/>
</a>
</g>
</g>
<!-- Node18 -->
<g id="Node000018" class="node">
<title>Node18</title>
<g id="a_Node000018"><a xlink:title=" ">
<polygon fill="#e0e0e0" stroke="#999999" points="1680,-74 1591,-74 1591,-55 1680,-55 1680,-74"/>
<text text-anchor="middle" x="1635.5" y="-62" font-family="Malgun Gothic" font-size="10.00">Engine/World.h</text>
</a>
</g>
</g>
<!-- Node1&#45;&gt;Node18 -->
<g id="edge20_Node000001_Node000018" class="edge">
<title>Node1&#45;&gt;Node18</title>
<g id="a_edge20_Node000001_Node000018"><a xlink:title=" ">
<path fill="none" stroke="#63b8ff" d="M1073.63,-119.14C1184.73,-111.91 1393.48,-96.79 1580.69,-74.14"/>
<polygon fill="#63b8ff" stroke="#63b8ff" points="1581.21,-77.61 1590.71,-72.92 1580.36,-70.66 1581.21,-77.61"/>
</a>
</g>
</g>
<!-- Node19 -->
<g id="Node000019" class="node">
<title>Node19</title>
<g id="a_Node000019"><a xlink:href="Onepiece_8h.html" target="_top" xlink:title=" ">
<polygon fill="white" stroke="#666666" points="640.5,-74 520.5,-74 520.5,-55 640.5,-55 640.5,-74"/>
<text text-anchor="middle" x="580.5" y="-62" font-family="Malgun Gothic" font-size="10.00">Onepiece/Onepiece.h</text>
</a>
</g>
</g>
<!-- Node1&#45;&gt;Node19 -->
<g id="edge21_Node000001_Node000019" class="edge">
<title>Node1&#45;&gt;Node19</title>
<g id="a_edge21_Node000001_Node000019"><a xlink:title=" ">
<path fill="none" stroke="#63b8ff" d="M915.17,-112.79C838.7,-101.98 724.1,-85.79 650.82,-75.44"/>
<polygon fill="#63b8ff" stroke="#63b8ff" points="651.16,-71.95 640.76,-74.02 650.18,-78.88 651.16,-71.95"/>
</a>
</g>
</g>
<!-- Node3 -->
<g id="Node000003" class="node">
<title>Node3</title>
<g id="a_Node000003"><a xlink:title=" ">
<polygon fill="#e0e0e0" stroke="#999999" points="597.5,-19 509.5,-19 509.5,0 597.5,0 597.5,-19"/>
<text text-anchor="middle" x="553.5" y="-7" font-family="Malgun Gothic" font-size="10.00">CoreMinimal.h</text>
</a>
</g>
</g>
<!-- Node2&#45;&gt;Node3 -->
<g id="edge2_Node000002_Node000003" class="edge">
<title>Node2&#45;&gt;Node3</title>
<g id="a_edge2_Node000002_Node000003"><a xlink:title=" ">
<path fill="none" stroke="#63b8ff" d="M857.75,-55.89C798.87,-47.51 701.39,-33.47 607.67,-19.16"/>
<polygon fill="#63b8ff" stroke="#63b8ff" points="608.15,-15.7 597.74,-17.64 607.09,-22.61 608.15,-15.7"/>
</a>
</g>
</g>
<!-- Node4 -->
<g id="Node000004" class="node">
<title>Node4</title>
<g id="a_Node000004"><a xlink:href="Macro_8h.html" target="_top" xlink:title="YiSan 전반에서 사용하는 공용 인터페이스를 선언합니다.">
<polygon fill="white" stroke="#666666" points="989.5,-19 933.5,-19 933.5,0 989.5,0 989.5,-19"/>
<text text-anchor="middle" x="961.5" y="-7" font-family="Malgun Gothic" font-size="10.00">Macro.h</text>
</a>
</g>
</g>
<!-- Node2&#45;&gt;Node4 -->
<g id="edge3_Node000002_Node000004" class="edge">
<title>Node2&#45;&gt;Node4</title>
<g id="a_edge3_Node000002_Node000004"><a xlink:title=" ">
<path fill="none" stroke="#63b8ff" d="M919.76,-54.75C926.96,-47.11 937.61,-35.82 946.35,-26.56"/>
<polygon fill="#63b8ff" stroke="#63b8ff" points="949.08,-28.76 953.4,-19.09 943.99,-23.96 949.08,-28.76"/>
</a>
</g>
</g>
<!-- Node5 -->
<g id="Node000005" class="node">
<title>Node5</title>
<g id="a_Node000005"><a xlink:title=" ">
<polygon fill="#e0e0e0" stroke="#999999" points="1205.5,-19 1007.5,-19 1007.5,0 1205.5,0 1205.5,-19"/>
<text text-anchor="middle" x="1106.5" y="-7" font-family="Malgun Gothic" font-size="10.00">Subsystems/LocalPlayerSubsystem.h</text>
</a>
</g>
</g>
<!-- Node2&#45;&gt;Node5 -->
<g id="edge4_Node000002_Node000005" class="edge">
<title>Node2&#45;&gt;Node5</title>
<g id="a_edge4_Node000002_Node000005"><a xlink:title=" ">
<path fill="none" stroke="#63b8ff" d="M942.83,-54.98C975.99,-45.97 1028.5,-31.7 1065.06,-21.76"/>
<polygon fill="#63b8ff" stroke="#63b8ff" points="1066.19,-25.08 1074.92,-19.08 1064.36,-18.33 1066.19,-25.08"/>
</a>
</g>
</g>
<!-- Node6 -->
<g id="Node000006" class="node">
<title>Node6</title>
<g id="a_Node000006"><a xlink:title=" ">
<polygon fill="#e0e0e0" stroke="#999999" points="1383,-19 1224,-19 1224,0 1383,0 1383,-19"/>
<text text-anchor="middle" x="1303.5" y="-7" font-family="Malgun Gothic" font-size="10.00">UDialogManager.generated.h</text>
</a>
</g>
</g>
<!-- Node2&#45;&gt;Node6 -->
<g id="edge5_Node000002_Node000006" class="edge">
<title>Node2&#45;&gt;Node6</title>
<g id="a_edge5_Node000002_Node000006"><a xlink:title=" ">
<path fill="none" stroke="#63b8ff" d="M965.18,-56.24C1033.92,-46.95 1153.3,-30.81 1230.32,-20.39"/>
<polygon fill="#63b8ff" stroke="#63b8ff" points="1230.99,-23.84 1240.43,-19.03 1230.05,-16.9 1230.99,-23.84"/>
</a>
</g>
</g>
<!-- Node7&#45;&gt;Node3 -->
<g id="edge7_Node000007_Node000003" class="edge">
<title>Node7&#45;&gt;Node3</title>
<g id="a_edge7_Node000007_Node000003"><a xlink:title=" ">
<path fill="none" stroke="#63b8ff" d="M440.19,-54.98C462.3,-46.3 496.82,-32.75 521.95,-22.88"/>
<polygon fill="#63b8ff" stroke="#63b8ff" points="523.39,-26.08 531.42,-19.17 520.83,-19.57 523.39,-26.08"/>
</a>
</g>
</g>
<!-- Node8 -->
<g id="Node000008" class="node">
<title>Node8</title>
<g id="a_Node000008"><a xlink:title=" ">
<polygon fill="#e0e0e0" stroke="#999999" points="137,-19 0,-19 0,0 137,0 137,-19"/>
<text text-anchor="middle" x="68.5" y="-7" font-family="Malgun Gothic" font-size="10.00">GameFramework/Actor.h</text>
</a>
</g>
</g>
<!-- Node7&#45;&gt;Node8 -->
<g id="edge8_Node000007_Node000008" class="edge">
<title>Node7&#45;&gt;Node8</title>
<g id="a_edge8_Node000007_Node000008"><a xlink:title=" ">
<path fill="none" stroke="#63b8ff" d="M362.27,-54.98C300.36,-45.61 200.91,-30.55 135.14,-20.59"/>
<polygon fill="#63b8ff" stroke="#63b8ff" points="135.3,-17.07 124.88,-19.04 134.25,-24 135.3,-17.07"/>
</a>
</g>
</g>
<!-- Node9 -->
<g id="Node000009" class="node">
<title>Node9</title>
<g id="a_Node000009"><a xlink:title=" ">
<polygon fill="#e0e0e0" stroke="#999999" points="327.5,-19 155.5,-19 155.5,0 327.5,0 327.5,-19"/>
<text text-anchor="middle" x="241.5" y="-7" font-family="Malgun Gothic" font-size="10.00">Components/ActorComponent.h</text>
</a>
</g>
</g>
<!-- Node7&#45;&gt;Node9 -->
<g id="edge9_Node000007_Node000009" class="edge">
<title>Node7&#45;&gt;Node9</title>
<g id="a_edge9_Node000007_Node000009"><a xlink:title=" ">
<path fill="none" stroke="#63b8ff" d="M390.06,-54.98C360.22,-46.05 313.12,-31.94 279.97,-22.02"/>
<polygon fill="#63b8ff" stroke="#63b8ff" points="280.74,-18.6 270.16,-19.08 278.74,-25.3 280.74,-18.6"/>
</a>
</g>
</g>
<!-- Node10 -->
<g id="Node000010" class="node">
<title>Node10</title>
<g id="a_Node000010"><a xlink:title=" ">
<polygon fill="#e0e0e0" stroke="#999999" points="491.5,-19 345.5,-19 345.5,0 491.5,0 491.5,-19"/>
<text text-anchor="middle" x="418.5" y="-7" font-family="Malgun Gothic" font-size="10.00">Kismet/GameplayStatics.h</text>
</a>
</g>
</g>
<!-- Node7&#45;&gt;Node10 -->
<g id="edge10_Node000007_Node000010" class="edge">
<title>Node7&#45;&gt;Node10</title>
<g id="a_edge10_Node000007_Node000010"><a xlink:title=" ">
<path fill="none" stroke="#63b8ff" d="M418.5,-54.75C418.5,-47.8 418.5,-37.85 418.5,-29.13"/>
<polygon fill="#63b8ff" stroke="#63b8ff" points="422,-29.09 418.5,-19.09 415,-29.09 422,-29.09"/>
</a>
</g>
</g>
<!-- Node11&#45;&gt;Node3 -->
<g id="edge12_Node000011_Node000003" class="edge">
<title>Node11&#45;&gt;Node3</title>
<g id="a_edge12_Node000011_Node000003"><a xlink:title=" ">
<path fill="none" stroke="#63b8ff" d="M686.11,-54.98C659.7,-46.13 618.15,-32.19 588.61,-22.28"/>
<polygon fill="#63b8ff" stroke="#63b8ff" points="589.68,-18.94 579.08,-19.08 587.45,-25.58 589.68,-18.94"/>
</a>
</g>
</g>
<!-- Node11&#45;&gt;Node12 -->
<g id="edge13_Node000011_Node000012" class="edge">
<title>Node11&#45;&gt;Node12</title>
<g id="a_edge13_Node000011_Node000012"><a xlink:title=" ">
<path fill="none" stroke="#63b8ff" d="M733.83,-54.98C756.7,-46.27 792.46,-32.63 818.36,-22.75"/>
<polygon fill="#63b8ff" stroke="#63b8ff" points="819.66,-26 827.76,-19.17 817.17,-19.46 819.66,-26"/>
</a>
</g>
</g>
<!-- Node13 -->
<g id="Node000013" class="node">
<title>Node13</title>
<g id="a_Node000013"><a xlink:title=" ">
<polygon fill="#e0e0e0" stroke="#999999" points="767.5,-19 615.5,-19 615.5,0 767.5,0 767.5,-19"/>
<text text-anchor="middle" x="691.5" y="-7" font-family="Malgun Gothic" font-size="10.00">UDialogWidget.generated.h</text>
</a>
</g>
</g>
<!-- Node11&#45;&gt;Node13 -->
<g id="edge14_Node000011_Node000013" class="edge">
<title>Node11&#45;&gt;Node13</title>
<g id="a_edge14_Node000011_Node000013"><a xlink:title=" ">
<path fill="none" stroke="#63b8ff" d="M708.2,-54.75C705.52,-47.65 701.65,-37.4 698.31,-28.56"/>
<polygon fill="#63b8ff" stroke="#63b8ff" points="701.55,-27.21 694.74,-19.09 695,-29.68 701.55,-27.21"/>
</a>
</g>
</g>
<!-- Node19&#45;&gt;Node3 -->
<g id="edge22_Node000019_Node000003" class="edge">
<title>Node19&#45;&gt;Node3</title>
<g id="a_edge22_Node000019_Node000003"><a xlink:title=" ">
<path fill="none" stroke="#63b8ff" d="M576.04,-54.75C572.38,-47.57 567.09,-37.18 562.55,-28.27"/>
<polygon fill="#63b8ff" stroke="#63b8ff" points="565.53,-26.41 557.88,-19.09 559.3,-29.59 565.53,-26.41"/>
</a>
</g>
</g>
</g>
</svg>
