<?xml version="1.0" encoding="UTF-8" standalone="no"?>
<!DOCTYPE svg PUBLIC "-//W3C//DTD SVG 1.1//EN"
 "http://www.w3.org/Graphics/SVG/1.1/DTD/svg11.dtd">
<!-- Generated by graphviz version 2.43.0 (0)
 -->
<!-- Title: Source/CoffeeLibrary/Features/Public/UEaseFunctionLibrary.h Pages: 1 -->
<svg width="350pt" height="126pt"
 viewBox="0.00 0.00 349.50 126.00" xmlns="http://www.w3.org/2000/svg" xmlns:xlink="http://www.w3.org/1999/xlink">
<g id="graph0" class="graph" transform="scale(1 1) rotate(0) translate(4 122)">
<title>Source/CoffeeLibrary/Features/Public/UEaseFunctionLibrary.h</title>
<!-- Node1 -->
<g id="Node000001" class="node">
<title>Node1</title>
<g id="a_Node000001"><a xlink:title="UEaseFunctionLibrary 클래스를 선언합니다.">
<polygon fill="#999999" stroke="#666666" points="261.5,-118 92.5,-118 92.5,-77 261.5,-77 261.5,-118"/>
<text text-anchor="start" x="100.5" y="-106" font-family="Malgun Gothic" font-size="10.00">Source/CoffeeLibrary</text>
<text text-anchor="start" x="100.5" y="-95" font-family="Malgun Gothic" font-size="10.00">/Features/Public/UEaseFunction</text>
<text text-anchor="middle" x="177" y="-84" font-family="Malgun Gothic" font-size="10.00">Library.h</text>
</a>
</g>
</g>
<!-- Node2 -->
<g id="Node000002" class="node">
<title>Node2</title>
<g id="a_Node000002"><a xlink:href="UEaseFunctionLibrary_8cpp.html" target="_top" xlink:title="FEaseHelper의 동작을 구현합니다.">
<polygon fill="white" stroke="#666666" points="174,-41 0,-41 0,0 174,0 174,-41"/>
<text text-anchor="start" x="8" y="-29" font-family="Malgun Gothic" font-size="10.00">Source/CoffeeLibrary</text>
<text text-anchor="start" x="8" y="-18" font-family="Malgun Gothic" font-size="10.00">/Features/Private/UEaseFunction</text>
<text text-anchor="middle" x="87" y="-7" font-family="Malgun Gothic" font-size="10.00">Library.cpp</text>
</a>
</g>
</g>
<!-- Node1&#45;&gt;Node2 -->
<g id="edge1_Node000001_Node000002" class="edge">
<title>Node1&#45;&gt;Node2</title>
<g id="a_edge1_Node000001_Node000002"><a xlink:title=" ">
<path fill="none" stroke="#63b8ff" d="M145.62,-70.35C134.08,-60.73 121.22,-50.01 110.49,-41.07"/>
<polygon fill="#63b8ff" stroke="#63b8ff" points="143.43,-73.08 153.35,-76.79 147.91,-67.7 143.43,-73.08"/>
</a>
</g>
</g>
<!-- Node3 -->
<g id="Node000003" class="node">
<title>Node3</title>
<g id="a_Node000003"><a xlink:href="UFlySystem_8cpp.html" target="_top" xlink:title="UFlySystem의 동작을 구현합니다.">
<polygon fill="white" stroke="#666666" points="341.5,-35.5 192.5,-35.5 192.5,-5.5 341.5,-5.5 341.5,-35.5"/>
<text text-anchor="start" x="200.5" y="-23.5" font-family="Malgun Gothic" font-size="10.00">Source/Onepiece/Character</text>
<text text-anchor="middle" x="267" y="-12.5" font-family="Malgun Gothic" font-size="10.00">/Private/UFlySystem.cpp</text>
</a>
</g>
</g>
<!-- Node1&#45;&gt;Node3 -->
<g id="edge2_Node000001_Node000003" class="edge">
<title>Node1&#45;&gt;Node3</title>
<g id="a_edge2_Node000001_Node000003"><a xlink:title=" ">
<path fill="none" stroke="#63b8ff" d="M208.6,-70.17C222.55,-58.55 238.39,-45.34 250.05,-35.63"/>
<polygon fill="#63b8ff" stroke="#63b8ff" points="206.09,-67.7 200.65,-76.79 210.57,-73.08 206.09,-67.7"/>
</a>
</g>
</g>
</g>
</svg>
