<?xml version="1.0" encoding="UTF-8" standalone="no"?>
<!DOCTYPE svg PUBLIC "-//W3C//DTD SVG 1.1//EN"
 "http://www.w3.org/Graphics/SVG/1.1/DTD/svg11.dtd">
<!-- Generated by graphviz version 2.43.0 (0)
 -->
<!-- Title: Source/Onepiece/Character/Private/UFlySystem.cpp Pages: 1 -->
<!--zoomable 214 -->

<svg id="main" version="1.1" xmlns="http://www.w3.org/2000/svg" xmlns:xlink="http://www.w3.org/1999/xlink" xml:space="preserve" onload="init(evt)">
<style type="text/css"><![CDATA[
.node, .edge {opacity: 0.7;}
.node.selected, .edge.selected {opacity: 1;}
.edge:hover path { stroke: red; }
.edge:hover polygon { stroke: red; fill: red; }
]]></style>

<defs>
  <circle id="rim" cx="0" cy="0" r="7"/>
  <circle id="rim2" cx="0" cy="0" r="3.5"/>
  <g id="zoomPlus">
    <use xlink:href="#rim" fill="#404040"><set attributeName="fill" to="#808080" begin="zoomplus.mouseover" end="zoomplus.mouseout"/></use>
    <path d="M-4,0h8M0,-4v8" fill="none" stroke="white" stroke-width="1.5" pointer-events="none"/>
  </g>
  <g id="zoomMin">
    <use xlink:href="#rim" fill="#404040"><set attributeName="fill" to="#808080" begin="zoomminus.mouseover" end="zoomminus.mouseout"/></use>
    <path d="M-4,0h8" fill="none" stroke="white" stroke-width="1.5" pointer-events="none"/>
  </g>
  <g id="arrowUp" transform="translate(30 24)">
    <use xlink:href="#rim"/>
    <path pointer-events="none" fill="none" stroke="white" stroke-width="1.5" d="M0,-3.0v7 M-2.5,-0.5L0,-3.0L2.5,-0.5"/>
  </g>
  <g id="arrowRight" transform="rotate(90) translate(36 -43)">
    <use xlink:href="#rim"/>
    <path pointer-events="none" fill="none" stroke="white" stroke-width="1.5" d="M0,-3.0v7 M-2.5,-0.5L0,-3.0L2.5,-0.5"/>
  </g>
  <g id="arrowDown" transform="rotate(180) translate(-30 -48)">
    <use xlink:href="#rim"/>
    <path pointer-events="none" fill="none" stroke="white" stroke-width="1.5" d="M0,-3.0v7 M-2.5,-0.5L0,-3.0L2.5,-0.5"/>
  </g>
  <g id="arrowLeft" transform="rotate(270) translate(-36 17)">
    <use xlink:href="#rim"/>
    <path pointer-events="none" fill="none" stroke="white" stroke-width="1.5" d="M0,-3.0v7 M-2.5,-0.5L0,-3.0L2.5,-0.5"/>
  </g>
  <g id="resetDef">
    <use xlink:href="#rim2" fill="#404040"><set attributeName="fill" to="#808080" begin="reset.mouseover" end="reset.mouseout"/></use>
  </g>
</defs>
<script type="application/ecmascript">
var viewWidth = 1443;
var viewHeight = 214;
var sectionId = 'dynsection-0';
</script>
<script type="application/ecmascript" xlink:href="svg.min.js"/>
<svg id="graph" class="graph">
<g id="viewport">
<title>Source/Onepiece/Character/Private/UFlySystem.cpp</title>
<!-- Node1 -->
<g id="Node000001" class="node">
<title>Node1</title>
<g id="a_Node000001"><a xlink:title="UFlySystem의 동작을 구현합니다.">
<polygon fill="#999999" stroke="#666666" points="937.5,-206 788.5,-206 788.5,-176 937.5,-176 937.5,-206"/>
<text text-anchor="start" x="796.5" y="-194" font-family="Malgun Gothic" font-size="10.00">Source/Onepiece/Character</text>
<text text-anchor="middle" x="863" y="-183" font-family="Malgun Gothic" font-size="10.00">/Private/UFlySystem.cpp</text>
</a>
</g>
</g>
<!-- Node2 -->
<g id="Node000002" class="node">
<title>Node2</title>
<g id="a_Node000002"><a xlink:href="UFlySystem_8h.html" target="_top" xlink:title="UFlySystem 클래스를 선언합니다.">
<polygon fill="white" stroke="#666666" points="905.5,-134.5 820.5,-134.5 820.5,-115.5 905.5,-115.5 905.5,-134.5"/>
<text text-anchor="middle" x="863" y="-122.5" font-family="Malgun Gothic" font-size="10.00">UFlySystem.h</text>
</a>
</g>
</g>
<!-- Node1&#45;&gt;Node2 -->
<g id="edge1_Node000001_Node000002" class="edge">
<title>Node1&#45;&gt;Node2</title>
<g id="a_edge1_Node000001_Node000002"><a xlink:title=" ">
<path fill="none" stroke="#63b8ff" d="M863,-175.8C863,-166.7 863,-154.79 863,-144.9"/>
<polygon fill="#63b8ff" stroke="#63b8ff" points="866.5,-144.84 863,-134.84 859.5,-144.84 866.5,-144.84"/>
</a>
</g>
</g>
<!-- Node6 -->
<g id="Node000006" class="node">
<title>Node6</title>
<g id="a_Node000006"><a xlink:href="APlayerActor_8h.html" target="_top" xlink:title="Declares the player&#45;controlled character actor.">
<polygon fill="white" stroke="#666666" points="318,-134.5 230,-134.5 230,-115.5 318,-115.5 318,-134.5"/>
<text text-anchor="middle" x="274" y="-122.5" font-family="Malgun Gothic" font-size="10.00">APlayerActor.h</text>
</a>
</g>
</g>
<!-- Node1&#45;&gt;Node6 -->
<g id="edge5_Node000001_Node000006" class="edge">
<title>Node1&#45;&gt;Node6</title>
<g id="a_edge5_Node000001_Node000006"><a xlink:title=" ">
<path fill="none" stroke="#63b8ff" d="M788.4,-181.89C668.12,-168.82 434.14,-143.4 328.31,-131.9"/>
<polygon fill="#63b8ff" stroke="#63b8ff" points="328.49,-128.4 318.17,-130.8 327.73,-135.36 328.49,-128.4"/>
</a>
</g>
</g>
<!-- Node7 -->
<g id="Node000007" class="node">
<title>Node7</title>
<g id="a_Node000007"><a xlink:title=" ">
<polygon fill="#e0e0e0" stroke="#999999" points="460.5,-74 301.5,-74 301.5,-55 460.5,-55 460.5,-74"/>
<text text-anchor="middle" x="381" y="-62" font-family="Malgun Gothic" font-size="10.00">GameFramework/Character.h</text>
</a>
</g>
</g>
<!-- Node1&#45;&gt;Node7 -->
<g id="edge19_Node000001_Node000007" class="edge">
<title>Node1&#45;&gt;Node7</title>
<g id="a_edge19_Node000001_Node000007"><a xlink:title=" ">
<path fill="none" stroke="#63b8ff" d="M788.2,-183.6C723.81,-176.79 628.93,-163.65 549,-140 496.04,-124.33 437.89,-95.79 405.78,-78.95"/>
<polygon fill="#63b8ff" stroke="#63b8ff" points="407.16,-75.72 396.69,-74.13 403.88,-81.9 407.16,-75.72"/>
</a>
</g>
</g>
<!-- Node12 -->
<g id="Node000012" class="node">
<title>Node12</title>
<g id="a_Node000012"><a xlink:href="FEaseHelper_8h.html" target="_top" xlink:title="EEaseType 클래스를 선언합니다.">
<polygon fill="white" stroke="#666666" points="1010,-134.5 924,-134.5 924,-115.5 1010,-115.5 1010,-134.5"/>
<text text-anchor="middle" x="967" y="-122.5" font-family="Malgun Gothic" font-size="10.00">FEaseHelper.h</text>
</a>
</g>
</g>
<!-- Node1&#45;&gt;Node12 -->
<g id="edge13_Node000001_Node000012" class="edge">
<title>Node1&#45;&gt;Node12</title>
<g id="a_edge13_Node000001_Node000012"><a xlink:title=" ">
<path fill="none" stroke="#63b8ff" d="M885.82,-175.95C903.18,-165.27 926.94,-150.65 944.27,-139.98"/>
<polygon fill="#63b8ff" stroke="#63b8ff" points="946.48,-142.74 953.16,-134.52 942.81,-136.78 946.48,-142.74"/>
</a>
</g>
</g>
<!-- Node13 -->
<g id="Node000013" class="node">
<title>Node13</title>
<g id="a_Node000013"><a xlink:href="UEaseFunctionLibrary_8h.html" target="_top" xlink:title="UEaseFunctionLibrary 클래스를 선언합니다.">
<polygon fill="white" stroke="#666666" points="688,-134.5 558,-134.5 558,-115.5 688,-115.5 688,-134.5"/>
<text text-anchor="middle" x="623" y="-122.5" font-family="Malgun Gothic" font-size="10.00">UEaseFunctionLibrary.h</text>
</a>
</g>
</g>
<!-- Node1&#45;&gt;Node13 -->
<g id="edge14_Node000001_Node000013" class="edge">
<title>Node1&#45;&gt;Node13</title>
<g id="a_edge14_Node000001_Node000013"><a xlink:title=" ">
<path fill="none" stroke="#63b8ff" d="M810.33,-175.95C766.57,-164.29 705.15,-147.91 664.74,-137.13"/>
<polygon fill="#63b8ff" stroke="#63b8ff" points="665.5,-133.71 654.94,-134.52 663.7,-140.48 665.5,-133.71"/>
</a>
</g>
</g>
<!-- Node16 -->
<g id="Node000016" class="node">
<title>Node16</title>
<g id="a_Node000016"><a xlink:title=" ">
<polygon fill="#e0e0e0" stroke="#999999" points="1213.5,-134.5 1028.5,-134.5 1028.5,-115.5 1213.5,-115.5 1213.5,-134.5"/>
<text text-anchor="middle" x="1121" y="-122.5" font-family="Malgun Gothic" font-size="10.00">Components/CapsuleComponent.h</text>
</a>
</g>
</g>
<!-- Node1&#45;&gt;Node16 -->
<g id="edge18_Node000001_Node000016" class="edge">
<title>Node1&#45;&gt;Node16</title>
<g id="a_edge18_Node000001_Node000016"><a xlink:title=" ">
<path fill="none" stroke="#63b8ff" d="M919.62,-175.95C966.96,-164.21 1033.52,-147.7 1076.96,-136.93"/>
<polygon fill="#63b8ff" stroke="#63b8ff" points="1077.8,-140.32 1086.66,-134.52 1076.12,-133.53 1077.8,-140.32"/>
</a>
</g>
</g>
<!-- Node17 -->
<g id="Node000017" class="node">
<title>Node17</title>
<g id="a_Node000017"><a xlink:title=" ">
<polygon fill="#e0e0e0" stroke="#999999" points="1434.5,-140 1231.5,-140 1231.5,-110 1434.5,-110 1434.5,-140"/>
<text text-anchor="start" x="1239.5" y="-128" font-family="Malgun Gothic" font-size="10.00">GameFramework/CharacterMovement</text>
<text text-anchor="middle" x="1333" y="-117" font-family="Malgun Gothic" font-size="10.00">Component.h</text>
</a>
</g>
</g>
<!-- Node1&#45;&gt;Node17 -->
<g id="edge20_Node000001_Node000017" class="edge">
<title>Node1&#45;&gt;Node17</title>
<g id="a_edge20_Node000001_Node000017"><a xlink:title=" ">
<path fill="none" stroke="#63b8ff" d="M937.73,-179.82C1014.17,-169.41 1133.82,-153.12 1221.47,-141.19"/>
<polygon fill="#63b8ff" stroke="#63b8ff" points="1222.02,-144.65 1231.45,-139.83 1221.07,-137.71 1222.02,-144.65"/>
</a>
</g>
</g>
<!-- Node3 -->
<g id="Node000003" class="node">
<title>Node3</title>
<g id="a_Node000003"><a xlink:title=" ">
<polygon fill="#e0e0e0" stroke="#999999" points="455,-19 367,-19 367,0 455,0 455,-19"/>
<text text-anchor="middle" x="411" y="-7" font-family="Malgun Gothic" font-size="10.00">CoreMinimal.h</text>
</a>
</g>
</g>
<!-- Node2&#45;&gt;Node3 -->
<g id="edge2_Node000002_Node000003" class="edge">
<title>Node2&#45;&gt;Node3</title>
<g id="a_edge2_Node000002_Node000003"><a xlink:title=" ">
<path fill="none" stroke="#63b8ff" d="M892.27,-115.44C899.65,-113.47 907.58,-111.51 915,-110 1029.02,-86.73 1250.85,-139.66 1171,-55 1146.82,-29.37 635.4,-15.56 465.4,-11.66"/>
<polygon fill="#63b8ff" stroke="#63b8ff" points="465.25,-8.16 455.18,-11.43 465.09,-15.16 465.25,-8.16"/>
</a>
</g>
</g>
<!-- Node4 -->
<g id="Node000004" class="node">
<title>Node4</title>
<g id="a_Node000004"><a xlink:title=" ">
<polygon fill="#e0e0e0" stroke="#999999" points="1006,-74 834,-74 834,-55 1006,-55 1006,-74"/>
<text text-anchor="middle" x="920" y="-62" font-family="Malgun Gothic" font-size="10.00">Components/ActorComponent.h</text>
</a>
</g>
</g>
<!-- Node2&#45;&gt;Node4 -->
<g id="edge3_Node000002_Node000004" class="edge">
<title>Node2&#45;&gt;Node4</title>
<g id="a_edge3_Node000002_Node000004"><a xlink:title=" ">
<path fill="none" stroke="#63b8ff" d="M871.41,-115.37C880.08,-106.47 893.8,-92.39 904.46,-81.45"/>
<polygon fill="#63b8ff" stroke="#63b8ff" points="907.08,-83.77 911.55,-74.17 902.07,-78.89 907.08,-83.77"/>
</a>
</g>
</g>
<!-- Node5 -->
<g id="Node000005" class="node">
<title>Node5</title>
<g id="a_Node000005"><a xlink:title=" ">
<polygon fill="#e0e0e0" stroke="#999999" points="1161.5,-74 1024.5,-74 1024.5,-55 1161.5,-55 1161.5,-74"/>
<text text-anchor="middle" x="1093" y="-62" font-family="Malgun Gothic" font-size="10.00">UFlySystem.generated.h</text>
</a>
</g>
</g>
<!-- Node2&#45;&gt;Node5 -->
<g id="edge4_Node000002_Node000005" class="edge">
<title>Node2&#45;&gt;Node5</title>
<g id="a_edge4_Node000002_Node000005"><a xlink:title=" ">
<path fill="none" stroke="#63b8ff" d="M894.32,-115.47C901.13,-113.64 908.3,-111.74 915,-110 960.37,-98.22 1012.4,-85.28 1048.44,-76.4"/>
<polygon fill="#63b8ff" stroke="#63b8ff" points="1049.29,-79.8 1058.16,-74.01 1047.62,-73 1049.29,-79.8"/>
</a>
</g>
</g>
<!-- Node6&#45;&gt;Node3 -->
<g id="edge6_Node000006_Node000003" class="edge">
<title>Node6&#45;&gt;Node3</title>
<g id="a_edge6_Node000006_Node000003"><a xlink:title=" ">
<path fill="none" stroke="#63b8ff" d="M273.84,-115.18C274.06,-100.77 276.57,-72.1 292,-55 308.73,-36.46 333.95,-25.61 356.87,-19.28"/>
<polygon fill="#63b8ff" stroke="#63b8ff" points="358.02,-22.6 366.85,-16.76 356.3,-15.81 358.02,-22.6"/>
</a>
</g>
</g>
<!-- Node6&#45;&gt;Node7 -->
<g id="edge7_Node000006_Node000007" class="edge">
<title>Node6&#45;&gt;Node7</title>
<g id="a_edge7_Node000006_Node000007"><a xlink:title=" ">
<path fill="none" stroke="#63b8ff" d="M289.79,-115.37C307.33,-105.78 335.88,-90.17 356.37,-78.97"/>
<polygon fill="#63b8ff" stroke="#63b8ff" points="358.05,-82.04 365.15,-74.17 354.69,-75.89 358.05,-82.04"/>
</a>
</g>
</g>
<!-- Node8 -->
<g id="Node000008" class="node">
<title>Node8</title>
<g id="a_Node000008"><a xlink:href="IControllable_8h.html" target="_top" xlink:title="UControllable 클래스를 선언합니다.">
<polygon fill="white" stroke="#666666" points="246,-74 158,-74 158,-55 246,-55 246,-74"/>
<text text-anchor="middle" x="202" y="-62" font-family="Malgun Gothic" font-size="10.00">IControllable.h</text>
</a>
</g>
</g>
<!-- Node6&#45;&gt;Node8 -->
<g id="edge8_Node000006_Node000008" class="edge">
<title>Node6&#45;&gt;Node8</title>
<g id="a_edge8_Node000006_Node000008"><a xlink:title=" ">
<path fill="none" stroke="#63b8ff" d="M263.38,-115.37C252.1,-106.21 234.08,-91.56 220.47,-80.51"/>
<polygon fill="#63b8ff" stroke="#63b8ff" points="222.64,-77.76 212.67,-74.17 218.22,-83.19 222.64,-77.76"/>
</a>
</g>
</g>
<!-- Node11 -->
<g id="Node000011" class="node">
<title>Node11</title>
<g id="a_Node000011"><a xlink:title=" ">
<polygon fill="#e0e0e0" stroke="#999999" points="140,-74 0,-74 0,-55 140,-55 140,-74"/>
<text text-anchor="middle" x="70" y="-62" font-family="Malgun Gothic" font-size="10.00">APlayerActor.generated.h</text>
</a>
</g>
</g>
<!-- Node6&#45;&gt;Node11 -->
<g id="edge12_Node000006_Node000011" class="edge">
<title>Node6&#45;&gt;Node11</title>
<g id="a_edge12_Node000006_Node000011"><a xlink:title=" ">
<path fill="none" stroke="#63b8ff" d="M244.34,-115.49C208.76,-105.29 148.98,-88.15 109.52,-76.83"/>
<polygon fill="#63b8ff" stroke="#63b8ff" points="110.28,-73.41 99.7,-74.02 108.35,-80.14 110.28,-73.41"/>
</a>
</g>
</g>
<!-- Node8&#45;&gt;Node3 -->
<g id="edge9_Node000008_Node000003" class="edge">
<title>Node8&#45;&gt;Node3</title>
<g id="a_edge9_Node000008_Node000003"><a xlink:title=" ">
<path fill="none" stroke="#63b8ff" d="M235.58,-54.98C271.35,-45.91 328.12,-31.52 367.34,-21.57"/>
<polygon fill="#63b8ff" stroke="#63b8ff" points="368.32,-24.93 377.16,-19.08 366.6,-18.15 368.32,-24.93"/>
</a>
</g>
</g>
<!-- Node9 -->
<g id="Node000009" class="node">
<title>Node9</title>
<g id="a_Node000009"><a xlink:title=" ">
<polygon fill="#e0e0e0" stroke="#999999" points="185.5,-19 74.5,-19 74.5,0 185.5,0 185.5,-19"/>
<text text-anchor="middle" x="130" y="-7" font-family="Malgun Gothic" font-size="10.00">UObject/Interface.h</text>
</a>
</g>
</g>
<!-- Node8&#45;&gt;Node9 -->
<g id="edge10_Node000008_Node000009" class="edge">
<title>Node8&#45;&gt;Node9</title>
<g id="a_edge10_Node000008_Node000009"><a xlink:title=" ">
<path fill="none" stroke="#63b8ff" d="M190.43,-54.98C179.58,-47 163.12,-34.88 150.12,-25.31"/>
<polygon fill="#63b8ff" stroke="#63b8ff" points="151.91,-22.28 141.78,-19.17 147.76,-27.92 151.91,-22.28"/>
</a>
</g>
</g>
<!-- Node10 -->
<g id="Node000010" class="node">
<title>Node10</title>
<g id="a_Node000010"><a xlink:title=" ">
<polygon fill="#e0e0e0" stroke="#999999" points="344,-19 204,-19 204,0 344,0 344,-19"/>
<text text-anchor="middle" x="274" y="-7" font-family="Malgun Gothic" font-size="10.00">IControllable.generated.h</text>
</a>
</g>
</g>
<!-- Node8&#45;&gt;Node10 -->
<g id="edge11_Node000008_Node000010" class="edge">
<title>Node8&#45;&gt;Node10</title>
<g id="a_edge11_Node000008_Node000010"><a xlink:title=" ">
<path fill="none" stroke="#63b8ff" d="M213.57,-54.98C224.42,-47 240.88,-34.88 253.88,-25.31"/>
<polygon fill="#63b8ff" stroke="#63b8ff" points="256.24,-27.92 262.22,-19.17 252.09,-22.28 256.24,-27.92"/>
</a>
</g>
</g>
<!-- Node13&#45;&gt;Node3 -->
<g id="edge15_Node000013_Node000003" class="edge">
<title>Node13&#45;&gt;Node3</title>
<g id="a_edge15_Node000013_Node000003"><a xlink:title=" ">
<path fill="none" stroke="#63b8ff" d="M599.76,-115.39C575.93,-106.24 538.06,-90.79 507,-74 479.38,-59.07 449.5,-38.54 430.54,-24.92"/>
<polygon fill="#63b8ff" stroke="#63b8ff" points="432.56,-22.06 422.41,-19.01 428.44,-27.72 432.56,-22.06"/>
</a>
</g>
</g>
<!-- Node14 -->
<g id="Node000014" class="node">
<title>Node14</title>
<g id="a_Node000014"><a xlink:title=" ">
<polygon fill="#e0e0e0" stroke="#999999" points="615.5,-74 516.5,-74 516.5,-55 615.5,-55 615.5,-74"/>
<text text-anchor="middle" x="566" y="-62" font-family="Malgun Gothic" font-size="10.00">UObject/Object.h</text>
</a>
</g>
</g>
<!-- Node13&#45;&gt;Node14 -->
<g id="edge16_Node000013_Node000014" class="edge">
<title>Node13&#45;&gt;Node14</title>
<g id="a_edge16_Node000013_Node000014"><a xlink:title=" ">
<path fill="none" stroke="#63b8ff" d="M614.59,-115.37C605.92,-106.47 592.2,-92.39 581.54,-81.45"/>
<polygon fill="#63b8ff" stroke="#63b8ff" points="583.93,-78.89 574.45,-74.17 578.92,-83.77 583.93,-78.89"/>
</a>
</g>
</g>
<!-- Node15 -->
<g id="Node000015" class="node">
<title>Node15</title>
<g id="a_Node000015"><a xlink:title=" ">
<polygon fill="#e0e0e0" stroke="#999999" points="816,-74 634,-74 634,-55 816,-55 816,-74"/>
<text text-anchor="middle" x="725" y="-62" font-family="Malgun Gothic" font-size="10.00">UEaseFunctionLibrary.generated.h</text>
</a>
</g>
</g>
<!-- Node13&#45;&gt;Node15 -->
<g id="edge17_Node000013_Node000015" class="edge">
<title>Node13&#45;&gt;Node15</title>
<g id="a_edge17_Node000013_Node000015"><a xlink:title=" ">
<path fill="none" stroke="#63b8ff" d="M638.05,-115.37C654.62,-105.86 681.5,-90.45 700.99,-79.27"/>
<polygon fill="#63b8ff" stroke="#63b8ff" points="702.95,-82.18 709.89,-74.17 699.47,-76.11 702.95,-82.18"/>
</a>
</g>
</g>
</g>
</svg>

<g id="navigator" transform="translate(0 0)" fill="#404254">
  <rect fill="#f2f5e9" fill-opacity="0.5" stroke="#606060" stroke-width=".5" x="0" y="0" width="60" height="60"/>
  <use id="zoomplus" xlink:href="#zoomPlus" x="17" y="9" onmousedown="handleZoom(evt,'in')"/>
  <use id="zoomminus" xlink:href="#zoomMin" x="42" y="9" onmousedown="handleZoom(evt,'out')"/>
  <use id="reset" xlink:href="#resetDef" x="30" y="36" onmousedown="handleReset()"/>
   <use id="arrowup" xlink:href="#arrowUp" x="0" y="0" onmousedown="handlePan(0,-1)"/>
  <use id="arrowright" xlink:href="#arrowRight" x="0" y="0" onmousedown="handlePan(1,0)"/>
  <use id="arrowdown" xlink:href="#arrowDown" x="0" y="0" onmousedown="handlePan(0,1)"/>
  <use id="arrowleft" xlink:href="#arrowLeft" x="0" y="0" onmousedown="handlePan(-1,0)"/>
</g>
<svg viewBox="0 0 15 15" width="100%" height="30px" preserveAspectRatio="xMaxYMin meet">
 <g id="arrow_out" transform="scale(0.3 0.3)">
  <a xlink:href="UFlySystem_8cpp__incl_org.svg" target="_base">
   <rect id="button" ry="5" rx="5" y="6" x="6" height="38" width="38"
        fill="#f2f5e9" fill-opacity="0.5" stroke="#606060" stroke-width="1.0"/>
   <path id="arrow"
     d="M 11.500037,31.436501 C 11.940474,20.09759 22.043105,11.32322 32.158766,21.979434 L 37.068811,17.246167 C 37.068811,17.246167 37.088388,32 37.088388,32 L 22.160133,31.978069 C 22.160133,31.978069 26.997745,27.140456 26.997745,27.140456 C 18.528582,18.264221 13.291696,25.230495 11.500037,31.436501 z"
     style="fill:#404040;"/>
  </a>
 </g>
</svg>

<style type='text/css'>
<![CDATA[
[data-mouse-over-selected='false'] { opacity: 0.7; }
[data-mouse-over-selected='true']  { opacity: 1.0; }
]]>
</style>
<script type="application/ecmascript"><![CDATA[
document.addEventListener('DOMContentLoaded', (event) => {
  highlightEdges();
  highlightAdjacentNodes();
});
]]></script>
</svg>
