<?xml version="1.0" encoding="UTF-8" standalone="no"?>
<!DOCTYPE svg PUBLIC "-//W3C//DTD SVG 1.1//EN"
 "http://www.w3.org/Graphics/SVG/1.1/DTD/svg11.dtd">
<!-- Generated by graphviz version 2.43.0 (0)
 -->
<!-- Title: Source/LatteLibrary/Manager/Public/UGameDataManager.h Pages: 1 -->
<!--zoomable 115 -->

<svg id="main" version="1.1" xmlns="http://www.w3.org/2000/svg" xmlns:xlink="http://www.w3.org/1999/xlink" xml:space="preserve" onload="init(evt)">
<style type="text/css"><![CDATA[
.node, .edge {opacity: 0.7;}
.node.selected, .edge.selected {opacity: 1;}
.edge:hover path { stroke: red; }
.edge:hover polygon { stroke: red; fill: red; }
]]></style>

<defs>
  <circle id="rim" cx="0" cy="0" r="7"/>
  <circle id="rim2" cx="0" cy="0" r="3.5"/>
  <g id="zoomPlus">
    <use xlink:href="#rim" fill="#404040"><set attributeName="fill" to="#808080" begin="zoomplus.mouseover" end="zoomplus.mouseout"/></use>
    <path d="M-4,0h8M0,-4v8" fill="none" stroke="white" stroke-width="1.5" pointer-events="none"/>
  </g>
  <g id="zoomMin">
    <use xlink:href="#rim" fill="#404040"><set attributeName="fill" to="#808080" begin="zoomminus.mouseover" end="zoomminus.mouseout"/></use>
    <path d="M-4,0h8" fill="none" stroke="white" stroke-width="1.5" pointer-events="none"/>
  </g>
  <g id="arrowUp" transform="translate(30 24)">
    <use xlink:href="#rim"/>
    <path pointer-events="none" fill="none" stroke="white" stroke-width="1.5" d="M0,-3.0v7 M-2.5,-0.5L0,-3.0L2.5,-0.5"/>
  </g>
  <g id="arrowRight" transform="rotate(90) translate(36 -43)">
    <use xlink:href="#rim"/>
    <path pointer-events="none" fill="none" stroke="white" stroke-width="1.5" d="M0,-3.0v7 M-2.5,-0.5L0,-3.0L2.5,-0.5"/>
  </g>
  <g id="arrowDown" transform="rotate(180) translate(-30 -48)">
    <use xlink:href="#rim"/>
    <path pointer-events="none" fill="none" stroke="white" stroke-width="1.5" d="M0,-3.0v7 M-2.5,-0.5L0,-3.0L2.5,-0.5"/>
  </g>
  <g id="arrowLeft" transform="rotate(270) translate(-36 17)">
    <use xlink:href="#rim"/>
    <path pointer-events="none" fill="none" stroke="white" stroke-width="1.5" d="M0,-3.0v7 M-2.5,-0.5L0,-3.0L2.5,-0.5"/>
  </g>
  <g id="resetDef">
    <use xlink:href="#rim2" fill="#404040"><set attributeName="fill" to="#808080" begin="reset.mouseover" end="reset.mouseout"/></use>
  </g>
</defs>
<script type="application/ecmascript">
var viewWidth = 3318;
var viewHeight = 115;
var sectionId = 'dynsection-1';
</script>
<script type="application/ecmascript" xlink:href="svg.min.js"/>
<svg id="graph" class="graph">
<g id="viewport">
<title>Source/LatteLibrary/Manager/Public/UGameDataManager.h</title>
<!-- Node1 -->
<g id="Node000001" class="node">
<title>Node1</title>
<g id="a_Node000001"><a xlink:title="UGameDataManager 클래스를 선언합니다.">
<polygon fill="#999999" stroke="#666666" points="1745,-107 1536,-107 1536,-77 1745,-77 1745,-107"/>
<text text-anchor="start" x="1544" y="-95" font-family="Malgun Gothic" font-size="10.00">Source/LatteLibrary</text>
<text text-anchor="middle" x="1640.5" y="-84" font-family="Malgun Gothic" font-size="10.00">/Manager/Public/UGameDataManager.h</text>
</a>
</g>
</g>
<!-- Node2 -->
<g id="Node000002" class="node">
<title>Node2</title>
<g id="a_Node000002"><a xlink:href="UGameDataManager_8cpp.html" target="_top" xlink:title="UGameDataManager의 동작을 구현합니다.">
<polygon fill="white" stroke="#666666" points="163,-41 0,-41 0,0 163,0 163,-41"/>
<text text-anchor="start" x="8" y="-29" font-family="Malgun Gothic" font-size="10.00">Source/LatteLibrary</text>
<text text-anchor="start" x="8" y="-18" font-family="Malgun Gothic" font-size="10.00">/Manager/Private/UGameData</text>
<text text-anchor="middle" x="81.5" y="-7" font-family="Malgun Gothic" font-size="10.00">Manager.cpp</text>
</a>
</g>
</g>
<!-- Node1&#45;&gt;Node2 -->
<g id="edge1_Node000001_Node000002" class="edge">
<title>Node1&#45;&gt;Node2</title>
<g id="a_edge1_Node000001_Node000002"><a xlink:title=" ">
<path fill="none" stroke="#63b8ff" d="M1525.53,-89.71C1227.23,-85.96 433.57,-73.16 172.5,-41 169.45,-40.62 166.36,-40.2 163.24,-39.73"/>
<polygon fill="#63b8ff" stroke="#63b8ff" points="1525.89,-93.22 1535.93,-89.84 1525.98,-86.22 1525.89,-93.22"/>
</a>
</g>
</g>
<!-- Node3 -->
<g id="Node000003" class="node">
<title>Node3</title>
<g id="a_Node000003"><a xlink:href="UHitStopSystem_8cpp.html" target="_top" xlink:title="UHitStopSystem의 동작을 구현합니다.">
<polygon fill="white" stroke="#666666" points="339.5,-35.5 181.5,-35.5 181.5,-5.5 339.5,-5.5 339.5,-35.5"/>
<text text-anchor="start" x="189.5" y="-23.5" font-family="Malgun Gothic" font-size="10.00">Source/Onepiece/Character</text>
<text text-anchor="middle" x="260.5" y="-12.5" font-family="Malgun Gothic" font-size="10.00">/Private/UHitStopSystem.cpp</text>
</a>
</g>
</g>
<!-- Node1&#45;&gt;Node3 -->
<g id="edge2_Node000001_Node000003" class="edge">
<title>Node1&#45;&gt;Node3</title>
<g id="a_edge2_Node000001_Node000003"><a xlink:title=" ">
<path fill="none" stroke="#63b8ff" d="M1525.42,-89.19C1252.92,-84.48 574.21,-70.14 348.5,-41 338.26,-39.68 327.45,-37.74 317.04,-35.6"/>
<polygon fill="#63b8ff" stroke="#63b8ff" points="1525.67,-92.7 1535.73,-89.37 1525.79,-85.7 1525.67,-92.7"/>
</a>
</g>
</g>
<!-- Node4 -->
<g id="Node000004" class="node">
<title>Node4</title>
<g id="a_Node000004"><a xlink:href="UKnockbackSystem_8cpp.html" target="_top" xlink:title="FMath의 동작을 구현합니다.">
<polygon fill="white" stroke="#666666" points="533,-35.5 358,-35.5 358,-5.5 533,-5.5 533,-35.5"/>
<text text-anchor="start" x="366" y="-23.5" font-family="Malgun Gothic" font-size="10.00">Source/Onepiece/Character</text>
<text text-anchor="middle" x="445.5" y="-12.5" font-family="Malgun Gothic" font-size="10.00">/Private/UKnockbackSystem.cpp</text>
</a>
</g>
</g>
<!-- Node1&#45;&gt;Node4 -->
<g id="edge3_Node000001_Node000004" class="edge">
<title>Node1&#45;&gt;Node4</title>
<g id="a_edge3_Node000001_Node000004"><a xlink:title=" ">
<path fill="none" stroke="#63b8ff" d="M1525.73,-91.53C1325.41,-91.17 899.25,-84.72 542.5,-41 531.25,-39.62 519.35,-37.66 507.89,-35.5"/>
<polygon fill="#63b8ff" stroke="#63b8ff" points="1525.97,-95.03 1535.98,-91.54 1525.98,-88.03 1525.97,-95.03"/>
</a>
</g>
</g>
<!-- Node5 -->
<g id="Node000005" class="node">
<title>Node5</title>
<g id="a_Node000005"><a xlink:href="ListenAnswer_8cpp.html" target="_top" xlink:title=" ">
<polygon fill="white" stroke="#666666" points="711.5,-35.5 551.5,-35.5 551.5,-5.5 711.5,-5.5 711.5,-35.5"/>
<text text-anchor="start" x="559.5" y="-23.5" font-family="Malgun Gothic" font-size="10.00">Source/Onepiece/Interactable</text>
<text text-anchor="middle" x="631.5" y="-12.5" font-family="Malgun Gothic" font-size="10.00">/Private/ListenAnswer.cpp</text>
</a>
</g>
</g>
<!-- Node1&#45;&gt;Node5 -->
<g id="edge4_Node000001_Node000005" class="edge">
<title>Node1&#45;&gt;Node5</title>
<g id="a_edge4_Node000001_Node000005"><a xlink:title=" ">
<path fill="none" stroke="#63b8ff" d="M1525.58,-90.69C1350.88,-88.89 1008.39,-80.1 720.5,-41 710.31,-39.62 699.56,-37.68 689.19,-35.56"/>
<polygon fill="#63b8ff" stroke="#63b8ff" points="1525.78,-94.19 1535.81,-90.79 1525.85,-87.19 1525.78,-94.19"/>
</a>
</g>
</g>
<!-- Node6 -->
<g id="Node000006" class="node">
<title>Node6</title>
<g id="a_Node000006"><a xlink:href="LuggageManager_8cpp.html" target="_top" xlink:title=" ">
<polygon fill="white" stroke="#666666" points="891,-35.5 730,-35.5 730,-5.5 891,-5.5 891,-35.5"/>
<text text-anchor="start" x="738" y="-23.5" font-family="Malgun Gothic" font-size="10.00">Source/Onepiece/Interactable</text>
<text text-anchor="middle" x="810.5" y="-12.5" font-family="Malgun Gothic" font-size="10.00">/Private/LuggageManager.cpp</text>
</a>
</g>
</g>
<!-- Node1&#45;&gt;Node6 -->
<g id="edge5_Node000001_Node000006" class="edge">
<title>Node1&#45;&gt;Node6</title>
<g id="a_edge5_Node000001_Node000006"><a xlink:title=" ">
<path fill="none" stroke="#63b8ff" d="M1525.52,-88.42C1379.55,-83.96 1120.26,-72.06 900.5,-41 890.37,-39.57 879.68,-37.63 869.34,-35.54"/>
<polygon fill="#63b8ff" stroke="#63b8ff" points="1525.74,-91.93 1535.84,-88.73 1525.94,-84.93 1525.74,-91.93"/>
</a>
</g>
</g>
<!-- Node7 -->
<g id="Node000007" class="node">
<title>Node7</title>
<g id="a_Node000007"><a xlink:href="luggage_8cpp.html" target="_top" xlink:title=" ">
<polygon fill="white" stroke="#666666" points="1069.5,-35.5 909.5,-35.5 909.5,-5.5 1069.5,-5.5 1069.5,-35.5"/>
<text text-anchor="start" x="917.5" y="-23.5" font-family="Malgun Gothic" font-size="10.00">Source/Onepiece/Interactable</text>
<text text-anchor="middle" x="989.5" y="-12.5" font-family="Malgun Gothic" font-size="10.00">/Private/luggage.cpp</text>
</a>
</g>
</g>
<!-- Node1&#45;&gt;Node7 -->
<g id="edge6_Node000001_Node000007" class="edge">
<title>Node1&#45;&gt;Node7</title>
<g id="a_edge6_Node000001_Node000007"><a xlink:title=" ">
<path fill="none" stroke="#63b8ff" d="M1525.79,-85.07C1411.85,-78.18 1232.4,-64.61 1078.5,-41 1068.81,-39.51 1058.59,-37.6 1048.67,-35.56"/>
<polygon fill="#63b8ff" stroke="#63b8ff" points="1525.73,-88.57 1535.93,-85.68 1526.15,-81.59 1525.73,-88.57"/>
</a>
</g>
</g>
<!-- Node8 -->
<g id="Node000008" class="node">
<title>Node8</title>
<g id="a_Node000008"><a xlink:href="Popup__Result_8cpp.html" target="_top" xlink:title=" ">
<polygon fill="white" stroke="#666666" points="1251.5,-35.5 1087.5,-35.5 1087.5,-5.5 1251.5,-5.5 1251.5,-35.5"/>
<text text-anchor="start" x="1095.5" y="-23.5" font-family="Malgun Gothic" font-size="10.00">Source/Onepiece/MessageBox</text>
<text text-anchor="middle" x="1169.5" y="-12.5" font-family="Malgun Gothic" font-size="10.00">/Private/Popup_Result.cpp</text>
</a>
</g>
</g>
<!-- Node1&#45;&gt;Node8 -->
<g id="edge7_Node000001_Node000008" class="edge">
<title>Node1&#45;&gt;Node8</title>
<g id="a_edge7_Node000001_Node000008"><a xlink:title=" ">
<path fill="none" stroke="#63b8ff" d="M1525.7,-78.33C1450.12,-69.39 1349.14,-56.3 1260.5,-41 1251.27,-39.41 1241.54,-37.53 1232.03,-35.59"/>
<polygon fill="#63b8ff" stroke="#63b8ff" points="1525.38,-81.81 1535.72,-79.51 1526.2,-74.86 1525.38,-81.81"/>
</a>
</g>
</g>
<!-- Node9 -->
<g id="Node000009" class="node">
<title>Node9</title>
<g id="a_Node000009"><a xlink:href="UEvaluationScenario_8cpp.html" target="_top" xlink:title=" ">
<polygon fill="white" stroke="#666666" points="1449,-35.5 1270,-35.5 1270,-5.5 1449,-5.5 1449,-35.5"/>
<text text-anchor="start" x="1278" y="-23.5" font-family="Malgun Gothic" font-size="10.00">Source/Onepiece/MessageBox</text>
<text text-anchor="middle" x="1359.5" y="-12.5" font-family="Malgun Gothic" font-size="10.00">/Private/UEvaluationScenario.cpp</text>
</a>
</g>
</g>
<!-- Node1&#45;&gt;Node9 -->
<g id="edge8_Node000001_Node000009" class="edge">
<title>Node1&#45;&gt;Node9</title>
<g id="a_edge8_Node000001_Node000009"><a xlink:title=" ">
<path fill="none" stroke="#63b8ff" d="M1573.66,-74.47C1525.7,-62.61 1461.77,-46.8 1416.28,-35.54"/>
<polygon fill="#63b8ff" stroke="#63b8ff" points="1573.09,-77.93 1583.64,-76.94 1574.77,-71.14 1573.09,-77.93"/>
</a>
</g>
</g>
<!-- Node10 -->
<g id="Node000010" class="node">
<title>Node10</title>
<g id="a_Node000010"><a xlink:href="UEvaluationTotal_8cpp.html" target="_top" xlink:title=" ">
<polygon fill="white" stroke="#666666" points="1631.5,-35.5 1467.5,-35.5 1467.5,-5.5 1631.5,-5.5 1631.5,-35.5"/>
<text text-anchor="start" x="1475.5" y="-23.5" font-family="Malgun Gothic" font-size="10.00">Source/Onepiece/MessageBox</text>
<text text-anchor="middle" x="1549.5" y="-12.5" font-family="Malgun Gothic" font-size="10.00">/Private/UEvaluationTotal.cpp</text>
</a>
</g>
</g>
<!-- Node1&#45;&gt;Node10 -->
<g id="edge9_Node000001_Node000010" class="edge">
<title>Node1&#45;&gt;Node10</title>
<g id="a_edge9_Node000001_Node000010"><a xlink:title=" ">
<path fill="none" stroke="#63b8ff" d="M1613.82,-70.63C1599.06,-59.35 1581.08,-45.62 1567.89,-35.54"/>
<polygon fill="#63b8ff" stroke="#63b8ff" points="1612.01,-73.65 1622.08,-76.94 1616.26,-68.08 1612.01,-73.65"/>
</a>
</g>
</g>
<!-- Node11 -->
<g id="Node000011" class="node">
<title>Node11</title>
<g id="a_Node000011"><a xlink:href="ULevelWordGroup_8cpp.html" target="_top" xlink:title=" ">
<polygon fill="white" stroke="#666666" points="1815,-35.5 1650,-35.5 1650,-5.5 1815,-5.5 1815,-35.5"/>
<text text-anchor="start" x="1658" y="-23.5" font-family="Malgun Gothic" font-size="10.00">Source/Onepiece/MessageBox</text>
<text text-anchor="middle" x="1732.5" y="-12.5" font-family="Malgun Gothic" font-size="10.00">/Private/ULevelWordGroup.cpp</text>
</a>
</g>
</g>
<!-- Node1&#45;&gt;Node11 -->
<g id="edge10_Node000001_Node000011" class="edge">
<title>Node1&#45;&gt;Node11</title>
<g id="a_edge10_Node000001_Node000011"><a xlink:title=" ">
<path fill="none" stroke="#63b8ff" d="M1667.47,-70.63C1682.4,-59.35 1700.57,-45.62 1713.91,-35.54"/>
<polygon fill="#63b8ff" stroke="#63b8ff" points="1664.99,-68.12 1659.12,-76.94 1669.21,-73.7 1664.99,-68.12"/>
</a>
</g>
</g>
<!-- Node12 -->
<g id="Node000012" class="node">
<title>Node12</title>
<g id="a_Node000012"><a xlink:href="ULevelWordItem_8cpp.html" target="_top" xlink:title=" ">
<polygon fill="white" stroke="#666666" points="1997.5,-35.5 1833.5,-35.5 1833.5,-5.5 1997.5,-5.5 1997.5,-35.5"/>
<text text-anchor="start" x="1841.5" y="-23.5" font-family="Malgun Gothic" font-size="10.00">Source/Onepiece/MessageBox</text>
<text text-anchor="middle" x="1915.5" y="-12.5" font-family="Malgun Gothic" font-size="10.00">/Private/ULevelWordItem.cpp</text>
</a>
</g>
</g>
<!-- Node1&#45;&gt;Node12 -->
<g id="edge11_Node000001_Node000012" class="edge">
<title>Node1&#45;&gt;Node12</title>
<g id="a_edge11_Node000001_Node000012"><a xlink:title=" ">
<path fill="none" stroke="#63b8ff" d="M1705.92,-74.47C1752.85,-62.61 1815.41,-46.8 1859.93,-35.54"/>
<polygon fill="#63b8ff" stroke="#63b8ff" points="1704.99,-71.09 1696.15,-76.94 1706.7,-77.88 1704.99,-71.09"/>
</a>
</g>
</g>
<!-- Node13 -->
<g id="Node000013" class="node">
<title>Node13</title>
<g id="a_Node000013"><a xlink:href="UPopup__SpeakQuestJudes_8cpp.html" target="_top" xlink:title=" ">
<polygon fill="white" stroke="#666666" points="2221,-35.5 2016,-35.5 2016,-5.5 2221,-5.5 2221,-35.5"/>
<text text-anchor="start" x="2024" y="-23.5" font-family="Malgun Gothic" font-size="10.00">Source/Onepiece/MessageBox</text>
<text text-anchor="middle" x="2118.5" y="-12.5" font-family="Malgun Gothic" font-size="10.00">/Private/UPopup_SpeakQuestJudes.cpp</text>
</a>
</g>
</g>
<!-- Node1&#45;&gt;Node13 -->
<g id="edge12_Node000001_Node000013" class="edge">
<title>Node1&#45;&gt;Node13</title>
<g id="a_edge12_Node000001_Node000013"><a xlink:title=" ">
<path fill="none" stroke="#63b8ff" d="M1755.2,-76.43C1827.41,-66.98 1922.52,-54.04 2006.5,-41 2017.42,-39.3 2028.92,-37.42 2040.23,-35.5"/>
<polygon fill="#63b8ff" stroke="#63b8ff" points="1754.63,-72.97 1745.17,-77.74 1755.53,-79.91 1754.63,-72.97"/>
</a>
</g>
</g>
<!-- Node14 -->
<g id="Node000014" class="node">
<title>Node14</title>
<g id="a_Node000014"><a xlink:href="UPopup__SpeakResultItem_8cpp.html" target="_top" xlink:title=" ">
<polygon fill="white" stroke="#666666" points="2442,-35.5 2239,-35.5 2239,-5.5 2442,-5.5 2442,-35.5"/>
<text text-anchor="start" x="2247" y="-23.5" font-family="Malgun Gothic" font-size="10.00">Source/Onepiece/MessageBox</text>
<text text-anchor="middle" x="2340.5" y="-12.5" font-family="Malgun Gothic" font-size="10.00">/Private/UPopup_SpeakResultItem.cpp</text>
</a>
</g>
</g>
<!-- Node1&#45;&gt;Node14 -->
<g id="edge13_Node000001_Node000014" class="edge">
<title>Node1&#45;&gt;Node14</title>
<g id="a_edge13_Node000001_Node000014"><a xlink:title=" ">
<path fill="none" stroke="#63b8ff" d="M1755.48,-84.36C1874.63,-76.75 2066.09,-62.49 2230.5,-41 2242.23,-39.47 2254.62,-37.56 2266.68,-35.54"/>
<polygon fill="#63b8ff" stroke="#63b8ff" points="1755.01,-80.88 1745.25,-85.01 1755.45,-87.87 1755.01,-80.88"/>
</a>
</g>
</g>
<!-- Node15 -->
<g id="Node000015" class="node">
<title>Node15</title>
<g id="a_Node000015"><a xlink:href="ChatBoxWidget_8cpp.html" target="_top" xlink:title=" ">
<polygon fill="white" stroke="#666666" points="2613,-35.5 2460,-35.5 2460,-5.5 2613,-5.5 2613,-35.5"/>
<text text-anchor="start" x="2468" y="-23.5" font-family="Malgun Gothic" font-size="10.00">Source/Onepiece/UI</text>
<text text-anchor="middle" x="2536.5" y="-12.5" font-family="Malgun Gothic" font-size="10.00">/Private/ChatBoxWidget.cpp</text>
</a>
</g>
</g>
<!-- Node1&#45;&gt;Node15 -->
<g id="edge14_Node000001_Node000015" class="edge">
<title>Node1&#45;&gt;Node15</title>
<g id="a_edge14_Node000001_Node000015"><a xlink:title=" ">
<path fill="none" stroke="#63b8ff" d="M1755.27,-89.83C1912.95,-86.89 2205.08,-76.62 2451.5,-41 2461.24,-39.59 2471.51,-37.64 2481.42,-35.52"/>
<polygon fill="#63b8ff" stroke="#63b8ff" points="1755.01,-86.34 1745.08,-90.02 1755.14,-93.34 1755.01,-86.34"/>
</a>
</g>
</g>
<!-- Node16 -->
<g id="Node000016" class="node">
<title>Node16</title>
<g id="a_Node000016"><a xlink:href="UAnswerItem_8cpp.html" target="_top" xlink:title=" ">
<polygon fill="white" stroke="#666666" points="2774,-35.5 2631,-35.5 2631,-5.5 2774,-5.5 2774,-35.5"/>
<text text-anchor="start" x="2639" y="-23.5" font-family="Malgun Gothic" font-size="10.00">Source/Onepiece/UI</text>
<text text-anchor="middle" x="2702.5" y="-12.5" font-family="Malgun Gothic" font-size="10.00">/Private/UAnswerItem.cpp</text>
</a>
</g>
</g>
<!-- Node1&#45;&gt;Node16 -->
<g id="edge15_Node000001_Node000016" class="edge">
<title>Node1&#45;&gt;Node16</title>
<g id="a_edge15_Node000001_Node000016"><a xlink:title=" ">
<path fill="none" stroke="#63b8ff" d="M1755.24,-87.87C1977.28,-81.37 2458.32,-64.97 2622.5,-41 2631.84,-39.64 2641.68,-37.68 2651.14,-35.53"/>
<polygon fill="#63b8ff" stroke="#63b8ff" points="1755.08,-84.37 1745.18,-88.16 1755.28,-91.37 1755.08,-84.37"/>
</a>
</g>
</g>
<!-- Node17 -->
<g id="Node000017" class="node">
<title>Node17</title>
<g id="a_Node000017"><a xlink:href="ULuggageInfoWidget_8cpp.html" target="_top" xlink:title=" ">
<polygon fill="white" stroke="#666666" points="2971,-35.5 2792,-35.5 2792,-5.5 2971,-5.5 2971,-35.5"/>
<text text-anchor="start" x="2800" y="-23.5" font-family="Malgun Gothic" font-size="10.00">Source/Onepiece/UI</text>
<text text-anchor="middle" x="2881.5" y="-12.5" font-family="Malgun Gothic" font-size="10.00">/Private/ULuggageInfoWidget.cpp</text>
</a>
</g>
</g>
<!-- Node1&#45;&gt;Node17 -->
<g id="edge16_Node000001_Node000017" class="edge">
<title>Node1&#45;&gt;Node17</title>
<g id="a_edge16_Node000001_Node000017"><a xlink:title=" ">
<path fill="none" stroke="#63b8ff" d="M1755.6,-91.76C1962.24,-91.83 2409.47,-86.13 2783.5,-41 2794.87,-39.63 2806.89,-37.67 2818.47,-35.51"/>
<polygon fill="#63b8ff" stroke="#63b8ff" points="1755.34,-88.26 1745.34,-91.75 1755.34,-95.26 1755.34,-88.26"/>
</a>
</g>
</g>
<!-- Node18 -->
<g id="Node000018" class="node">
<title>Node18</title>
<g id="a_Node000018"><a xlink:href="UResultStatWidget_8cpp.html" target="_top" xlink:title=" ">
<polygon fill="white" stroke="#666666" points="3159.5,-35.5 2989.5,-35.5 2989.5,-5.5 3159.5,-5.5 3159.5,-35.5"/>
<text text-anchor="start" x="2997.5" y="-23.5" font-family="Malgun Gothic" font-size="10.00">Source/Onepiece/UI</text>
<text text-anchor="middle" x="3074.5" y="-12.5" font-family="Malgun Gothic" font-size="10.00">/Private/UResultStatWidget.cpp</text>
</a>
</g>
</g>
<!-- Node1&#45;&gt;Node18 -->
<g id="edge17_Node000001_Node000018" class="edge">
<title>Node1&#45;&gt;Node18</title>
<g id="a_edge17_Node000001_Node000018"><a xlink:title=" ">
<path fill="none" stroke="#63b8ff" d="M1755.32,-89.18C2034.83,-84.37 2744.94,-69.62 2980.5,-41 2991.5,-39.66 3003.13,-37.7 3014.32,-35.54"/>
<polygon fill="#63b8ff" stroke="#63b8ff" points="1755.09,-85.69 1745.15,-89.36 1755.21,-92.69 1755.09,-85.69"/>
</a>
</g>
</g>
<!-- Node19 -->
<g id="Node000019" class="node">
<title>Node19</title>
<g id="a_Node000019"><a xlink:href="UWordItem_8cpp.html" target="_top" xlink:title=" ">
<polygon fill="white" stroke="#666666" points="3309.5,-35.5 3177.5,-35.5 3177.5,-5.5 3309.5,-5.5 3309.5,-35.5"/>
<text text-anchor="start" x="3185.5" y="-23.5" font-family="Malgun Gothic" font-size="10.00">Source/Onepiece/UI</text>
<text text-anchor="middle" x="3243.5" y="-12.5" font-family="Malgun Gothic" font-size="10.00">/Private/UWordItem.cpp</text>
</a>
</g>
</g>
<!-- Node1&#45;&gt;Node19 -->
<g id="edge18_Node000001_Node000019" class="edge">
<title>Node1&#45;&gt;Node19</title>
<g id="a_edge18_Node000001_Node000019"><a xlink:title=" ">
<path fill="none" stroke="#63b8ff" d="M1755.37,-90.53C2062.21,-88.77 2896.1,-80.37 3168.5,-41 3177.42,-39.71 3186.81,-37.76 3195.81,-35.58"/>
<polygon fill="#63b8ff" stroke="#63b8ff" points="1755.1,-87.04 1745.12,-90.59 1755.14,-94.04 1755.1,-87.04"/>
</a>
</g>
</g>
</g>
</svg>

<g id="navigator" transform="translate(0 0)" fill="#404254">
  <rect fill="#f2f5e9" fill-opacity="0.5" stroke="#606060" stroke-width=".5" x="0" y="0" width="60" height="60"/>
  <use id="zoomplus" xlink:href="#zoomPlus" x="17" y="9" onmousedown="handleZoom(evt,'in')"/>
  <use id="zoomminus" xlink:href="#zoomMin" x="42" y="9" onmousedown="handleZoom(evt,'out')"/>
  <use id="reset" xlink:href="#resetDef" x="30" y="36" onmousedown="handleReset()"/>
   <use id="arrowup" xlink:href="#arrowUp" x="0" y="0" onmousedown="handlePan(0,-1)"/>
  <use id="arrowright" xlink:href="#arrowRight" x="0" y="0" onmousedown="handlePan(1,0)"/>
  <use id="arrowdown" xlink:href="#arrowDown" x="0" y="0" onmousedown="handlePan(0,1)"/>
  <use id="arrowleft" xlink:href="#arrowLeft" x="0" y="0" onmousedown="handlePan(-1,0)"/>
</g>
<svg viewBox="0 0 15 15" width="100%" height="30px" preserveAspectRatio="xMaxYMin meet">
 <g id="arrow_out" transform="scale(0.3 0.3)">
  <a xlink:href="UGameDataManager_8h__dep__incl_org.svg" target="_base">
   <rect id="button" ry="5" rx="5" y="6" x="6" height="38" width="38"
        fill="#f2f5e9" fill-opacity="0.5" stroke="#606060" stroke-width="1.0"/>
   <path id="arrow"
     d="M 11.500037,31.436501 C 11.940474,20.09759 22.043105,11.32322 32.158766,21.979434 L 37.068811,17.246167 C 37.068811,17.246167 37.088388,32 37.088388,32 L 22.160133,31.978069 C 22.160133,31.978069 26.997745,27.140456 26.997745,27.140456 C 18.528582,18.264221 13.291696,25.230495 11.500037,31.436501 z"
     style="fill:#404040;"/>
  </a>
 </g>
</svg>

<style type='text/css'>
<![CDATA[
[data-mouse-over-selected='false'] { opacity: 0.7; }
[data-mouse-over-selected='true']  { opacity: 1.0; }
]]>
</style>
<script type="application/ecmascript"><![CDATA[
document.addEventListener('DOMContentLoaded', (event) => {
  highlightEdges();
  highlightAdjacentNodes();
});
]]></script>
</svg>
