<?xml version="1.0" encoding="UTF-8" standalone="no"?>
<!DOCTYPE svg PUBLIC "-//W3C//DTD SVG 1.1//EN"
 "http://www.w3.org/Graphics/SVG/1.1/DTD/svg11.dtd">
<!-- Generated by graphviz version 2.43.0 (0)
 -->
<!-- Title: Source/LatteLibrary/Manager/Private/UGameDataManager.cpp Pages: 1 -->
<!--zoomable 214 -->

<svg id="main" version="1.1" xmlns="http://www.w3.org/2000/svg" xmlns:xlink="http://www.w3.org/1999/xlink" xml:space="preserve" onload="init(evt)">
<style type="text/css"><![CDATA[
.node, .edge {opacity: 0.7;}
.node.selected, .edge.selected {opacity: 1;}
.edge:hover path { stroke: red; }
.edge:hover polygon { stroke: red; fill: red; }
]]></style>

<defs>
  <circle id="rim" cx="0" cy="0" r="7"/>
  <circle id="rim2" cx="0" cy="0" r="3.5"/>
  <g id="zoomPlus">
    <use xlink:href="#rim" fill="#404040"><set attributeName="fill" to="#808080" begin="zoomplus.mouseover" end="zoomplus.mouseout"/></use>
    <path d="M-4,0h8M0,-4v8" fill="none" stroke="white" stroke-width="1.5" pointer-events="none"/>
  </g>
  <g id="zoomMin">
    <use xlink:href="#rim" fill="#404040"><set attributeName="fill" to="#808080" begin="zoomminus.mouseover" end="zoomminus.mouseout"/></use>
    <path d="M-4,0h8" fill="none" stroke="white" stroke-width="1.5" pointer-events="none"/>
  </g>
  <g id="arrowUp" transform="translate(30 24)">
    <use xlink:href="#rim"/>
    <path pointer-events="none" fill="none" stroke="white" stroke-width="1.5" d="M0,-3.0v7 M-2.5,-0.5L0,-3.0L2.5,-0.5"/>
  </g>
  <g id="arrowRight" transform="rotate(90) translate(36 -43)">
    <use xlink:href="#rim"/>
    <path pointer-events="none" fill="none" stroke="white" stroke-width="1.5" d="M0,-3.0v7 M-2.5,-0.5L0,-3.0L2.5,-0.5"/>
  </g>
  <g id="arrowDown" transform="rotate(180) translate(-30 -48)">
    <use xlink:href="#rim"/>
    <path pointer-events="none" fill="none" stroke="white" stroke-width="1.5" d="M0,-3.0v7 M-2.5,-0.5L0,-3.0L2.5,-0.5"/>
  </g>
  <g id="arrowLeft" transform="rotate(270) translate(-36 17)">
    <use xlink:href="#rim"/>
    <path pointer-events="none" fill="none" stroke="white" stroke-width="1.5" d="M0,-3.0v7 M-2.5,-0.5L0,-3.0L2.5,-0.5"/>
  </g>
  <g id="resetDef">
    <use xlink:href="#rim2" fill="#404040"><set attributeName="fill" to="#808080" begin="reset.mouseover" end="reset.mouseout"/></use>
  </g>
</defs>
<script type="application/ecmascript">
var viewWidth = 2131;
var viewHeight = 214;
var sectionId = 'dynsection-0';
</script>
<script type="application/ecmascript" xlink:href="svg.min.js"/>
<svg id="graph" class="graph">
<g id="viewport">
<title>Source/LatteLibrary/Manager/Private/UGameDataManager.cpp</title>
<!-- Node1 -->
<g id="Node000001" class="node">
<title>Node1</title>
<g id="a_Node000001"><a xlink:title="UGameDataManager의 동작을 구현합니다.">
<polygon fill="#999999" stroke="#666666" points="1220,-206 1057,-206 1057,-165 1220,-165 1220,-206"/>
<text text-anchor="start" x="1065" y="-194" font-family="Malgun Gothic" font-size="10.00">Source/LatteLibrary</text>
<text text-anchor="start" x="1065" y="-183" font-family="Malgun Gothic" font-size="10.00">/Manager/Private/UGameData</text>
<text text-anchor="middle" x="1138.5" y="-172" font-family="Malgun Gothic" font-size="10.00">Manager.cpp</text>
</a>
</g>
</g>
<!-- Node2 -->
<g id="Node000002" class="node">
<title>Node2</title>
<g id="a_Node000002"><a xlink:href="UGameDataManager_8h.html" target="_top" xlink:title="UGameDataManager 클래스를 선언합니다.">
<polygon fill="white" stroke="#666666" points="673.5,-129 545.5,-129 545.5,-110 673.5,-110 673.5,-129"/>
<text text-anchor="middle" x="609.5" y="-117" font-family="Malgun Gothic" font-size="10.00">UGameDataManager.h</text>
</a>
</g>
</g>
<!-- Node1&#45;&gt;Node2 -->
<g id="edge1_Node000001_Node000002" class="edge">
<title>Node1&#45;&gt;Node2</title>
<g id="a_edge1_Node000001_Node000002"><a xlink:title=" ">
<path fill="none" stroke="#63b8ff" d="M1056.71,-174.61C954.76,-162.27 781.97,-141.37 683.69,-129.48"/>
<polygon fill="#63b8ff" stroke="#63b8ff" points="683.89,-125.97 673.54,-128.25 683.05,-132.92 683.89,-125.97"/>
</a>
</g>
</g>
<!-- Node14 -->
<g id="Node000014" class="node">
<title>Node14</title>
<g id="a_Node000014"><a xlink:href="FCharacterAssetData_8h.html" target="_top" xlink:title="UCharacterData 클래스를 선언합니다.">
<polygon fill="white" stroke="#666666" points="1048,-74 919,-74 919,-55 1048,-55 1048,-74"/>
<text text-anchor="middle" x="983.5" y="-62" font-family="Malgun Gothic" font-size="10.00">FCharacterAssetData.h</text>
</a>
</g>
</g>
<!-- Node1&#45;&gt;Node14 -->
<g id="edge34_Node000001_Node000014" class="edge">
<title>Node1&#45;&gt;Node14</title>
<g id="a_edge34_Node000001_Node000014"><a xlink:title=" ">
<path fill="none" stroke="#63b8ff" d="M1112.9,-164.85C1082.02,-141.14 1030.8,-101.81 1002.96,-80.44"/>
<polygon fill="#63b8ff" stroke="#63b8ff" points="1004.86,-77.49 994.8,-74.18 1000.6,-83.04 1004.86,-77.49"/>
</a>
</g>
</g>
<!-- Node18 -->
<g id="Node000018" class="node">
<title>Node18</title>
<g id="a_Node000018"><a xlink:href="GameLogging_8h.html" target="_top" xlink:title="YiSan 전반에서 사용하는 공용 인터페이스를 선언합니다.">
<polygon fill="white" stroke="#666666" points="1289,-129 1196,-129 1196,-110 1289,-110 1289,-129"/>
<text text-anchor="middle" x="1242.5" y="-117" font-family="Malgun Gothic" font-size="10.00">GameLogging.h</text>
</a>
</g>
</g>
<!-- Node1&#45;&gt;Node18 -->
<g id="edge26_Node000001_Node000018" class="edge">
<title>Node1&#45;&gt;Node18</title>
<g id="a_edge26_Node000001_Node000018"><a xlink:title=" ">
<path fill="none" stroke="#63b8ff" d="M1170.27,-164.95C1186.24,-155.12 1205.24,-143.43 1219.74,-134.51"/>
<polygon fill="#63b8ff" stroke="#63b8ff" points="1221.86,-137.31 1228.54,-129.09 1218.19,-131.35 1221.86,-137.31"/>
</a>
</g>
</g>
<!-- Node23 -->
<g id="Node000023" class="node">
<title>Node23</title>
<g id="a_Node000023"><a xlink:href="FComponentHelper_8h.html" target="_top" xlink:title="FComponentHelper 구조체를 선언합니다.">
<polygon fill="white" stroke="#666666" points="1759,-129 1640,-129 1640,-110 1759,-110 1759,-129"/>
<text text-anchor="middle" x="1699.5" y="-117" font-family="Malgun Gothic" font-size="10.00">FComponentHelper.h</text>
</a>
</g>
</g>
<!-- Node1&#45;&gt;Node23 -->
<g id="edge35_Node000001_Node000023" class="edge">
<title>Node1&#45;&gt;Node23</title>
<g id="a_edge35_Node000001_Node000023"><a xlink:title=" ">
<path fill="none" stroke="#63b8ff" d="M1220.07,-175.19C1330.51,-162.6 1525.7,-140.33 1629.69,-128.46"/>
<polygon fill="#63b8ff" stroke="#63b8ff" points="1630.23,-131.92 1639.77,-127.31 1629.44,-124.97 1630.23,-131.92"/>
</a>
</g>
</g>
<!-- Node3 -->
<g id="Node000003" class="node">
<title>Node3</title>
<g id="a_Node000003"><a xlink:title=" ">
<polygon fill="#e0e0e0" stroke="#999999" points="1180.5,-19 1092.5,-19 1092.5,0 1180.5,0 1180.5,-19"/>
<text text-anchor="middle" x="1136.5" y="-7" font-family="Malgun Gothic" font-size="10.00">CoreMinimal.h</text>
</a>
</g>
</g>
<!-- Node2&#45;&gt;Node3 -->
<g id="edge2_Node000002_Node000003" class="edge">
<title>Node2&#45;&gt;Node3</title>
<g id="a_edge2_Node000002_Node000003"><a xlink:title=" ">
<path fill="none" stroke="#63b8ff" d="M673.83,-116.55C780.45,-112.57 988.74,-101.46 1056.5,-74 1082.29,-63.55 1106.53,-42.05 1121.42,-26.97"/>
<polygon fill="#63b8ff" stroke="#63b8ff" points="1124.31,-29.02 1128.68,-19.37 1119.24,-24.18 1124.31,-29.02"/>
</a>
</g>
</g>
<!-- Node4 -->
<g id="Node000004" class="node">
<title>Node4</title>
<g id="a_Node000004"><a xlink:href="Macro_8h.html" target="_top" xlink:title="YiSan 전반에서 사용하는 공용 인터페이스를 선언합니다.">
<polygon fill="white" stroke="#666666" points="404.5,-74 348.5,-74 348.5,-55 404.5,-55 404.5,-74"/>
<text text-anchor="middle" x="376.5" y="-62" font-family="Malgun Gothic" font-size="10.00">Macro.h</text>
</a>
</g>
</g>
<!-- Node2&#45;&gt;Node4 -->
<g id="edge3_Node000002_Node000004" class="edge">
<title>Node2&#45;&gt;Node4</title>
<g id="a_edge3_Node000002_Node000004"><a xlink:title=" ">
<path fill="none" stroke="#63b8ff" d="M571.92,-110C534.54,-101.53 475.28,-88.1 414.87,-74.31"/>
<polygon fill="#63b8ff" stroke="#63b8ff" points="415.31,-70.82 404.78,-72 413.75,-77.64 415.31,-70.82"/>
</a>
</g>
</g>
<!-- Node5 -->
<g id="Node000005" class="node">
<title>Node5</title>
<g id="a_Node000005"><a xlink:href="FHitStopData_8h.html" target="_top" xlink:title="FHitStopData 구조체를 선언합니다.">
<polygon fill="white" stroke="#666666" points="330,-74 239,-74 239,-55 330,-55 330,-74"/>
<text text-anchor="middle" x="284.5" y="-62" font-family="Malgun Gothic" font-size="10.00">FHitStopData.h</text>
</a>
</g>
</g>
<!-- Node2&#45;&gt;Node5 -->
<g id="edge4_Node000002_Node000005" class="edge">
<title>Node2&#45;&gt;Node5</title>
<g id="a_edge4_Node000002_Node000005"><a xlink:title=" ">
<path fill="none" stroke="#63b8ff" d="M557.28,-109.98C497.83,-100.29 401.09,-84.51 340.22,-74.59"/>
<polygon fill="#63b8ff" stroke="#63b8ff" points="340.46,-71.08 330.03,-72.92 339.33,-77.99 340.46,-71.08"/>
</a>
</g>
</g>
<!-- Node9 -->
<g id="Node000009" class="node">
<title>Node9</title>
<g id="a_Node000009"><a xlink:href="FKnockbackData_8h.html" target="_top" xlink:title="FKnockbackData 구조체를 선언합니다.">
<polygon fill="white" stroke="#666666" points="530.5,-74 422.5,-74 422.5,-55 530.5,-55 530.5,-74"/>
<text text-anchor="middle" x="476.5" y="-62" font-family="Malgun Gothic" font-size="10.00">FKnockbackData.h</text>
</a>
</g>
</g>
<!-- Node2&#45;&gt;Node9 -->
<g id="edge9_Node000002_Node000009" class="edge">
<title>Node2&#45;&gt;Node9</title>
<g id="a_edge9_Node000002_Node000009"><a xlink:title=" ">
<path fill="none" stroke="#63b8ff" d="M588.13,-109.98C566.35,-101.3 532.34,-87.75 507.58,-77.88"/>
<polygon fill="#63b8ff" stroke="#63b8ff" points="508.84,-74.62 498.26,-74.17 506.25,-81.12 508.84,-74.62"/>
</a>
</g>
</g>
<!-- Node11 -->
<g id="Node000011" class="node">
<title>Node11</title>
<g id="a_Node000011"><a xlink:href="FCharacterInfoData_8h.html" target="_top" xlink:title="FCharacterInfoData 구조체를 선언합니다.">
<polygon fill="white" stroke="#666666" points="670,-74 549,-74 549,-55 670,-55 670,-74"/>
<text text-anchor="middle" x="609.5" y="-62" font-family="Malgun Gothic" font-size="10.00">FCharacterInfoData.h</text>
</a>
</g>
</g>
<!-- Node2&#45;&gt;Node11 -->
<g id="edge14_Node000002_Node000011" class="edge">
<title>Node2&#45;&gt;Node11</title>
<g id="a_edge14_Node000002_Node000011"><a xlink:title=" ">
<path fill="none" stroke="#63b8ff" d="M609.5,-109.75C609.5,-102.8 609.5,-92.85 609.5,-84.13"/>
<polygon fill="#63b8ff" stroke="#63b8ff" points="613,-84.09 609.5,-74.09 606,-84.09 613,-84.09"/>
</a>
</g>
</g>
<!-- Node2&#45;&gt;Node14 -->
<g id="edge19_Node000002_Node000014" class="edge">
<title>Node2&#45;&gt;Node14</title>
<g id="a_edge19_Node000002_Node000014"><a xlink:title=" ">
<path fill="none" stroke="#63b8ff" d="M669.59,-109.98C736.01,-100.57 842.88,-85.43 913.16,-75.47"/>
<polygon fill="#63b8ff" stroke="#63b8ff" points="913.84,-78.91 923.25,-74.04 912.86,-71.98 913.84,-78.91"/>
</a>
</g>
</g>
<!-- Node16 -->
<g id="Node000016" class="node">
<title>Node16</title>
<g id="a_Node000016"><a xlink:title=" ">
<polygon fill="#e0e0e0" stroke="#999999" points="900.5,-74 688.5,-74 688.5,-55 900.5,-55 900.5,-74"/>
<text text-anchor="middle" x="794.5" y="-62" font-family="Malgun Gothic" font-size="10.00">Subsystems/GameInstanceSubsystem.h</text>
</a>
</g>
</g>
<!-- Node2&#45;&gt;Node16 -->
<g id="edge24_Node000002_Node000016" class="edge">
<title>Node2&#45;&gt;Node16</title>
<g id="a_edge24_Node000002_Node000016"><a xlink:title=" ">
<path fill="none" stroke="#63b8ff" d="M639.22,-109.98C670.55,-101.01 720.07,-86.82 754.74,-76.89"/>
<polygon fill="#63b8ff" stroke="#63b8ff" points="755.89,-80.2 764.54,-74.08 753.97,-73.47 755.89,-80.2"/>
</a>
</g>
</g>
<!-- Node17 -->
<g id="Node000017" class="node">
<title>Node17</title>
<g id="a_Node000017"><a xlink:title=" ">
<polygon fill="#e0e0e0" stroke="#999999" points="220.5,-74 40.5,-74 40.5,-55 220.5,-55 220.5,-74"/>
<text text-anchor="middle" x="130.5" y="-62" font-family="Malgun Gothic" font-size="10.00">UGameDataManager.generated.h</text>
</a>
</g>
</g>
<!-- Node2&#45;&gt;Node17 -->
<g id="edge25_Node000002_Node000017" class="edge">
<title>Node2&#45;&gt;Node17</title>
<g id="a_edge25_Node000002_Node000017"><a xlink:title=" ">
<path fill="none" stroke="#63b8ff" d="M545.4,-111.41C461.03,-102.07 312.39,-85.63 217.81,-75.16"/>
<polygon fill="#63b8ff" stroke="#63b8ff" points="218.01,-71.66 207.69,-74.04 217.24,-78.62 218.01,-71.66"/>
</a>
</g>
</g>
<!-- Node5&#45;&gt;Node3 -->
<g id="edge5_Node000005_Node000003" class="edge">
<title>Node5&#45;&gt;Node3</title>
<g id="a_edge5_Node000005_Node000003"><a xlink:title=" ">
<path fill="none" stroke="#63b8ff" d="M330.07,-56.08C333.26,-55.68 336.42,-55.31 339.5,-55 665.49,-22.01 752.45,-52.62 1081.98,-19.03"/>
<polygon fill="#63b8ff" stroke="#63b8ff" points="1082.71,-22.47 1092.3,-17.96 1082,-15.51 1082.71,-22.47"/>
</a>
</g>
</g>
<!-- Node6 -->
<g id="Node000006" class="node">
<title>Node6</title>
<g id="a_Node000006"><a xlink:href="EDamageType_8h.html" target="_top" xlink:title="EDamageType 클래스를 선언합니다.">
<polygon fill="white" stroke="#666666" points="256,-19 161,-19 161,0 256,0 256,-19"/>
<text text-anchor="middle" x="208.5" y="-7" font-family="Malgun Gothic" font-size="10.00">EDamageType.h</text>
</a>
</g>
</g>
<!-- Node5&#45;&gt;Node6 -->
<g id="edge6_Node000005_Node000006" class="edge">
<title>Node5&#45;&gt;Node6</title>
<g id="a_edge6_Node000005_Node000006"><a xlink:title=" ">
<path fill="none" stroke="#63b8ff" d="M272.29,-54.98C260.72,-46.92 243.12,-34.65 229.34,-25.03"/>
<polygon fill="#63b8ff" stroke="#63b8ff" points="231.14,-22.02 220.93,-19.17 227.13,-27.76 231.14,-22.02"/>
</a>
</g>
</g>
<!-- Node7 -->
<g id="Node000007" class="node">
<title>Node7</title>
<g id="a_Node000007"><a xlink:title=" ">
<polygon fill="#e0e0e0" stroke="#999999" points="563.5,-19 453.5,-19 453.5,0 563.5,0 563.5,-19"/>
<text text-anchor="middle" x="508.5" y="-7" font-family="Malgun Gothic" font-size="10.00">Engine/DataTable.h</text>
</a>
</g>
</g>
<!-- Node5&#45;&gt;Node7 -->
<g id="edge7_Node000005_Node000007" class="edge">
<title>Node5&#45;&gt;Node7</title>
<g id="a_edge7_Node000005_Node000007"><a xlink:title=" ">
<path fill="none" stroke="#63b8ff" d="M320.49,-54.98C358.99,-45.87 420.19,-31.4 462.24,-21.45"/>
<polygon fill="#63b8ff" stroke="#63b8ff" points="463.3,-24.79 472.23,-19.08 461.69,-17.98 463.3,-24.79"/>
</a>
</g>
</g>
<!-- Node8 -->
<g id="Node000008" class="node">
<title>Node8</title>
<g id="a_Node000008"><a xlink:title=" ">
<polygon fill="#e0e0e0" stroke="#999999" points="143,-19 0,-19 0,0 143,0 143,-19"/>
<text text-anchor="middle" x="71.5" y="-7" font-family="Malgun Gothic" font-size="10.00">FHitStopData.generated.h</text>
</a>
</g>
</g>
<!-- Node5&#45;&gt;Node8 -->
<g id="edge8_Node000005_Node000008" class="edge">
<title>Node5&#45;&gt;Node8</title>
<g id="a_edge8_Node000005_Node000008"><a xlink:title=" ">
<path fill="none" stroke="#63b8ff" d="M250.28,-54.98C213.74,-45.89 155.72,-31.46 115.74,-21.51"/>
<polygon fill="#63b8ff" stroke="#63b8ff" points="116.54,-18.1 105.99,-19.08 114.85,-24.89 116.54,-18.1"/>
</a>
</g>
</g>
<!-- Node9&#45;&gt;Node3 -->
<g id="edge10_Node000009_Node000003" class="edge">
<title>Node9&#45;&gt;Node3</title>
<g id="a_edge10_Node000009_Node000003"><a xlink:title=" ">
<path fill="none" stroke="#63b8ff" d="M530.77,-55.94C533.72,-55.6 536.64,-55.29 539.5,-55 777.3,-31.12 840.99,-45.8 1082.16,-19.04"/>
<polygon fill="#63b8ff" stroke="#63b8ff" points="1082.75,-22.5 1092.3,-17.9 1081.97,-15.54 1082.75,-22.5"/>
</a>
</g>
</g>
<!-- Node9&#45;&gt;Node6 -->
<g id="edge11_Node000009_Node000006" class="edge">
<title>Node9&#45;&gt;Node6</title>
<g id="a_edge11_Node000009_Node000006"><a xlink:title=" ">
<path fill="none" stroke="#63b8ff" d="M433.44,-54.98C386.79,-45.76 312.3,-31.03 261.94,-21.07"/>
<polygon fill="#63b8ff" stroke="#63b8ff" points="262.39,-17.59 251.9,-19.08 261.03,-24.46 262.39,-17.59"/>
</a>
</g>
</g>
<!-- Node9&#45;&gt;Node7 -->
<g id="edge12_Node000009_Node000007" class="edge">
<title>Node9&#45;&gt;Node7</title>
<g id="a_edge12_Node000009_Node000007"><a xlink:title=" ">
<path fill="none" stroke="#63b8ff" d="M481.78,-54.75C486.21,-47.42 492.66,-36.73 498.12,-27.7"/>
<polygon fill="#63b8ff" stroke="#63b8ff" points="501.14,-29.46 503.31,-19.09 495.15,-25.84 501.14,-29.46"/>
</a>
</g>
</g>
<!-- Node10 -->
<g id="Node000010" class="node">
<title>Node10</title>
<g id="a_Node000010"><a xlink:title=" ">
<polygon fill="#e0e0e0" stroke="#999999" points="435,-19 274,-19 274,0 435,0 435,-19"/>
<text text-anchor="middle" x="354.5" y="-7" font-family="Malgun Gothic" font-size="10.00">FKnockbackData.generated.h</text>
</a>
</g>
</g>
<!-- Node9&#45;&gt;Node10 -->
<g id="edge13_Node000009_Node000010" class="edge">
<title>Node9&#45;&gt;Node10</title>
<g id="a_edge13_Node000009_Node000010"><a xlink:title=" ">
<path fill="none" stroke="#63b8ff" d="M456.9,-54.98C437.18,-46.42 406.55,-33.11 383.92,-23.28"/>
<polygon fill="#63b8ff" stroke="#63b8ff" points="385.02,-19.94 374.46,-19.17 382.24,-26.37 385.02,-19.94"/>
</a>
</g>
</g>
<!-- Node11&#45;&gt;Node3 -->
<g id="edge15_Node000011_Node000003" class="edge">
<title>Node11&#45;&gt;Node3</title>
<g id="a_edge15_Node000011_Node000003"><a xlink:title=" ">
<path fill="none" stroke="#63b8ff" d="M670.19,-56.01C673.34,-55.66 676.46,-55.32 679.5,-55 855.54,-36.47 902.92,-41.11 1082.25,-19.07"/>
<polygon fill="#63b8ff" stroke="#63b8ff" points="1082.79,-22.53 1092.29,-17.83 1081.93,-15.59 1082.79,-22.53"/>
</a>
</g>
</g>
<!-- Node11&#45;&gt;Node7 -->
<g id="edge17_Node000011_Node000007" class="edge">
<title>Node11&#45;&gt;Node7</title>
<g id="a_edge17_Node000011_Node000007"><a xlink:title=" ">
<path fill="none" stroke="#63b8ff" d="M593.27,-54.98C577.32,-46.61 552.72,-33.7 534.12,-23.95"/>
<polygon fill="#63b8ff" stroke="#63b8ff" points="535.5,-20.72 525.02,-19.17 532.25,-26.92 535.5,-20.72"/>
</a>
</g>
</g>
<!-- Node12 -->
<g id="Node000012" class="node">
<title>Node12</title>
<g id="a_Node000012"><a xlink:href="ECharacterType_8h.html" target="_top" xlink:title="ECharacterType 클래스를 선언합니다.">
<polygon fill="white" stroke="#666666" points="874,-19 773,-19 773,0 874,0 874,-19"/>
<text text-anchor="middle" x="823.5" y="-7" font-family="Malgun Gothic" font-size="10.00">ECharacterType.h</text>
</a>
</g>
</g>
<!-- Node11&#45;&gt;Node12 -->
<g id="edge16_Node000011_Node000012" class="edge">
<title>Node11&#45;&gt;Node12</title>
<g id="a_edge16_Node000011_Node000012"><a xlink:title=" ">
<path fill="none" stroke="#63b8ff" d="M643.88,-54.98C680.59,-45.89 738.88,-31.46 779.05,-21.51"/>
<polygon fill="#63b8ff" stroke="#63b8ff" points="779.98,-24.88 788.85,-19.08 778.3,-18.09 779.98,-24.88"/>
</a>
</g>
</g>
<!-- Node13 -->
<g id="Node000013" class="node">
<title>Node13</title>
<g id="a_Node000013"><a xlink:title=" ">
<polygon fill="#e0e0e0" stroke="#999999" points="755,-19 582,-19 582,0 755,0 755,-19"/>
<text text-anchor="middle" x="668.5" y="-7" font-family="Malgun Gothic" font-size="10.00">FCharacterInfoData.generated.h</text>
</a>
</g>
</g>
<!-- Node11&#45;&gt;Node13 -->
<g id="edge18_Node000011_Node000013" class="edge">
<title>Node11&#45;&gt;Node13</title>
<g id="a_edge18_Node000011_Node000013"><a xlink:title=" ">
<path fill="none" stroke="#63b8ff" d="M618.98,-54.98C627.7,-47.15 640.84,-35.34 651.4,-25.86"/>
<polygon fill="#63b8ff" stroke="#63b8ff" points="653.75,-28.46 658.85,-19.17 649.07,-23.25 653.75,-28.46"/>
</a>
</g>
</g>
<!-- Node14&#45;&gt;Node3 -->
<g id="edge20_Node000014_Node000003" class="edge">
<title>Node14&#45;&gt;Node3</title>
<g id="a_edge20_Node000014_Node000003"><a xlink:title=" ">
<path fill="none" stroke="#63b8ff" d="M1008.08,-54.98C1033.55,-46.16 1073.54,-32.31 1102.13,-22.41"/>
<polygon fill="#63b8ff" stroke="#63b8ff" points="1103.42,-25.66 1111.73,-19.08 1101.13,-19.05 1103.42,-25.66"/>
</a>
</g>
</g>
<!-- Node14&#45;&gt;Node7 -->
<g id="edge22_Node000014_Node000007" class="edge">
<title>Node14&#45;&gt;Node7</title>
<g id="a_edge22_Node000014_Node000007"><a xlink:title=" ">
<path fill="none" stroke="#63b8ff" d="M918.93,-56.05C915.74,-55.69 912.58,-55.34 909.5,-55 763,-38.76 723.73,-36.99 573.69,-19.12"/>
<polygon fill="#63b8ff" stroke="#63b8ff" points="573.99,-15.63 563.65,-17.92 573.16,-22.58 573.99,-15.63"/>
</a>
</g>
</g>
<!-- Node14&#45;&gt;Node12 -->
<g id="edge21_Node000014_Node000012" class="edge">
<title>Node14&#45;&gt;Node12</title>
<g id="a_edge21_Node000014_Node000012"><a xlink:title=" ">
<path fill="none" stroke="#63b8ff" d="M957.79,-54.98C931.05,-46.13 888.97,-32.19 859.05,-22.28"/>
<polygon fill="#63b8ff" stroke="#63b8ff" points="860,-18.9 849.41,-19.08 857.8,-25.55 860,-18.9"/>
</a>
</g>
</g>
<!-- Node15 -->
<g id="Node000015" class="node">
<title>Node15</title>
<g id="a_Node000015"><a xlink:title=" ">
<polygon fill="#e0e0e0" stroke="#999999" points="1074.5,-19 892.5,-19 892.5,0 1074.5,0 1074.5,-19"/>
<text text-anchor="middle" x="983.5" y="-7" font-family="Malgun Gothic" font-size="10.00">FCharacterAssetData.generated.h</text>
</a>
</g>
</g>
<!-- Node14&#45;&gt;Node15 -->
<g id="edge23_Node000014_Node000015" class="edge">
<title>Node14&#45;&gt;Node15</title>
<g id="a_edge23_Node000014_Node000015"><a xlink:title=" ">
<path fill="none" stroke="#63b8ff" d="M983.5,-54.75C983.5,-47.8 983.5,-37.85 983.5,-29.13"/>
<polygon fill="#63b8ff" stroke="#63b8ff" points="987,-29.09 983.5,-19.09 980,-29.09 987,-29.09"/>
</a>
</g>
</g>
<!-- Node18&#45;&gt;Node3 -->
<g id="edge27_Node000018_Node000003" class="edge">
<title>Node18&#45;&gt;Node3</title>
<g id="a_edge27_Node000018_Node000003"><a xlink:title=" ">
<path fill="none" stroke="#63b8ff" d="M1195.88,-111.77C1173.02,-105.87 1147.46,-94.78 1133.5,-74 1124.66,-60.84 1126.68,-42.47 1130.16,-28.86"/>
<polygon fill="#63b8ff" stroke="#63b8ff" points="1133.55,-29.76 1133.08,-19.17 1126.85,-27.73 1133.55,-29.76"/>
</a>
</g>
</g>
<!-- Node19 -->
<g id="Node000019" class="node">
<title>Node19</title>
<g id="a_Node000019"><a xlink:title=" ">
<polygon fill="#e0e0e0" stroke="#999999" points="1472,-74 1353,-74 1353,-55 1472,-55 1472,-74"/>
<text text-anchor="middle" x="1412.5" y="-62" font-family="Malgun Gothic" font-size="10.00">Logging/LogMacros.h</text>
</a>
</g>
</g>
<!-- Node18&#45;&gt;Node19 -->
<g id="edge28_Node000018_Node000019" class="edge">
<title>Node18&#45;&gt;Node19</title>
<g id="a_edge28_Node000018_Node000019"><a xlink:title=" ">
<path fill="none" stroke="#63b8ff" d="M1269.81,-109.98C1298.35,-101.09 1343.33,-87.07 1375.14,-77.15"/>
<polygon fill="#63b8ff" stroke="#63b8ff" points="1376.47,-80.4 1384.97,-74.08 1374.38,-73.72 1376.47,-80.4"/>
</a>
</g>
</g>
<!-- Node20 -->
<g id="Node000020" class="node">
<title>Node20</title>
<g id="a_Node000020"><a xlink:title=" ">
<polygon fill="#e0e0e0" stroke="#999999" points="1238,-74 1143,-74 1143,-55 1238,-55 1238,-74"/>
<text text-anchor="middle" x="1190.5" y="-62" font-family="Malgun Gothic" font-size="10.00">Engine/Engine.h</text>
</a>
</g>
</g>
<!-- Node18&#45;&gt;Node20 -->
<g id="edge29_Node000018_Node000020" class="edge">
<title>Node18&#45;&gt;Node20</title>
<g id="a_edge29_Node000018_Node000020"><a xlink:title=" ">
<path fill="none" stroke="#63b8ff" d="M1233.91,-109.75C1226.34,-102.03 1215.12,-90.6 1205.99,-81.28"/>
<polygon fill="#63b8ff" stroke="#63b8ff" points="1208.43,-78.78 1198.93,-74.09 1203.43,-83.68 1208.43,-78.78"/>
</a>
</g>
</g>
<!-- Node21 -->
<g id="Node000021" class="node">
<title>Node21</title>
<g id="a_Node000021"><a xlink:href="FLogWriter_8h.html" target="_top" xlink:title="FArchive 클래스를 선언합니다.">
<polygon fill="white" stroke="#666666" points="1334.5,-74 1256.5,-74 1256.5,-55 1334.5,-55 1334.5,-74"/>
<text text-anchor="middle" x="1295.5" y="-62" font-family="Malgun Gothic" font-size="10.00">FLogWriter.h</text>
</a>
</g>
</g>
<!-- Node18&#45;&gt;Node21 -->
<g id="edge30_Node000018_Node000021" class="edge">
<title>Node18&#45;&gt;Node21</title>
<g id="a_edge30_Node000018_Node000021"><a xlink:title=" ">
<path fill="none" stroke="#63b8ff" d="M1251.25,-109.75C1258.97,-102.03 1270.4,-90.6 1279.72,-81.28"/>
<polygon fill="#63b8ff" stroke="#63b8ff" points="1282.31,-83.64 1286.91,-74.09 1277.36,-78.69 1282.31,-83.64"/>
</a>
</g>
</g>
<!-- Node22 -->
<g id="Node000022" class="node">
<title>Node22</title>
<g id="a_Node000022"><a xlink:href="NetworkLog_8h.html" target="_top" xlink:title="YiSan 전반에서 사용하는 공용 인터페이스를 선언합니다.">
<polygon fill="white" stroke="#666666" points="1574.5,-74 1490.5,-74 1490.5,-55 1574.5,-55 1574.5,-74"/>
<text text-anchor="middle" x="1532.5" y="-62" font-family="Malgun Gothic" font-size="10.00">NetworkLog.h</text>
</a>
</g>
</g>
<!-- Node18&#45;&gt;Node22 -->
<g id="edge32_Node000018_Node000022" class="edge">
<title>Node18&#45;&gt;Node22</title>
<g id="a_edge32_Node000018_Node000022"><a xlink:title=" ">
<path fill="none" stroke="#63b8ff" d="M1289.09,-109.98C1341.29,-100.45 1425.69,-85.02 1480.13,-75.07"/>
<polygon fill="#63b8ff" stroke="#63b8ff" points="1481.06,-78.46 1490.27,-73.22 1479.8,-71.57 1481.06,-78.46"/>
</a>
</g>
</g>
<!-- Node21&#45;&gt;Node3 -->
<g id="edge31_Node000021_Node000003" class="edge">
<title>Node21&#45;&gt;Node3</title>
<g id="a_edge31_Node000021_Node000003"><a xlink:title=" ">
<path fill="none" stroke="#63b8ff" d="M1269.95,-54.98C1243.38,-46.13 1201.56,-32.19 1171.83,-22.28"/>
<polygon fill="#63b8ff" stroke="#63b8ff" points="1172.84,-18.92 1162.25,-19.08 1170.63,-25.56 1172.84,-18.92"/>
</a>
</g>
</g>
<!-- Node22&#45;&gt;Node3 -->
<g id="edge33_Node000022_Node000003" class="edge">
<title>Node22&#45;&gt;Node3</title>
<g id="a_edge33_Node000022_Node000003"><a xlink:title=" ">
<path fill="none" stroke="#63b8ff" d="M1490.23,-56.47C1486.94,-55.96 1483.67,-55.46 1480.5,-55 1378.2,-40.03 1258.39,-25.12 1190.57,-16.93"/>
<polygon fill="#63b8ff" stroke="#63b8ff" points="1190.9,-13.44 1180.55,-15.72 1190.06,-20.39 1190.9,-13.44"/>
</a>
</g>
</g>
<!-- Node23&#45;&gt;Node3 -->
<g id="edge36_Node000023_Node000003" class="edge">
<title>Node23&#45;&gt;Node3</title>
<g id="a_edge36_Node000023_Node000003"><a xlink:title=" ">
<path fill="none" stroke="#63b8ff" d="M1684.7,-109.97C1655.9,-93.42 1594.19,-58.31 1583.5,-55 1511.47,-32.72 1293.24,-18.71 1190.75,-13.19"/>
<polygon fill="#63b8ff" stroke="#63b8ff" points="1190.79,-9.68 1180.62,-12.65 1190.42,-16.67 1190.79,-9.68"/>
</a>
</g>
</g>
<!-- Node24 -->
<g id="Node000024" class="node">
<title>Node24</title>
<g id="a_Node000024"><a xlink:title=" ">
<polygon fill="#e0e0e0" stroke="#999999" points="1768,-74 1631,-74 1631,-55 1768,-55 1768,-74"/>
<text text-anchor="middle" x="1699.5" y="-62" font-family="Malgun Gothic" font-size="10.00">GameFramework/Actor.h</text>
</a>
</g>
</g>
<!-- Node23&#45;&gt;Node24 -->
<g id="edge37_Node000023_Node000024" class="edge">
<title>Node23&#45;&gt;Node24</title>
<g id="a_edge37_Node000023_Node000024"><a xlink:title=" ">
<path fill="none" stroke="#63b8ff" d="M1699.5,-109.75C1699.5,-102.8 1699.5,-92.85 1699.5,-84.13"/>
<polygon fill="#63b8ff" stroke="#63b8ff" points="1703,-84.09 1699.5,-74.09 1696,-84.09 1703,-84.09"/>
</a>
</g>
</g>
<!-- Node25 -->
<g id="Node000025" class="node">
<title>Node25</title>
<g id="a_Node000025"><a xlink:title=" ">
<polygon fill="#e0e0e0" stroke="#999999" points="1958.5,-74 1786.5,-74 1786.5,-55 1958.5,-55 1958.5,-74"/>
<text text-anchor="middle" x="1872.5" y="-62" font-family="Malgun Gothic" font-size="10.00">Components/ActorComponent.h</text>
</a>
</g>
</g>
<!-- Node23&#45;&gt;Node25 -->
<g id="edge38_Node000023_Node000025" class="edge">
<title>Node23&#45;&gt;Node25</title>
<g id="a_edge38_Node000023_Node000025"><a xlink:title=" ">
<path fill="none" stroke="#63b8ff" d="M1727.3,-109.98C1756.47,-101.05 1802.5,-86.94 1834.9,-77.02"/>
<polygon fill="#63b8ff" stroke="#63b8ff" points="1835.95,-80.36 1844.49,-74.08 1833.9,-73.66 1835.95,-80.36"/>
</a>
</g>
</g>
<!-- Node26 -->
<g id="Node000026" class="node">
<title>Node26</title>
<g id="a_Node000026"><a xlink:title=" ">
<polygon fill="#e0e0e0" stroke="#999999" points="2122.5,-74 1976.5,-74 1976.5,-55 2122.5,-55 2122.5,-74"/>
<text text-anchor="middle" x="2049.5" y="-62" font-family="Malgun Gothic" font-size="10.00">Kismet/GameplayStatics.h</text>
</a>
</g>
</g>
<!-- Node23&#45;&gt;Node26 -->
<g id="edge39_Node000023_Node000026" class="edge">
<title>Node23&#45;&gt;Node26</title>
<g id="a_edge39_Node000023_Node000026"><a xlink:title=" ">
<path fill="none" stroke="#63b8ff" d="M1755.73,-109.98C1817.64,-100.61 1917.09,-85.55 1982.86,-75.59"/>
<polygon fill="#63b8ff" stroke="#63b8ff" points="1983.75,-79 1993.12,-74.04 1982.7,-72.07 1983.75,-79"/>
</a>
</g>
</g>
</g>
</svg>

<g id="navigator" transform="translate(0 0)" fill="#404254">
  <rect fill="#f2f5e9" fill-opacity="0.5" stroke="#606060" stroke-width=".5" x="0" y="0" width="60" height="60"/>
  <use id="zoomplus" xlink:href="#zoomPlus" x="17" y="9" onmousedown="handleZoom(evt,'in')"/>
  <use id="zoomminus" xlink:href="#zoomMin" x="42" y="9" onmousedown="handleZoom(evt,'out')"/>
  <use id="reset" xlink:href="#resetDef" x="30" y="36" onmousedown="handleReset()"/>
   <use id="arrowup" xlink:href="#arrowUp" x="0" y="0" onmousedown="handlePan(0,-1)"/>
  <use id="arrowright" xlink:href="#arrowRight" x="0" y="0" onmousedown="handlePan(1,0)"/>
  <use id="arrowdown" xlink:href="#arrowDown" x="0" y="0" onmousedown="handlePan(0,1)"/>
  <use id="arrowleft" xlink:href="#arrowLeft" x="0" y="0" onmousedown="handlePan(-1,0)"/>
</g>
<svg viewBox="0 0 15 15" width="100%" height="30px" preserveAspectRatio="xMaxYMin meet">
 <g id="arrow_out" transform="scale(0.3 0.3)">
  <a xlink:href="UGameDataManager_8cpp__incl_org.svg" target="_base">
   <rect id="button" ry="5" rx="5" y="6" x="6" height="38" width="38"
        fill="#f2f5e9" fill-opacity="0.5" stroke="#606060" stroke-width="1.0"/>
   <path id="arrow"
     d="M 11.500037,31.436501 C 11.940474,20.09759 22.043105,11.32322 32.158766,21.979434 L 37.068811,17.246167 C 37.068811,17.246167 37.088388,32 37.088388,32 L 22.160133,31.978069 C 22.160133,31.978069 26.997745,27.140456 26.997745,27.140456 C 18.528582,18.264221 13.291696,25.230495 11.500037,31.436501 z"
     style="fill:#404040;"/>
  </a>
 </g>
</svg>

<style type='text/css'>
<![CDATA[
[data-mouse-over-selected='false'] { opacity: 0.7; }
[data-mouse-over-selected='true']  { opacity: 1.0; }
]]>
</style>
<script type="application/ecmascript"><![CDATA[
document.addEventListener('DOMContentLoaded', (event) => {
  highlightEdges();
  highlightAdjacentNodes();
});
]]></script>
</svg>
