<?xml version="1.0" encoding="UTF-8" standalone="no"?>
<!DOCTYPE svg PUBLIC "-//W3C//DTD SVG 1.1//EN"
 "http://www.w3.org/Graphics/SVG/1.1/DTD/svg11.dtd">
<!-- Generated by graphviz version 2.43.0 (0)
 -->
<!-- Title: Source/LatteLibrary/Manager/Private/UGameVFXManager.cpp Pages: 1 -->
<!--zoomable 203 -->

<svg id="main" version="1.1" xmlns="http://www.w3.org/2000/svg" xmlns:xlink="http://www.w3.org/1999/xlink" xml:space="preserve" onload="init(evt)">
<style type="text/css"><![CDATA[
.node, .edge {opacity: 0.7;}
.node.selected, .edge.selected {opacity: 1;}
.edge:hover path { stroke: red; }
.edge:hover polygon { stroke: red; fill: red; }
]]></style>

<defs>
  <circle id="rim" cx="0" cy="0" r="7"/>
  <circle id="rim2" cx="0" cy="0" r="3.5"/>
  <g id="zoomPlus">
    <use xlink:href="#rim" fill="#404040"><set attributeName="fill" to="#808080" begin="zoomplus.mouseover" end="zoomplus.mouseout"/></use>
    <path d="M-4,0h8M0,-4v8" fill="none" stroke="white" stroke-width="1.5" pointer-events="none"/>
  </g>
  <g id="zoomMin">
    <use xlink:href="#rim" fill="#404040"><set attributeName="fill" to="#808080" begin="zoomminus.mouseover" end="zoomminus.mouseout"/></use>
    <path d="M-4,0h8" fill="none" stroke="white" stroke-width="1.5" pointer-events="none"/>
  </g>
  <g id="arrowUp" transform="translate(30 24)">
    <use xlink:href="#rim"/>
    <path pointer-events="none" fill="none" stroke="white" stroke-width="1.5" d="M0,-3.0v7 M-2.5,-0.5L0,-3.0L2.5,-0.5"/>
  </g>
  <g id="arrowRight" transform="rotate(90) translate(36 -43)">
    <use xlink:href="#rim"/>
    <path pointer-events="none" fill="none" stroke="white" stroke-width="1.5" d="M0,-3.0v7 M-2.5,-0.5L0,-3.0L2.5,-0.5"/>
  </g>
  <g id="arrowDown" transform="rotate(180) translate(-30 -48)">
    <use xlink:href="#rim"/>
    <path pointer-events="none" fill="none" stroke="white" stroke-width="1.5" d="M0,-3.0v7 M-2.5,-0.5L0,-3.0L2.5,-0.5"/>
  </g>
  <g id="arrowLeft" transform="rotate(270) translate(-36 17)">
    <use xlink:href="#rim"/>
    <path pointer-events="none" fill="none" stroke="white" stroke-width="1.5" d="M0,-3.0v7 M-2.5,-0.5L0,-3.0L2.5,-0.5"/>
  </g>
  <g id="resetDef">
    <use xlink:href="#rim2" fill="#404040"><set attributeName="fill" to="#808080" begin="reset.mouseover" end="reset.mouseout"/></use>
  </g>
</defs>
<script type="application/ecmascript">
var viewWidth = 1721;
var viewHeight = 203;
var sectionId = 'dynsection-0';
</script>
<script type="application/ecmascript" xlink:href="svg.min.js"/>
<svg id="graph" class="graph">
<g id="viewport">
<title>Source/LatteLibrary/Manager/Private/UGameVFXManager.cpp</title>
<!-- Node1 -->
<g id="Node000001" class="node">
<title>Node1</title>
<g id="a_Node000001"><a xlink:title="UGameVFXManager의 동작을 구현합니다.">
<polygon fill="#999999" stroke="#666666" points="1270.5,-195 1049.5,-195 1049.5,-165 1270.5,-165 1270.5,-195"/>
<text text-anchor="start" x="1057.5" y="-183" font-family="Malgun Gothic" font-size="10.00">Source/LatteLibrary</text>
<text text-anchor="middle" x="1160" y="-172" font-family="Malgun Gothic" font-size="10.00">/Manager/Private/UGameVFXManager.cpp</text>
</a>
</g>
</g>
<!-- Node2 -->
<g id="Node000002" class="node">
<title>Node2</title>
<g id="a_Node000002"><a xlink:href="UGameVFXManager_8h.html" target="_top" xlink:title="UGameVFXManager 클래스를 선언합니다.">
<polygon fill="white" stroke="#666666" points="1267,-129 1143,-129 1143,-110 1267,-110 1267,-129"/>
<text text-anchor="middle" x="1205" y="-117" font-family="Malgun Gothic" font-size="10.00">UGameVFXManager.h</text>
</a>
</g>
</g>
<!-- Node1&#45;&gt;Node2 -->
<g id="edge1_Node000001_Node000002" class="edge">
<title>Node1&#45;&gt;Node2</title>
<g id="a_edge1_Node000001_Node000002"><a xlink:title=" ">
<path fill="none" stroke="#63b8ff" d="M1170.89,-164.84C1177.29,-156.52 1185.42,-145.96 1192.13,-137.23"/>
<polygon fill="#63b8ff" stroke="#63b8ff" points="1194.93,-139.33 1198.26,-129.27 1189.39,-135.06 1194.93,-139.33"/>
</a>
</g>
</g>
<!-- Node6 -->
<g id="Node000006" class="node">
<title>Node6</title>
<g id="a_Node000006"><a xlink:href="UVFXDataAsset_8h.html" target="_top" xlink:title="UNiagaraSystem 클래스를 선언합니다.">
<polygon fill="white" stroke="#666666" points="1176.5,-74 1073.5,-74 1073.5,-55 1176.5,-55 1176.5,-74"/>
<text text-anchor="middle" x="1125" y="-62" font-family="Malgun Gothic" font-size="10.00">UVFXDataAsset.h</text>
</a>
</g>
</g>
<!-- Node1&#45;&gt;Node6 -->
<g id="edge21_Node000001_Node000006" class="edge">
<title>Node1&#45;&gt;Node6</title>
<g id="a_edge21_Node000001_Node000006"><a xlink:title=" ">
<path fill="none" stroke="#63b8ff" d="M1150.89,-164.69C1145.15,-154.99 1138.06,-141.67 1134,-129 1129.37,-114.55 1127.12,-97.49 1126.03,-84.69"/>
<polygon fill="#63b8ff" stroke="#63b8ff" points="1129.49,-84.07 1125.31,-74.34 1122.51,-84.55 1129.49,-84.07"/>
</a>
</g>
</g>
<!-- Node11 -->
<g id="Node000011" class="node">
<title>Node11</title>
<g id="a_Node000011"><a xlink:href="EDamageType_8h.html" target="_top" xlink:title="EDamageType 클래스를 선언합니다.">
<polygon fill="white" stroke="#666666" points="1380.5,-129 1285.5,-129 1285.5,-110 1380.5,-110 1380.5,-129"/>
<text text-anchor="middle" x="1333" y="-117" font-family="Malgun Gothic" font-size="10.00">EDamageType.h</text>
</a>
</g>
</g>
<!-- Node1&#45;&gt;Node11 -->
<g id="edge12_Node000001_Node000011" class="edge">
<title>Node1&#45;&gt;Node11</title>
<g id="a_edge12_Node000001_Node000011"><a xlink:title=" ">
<path fill="none" stroke="#63b8ff" d="M1201.44,-164.99C1230.91,-155.02 1270.06,-141.78 1297.97,-132.35"/>
<polygon fill="#63b8ff" stroke="#63b8ff" points="1299.35,-135.57 1307.7,-129.05 1297.11,-128.94 1299.35,-135.57"/>
</a>
</g>
</g>
<!-- Node12 -->
<g id="Node000012" class="node">
<title>Node12</title>
<g id="a_Node000012"><a xlink:href="GameLogging_8h.html" target="_top" xlink:title="YiSan 전반에서 사용하는 공용 인터페이스를 선언합니다.">
<polygon fill="white" stroke="#666666" points="367.5,-129 274.5,-129 274.5,-110 367.5,-110 367.5,-129"/>
<text text-anchor="middle" x="321" y="-117" font-family="Malgun Gothic" font-size="10.00">GameLogging.h</text>
</a>
</g>
</g>
<!-- Node1&#45;&gt;Node12 -->
<g id="edge13_Node000001_Node000012" class="edge">
<title>Node1&#45;&gt;Node12</title>
<g id="a_edge13_Node000001_Node000012"><a xlink:title=" ">
<path fill="none" stroke="#63b8ff" d="M1049.45,-171.29C868.61,-158.68 515.88,-134.09 378.09,-124.48"/>
<polygon fill="#63b8ff" stroke="#63b8ff" points="377.98,-120.96 367.77,-123.76 377.5,-127.95 377.98,-120.96"/>
</a>
</g>
</g>
<!-- Node17 -->
<g id="Node000017" class="node">
<title>Node17</title>
<g id="a_Node000017"><a xlink:title=" ">
<polygon fill="#e0e0e0" stroke="#999999" points="1535.5,-129 1398.5,-129 1398.5,-110 1535.5,-110 1535.5,-129"/>
<text text-anchor="middle" x="1467" y="-117" font-family="Malgun Gothic" font-size="10.00">NiagaraFunctionLibrary.h</text>
</a>
</g>
</g>
<!-- Node1&#45;&gt;Node17 -->
<g id="edge22_Node000001_Node000017" class="edge">
<title>Node1&#45;&gt;Node17</title>
<g id="a_edge22_Node000001_Node000017"><a xlink:title=" ">
<path fill="none" stroke="#63b8ff" d="M1233.53,-164.99C1288.47,-154.52 1362.35,-140.44 1412.17,-130.95"/>
<polygon fill="#63b8ff" stroke="#63b8ff" points="1412.94,-134.36 1422.11,-129.05 1411.63,-127.49 1412.94,-134.36"/>
</a>
</g>
</g>
<!-- Node18 -->
<g id="Node000018" class="node">
<title>Node18</title>
<g id="a_Node000018"><a xlink:href="FComponentHelper_8h.html" target="_top" xlink:title="FComponentHelper 구조체를 선언합니다.">
<polygon fill="white" stroke="#666666" points="965.5,-129 846.5,-129 846.5,-110 965.5,-110 965.5,-129"/>
<text text-anchor="middle" x="906" y="-117" font-family="Malgun Gothic" font-size="10.00">FComponentHelper.h</text>
</a>
</g>
</g>
<!-- Node1&#45;&gt;Node18 -->
<g id="edge23_Node000001_Node000018" class="edge">
<title>Node1&#45;&gt;Node18</title>
<g id="a_edge23_Node000001_Node000018"><a xlink:title=" ">
<path fill="none" stroke="#63b8ff" d="M1099.16,-164.99C1054.28,-154.65 994.11,-140.79 952.92,-131.31"/>
<polygon fill="#63b8ff" stroke="#63b8ff" points="953.67,-127.89 943.14,-129.05 952.1,-134.71 953.67,-127.89"/>
</a>
</g>
</g>
<!-- Node3 -->
<g id="Node000003" class="node">
<title>Node3</title>
<g id="a_Node000003"><a xlink:title=" ">
<polygon fill="#e0e0e0" stroke="#999999" points="701,-19 613,-19 613,0 701,0 701,-19"/>
<text text-anchor="middle" x="657" y="-7" font-family="Malgun Gothic" font-size="10.00">CoreMinimal.h</text>
</a>
</g>
</g>
<!-- Node2&#45;&gt;Node3 -->
<g id="edge2_Node000002_Node000003" class="edge">
<title>Node2&#45;&gt;Node3</title>
<g id="a_edge2_Node000002_Node000003"><a xlink:title=" ">
<path fill="none" stroke="#63b8ff" d="M1178.18,-109.96C1124.46,-92.86 1008.39,-55.97 1004,-55 901.88,-32.51 780.18,-20.14 711.42,-14.46"/>
<polygon fill="#63b8ff" stroke="#63b8ff" points="711.5,-10.95 701.25,-13.63 710.94,-17.93 711.5,-10.95"/>
</a>
</g>
</g>
<!-- Node4 -->
<g id="Node000004" class="node">
<title>Node4</title>
<g id="a_Node000004"><a xlink:href="Macro_8h.html" target="_top" xlink:title="YiSan 전반에서 사용하는 공용 인터페이스를 선언합니다.">
<polygon fill="white" stroke="#666666" points="1289,-74 1233,-74 1233,-55 1289,-55 1289,-74"/>
<text text-anchor="middle" x="1261" y="-62" font-family="Malgun Gothic" font-size="10.00">Macro.h</text>
</a>
</g>
</g>
<!-- Node2&#45;&gt;Node4 -->
<g id="edge3_Node000002_Node000004" class="edge">
<title>Node2&#45;&gt;Node4</title>
<g id="a_edge3_Node000002_Node000004"><a xlink:title=" ">
<path fill="none" stroke="#63b8ff" d="M1214,-109.98C1222.19,-102.23 1234.51,-90.58 1244.47,-81.14"/>
<polygon fill="#63b8ff" stroke="#63b8ff" points="1246.98,-83.59 1251.84,-74.17 1242.17,-78.5 1246.98,-83.59"/>
</a>
</g>
</g>
<!-- Node5 -->
<g id="Node000005" class="node">
<title>Node5</title>
<g id="a_Node000005"><a xlink:href="EVFXType_8h.html" target="_top" xlink:title="EVFXType 클래스를 선언합니다.">
<polygon fill="white" stroke="#666666" points="1268,-19 1194,-19 1194,0 1268,0 1268,-19"/>
<text text-anchor="middle" x="1231" y="-7" font-family="Malgun Gothic" font-size="10.00">EVFXType.h</text>
</a>
</g>
</g>
<!-- Node2&#45;&gt;Node5 -->
<g id="edge4_Node000002_Node000005" class="edge">
<title>Node2&#45;&gt;Node5</title>
<g id="a_edge4_Node000002_Node000005"><a xlink:title=" ">
<path fill="none" stroke="#63b8ff" d="M1207.13,-109.66C1211.36,-92.09 1220.9,-52.45 1226.56,-28.95"/>
<polygon fill="#63b8ff" stroke="#63b8ff" points="1229.98,-29.7 1228.92,-19.16 1223.17,-28.06 1229.98,-29.7"/>
</a>
</g>
</g>
<!-- Node2&#45;&gt;Node6 -->
<g id="edge5_Node000002_Node000006" class="edge">
<title>Node2&#45;&gt;Node6</title>
<g id="a_edge5_Node000002_Node000006"><a xlink:title=" ">
<path fill="none" stroke="#63b8ff" d="M1192.15,-109.98C1179.86,-101.84 1161.09,-89.41 1146.52,-79.76"/>
<polygon fill="#63b8ff" stroke="#63b8ff" points="1148.36,-76.78 1138.09,-74.17 1144.49,-82.61 1148.36,-76.78"/>
</a>
</g>
</g>
<!-- Node9 -->
<g id="Node000009" class="node">
<title>Node9</title>
<g id="a_Node000009"><a xlink:title=" ">
<polygon fill="#e0e0e0" stroke="#999999" points="1519,-74 1307,-74 1307,-55 1519,-55 1519,-74"/>
<text text-anchor="middle" x="1413" y="-62" font-family="Malgun Gothic" font-size="10.00">Subsystems/GameInstanceSubsystem.h</text>
</a>
</g>
</g>
<!-- Node2&#45;&gt;Node9 -->
<g id="edge10_Node000002_Node000009" class="edge">
<title>Node2&#45;&gt;Node9</title>
<g id="a_edge10_Node000002_Node000009"><a xlink:title=" ">
<path fill="none" stroke="#63b8ff" d="M1238.42,-109.98C1273.94,-100.93 1330.27,-86.58 1369.3,-76.64"/>
<polygon fill="#63b8ff" stroke="#63b8ff" points="1370.49,-79.94 1379.32,-74.08 1368.76,-73.16 1370.49,-79.94"/>
</a>
</g>
</g>
<!-- Node10 -->
<g id="Node000010" class="node">
<title>Node10</title>
<g id="a_Node000010"><a xlink:title=" ">
<polygon fill="#e0e0e0" stroke="#999999" points="1713,-74 1537,-74 1537,-55 1713,-55 1713,-74"/>
<text text-anchor="middle" x="1625" y="-62" font-family="Malgun Gothic" font-size="10.00">UGameVFXManager.generated.h</text>
</a>
</g>
</g>
<!-- Node2&#45;&gt;Node10 -->
<g id="edge11_Node000002_Node000010" class="edge">
<title>Node2&#45;&gt;Node10</title>
<g id="a_edge11_Node000002_Node000010"><a xlink:title=" ">
<path fill="none" stroke="#63b8ff" d="M1267.42,-110.62C1341.93,-101.22 1466.56,-85.49 1547.25,-75.31"/>
<polygon fill="#63b8ff" stroke="#63b8ff" points="1547.87,-78.76 1557.36,-74.04 1547,-71.82 1547.87,-78.76"/>
</a>
</g>
</g>
<!-- Node6&#45;&gt;Node3 -->
<g id="edge6_Node000006_Node000003" class="edge">
<title>Node6&#45;&gt;Node3</title>
<g id="a_edge6_Node000006_Node000003"><a xlink:title=" ">
<path fill="none" stroke="#63b8ff" d="M1073.49,-56.78C1068.59,-56.16 1063.7,-55.56 1059,-55 934.56,-40.1 788.23,-24.35 711.02,-16.17"/>
<polygon fill="#63b8ff" stroke="#63b8ff" points="711.36,-12.69 701.05,-15.12 710.63,-19.65 711.36,-12.69"/>
</a>
</g>
</g>
<!-- Node6&#45;&gt;Node5 -->
<g id="edge7_Node000006_Node000005" class="edge">
<title>Node6&#45;&gt;Node5</title>
<g id="a_edge7_Node000006_Node000005"><a xlink:title=" ">
<path fill="none" stroke="#63b8ff" d="M1142.03,-54.98C1158.93,-46.54 1185.06,-33.47 1204.64,-23.68"/>
<polygon fill="#63b8ff" stroke="#63b8ff" points="1206.28,-26.77 1213.66,-19.17 1203.15,-20.51 1206.28,-26.77"/>
</a>
</g>
</g>
<!-- Node7 -->
<g id="Node000007" class="node">
<title>Node7</title>
<g id="a_Node000007"><a xlink:title=" ">
<polygon fill="#e0e0e0" stroke="#999999" points="1002,-19 890,-19 890,0 1002,0 1002,-19"/>
<text text-anchor="middle" x="946" y="-7" font-family="Malgun Gothic" font-size="10.00">Engine/DataAsset.h</text>
</a>
</g>
</g>
<!-- Node6&#45;&gt;Node7 -->
<g id="edge8_Node000006_Node000007" class="edge">
<title>Node6&#45;&gt;Node7</title>
<g id="a_edge8_Node000006_Node000007"><a xlink:title=" ">
<path fill="none" stroke="#63b8ff" d="M1096.24,-54.98C1066.06,-46.05 1018.43,-31.94 984.9,-22.02"/>
<polygon fill="#63b8ff" stroke="#63b8ff" points="985.57,-18.57 974.98,-19.08 983.58,-25.28 985.57,-18.57"/>
</a>
</g>
</g>
<!-- Node8 -->
<g id="Node000008" class="node">
<title>Node8</title>
<g id="a_Node000008"><a xlink:title=" ">
<polygon fill="#e0e0e0" stroke="#999999" points="1175.5,-19 1020.5,-19 1020.5,0 1175.5,0 1175.5,-19"/>
<text text-anchor="middle" x="1098" y="-7" font-family="Malgun Gothic" font-size="10.00">UVFXDataAsset.generated.h</text>
</a>
</g>
</g>
<!-- Node6&#45;&gt;Node8 -->
<g id="edge9_Node000006_Node000008" class="edge">
<title>Node6&#45;&gt;Node8</title>
<g id="a_edge9_Node000006_Node000008"><a xlink:title=" ">
<path fill="none" stroke="#63b8ff" d="M1120.54,-54.75C1116.88,-47.57 1111.59,-37.18 1107.05,-28.27"/>
<polygon fill="#63b8ff" stroke="#63b8ff" points="1110.03,-26.41 1102.38,-19.09 1103.8,-29.59 1110.03,-26.41"/>
</a>
</g>
</g>
<!-- Node12&#45;&gt;Node3 -->
<g id="edge14_Node000012_Node000003" class="edge">
<title>Node12&#45;&gt;Node3</title>
<g id="a_edge14_Node000012_Node000003"><a xlink:title=" ">
<path fill="none" stroke="#63b8ff" d="M345.67,-109.95C369.73,-101.43 407.23,-87.69 439,-74 456.71,-66.37 459.88,-61.58 478,-55 518.99,-40.11 567.03,-28.47 603.02,-20.83"/>
<polygon fill="#63b8ff" stroke="#63b8ff" points="603.76,-24.25 612.83,-18.78 602.33,-17.4 603.76,-24.25"/>
</a>
</g>
</g>
<!-- Node13 -->
<g id="Node000013" class="node">
<title>Node13</title>
<g id="a_Node000013"><a xlink:title=" ">
<polygon fill="#e0e0e0" stroke="#999999" points="317.5,-74 198.5,-74 198.5,-55 317.5,-55 317.5,-74"/>
<text text-anchor="middle" x="258" y="-62" font-family="Malgun Gothic" font-size="10.00">Logging/LogMacros.h</text>
</a>
</g>
</g>
<!-- Node12&#45;&gt;Node13 -->
<g id="edge15_Node000012_Node000013" class="edge">
<title>Node12&#45;&gt;Node13</title>
<g id="a_edge15_Node000012_Node000013"><a xlink:title=" ">
<path fill="none" stroke="#63b8ff" d="M310.88,-109.98C301.56,-102.15 287.53,-90.34 276.26,-80.86"/>
<polygon fill="#63b8ff" stroke="#63b8ff" points="278.21,-77.93 268.31,-74.17 273.71,-83.29 278.21,-77.93"/>
</a>
</g>
</g>
<!-- Node14 -->
<g id="Node000014" class="node">
<title>Node14</title>
<g id="a_Node000014"><a xlink:title=" ">
<polygon fill="#e0e0e0" stroke="#999999" points="430.5,-74 335.5,-74 335.5,-55 430.5,-55 430.5,-74"/>
<text text-anchor="middle" x="383" y="-62" font-family="Malgun Gothic" font-size="10.00">Engine/Engine.h</text>
</a>
</g>
</g>
<!-- Node12&#45;&gt;Node14 -->
<g id="edge16_Node000012_Node000014" class="edge">
<title>Node12&#45;&gt;Node14</title>
<g id="a_edge16_Node000012_Node000014"><a xlink:title=" ">
<path fill="none" stroke="#63b8ff" d="M330.96,-109.98C340.13,-102.15 353.94,-90.34 365.03,-80.86"/>
<polygon fill="#63b8ff" stroke="#63b8ff" points="367.53,-83.33 372.86,-74.17 362.98,-78.01 367.53,-83.33"/>
</a>
</g>
</g>
<!-- Node15 -->
<g id="Node000015" class="node">
<title>Node15</title>
<g id="a_Node000015"><a xlink:href="FLogWriter_8h.html" target="_top" xlink:title="FArchive 클래스를 선언합니다.">
<polygon fill="white" stroke="#666666" points="78,-74 0,-74 0,-55 78,-55 78,-74"/>
<text text-anchor="middle" x="39" y="-62" font-family="Malgun Gothic" font-size="10.00">FLogWriter.h</text>
</a>
</g>
</g>
<!-- Node12&#45;&gt;Node15 -->
<g id="edge17_Node000012_Node000015" class="edge">
<title>Node12&#45;&gt;Node15</title>
<g id="a_edge17_Node000012_Node000015"><a xlink:title=" ">
<path fill="none" stroke="#63b8ff" d="M275.69,-109.98C224.46,-100.36 141.31,-84.73 88.44,-74.79"/>
<polygon fill="#63b8ff" stroke="#63b8ff" points="88.76,-71.29 78.28,-72.88 87.46,-78.17 88.76,-71.29"/>
</a>
</g>
</g>
<!-- Node16 -->
<g id="Node000016" class="node">
<title>Node16</title>
<g id="a_Node000016"><a xlink:href="NetworkLog_8h.html" target="_top" xlink:title="YiSan 전반에서 사용하는 공용 인터페이스를 선언합니다.">
<polygon fill="white" stroke="#666666" points="180,-74 96,-74 96,-55 180,-55 180,-74"/>
<text text-anchor="middle" x="138" y="-62" font-family="Malgun Gothic" font-size="10.00">NetworkLog.h</text>
</a>
</g>
</g>
<!-- Node12&#45;&gt;Node16 -->
<g id="edge19_Node000012_Node000016" class="edge">
<title>Node12&#45;&gt;Node16</title>
<g id="a_edge19_Node000012_Node000016"><a xlink:title=" ">
<path fill="none" stroke="#63b8ff" d="M291.6,-109.98C260.61,-101.01 211.62,-86.82 177.33,-76.89"/>
<polygon fill="#63b8ff" stroke="#63b8ff" points="178.21,-73.5 167.63,-74.08 176.26,-80.23 178.21,-73.5"/>
</a>
</g>
</g>
<!-- Node15&#45;&gt;Node3 -->
<g id="edge18_Node000015_Node000003" class="edge">
<title>Node15&#45;&gt;Node3</title>
<g id="a_edge18_Node000015_Node000003"><a xlink:title=" ">
<path fill="none" stroke="#63b8ff" d="M78.25,-56.23C81.2,-55.78 84.15,-55.36 87,-55 275.73,-30.98 501.37,-17.98 602.86,-12.97"/>
<polygon fill="#63b8ff" stroke="#63b8ff" points="603.05,-16.46 612.87,-12.48 602.71,-9.47 603.05,-16.46"/>
</a>
</g>
</g>
<!-- Node16&#45;&gt;Node3 -->
<g id="edge20_Node000016_Node000003" class="edge">
<title>Node16&#45;&gt;Node3</title>
<g id="a_edge20_Node000016_Node000003"><a xlink:title=" ">
<path fill="none" stroke="#63b8ff" d="M180.27,-56.22C183.22,-55.78 186.15,-55.37 189,-55 338.12,-35.51 515.03,-21.02 602.47,-14.43"/>
<polygon fill="#63b8ff" stroke="#63b8ff" points="602.97,-17.91 612.68,-13.67 602.45,-10.93 602.97,-17.91"/>
</a>
</g>
</g>
<!-- Node18&#45;&gt;Node3 -->
<g id="edge24_Node000018_Node000003" class="edge">
<title>Node18&#45;&gt;Node3</title>
<g id="a_edge24_Node000018_Node000003"><a xlink:title=" ">
<path fill="none" stroke="#63b8ff" d="M933.55,-109.91C964.62,-98.84 1008.33,-78.24 988,-55 970.1,-34.53 800.73,-20.17 711.47,-13.95"/>
<polygon fill="#63b8ff" stroke="#63b8ff" points="711.47,-10.44 701.25,-13.25 710.99,-17.43 711.47,-10.44"/>
</a>
</g>
</g>
<!-- Node19 -->
<g id="Node000019" class="node">
<title>Node19</title>
<g id="a_Node000019"><a xlink:title=" ">
<polygon fill="#e0e0e0" stroke="#999999" points="624.5,-74 487.5,-74 487.5,-55 624.5,-55 624.5,-74"/>
<text text-anchor="middle" x="556" y="-62" font-family="Malgun Gothic" font-size="10.00">GameFramework/Actor.h</text>
</a>
</g>
</g>
<!-- Node18&#45;&gt;Node19 -->
<g id="edge25_Node000018_Node000019" class="edge">
<title>Node18&#45;&gt;Node19</title>
<g id="a_edge25_Node000018_Node000019"><a xlink:title=" ">
<path fill="none" stroke="#63b8ff" d="M849.77,-109.98C787.86,-100.61 688.41,-85.55 622.64,-75.59"/>
<polygon fill="#63b8ff" stroke="#63b8ff" points="622.8,-72.07 612.38,-74.04 621.75,-79 622.8,-72.07"/>
</a>
</g>
</g>
<!-- Node20 -->
<g id="Node000020" class="node">
<title>Node20</title>
<g id="a_Node000020"><a xlink:title=" ">
<polygon fill="#e0e0e0" stroke="#999999" points="815,-74 643,-74 643,-55 815,-55 815,-74"/>
<text text-anchor="middle" x="729" y="-62" font-family="Malgun Gothic" font-size="10.00">Components/ActorComponent.h</text>
</a>
</g>
</g>
<!-- Node18&#45;&gt;Node20 -->
<g id="edge26_Node000018_Node000020" class="edge">
<title>Node18&#45;&gt;Node20</title>
<g id="a_edge26_Node000018_Node000020"><a xlink:title=" ">
<path fill="none" stroke="#63b8ff" d="M877.56,-109.98C847.72,-101.05 800.62,-86.94 767.47,-77.02"/>
<polygon fill="#63b8ff" stroke="#63b8ff" points="768.24,-73.6 757.66,-74.08 766.24,-80.3 768.24,-73.6"/>
</a>
</g>
</g>
<!-- Node21 -->
<g id="Node000021" class="node">
<title>Node21</title>
<g id="a_Node000021"><a xlink:title=" ">
<polygon fill="#e0e0e0" stroke="#999999" points="979,-74 833,-74 833,-55 979,-55 979,-74"/>
<text text-anchor="middle" x="906" y="-62" font-family="Malgun Gothic" font-size="10.00">Kismet/GameplayStatics.h</text>
</a>
</g>
</g>
<!-- Node18&#45;&gt;Node21 -->
<g id="edge27_Node000018_Node000021" class="edge">
<title>Node18&#45;&gt;Node21</title>
<g id="a_edge27_Node000018_Node000021"><a xlink:title=" ">
<path fill="none" stroke="#63b8ff" d="M906,-109.75C906,-102.8 906,-92.85 906,-84.13"/>
<polygon fill="#63b8ff" stroke="#63b8ff" points="909.5,-84.09 906,-74.09 902.5,-84.09 909.5,-84.09"/>
</a>
</g>
</g>
</g>
</svg>

<g id="navigator" transform="translate(0 0)" fill="#404254">
  <rect fill="#f2f5e9" fill-opacity="0.5" stroke="#606060" stroke-width=".5" x="0" y="0" width="60" height="60"/>
  <use id="zoomplus" xlink:href="#zoomPlus" x="17" y="9" onmousedown="handleZoom(evt,'in')"/>
  <use id="zoomminus" xlink:href="#zoomMin" x="42" y="9" onmousedown="handleZoom(evt,'out')"/>
  <use id="reset" xlink:href="#resetDef" x="30" y="36" onmousedown="handleReset()"/>
   <use id="arrowup" xlink:href="#arrowUp" x="0" y="0" onmousedown="handlePan(0,-1)"/>
  <use id="arrowright" xlink:href="#arrowRight" x="0" y="0" onmousedown="handlePan(1,0)"/>
  <use id="arrowdown" xlink:href="#arrowDown" x="0" y="0" onmousedown="handlePan(0,1)"/>
  <use id="arrowleft" xlink:href="#arrowLeft" x="0" y="0" onmousedown="handlePan(-1,0)"/>
</g>
<svg viewBox="0 0 15 15" width="100%" height="30px" preserveAspectRatio="xMaxYMin meet">
 <g id="arrow_out" transform="scale(0.3 0.3)">
  <a xlink:href="UGameVFXManager_8cpp__incl_org.svg" target="_base">
   <rect id="button" ry="5" rx="5" y="6" x="6" height="38" width="38"
        fill="#f2f5e9" fill-opacity="0.5" stroke="#606060" stroke-width="1.0"/>
   <path id="arrow"
     d="M 11.500037,31.436501 C 11.940474,20.09759 22.043105,11.32322 32.158766,21.979434 L 37.068811,17.246167 C 37.068811,17.246167 37.088388,32 37.088388,32 L 22.160133,31.978069 C 22.160133,31.978069 26.997745,27.140456 26.997745,27.140456 C 18.528582,18.264221 13.291696,25.230495 11.500037,31.436501 z"
     style="fill:#404040;"/>
  </a>
 </g>
</svg>

<style type='text/css'>
<![CDATA[
[data-mouse-over-selected='false'] { opacity: 0.7; }
[data-mouse-over-selected='true']  { opacity: 1.0; }
]]>
</style>
<script type="application/ecmascript"><![CDATA[
document.addEventListener('DOMContentLoaded', (event) => {
  highlightEdges();
  highlightAdjacentNodes();
});
]]></script>
</svg>
