<?xml version="1.0" encoding="UTF-8" standalone="no"?>
<!DOCTYPE svg PUBLIC "-//W3C//DTD SVG 1.1//EN"
 "http://www.w3.org/Graphics/SVG/1.1/DTD/svg11.dtd">
<!-- Generated by graphviz version 2.43.0 (0)
 -->
<!-- Title: Source/Onepiece/Character/Private/UHitStopSystem.cpp Pages: 1 -->
<svg width="1820pt" height="214pt"
 viewBox="0.00 0.00 1820.00 214.00" xmlns="http://www.w3.org/2000/svg" xmlns:xlink="http://www.w3.org/1999/xlink">
<g id="graph0" class="graph" transform="scale(1 1) rotate(0) translate(4 210)">
<title>Source/Onepiece/Character/Private/UHitStopSystem.cpp</title>
<!-- Node1 -->
<g id="Node000001" class="node">
<title>Node1</title>
<g id="a_Node000001"><a xlink:title="UHitStopSystem의 동작을 구현합니다.">
<polygon fill="#999999" stroke="#666666" points="863,-206 705,-206 705,-176 863,-176 863,-206"/>
<text text-anchor="start" x="713" y="-194" font-family="Malgun Gothic" font-size="10.00">Source/Onepiece/Character</text>
<text text-anchor="middle" x="784" y="-183" font-family="Malgun Gothic" font-size="10.00">/Private/UHitStopSystem.cpp</text>
</a>
</g>
</g>
<!-- Node2 -->
<g id="Node000002" class="node">
<title>Node2</title>
<g id="a_Node000002"><a xlink:href="UHitStopSystem_8h.html" target="_top" xlink:title="UHitStopSystem 클래스를 선언합니다.">
<polygon fill="white" stroke="#666666" points="467,-134.5 361,-134.5 361,-115.5 467,-115.5 467,-134.5"/>
<text text-anchor="middle" x="414" y="-122.5" font-family="Malgun Gothic" font-size="10.00">UHitStopSystem.h</text>
</a>
</g>
</g>
<!-- Node1&#45;&gt;Node2 -->
<g id="edge1_Node000001_Node000002" class="edge">
<title>Node1&#45;&gt;Node2</title>
<g id="a_edge1_Node000001_Node000002"><a xlink:title=" ">
<path fill="none" stroke="#63b8ff" d="M704.63,-176.27C635.23,-164.27 536.02,-147.11 473.33,-136.26"/>
<polygon fill="#63b8ff" stroke="#63b8ff" points="473.66,-132.77 463.21,-134.51 472.46,-139.66 473.66,-132.77"/>
</a>
</g>
</g>
<!-- Node10 -->
<g id="Node000010" class="node">
<title>Node10</title>
<g id="a_Node000010"><a xlink:title=" ">
<polygon fill="#e0e0e0" stroke="#999999" points="704.5,-134.5 545.5,-134.5 545.5,-115.5 704.5,-115.5 704.5,-134.5"/>
<text text-anchor="middle" x="625" y="-122.5" font-family="Malgun Gothic" font-size="10.00">GameFramework/Character.h</text>
</a>
</g>
</g>
<!-- Node1&#45;&gt;Node10 -->
<g id="edge10_Node000001_Node000010" class="edge">
<title>Node1&#45;&gt;Node10</title>
<g id="a_edge10_Node000001_Node000010"><a xlink:title=" ">
<path fill="none" stroke="#63b8ff" d="M749.11,-175.95C721.22,-164.73 682.51,-149.15 655.77,-138.39"/>
<polygon fill="#63b8ff" stroke="#63b8ff" points="656.74,-135 646.16,-134.52 654.13,-141.5 656.74,-135"/>
</a>
</g>
</g>
<!-- Node11 -->
<g id="Node000011" class="node">
<title>Node11</title>
<g id="a_Node000011"><a xlink:href="UBroadcastManager_8h.html" target="_top" xlink:title=" ">
<polygon fill="white" stroke="#666666" points="846,-134.5 722,-134.5 722,-115.5 846,-115.5 846,-134.5"/>
<text text-anchor="middle" x="784" y="-122.5" font-family="Malgun Gothic" font-size="10.00">UBroadcastManager.h</text>
</a>
</g>
</g>
<!-- Node1&#45;&gt;Node11 -->
<g id="edge11_Node000001_Node000011" class="edge">
<title>Node1&#45;&gt;Node11</title>
<g id="a_edge11_Node000001_Node000011"><a xlink:title=" ">
<path fill="none" stroke="#63b8ff" d="M784,-175.8C784,-166.7 784,-154.79 784,-144.9"/>
<polygon fill="#63b8ff" stroke="#63b8ff" points="787.5,-144.84 784,-134.84 780.5,-144.84 787.5,-144.84"/>
</a>
</g>
</g>
<!-- Node15 -->
<g id="Node000015" class="node">
<title>Node15</title>
<g id="a_Node000015"><a xlink:href="UGameDataManager_8h.html" target="_top" xlink:title="UGameDataManager 클래스를 선언합니다.">
<polygon fill="white" stroke="#666666" points="1095,-134.5 967,-134.5 967,-115.5 1095,-115.5 1095,-134.5"/>
<text text-anchor="middle" x="1031" y="-122.5" font-family="Malgun Gothic" font-size="10.00">UGameDataManager.h</text>
</a>
</g>
</g>
<!-- Node1&#45;&gt;Node15 -->
<g id="edge17_Node000001_Node000015" class="edge">
<title>Node1&#45;&gt;Node15</title>
<g id="a_edge17_Node000001_Node000015"><a xlink:title=" ">
<path fill="none" stroke="#63b8ff" d="M838.21,-175.95C883.34,-164.26 946.72,-147.84 988.31,-137.06"/>
<polygon fill="#63b8ff" stroke="#63b8ff" points="989.33,-140.41 998.13,-134.52 987.57,-133.64 989.33,-140.41"/>
</a>
</g>
</g>
<!-- Node24 -->
<g id="Node000024" class="node">
<title>Node24</title>
<g id="a_Node000024"><a xlink:title=" ">
<polygon fill="#e0e0e0" stroke="#999999" points="1316.5,-140 1113.5,-140 1113.5,-110 1316.5,-110 1316.5,-140"/>
<text text-anchor="start" x="1121.5" y="-128" font-family="Malgun Gothic" font-size="10.00">GameFramework/CharacterMovement</text>
<text text-anchor="middle" x="1215" y="-117" font-family="Malgun Gothic" font-size="10.00">Component.h</text>
</a>
</g>
</g>
<!-- Node1&#45;&gt;Node24 -->
<g id="edge38_Node000001_Node000024" class="edge">
<title>Node1&#45;&gt;Node24</title>
<g id="a_edge38_Node000001_Node000024"><a xlink:title=" ">
<path fill="none" stroke="#63b8ff" d="M863.05,-178.26C932.59,-167.94 1034.34,-152.83 1110.57,-141.51"/>
<polygon fill="#63b8ff" stroke="#63b8ff" points="1111.3,-144.94 1120.67,-140.01 1110.27,-138.01 1111.3,-144.94"/>
</a>
</g>
</g>
<!-- Node3 -->
<g id="Node000003" class="node">
<title>Node3</title>
<g id="a_Node000003"><a xlink:title=" ">
<polygon fill="#e0e0e0" stroke="#999999" points="993,-19 905,-19 905,0 993,0 993,-19"/>
<text text-anchor="middle" x="949" y="-7" font-family="Malgun Gothic" font-size="10.00">CoreMinimal.h</text>
</a>
</g>
</g>
<!-- Node2&#45;&gt;Node3 -->
<g id="edge2_Node000002_Node000003" class="edge">
<title>Node2&#45;&gt;Node3</title>
<g id="a_edge2_Node000002_Node000003"><a xlink:title=" ">
<path fill="none" stroke="#63b8ff" d="M413.51,-115.14C413.21,-100.15 415.04,-69.94 433,-55 441.8,-47.68 763.4,-23.83 894.36,-14.39"/>
<polygon fill="#63b8ff" stroke="#63b8ff" points="894.84,-17.87 904.56,-13.66 894.34,-10.88 894.84,-17.87"/>
</a>
</g>
</g>
<!-- Node4 -->
<g id="Node000004" class="node">
<title>Node4</title>
<g id="a_Node000004"><a xlink:title=" ">
<polygon fill="#e0e0e0" stroke="#999999" points="348,-74 176,-74 176,-55 348,-55 348,-74"/>
<text text-anchor="middle" x="262" y="-62" font-family="Malgun Gothic" font-size="10.00">Components/ActorComponent.h</text>
</a>
</g>
</g>
<!-- Node2&#45;&gt;Node4 -->
<g id="edge3_Node000002_Node000004" class="edge">
<title>Node2&#45;&gt;Node4</title>
<g id="a_edge3_Node000002_Node000004"><a xlink:title=" ">
<path fill="none" stroke="#63b8ff" d="M391.9,-115.49C366.01,-105.53 322.92,-88.95 293.53,-77.63"/>
<polygon fill="#63b8ff" stroke="#63b8ff" points="294.72,-74.34 284.13,-74.02 292.2,-80.88 294.72,-74.34"/>
</a>
</g>
</g>
<!-- Node5 -->
<g id="Node000005" class="node">
<title>Node5</title>
<g id="a_Node000005"><a xlink:href="FHitStopData_8h.html" target="_top" xlink:title="FHitStopData 구조체를 선언합니다.">
<polygon fill="white" stroke="#666666" points="727.5,-74 636.5,-74 636.5,-55 727.5,-55 727.5,-74"/>
<text text-anchor="middle" x="682" y="-62" font-family="Malgun Gothic" font-size="10.00">FHitStopData.h</text>
</a>
</g>
</g>
<!-- Node2&#45;&gt;Node5 -->
<g id="edge4_Node000002_Node000005" class="edge">
<title>Node2&#45;&gt;Node5</title>
<g id="a_edge4_Node000002_Node000005"><a xlink:title=" ">
<path fill="none" stroke="#63b8ff" d="M452.97,-115.49C500.6,-105.1 581.25,-87.49 633.03,-76.19"/>
<polygon fill="#63b8ff" stroke="#63b8ff" points="633.96,-79.57 642.98,-74.02 632.47,-72.73 633.96,-79.57"/>
</a>
</g>
</g>
<!-- Node9 -->
<g id="Node000009" class="node">
<title>Node9</title>
<g id="a_Node000009"><a xlink:title=" ">
<polygon fill="#e0e0e0" stroke="#999999" points="158,-74 0,-74 0,-55 158,-55 158,-74"/>
<text text-anchor="middle" x="79" y="-62" font-family="Malgun Gothic" font-size="10.00">UHitStopSystem.generated.h</text>
</a>
</g>
</g>
<!-- Node2&#45;&gt;Node9 -->
<g id="edge9_Node000002_Node000009" class="edge">
<title>Node2&#45;&gt;Node9</title>
<g id="a_edge9_Node000002_Node000009"><a xlink:title=" ">
<path fill="none" stroke="#63b8ff" d="M365.29,-115.49C305,-104.97 202.41,-87.05 137.8,-75.77"/>
<polygon fill="#63b8ff" stroke="#63b8ff" points="138.22,-72.29 127.77,-74.02 137.02,-79.18 138.22,-72.29"/>
</a>
</g>
</g>
<!-- Node5&#45;&gt;Node3 -->
<g id="edge5_Node000005_Node000003" class="edge">
<title>Node5&#45;&gt;Node3</title>
<g id="a_edge5_Node000005_Node000003"><a xlink:title=" ">
<path fill="none" stroke="#63b8ff" d="M724.9,-54.98C771.37,-45.76 845.59,-31.03 895.76,-21.07"/>
<polygon fill="#63b8ff" stroke="#63b8ff" points="896.64,-24.46 905.77,-19.08 895.28,-17.6 896.64,-24.46"/>
</a>
</g>
</g>
<!-- Node6 -->
<g id="Node000006" class="node">
<title>Node6</title>
<g id="a_Node000006"><a xlink:href="EDamageType_8h.html" target="_top" xlink:title="EDamageType 클래스를 선언합니다.">
<polygon fill="white" stroke="#666666" points="658.5,-19 563.5,-19 563.5,0 658.5,0 658.5,-19"/>
<text text-anchor="middle" x="611" y="-7" font-family="Malgun Gothic" font-size="10.00">EDamageType.h</text>
</a>
</g>
</g>
<!-- Node5&#45;&gt;Node6 -->
<g id="edge6_Node000005_Node000006" class="edge">
<title>Node5&#45;&gt;Node6</title>
<g id="a_edge6_Node000005_Node000006"><a xlink:title=" ">
<path fill="none" stroke="#63b8ff" d="M670.59,-54.98C659.89,-47 643.66,-34.88 630.84,-25.31"/>
<polygon fill="#63b8ff" stroke="#63b8ff" points="632.72,-22.35 622.61,-19.17 628.53,-27.96 632.72,-22.35"/>
</a>
</g>
</g>
<!-- Node7 -->
<g id="Node000007" class="node">
<title>Node7</title>
<g id="a_Node000007"><a xlink:title=" ">
<polygon fill="#e0e0e0" stroke="#999999" points="1301,-19 1191,-19 1191,0 1301,0 1301,-19"/>
<text text-anchor="middle" x="1246" y="-7" font-family="Malgun Gothic" font-size="10.00">Engine/DataTable.h</text>
</a>
</g>
</g>
<!-- Node5&#45;&gt;Node7 -->
<g id="edge7_Node000005_Node000007" class="edge">
<title>Node5&#45;&gt;Node7</title>
<g id="a_edge7_Node000005_Node000007"><a xlink:title=" ">
<path fill="none" stroke="#63b8ff" d="M727.88,-59.28C742.9,-57.91 759.66,-56.38 775,-55 952.16,-39.05 999.24,-38.75 1180.55,-19"/>
<polygon fill="#63b8ff" stroke="#63b8ff" points="1181.14,-22.46 1190.7,-17.89 1180.38,-15.5 1181.14,-22.46"/>
</a>
</g>
</g>
<!-- Node8 -->
<g id="Node000008" class="node">
<title>Node8</title>
<g id="a_Node000008"><a xlink:title=" ">
<polygon fill="#e0e0e0" stroke="#999999" points="819.5,-19 676.5,-19 676.5,0 819.5,0 819.5,-19"/>
<text text-anchor="middle" x="748" y="-7" font-family="Malgun Gothic" font-size="10.00">FHitStopData.generated.h</text>
</a>
</g>
</g>
<!-- Node5&#45;&gt;Node8 -->
<g id="edge8_Node000005_Node000008" class="edge">
<title>Node5&#45;&gt;Node8</title>
<g id="a_edge8_Node000005_Node000008"><a xlink:title=" ">
<path fill="none" stroke="#63b8ff" d="M692.6,-54.98C702.46,-47.07 717.35,-35.11 729.22,-25.58"/>
<polygon fill="#63b8ff" stroke="#63b8ff" points="731.6,-28.16 737.2,-19.17 727.21,-22.7 731.6,-28.16"/>
</a>
</g>
</g>
<!-- Node11&#45;&gt;Node3 -->
<g id="edge12_Node000011_Node000003" class="edge">
<title>Node11&#45;&gt;Node3</title>
<g id="a_edge12_Node000011_Node000003"><a xlink:title=" ">
<path fill="none" stroke="#63b8ff" d="M779.26,-115.33C772.21,-101.13 761.22,-72.75 775,-55 789.67,-36.11 849.23,-23.88 894.62,-17.11"/>
<polygon fill="#63b8ff" stroke="#63b8ff" points="895.25,-20.56 904.65,-15.67 894.26,-13.63 895.25,-20.56"/>
</a>
</g>
</g>
<!-- Node11&#45;&gt;Node6 -->
<g id="edge14_Node000011_Node000006" class="edge">
<title>Node11&#45;&gt;Node6</title>
<g id="a_edge14_Node000011_Node000006"><a xlink:title=" ">
<path fill="none" stroke="#63b8ff" d="M743.16,-115.46C733.31,-113.54 722.8,-111.59 713,-110 651.08,-99.93 474.44,-121.1 433,-74 395.87,-31.79 488.17,-17.64 553.29,-12.89"/>
<polygon fill="#63b8ff" stroke="#63b8ff" points="553.74,-16.37 563.48,-12.21 553.27,-9.39 553.74,-16.37"/>
</a>
</g>
</g>
<!-- Node12 -->
<g id="Node000012" class="node">
<title>Node12</title>
<g id="a_Node000012"><a xlink:href="Macro_8h.html" target="_top" xlink:title="YiSan 전반에서 사용하는 공용 인터페이스를 선언합니다.">
<polygon fill="white" stroke="#666666" points="840,-74 784,-74 784,-55 840,-55 840,-74"/>
<text text-anchor="middle" x="812" y="-62" font-family="Malgun Gothic" font-size="10.00">Macro.h</text>
</a>
</g>
</g>
<!-- Node11&#45;&gt;Node12 -->
<g id="edge13_Node000011_Node000012" class="edge">
<title>Node11&#45;&gt;Node12</title>
<g id="a_edge13_Node000011_Node000012"><a xlink:title=" ">
<path fill="none" stroke="#63b8ff" d="M788.13,-115.37C792.14,-106.99 798.35,-94.01 803.44,-83.39"/>
<polygon fill="#63b8ff" stroke="#63b8ff" points="806.69,-84.7 807.85,-74.17 800.38,-81.68 806.69,-84.7"/>
</a>
</g>
</g>
<!-- Node13 -->
<g id="Node000013" class="node">
<title>Node13</title>
<g id="a_Node000013"><a xlink:title=" ">
<polygon fill="#e0e0e0" stroke="#999999" points="1070,-74 858,-74 858,-55 1070,-55 1070,-74"/>
<text text-anchor="middle" x="964" y="-62" font-family="Malgun Gothic" font-size="10.00">Subsystems/GameInstanceSubsystem.h</text>
</a>
</g>
</g>
<!-- Node11&#45;&gt;Node13 -->
<g id="edge15_Node000011_Node000013" class="edge">
<title>Node11&#45;&gt;Node13</title>
<g id="a_edge15_Node000011_Node000013"><a xlink:title=" ">
<path fill="none" stroke="#63b8ff" d="M810.17,-115.49C841.23,-105.4 893.19,-88.51 928.02,-77.19"/>
<polygon fill="#63b8ff" stroke="#63b8ff" points="929.37,-80.44 937.79,-74.02 927.2,-73.78 929.37,-80.44"/>
</a>
</g>
</g>
<!-- Node14 -->
<g id="Node000014" class="node">
<title>Node14</title>
<g id="a_Node000014"><a xlink:title=" ">
<polygon fill="#e0e0e0" stroke="#999999" points="618,-74 442,-74 442,-55 618,-55 618,-74"/>
<text text-anchor="middle" x="530" y="-62" font-family="Malgun Gothic" font-size="10.00">UBroadcastManager.generated.h</text>
</a>
</g>
</g>
<!-- Node11&#45;&gt;Node14 -->
<g id="edge16_Node000011_Node000014" class="edge">
<title>Node11&#45;&gt;Node14</title>
<g id="a_edge16_Node000011_Node000014"><a xlink:title=" ">
<path fill="none" stroke="#63b8ff" d="M747.07,-115.49C702.11,-105.14 626.12,-87.64 577.03,-76.33"/>
<polygon fill="#63b8ff" stroke="#63b8ff" points="577.51,-72.85 566.98,-74.02 575.94,-79.67 577.51,-72.85"/>
</a>
</g>
</g>
<!-- Node15&#45;&gt;Node3 -->
<g id="edge18_Node000015_Node000003" class="edge">
<title>Node15&#45;&gt;Node3</title>
<g id="a_edge18_Node000015_Node000003"><a xlink:title=" ">
<path fill="none" stroke="#63b8ff" d="M1044.58,-115.45C1063.67,-102.37 1094.44,-76.61 1079,-55 1069.35,-41.5 1031.8,-29.53 999.52,-21.42"/>
<polygon fill="#63b8ff" stroke="#63b8ff" points="1000.26,-17.99 989.71,-19.03 998.6,-24.79 1000.26,-17.99"/>
</a>
</g>
</g>
<!-- Node15&#45;&gt;Node5 -->
<g id="edge20_Node000015_Node000005" class="edge">
<title>Node15&#45;&gt;Node5</title>
<g id="a_edge20_Node000015_Node000005"><a xlink:title=" ">
<path fill="none" stroke="#63b8ff" d="M980.25,-115.49C915.61,-104.66 804.28,-86 737.46,-74.8"/>
<polygon fill="#63b8ff" stroke="#63b8ff" points="737.97,-71.33 727.53,-73.13 736.81,-78.24 737.97,-71.33"/>
</a>
</g>
</g>
<!-- Node15&#45;&gt;Node12 -->
<g id="edge19_Node000015_Node000012" class="edge">
<title>Node15&#45;&gt;Node12</title>
<g id="a_edge19_Node000015_Node000012"><a xlink:title=" ">
<path fill="none" stroke="#63b8ff" d="M999.16,-115.49C959.59,-104.93 892.16,-86.91 849.96,-75.64"/>
<polygon fill="#63b8ff" stroke="#63b8ff" points="850.62,-72.19 840.06,-73 848.82,-78.96 850.62,-72.19"/>
</a>
</g>
</g>
<!-- Node15&#45;&gt;Node13 -->
<g id="edge36_Node000015_Node000013" class="edge">
<title>Node15&#45;&gt;Node13</title>
<g id="a_edge36_Node000015_Node000013"><a xlink:title=" ">
<path fill="none" stroke="#63b8ff" d="M1021.11,-115.37C1010.72,-106.3 994.16,-91.84 981.55,-80.82"/>
<polygon fill="#63b8ff" stroke="#63b8ff" points="983.76,-78.11 973.93,-74.17 979.16,-83.38 983.76,-78.11"/>
</a>
</g>
</g>
<!-- Node16 -->
<g id="Node000016" class="node">
<title>Node16</title>
<g id="a_Node000016"><a xlink:href="FKnockbackData_8h.html" target="_top" xlink:title="FKnockbackData 구조체를 선언합니다.">
<polygon fill="white" stroke="#666666" points="1234,-74 1126,-74 1126,-55 1234,-55 1234,-74"/>
<text text-anchor="middle" x="1180" y="-62" font-family="Malgun Gothic" font-size="10.00">FKnockbackData.h</text>
</a>
</g>
</g>
<!-- Node15&#45;&gt;Node16 -->
<g id="edge21_Node000015_Node000016" class="edge">
<title>Node15&#45;&gt;Node16</title>
<g id="a_edge21_Node000015_Node000016"><a xlink:title=" ">
<path fill="none" stroke="#63b8ff" d="M1052.67,-115.49C1077.94,-105.57 1119.91,-89.09 1148.72,-77.78"/>
<polygon fill="#63b8ff" stroke="#63b8ff" points="1150.28,-80.93 1158.31,-74.02 1147.72,-74.41 1150.28,-80.93"/>
</a>
</g>
</g>
<!-- Node18 -->
<g id="Node000018" class="node">
<title>Node18</title>
<g id="a_Node000018"><a xlink:href="FCharacterInfoData_8h.html" target="_top" xlink:title="FCharacterInfoData 구조체를 선언합니다.">
<polygon fill="white" stroke="#666666" points="1373.5,-74 1252.5,-74 1252.5,-55 1373.5,-55 1373.5,-74"/>
<text text-anchor="middle" x="1313" y="-62" font-family="Malgun Gothic" font-size="10.00">FCharacterInfoData.h</text>
</a>
</g>
</g>
<!-- Node15&#45;&gt;Node18 -->
<g id="edge26_Node000015_Node000018" class="edge">
<title>Node15&#45;&gt;Node18</title>
<g id="a_edge26_Node000015_Node000018"><a xlink:title=" ">
<path fill="none" stroke="#63b8ff" d="M1072.01,-115.49C1122.34,-105.05 1207.69,-87.35 1262.15,-76.05"/>
<polygon fill="#63b8ff" stroke="#63b8ff" points="1262.86,-79.48 1271.95,-74.02 1261.44,-72.62 1262.86,-79.48"/>
</a>
</g>
</g>
<!-- Node21 -->
<g id="Node000021" class="node">
<title>Node21</title>
<g id="a_Node000021"><a xlink:href="FCharacterAssetData_8h.html" target="_top" xlink:title="UCharacterData 클래스를 선언합니다.">
<polygon fill="white" stroke="#666666" points="1719.5,-74 1590.5,-74 1590.5,-55 1719.5,-55 1719.5,-74"/>
<text text-anchor="middle" x="1655" y="-62" font-family="Malgun Gothic" font-size="10.00">FCharacterAssetData.h</text>
</a>
</g>
</g>
<!-- Node15&#45;&gt;Node21 -->
<g id="edge31_Node000015_Node000021" class="edge">
<title>Node15&#45;&gt;Node21</title>
<g id="a_edge31_Node000015_Node000021"><a xlink:title=" ">
<path fill="none" stroke="#63b8ff" d="M1071.03,-115.47C1081.7,-113.43 1093.26,-111.43 1104,-110 1311.45,-82.37 1367.61,-93.76 1580.2,-74.03"/>
<polygon fill="#63b8ff" stroke="#63b8ff" points="1580.81,-77.49 1590.44,-73.07 1580.16,-70.52 1580.81,-77.49"/>
</a>
</g>
</g>
<!-- Node23 -->
<g id="Node000023" class="node">
<title>Node23</title>
<g id="a_Node000023"><a xlink:title=" ">
<polygon fill="#e0e0e0" stroke="#999999" points="1572,-74 1392,-74 1392,-55 1572,-55 1572,-74"/>
<text text-anchor="middle" x="1482" y="-62" font-family="Malgun Gothic" font-size="10.00">UGameDataManager.generated.h</text>
</a>
</g>
</g>
<!-- Node15&#45;&gt;Node23 -->
<g id="edge37_Node000015_Node000023" class="edge">
<title>Node15&#45;&gt;Node23</title>
<g id="a_edge37_Node000015_Node000023"><a xlink:title=" ">
<path fill="none" stroke="#63b8ff" d="M1072.6,-115.48C1082.84,-113.54 1093.8,-111.58 1104,-110 1198.84,-95.34 1307.73,-82.99 1384.2,-75.05"/>
<polygon fill="#63b8ff" stroke="#63b8ff" points="1384.71,-78.52 1394.3,-74.01 1383.99,-71.55 1384.71,-78.52"/>
</a>
</g>
</g>
<!-- Node16&#45;&gt;Node3 -->
<g id="edge22_Node000016_Node000003" class="edge">
<title>Node16&#45;&gt;Node3</title>
<g id="a_edge22_Node000016_Node000003"><a xlink:title=" ">
<path fill="none" stroke="#63b8ff" d="M1142.89,-54.98C1103.01,-45.84 1039.54,-31.27 996.16,-21.32"/>
<polygon fill="#63b8ff" stroke="#63b8ff" points="996.93,-17.91 986.41,-19.08 995.37,-24.73 996.93,-17.91"/>
</a>
</g>
</g>
<!-- Node16&#45;&gt;Node6 -->
<g id="edge23_Node000016_Node000006" class="edge">
<title>Node16&#45;&gt;Node6</title>
<g id="a_edge23_Node000016_Node000006"><a xlink:title=" ">
<path fill="none" stroke="#63b8ff" d="M1125.57,-58.87C1006.85,-48.77 730.85,-25.21 668.71,-19.01"/>
<polygon fill="#63b8ff" stroke="#63b8ff" points="668.94,-15.52 658.63,-17.94 668.2,-22.48 668.94,-15.52"/>
</a>
</g>
</g>
<!-- Node16&#45;&gt;Node7 -->
<g id="edge24_Node000016_Node000007" class="edge">
<title>Node16&#45;&gt;Node7</title>
<g id="a_edge24_Node000016_Node000007"><a xlink:title=" ">
<path fill="none" stroke="#63b8ff" d="M1190.6,-54.98C1200.46,-47.07 1215.35,-35.11 1227.22,-25.58"/>
<polygon fill="#63b8ff" stroke="#63b8ff" points="1229.6,-28.16 1235.2,-19.17 1225.21,-22.7 1229.6,-28.16"/>
</a>
</g>
</g>
<!-- Node17 -->
<g id="Node000017" class="node">
<title>Node17</title>
<g id="a_Node000017"><a xlink:title=" ">
<polygon fill="#e0e0e0" stroke="#999999" points="1172.5,-19 1011.5,-19 1011.5,0 1172.5,0 1172.5,-19"/>
<text text-anchor="middle" x="1092" y="-7" font-family="Malgun Gothic" font-size="10.00">FKnockbackData.generated.h</text>
</a>
</g>
</g>
<!-- Node16&#45;&gt;Node17 -->
<g id="edge25_Node000016_Node000017" class="edge">
<title>Node16&#45;&gt;Node17</title>
<g id="a_edge25_Node000016_Node000017"><a xlink:title=" ">
<path fill="none" stroke="#63b8ff" d="M1165.86,-54.98C1152.21,-46.77 1131.31,-34.18 1115.22,-24.49"/>
<polygon fill="#63b8ff" stroke="#63b8ff" points="1116.77,-21.33 1106.4,-19.17 1113.16,-27.33 1116.77,-21.33"/>
</a>
</g>
</g>
<!-- Node18&#45;&gt;Node3 -->
<g id="edge27_Node000018_Node000003" class="edge">
<title>Node18&#45;&gt;Node3</title>
<g id="a_edge27_Node000018_Node000003"><a xlink:title=" ">
<path fill="none" stroke="#63b8ff" d="M1252.46,-55.15C1191.96,-46.73 1096,-33.19 1003.35,-19.18"/>
<polygon fill="#63b8ff" stroke="#63b8ff" points="1003.65,-15.69 993.24,-17.65 1002.6,-22.61 1003.65,-15.69"/>
</a>
</g>
</g>
<!-- Node18&#45;&gt;Node7 -->
<g id="edge29_Node000018_Node000007" class="edge">
<title>Node18&#45;&gt;Node7</title>
<g id="a_edge29_Node000018_Node000007"><a xlink:title=" ">
<path fill="none" stroke="#63b8ff" d="M1302.24,-54.98C1292.23,-47.07 1277.11,-35.11 1265.07,-25.58"/>
<polygon fill="#63b8ff" stroke="#63b8ff" points="1266.97,-22.63 1256.96,-19.17 1262.63,-28.12 1266.97,-22.63"/>
</a>
</g>
</g>
<!-- Node19 -->
<g id="Node000019" class="node">
<title>Node19</title>
<g id="a_Node000019"><a xlink:href="ECharacterType_8h.html" target="_top" xlink:title="ECharacterType 클래스를 선언합니다.">
<polygon fill="white" stroke="#666666" points="1611.5,-19 1510.5,-19 1510.5,0 1611.5,0 1611.5,-19"/>
<text text-anchor="middle" x="1561" y="-7" font-family="Malgun Gothic" font-size="10.00">ECharacterType.h</text>
</a>
</g>
</g>
<!-- Node18&#45;&gt;Node19 -->
<g id="edge28_Node000018_Node000019" class="edge">
<title>Node18&#45;&gt;Node19</title>
<g id="a_edge28_Node000018_Node000019"><a xlink:title=" ">
<path fill="none" stroke="#63b8ff" d="M1352.85,-54.98C1395.83,-45.8 1464.37,-31.15 1510.96,-21.19"/>
<polygon fill="#63b8ff" stroke="#63b8ff" points="1511.79,-24.59 1520.84,-19.08 1510.33,-17.75 1511.79,-24.59"/>
</a>
</g>
</g>
<!-- Node20 -->
<g id="Node000020" class="node">
<title>Node20</title>
<g id="a_Node000020"><a xlink:title=" ">
<polygon fill="#e0e0e0" stroke="#999999" points="1492.5,-19 1319.5,-19 1319.5,0 1492.5,0 1492.5,-19"/>
<text text-anchor="middle" x="1406" y="-7" font-family="Malgun Gothic" font-size="10.00">FCharacterInfoData.generated.h</text>
</a>
</g>
</g>
<!-- Node18&#45;&gt;Node20 -->
<g id="edge30_Node000018_Node000020" class="edge">
<title>Node18&#45;&gt;Node20</title>
<g id="a_edge30_Node000018_Node000020"><a xlink:title=" ">
<path fill="none" stroke="#63b8ff" d="M1327.94,-54.98C1342.5,-46.69 1364.87,-33.94 1381.93,-24.22"/>
<polygon fill="#63b8ff" stroke="#63b8ff" points="1383.83,-27.16 1390.79,-19.17 1380.36,-21.08 1383.83,-27.16"/>
</a>
</g>
</g>
<!-- Node21&#45;&gt;Node3 -->
<g id="edge32_Node000021_Node000003" class="edge">
<title>Node21&#45;&gt;Node3</title>
<g id="a_edge32_Node000021_Node000003"><a xlink:title=" ">
<path fill="none" stroke="#63b8ff" d="M1590.45,-55.88C1587.25,-55.57 1584.09,-55.27 1581,-55 1327.43,-32.57 1259.96,-47.07 1003.2,-19.02"/>
<polygon fill="#63b8ff" stroke="#63b8ff" points="1003.53,-15.54 993.2,-17.92 1002.76,-22.49 1003.53,-15.54"/>
</a>
</g>
</g>
<!-- Node21&#45;&gt;Node7 -->
<g id="edge34_Node000021_Node000007" class="edge">
<title>Node21&#45;&gt;Node7</title>
<g id="a_edge34_Node000021_Node000007"><a xlink:title=" ">
<path fill="none" stroke="#63b8ff" d="M1590.45,-55.25C1523.3,-46.65 1414.8,-32.7 1311.17,-19.15"/>
<polygon fill="#63b8ff" stroke="#63b8ff" points="1311.53,-15.67 1301.16,-17.84 1310.62,-22.61 1311.53,-15.67"/>
</a>
</g>
</g>
<!-- Node21&#45;&gt;Node19 -->
<g id="edge33_Node000021_Node000019" class="edge">
<title>Node21&#45;&gt;Node19</title>
<g id="a_edge33_Node000021_Node000019"><a xlink:title=" ">
<path fill="none" stroke="#63b8ff" d="M1639.9,-54.98C1625.18,-46.69 1602.58,-33.94 1585.33,-24.22"/>
<polygon fill="#63b8ff" stroke="#63b8ff" points="1586.81,-21.03 1576.38,-19.17 1583.37,-27.13 1586.81,-21.03"/>
</a>
</g>
</g>
<!-- Node22 -->
<g id="Node000022" class="node">
<title>Node22</title>
<g id="a_Node000022"><a xlink:title=" ">
<polygon fill="#e0e0e0" stroke="#999999" points="1812,-19 1630,-19 1630,0 1812,0 1812,-19"/>
<text text-anchor="middle" x="1721" y="-7" font-family="Malgun Gothic" font-size="10.00">FCharacterAssetData.generated.h</text>
</a>
</g>
</g>
<!-- Node21&#45;&gt;Node22 -->
<g id="edge35_Node000021_Node000022" class="edge">
<title>Node21&#45;&gt;Node22</title>
<g id="a_edge35_Node000021_Node000022"><a xlink:title=" ">
<path fill="none" stroke="#63b8ff" d="M1665.6,-54.98C1675.46,-47.07 1690.35,-35.11 1702.22,-25.58"/>
<polygon fill="#63b8ff" stroke="#63b8ff" points="1704.6,-28.16 1710.2,-19.17 1700.21,-22.7 1704.6,-28.16"/>
</a>
</g>
</g>
</g>
</svg>
