<?xml version="1.0" encoding="UTF-8" standalone="no"?>
<!DOCTYPE svg PUBLIC "-//W3C//DTD SVG 1.1//EN"
 "http://www.w3.org/Graphics/SVG/1.1/DTD/svg11.dtd">
<!-- Generated by graphviz version 2.43.0 (0)
 -->
<!-- Title: Source/Onepiece/Character/Public/UHitStopSystem.h Pages: 1 -->
<svg width="521pt" height="148pt"
 viewBox="0.00 0.00 521.00 148.00" xmlns="http://www.w3.org/2000/svg" xmlns:xlink="http://www.w3.org/1999/xlink">
<g id="graph0" class="graph" transform="scale(1 1) rotate(0) translate(4 144)">
<title>Source/Onepiece/Character/Public/UHitStopSystem.h</title>
<!-- Node1 -->
<g id="Node000001" class="node">
<title>Node1</title>
<g id="a_Node000001"><a xlink:title="UHitStopSystem 클래스를 선언합니다.">
<polygon fill="#999999" stroke="#666666" points="290.5,-140 141.5,-140 141.5,-110 290.5,-110 290.5,-140"/>
<text text-anchor="start" x="149.5" y="-128" font-family="Malgun Gothic" font-size="10.00">Source/Onepiece/Character</text>
<text text-anchor="middle" x="216" y="-117" font-family="Malgun Gothic" font-size="10.00">/Public/UHitStopSystem.h</text>
</a>
</g>
</g>
<!-- Node2 -->
<g id="Node000002" class="node">
<title>Node2</title>
<g id="a_Node000002"><a xlink:title=" ">
<polygon fill="#e0e0e0" stroke="#999999" points="88,-19 0,-19 0,0 88,0 88,-19"/>
<text text-anchor="middle" x="44" y="-7" font-family="Malgun Gothic" font-size="10.00">CoreMinimal.h</text>
</a>
</g>
</g>
<!-- Node1&#45;&gt;Node2 -->
<g id="edge1_Node000001_Node000002" class="edge">
<title>Node1&#45;&gt;Node2</title>
<g id="a_edge1_Node000001_Node000002"><a xlink:title=" ">
<path fill="none" stroke="#63b8ff" d="M141.29,-121.25C106.7,-115.8 68.39,-102.96 46,-74 36.31,-61.47 36.86,-43.01 39.22,-29.22"/>
<polygon fill="#63b8ff" stroke="#63b8ff" points="42.65,-29.88 41.33,-19.37 35.81,-28.41 42.65,-29.88"/>
</a>
</g>
</g>
<!-- Node3 -->
<g id="Node000003" class="node">
<title>Node3</title>
<g id="a_Node000003"><a xlink:title=" ">
<polygon fill="#e0e0e0" stroke="#999999" points="227,-74 55,-74 55,-55 227,-55 227,-74"/>
<text text-anchor="middle" x="141" y="-62" font-family="Malgun Gothic" font-size="10.00">Components/ActorComponent.h</text>
</a>
</g>
</g>
<!-- Node1&#45;&gt;Node3 -->
<g id="edge2_Node000001_Node000003" class="edge">
<title>Node1&#45;&gt;Node3</title>
<g id="a_edge2_Node000001_Node000003"><a xlink:title=" ">
<path fill="none" stroke="#63b8ff" d="M197.84,-109.84C186.51,-101 171.94,-89.63 160.38,-80.62"/>
<polygon fill="#63b8ff" stroke="#63b8ff" points="162.28,-77.66 152.24,-74.27 157.97,-83.18 162.28,-77.66"/>
</a>
</g>
</g>
<!-- Node4 -->
<g id="Node000004" class="node">
<title>Node4</title>
<g id="a_Node000004"><a xlink:href="FHitStopData_8h.html" target="_top" xlink:title="FHitStopData 구조체를 선언합니다.">
<polygon fill="white" stroke="#666666" points="336.5,-74 245.5,-74 245.5,-55 336.5,-55 336.5,-74"/>
<text text-anchor="middle" x="291" y="-62" font-family="Malgun Gothic" font-size="10.00">FHitStopData.h</text>
</a>
</g>
</g>
<!-- Node1&#45;&gt;Node4 -->
<g id="edge3_Node000001_Node000004" class="edge">
<title>Node1&#45;&gt;Node4</title>
<g id="a_edge3_Node000001_Node000004"><a xlink:title=" ">
<path fill="none" stroke="#63b8ff" d="M234.16,-109.84C245.49,-101 260.06,-89.63 271.62,-80.62"/>
<polygon fill="#63b8ff" stroke="#63b8ff" points="274.03,-83.18 279.76,-74.27 269.72,-77.66 274.03,-83.18"/>
</a>
</g>
</g>
<!-- Node8 -->
<g id="Node000008" class="node">
<title>Node8</title>
<g id="a_Node000008"><a xlink:title=" ">
<polygon fill="#e0e0e0" stroke="#999999" points="513,-74 355,-74 355,-55 513,-55 513,-74"/>
<text text-anchor="middle" x="434" y="-62" font-family="Malgun Gothic" font-size="10.00">UHitStopSystem.generated.h</text>
</a>
</g>
</g>
<!-- Node1&#45;&gt;Node8 -->
<g id="edge8_Node000001_Node000008" class="edge">
<title>Node1&#45;&gt;Node8</title>
<g id="a_edge8_Node000001_Node000008"><a xlink:title=" ">
<path fill="none" stroke="#63b8ff" d="M268.22,-109.99C306.16,-99.8 356.85,-86.2 392.15,-76.73"/>
<polygon fill="#63b8ff" stroke="#63b8ff" points="393.37,-80.03 402.12,-74.05 391.56,-73.27 393.37,-80.03"/>
</a>
</g>
</g>
<!-- Node4&#45;&gt;Node2 -->
<g id="edge4_Node000004_Node000002" class="edge">
<title>Node4&#45;&gt;Node2</title>
<g id="a_edge4_Node000004_Node000002"><a xlink:title=" ">
<path fill="none" stroke="#63b8ff" d="M251.32,-54.98C208.5,-45.8 140.24,-31.15 93.84,-21.19"/>
<polygon fill="#63b8ff" stroke="#63b8ff" points="94.51,-17.76 84,-19.08 93.04,-24.6 94.51,-17.76"/>
</a>
</g>
</g>
<!-- Node5 -->
<g id="Node000005" class="node">
<title>Node5</title>
<g id="a_Node000005"><a xlink:href="EDamageType_8h.html" target="_top" xlink:title="EDamageType 클래스를 선언합니다.">
<polygon fill="white" stroke="#666666" points="217.5,-19 122.5,-19 122.5,0 217.5,0 217.5,-19"/>
<text text-anchor="middle" x="170" y="-7" font-family="Malgun Gothic" font-size="10.00">EDamageType.h</text>
</a>
</g>
</g>
<!-- Node4&#45;&gt;Node5 -->
<g id="edge5_Node000004_Node000005" class="edge">
<title>Node4&#45;&gt;Node5</title>
<g id="a_edge5_Node000004_Node000005"><a xlink:title=" ">
<path fill="none" stroke="#63b8ff" d="M271.56,-54.98C252.01,-46.42 221.62,-33.11 199.18,-23.28"/>
<polygon fill="#63b8ff" stroke="#63b8ff" points="200.36,-19.98 189.79,-19.17 197.55,-26.39 200.36,-19.98"/>
</a>
</g>
</g>
<!-- Node6 -->
<g id="Node000006" class="node">
<title>Node6</title>
<g id="a_Node000006"><a xlink:title=" ">
<polygon fill="#e0e0e0" stroke="#999999" points="346,-19 236,-19 236,0 346,0 346,-19"/>
<text text-anchor="middle" x="291" y="-7" font-family="Malgun Gothic" font-size="10.00">Engine/DataTable.h</text>
</a>
</g>
</g>
<!-- Node4&#45;&gt;Node6 -->
<g id="edge6_Node000004_Node000006" class="edge">
<title>Node4&#45;&gt;Node6</title>
<g id="a_edge6_Node000004_Node000006"><a xlink:title=" ">
<path fill="none" stroke="#63b8ff" d="M291,-54.75C291,-47.8 291,-37.85 291,-29.13"/>
<polygon fill="#63b8ff" stroke="#63b8ff" points="294.5,-29.09 291,-19.09 287.5,-29.09 294.5,-29.09"/>
</a>
</g>
</g>
<!-- Node7 -->
<g id="Node000007" class="node">
<title>Node7</title>
<g id="a_Node000007"><a xlink:title=" ">
<polygon fill="#e0e0e0" stroke="#999999" points="507.5,-19 364.5,-19 364.5,0 507.5,0 507.5,-19"/>
<text text-anchor="middle" x="436" y="-7" font-family="Malgun Gothic" font-size="10.00">FHitStopData.generated.h</text>
</a>
</g>
</g>
<!-- Node4&#45;&gt;Node7 -->
<g id="edge7_Node000004_Node000007" class="edge">
<title>Node4&#45;&gt;Node7</title>
<g id="a_edge7_Node000004_Node000007"><a xlink:title=" ">
<path fill="none" stroke="#63b8ff" d="M314.3,-54.98C338.25,-46.23 375.78,-32.51 402.83,-22.62"/>
<polygon fill="#63b8ff" stroke="#63b8ff" points="404.09,-25.89 412.28,-19.17 401.69,-19.32 404.09,-25.89"/>
</a>
</g>
</g>
</g>
</svg>
