<?xml version="1.0" encoding="UTF-8" standalone="no"?>
<!DOCTYPE svg PUBLIC "-//W3C//DTD SVG 1.1//EN"
 "http://www.w3.org/Graphics/SVG/1.1/DTD/svg11.dtd">
<!-- Generated by graphviz version 2.43.0 (0)
 -->
<!-- Title: Source/Onepiece/Network/Private/UHttpNetworkSystem.cpp Pages: 1 -->
<svg width="1836pt" height="258pt"
 viewBox="0.00 0.00 1836.00 258.00" xmlns="http://www.w3.org/2000/svg" xmlns:xlink="http://www.w3.org/1999/xlink">
<g id="graph0" class="graph" transform="scale(1 1) rotate(0) translate(4 254)">
<title>Source/Onepiece/Network/Private/UHttpNetworkSystem.cpp</title>
<!-- Node1 -->
<g id="Node000001" class="node">
<title>Node1</title>
<g id="a_Node000001"><a xlink:title="UHttpNetworkSystem의 동작을 구현합니다.">
<polygon fill="#999999" stroke="#666666" points="986,-250 802,-250 802,-220 986,-220 986,-250"/>
<text text-anchor="start" x="810" y="-238" font-family="Malgun Gothic" font-size="10.00">Source/Onepiece/Network</text>
<text text-anchor="middle" x="894" y="-227" font-family="Malgun Gothic" font-size="10.00">/Private/UHttpNetworkSystem.cpp</text>
</a>
</g>
</g>
<!-- Node2 -->
<g id="Node000002" class="node">
<title>Node2</title>
<g id="a_Node000002"><a xlink:href="UHttpNetworkSystem_8h.html" target="_top" xlink:title="HTTP 기반 음성·GPT 파이프라인 요청을 담당하는 서브시스템을 선언합니다.">
<polygon fill="white" stroke="#666666" points="1103,-184 971,-184 971,-165 1103,-165 1103,-184"/>
<text text-anchor="middle" x="1037" y="-172" font-family="Malgun Gothic" font-size="10.00">UHttpNetworkSystem.h</text>
</a>
</g>
</g>
<!-- Node1&#45;&gt;Node2 -->
<g id="edge1_Node000001_Node000002" class="edge">
<title>Node1&#45;&gt;Node2</title>
<g id="a_edge1_Node000001_Node000002"><a xlink:title=" ">
<path fill="none" stroke="#63b8ff" d="M928.25,-219.99C952.11,-210.23 983.65,-197.33 1006.61,-187.93"/>
<polygon fill="#63b8ff" stroke="#63b8ff" points="1007.95,-191.17 1015.88,-184.14 1005.3,-184.69 1007.95,-191.17"/>
</a>
</g>
</g>
<!-- Node10 -->
<g id="Node000010" class="node">
<title>Node10</title>
<g id="a_Node000010"><a xlink:href="ENetworkLogType_8h.html" target="_top" xlink:title="네트워크 로그 메시지 구분자 열거형을 선언합니다.">
<polygon fill="white" stroke="#666666" points="1580.5,-129 1467.5,-129 1467.5,-110 1580.5,-110 1580.5,-129"/>
<text text-anchor="middle" x="1524" y="-117" font-family="Malgun Gothic" font-size="10.00">ENetworkLogType.h</text>
</a>
</g>
</g>
<!-- Node1&#45;&gt;Node10 -->
<g id="edge18_Node000001_Node000010" class="edge">
<title>Node1&#45;&gt;Node10</title>
<g id="a_edge18_Node000001_Node000010"><a xlink:title=" ">
<path fill="none" stroke="#63b8ff" d="M975.23,-219.95C1016.78,-211.62 1067.79,-199.61 1112,-184 1130.18,-177.58 1132.5,-170.42 1151,-165 1279.75,-127.28 1319.78,-144.9 1457.4,-129.02"/>
<polygon fill="#63b8ff" stroke="#63b8ff" points="1457.96,-132.48 1467.48,-127.82 1457.14,-125.53 1457.96,-132.48"/>
</a>
</g>
</g>
<!-- Node14 -->
<g id="Node000014" class="node">
<title>Node14</title>
<g id="a_Node000014"><a xlink:href="NetworkLog_8h.html" target="_top" xlink:title="YiSan 전반에서 사용하는 공용 인터페이스를 선언합니다.">
<polygon fill="white" stroke="#666666" points="84,-74 0,-74 0,-55 84,-55 84,-74"/>
<text text-anchor="middle" x="42" y="-62" font-family="Malgun Gothic" font-size="10.00">NetworkLog.h</text>
</a>
</g>
</g>
<!-- Node1&#45;&gt;Node14 -->
<g id="edge16_Node000001_Node000014" class="edge">
<title>Node1&#45;&gt;Node14</title>
<g id="a_edge16_Node000001_Node000014"><a xlink:title=" ">
<path fill="none" stroke="#63b8ff" d="M801.9,-234.65C682.35,-233.63 467.94,-225.38 290,-184 200.12,-163.1 104.52,-106.16 63.13,-79.55"/>
<polygon fill="#63b8ff" stroke="#63b8ff" points="64.98,-76.58 54.69,-74.06 61.16,-82.45 64.98,-76.58"/>
</a>
</g>
</g>
<!-- Node15 -->
<g id="Node000015" class="node">
<title>Node15</title>
<g id="a_Node000015"><a xlink:title=" ">
<polygon fill="#e0e0e0" stroke="#999999" points="1242.5,-184 1159.5,-184 1159.5,-165 1242.5,-165 1242.5,-184"/>
<text text-anchor="middle" x="1201" y="-172" font-family="Malgun Gothic" font-size="10.00">HttpModule.h</text>
</a>
</g>
</g>
<!-- Node1&#45;&gt;Node15 -->
<g id="edge19_Node000001_Node000015" class="edge">
<title>Node1&#45;&gt;Node15</title>
<g id="a_edge19_Node000001_Node000015"><a xlink:title=" ">
<path fill="none" stroke="#63b8ff" d="M967.53,-219.99C1023.63,-209.3 1099.49,-194.84 1149.3,-185.35"/>
<polygon fill="#63b8ff" stroke="#63b8ff" points="1150.04,-188.77 1159.21,-183.46 1148.73,-181.9 1150.04,-188.77"/>
</a>
</g>
</g>
<!-- Node16 -->
<g id="Node000016" class="node">
<title>Node16</title>
<g id="a_Node000016"><a xlink:href="FHttpMultipartFormData_8h.html" target="_top" xlink:title="FHttpMultipartFormData 클래스를 선언합니다.">
<polygon fill="white" stroke="#666666" points="514.5,-184 369.5,-184 369.5,-165 514.5,-165 514.5,-184"/>
<text text-anchor="middle" x="442" y="-172" font-family="Malgun Gothic" font-size="10.00">FHttpMultipartFormData.h</text>
</a>
</g>
</g>
<!-- Node1&#45;&gt;Node16 -->
<g id="edge20_Node000001_Node000016" class="edge">
<title>Node1&#45;&gt;Node16</title>
<g id="a_edge20_Node000001_Node000016"><a xlink:title=" ">
<path fill="none" stroke="#63b8ff" d="M801.99,-222.09C718.37,-211.27 596.45,-195.49 518.17,-185.36"/>
<polygon fill="#63b8ff" stroke="#63b8ff" points="518.26,-181.84 507.9,-184.03 517.37,-188.78 518.26,-181.84"/>
</a>
</g>
</g>
<!-- Node17 -->
<g id="Node000017" class="node">
<title>Node17</title>
<g id="a_Node000017"><a xlink:title=" ">
<polygon fill="#e0e0e0" stroke="#999999" points="411.5,-129 270.5,-129 270.5,-110 411.5,-110 411.5,-129"/>
<text text-anchor="middle" x="341" y="-117" font-family="Malgun Gothic" font-size="10.00">Interfaces/IHttpRequest.h</text>
</a>
</g>
</g>
<!-- Node1&#45;&gt;Node17 -->
<g id="edge37_Node000001_Node000017" class="edge">
<title>Node1&#45;&gt;Node17</title>
<g id="a_edge37_Node000001_Node000017"><a xlink:title=" ">
<path fill="none" stroke="#63b8ff" d="M801.83,-230.92C658.06,-225.29 393.35,-211.34 360,-184 346.94,-173.29 342.61,-153.99 341.29,-139.47"/>
<polygon fill="#63b8ff" stroke="#63b8ff" points="344.77,-138.92 340.77,-129.1 337.78,-139.27 344.77,-138.92"/>
</a>
</g>
</g>
<!-- Node18 -->
<g id="Node000018" class="node">
<title>Node18</title>
<g id="a_Node000018"><a xlink:href="GameLogging_8h.html" target="_top" xlink:title="YiSan 전반에서 사용하는 공용 인터페이스를 선언합니다.">
<polygon fill="white" stroke="#666666" points="252.5,-129 159.5,-129 159.5,-110 252.5,-110 252.5,-129"/>
<text text-anchor="middle" x="206" y="-117" font-family="Malgun Gothic" font-size="10.00">GameLogging.h</text>
</a>
</g>
</g>
<!-- Node1&#45;&gt;Node18 -->
<g id="edge23_Node000001_Node000018" class="edge">
<title>Node1&#45;&gt;Node18</title>
<g id="a_edge23_Node000001_Node000018"><a xlink:title=" ">
<path fill="none" stroke="#63b8ff" d="M801.9,-229.42C668.39,-222.13 427.89,-206.4 344,-184 301.56,-172.67 255.94,-149.2 229.23,-134.19"/>
<polygon fill="#63b8ff" stroke="#63b8ff" points="230.71,-131 220.29,-129.08 227.23,-137.08 230.71,-131"/>
</a>
</g>
</g>
<!-- Node22 -->
<g id="Node000022" class="node">
<title>Node22</title>
<g id="a_Node000022"><a xlink:title=" ">
<polygon fill="#e0e0e0" stroke="#999999" points="1385.5,-184 1260.5,-184 1260.5,-165 1385.5,-165 1385.5,-184"/>
<text text-anchor="middle" x="1323" y="-172" font-family="Malgun Gothic" font-size="10.00">JsonObjectConverter.h</text>
</a>
</g>
</g>
<!-- Node1&#45;&gt;Node22 -->
<g id="edge30_Node000001_Node000022" class="edge">
<title>Node1&#45;&gt;Node22</title>
<g id="a_edge30_Node000001_Node000022"><a xlink:title=" ">
<path fill="none" stroke="#63b8ff" d="M986.03,-221.45C1065.16,-210.66 1177.72,-195.31 1250.56,-185.38"/>
<polygon fill="#63b8ff" stroke="#63b8ff" points="1251.13,-188.83 1260.57,-184.01 1250.19,-181.9 1251.13,-188.83"/>
</a>
</g>
</g>
<!-- Node23 -->
<g id="Node000023" class="node">
<title>Node23</title>
<g id="a_Node000023"><a xlink:href="UBroadcastManager_8h.html" target="_top" xlink:title=" ">
<polygon fill="white" stroke="#666666" points="883,-184 759,-184 759,-165 883,-165 883,-184"/>
<text text-anchor="middle" x="821" y="-172" font-family="Malgun Gothic" font-size="10.00">UBroadcastManager.h</text>
</a>
</g>
</g>
<!-- Node1&#45;&gt;Node23 -->
<g id="edge31_Node000001_Node000023" class="edge">
<title>Node1&#45;&gt;Node23</title>
<g id="a_edge31_Node000001_Node000023"><a xlink:title=" ">
<path fill="none" stroke="#63b8ff" d="M876.33,-219.84C865.3,-211 851.11,-199.63 839.87,-190.62"/>
<polygon fill="#63b8ff" stroke="#63b8ff" points="841.93,-187.79 831.94,-184.27 837.55,-193.25 841.93,-187.79"/>
</a>
</g>
</g>
<!-- Node26 -->
<g id="Node000026" class="node">
<title>Node26</title>
<g id="a_Node000026"><a xlink:title=" ">
<polygon fill="#e0e0e0" stroke="#999999" points="1552.5,-184 1403.5,-184 1403.5,-165 1552.5,-165 1552.5,-184"/>
<text text-anchor="middle" x="1478" y="-172" font-family="Malgun Gothic" font-size="10.00">Interfaces/IHttpResponse.h</text>
</a>
</g>
</g>
<!-- Node1&#45;&gt;Node26 -->
<g id="edge38_Node000001_Node000026" class="edge">
<title>Node1&#45;&gt;Node26</title>
<g id="a_edge38_Node000001_Node000026"><a xlink:title=" ">
<path fill="none" stroke="#63b8ff" d="M986.35,-224.86C1084.62,-215.11 1244.97,-199.16 1393.15,-184.19"/>
<polygon fill="#63b8ff" stroke="#63b8ff" points="1393.75,-187.64 1403.34,-183.15 1393.04,-180.68 1393.75,-187.64"/>
</a>
</g>
</g>
<!-- Node3 -->
<g id="Node000003" class="node">
<title>Node3</title>
<g id="a_Node000003"><a xlink:title=" ">
<polygon fill="#e0e0e0" stroke="#999999" points="830,-19 742,-19 742,0 830,0 830,-19"/>
<text text-anchor="middle" x="786" y="-7" font-family="Malgun Gothic" font-size="10.00">CoreMinimal.h</text>
</a>
</g>
</g>
<!-- Node2&#45;&gt;Node3 -->
<g id="edge2_Node000002_Node000003" class="edge">
<title>Node2&#45;&gt;Node3</title>
<g id="a_edge2_Node000002_Node000003"><a xlink:title=" ">
<path fill="none" stroke="#63b8ff" d="M1060.67,-164.93C1087.67,-153.8 1126.03,-133.06 1109,-110 1076.88,-66.5 923.58,-34.06 840.24,-19.3"/>
<polygon fill="#63b8ff" stroke="#63b8ff" points="840.65,-15.82 830.2,-17.55 839.44,-22.72 840.65,-15.82"/>
</a>
</g>
</g>
<!-- Node4 -->
<g id="Node000004" class="node">
<title>Node4</title>
<g id="a_Node000004"><a xlink:href="NetworkData_8h.html" target="_top" xlink:title="네트워크 요청과 응답에 사용되는 구조체 및 설정을 정의합니다.">
<polygon fill="white" stroke="#666666" points="1449,-129 1359,-129 1359,-110 1449,-110 1449,-129"/>
<text text-anchor="middle" x="1404" y="-117" font-family="Malgun Gothic" font-size="10.00">NetworkData.h</text>
</a>
</g>
</g>
<!-- Node2&#45;&gt;Node4 -->
<g id="edge3_Node000002_Node000004" class="edge">
<title>Node2&#45;&gt;Node4</title>
<g id="a_edge3_Node000002_Node000004"><a xlink:title=" ">
<path fill="none" stroke="#63b8ff" d="M1098.8,-164.99C1159.75,-156.54 1255.83,-143.04 1348.78,-129.16"/>
<polygon fill="#63b8ff" stroke="#63b8ff" points="1349.55,-132.59 1358.93,-127.65 1348.52,-125.66 1349.55,-132.59"/>
</a>
</g>
</g>
<!-- Node2&#45;&gt;Node10 -->
<g id="edge11_Node000002_Node000010" class="edge">
<title>Node2&#45;&gt;Node10</title>
<g id="a_edge11_Node000002_Node000010"><a xlink:title=" ">
<path fill="none" stroke="#63b8ff" d="M1103.35,-166.45C1107.97,-165.96 1112.56,-165.47 1117,-165 1265.29,-149.29 1304.95,-146.84 1457.29,-129.06"/>
<polygon fill="#63b8ff" stroke="#63b8ff" points="1457.96,-132.5 1467.48,-127.86 1457.15,-125.55 1457.96,-132.5"/>
</a>
</g>
</g>
<!-- Node11 -->
<g id="Node000011" class="node">
<title>Node11</title>
<g id="a_Node000011"><a xlink:href="Macro_8h.html" target="_top" xlink:title="YiSan 전반에서 사용하는 공용 인터페이스를 선언합니다.">
<polygon fill="white" stroke="#666666" points="1100,-129 1044,-129 1044,-110 1100,-110 1100,-129"/>
<text text-anchor="middle" x="1072" y="-117" font-family="Malgun Gothic" font-size="10.00">Macro.h</text>
</a>
</g>
</g>
<!-- Node2&#45;&gt;Node11 -->
<g id="edge13_Node000002_Node000011" class="edge">
<title>Node2&#45;&gt;Node11</title>
<g id="a_edge13_Node000002_Node000011"><a xlink:title=" ">
<path fill="none" stroke="#63b8ff" d="M1042.78,-164.75C1047.62,-157.42 1054.68,-146.73 1060.64,-137.7"/>
<polygon fill="#63b8ff" stroke="#63b8ff" points="1063.74,-139.36 1066.33,-129.09 1057.9,-135.5 1063.74,-139.36"/>
</a>
</g>
</g>
<!-- Node12 -->
<g id="Node000012" class="node">
<title>Node12</title>
<g id="a_Node000012"><a xlink:title=" ">
<polygon fill="#e0e0e0" stroke="#999999" points="1026,-129 814,-129 814,-110 1026,-110 1026,-129"/>
<text text-anchor="middle" x="920" y="-117" font-family="Malgun Gothic" font-size="10.00">Subsystems/GameInstanceSubsystem.h</text>
</a>
</g>
</g>
<!-- Node2&#45;&gt;Node12 -->
<g id="edge14_Node000002_Node000012" class="edge">
<title>Node2&#45;&gt;Node12</title>
<g id="a_edge14_Node000002_Node000012"><a xlink:title=" ">
<path fill="none" stroke="#63b8ff" d="M1018.2,-164.98C999.38,-156.46 970.18,-143.23 948.5,-133.41"/>
<polygon fill="#63b8ff" stroke="#63b8ff" points="949.69,-130.11 939.14,-129.17 946.8,-136.48 949.69,-130.11"/>
</a>
</g>
</g>
<!-- Node13 -->
<g id="Node000013" class="node">
<title>Node13</title>
<g id="a_Node000013"><a xlink:title=" ">
<polygon fill="#e0e0e0" stroke="#999999" points="1340.5,-129 1155.5,-129 1155.5,-110 1340.5,-110 1340.5,-129"/>
<text text-anchor="middle" x="1248" y="-117" font-family="Malgun Gothic" font-size="10.00">UHttpNetworkSystem.generated.h</text>
</a>
</g>
</g>
<!-- Node2&#45;&gt;Node13 -->
<g id="edge15_Node000002_Node000013" class="edge">
<title>Node2&#45;&gt;Node13</title>
<g id="a_edge15_Node000002_Node000013"><a xlink:title=" ">
<path fill="none" stroke="#63b8ff" d="M1070.9,-164.98C1107.02,-155.91 1164.32,-141.52 1203.92,-131.57"/>
<polygon fill="#63b8ff" stroke="#63b8ff" points="1204.99,-134.91 1213.83,-129.08 1203.28,-128.12 1204.99,-134.91"/>
</a>
</g>
</g>
<!-- Node4&#45;&gt;Node3 -->
<g id="edge4_Node000004_Node000003" class="edge">
<title>Node4&#45;&gt;Node3</title>
<g id="a_edge4_Node000004_Node000003"><a xlink:title=" ">
<path fill="none" stroke="#63b8ff" d="M1358.74,-110.77C1303.05,-101.04 1211.85,-84.36 1179,-74 1159.07,-67.71 1156.13,-60.6 1136,-55 1033.98,-26.63 910.14,-16.28 840.47,-12.55"/>
<polygon fill="#63b8ff" stroke="#63b8ff" points="840.35,-9.04 830.18,-12.03 839.99,-16.03 840.35,-9.04"/>
</a>
</g>
</g>
<!-- Node5 -->
<g id="Node000005" class="node">
<title>Node5</title>
<g id="a_Node000005"><a xlink:href="UCustomNetworkSettings_8h.html" target="_top" xlink:title="서버 환경별 네트워크 설정을 노출하는 DeveloperSettings를 선언합니다.">
<polygon fill="white" stroke="#666666" points="1704,-74 1552,-74 1552,-55 1704,-55 1704,-74"/>
<text text-anchor="middle" x="1628" y="-62" font-family="Malgun Gothic" font-size="10.00">UCustomNetworkSettings.h</text>
</a>
</g>
</g>
<!-- Node4&#45;&gt;Node5 -->
<g id="edge5_Node000004_Node000005" class="edge">
<title>Node4&#45;&gt;Node5</title>
<g id="a_edge5_Node000004_Node000005"><a xlink:title=" ">
<path fill="none" stroke="#63b8ff" d="M1439.99,-109.98C1478.49,-100.87 1539.69,-86.4 1581.74,-76.45"/>
<polygon fill="#63b8ff" stroke="#63b8ff" points="1582.8,-79.79 1591.73,-74.08 1581.19,-72.98 1582.8,-79.79"/>
</a>
</g>
</g>
<!-- Node8 -->
<g id="Node000008" class="node">
<title>Node8</title>
<g id="a_Node000008"><a xlink:title=" ">
<polygon fill="#e0e0e0" stroke="#999999" points="1334,-74 1188,-74 1188,-55 1334,-55 1334,-74"/>
<text text-anchor="middle" x="1261" y="-62" font-family="Malgun Gothic" font-size="10.00">Templates/SharedPointer.h</text>
</a>
</g>
</g>
<!-- Node4&#45;&gt;Node8 -->
<g id="edge9_Node000004_Node000008" class="edge">
<title>Node4&#45;&gt;Node8</title>
<g id="a_edge9_Node000004_Node000008"><a xlink:title=" ">
<path fill="none" stroke="#63b8ff" d="M1381.02,-109.98C1357.5,-101.27 1320.71,-87.63 1294.06,-77.75"/>
<polygon fill="#63b8ff" stroke="#63b8ff" points="1294.99,-74.36 1284.39,-74.17 1292.55,-80.93 1294.99,-74.36"/>
</a>
</g>
</g>
<!-- Node9 -->
<g id="Node000009" class="node">
<title>Node9</title>
<g id="a_Node000009"><a xlink:title=" ">
<polygon fill="#e0e0e0" stroke="#999999" points="1495.5,-74 1352.5,-74 1352.5,-55 1495.5,-55 1495.5,-74"/>
<text text-anchor="middle" x="1424" y="-62" font-family="Malgun Gothic" font-size="10.00">NetworkData.generated.h</text>
</a>
</g>
</g>
<!-- Node4&#45;&gt;Node9 -->
<g id="edge10_Node000004_Node000009" class="edge">
<title>Node4&#45;&gt;Node9</title>
<g id="a_edge10_Node000004_Node000009"><a xlink:title=" ">
<path fill="none" stroke="#63b8ff" d="M1407.3,-109.75C1409.98,-102.65 1413.85,-92.4 1417.19,-83.56"/>
<polygon fill="#63b8ff" stroke="#63b8ff" points="1420.5,-84.68 1420.76,-74.09 1413.95,-82.21 1420.5,-84.68"/>
</a>
</g>
</g>
<!-- Node5&#45;&gt;Node3 -->
<g id="edge6_Node000005_Node000003" class="edge">
<title>Node5&#45;&gt;Node3</title>
<g id="a_edge6_Node000005_Node000003"><a xlink:title=" ">
<path fill="none" stroke="#63b8ff" d="M1551.91,-56.12C1547.2,-55.73 1542.54,-55.35 1538,-55 1276.98,-34.96 964.4,-19.05 840.46,-13.07"/>
<polygon fill="#63b8ff" stroke="#63b8ff" points="840.27,-9.55 830.11,-12.57 839.93,-16.55 840.27,-9.55"/>
</a>
</g>
</g>
<!-- Node6 -->
<g id="Node000006" class="node">
<title>Node6</title>
<g id="a_Node000006"><a xlink:title=" ">
<polygon fill="#e0e0e0" stroke="#999999" points="1606,-19 1454,-19 1454,0 1606,0 1606,-19"/>
<text text-anchor="middle" x="1530" y="-7" font-family="Malgun Gothic" font-size="10.00">Engine/DeveloperSettings.h</text>
</a>
</g>
</g>
<!-- Node5&#45;&gt;Node6 -->
<g id="edge7_Node000005_Node000006" class="edge">
<title>Node5&#45;&gt;Node6</title>
<g id="a_edge7_Node000005_Node000006"><a xlink:title=" ">
<path fill="none" stroke="#63b8ff" d="M1612.25,-54.98C1596.77,-46.61 1572.91,-33.7 1554.86,-23.95"/>
<polygon fill="#63b8ff" stroke="#63b8ff" points="1556.49,-20.85 1546.03,-19.17 1553.16,-27.01 1556.49,-20.85"/>
</a>
</g>
</g>
<!-- Node7 -->
<g id="Node000007" class="node">
<title>Node7</title>
<g id="a_Node000007"><a xlink:title=" ">
<polygon fill="#e0e0e0" stroke="#999999" points="1828,-19 1624,-19 1624,0 1828,0 1828,-19"/>
<text text-anchor="middle" x="1726" y="-7" font-family="Malgun Gothic" font-size="10.00">UCustomNetworkSettings.generated.h</text>
</a>
</g>
</g>
<!-- Node5&#45;&gt;Node7 -->
<g id="edge8_Node000005_Node000007" class="edge">
<title>Node5&#45;&gt;Node7</title>
<g id="a_edge8_Node000005_Node000007"><a xlink:title=" ">
<path fill="none" stroke="#63b8ff" d="M1643.75,-54.98C1659.23,-46.61 1683.09,-33.7 1701.14,-23.95"/>
<polygon fill="#63b8ff" stroke="#63b8ff" points="1702.84,-27.01 1709.97,-19.17 1699.51,-20.85 1702.84,-27.01"/>
</a>
</g>
</g>
<!-- Node10&#45;&gt;Node3 -->
<g id="edge12_Node000010_Node000003" class="edge">
<title>Node10&#45;&gt;Node3</title>
<g id="a_edge12_Node000010_Node000003"><a xlink:title=" ">
<path fill="none" stroke="#63b8ff" d="M1524.28,-109.84C1524.2,-95.8 1521.76,-68.31 1505,-55 1453.38,-14.03 999.33,-10.36 840.54,-10.34"/>
<polygon fill="#63b8ff" stroke="#63b8ff" points="840.07,-6.84 830.07,-10.34 840.07,-13.84 840.07,-6.84"/>
</a>
</g>
</g>
<!-- Node14&#45;&gt;Node3 -->
<g id="edge17_Node000014_Node000003" class="edge">
<title>Node14&#45;&gt;Node3</title>
<g id="a_edge17_Node000014_Node000003"><a xlink:title=" ">
<path fill="none" stroke="#63b8ff" d="M84.25,-56.12C87.21,-55.71 90.15,-55.33 93,-55 329.88,-27.73 614.38,-16.03 731.53,-12.13"/>
<polygon fill="#63b8ff" stroke="#63b8ff" points="731.8,-15.62 741.68,-11.79 731.57,-8.62 731.8,-15.62"/>
</a>
</g>
</g>
<!-- Node16&#45;&gt;Node3 -->
<g id="edge21_Node000016_Node000003" class="edge">
<title>Node16&#45;&gt;Node3</title>
<g id="a_edge21_Node000016_Node000003"><a xlink:title=" ">
<path fill="none" stroke="#63b8ff" d="M441.81,-164.84C442.01,-151.3 444.4,-125.1 459,-110 531.63,-34.87 659.06,-16.02 731.54,-11.57"/>
<polygon fill="#63b8ff" stroke="#63b8ff" points="732.02,-15.05 741.82,-11.02 731.64,-8.06 732.02,-15.05"/>
</a>
</g>
</g>
<!-- Node16&#45;&gt;Node17 -->
<g id="edge22_Node000016_Node000017" class="edge">
<title>Node16&#45;&gt;Node17</title>
<g id="a_edge22_Node000016_Node000017"><a xlink:title=" ">
<path fill="none" stroke="#63b8ff" d="M425.77,-164.98C409.82,-156.61 385.22,-143.7 366.62,-133.95"/>
<polygon fill="#63b8ff" stroke="#63b8ff" points="368,-130.72 357.52,-129.17 364.75,-136.92 368,-130.72"/>
</a>
</g>
</g>
<!-- Node18&#45;&gt;Node3 -->
<g id="edge24_Node000018_Node000003" class="edge">
<title>Node18&#45;&gt;Node3</title>
<g id="a_edge24_Node000018_Node000003"><a xlink:title=" ">
<path fill="none" stroke="#63b8ff" d="M252.57,-110.94C310.44,-101.32 405.75,-84.67 440,-74 459.95,-67.79 462.93,-60.79 483,-55 567.87,-30.51 670.2,-19.06 731.58,-14.05"/>
<polygon fill="#63b8ff" stroke="#63b8ff" points="732.12,-17.52 741.81,-13.24 731.57,-10.54 732.12,-17.52"/>
</a>
</g>
</g>
<!-- Node18&#45;&gt;Node14 -->
<g id="edge29_Node000018_Node000014" class="edge">
<title>Node18&#45;&gt;Node14</title>
<g id="a_edge29_Node000018_Node000014"><a xlink:title=" ">
<path fill="none" stroke="#63b8ff" d="M179.65,-109.98C152.24,-101.13 109.11,-87.19 78.44,-77.28"/>
<polygon fill="#63b8ff" stroke="#63b8ff" points="79.15,-73.83 68.56,-74.08 77,-80.49 79.15,-73.83"/>
</a>
</g>
</g>
<!-- Node19 -->
<g id="Node000019" class="node">
<title>Node19</title>
<g id="a_Node000019"><a xlink:title=" ">
<polygon fill="#e0e0e0" stroke="#999999" points="334.5,-74 215.5,-74 215.5,-55 334.5,-55 334.5,-74"/>
<text text-anchor="middle" x="275" y="-62" font-family="Malgun Gothic" font-size="10.00">Logging/LogMacros.h</text>
</a>
</g>
</g>
<!-- Node18&#45;&gt;Node19 -->
<g id="edge25_Node000018_Node000019" class="edge">
<title>Node18&#45;&gt;Node19</title>
<g id="a_edge25_Node000018_Node000019"><a xlink:title=" ">
<path fill="none" stroke="#63b8ff" d="M217.09,-109.98C227.49,-102 243.26,-89.88 255.72,-80.31"/>
<polygon fill="#63b8ff" stroke="#63b8ff" points="257.91,-83.04 263.71,-74.17 253.65,-77.49 257.91,-83.04"/>
</a>
</g>
</g>
<!-- Node20 -->
<g id="Node000020" class="node">
<title>Node20</title>
<g id="a_Node000020"><a xlink:title=" ">
<polygon fill="#e0e0e0" stroke="#999999" points="197.5,-74 102.5,-74 102.5,-55 197.5,-55 197.5,-74"/>
<text text-anchor="middle" x="150" y="-62" font-family="Malgun Gothic" font-size="10.00">Engine/Engine.h</text>
</a>
</g>
</g>
<!-- Node18&#45;&gt;Node20 -->
<g id="edge26_Node000018_Node000020" class="edge">
<title>Node18&#45;&gt;Node20</title>
<g id="a_edge26_Node000018_Node000020"><a xlink:title=" ">
<path fill="none" stroke="#63b8ff" d="M197,-109.98C188.81,-102.23 176.49,-90.58 166.53,-81.14"/>
<polygon fill="#63b8ff" stroke="#63b8ff" points="168.83,-78.5 159.16,-74.17 164.02,-83.59 168.83,-78.5"/>
</a>
</g>
</g>
<!-- Node21 -->
<g id="Node000021" class="node">
<title>Node21</title>
<g id="a_Node000021"><a xlink:href="FLogWriter_8h.html" target="_top" xlink:title="FArchive 클래스를 선언합니다.">
<polygon fill="white" stroke="#666666" points="431,-74 353,-74 353,-55 431,-55 431,-74"/>
<text text-anchor="middle" x="392" y="-62" font-family="Malgun Gothic" font-size="10.00">FLogWriter.h</text>
</a>
</g>
</g>
<!-- Node18&#45;&gt;Node21 -->
<g id="edge27_Node000018_Node000021" class="edge">
<title>Node18&#45;&gt;Node21</title>
<g id="a_edge27_Node000018_Node000021"><a xlink:title=" ">
<path fill="none" stroke="#63b8ff" d="M235.88,-109.98C267.38,-101.01 317.17,-86.82 352.03,-76.89"/>
<polygon fill="#63b8ff" stroke="#63b8ff" points="353.22,-80.19 361.88,-74.08 351.31,-73.46 353.22,-80.19"/>
</a>
</g>
</g>
<!-- Node21&#45;&gt;Node3 -->
<g id="edge28_Node000021_Node000003" class="edge">
<title>Node21&#45;&gt;Node3</title>
<g id="a_edge28_Node000021_Node000003"><a xlink:title=" ">
<path fill="none" stroke="#63b8ff" d="M431.05,-57.1C435.75,-56.37 440.48,-55.66 445,-55 546.15,-40.29 664.53,-25.35 731.85,-17.07"/>
<polygon fill="#63b8ff" stroke="#63b8ff" points="732.3,-20.54 741.8,-15.85 731.45,-13.59 732.3,-20.54"/>
</a>
</g>
</g>
<!-- Node23&#45;&gt;Node3 -->
<g id="edge32_Node000023_Node000003" class="edge">
<title>Node23&#45;&gt;Node3</title>
<g id="a_edge32_Node000023_Node000003"><a xlink:title=" ">
<path fill="none" stroke="#63b8ff" d="M817.32,-164.79C813.71,-155.92 808.28,-141.72 805,-129 796.07,-94.32 790.57,-52.79 787.91,-29.24"/>
<polygon fill="#63b8ff" stroke="#63b8ff" points="791.39,-28.81 786.84,-19.24 784.43,-29.55 791.39,-28.81"/>
</a>
</g>
</g>
<!-- Node23&#45;&gt;Node11 -->
<g id="edge33_Node000023_Node000011" class="edge">
<title>Node23&#45;&gt;Node11</title>
<g id="a_edge33_Node000023_Node000011"><a xlink:title=" ">
<path fill="none" stroke="#63b8ff" d="M863.28,-164.98C904.38,-156.63 968.82,-143.39 1033.73,-129.24"/>
<polygon fill="#63b8ff" stroke="#63b8ff" points="1034.71,-132.61 1043.73,-127.06 1033.22,-125.77 1034.71,-132.61"/>
</a>
</g>
</g>
<!-- Node23&#45;&gt;Node12 -->
<g id="edge35_Node000023_Node000012" class="edge">
<title>Node23&#45;&gt;Node12</title>
<g id="a_edge35_Node000023_Node000012"><a xlink:title=" ">
<path fill="none" stroke="#63b8ff" d="M836.91,-164.98C852.55,-156.61 876.66,-143.7 894.88,-133.95"/>
<polygon fill="#63b8ff" stroke="#63b8ff" points="896.64,-136.98 903.8,-129.17 893.34,-130.8 896.64,-136.98"/>
</a>
</g>
</g>
<!-- Node24 -->
<g id="Node000024" class="node">
<title>Node24</title>
<g id="a_Node000024"><a xlink:href="EDamageType_8h.html" target="_top" xlink:title="EDamageType 클래스를 선언합니다.">
<polygon fill="white" stroke="#666666" points="757.5,-129 662.5,-129 662.5,-110 757.5,-110 757.5,-129"/>
<text text-anchor="middle" x="710" y="-117" font-family="Malgun Gothic" font-size="10.00">EDamageType.h</text>
</a>
</g>
</g>
<!-- Node23&#45;&gt;Node24 -->
<g id="edge34_Node000023_Node000024" class="edge">
<title>Node23&#45;&gt;Node24</title>
<g id="a_edge34_Node000023_Node000024"><a xlink:title=" ">
<path fill="none" stroke="#63b8ff" d="M803.17,-164.98C785.39,-156.5 757.85,-143.35 737.32,-133.54"/>
<polygon fill="#63b8ff" stroke="#63b8ff" points="738.69,-130.32 728.16,-129.17 735.67,-136.64 738.69,-130.32"/>
</a>
</g>
</g>
<!-- Node25 -->
<g id="Node000025" class="node">
<title>Node25</title>
<g id="a_Node000025"><a xlink:title=" ">
<polygon fill="#e0e0e0" stroke="#999999" points="644,-129 468,-129 468,-110 644,-110 644,-129"/>
<text text-anchor="middle" x="556" y="-117" font-family="Malgun Gothic" font-size="10.00">UBroadcastManager.generated.h</text>
</a>
</g>
</g>
<!-- Node23&#45;&gt;Node25 -->
<g id="edge36_Node000023_Node000025" class="edge">
<title>Node23&#45;&gt;Node25</title>
<g id="a_edge36_Node000023_Node000025"><a xlink:title=" ">
<path fill="none" stroke="#63b8ff" d="M778.42,-164.98C732.3,-155.76 658.64,-141.03 608.84,-131.07"/>
<polygon fill="#63b8ff" stroke="#63b8ff" points="609.4,-127.61 598.91,-129.08 608.03,-134.48 609.4,-127.61"/>
</a>
</g>
</g>
</g>
</svg>
