<?xml version="1.0" encoding="UTF-8" standalone="no"?>
<!DOCTYPE svg PUBLIC "-//W3C//DTD SVG 1.1//EN"
 "http://www.w3.org/Graphics/SVG/1.1/DTD/svg11.dtd">
<!-- Generated by graphviz version 2.43.0 (0)
 -->
<!-- Title: Source/Onepiece/Character/Public/UKnockbackSystem.h Pages: 1 -->
<svg width="551pt" height="148pt"
 viewBox="0.00 0.00 551.00 148.00" xmlns="http://www.w3.org/2000/svg" xmlns:xlink="http://www.w3.org/1999/xlink">
<g id="graph0" class="graph" transform="scale(1 1) rotate(0) translate(4 144)">
<title>Source/Onepiece/Character/Public/UKnockbackSystem.h</title>
<!-- Node1 -->
<g id="Node000001" class="node">
<title>Node1</title>
<g id="a_Node000001"><a xlink:title="UKnockbackSystem 클래스를 선언합니다.">
<polygon fill="#999999" stroke="#666666" points="295,-140 137,-140 137,-110 295,-110 295,-140"/>
<text text-anchor="start" x="145" y="-128" font-family="Malgun Gothic" font-size="10.00">Source/Onepiece/Character</text>
<text text-anchor="middle" x="216" y="-117" font-family="Malgun Gothic" font-size="10.00">/Public/UKnockbackSystem.h</text>
</a>
</g>
</g>
<!-- Node2 -->
<g id="Node000002" class="node">
<title>Node2</title>
<g id="a_Node000002"><a xlink:title=" ">
<polygon fill="#e0e0e0" stroke="#999999" points="88,-19 0,-19 0,0 88,0 88,-19"/>
<text text-anchor="middle" x="44" y="-7" font-family="Malgun Gothic" font-size="10.00">CoreMinimal.h</text>
</a>
</g>
</g>
<!-- Node1&#45;&gt;Node2 -->
<g id="edge1_Node000001_Node000002" class="edge">
<title>Node1&#45;&gt;Node2</title>
<g id="a_edge1_Node000001_Node000002"><a xlink:title=" ">
<path fill="none" stroke="#63b8ff" d="M136.65,-110.75C96.59,-102.28 53.96,-89.88 42,-74 32.47,-61.35 34.26,-42.91 37.67,-29.15"/>
<polygon fill="#63b8ff" stroke="#63b8ff" points="41.1,-29.91 40.57,-19.33 34.38,-27.93 41.1,-29.91"/>
</a>
</g>
</g>
<!-- Node3 -->
<g id="Node000003" class="node">
<title>Node3</title>
<g id="a_Node000003"><a xlink:title=" ">
<polygon fill="#e0e0e0" stroke="#999999" points="223,-74 51,-74 51,-55 223,-55 223,-74"/>
<text text-anchor="middle" x="137" y="-62" font-family="Malgun Gothic" font-size="10.00">Components/ActorComponent.h</text>
</a>
</g>
</g>
<!-- Node1&#45;&gt;Node3 -->
<g id="edge2_Node000001_Node000003" class="edge">
<title>Node1&#45;&gt;Node3</title>
<g id="a_edge2_Node000001_Node000003"><a xlink:title=" ">
<path fill="none" stroke="#63b8ff" d="M196.88,-109.84C184.82,-100.91 169.29,-89.41 157.06,-80.35"/>
<polygon fill="#63b8ff" stroke="#63b8ff" points="158.96,-77.4 148.84,-74.27 154.79,-83.03 158.96,-77.4"/>
</a>
</g>
</g>
<!-- Node4 -->
<g id="Node000004" class="node">
<title>Node4</title>
<g id="a_Node000004"><a xlink:href="FKnockbackData_8h.html" target="_top" xlink:title="FKnockbackData 구조체를 선언합니다.">
<polygon fill="white" stroke="#666666" points="349,-74 241,-74 241,-55 349,-55 349,-74"/>
<text text-anchor="middle" x="295" y="-62" font-family="Malgun Gothic" font-size="10.00">FKnockbackData.h</text>
</a>
</g>
</g>
<!-- Node1&#45;&gt;Node4 -->
<g id="edge3_Node000001_Node000004" class="edge">
<title>Node1&#45;&gt;Node4</title>
<g id="a_edge3_Node000001_Node000004"><a xlink:title=" ">
<path fill="none" stroke="#63b8ff" d="M235.12,-109.84C247.18,-100.91 262.71,-89.41 274.94,-80.35"/>
<polygon fill="#63b8ff" stroke="#63b8ff" points="277.21,-83.03 283.16,-74.27 273.04,-77.4 277.21,-83.03"/>
</a>
</g>
</g>
<!-- Node8 -->
<g id="Node000008" class="node">
<title>Node8</title>
<g id="a_Node000008"><a xlink:title=" ">
<polygon fill="#e0e0e0" stroke="#999999" points="543,-74 367,-74 367,-55 543,-55 543,-74"/>
<text text-anchor="middle" x="455" y="-62" font-family="Malgun Gothic" font-size="10.00">UKnockbackSystem.generated.h</text>
</a>
</g>
</g>
<!-- Node1&#45;&gt;Node8 -->
<g id="edge8_Node000001_Node000008" class="edge">
<title>Node1&#45;&gt;Node8</title>
<g id="a_edge8_Node000001_Node000008"><a xlink:title=" ">
<path fill="none" stroke="#63b8ff" d="M273.25,-109.99C315.21,-99.72 371.38,-85.97 410.11,-76.49"/>
<polygon fill="#63b8ff" stroke="#63b8ff" points="411.17,-79.83 420.05,-74.05 409.51,-73.03 411.17,-79.83"/>
</a>
</g>
</g>
<!-- Node4&#45;&gt;Node2 -->
<g id="edge4_Node000004_Node000002" class="edge">
<title>Node4&#45;&gt;Node2</title>
<g id="a_edge4_Node000004_Node000002"><a xlink:title=" ">
<path fill="none" stroke="#63b8ff" d="M254.67,-54.98C211.16,-45.8 141.8,-31.15 94.65,-21.19"/>
<polygon fill="#63b8ff" stroke="#63b8ff" points="95.15,-17.72 84.64,-19.08 93.7,-24.57 95.15,-17.72"/>
</a>
</g>
</g>
<!-- Node5 -->
<g id="Node000005" class="node">
<title>Node5</title>
<g id="a_Node000005"><a xlink:href="EDamageType_8h.html" target="_top" xlink:title="EDamageType 클래스를 선언합니다.">
<polygon fill="white" stroke="#666666" points="221.5,-19 126.5,-19 126.5,0 221.5,0 221.5,-19"/>
<text text-anchor="middle" x="174" y="-7" font-family="Malgun Gothic" font-size="10.00">EDamageType.h</text>
</a>
</g>
</g>
<!-- Node4&#45;&gt;Node5 -->
<g id="edge5_Node000004_Node000005" class="edge">
<title>Node4&#45;&gt;Node5</title>
<g id="a_edge5_Node000004_Node000005"><a xlink:title=" ">
<path fill="none" stroke="#63b8ff" d="M275.56,-54.98C256.01,-46.42 225.62,-33.11 203.18,-23.28"/>
<polygon fill="#63b8ff" stroke="#63b8ff" points="204.36,-19.98 193.79,-19.17 201.55,-26.39 204.36,-19.98"/>
</a>
</g>
</g>
<!-- Node6 -->
<g id="Node000006" class="node">
<title>Node6</title>
<g id="a_Node000006"><a xlink:title=" ">
<polygon fill="#e0e0e0" stroke="#999999" points="350,-19 240,-19 240,0 350,0 350,-19"/>
<text text-anchor="middle" x="295" y="-7" font-family="Malgun Gothic" font-size="10.00">Engine/DataTable.h</text>
</a>
</g>
</g>
<!-- Node4&#45;&gt;Node6 -->
<g id="edge6_Node000004_Node000006" class="edge">
<title>Node4&#45;&gt;Node6</title>
<g id="a_edge6_Node000004_Node000006"><a xlink:title=" ">
<path fill="none" stroke="#63b8ff" d="M295,-54.75C295,-47.8 295,-37.85 295,-29.13"/>
<polygon fill="#63b8ff" stroke="#63b8ff" points="298.5,-29.09 295,-19.09 291.5,-29.09 298.5,-29.09"/>
</a>
</g>
</g>
<!-- Node7 -->
<g id="Node000007" class="node">
<title>Node7</title>
<g id="a_Node000007"><a xlink:title=" ">
<polygon fill="#e0e0e0" stroke="#999999" points="529.5,-19 368.5,-19 368.5,0 529.5,0 529.5,-19"/>
<text text-anchor="middle" x="449" y="-7" font-family="Malgun Gothic" font-size="10.00">FKnockbackData.generated.h</text>
</a>
</g>
</g>
<!-- Node4&#45;&gt;Node7 -->
<g id="edge7_Node000004_Node000007" class="edge">
<title>Node4&#45;&gt;Node7</title>
<g id="a_edge7_Node000004_Node000007"><a xlink:title=" ">
<path fill="none" stroke="#63b8ff" d="M319.74,-54.98C345.37,-46.16 385.63,-32.31 414.41,-22.41"/>
<polygon fill="#63b8ff" stroke="#63b8ff" points="415.75,-25.65 424.06,-19.08 413.47,-19.03 415.75,-25.65"/>
</a>
</g>
</g>
</g>
</svg>
