<?xml version="1.0" encoding="UTF-8" standalone="no"?>
<!DOCTYPE svg PUBLIC "-//W3C//DTD SVG 1.1//EN"
 "http://www.w3.org/Graphics/SVG/1.1/DTD/svg11.dtd">
<!-- Generated by graphviz version 2.43.0 (0)
 -->
<!-- Title: Source/Onepiece/Character/Private/UKnockbackSystem.cpp Pages: 1 -->
<svg width="2452pt" height="214pt"
 viewBox="0.00 0.00 2451.50 214.00" xmlns="http://www.w3.org/2000/svg" xmlns:xlink="http://www.w3.org/1999/xlink">
<g id="graph0" class="graph" transform="scale(1 1) rotate(0) translate(4 210)">
<title>Source/Onepiece/Character/Private/UKnockbackSystem.cpp</title>
<!-- Node1 -->
<g id="Node000001" class="node">
<title>Node1</title>
<g id="a_Node000001"><a xlink:title="FMath의 동작을 구현합니다.">
<polygon fill="#999999" stroke="#666666" points="1786,-206 1611,-206 1611,-176 1786,-176 1786,-206"/>
<text text-anchor="start" x="1619" y="-194" font-family="Malgun Gothic" font-size="10.00">Source/Onepiece/Character</text>
<text text-anchor="middle" x="1698.5" y="-183" font-family="Malgun Gothic" font-size="10.00">/Private/UKnockbackSystem.cpp</text>
</a>
</g>
</g>
<!-- Node2 -->
<g id="Node000002" class="node">
<title>Node2</title>
<g id="a_Node000002"><a xlink:href="UKnockbackSystem_8h.html" target="_top" xlink:title="UKnockbackSystem 클래스를 선언합니다.">
<polygon fill="white" stroke="#666666" points="1618,-134.5 1495,-134.5 1495,-115.5 1618,-115.5 1618,-134.5"/>
<text text-anchor="middle" x="1556.5" y="-122.5" font-family="Malgun Gothic" font-size="10.00">UKnockbackSystem.h</text>
</a>
</g>
</g>
<!-- Node1&#45;&gt;Node2 -->
<g id="edge1_Node000001_Node000002" class="edge">
<title>Node1&#45;&gt;Node2</title>
<g id="a_edge1_Node000001_Node000002"><a xlink:title=" ">
<path fill="none" stroke="#63b8ff" d="M1667.34,-175.95C1642.65,-164.83 1608.47,-149.42 1584.62,-138.67"/>
<polygon fill="#63b8ff" stroke="#63b8ff" points="1585.95,-135.44 1575.4,-134.52 1583.08,-141.82 1585.95,-135.44"/>
</a>
</g>
</g>
<!-- Node5 -->
<g id="Node000005" class="node">
<title>Node5</title>
<g id="a_Node000005"><a xlink:href="FKnockbackData_8h.html" target="_top" xlink:title="FKnockbackData 구조체를 선언합니다.">
<polygon fill="white" stroke="#666666" points="623.5,-74 515.5,-74 515.5,-55 623.5,-55 623.5,-74"/>
<text text-anchor="middle" x="569.5" y="-62" font-family="Malgun Gothic" font-size="10.00">FKnockbackData.h</text>
</a>
</g>
</g>
<!-- Node1&#45;&gt;Node5 -->
<g id="edge39_Node000001_Node000005" class="edge">
<title>Node1&#45;&gt;Node5</title>
<g id="a_edge39_Node000001_Node000005"><a xlink:title=" ">
<path fill="none" stroke="#63b8ff" d="M1610.91,-187.74C1418.48,-182.34 963.97,-167.08 812.5,-140 734.56,-126.06 646.5,-95.07 600.8,-77.77"/>
<polygon fill="#63b8ff" stroke="#63b8ff" points="601.77,-74.39 591.18,-74.09 599.27,-80.93 601.77,-74.39"/>
</a>
</g>
</g>
<!-- Node10 -->
<g id="Node000010" class="node">
<title>Node10</title>
<g id="a_Node000010"><a xlink:href="APlayerActor_8h.html" target="_top" xlink:title="Declares the player&#45;controlled character actor.">
<polygon fill="white" stroke="#666666" points="2037.5,-134.5 1949.5,-134.5 1949.5,-115.5 2037.5,-115.5 2037.5,-134.5"/>
<text text-anchor="middle" x="1993.5" y="-122.5" font-family="Malgun Gothic" font-size="10.00">APlayerActor.h</text>
</a>
</g>
</g>
<!-- Node1&#45;&gt;Node10 -->
<g id="edge10_Node000001_Node000010" class="edge">
<title>Node1&#45;&gt;Node10</title>
<g id="a_edge10_Node000001_Node000010"><a xlink:title=" ">
<path fill="none" stroke="#63b8ff" d="M1763.24,-175.95C1817.82,-164.11 1894.76,-147.42 1944.39,-136.65"/>
<polygon fill="#63b8ff" stroke="#63b8ff" points="1945.21,-140.06 1954.24,-134.52 1943.73,-133.22 1945.21,-140.06"/>
</a>
</g>
</g>
<!-- Node16 -->
<g id="Node000016" class="node">
<title>Node16</title>
<g id="a_Node000016"><a xlink:href="UGameDataManager_8h.html" target="_top" xlink:title="UGameDataManager 클래스를 선언합니다.">
<polygon fill="white" stroke="#666666" points="949.5,-134.5 821.5,-134.5 821.5,-115.5 949.5,-115.5 949.5,-134.5"/>
<text text-anchor="middle" x="885.5" y="-122.5" font-family="Malgun Gothic" font-size="10.00">UGameDataManager.h</text>
</a>
</g>
</g>
<!-- Node1&#45;&gt;Node16 -->
<g id="edge18_Node000001_Node000016" class="edge">
<title>Node1&#45;&gt;Node16</title>
<g id="a_edge18_Node000001_Node000016"><a xlink:title=" ">
<path fill="none" stroke="#63b8ff" d="M1610.72,-183.09C1449.77,-170.42 1110.18,-143.69 959.82,-131.85"/>
<polygon fill="#63b8ff" stroke="#63b8ff" points="960.01,-128.35 949.76,-131.06 959.46,-135.33 960.01,-128.35"/>
</a>
</g>
</g>
<!-- Node27 -->
<g id="Node000027" class="node">
<title>Node27</title>
<g id="a_Node000027"><a xlink:title=" ">
<polygon fill="#e0e0e0" stroke="#999999" points="2151.5,-134.5 2055.5,-134.5 2055.5,-115.5 2151.5,-115.5 2151.5,-134.5"/>
<text text-anchor="middle" x="2103.5" y="-122.5" font-family="Malgun Gothic" font-size="10.00">TimerManager.h</text>
</a>
</g>
</g>
<!-- Node1&#45;&gt;Node27 -->
<g id="edge40_Node000001_Node000027" class="edge">
<title>Node1&#45;&gt;Node27</title>
<g id="a_edge40_Node000001_Node000027"><a xlink:title=" ">
<path fill="none" stroke="#63b8ff" d="M1786.14,-179.83C1856.75,-171.05 1958.42,-157.1 2046.5,-140 2051.25,-139.08 2056.2,-138.02 2061.11,-136.9"/>
<polygon fill="#63b8ff" stroke="#63b8ff" points="2062.14,-140.25 2071.07,-134.55 2060.53,-133.44 2062.14,-140.25"/>
</a>
</g>
</g>
<!-- Node28 -->
<g id="Node000028" class="node">
<title>Node28</title>
<g id="a_Node000028"><a xlink:href="UBroadcastManager_8h.html" target="_top" xlink:title=" ">
<polygon fill="white" stroke="#666666" points="1760.5,-134.5 1636.5,-134.5 1636.5,-115.5 1760.5,-115.5 1760.5,-134.5"/>
<text text-anchor="middle" x="1698.5" y="-122.5" font-family="Malgun Gothic" font-size="10.00">UBroadcastManager.h</text>
</a>
</g>
</g>
<!-- Node1&#45;&gt;Node28 -->
<g id="edge41_Node000001_Node000028" class="edge">
<title>Node1&#45;&gt;Node28</title>
<g id="a_edge41_Node000001_Node000028"><a xlink:title=" ">
<path fill="none" stroke="#63b8ff" d="M1698.5,-175.8C1698.5,-166.7 1698.5,-154.79 1698.5,-144.9"/>
<polygon fill="#63b8ff" stroke="#63b8ff" points="1702,-144.84 1698.5,-134.84 1695,-144.84 1702,-144.84"/>
</a>
</g>
</g>
<!-- Node30 -->
<g id="Node000030" class="node">
<title>Node30</title>
<g id="a_Node000030"><a xlink:title=" ">
<polygon fill="#e0e0e0" stroke="#999999" points="2373,-140 2170,-140 2170,-110 2373,-110 2373,-140"/>
<text text-anchor="start" x="2178" y="-128" font-family="Malgun Gothic" font-size="10.00">GameFramework/CharacterMovement</text>
<text text-anchor="middle" x="2271.5" y="-117" font-family="Malgun Gothic" font-size="10.00">Component.h</text>
</a>
</g>
</g>
<!-- Node1&#45;&gt;Node30 -->
<g id="edge47_Node000001_Node000030" class="edge">
<title>Node1&#45;&gt;Node30</title>
<g id="a_edge47_Node000001_Node000030"><a xlink:title=" ">
<path fill="none" stroke="#63b8ff" d="M1786.26,-180.97C1876.96,-171.53 2022.95,-156.04 2159.64,-140.09"/>
<polygon fill="#63b8ff" stroke="#63b8ff" points="2160.36,-143.53 2169.89,-138.89 2159.55,-136.57 2160.36,-143.53"/>
</a>
</g>
</g>
<!-- Node3 -->
<g id="Node000003" class="node">
<title>Node3</title>
<g id="a_Node000003"><a xlink:title=" ">
<polygon fill="#e0e0e0" stroke="#999999" points="1180.5,-19 1092.5,-19 1092.5,0 1180.5,0 1180.5,-19"/>
<text text-anchor="middle" x="1136.5" y="-7" font-family="Malgun Gothic" font-size="10.00">CoreMinimal.h</text>
</a>
</g>
</g>
<!-- Node2&#45;&gt;Node3 -->
<g id="edge2_Node000002_Node000003" class="edge">
<title>Node2&#45;&gt;Node3</title>
<g id="a_edge2_Node000002_Node000003"><a xlink:title=" ">
<path fill="none" stroke="#63b8ff" d="M1594.18,-115.42C1635.42,-104.38 1692.44,-83.21 1666.5,-55 1634.74,-20.46 1319.34,-12.72 1190.7,-10.99"/>
<polygon fill="#63b8ff" stroke="#63b8ff" points="1190.71,-7.49 1180.67,-10.86 1190.62,-14.49 1190.71,-7.49"/>
</a>
</g>
</g>
<!-- Node4 -->
<g id="Node000004" class="node">
<title>Node4</title>
<g id="a_Node000004"><a xlink:title=" ">
<polygon fill="#e0e0e0" stroke="#999999" points="1463.5,-74 1291.5,-74 1291.5,-55 1463.5,-55 1463.5,-74"/>
<text text-anchor="middle" x="1377.5" y="-62" font-family="Malgun Gothic" font-size="10.00">Components/ActorComponent.h</text>
</a>
</g>
</g>
<!-- Node2&#45;&gt;Node4 -->
<g id="edge3_Node000002_Node000004" class="edge">
<title>Node2&#45;&gt;Node4</title>
<g id="a_edge3_Node000002_Node000004"><a xlink:title=" ">
<path fill="none" stroke="#63b8ff" d="M1530.47,-115.49C1499.58,-105.4 1447.92,-88.51 1413.28,-77.19"/>
<polygon fill="#63b8ff" stroke="#63b8ff" points="1414.15,-73.8 1403.56,-74.02 1411.98,-80.45 1414.15,-73.8"/>
</a>
</g>
</g>
<!-- Node2&#45;&gt;Node5 -->
<g id="edge4_Node000002_Node000005" class="edge">
<title>Node2&#45;&gt;Node5</title>
<g id="a_edge4_Node000002_Node000005"><a xlink:title=" ">
<path fill="none" stroke="#63b8ff" d="M1494.74,-122.37C1347.55,-118.1 964.35,-104.84 634.01,-74.06"/>
<polygon fill="#63b8ff" stroke="#63b8ff" points="634.05,-70.55 623.76,-73.1 633.39,-77.52 634.05,-70.55"/>
</a>
</g>
</g>
<!-- Node9 -->
<g id="Node000009" class="node">
<title>Node9</title>
<g id="a_Node000009"><a xlink:title=" ">
<polygon fill="#e0e0e0" stroke="#999999" points="1657.5,-74 1481.5,-74 1481.5,-55 1657.5,-55 1657.5,-74"/>
<text text-anchor="middle" x="1569.5" y="-62" font-family="Malgun Gothic" font-size="10.00">UKnockbackSystem.generated.h</text>
</a>
</g>
</g>
<!-- Node2&#45;&gt;Node9 -->
<g id="edge9_Node000002_Node000009" class="edge">
<title>Node2&#45;&gt;Node9</title>
<g id="a_edge9_Node000002_Node000009"><a xlink:title=" ">
<path fill="none" stroke="#63b8ff" d="M1558.42,-115.37C1560.24,-107.16 1563.05,-94.54 1565.38,-84.05"/>
<polygon fill="#63b8ff" stroke="#63b8ff" points="1568.82,-84.69 1567.57,-74.17 1561.99,-83.17 1568.82,-84.69"/>
</a>
</g>
</g>
<!-- Node5&#45;&gt;Node3 -->
<g id="edge5_Node000005_Node000003" class="edge">
<title>Node5&#45;&gt;Node3</title>
<g id="a_edge5_Node000005_Node000003"><a xlink:title=" ">
<path fill="none" stroke="#63b8ff" d="M623.77,-55.99C626.72,-55.64 629.65,-55.31 632.5,-55 828.78,-33.92 881.57,-42.33 1082.35,-18.91"/>
<polygon fill="#63b8ff" stroke="#63b8ff" points="1082.81,-22.38 1092.33,-17.73 1081.99,-15.43 1082.81,-22.38"/>
</a>
</g>
</g>
<!-- Node6 -->
<g id="Node000006" class="node">
<title>Node6</title>
<g id="a_Node000006"><a xlink:href="EDamageType_8h.html" target="_top" xlink:title="EDamageType 클래스를 선언합니다.">
<polygon fill="white" stroke="#666666" points="1074,-19 979,-19 979,0 1074,0 1074,-19"/>
<text text-anchor="middle" x="1026.5" y="-7" font-family="Malgun Gothic" font-size="10.00">EDamageType.h</text>
</a>
</g>
</g>
<!-- Node5&#45;&gt;Node6 -->
<g id="edge6_Node000005_Node000006" class="edge">
<title>Node5&#45;&gt;Node6</title>
<g id="a_edge6_Node000005_Node000006"><a xlink:title=" ">
<path fill="none" stroke="#63b8ff" d="M623.78,-56.08C626.73,-55.71 629.65,-55.34 632.5,-55 778.83,-37.32 818.4,-38.07 968.86,-19.03"/>
<polygon fill="#63b8ff" stroke="#63b8ff" points="969.46,-22.48 978.93,-17.74 968.57,-15.54 969.46,-22.48"/>
</a>
</g>
</g>
<!-- Node7 -->
<g id="Node000007" class="node">
<title>Node7</title>
<g id="a_Node000007"><a xlink:title=" ">
<polygon fill="#e0e0e0" stroke="#999999" points="620.5,-19 510.5,-19 510.5,0 620.5,0 620.5,-19"/>
<text text-anchor="middle" x="565.5" y="-7" font-family="Malgun Gothic" font-size="10.00">Engine/DataTable.h</text>
</a>
</g>
</g>
<!-- Node5&#45;&gt;Node7 -->
<g id="edge7_Node000005_Node000007" class="edge">
<title>Node5&#45;&gt;Node7</title>
<g id="a_edge7_Node000005_Node000007"><a xlink:title=" ">
<path fill="none" stroke="#63b8ff" d="M568.84,-54.75C568.32,-47.8 567.56,-37.85 566.91,-29.13"/>
<polygon fill="#63b8ff" stroke="#63b8ff" points="570.39,-28.8 566.15,-19.09 563.41,-29.32 570.39,-28.8"/>
</a>
</g>
</g>
<!-- Node8 -->
<g id="Node000008" class="node">
<title>Node8</title>
<g id="a_Node000008"><a xlink:title=" ">
<polygon fill="#e0e0e0" stroke="#999999" points="800,-19 639,-19 639,0 800,0 800,-19"/>
<text text-anchor="middle" x="719.5" y="-7" font-family="Malgun Gothic" font-size="10.00">FKnockbackData.generated.h</text>
</a>
</g>
</g>
<!-- Node5&#45;&gt;Node8 -->
<g id="edge8_Node000005_Node000008" class="edge">
<title>Node5&#45;&gt;Node8</title>
<g id="a_edge8_Node000005_Node000008"><a xlink:title=" ">
<path fill="none" stroke="#63b8ff" d="M593.6,-54.98C618.38,-46.23 657.2,-32.51 685.19,-22.62"/>
<polygon fill="#63b8ff" stroke="#63b8ff" points="686.7,-25.8 694.96,-19.17 684.37,-19.2 686.7,-25.8"/>
</a>
</g>
</g>
<!-- Node10&#45;&gt;Node3 -->
<g id="edge11_Node000010_Node000003" class="edge">
<title>Node10&#45;&gt;Node3</title>
<g id="a_edge11_Node000010_Node000003"><a xlink:title=" ">
<path fill="none" stroke="#63b8ff" d="M1994.04,-115.08C1994.42,-99.99 1992.7,-69.64 1974.5,-55 1943.93,-30.4 1371.31,-15.69 1190.63,-11.64"/>
<polygon fill="#63b8ff" stroke="#63b8ff" points="1190.64,-8.14 1180.56,-11.42 1190.48,-15.14 1190.64,-8.14"/>
</a>
</g>
</g>
<!-- Node11 -->
<g id="Node000011" class="node">
<title>Node11</title>
<g id="a_Node000011"><a xlink:title=" ">
<polygon fill="#e0e0e0" stroke="#999999" points="2180,-74 2021,-74 2021,-55 2180,-55 2180,-74"/>
<text text-anchor="middle" x="2100.5" y="-62" font-family="Malgun Gothic" font-size="10.00">GameFramework/Character.h</text>
</a>
</g>
</g>
<!-- Node10&#45;&gt;Node11 -->
<g id="edge12_Node000010_Node000011" class="edge">
<title>Node10&#45;&gt;Node11</title>
<g id="a_edge12_Node000010_Node000011"><a xlink:title=" ">
<path fill="none" stroke="#63b8ff" d="M2009.29,-115.37C2026.83,-105.78 2055.38,-90.17 2075.87,-78.97"/>
<polygon fill="#63b8ff" stroke="#63b8ff" points="2077.55,-82.04 2084.65,-74.17 2074.19,-75.89 2077.55,-82.04"/>
</a>
</g>
</g>
<!-- Node12 -->
<g id="Node000012" class="node">
<title>Node12</title>
<g id="a_Node000012"><a xlink:href="IControllable_8h.html" target="_top" xlink:title="UControllable 클래스를 선언합니다.">
<polygon fill="white" stroke="#666666" points="2285.5,-74 2197.5,-74 2197.5,-55 2285.5,-55 2285.5,-74"/>
<text text-anchor="middle" x="2241.5" y="-62" font-family="Malgun Gothic" font-size="10.00">IControllable.h</text>
</a>
</g>
</g>
<!-- Node10&#45;&gt;Node12 -->
<g id="edge13_Node000010_Node000012" class="edge">
<title>Node10&#45;&gt;Node12</title>
<g id="a_edge13_Node000010_Node000012"><a xlink:title=" ">
<path fill="none" stroke="#63b8ff" d="M2025.12,-115.46C2032.15,-113.61 2039.57,-111.71 2046.5,-110 2095.97,-97.82 2152.79,-84.99 2192.29,-76.25"/>
<polygon fill="#63b8ff" stroke="#63b8ff" points="2193.18,-79.63 2202.19,-74.06 2191.67,-72.8 2193.18,-79.63"/>
</a>
</g>
</g>
<!-- Node15 -->
<g id="Node000015" class="node">
<title>Node15</title>
<g id="a_Node000015"><a xlink:title=" ">
<polygon fill="#e0e0e0" stroke="#999999" points="2443.5,-74 2303.5,-74 2303.5,-55 2443.5,-55 2443.5,-74"/>
<text text-anchor="middle" x="2373.5" y="-62" font-family="Malgun Gothic" font-size="10.00">APlayerActor.generated.h</text>
</a>
</g>
</g>
<!-- Node10&#45;&gt;Node15 -->
<g id="edge17_Node000010_Node000015" class="edge">
<title>Node10&#45;&gt;Node15</title>
<g id="a_edge17_Node000010_Node000015"><a xlink:title=" ">
<path fill="none" stroke="#63b8ff" d="M2023.34,-115.43C2030.86,-113.46 2038.94,-111.51 2046.5,-110 2092.23,-100.88 2212.03,-85.37 2293.2,-75.28"/>
<polygon fill="#63b8ff" stroke="#63b8ff" points="2293.9,-78.72 2303.4,-74.01 2293.04,-71.77 2293.9,-78.72"/>
</a>
</g>
</g>
<!-- Node12&#45;&gt;Node3 -->
<g id="edge14_Node000012_Node000003" class="edge">
<title>Node12&#45;&gt;Node3</title>
<g id="a_edge14_Node000012_Node000003"><a xlink:title=" ">
<path fill="none" stroke="#63b8ff" d="M2197.3,-56.02C2194.33,-55.63 2191.37,-55.29 2188.5,-55 1808.03,-16.58 1346.89,-11.23 1190.99,-10.57"/>
<polygon fill="#63b8ff" stroke="#63b8ff" points="1190.74,-7.06 1180.73,-10.53 1190.71,-14.06 1190.74,-7.06"/>
</a>
</g>
</g>
<!-- Node13 -->
<g id="Node000013" class="node">
<title>Node13</title>
<g id="a_Node000013"><a xlink:title=" ">
<polygon fill="#e0e0e0" stroke="#999999" points="2225,-19 2114,-19 2114,0 2225,0 2225,-19"/>
<text text-anchor="middle" x="2169.5" y="-7" font-family="Malgun Gothic" font-size="10.00">UObject/Interface.h</text>
</a>
</g>
</g>
<!-- Node12&#45;&gt;Node13 -->
<g id="edge15_Node000012_Node000013" class="edge">
<title>Node12&#45;&gt;Node13</title>
<g id="a_edge15_Node000012_Node000013"><a xlink:title=" ">
<path fill="none" stroke="#63b8ff" d="M2229.93,-54.98C2219.08,-47 2202.62,-34.88 2189.62,-25.31"/>
<polygon fill="#63b8ff" stroke="#63b8ff" points="2191.41,-22.28 2181.28,-19.17 2187.26,-27.92 2191.41,-22.28"/>
</a>
</g>
</g>
<!-- Node14 -->
<g id="Node000014" class="node">
<title>Node14</title>
<g id="a_Node000014"><a xlink:title=" ">
<polygon fill="#e0e0e0" stroke="#999999" points="2383.5,-19 2243.5,-19 2243.5,0 2383.5,0 2383.5,-19"/>
<text text-anchor="middle" x="2313.5" y="-7" font-family="Malgun Gothic" font-size="10.00">IControllable.generated.h</text>
</a>
</g>
</g>
<!-- Node12&#45;&gt;Node14 -->
<g id="edge16_Node000012_Node000014" class="edge">
<title>Node12&#45;&gt;Node14</title>
<g id="a_edge16_Node000012_Node000014"><a xlink:title=" ">
<path fill="none" stroke="#63b8ff" d="M2253.07,-54.98C2263.92,-47 2280.38,-34.88 2293.38,-25.31"/>
<polygon fill="#63b8ff" stroke="#63b8ff" points="2295.74,-27.92 2301.72,-19.17 2291.59,-22.28 2295.74,-27.92"/>
</a>
</g>
</g>
<!-- Node16&#45;&gt;Node3 -->
<g id="edge19_Node000016_Node000003" class="edge">
<title>Node16&#45;&gt;Node3</title>
<g id="a_edge19_Node000016_Node000003"><a xlink:title=" ">
<path fill="none" stroke="#63b8ff" d="M894.77,-115.28C910.69,-100.75 944.75,-71.57 978.5,-55 1011.39,-38.85 1051.1,-27.7 1082.49,-20.6"/>
<polygon fill="#63b8ff" stroke="#63b8ff" points="1083.34,-23.99 1092.36,-18.43 1081.84,-17.15 1083.34,-23.99"/>
</a>
</g>
</g>
<!-- Node16&#45;&gt;Node5 -->
<g id="edge26_Node000016_Node000005" class="edge">
<title>Node16&#45;&gt;Node5</title>
<g id="a_edge26_Node000016_Node000005"><a xlink:title=" ">
<path fill="none" stroke="#63b8ff" d="M839.55,-115.49C782.8,-104.99 686.31,-87.12 625.34,-75.84"/>
<polygon fill="#63b8ff" stroke="#63b8ff" points="625.97,-72.4 615.5,-74.02 624.7,-79.28 625.97,-72.4"/>
</a>
</g>
</g>
<!-- Node17 -->
<g id="Node000017" class="node">
<title>Node17</title>
<g id="a_Node000017"><a xlink:href="Macro_8h.html" target="_top" xlink:title="YiSan 전반에서 사용하는 공용 인터페이스를 선언합니다.">
<polygon fill="white" stroke="#666666" points="1273.5,-74 1217.5,-74 1217.5,-55 1273.5,-55 1273.5,-74"/>
<text text-anchor="middle" x="1245.5" y="-62" font-family="Malgun Gothic" font-size="10.00">Macro.h</text>
</a>
</g>
</g>
<!-- Node16&#45;&gt;Node17 -->
<g id="edge20_Node000016_Node000017" class="edge">
<title>Node16&#45;&gt;Node17</title>
<g id="a_edge20_Node000016_Node000017"><a xlink:title=" ">
<path fill="none" stroke="#63b8ff" d="M949.47,-115.49C1012.57,-106.77 1111.98,-92.21 1207.17,-74.14"/>
<polygon fill="#63b8ff" stroke="#63b8ff" points="1208.1,-77.53 1217.26,-72.21 1206.78,-70.65 1208.1,-77.53"/>
</a>
</g>
</g>
<!-- Node18 -->
<g id="Node000018" class="node">
<title>Node18</title>
<g id="a_Node000018"><a xlink:href="FHitStopData_8h.html" target="_top" xlink:title="FHitStopData 구조체를 선언합니다.">
<polygon fill="white" stroke="#666666" points="931,-74 840,-74 840,-55 931,-55 931,-74"/>
<text text-anchor="middle" x="885.5" y="-62" font-family="Malgun Gothic" font-size="10.00">FHitStopData.h</text>
</a>
</g>
</g>
<!-- Node16&#45;&gt;Node18 -->
<g id="edge21_Node000016_Node000018" class="edge">
<title>Node16&#45;&gt;Node18</title>
<g id="a_edge21_Node000016_Node000018"><a xlink:title=" ">
<path fill="none" stroke="#63b8ff" d="M885.5,-115.37C885.5,-107.25 885.5,-94.81 885.5,-84.39"/>
<polygon fill="#63b8ff" stroke="#63b8ff" points="889,-84.17 885.5,-74.17 882,-84.17 889,-84.17"/>
</a>
</g>
</g>
<!-- Node20 -->
<g id="Node000020" class="node">
<title>Node20</title>
<g id="a_Node000020"><a xlink:href="FCharacterInfoData_8h.html" target="_top" xlink:title="FCharacterInfoData 구조체를 선언합니다.">
<polygon fill="white" stroke="#666666" points="350,-74 229,-74 229,-55 350,-55 350,-74"/>
<text text-anchor="middle" x="289.5" y="-62" font-family="Malgun Gothic" font-size="10.00">FCharacterInfoData.h</text>
</a>
</g>
</g>
<!-- Node16&#45;&gt;Node20 -->
<g id="edge27_Node000016_Node000020" class="edge">
<title>Node16&#45;&gt;Node20</title>
<g id="a_edge27_Node000016_Node000020"><a xlink:title=" ">
<path fill="none" stroke="#63b8ff" d="M821.35,-118.5C723.96,-110.01 532.7,-92.85 360.1,-74.15"/>
<polygon fill="#63b8ff" stroke="#63b8ff" points="360.39,-70.66 350.07,-73.06 359.63,-77.62 360.39,-70.66"/>
</a>
</g>
</g>
<!-- Node23 -->
<g id="Node000023" class="node">
<title>Node23</title>
<g id="a_Node000023"><a xlink:href="FCharacterAssetData_8h.html" target="_top" xlink:title="UCharacterData 클래스를 선언합니다.">
<polygon fill="white" stroke="#666666" points="497,-74 368,-74 368,-55 497,-55 497,-74"/>
<text text-anchor="middle" x="432.5" y="-62" font-family="Malgun Gothic" font-size="10.00">FCharacterAssetData.h</text>
</a>
</g>
</g>
<!-- Node16&#45;&gt;Node23 -->
<g id="edge32_Node000016_Node000023" class="edge">
<title>Node16&#45;&gt;Node23</title>
<g id="a_edge32_Node000016_Node000023"><a xlink:title=" ">
<path fill="none" stroke="#63b8ff" d="M821.08,-115.68C738.25,-104.98 594.71,-86.45 507.19,-75.15"/>
<polygon fill="#63b8ff" stroke="#63b8ff" points="507.43,-71.65 497.07,-73.84 506.54,-78.59 507.43,-71.65"/>
</a>
</g>
</g>
<!-- Node25 -->
<g id="Node000025" class="node">
<title>Node25</title>
<g id="a_Node000025"><a xlink:title=" ">
<polygon fill="#e0e0e0" stroke="#999999" points="1199.5,-74 987.5,-74 987.5,-55 1199.5,-55 1199.5,-74"/>
<text text-anchor="middle" x="1093.5" y="-62" font-family="Malgun Gothic" font-size="10.00">Subsystems/GameInstanceSubsystem.h</text>
</a>
</g>
</g>
<!-- Node16&#45;&gt;Node25 -->
<g id="edge37_Node000016_Node000025" class="edge">
<title>Node16&#45;&gt;Node25</title>
<g id="a_edge37_Node000016_Node000025"><a xlink:title=" ">
<path fill="none" stroke="#63b8ff" d="M915.74,-115.49C952.1,-105.27 1013.23,-88.08 1053.47,-76.76"/>
<polygon fill="#63b8ff" stroke="#63b8ff" points="1054.54,-80.09 1063.22,-74.02 1052.64,-73.35 1054.54,-80.09"/>
</a>
</g>
</g>
<!-- Node26 -->
<g id="Node000026" class="node">
<title>Node26</title>
<g id="a_Node000026"><a xlink:title=" ">
<polygon fill="#e0e0e0" stroke="#999999" points="821.5,-74 641.5,-74 641.5,-55 821.5,-55 821.5,-74"/>
<text text-anchor="middle" x="731.5" y="-62" font-family="Malgun Gothic" font-size="10.00">UGameDataManager.generated.h</text>
</a>
</g>
</g>
<!-- Node16&#45;&gt;Node26 -->
<g id="edge38_Node000016_Node000026" class="edge">
<title>Node16&#45;&gt;Node26</title>
<g id="a_edge38_Node000016_Node000026"><a xlink:title=" ">
<path fill="none" stroke="#63b8ff" d="M863.11,-115.49C836.88,-105.53 793.22,-88.95 763.44,-77.63"/>
<polygon fill="#63b8ff" stroke="#63b8ff" points="764.51,-74.3 753.92,-74.02 762.03,-80.84 764.51,-74.3"/>
</a>
</g>
</g>
<!-- Node18&#45;&gt;Node3 -->
<g id="edge22_Node000018_Node000003" class="edge">
<title>Node18&#45;&gt;Node3</title>
<g id="a_edge22_Node000018_Node000003"><a xlink:title=" ">
<path fill="none" stroke="#63b8ff" d="M925.83,-54.98C969.34,-45.8 1038.7,-31.15 1085.85,-21.19"/>
<polygon fill="#63b8ff" stroke="#63b8ff" points="1086.8,-24.57 1095.86,-19.08 1085.35,-17.72 1086.8,-24.57"/>
</a>
</g>
</g>
<!-- Node18&#45;&gt;Node6 -->
<g id="edge23_Node000018_Node000006" class="edge">
<title>Node18&#45;&gt;Node6</title>
<g id="a_edge23_Node000018_Node000006"><a xlink:title=" ">
<path fill="none" stroke="#63b8ff" d="M908.15,-54.98C931.35,-46.27 967.62,-32.63 993.9,-22.75"/>
<polygon fill="#63b8ff" stroke="#63b8ff" points="995.3,-25.97 1003.43,-19.17 992.84,-19.41 995.3,-25.97"/>
</a>
</g>
</g>
<!-- Node18&#45;&gt;Node7 -->
<g id="edge24_Node000018_Node000007" class="edge">
<title>Node18&#45;&gt;Node7</title>
<g id="a_edge24_Node000018_Node000007"><a xlink:title=" ">
<path fill="none" stroke="#63b8ff" d="M839.99,-55.96C784.17,-46.72 689.31,-31.01 627.03,-20.69"/>
<polygon fill="#63b8ff" stroke="#63b8ff" points="627.38,-17.2 616.94,-19.02 626.24,-24.11 627.38,-17.2"/>
</a>
</g>
</g>
<!-- Node19 -->
<g id="Node000019" class="node">
<title>Node19</title>
<g id="a_Node000019"><a xlink:title=" ">
<polygon fill="#e0e0e0" stroke="#999999" points="961,-19 818,-19 818,0 961,0 961,-19"/>
<text text-anchor="middle" x="889.5" y="-7" font-family="Malgun Gothic" font-size="10.00">FHitStopData.generated.h</text>
</a>
</g>
</g>
<!-- Node18&#45;&gt;Node19 -->
<g id="edge25_Node000018_Node000019" class="edge">
<title>Node18&#45;&gt;Node19</title>
<g id="a_edge25_Node000018_Node000019"><a xlink:title=" ">
<path fill="none" stroke="#63b8ff" d="M886.16,-54.75C886.68,-47.8 887.44,-37.85 888.09,-29.13"/>
<polygon fill="#63b8ff" stroke="#63b8ff" points="891.59,-29.32 888.85,-19.09 884.61,-28.8 891.59,-29.32"/>
</a>
</g>
</g>
<!-- Node20&#45;&gt;Node3 -->
<g id="edge28_Node000020_Node000003" class="edge">
<title>Node20&#45;&gt;Node3</title>
<g id="a_edge28_Node000020_Node000003"><a xlink:title=" ">
<path fill="none" stroke="#63b8ff" d="M350.06,-55.79C352.91,-55.5 355.73,-55.24 358.5,-55 676.19,-27.57 760.31,-51.59 1082.26,-18.88"/>
<polygon fill="#63b8ff" stroke="#63b8ff" points="1082.76,-22.35 1092.35,-17.84 1082.04,-15.38 1082.76,-22.35"/>
</a>
</g>
</g>
<!-- Node20&#45;&gt;Node7 -->
<g id="edge30_Node000020_Node000007" class="edge">
<title>Node20&#45;&gt;Node7</title>
<g id="a_edge30_Node000020_Node000007"><a xlink:title=" ">
<path fill="none" stroke="#63b8ff" d="M333.84,-54.98C381.99,-45.74 458.92,-30.97 510.79,-21.01"/>
<polygon fill="#63b8ff" stroke="#63b8ff" points="511.65,-24.41 520.81,-19.08 510.33,-17.53 511.65,-24.41"/>
</a>
</g>
</g>
<!-- Node21 -->
<g id="Node000021" class="node">
<title>Node21</title>
<g id="a_Node000021"><a xlink:href="ECharacterType_8h.html" target="_top" xlink:title="ECharacterType 클래스를 선언합니다.">
<polygon fill="white" stroke="#666666" points="292,-19 191,-19 191,0 292,0 292,-19"/>
<text text-anchor="middle" x="241.5" y="-7" font-family="Malgun Gothic" font-size="10.00">ECharacterType.h</text>
</a>
</g>
</g>
<!-- Node20&#45;&gt;Node21 -->
<g id="edge29_Node000020_Node000021" class="edge">
<title>Node20&#45;&gt;Node21</title>
<g id="a_edge29_Node000020_Node000021"><a xlink:title=" ">
<path fill="none" stroke="#63b8ff" d="M281.57,-54.75C274.65,-47.11 264.43,-35.82 256.05,-26.56"/>
<polygon fill="#63b8ff" stroke="#63b8ff" points="258.59,-24.15 249.28,-19.09 253.4,-28.85 258.59,-24.15"/>
</a>
</g>
</g>
<!-- Node22 -->
<g id="Node000022" class="node">
<title>Node22</title>
<g id="a_Node000022"><a xlink:title=" ">
<polygon fill="#e0e0e0" stroke="#999999" points="173,-19 0,-19 0,0 173,0 173,-19"/>
<text text-anchor="middle" x="86.5" y="-7" font-family="Malgun Gothic" font-size="10.00">FCharacterInfoData.generated.h</text>
</a>
</g>
</g>
<!-- Node20&#45;&gt;Node22 -->
<g id="edge31_Node000020_Node000022" class="edge">
<title>Node20&#45;&gt;Node22</title>
<g id="a_edge31_Node000020_Node000022"><a xlink:title=" ">
<path fill="none" stroke="#63b8ff" d="M256.88,-54.98C222.21,-45.93 167.24,-31.58 129.15,-21.64"/>
<polygon fill="#63b8ff" stroke="#63b8ff" points="129.93,-18.22 119.37,-19.08 128.16,-24.99 129.93,-18.22"/>
</a>
</g>
</g>
<!-- Node23&#45;&gt;Node3 -->
<g id="edge33_Node000023_Node000003" class="edge">
<title>Node23&#45;&gt;Node3</title>
<g id="a_edge33_Node000023_Node000003"><a xlink:title=" ">
<path fill="none" stroke="#63b8ff" d="M497.05,-55.89C500.25,-55.57 503.41,-55.27 506.5,-55 758.75,-32.64 825.84,-46.61 1082.35,-18.89"/>
<polygon fill="#63b8ff" stroke="#63b8ff" points="1082.78,-22.36 1092.34,-17.8 1082.02,-15.4 1082.78,-22.36"/>
</a>
</g>
</g>
<!-- Node23&#45;&gt;Node7 -->
<g id="edge35_Node000023_Node000007" class="edge">
<title>Node23&#45;&gt;Node7</title>
<g id="a_edge35_Node000023_Node000007"><a xlink:title=" ">
<path fill="none" stroke="#63b8ff" d="M453.87,-54.98C475.65,-46.3 509.66,-32.75 534.42,-22.88"/>
<polygon fill="#63b8ff" stroke="#63b8ff" points="535.75,-26.12 543.74,-19.17 533.16,-19.62 535.75,-26.12"/>
</a>
</g>
</g>
<!-- Node23&#45;&gt;Node21 -->
<g id="edge34_Node000023_Node000021" class="edge">
<title>Node23&#45;&gt;Node21</title>
<g id="a_edge34_Node000023_Node000021"><a xlink:title=" ">
<path fill="none" stroke="#63b8ff" d="M401.81,-54.98C369.33,-45.97 317.9,-31.7 282.09,-21.76"/>
<polygon fill="#63b8ff" stroke="#63b8ff" points="283,-18.38 272.43,-19.08 281.13,-25.13 283,-18.38"/>
</a>
</g>
</g>
<!-- Node24 -->
<g id="Node000024" class="node">
<title>Node24</title>
<g id="a_Node000024"><a xlink:title=" ">
<polygon fill="#e0e0e0" stroke="#999999" points="492.5,-19 310.5,-19 310.5,0 492.5,0 492.5,-19"/>
<text text-anchor="middle" x="401.5" y="-7" font-family="Malgun Gothic" font-size="10.00">FCharacterAssetData.generated.h</text>
</a>
</g>
</g>
<!-- Node23&#45;&gt;Node24 -->
<g id="edge36_Node000023_Node000024" class="edge">
<title>Node23&#45;&gt;Node24</title>
<g id="a_edge36_Node000023_Node000024"><a xlink:title=" ">
<path fill="none" stroke="#63b8ff" d="M427.38,-54.75C423.14,-47.49 416.97,-36.95 411.72,-27.98"/>
<polygon fill="#63b8ff" stroke="#63b8ff" points="414.59,-25.95 406.52,-19.09 408.55,-29.49 414.59,-25.95"/>
</a>
</g>
</g>
<!-- Node28&#45;&gt;Node3 -->
<g id="edge42_Node000028_Node000003" class="edge">
<title>Node28&#45;&gt;Node3</title>
<g id="a_edge42_Node000028_Node000003"><a xlink:title=" ">
<path fill="none" stroke="#63b8ff" d="M1699.7,-115.21C1701.18,-100.32 1701.69,-70.25 1684.5,-55 1648.14,-22.73 1322.58,-13.64 1191.16,-11.27"/>
<polygon fill="#63b8ff" stroke="#63b8ff" points="1190.97,-7.77 1180.91,-11.09 1190.85,-14.77 1190.97,-7.77"/>
</a>
</g>
</g>
<!-- Node28&#45;&gt;Node6 -->
<g id="edge44_Node000028_Node000006" class="edge">
<title>Node28&#45;&gt;Node6</title>
<g id="a_edge44_Node000028_Node000006"><a xlink:title=" ">
<path fill="none" stroke="#63b8ff" d="M1697.35,-115.43C1694.81,-100.3 1687.22,-69.15 1666.5,-55 1614.94,-19.8 1182.86,-25.29 1084.16,-18.74"/>
<polygon fill="#63b8ff" stroke="#63b8ff" points="1084.3,-15.24 1074.05,-17.9 1083.72,-22.22 1084.3,-15.24"/>
</a>
</g>
</g>
<!-- Node28&#45;&gt;Node17 -->
<g id="edge43_Node000028_Node000017" class="edge">
<title>Node28&#45;&gt;Node17</title>
<g id="a_edge43_Node000028_Node000017"><a xlink:title=" ">
<path fill="none" stroke="#63b8ff" d="M1657.86,-115.45C1647.66,-113.48 1636.7,-111.52 1626.5,-110 1477.73,-87.8 1435.92,-98.76 1283.89,-74.03"/>
<polygon fill="#63b8ff" stroke="#63b8ff" points="1284.15,-70.53 1273.71,-72.35 1283.01,-77.44 1284.15,-70.53"/>
</a>
</g>
</g>
<!-- Node28&#45;&gt;Node25 -->
<g id="edge45_Node000028_Node000025" class="edge">
<title>Node28&#45;&gt;Node25</title>
<g id="a_edge45_Node000028_Node000025"><a xlink:title=" ">
<path fill="none" stroke="#63b8ff" d="M1658.64,-115.45C1648.22,-113.43 1636.97,-111.45 1626.5,-110 1586.47,-104.45 1354.44,-85.88 1210.03,-74.55"/>
<polygon fill="#63b8ff" stroke="#63b8ff" points="1210.03,-71.04 1199.79,-73.75 1209.48,-78.02 1210.03,-71.04"/>
</a>
</g>
</g>
<!-- Node29 -->
<g id="Node000029" class="node">
<title>Node29</title>
<g id="a_Node000029"><a xlink:title=" ">
<polygon fill="#e0e0e0" stroke="#999999" points="1965.5,-74 1789.5,-74 1789.5,-55 1965.5,-55 1965.5,-74"/>
<text text-anchor="middle" x="1877.5" y="-62" font-family="Malgun Gothic" font-size="10.00">UBroadcastManager.generated.h</text>
</a>
</g>
</g>
<!-- Node28&#45;&gt;Node29 -->
<g id="edge46_Node000028_Node000029" class="edge">
<title>Node28&#45;&gt;Node29</title>
<g id="a_edge46_Node000028_Node000029"><a xlink:title=" ">
<path fill="none" stroke="#63b8ff" d="M1724.53,-115.49C1755.42,-105.4 1807.08,-88.51 1841.72,-77.19"/>
<polygon fill="#63b8ff" stroke="#63b8ff" points="1843.02,-80.45 1851.44,-74.02 1840.85,-73.8 1843.02,-80.45"/>
</a>
</g>
</g>
</g>
</svg>
