<?xml version="1.0" encoding="UTF-8" standalone="no"?>
<!DOCTYPE svg PUBLIC "-//W3C//DTD SVG 1.1//EN"
 "http://www.w3.org/Graphics/SVG/1.1/DTD/svg11.dtd">
<!-- Generated by graphviz version 2.43.0 (0)
 -->
<!-- Title: Source/Onepiece/UI/Private/ULoadginCircle.cpp Pages: 1 -->
<!--zoomable 214 -->

<svg id="main" version="1.1" xmlns="http://www.w3.org/2000/svg" xmlns:xlink="http://www.w3.org/1999/xlink" xml:space="preserve" onload="init(evt)">
<style type="text/css"><![CDATA[
.node, .edge {opacity: 0.7;}
.node.selected, .edge.selected {opacity: 1;}
.edge:hover path { stroke: red; }
.edge:hover polygon { stroke: red; fill: red; }
]]></style>

<defs>
  <circle id="rim" cx="0" cy="0" r="7"/>
  <circle id="rim2" cx="0" cy="0" r="3.5"/>
  <g id="zoomPlus">
    <use xlink:href="#rim" fill="#404040"><set attributeName="fill" to="#808080" begin="zoomplus.mouseover" end="zoomplus.mouseout"/></use>
    <path d="M-4,0h8M0,-4v8" fill="none" stroke="white" stroke-width="1.5" pointer-events="none"/>
  </g>
  <g id="zoomMin">
    <use xlink:href="#rim" fill="#404040"><set attributeName="fill" to="#808080" begin="zoomminus.mouseover" end="zoomminus.mouseout"/></use>
    <path d="M-4,0h8" fill="none" stroke="white" stroke-width="1.5" pointer-events="none"/>
  </g>
  <g id="arrowUp" transform="translate(30 24)">
    <use xlink:href="#rim"/>
    <path pointer-events="none" fill="none" stroke="white" stroke-width="1.5" d="M0,-3.0v7 M-2.5,-0.5L0,-3.0L2.5,-0.5"/>
  </g>
  <g id="arrowRight" transform="rotate(90) translate(36 -43)">
    <use xlink:href="#rim"/>
    <path pointer-events="none" fill="none" stroke="white" stroke-width="1.5" d="M0,-3.0v7 M-2.5,-0.5L0,-3.0L2.5,-0.5"/>
  </g>
  <g id="arrowDown" transform="rotate(180) translate(-30 -48)">
    <use xlink:href="#rim"/>
    <path pointer-events="none" fill="none" stroke="white" stroke-width="1.5" d="M0,-3.0v7 M-2.5,-0.5L0,-3.0L2.5,-0.5"/>
  </g>
  <g id="arrowLeft" transform="rotate(270) translate(-36 17)">
    <use xlink:href="#rim"/>
    <path pointer-events="none" fill="none" stroke="white" stroke-width="1.5" d="M0,-3.0v7 M-2.5,-0.5L0,-3.0L2.5,-0.5"/>
  </g>
  <g id="resetDef">
    <use xlink:href="#rim2" fill="#404040"><set attributeName="fill" to="#808080" begin="reset.mouseover" end="reset.mouseout"/></use>
  </g>
</defs>
<script type="application/ecmascript">
var viewWidth = 1926;
var viewHeight = 214;
var sectionId = 'dynsection-0';
</script>
<script type="application/ecmascript" xlink:href="svg.min.js"/>
<svg id="graph" class="graph">
<g id="viewport">
<title>Source/Onepiece/UI/Private/ULoadginCircle.cpp</title>
<!-- Node1 -->
<g id="Node000001" class="node">
<title>Node1</title>
<g id="a_Node000001"><a xlink:title="ULoadginCircle의 동작을 구현합니다.">
<polygon fill="#999999" stroke="#666666" points="1233.05,-206 1082.05,-206 1082.05,-176 1233.05,-176 1233.05,-206"/>
<text text-anchor="start" x="1090.05" y="-194" font-family="Malgun Gothic" font-size="10.00">Source/Onepiece/UI</text>
<text text-anchor="middle" x="1157.55" y="-183" font-family="Malgun Gothic" font-size="10.00">/Private/ULoadginCircle.cpp</text>
</a>
</g>
</g>
<!-- Node2 -->
<g id="Node000002" class="node">
<title>Node2</title>
<g id="a_Node000002"><a xlink:href="ULoadginCircle_8h.html" target="_top" xlink:title="ULoadginCircle 클래스를 선언합니다.">
<polygon fill="white" stroke="#666666" points="212.05,-134.5 113.05,-134.5 113.05,-115.5 212.05,-115.5 212.05,-134.5"/>
<text text-anchor="middle" x="162.55" y="-122.5" font-family="Malgun Gothic" font-size="10.00">ULoadginCircle.h</text>
</a>
</g>
</g>
<!-- Node1&#45;&gt;Node2 -->
<g id="edge1_Node000001_Node000002" class="edge">
<title>Node1&#45;&gt;Node2</title>
<g id="a_edge1_Node000001_Node000002"><a xlink:title=" ">
<path fill="none" stroke="#63b8ff" d="M1081.94,-185.14C891.39,-172.88 394.42,-140.91 222.28,-129.84"/>
<polygon fill="#63b8ff" stroke="#63b8ff" points="222.34,-126.34 212.14,-129.19 221.89,-133.32 222.34,-126.34"/>
</a>
</g>
</g>
<!-- Node6 -->
<g id="Node000006" class="node">
<title>Node6</title>
<g id="a_Node000006"><a xlink:href="GameLogging_8h.html" target="_top" xlink:title="YiSan 전반에서 사용하는 공용 인터페이스를 선언합니다.">
<polygon fill="white" stroke="#666666" points="542.05,-134.5 449.05,-134.5 449.05,-115.5 542.05,-115.5 542.05,-134.5"/>
<text text-anchor="middle" x="495.55" y="-122.5" font-family="Malgun Gothic" font-size="10.00">GameLogging.h</text>
</a>
</g>
</g>
<!-- Node1&#45;&gt;Node6 -->
<g id="edge5_Node000001_Node000006" class="edge">
<title>Node1&#45;&gt;Node6</title>
<g id="a_edge5_Node000001_Node000006"><a xlink:title=" ">
<path fill="none" stroke="#63b8ff" d="M1081.96,-187.71C966.81,-183.33 740.85,-171.26 551.55,-140 546.42,-139.15 541.08,-138.08 535.82,-136.9"/>
<polygon fill="#63b8ff" stroke="#63b8ff" points="536.41,-133.44 525.87,-134.54 534.8,-140.25 536.41,-133.44"/>
</a>
</g>
</g>
<!-- Node11 -->
<g id="Node000011" class="node">
<title>Node11</title>
<g id="a_Node000011"><a xlink:title=" ">
<polygon fill="#e0e0e0" stroke="#999999" points="688.55,-134.5 560.55,-134.5 560.55,-115.5 688.55,-115.5 688.55,-134.5"/>
<text text-anchor="middle" x="624.55" y="-122.5" font-family="Malgun Gothic" font-size="10.00">Blueprint/WidgetTree.h</text>
</a>
</g>
</g>
<!-- Node1&#45;&gt;Node11 -->
<g id="edge13_Node000001_Node000011" class="edge">
<title>Node1&#45;&gt;Node11</title>
<g id="a_edge13_Node000001_Node000011"><a xlink:title=" ">
<path fill="none" stroke="#63b8ff" d="M1082.01,-183.69C990.67,-175.61 832.4,-160.23 697.55,-140 690.44,-138.93 682.97,-137.67 675.63,-136.34"/>
<polygon fill="#63b8ff" stroke="#63b8ff" points="676.22,-132.89 665.75,-134.51 674.95,-139.78 676.22,-132.89"/>
</a>
</g>
</g>
<!-- Node12 -->
<g id="Node000012" class="node">
<title>Node12</title>
<g id="a_Node000012"><a xlink:title=" ">
<polygon fill="#e0e0e0" stroke="#999999" points="856.55,-140 706.55,-140 706.55,-110 856.55,-110 856.55,-140"/>
<text text-anchor="start" x="714.55" y="-128" font-family="Malgun Gothic" font-size="10.00">Components/HorizontalBox</text>
<text text-anchor="middle" x="781.55" y="-117" font-family="Malgun Gothic" font-size="10.00">Slot.h</text>
</a>
</g>
</g>
<!-- Node1&#45;&gt;Node12 -->
<g id="edge14_Node000001_Node000012" class="edge">
<title>Node1&#45;&gt;Node12</title>
<g id="a_edge14_Node000001_Node000012"><a xlink:title=" ">
<path fill="none" stroke="#63b8ff" d="M1081.91,-177.13C1019.72,-166.54 931.62,-151.55 866.92,-140.53"/>
<polygon fill="#63b8ff" stroke="#63b8ff" points="867.19,-137.03 856.74,-138.8 866.01,-143.93 867.19,-137.03"/>
</a>
</g>
</g>
<!-- Node13 -->
<g id="Node000013" class="node">
<title>Node13</title>
<g id="a_Node000013"><a xlink:title=" ">
<polygon fill="#e0e0e0" stroke="#999999" points="995.05,-134.5 874.05,-134.5 874.05,-115.5 995.05,-115.5 995.05,-134.5"/>
<text text-anchor="middle" x="934.55" y="-122.5" font-family="Malgun Gothic" font-size="10.00">Components/Image.h</text>
</a>
</g>
</g>
<!-- Node1&#45;&gt;Node13 -->
<g id="edge15_Node000001_Node000013" class="edge">
<title>Node1&#45;&gt;Node13</title>
<g id="a_edge15_Node000001_Node000013"><a xlink:title=" ">
<path fill="none" stroke="#63b8ff" d="M1108.61,-175.95C1068.29,-164.38 1011.85,-148.18 974.29,-137.41"/>
<polygon fill="#63b8ff" stroke="#63b8ff" points="974.8,-133.91 964.22,-134.52 972.87,-140.64 974.8,-133.91"/>
</a>
</g>
</g>
<!-- Node14 -->
<g id="Node000014" class="node">
<title>Node14</title>
<g id="a_Node000014"><a xlink:title=" ">
<polygon fill="#e0e0e0" stroke="#999999" points="1140.05,-134.5 1013.05,-134.5 1013.05,-115.5 1140.05,-115.5 1140.05,-134.5"/>
<text text-anchor="middle" x="1076.55" y="-122.5" font-family="Malgun Gothic" font-size="10.00">Components/Overlay.h</text>
</a>
</g>
</g>
<!-- Node1&#45;&gt;Node14 -->
<g id="edge16_Node000001_Node000014" class="edge">
<title>Node1&#45;&gt;Node14</title>
<g id="a_edge16_Node000001_Node000014"><a xlink:title=" ">
<path fill="none" stroke="#63b8ff" d="M1139.57,-175.8C1126.57,-165.53 1109.03,-151.67 1095.76,-141.18"/>
<polygon fill="#63b8ff" stroke="#63b8ff" points="1097.76,-138.3 1087.74,-134.84 1093.42,-143.79 1097.76,-138.3"/>
</a>
</g>
</g>
<!-- Node15 -->
<g id="Node000015" class="node">
<title>Node15</title>
<g id="a_Node000015"><a xlink:title=" ">
<polygon fill="#e0e0e0" stroke="#999999" points="1321.05,-134.5 1158.05,-134.5 1158.05,-115.5 1321.05,-115.5 1321.05,-134.5"/>
<text text-anchor="middle" x="1239.55" y="-122.5" font-family="Malgun Gothic" font-size="10.00">Engine/GameViewportClient.h</text>
</a>
</g>
</g>
<!-- Node1&#45;&gt;Node15 -->
<g id="edge17_Node000001_Node000015" class="edge">
<title>Node1&#45;&gt;Node15</title>
<g id="a_edge17_Node000001_Node000015"><a xlink:title=" ">
<path fill="none" stroke="#63b8ff" d="M1175.74,-175.8C1188.9,-165.53 1206.66,-151.67 1220.1,-141.18"/>
<polygon fill="#63b8ff" stroke="#63b8ff" points="1222.48,-143.76 1228.21,-134.84 1218.18,-138.24 1222.48,-143.76"/>
</a>
</g>
</g>
<!-- Node16 -->
<g id="Node000016" class="node">
<title>Node16</title>
<g id="a_Node000016"><a xlink:title=" ">
<polygon fill="#e0e0e0" stroke="#999999" points="1428.05,-134.5 1339.05,-134.5 1339.05,-115.5 1428.05,-115.5 1428.05,-134.5"/>
<text text-anchor="middle" x="1383.55" y="-122.5" font-family="Malgun Gothic" font-size="10.00">Engine/World.h</text>
</a>
</g>
</g>
<!-- Node1&#45;&gt;Node16 -->
<g id="edge18_Node000001_Node000016" class="edge">
<title>Node1&#45;&gt;Node16</title>
<g id="a_edge18_Node000001_Node000016"><a xlink:title=" ">
<path fill="none" stroke="#63b8ff" d="M1207.14,-175.95C1248.17,-164.34 1305.69,-148.05 1343.76,-137.27"/>
<polygon fill="#63b8ff" stroke="#63b8ff" points="1344.8,-140.61 1353.47,-134.52 1342.89,-133.87 1344.8,-140.61"/>
</a>
</g>
</g>
<!-- Node17 -->
<g id="Node000017" class="node">
<title>Node17</title>
<g id="a_Node000017"><a xlink:title=" ">
<polygon fill="#e0e0e0" stroke="#999999" points="1565.05,-134.5 1446.05,-134.5 1446.05,-115.5 1565.05,-115.5 1565.05,-134.5"/>
<text text-anchor="middle" x="1505.55" y="-122.5" font-family="Malgun Gothic" font-size="10.00">HAL/CriticalSection.h</text>
</a>
</g>
</g>
<!-- Node1&#45;&gt;Node17 -->
<g id="edge19_Node000001_Node000017" class="edge">
<title>Node1&#45;&gt;Node17</title>
<g id="a_edge19_Node000001_Node000017"><a xlink:title=" ">
<path fill="none" stroke="#63b8ff" d="M1233.11,-177.06C1289.51,-167.27 1368.44,-153.28 1437.55,-140 1443.23,-138.91 1449.18,-137.73 1455.09,-136.54"/>
<polygon fill="#63b8ff" stroke="#63b8ff" points="1455.84,-139.96 1464.95,-134.54 1454.45,-133.1 1455.84,-139.96"/>
</a>
</g>
</g>
<!-- Node18 -->
<g id="Node000018" class="node">
<title>Node18</title>
<g id="a_Node000018"><a xlink:title=" ">
<polygon fill="#e0e0e0" stroke="#999999" points="1682.05,-134.5 1583.05,-134.5 1583.05,-115.5 1682.05,-115.5 1682.05,-134.5"/>
<text text-anchor="middle" x="1632.55" y="-122.5" font-family="Malgun Gothic" font-size="10.00">Misc/DateTime.h</text>
</a>
</g>
</g>
<!-- Node1&#45;&gt;Node18 -->
<g id="edge20_Node000001_Node000018" class="edge">
<title>Node1&#45;&gt;Node18</title>
<g id="a_edge20_Node000001_Node000018"><a xlink:title=" ">
<path fill="none" stroke="#63b8ff" d="M1233.27,-183.62C1317.14,-175.92 1456.14,-161.31 1574.55,-140 1579.64,-139.08 1584.95,-137.99 1590.21,-136.83"/>
<polygon fill="#63b8ff" stroke="#63b8ff" points="1591.22,-140.19 1600.17,-134.53 1589.64,-133.37 1591.22,-140.19"/>
</a>
</g>
</g>
<!-- Node19 -->
<g id="Node000019" class="node">
<title>Node19</title>
<g id="a_Node000019"><a xlink:title=" ">
<polygon fill="#e0e0e0" stroke="#999999" points="1803.05,-134.5 1700.05,-134.5 1700.05,-115.5 1803.05,-115.5 1803.05,-134.5"/>
<text text-anchor="middle" x="1751.55" y="-122.5" font-family="Malgun Gothic" font-size="10.00">Misc/ScopeLock.h</text>
</a>
</g>
</g>
<!-- Node1&#45;&gt;Node19 -->
<g id="edge21_Node000001_Node000019" class="edge">
<title>Node1&#45;&gt;Node19</title>
<g id="a_edge21_Node000001_Node000019"><a xlink:title=" ">
<path fill="none" stroke="#63b8ff" d="M1233.12,-186.17C1336.96,-180.16 1529.33,-166.39 1691.55,-140 1697.09,-139.1 1702.88,-137.98 1708.59,-136.77"/>
<polygon fill="#63b8ff" stroke="#63b8ff" points="1709.7,-140.1 1718.7,-134.51 1708.17,-133.27 1709.7,-140.1"/>
</a>
</g>
</g>
<!-- Node20 -->
<g id="Node000020" class="node">
<title>Node20</title>
<g id="a_Node000020"><a xlink:title=" ">
<polygon fill="#e0e0e0" stroke="#999999" points="1917.55,-134.5 1821.55,-134.5 1821.55,-115.5 1917.55,-115.5 1917.55,-134.5"/>
<text text-anchor="middle" x="1869.55" y="-122.5" font-family="Malgun Gothic" font-size="10.00">TimerManager.h</text>
</a>
</g>
</g>
<!-- Node1&#45;&gt;Node20 -->
<g id="edge22_Node000001_Node000020" class="edge">
<title>Node1&#45;&gt;Node20</title>
<g id="a_edge22_Node000001_Node000020"><a xlink:title=" ">
<path fill="none" stroke="#63b8ff" d="M1233.17,-188.27C1355.59,-184.55 1604.49,-173.26 1812.55,-140 1817.76,-139.17 1823.19,-138.1 1828.55,-136.92"/>
<polygon fill="#63b8ff" stroke="#63b8ff" points="1829.73,-140.24 1838.67,-134.56 1828.14,-133.42 1829.73,-140.24"/>
</a>
</g>
</g>
<!-- Node3 -->
<g id="Node000003" class="node">
<title>Node3</title>
<g id="a_Node000003"><a xlink:title=" ">
<polygon fill="#e0e0e0" stroke="#999999" points="548.55,-19 460.55,-19 460.55,0 548.55,0 548.55,-19"/>
<text text-anchor="middle" x="504.55" y="-7" font-family="Malgun Gothic" font-size="10.00">CoreMinimal.h</text>
</a>
</g>
</g>
<!-- Node2&#45;&gt;Node3 -->
<g id="edge2_Node000002_Node000003" class="edge">
<title>Node2&#45;&gt;Node3</title>
<g id="a_edge2_Node000002_Node000003"><a xlink:title=" ">
<path fill="none" stroke="#63b8ff" d="M112.7,-118.6C55.75,-110.55 -25.46,-92.19 8.55,-55 37.88,-22.91 327.31,-13.78 450.01,-11.33"/>
<polygon fill="#63b8ff" stroke="#63b8ff" points="450.37,-14.83 460.3,-11.14 450.24,-7.83 450.37,-14.83"/>
</a>
</g>
</g>
<!-- Node4 -->
<g id="Node000004" class="node">
<title>Node4</title>
<g id="a_Node000004"><a xlink:title=" ">
<polygon fill="#e0e0e0" stroke="#999999" points="147.55,-74 17.55,-74 17.55,-55 147.55,-55 147.55,-74"/>
<text text-anchor="middle" x="82.55" y="-62" font-family="Malgun Gothic" font-size="10.00">Blueprint/UserWidget.h</text>
</a>
</g>
</g>
<!-- Node2&#45;&gt;Node4 -->
<g id="edge3_Node000002_Node000004" class="edge">
<title>Node2&#45;&gt;Node4</title>
<g id="a_edge3_Node000002_Node000004"><a xlink:title=" ">
<path fill="none" stroke="#63b8ff" d="M150.74,-115.37C138.1,-106.12 117.81,-91.28 102.64,-80.19"/>
<polygon fill="#63b8ff" stroke="#63b8ff" points="104.54,-77.24 94.4,-74.17 100.4,-82.9 104.54,-77.24"/>
</a>
</g>
</g>
<!-- Node5 -->
<g id="Node000005" class="node">
<title>Node5</title>
<g id="a_Node000005"><a xlink:title=" ">
<polygon fill="#e0e0e0" stroke="#999999" points="317.55,-74 165.55,-74 165.55,-55 317.55,-55 317.55,-74"/>
<text text-anchor="middle" x="241.55" y="-62" font-family="Malgun Gothic" font-size="10.00">ULoadginCircle.generated.h</text>
</a>
</g>
</g>
<!-- Node2&#45;&gt;Node5 -->
<g id="edge4_Node000002_Node000005" class="edge">
<title>Node2&#45;&gt;Node5</title>
<g id="a_edge4_Node000002_Node000005"><a xlink:title=" ">
<path fill="none" stroke="#63b8ff" d="M174.2,-115.37C186.69,-106.12 206.73,-91.28 221.7,-80.19"/>
<polygon fill="#63b8ff" stroke="#63b8ff" points="223.89,-82.93 229.84,-74.17 219.72,-77.31 223.89,-82.93"/>
</a>
</g>
</g>
<!-- Node6&#45;&gt;Node3 -->
<g id="edge6_Node000006_Node000003" class="edge">
<title>Node6&#45;&gt;Node3</title>
<g id="a_edge6_Node000006_Node000003"><a xlink:title=" ">
<path fill="none" stroke="#63b8ff" d="M449.02,-117.18C401.91,-108.23 339.35,-89.44 364.55,-55 384.09,-28.28 419.82,-17.21 450.29,-12.8"/>
<polygon fill="#63b8ff" stroke="#63b8ff" points="450.9,-16.25 460.39,-11.54 450.03,-9.3 450.9,-16.25"/>
</a>
</g>
</g>
<!-- Node7 -->
<g id="Node000007" class="node">
<title>Node7</title>
<g id="a_Node000007"><a xlink:title=" ">
<polygon fill="#e0e0e0" stroke="#999999" points="493.05,-74 374.05,-74 374.05,-55 493.05,-55 493.05,-74"/>
<text text-anchor="middle" x="433.55" y="-62" font-family="Malgun Gothic" font-size="10.00">Logging/LogMacros.h</text>
</a>
</g>
</g>
<!-- Node6&#45;&gt;Node7 -->
<g id="edge7_Node000006_Node000007" class="edge">
<title>Node6&#45;&gt;Node7</title>
<g id="a_edge7_Node000006_Node000007"><a xlink:title=" ">
<path fill="none" stroke="#63b8ff" d="M486.4,-115.37C476.87,-106.38 461.75,-92.11 450.12,-81.14"/>
<polygon fill="#63b8ff" stroke="#63b8ff" points="452.41,-78.48 442.73,-74.17 447.6,-83.58 452.41,-78.48"/>
</a>
</g>
</g>
<!-- Node8 -->
<g id="Node000008" class="node">
<title>Node8</title>
<g id="a_Node000008"><a xlink:title=" ">
<polygon fill="#e0e0e0" stroke="#999999" points="606.05,-74 511.05,-74 511.05,-55 606.05,-55 606.05,-74"/>
<text text-anchor="middle" x="558.55" y="-62" font-family="Malgun Gothic" font-size="10.00">Engine/Engine.h</text>
</a>
</g>
</g>
<!-- Node6&#45;&gt;Node8 -->
<g id="edge8_Node000006_Node000008" class="edge">
<title>Node6&#45;&gt;Node8</title>
<g id="a_edge8_Node000006_Node000008"><a xlink:title=" ">
<path fill="none" stroke="#63b8ff" d="M504.84,-115.37C514.52,-106.38 529.89,-92.11 541.71,-81.14"/>
<polygon fill="#63b8ff" stroke="#63b8ff" points="544.26,-83.54 549.21,-74.17 539.5,-78.41 544.26,-83.54"/>
</a>
</g>
</g>
<!-- Node9 -->
<g id="Node000009" class="node">
<title>Node9</title>
<g id="a_Node000009"><a xlink:href="FLogWriter_8h.html" target="_top" xlink:title="FArchive 클래스를 선언합니다.">
<polygon fill="white" stroke="#666666" points="702.55,-74 624.55,-74 624.55,-55 702.55,-55 702.55,-74"/>
<text text-anchor="middle" x="663.55" y="-62" font-family="Malgun Gothic" font-size="10.00">FLogWriter.h</text>
</a>
</g>
</g>
<!-- Node6&#45;&gt;Node9 -->
<g id="edge9_Node000006_Node000009" class="edge">
<title>Node6&#45;&gt;Node9</title>
<g id="a_edge9_Node000006_Node000009"><a xlink:title=" ">
<path fill="none" stroke="#63b8ff" d="M519.97,-115.49C548.84,-105.44 597.04,-88.66 629.54,-77.34"/>
<polygon fill="#63b8ff" stroke="#63b8ff" points="630.79,-80.61 639.09,-74.02 628.49,-74 630.79,-80.61"/>
</a>
</g>
</g>
<!-- Node10 -->
<g id="Node000010" class="node">
<title>Node10</title>
<g id="a_Node000010"><a xlink:href="NetworkLog_8h.html" target="_top" xlink:title="YiSan 전반에서 사용하는 공용 인터페이스를 선언합니다.">
<polygon fill="white" stroke="#666666" points="804.55,-74 720.55,-74 720.55,-55 804.55,-55 804.55,-74"/>
<text text-anchor="middle" x="762.55" y="-62" font-family="Malgun Gothic" font-size="10.00">NetworkLog.h</text>
</a>
</g>
</g>
<!-- Node6&#45;&gt;Node10 -->
<g id="edge11_Node000006_Node000010" class="edge">
<title>Node6&#45;&gt;Node10</title>
<g id="a_edge11_Node000006_Node000010"><a xlink:title=" ">
<path fill="none" stroke="#63b8ff" d="M528.96,-115.43C536.38,-113.59 544.22,-111.69 551.55,-110 605.58,-97.55 667.73,-84.61 710.51,-75.91"/>
<polygon fill="#63b8ff" stroke="#63b8ff" points="711.3,-79.32 720.41,-73.91 709.91,-72.46 711.3,-79.32"/>
</a>
</g>
</g>
<!-- Node9&#45;&gt;Node3 -->
<g id="edge10_Node000009_Node000003" class="edge">
<title>Node9&#45;&gt;Node3</title>
<g id="a_edge10_Node000009_Node000003"><a xlink:title=" ">
<path fill="none" stroke="#63b8ff" d="M638,-54.98C611.42,-46.13 569.61,-32.19 539.87,-22.28"/>
<polygon fill="#63b8ff" stroke="#63b8ff" points="540.89,-18.92 530.29,-19.08 538.67,-25.56 540.89,-18.92"/>
</a>
</g>
</g>
<!-- Node10&#45;&gt;Node3 -->
<g id="edge12_Node000010_Node000003" class="edge">
<title>Node10&#45;&gt;Node3</title>
<g id="a_edge12_Node000010_Node000003"><a xlink:title=" ">
<path fill="none" stroke="#63b8ff" d="M721.09,-54.98C676.28,-45.78 604.77,-31.09 556.3,-21.13"/>
<polygon fill="#63b8ff" stroke="#63b8ff" points="556.82,-17.67 546.32,-19.08 555.41,-24.52 556.82,-17.67"/>
</a>
</g>
</g>
</g>
</svg>

<g id="navigator" transform="translate(0 0)" fill="#404254">
  <rect fill="#f2f5e9" fill-opacity="0.5" stroke="#606060" stroke-width=".5" x="0" y="0" width="60" height="60"/>
  <use id="zoomplus" xlink:href="#zoomPlus" x="17" y="9" onmousedown="handleZoom(evt,'in')"/>
  <use id="zoomminus" xlink:href="#zoomMin" x="42" y="9" onmousedown="handleZoom(evt,'out')"/>
  <use id="reset" xlink:href="#resetDef" x="30" y="36" onmousedown="handleReset()"/>
   <use id="arrowup" xlink:href="#arrowUp" x="0" y="0" onmousedown="handlePan(0,-1)"/>
  <use id="arrowright" xlink:href="#arrowRight" x="0" y="0" onmousedown="handlePan(1,0)"/>
  <use id="arrowdown" xlink:href="#arrowDown" x="0" y="0" onmousedown="handlePan(0,1)"/>
  <use id="arrowleft" xlink:href="#arrowLeft" x="0" y="0" onmousedown="handlePan(-1,0)"/>
</g>
<svg viewBox="0 0 15 15" width="100%" height="30px" preserveAspectRatio="xMaxYMin meet">
 <g id="arrow_out" transform="scale(0.3 0.3)">
  <a xlink:href="ULoadginCircle_8cpp__incl_org.svg" target="_base">
   <rect id="button" ry="5" rx="5" y="6" x="6" height="38" width="38"
        fill="#f2f5e9" fill-opacity="0.5" stroke="#606060" stroke-width="1.0"/>
   <path id="arrow"
     d="M 11.500037,31.436501 C 11.940474,20.09759 22.043105,11.32322 32.158766,21.979434 L 37.068811,17.246167 C 37.068811,17.246167 37.088388,32 37.088388,32 L 22.160133,31.978069 C 22.160133,31.978069 26.997745,27.140456 26.997745,27.140456 C 18.528582,18.264221 13.291696,25.230495 11.500037,31.436501 z"
     style="fill:#404040;"/>
  </a>
 </g>
</svg>

<style type='text/css'>
<![CDATA[
[data-mouse-over-selected='false'] { opacity: 0.7; }
[data-mouse-over-selected='true']  { opacity: 1.0; }
]]>
</style>
<script type="application/ecmascript"><![CDATA[
document.addEventListener('DOMContentLoaded', (event) => {
  highlightEdges();
  highlightAdjacentNodes();
});
]]></script>
</svg>
