<?xml version="1.0" encoding="UTF-8" standalone="no"?>
<!DOCTYPE svg PUBLIC "-//W3C//DTD SVG 1.1//EN"
 "http://www.w3.org/Graphics/SVG/1.1/DTD/svg11.dtd">
<!-- Generated by graphviz version 2.43.0 (0)
 -->
<!-- Title: Source/Onepiece/Network/Public/UWebSocketSystem.h Pages: 1 -->
<svg width="694pt" height="93pt"
 viewBox="0.00 0.00 694.00 93.00" xmlns="http://www.w3.org/2000/svg" xmlns:xlink="http://www.w3.org/1999/xlink">
<g id="graph0" class="graph" transform="scale(1 1) rotate(0) translate(4 89)">
<title>Source/Onepiece/Network/Public/UWebSocketSystem.h</title>
<!-- Node1 -->
<g id="Node000001" class="node">
<title>Node1</title>
<g id="a_Node000001"><a xlink:title="실시간 음성·텍스트 상호작용을 위한 WebSocket 서브시스템을 선언합니다.">
<polygon fill="#999999" stroke="#666666" points="456,-85 298,-85 298,-55 456,-55 456,-85"/>
<text text-anchor="start" x="306" y="-73" font-family="Malgun Gothic" font-size="10.00">Source/Onepiece/Network</text>
<text text-anchor="middle" x="377" y="-62" font-family="Malgun Gothic" font-size="10.00">/Public/UWebSocketSystem.h</text>
</a>
</g>
</g>
<!-- Node2 -->
<g id="Node000002" class="node">
<title>Node2</title>
<g id="a_Node000002"><a xlink:title=" ">
<polygon fill="#e0e0e0" stroke="#999999" points="88,-19 0,-19 0,0 88,0 88,-19"/>
<text text-anchor="middle" x="44" y="-7" font-family="Malgun Gothic" font-size="10.00">CoreMinimal.h</text>
</a>
</g>
</g>
<!-- Node1&#45;&gt;Node2 -->
<g id="edge1_Node000001_Node000002" class="edge">
<title>Node1&#45;&gt;Node2</title>
<g id="a_edge1_Node000001_Node000002"><a xlink:title=" ">
<path fill="none" stroke="#63b8ff" d="M297.66,-55.06C236.03,-44.24 152.22,-29.51 98.11,-20.01"/>
<polygon fill="#63b8ff" stroke="#63b8ff" points="98.49,-16.52 88.03,-18.24 97.28,-23.41 98.49,-16.52"/>
</a>
</g>
</g>
<!-- Node3 -->
<g id="Node000003" class="node">
<title>Node3</title>
<g id="a_Node000003"><a xlink:title=" ">
<polygon fill="#e0e0e0" stroke="#999999" points="318,-19 106,-19 106,0 318,0 318,-19"/>
<text text-anchor="middle" x="212" y="-7" font-family="Malgun Gothic" font-size="10.00">Subsystems/GameInstanceSubsystem.h</text>
</a>
</g>
</g>
<!-- Node1&#45;&gt;Node3 -->
<g id="edge2_Node000001_Node000003" class="edge">
<title>Node1&#45;&gt;Node3</title>
<g id="a_edge2_Node000001_Node000003"><a xlink:title=" ">
<path fill="none" stroke="#63b8ff" d="M337.48,-54.99C309.58,-45.1 272.59,-31.98 246,-22.56"/>
<polygon fill="#63b8ff" stroke="#63b8ff" points="246.96,-19.18 236.37,-19.14 244.62,-25.78 246.96,-19.18"/>
</a>
</g>
</g>
<!-- Node4 -->
<g id="Node000004" class="node">
<title>Node4</title>
<g id="a_Node000004"><a xlink:title=" ">
<polygon fill="#e0e0e0" stroke="#999999" points="418,-19 336,-19 336,0 418,0 418,-19"/>
<text text-anchor="middle" x="377" y="-7" font-family="Malgun Gothic" font-size="10.00">IWebSocket.h</text>
</a>
</g>
</g>
<!-- Node1&#45;&gt;Node4 -->
<g id="edge3_Node000001_Node000004" class="edge">
<title>Node1&#45;&gt;Node4</title>
<g id="a_edge3_Node000001_Node000004"><a xlink:title=" ">
<path fill="none" stroke="#63b8ff" d="M377,-54.84C377,-47.21 377,-37.7 377,-29.45"/>
<polygon fill="#63b8ff" stroke="#63b8ff" points="380.5,-29.27 377,-19.27 373.5,-29.27 380.5,-29.27"/>
</a>
</g>
</g>
<!-- Node5 -->
<g id="Node000005" class="node">
<title>Node5</title>
<g id="a_Node000005"><a xlink:href="Macro_8h.html" target="_top" xlink:title="YiSan 전반에서 사용하는 공용 인터페이스를 선언합니다.">
<polygon fill="white" stroke="#666666" points="492,-19 436,-19 436,0 492,0 492,-19"/>
<text text-anchor="middle" x="464" y="-7" font-family="Malgun Gothic" font-size="10.00">Macro.h</text>
</a>
</g>
</g>
<!-- Node1&#45;&gt;Node5 -->
<g id="edge4_Node000001_Node000005" class="edge">
<title>Node1&#45;&gt;Node5</title>
<g id="a_edge4_Node000001_Node000005"><a xlink:title=" ">
<path fill="none" stroke="#63b8ff" d="M398.06,-54.84C411.54,-45.77 428.99,-34.04 442.55,-24.92"/>
<polygon fill="#63b8ff" stroke="#63b8ff" points="444.87,-27.58 451.22,-19.09 440.97,-21.77 444.87,-27.58"/>
</a>
</g>
</g>
<!-- Node6 -->
<g id="Node000006" class="node">
<title>Node6</title>
<g id="a_Node000006"><a xlink:title=" ">
<polygon fill="#e0e0e0" stroke="#999999" points="686,-19 510,-19 510,0 686,0 686,-19"/>
<text text-anchor="middle" x="598" y="-7" font-family="Malgun Gothic" font-size="10.00">UWebSocketSystem.generated.h</text>
</a>
</g>
</g>
<!-- Node1&#45;&gt;Node6 -->
<g id="edge5_Node000001_Node000006" class="edge">
<title>Node1&#45;&gt;Node6</title>
<g id="a_edge5_Node000001_Node000006"><a xlink:title=" ">
<path fill="none" stroke="#63b8ff" d="M429.94,-54.99C468.41,-44.8 519.79,-31.2 555.57,-21.73"/>
<polygon fill="#63b8ff" stroke="#63b8ff" points="556.91,-25 565.69,-19.05 555.12,-18.23 556.91,-25"/>
</a>
</g>
</g>
</g>
</svg>
