<?xml version="1.0" encoding="UTF-8" standalone="no"?>
<!DOCTYPE svg PUBLIC "-//W3C//DTD SVG 1.1//EN"
 "http://www.w3.org/Graphics/SVG/1.1/DTD/svg11.dtd">
<!-- Generated by graphviz version 2.43.0 (0)
 -->
<!-- Title: Source/Onepiece/Network/Private/UWebSocketSystem.cpp Pages: 1 -->
<svg width="1296pt" height="203pt"
 viewBox="0.00 0.00 1296.00 203.00" xmlns="http://www.w3.org/2000/svg" xmlns:xlink="http://www.w3.org/1999/xlink">
<g id="graph0" class="graph" transform="scale(1 1) rotate(0) translate(4 199)">
<title>Source/Onepiece/Network/Private/UWebSocketSystem.cpp</title>
<!-- Node1 -->
<g id="Node000001" class="node">
<title>Node1</title>
<g id="a_Node000001"><a xlink:title="UWebSocketSystem의 동작을 구현합니다.">
<polygon fill="#999999" stroke="#666666" points="901.5,-195 726.5,-195 726.5,-165 901.5,-165 901.5,-195"/>
<text text-anchor="start" x="734.5" y="-183" font-family="Malgun Gothic" font-size="10.00">Source/Onepiece/Network</text>
<text text-anchor="middle" x="814" y="-172" font-family="Malgun Gothic" font-size="10.00">/Private/UWebSocketSystem.cpp</text>
</a>
</g>
</g>
<!-- Node2 -->
<g id="Node000002" class="node">
<title>Node2</title>
<g id="a_Node000002"><a xlink:href="UWebSocketSystem_8h.html" target="_top" xlink:title="실시간 음성·텍스트 상호작용을 위한 WebSocket 서브시스템을 선언합니다.">
<polygon fill="white" stroke="#666666" points="875.5,-129 752.5,-129 752.5,-110 875.5,-110 875.5,-129"/>
<text text-anchor="middle" x="814" y="-117" font-family="Malgun Gothic" font-size="10.00">UWebSocketSystem.h</text>
</a>
</g>
</g>
<!-- Node1&#45;&gt;Node2 -->
<g id="edge1_Node000001_Node000002" class="edge">
<title>Node1&#45;&gt;Node2</title>
<g id="a_edge1_Node000001_Node000002"><a xlink:title=" ">
<path fill="none" stroke="#63b8ff" d="M814,-164.84C814,-157.21 814,-147.7 814,-139.45"/>
<polygon fill="#63b8ff" stroke="#63b8ff" points="817.5,-139.27 814,-129.27 810.5,-139.27 817.5,-139.27"/>
</a>
</g>
</g>
<!-- Node8 -->
<g id="Node000008" class="node">
<title>Node8</title>
<g id="a_Node000008"><a xlink:href="NetworkData_8h.html" target="_top" xlink:title="네트워크 요청과 응답에 사용되는 구조체 및 설정을 정의합니다.">
<polygon fill="white" stroke="#666666" points="424,-129 334,-129 334,-110 424,-110 424,-129"/>
<text text-anchor="middle" x="379" y="-117" font-family="Malgun Gothic" font-size="10.00">NetworkData.h</text>
</a>
</g>
</g>
<!-- Node1&#45;&gt;Node8 -->
<g id="edge7_Node000001_Node000008" class="edge">
<title>Node1&#45;&gt;Node8</title>
<g id="a_edge7_Node000001_Node000008"><a xlink:title=" ">
<path fill="none" stroke="#63b8ff" d="M726.49,-167.23C639.18,-155.49 507.71,-137.81 434.04,-127.9"/>
<polygon fill="#63b8ff" stroke="#63b8ff" points="434.42,-124.42 424.04,-126.56 433.49,-131.36 434.42,-124.42"/>
</a>
</g>
</g>
<!-- Node14 -->
<g id="Node000014" class="node">
<title>Node14</title>
<g id="a_Node000014"><a xlink:title=" ">
<polygon fill="#e0e0e0" stroke="#999999" points="1014,-129 894,-129 894,-110 1014,-110 1014,-129"/>
<text text-anchor="middle" x="954" y="-117" font-family="Malgun Gothic" font-size="10.00">WebSocketsModule.h</text>
</a>
</g>
</g>
<!-- Node1&#45;&gt;Node14 -->
<g id="edge15_Node000001_Node000014" class="edge">
<title>Node1&#45;&gt;Node14</title>
<g id="a_edge15_Node000001_Node000014"><a xlink:title=" ">
<path fill="none" stroke="#63b8ff" d="M847.53,-164.99C870.79,-155.27 901.49,-142.44 923.95,-133.06"/>
<polygon fill="#63b8ff" stroke="#63b8ff" points="925.45,-136.22 933.32,-129.14 922.75,-129.77 925.45,-136.22"/>
</a>
</g>
</g>
<!-- Node15 -->
<g id="Node000015" class="node">
<title>Node15</title>
<g id="a_Node000015"><a xlink:href="NetworkLog_8h.html" target="_top" xlink:title="YiSan 전반에서 사용하는 공용 인터페이스를 선언합니다.">
<polygon fill="white" stroke="#666666" points="709,-129 625,-129 625,-110 709,-110 709,-129"/>
<text text-anchor="middle" x="667" y="-117" font-family="Malgun Gothic" font-size="10.00">NetworkLog.h</text>
</a>
</g>
</g>
<!-- Node1&#45;&gt;Node15 -->
<g id="edge16_Node000001_Node000015" class="edge">
<title>Node1&#45;&gt;Node15</title>
<g id="a_edge16_Node000001_Node000015"><a xlink:title=" ">
<path fill="none" stroke="#63b8ff" d="M778.79,-164.99C754.26,-155.23 721.85,-142.33 698.24,-132.93"/>
<polygon fill="#63b8ff" stroke="#63b8ff" points="699.29,-129.58 688.71,-129.14 696.71,-136.09 699.29,-129.58"/>
</a>
</g>
</g>
<!-- Node16 -->
<g id="Node000016" class="node">
<title>Node16</title>
<g id="a_Node000016"><a xlink:title=" ">
<polygon fill="#e0e0e0" stroke="#999999" points="1119.5,-129 1032.5,-129 1032.5,-110 1119.5,-110 1119.5,-129"/>
<text text-anchor="middle" x="1076" y="-117" font-family="Malgun Gothic" font-size="10.00">Misc/Base64.h</text>
</a>
</g>
</g>
<!-- Node1&#45;&gt;Node16 -->
<g id="edge18_Node000001_Node000016" class="edge">
<title>Node1&#45;&gt;Node16</title>
<g id="a_edge18_Node000001_Node000016"><a xlink:title=" ">
<path fill="none" stroke="#63b8ff" d="M876.76,-164.99C923.15,-154.63 985.38,-140.73 1027.87,-131.25"/>
<polygon fill="#63b8ff" stroke="#63b8ff" points="1028.69,-134.65 1037.69,-129.05 1027.17,-127.82 1028.69,-134.65"/>
</a>
</g>
</g>
<!-- Node3 -->
<g id="Node000003" class="node">
<title>Node3</title>
<g id="a_Node000003"><a xlink:title=" ">
<polygon fill="#e0e0e0" stroke="#999999" points="583,-19 495,-19 495,0 583,0 583,-19"/>
<text text-anchor="middle" x="539" y="-7" font-family="Malgun Gothic" font-size="10.00">CoreMinimal.h</text>
</a>
</g>
</g>
<!-- Node2&#45;&gt;Node3 -->
<g id="edge2_Node000002_Node000003" class="edge">
<title>Node2&#45;&gt;Node3</title>
<g id="a_edge2_Node000002_Node000003"><a xlink:title=" ">
<path fill="none" stroke="#63b8ff" d="M791.5,-109.86C768.3,-100.93 731.09,-86.58 699,-74 653.99,-56.36 601.98,-35.66 569.78,-22.81"/>
<polygon fill="#63b8ff" stroke="#63b8ff" points="571.04,-19.54 560.46,-19.08 568.45,-26.04 571.04,-19.54"/>
</a>
</g>
</g>
<!-- Node4 -->
<g id="Node000004" class="node">
<title>Node4</title>
<g id="a_Node000004"><a xlink:title=" ">
<polygon fill="#e0e0e0" stroke="#999999" points="920,-74 708,-74 708,-55 920,-55 920,-74"/>
<text text-anchor="middle" x="814" y="-62" font-family="Malgun Gothic" font-size="10.00">Subsystems/GameInstanceSubsystem.h</text>
</a>
</g>
</g>
<!-- Node2&#45;&gt;Node4 -->
<g id="edge3_Node000002_Node000004" class="edge">
<title>Node2&#45;&gt;Node4</title>
<g id="a_edge3_Node000002_Node000004"><a xlink:title=" ">
<path fill="none" stroke="#63b8ff" d="M814,-109.75C814,-102.8 814,-92.85 814,-84.13"/>
<polygon fill="#63b8ff" stroke="#63b8ff" points="817.5,-84.09 814,-74.09 810.5,-84.09 817.5,-84.09"/>
</a>
</g>
</g>
<!-- Node5 -->
<g id="Node000005" class="node">
<title>Node5</title>
<g id="a_Node000005"><a xlink:title=" ">
<polygon fill="#e0e0e0" stroke="#999999" points="1020,-74 938,-74 938,-55 1020,-55 1020,-74"/>
<text text-anchor="middle" x="979" y="-62" font-family="Malgun Gothic" font-size="10.00">IWebSocket.h</text>
</a>
</g>
</g>
<!-- Node2&#45;&gt;Node5 -->
<g id="edge4_Node000002_Node000005" class="edge">
<title>Node2&#45;&gt;Node5</title>
<g id="a_edge4_Node000002_Node000005"><a xlink:title=" ">
<path fill="none" stroke="#63b8ff" d="M840.51,-109.98C868.21,-101.09 911.86,-87.07 942.74,-77.15"/>
<polygon fill="#63b8ff" stroke="#63b8ff" points="943.83,-80.47 952.28,-74.08 941.69,-73.81 943.83,-80.47"/>
</a>
</g>
</g>
<!-- Node6 -->
<g id="Node000006" class="node">
<title>Node6</title>
<g id="a_Node000006"><a xlink:href="Macro_8h.html" target="_top" xlink:title="YiSan 전반에서 사용하는 공용 인터페이스를 선언합니다.">
<polygon fill="white" stroke="#666666" points="1094,-74 1038,-74 1038,-55 1094,-55 1094,-74"/>
<text text-anchor="middle" x="1066" y="-62" font-family="Malgun Gothic" font-size="10.00">Macro.h</text>
</a>
</g>
</g>
<!-- Node2&#45;&gt;Node6 -->
<g id="edge5_Node000002_Node000006" class="edge">
<title>Node2&#45;&gt;Node6</title>
<g id="a_edge5_Node000002_Node000006"><a xlink:title=" ">
<path fill="none" stroke="#63b8ff" d="M856.48,-109.99C897.78,-101.66 962.52,-88.42 1027.69,-74.25"/>
<polygon fill="#63b8ff" stroke="#63b8ff" points="1028.71,-77.61 1037.73,-72.06 1027.22,-70.77 1028.71,-77.61"/>
</a>
</g>
</g>
<!-- Node7 -->
<g id="Node000007" class="node">
<title>Node7</title>
<g id="a_Node000007"><a xlink:title=" ">
<polygon fill="#e0e0e0" stroke="#999999" points="1288,-74 1112,-74 1112,-55 1288,-55 1288,-74"/>
<text text-anchor="middle" x="1200" y="-62" font-family="Malgun Gothic" font-size="10.00">UWebSocketSystem.generated.h</text>
</a>
</g>
</g>
<!-- Node2&#45;&gt;Node7 -->
<g id="edge6_Node000002_Node000007" class="edge">
<title>Node2&#45;&gt;Node7</title>
<g id="a_edge6_Node000002_Node000007"><a xlink:title=" ">
<path fill="none" stroke="#63b8ff" d="M875.59,-110.04C944.3,-100.61 1055.33,-85.36 1128,-75.39"/>
<polygon fill="#63b8ff" stroke="#63b8ff" points="1128.56,-78.84 1137.99,-74.01 1127.61,-71.91 1128.56,-78.84"/>
</a>
</g>
</g>
<!-- Node8&#45;&gt;Node3 -->
<g id="edge8_Node000008_Node000003" class="edge">
<title>Node8&#45;&gt;Node3</title>
<g id="a_edge8_Node000008_Node000003"><a xlink:title=" ">
<path fill="none" stroke="#63b8ff" d="M351.37,-109.97C320.5,-99.04 277.3,-78.66 297,-55 320.4,-26.9 420.75,-16.48 484.65,-12.66"/>
<polygon fill="#63b8ff" stroke="#63b8ff" points="485.18,-16.14 494.97,-12.08 484.79,-9.15 485.18,-16.14"/>
</a>
</g>
</g>
<!-- Node9 -->
<g id="Node000009" class="node">
<title>Node9</title>
<g id="a_Node000009"><a xlink:href="UCustomNetworkSettings_8h.html" target="_top" xlink:title="서버 환경별 네트워크 설정을 노출하는 DeveloperSettings를 선언합니다.">
<polygon fill="white" stroke="#666666" points="250,-74 98,-74 98,-55 250,-55 250,-74"/>
<text text-anchor="middle" x="174" y="-62" font-family="Malgun Gothic" font-size="10.00">UCustomNetworkSettings.h</text>
</a>
</g>
</g>
<!-- Node8&#45;&gt;Node9 -->
<g id="edge9_Node000008_Node000009" class="edge">
<title>Node8&#45;&gt;Node9</title>
<g id="a_edge9_Node000008_Node000009"><a xlink:title=" ">
<path fill="none" stroke="#63b8ff" d="M346.06,-109.98C311.05,-100.93 255.53,-86.58 217.07,-76.64"/>
<polygon fill="#63b8ff" stroke="#63b8ff" points="217.75,-73.2 207.19,-74.08 216,-79.97 217.75,-73.2"/>
</a>
</g>
</g>
<!-- Node12 -->
<g id="Node000012" class="node">
<title>Node12</title>
<g id="a_Node000012"><a xlink:title=" ">
<polygon fill="#e0e0e0" stroke="#999999" points="452,-74 306,-74 306,-55 452,-55 452,-74"/>
<text text-anchor="middle" x="379" y="-62" font-family="Malgun Gothic" font-size="10.00">Templates/SharedPointer.h</text>
</a>
</g>
</g>
<!-- Node8&#45;&gt;Node12 -->
<g id="edge13_Node000008_Node000012" class="edge">
<title>Node8&#45;&gt;Node12</title>
<g id="a_edge13_Node000008_Node000012"><a xlink:title=" ">
<path fill="none" stroke="#63b8ff" d="M379,-109.75C379,-102.8 379,-92.85 379,-84.13"/>
<polygon fill="#63b8ff" stroke="#63b8ff" points="382.5,-84.09 379,-74.09 375.5,-84.09 382.5,-84.09"/>
</a>
</g>
</g>
<!-- Node13 -->
<g id="Node000013" class="node">
<title>Node13</title>
<g id="a_Node000013"><a xlink:title=" ">
<polygon fill="#e0e0e0" stroke="#999999" points="613.5,-74 470.5,-74 470.5,-55 613.5,-55 613.5,-74"/>
<text text-anchor="middle" x="542" y="-62" font-family="Malgun Gothic" font-size="10.00">NetworkData.generated.h</text>
</a>
</g>
</g>
<!-- Node8&#45;&gt;Node13 -->
<g id="edge14_Node000008_Node000013" class="edge">
<title>Node8&#45;&gt;Node13</title>
<g id="a_edge14_Node000008_Node000013"><a xlink:title=" ">
<path fill="none" stroke="#63b8ff" d="M405.19,-109.98C432.44,-101.13 475.3,-87.19 505.78,-77.28"/>
<polygon fill="#63b8ff" stroke="#63b8ff" points="507.18,-80.5 515.61,-74.08 505.01,-73.85 507.18,-80.5"/>
</a>
</g>
</g>
<!-- Node9&#45;&gt;Node3 -->
<g id="edge10_Node000009_Node000003" class="edge">
<title>Node9&#45;&gt;Node3</title>
<g id="a_edge10_Node000009_Node000003"><a xlink:title=" ">
<path fill="none" stroke="#63b8ff" d="M232.64,-54.98C302.22,-44.88 417.28,-28.17 484.83,-18.37"/>
<polygon fill="#63b8ff" stroke="#63b8ff" points="485.46,-21.81 494.85,-16.91 484.45,-14.88 485.46,-21.81"/>
</a>
</g>
</g>
<!-- Node10 -->
<g id="Node000010" class="node">
<title>Node10</title>
<g id="a_Node000010"><a xlink:title=" ">
<polygon fill="#e0e0e0" stroke="#999999" points="152,-19 0,-19 0,0 152,0 152,-19"/>
<text text-anchor="middle" x="76" y="-7" font-family="Malgun Gothic" font-size="10.00">Engine/DeveloperSettings.h</text>
</a>
</g>
</g>
<!-- Node9&#45;&gt;Node10 -->
<g id="edge11_Node000009_Node000010" class="edge">
<title>Node9&#45;&gt;Node10</title>
<g id="a_edge11_Node000009_Node000010"><a xlink:title=" ">
<path fill="none" stroke="#63b8ff" d="M158.25,-54.98C142.77,-46.61 118.91,-33.7 100.86,-23.95"/>
<polygon fill="#63b8ff" stroke="#63b8ff" points="102.49,-20.85 92.03,-19.17 99.16,-27.01 102.49,-20.85"/>
</a>
</g>
</g>
<!-- Node11 -->
<g id="Node000011" class="node">
<title>Node11</title>
<g id="a_Node000011"><a xlink:title=" ">
<polygon fill="#e0e0e0" stroke="#999999" points="374,-19 170,-19 170,0 374,0 374,-19"/>
<text text-anchor="middle" x="272" y="-7" font-family="Malgun Gothic" font-size="10.00">UCustomNetworkSettings.generated.h</text>
</a>
</g>
</g>
<!-- Node9&#45;&gt;Node11 -->
<g id="edge12_Node000009_Node000011" class="edge">
<title>Node9&#45;&gt;Node11</title>
<g id="a_edge12_Node000009_Node000011"><a xlink:title=" ">
<path fill="none" stroke="#63b8ff" d="M189.75,-54.98C205.23,-46.61 229.09,-33.7 247.14,-23.95"/>
<polygon fill="#63b8ff" stroke="#63b8ff" points="248.84,-27.01 255.97,-19.17 245.51,-20.85 248.84,-27.01"/>
</a>
</g>
</g>
<!-- Node15&#45;&gt;Node3 -->
<g id="edge17_Node000015_Node000003" class="edge">
<title>Node15&#45;&gt;Node3</title>
<g id="a_edge17_Node000015_Node000003"><a xlink:title=" ">
<path fill="none" stroke="#63b8ff" d="M662.51,-109.73C655.4,-96.5 640.44,-71.27 622,-55 606.84,-41.61 586.94,-30.77 570.43,-23.14"/>
<polygon fill="#63b8ff" stroke="#63b8ff" points="571.73,-19.89 561.17,-19.03 568.89,-26.28 571.73,-19.89"/>
</a>
</g>
</g>
</g>
</svg>
